<svg width="462" height="291" viewBox="0 0 462 291" fill="none" xmlns="http://www.w3.org/2000/svg">
<g clip-path="url(#clip0_932_25317)">
<rect width="462" height="291" rx="8" fill="#F6F7F8"/>
<path d="M70.2461 126.205L119.151 163.598" stroke="#64B5C8" stroke-linejoin="round"/>
<path d="M158.035 136.227L196.906 163.598" stroke="#64B5C8" stroke-linejoin="round"/>
<path d="M158.034 136.227L119.15 163.598" stroke="#64B5C8" stroke-linejoin="round"/>
<path d="M140.535 77.2998L362.173 236.228" stroke="#64B5C8" stroke-linejoin="round"/>
<path d="M117.648 99.1718L80.0801 72.8152V-12.6182L117.648 13.7259V99.1718Z" fill="url(#paint0_linear_932_25317)" stroke="#64B5C8" stroke-linejoin="round"/>
<path d="M117.648 99.1718L155.217 72.8152V-12.6182L117.648 13.7259V99.1718Z" fill="url(#paint1_linear_932_25317)" stroke="#64B5C8" stroke-linejoin="round"/>
<path d="M117.648 -39L80.0801 -12.6059L117.648 13.7507L155.216 -12.6059L117.648 -39Z" fill="url(#paint2_linear_932_25317)" stroke="#64B5C8" stroke-linejoin="round"/>
<g style="mix-blend-mode:multiply">
<path d="M120.756 21.3297L155.217 -2.84717V-6.80566L120.756 17.3712V21.3297Z" fill="url(#paint3_linear_932_25317)" stroke="#64B5C8" stroke-linejoin="round"/>
<path d="M120.756 31.5016L155.217 7.32471V3.36621L120.756 27.5431V31.5016Z" fill="url(#paint4_linear_932_25317)" stroke="#64B5C8" stroke-linejoin="round"/>
<path d="M120.756 41.6735L155.217 17.4966V13.5381L120.756 37.715V41.6735Z" fill="url(#paint5_linear_932_25317)" stroke="#64B5C8" stroke-linejoin="round"/>
<path d="M120.756 51.8453L155.217 27.6685V23.71L120.756 47.8869V51.8453Z" fill="url(#paint6_linear_932_25317)" stroke="#64B5C8" stroke-linejoin="round"/>
<path d="M120.756 62.0172L155.217 37.8403V33.8818L120.756 58.0587V62.0172Z" fill="url(#paint7_linear_932_25317)" stroke="#64B5C8" stroke-linejoin="round"/>
<path d="M120.756 72.1891L155.217 48.0122V44.0537L120.756 68.2306V72.1891Z" fill="url(#paint8_linear_932_25317)" stroke="#64B5C8" stroke-linejoin="round"/>
</g>
<path d="M117.648 6.88633L92.1309 -11.0271V-14.1338L117.648 3.76713V6.88633Z" fill="url(#paint9_linear_932_25317)" stroke="#64B5C8" stroke-linejoin="round"/>
<path d="M117.648 6.88633L143.178 -11.0271V-14.1338L117.648 3.76713V6.88633Z" fill="url(#paint10_linear_932_25317)" stroke="#64B5C8" stroke-linejoin="round"/>
<path d="M117.648 -32.047V-32.0596V-32.047L92.1309 -14.1211L117.648 3.77985L143.178 -14.1211L117.648 -32.047Z" fill="url(#paint11_linear_932_25317)"/>
<path d="M117.648 -32.047V-32.0596V-32.047ZM117.648 -32.047L92.1309 -14.1211L117.648 3.77985L143.178 -14.1211L117.648 -32.047Z" stroke="#64B5C8" stroke-linejoin="round"/>
<path d="M64.2715 136.225L97.5304 112.887V88.084L64.2715 111.422V136.225Z" fill="url(#paint12_linear_932_25317)" stroke="#64B5C8" stroke-linejoin="round"/>
<path d="M64.2714 136.225L31 112.887V88.084L64.2714 111.422V136.225Z" fill="url(#paint13_linear_932_25317)" stroke="#64B5C8" stroke-linejoin="round"/>
<path d="M64.2714 64.7217L97.5303 88.0968L64.2714 111.434L31 88.0968L64.2714 64.7217Z" fill="url(#paint14_linear_932_25317)" stroke="#64B5C8" stroke-linejoin="round"/>
<g opacity="0.8" style="mix-blend-mode:multiply">
<path d="M64.2716 67.9912L92.8704 88.0969L64.2716 108.165L35.6602 88.0969L64.2716 67.9912Z" fill="url(#paint15_linear_932_25317)"/>
<path d="M64.2716 67.9912L92.8704 88.0969L64.2716 108.165L35.6602 88.0969L64.2716 67.9912Z" stroke="#64B5C8" stroke-linejoin="round"/>
</g>
<path d="M65.5977 94.7863L98.8691 71.4487V67.415L65.5977 90.7401V94.7863Z" fill="url(#paint16_linear_932_25317)" stroke="#64B5C8" stroke-linejoin="round"/>
<path d="M65.5987 94.7863L32.3398 71.4487V67.415L65.5987 90.7401V94.7863Z" fill="url(#paint17_linear_932_25317)" stroke="#64B5C8" stroke-linejoin="round"/>
<path d="M65.5987 44.0527L98.8701 67.4279L65.5987 90.7655L32.3398 67.4279L65.5987 44.0527Z" fill="url(#paint18_linear_932_25317)" stroke="#64B5C8" stroke-linejoin="round"/>
<g opacity="0.8" style="mix-blend-mode:multiply">
<path d="M65.5989 47.3223L94.2103 67.4279L65.5989 87.496L37 67.4279L65.5989 47.3223Z" fill="url(#paint19_linear_932_25317)"/>
<path d="M65.5989 47.3223L94.2103 67.4279L65.5989 87.496L37 67.4279L65.5989 47.3223Z" stroke="#64B5C8" stroke-linejoin="round"/>
</g>
<path d="M392.701 292.136L355.133 265.78V180.334L392.701 206.691V292.136Z" fill="url(#paint20_linear_932_25317)" stroke="#64B5C8" stroke-linejoin="round"/>
<path d="M392.701 292.136L430.269 265.78V180.334L392.701 206.691V292.136Z" fill="url(#paint21_linear_932_25317)" stroke="#64B5C8" stroke-linejoin="round"/>
<path d="M392.701 153.965L355.133 180.359L392.701 206.716L430.269 180.359L392.701 153.965Z" fill="url(#paint22_linear_932_25317)" stroke="#64B5C8" stroke-linejoin="round"/>
<g style="mix-blend-mode:multiply">
<path d="M395.809 214.295L430.27 190.118V186.159L395.809 210.336V214.295Z" fill="url(#paint23_linear_932_25317)" stroke="#64B5C8" stroke-linejoin="round"/>
<path d="M395.809 224.466L430.27 200.29V196.331L395.809 220.508V224.466Z" fill="url(#paint24_linear_932_25317)" stroke="#64B5C8" stroke-linejoin="round"/>
<path d="M395.809 234.638L430.27 210.461V206.503L395.809 230.68V234.638Z" fill="url(#paint25_linear_932_25317)" stroke="#64B5C8" stroke-linejoin="round"/>
<path d="M395.809 244.81L430.27 220.633V216.675L395.809 240.852V244.81Z" fill="url(#paint26_linear_932_25317)" stroke="#64B5C8" stroke-linejoin="round"/>
<path d="M395.809 254.982L430.27 230.805V226.847L395.809 251.024V254.982Z" fill="url(#paint27_linear_932_25317)" stroke="#64B5C8" stroke-linejoin="round"/>
<path d="M395.809 265.154L430.27 240.977V237.019L395.809 261.195V265.154Z" fill="url(#paint28_linear_932_25317)" stroke="#64B5C8" stroke-linejoin="round"/>
</g>
<path d="M392.701 199.839L367.184 181.938V178.831L392.701 196.732V199.839Z" fill="url(#paint29_linear_932_25317)" stroke="#64B5C8" stroke-linejoin="round"/>
<path d="M392.701 199.839L418.231 181.938V178.831L392.701 196.732V199.839Z" fill="url(#paint30_linear_932_25317)" stroke="#64B5C8" stroke-linejoin="round"/>
<path d="M392.701 160.905L367.184 178.844L392.701 196.745L418.231 178.844L392.701 160.905Z" fill="url(#paint31_linear_932_25317)" stroke="#64B5C8" stroke-linejoin="round"/>
<g style="mix-blend-mode:multiply">
<path d="M393.754 169.686L378.734 180.233L380.3 181.348L395.32 170.813L393.754 169.686Z" fill="url(#paint32_linear_932_25317)" stroke="#64B5C8" stroke-linejoin="round"/>
<path d="M396.598 171.715L381.578 182.262L383.144 183.365L398.151 172.83L396.598 171.715Z" fill="url(#paint33_linear_932_25317)" stroke="#64B5C8" stroke-linejoin="round"/>
<path d="M399.43 173.731L384.41 184.292L385.976 185.394L400.996 174.859L399.43 173.731Z" fill="url(#paint34_linear_932_25317)" stroke="#64B5C8" stroke-linejoin="round"/>
<path d="M402.272 175.761L387.252 186.308L388.818 187.411L403.825 176.876L402.272 175.761Z" fill="url(#paint35_linear_932_25317)" stroke="#64B5C8" stroke-linejoin="round"/>
<path d="M405.104 177.791L390.084 188.339L391.65 189.441L406.67 178.906L405.104 177.791Z" fill="url(#paint36_linear_932_25317)" stroke="#64B5C8" stroke-linejoin="round"/>
</g>
<path d="M339.312 329.19L372.584 305.852V281.036L339.312 304.374V329.19Z" fill="url(#paint37_linear_932_25317)" stroke="#64B5C8" stroke-linejoin="round"/>
<path d="M339.312 329.19L306.053 305.852V281.036L339.312 304.374V329.19Z" fill="url(#paint38_linear_932_25317)" stroke="#64B5C8" stroke-linejoin="round"/>
<path d="M339.312 257.687L372.583 281.062L339.312 304.399L306.053 281.062L339.312 257.687Z" fill="url(#paint39_linear_932_25317)" stroke="#64B5C8" stroke-linejoin="round"/>
<g opacity="0.8" style="mix-blend-mode:multiply">
<path d="M339.312 260.956L367.923 281.062L339.312 301.13L310.713 281.062L339.312 260.956Z" fill="url(#paint40_linear_932_25317)"/>
<path d="M339.312 260.956L367.923 281.062L339.312 301.13L310.713 281.062L339.312 260.956Z" stroke="#64B5C8" stroke-linejoin="round"/>
</g>
<path d="M340.652 287.752L373.924 264.414V260.368L340.652 283.706V287.752Z" fill="url(#paint41_linear_932_25317)" stroke="#64B5C8" stroke-linejoin="round"/>
<path d="M340.652 287.752L307.381 264.414V260.368L340.652 283.706V287.752Z" fill="url(#paint42_linear_932_25317)" stroke="#64B5C8" stroke-linejoin="round"/>
<path d="M340.652 237.018L373.924 260.393L340.652 283.73L307.381 260.393L340.652 237.018Z" fill="url(#paint43_linear_932_25317)" stroke="#64B5C8" stroke-linejoin="round"/>
<g opacity="0.8" style="mix-blend-mode:multiply">
<path d="M340.652 240.287L369.264 260.393L340.652 280.461L312.041 260.393L340.652 240.287Z" fill="url(#paint44_linear_932_25317)"/>
<path d="M340.652 240.287L369.264 260.393L340.652 280.461L312.041 260.393L340.652 240.287Z" stroke="#64B5C8" stroke-linejoin="round"/>
</g>
<path d="M315.497 77.2998L93.3457 236.329" stroke="#64B5C8" stroke-linejoin="round"/>
<path d="M202.518 196.33L159.789 226.507" stroke="#64B5C8" stroke-linejoin="round"/>
<path d="M159.789 226.507L194.263 251.085L155.217 278.506" stroke="#64B5C8" stroke-linejoin="round"/>
<path d="M254.393 196.33L297.122 226.507" stroke="#64B5C8" stroke-linejoin="round"/>
<path d="M297.122 226.507L262.66 251.085L311.715 288.527" stroke="#64B5C8" stroke-linejoin="round"/>
<path d="M380.385 122.585L331.48 159.965" stroke="#64B5C8" stroke-linejoin="round"/>
<path d="M292.598 132.606L253.715 159.965" stroke="#64B5C8" stroke-linejoin="round"/>
<path d="M292.598 132.606L331.481 159.965" stroke="#64B5C8" stroke-linejoin="round"/>
<path d="M274.924 168.584C275.062 178.217 263.062 184.932 262.723 185.119C256.673 188.376 231.268 202.344 199.613 185.069C190.117 179.883 186.547 174.046 186.359 168.584V182.852C186.359 182.852 186.359 182.927 186.359 182.977V183.641C186.585 189.053 190.168 194.853 199.6 200.001C231.256 217.263 256.66 203.309 262.711 200.052C263.036 199.876 274.962 193.199 274.912 183.629V168.597L274.924 168.584Z" fill="url(#paint45_linear_932_25317)" stroke="#64B5C8" stroke-linejoin="round"/>
<path d="M273.609 153.877C273.747 162.433 262.097 168.408 261.771 168.571C255.896 171.465 231.243 183.866 200.527 168.533C191.307 163.924 187.837 158.737 187.662 153.877V166.554C187.662 166.554 187.662 166.629 187.662 166.667V167.256C187.875 172.066 191.358 177.227 200.515 181.799C231.231 197.145 255.896 184.743 261.759 181.837C262.072 181.674 273.647 175.749 273.597 167.243V153.877H273.609Z" fill="url(#paint46_linear_932_25317)" stroke="#64B5C8" stroke-linejoin="round"/>
<path d="M274.924 165.916C274.924 163.272 273.609 160.379 273.609 160.379V167.243C273.659 175.737 262.097 181.674 261.771 181.825C255.909 184.718 231.243 197.133 200.527 181.787C191.37 177.215 187.888 172.054 187.675 167.231V166.655C187.675 166.617 187.675 166.58 187.675 166.542V160.366C187.675 160.366 186.359 162.158 186.359 165.415V168.571C186.547 174.033 190.117 179.871 199.613 185.057C231.268 202.319 256.673 188.364 262.723 185.107C263.049 184.931 275.062 178.205 274.924 168.571V167.882C274.924 167.882 274.924 166.404 274.924 165.916Z" fill="url(#paint47_linear_932_25317)" stroke="#64B5C8" stroke-linejoin="round"/>
<path d="M274.924 140.173C275.062 149.806 263.062 156.52 262.723 156.708C256.673 159.965 231.268 173.92 199.613 156.658C190.117 151.485 186.547 145.635 186.359 140.173V154.441C186.359 154.441 186.359 154.516 186.359 154.566V155.23C186.585 160.642 190.168 166.442 199.6 171.59C231.256 188.852 256.66 174.897 262.711 171.64C263.036 171.465 274.962 164.788 274.912 155.218V140.185L274.924 140.173Z" fill="url(#paint48_linear_932_25317)" stroke="#64B5C8" stroke-linejoin="round"/>
<path d="M273.609 125.466C273.747 134.022 262.097 139.997 261.771 140.16C255.896 143.054 231.243 155.455 200.527 140.122C191.307 135.512 187.837 130.326 187.662 125.466V138.143C187.662 138.143 187.662 138.218 187.662 138.256V138.845C187.875 143.655 191.358 148.816 200.515 153.388C231.231 168.734 255.896 156.332 261.759 153.426C262.072 153.263 273.647 147.338 273.597 138.832V125.466H273.609Z" fill="url(#paint49_linear_932_25317)" stroke="#64B5C8" stroke-linejoin="round"/>
<path d="M274.924 137.504C274.924 134.861 273.609 131.967 273.609 131.967V138.844C273.659 147.337 262.097 153.275 261.771 153.425C255.909 156.319 231.243 168.733 200.527 153.388C191.37 148.815 187.888 143.654 187.675 138.832V138.255C187.675 138.218 187.675 138.18 187.675 138.143V131.967C187.675 131.967 186.359 133.758 186.359 137.015V140.159C186.547 145.621 190.117 151.459 199.613 156.645C231.268 173.907 256.673 159.952 262.723 156.695C263.049 156.52 275.062 149.793 274.924 140.159V139.47C274.924 139.47 274.924 137.992 274.924 137.504Z" fill="url(#paint50_linear_932_25317)" stroke="#64B5C8" stroke-linejoin="round"/>
<path d="M274.924 111.386C275.062 121.019 263.062 127.746 262.723 127.921C256.673 131.178 231.268 145.133 199.613 127.871C190.117 122.685 186.547 116.847 186.359 111.386V125.654C186.359 125.654 186.359 125.729 186.359 125.779V126.443C186.585 131.855 190.168 137.655 199.6 142.803C231.256 160.065 256.66 146.11 262.711 142.853C263.036 142.678 274.962 136.001 274.912 126.431V111.398L274.924 111.386Z" fill="url(#paint51_linear_932_25317)" stroke="#64B5C8" stroke-linejoin="round"/>
<path d="M199.324 93.0714C188.777 98.3577 176.212 115.119 199.6 127.871C231.255 145.133 256.66 131.178 262.71 127.921C263.224 127.646 292.625 111.185 258.263 92.6956C235.677 80.532 214.319 85.5553 199.324 93.0714Z" fill="url(#paint52_linear_932_25317)" stroke="#64B5C8" stroke-linejoin="round"/>
<path d="M68.5684 292.136L106.136 265.78V180.334L68.5684 206.691V292.136Z" fill="url(#paint53_linear_932_25317)" stroke="#64B5C8" stroke-linejoin="round"/>
<path d="M68.5681 292.136L31 265.78V180.334L68.5681 206.691V292.136Z" fill="url(#paint54_linear_932_25317)" stroke="#64B5C8" stroke-linejoin="round"/>
<path d="M68.5681 153.965L106.136 180.359L68.5681 206.716L31 180.359L68.5681 153.965Z" fill="url(#paint55_linear_932_25317)" stroke="#64B5C8" stroke-linejoin="round"/>
<g style="mix-blend-mode:multiply">
<path d="M65.4615 214.295L31 190.118V186.159L65.4615 210.336V214.295Z" fill="url(#paint56_linear_932_25317)" stroke="#64B5C8" stroke-linejoin="round"/>
<path d="M65.4615 224.466L31 200.29V196.331L65.4615 220.508V224.466Z" fill="url(#paint57_linear_932_25317)" stroke="#64B5C8" stroke-linejoin="round"/>
<path d="M65.4615 234.638L31 210.461V206.503L65.4615 230.68V234.638Z" fill="url(#paint58_linear_932_25317)" stroke="#64B5C8" stroke-linejoin="round"/>
<path d="M65.4615 244.81L31 220.633V216.675L65.4615 240.852V244.81Z" fill="url(#paint59_linear_932_25317)" stroke="#64B5C8" stroke-linejoin="round"/>
<path d="M65.4615 254.982L31 230.805V226.847L65.4615 251.024V254.982Z" fill="url(#paint60_linear_932_25317)" stroke="#64B5C8" stroke-linejoin="round"/>
<path d="M65.4615 265.154L31 240.977V237.019L65.4615 261.195V265.154Z" fill="url(#paint61_linear_932_25317)" stroke="#64B5C8" stroke-linejoin="round"/>
</g>
<path d="M68.5684 199.839L94.0856 181.938V178.831L68.5684 196.732V199.839Z" fill="url(#paint62_linear_932_25317)" stroke="#64B5C8" stroke-linejoin="round"/>
<path d="M68.5689 199.839L43.0391 181.938V178.831L68.5689 196.732V199.839Z" fill="url(#paint63_linear_932_25317)" stroke="#64B5C8" stroke-linejoin="round"/>
<path d="M68.5689 160.905L94.0861 178.844L68.5689 196.745L43.0391 178.844L68.5689 160.905Z" fill="url(#paint64_linear_932_25317)" stroke="#64B5C8" stroke-linejoin="round"/>
<g style="mix-blend-mode:multiply">
<path d="M67.517 169.686L82.5368 180.233L80.9709 181.348L65.9512 170.813L67.517 169.686Z" fill="url(#paint65_linear_932_25317)" stroke="#64B5C8" stroke-linejoin="round"/>
<path d="M64.687 171.715L79.6942 182.262L78.1283 183.365L63.1211 172.83L64.687 171.715Z" fill="url(#paint66_linear_932_25317)" stroke="#64B5C8" stroke-linejoin="round"/>
<path d="M61.8432 173.731L76.8629 184.292L75.2971 185.394L60.2773 174.859L61.8432 173.731Z" fill="url(#paint67_linear_932_25317)" stroke="#64B5C8" stroke-linejoin="round"/>
<path d="M58.9986 175.761L74.0184 186.308L72.4525 187.411L57.4453 176.876L58.9986 175.761Z" fill="url(#paint68_linear_932_25317)" stroke="#64B5C8" stroke-linejoin="round"/>
<path d="M56.1674 177.791L71.1872 188.339L69.6213 189.441L54.6016 178.906L56.1674 177.791Z" fill="url(#paint69_linear_932_25317)" stroke="#64B5C8" stroke-linejoin="round"/>
</g>
<path d="M121.957 329.19L88.6855 305.852V281.036L121.957 304.374V329.19Z" fill="url(#paint70_linear_932_25317)" stroke="#64B5C8" stroke-linejoin="round"/>
<path d="M121.957 329.19L155.216 305.852V281.036L121.957 304.374V329.19Z" fill="url(#paint71_linear_932_25317)" stroke="#64B5C8" stroke-linejoin="round"/>
<path d="M121.957 257.687L88.6855 281.062L121.957 304.399L155.216 281.062L121.957 257.687Z" fill="url(#paint72_linear_932_25317)" stroke="#64B5C8" stroke-linejoin="round"/>
<g opacity="0.8" style="mix-blend-mode:multiply">
<path d="M121.957 260.956L93.3457 281.062L121.957 301.13L150.556 281.062L121.957 260.956Z" fill="url(#paint73_linear_932_25317)"/>
<path d="M121.957 260.956L93.3457 281.062L121.957 301.13L150.556 281.062L121.957 260.956Z" stroke="#64B5C8" stroke-linejoin="round"/>
</g>
<path d="M120.617 287.752L87.3457 264.414V260.368L120.617 283.706V287.752Z" fill="url(#paint74_linear_932_25317)" stroke="#64B5C8" stroke-linejoin="round"/>
<path d="M120.617 287.752L153.889 264.414V260.368L120.617 283.706V287.752Z" fill="url(#paint75_linear_932_25317)" stroke="#64B5C8" stroke-linejoin="round"/>
<path d="M120.617 237.018L87.3457 260.393L120.617 283.73L153.889 260.393L120.617 237.018Z" fill="url(#paint76_linear_932_25317)" stroke="#64B5C8" stroke-linejoin="round"/>
<g opacity="0.8" style="mix-blend-mode:multiply">
<path d="M120.617 240.287L92.0059 260.393L120.617 280.461L149.229 260.393L120.617 240.287Z" fill="url(#paint77_linear_932_25317)"/>
<path d="M120.617 240.287L92.0059 260.393L120.617 280.461L149.229 260.393L120.617 240.287Z" stroke="#64B5C8" stroke-linejoin="round"/>
</g>
<path d="M343.621 99.1718L381.189 72.8152V-12.6182L343.621 13.7259V99.1718Z" fill="url(#paint78_linear_932_25317)" stroke="#64B5C8" stroke-linejoin="round"/>
<path d="M343.621 99.1718L306.053 72.8152V-12.6182L343.621 13.7259V99.1718Z" fill="url(#paint79_linear_932_25317)" stroke="#64B5C8" stroke-linejoin="round"/>
<path d="M343.621 -39L381.189 -12.6059L343.621 13.7507L306.053 -12.6059L343.621 -39Z" fill="url(#paint80_linear_932_25317)" stroke="#64B5C8" stroke-linejoin="round"/>
<g style="mix-blend-mode:multiply">
<path d="M340.514 21.3297L306.053 -2.84717V-6.80566L340.514 17.3712V21.3297Z" fill="url(#paint81_linear_932_25317)" stroke="#64B5C8" stroke-linejoin="round"/>
<path d="M340.514 31.5016L306.053 7.32471V3.36621L340.514 27.5431V31.5016Z" fill="url(#paint82_linear_932_25317)" stroke="#64B5C8" stroke-linejoin="round"/>
<path d="M340.514 41.6735L306.053 17.4966V13.5381L340.514 37.715V41.6735Z" fill="url(#paint83_linear_932_25317)" stroke="#64B5C8" stroke-linejoin="round"/>
<path d="M340.514 51.8453L306.053 27.6685V23.71L340.514 47.8869V51.8453Z" fill="url(#paint84_linear_932_25317)" stroke="#64B5C8" stroke-linejoin="round"/>
<path d="M340.514 62.0172L306.053 37.8403V33.8818L340.514 58.0587V62.0172Z" fill="url(#paint85_linear_932_25317)" stroke="#64B5C8" stroke-linejoin="round"/>
<path d="M340.514 72.1891L306.053 48.0122V44.0537L340.514 68.2306V72.1891Z" fill="url(#paint86_linear_932_25317)" stroke="#64B5C8" stroke-linejoin="round"/>
</g>
<path d="M343.621 6.88633L369.138 -11.0271V-14.1338L343.621 3.76713V6.88633Z" fill="url(#paint87_linear_932_25317)" stroke="#64B5C8" stroke-linejoin="round"/>
<path d="M343.62 6.88633L318.09 -11.0271V-14.1338L343.62 3.76713V6.88633Z" fill="url(#paint88_linear_932_25317)" stroke="#64B5C8" stroke-linejoin="round"/>
<path d="M343.62 -32.047V-32.0596V-32.047L369.137 -14.1211L343.62 3.77985L318.09 -14.1211L343.62 -32.047Z" fill="url(#paint89_linear_932_25317)"/>
<path d="M343.62 -32.047V-32.0596V-32.047ZM343.62 -32.047L369.137 -14.1211L343.62 3.77985L318.09 -14.1211L343.62 -32.047Z" stroke="#64B5C8" stroke-linejoin="round"/>
<path d="M397.01 136.225L363.738 112.887V88.084L397.01 111.422V136.225Z" fill="url(#paint90_linear_932_25317)" stroke="#64B5C8" stroke-linejoin="round"/>
<path d="M397.01 136.225L430.269 112.887V88.084L397.01 111.422V136.225Z" fill="url(#paint91_linear_932_25317)" stroke="#64B5C8" stroke-linejoin="round"/>
<path d="M397.01 64.7217L363.738 88.0968L397.01 111.434L430.269 88.0968L397.01 64.7217Z" fill="url(#paint92_linear_932_25317)" stroke="#64B5C8" stroke-linejoin="round"/>
<g opacity="0.8" style="mix-blend-mode:multiply">
<path d="M397.01 67.9912L368.398 88.0969L397.01 108.165L425.609 88.0969L397.01 67.9912Z" fill="url(#paint93_linear_932_25317)"/>
<path d="M397.01 67.9912L368.398 88.0969L397.01 108.165L425.609 88.0969L397.01 67.9912Z" stroke="#64B5C8" stroke-linejoin="round"/>
</g>
<path d="M395.67 94.7863L362.398 71.4487V67.415L395.67 90.7401V94.7863Z" fill="url(#paint94_linear_932_25317)" stroke="#64B5C8" stroke-linejoin="round"/>
<path d="M395.67 94.7863L428.941 71.4487V67.415L395.67 90.7401V94.7863Z" fill="url(#paint95_linear_932_25317)" stroke="#64B5C8" stroke-linejoin="round"/>
<path d="M395.67 44.0527L362.398 67.4279L395.67 90.7655L428.941 67.4279L395.67 44.0527Z" fill="url(#paint96_linear_932_25317)" stroke="#64B5C8" stroke-linejoin="round"/>
<g opacity="0.8" style="mix-blend-mode:multiply">
<path d="M395.67 47.3223L367.059 67.4279L395.67 87.496L424.269 67.4279L395.67 47.3223Z" fill="url(#paint97_linear_932_25317)"/>
<path d="M395.67 47.3223L367.059 67.4279L395.67 87.496L424.269 67.4279L395.67 47.3223Z" stroke="#64B5C8" stroke-linejoin="round"/>
</g>
</g>
<defs>
<linearGradient id="paint0_linear_932_25317" x1="98.8641" y1="-12.6182" x2="98.8641" y2="99.1718" gradientUnits="userSpaceOnUse">
<stop stop-color="#A8C9D1"/>
<stop offset="1" stop-color="white"/>
</linearGradient>
<linearGradient id="paint1_linear_932_25317" x1="136.433" y1="-12.6182" x2="136.433" y2="99.1718" gradientUnits="userSpaceOnUse">
<stop stop-color="#A8C9D1"/>
<stop offset="1" stop-color="white"/>
</linearGradient>
<linearGradient id="paint2_linear_932_25317" x1="117.648" y1="-39" x2="117.648" y2="13.7507" gradientUnits="userSpaceOnUse">
<stop stop-color="#A8C9D1"/>
<stop offset="1" stop-color="white"/>
</linearGradient>
<linearGradient id="paint3_linear_932_25317" x1="137.987" y1="-6.80566" x2="137.987" y2="21.3297" gradientUnits="userSpaceOnUse">
<stop stop-color="#A8C9D1"/>
<stop offset="1" stop-color="white"/>
</linearGradient>
<linearGradient id="paint4_linear_932_25317" x1="137.987" y1="3.36621" x2="137.987" y2="31.5016" gradientUnits="userSpaceOnUse">
<stop stop-color="#A8C9D1"/>
<stop offset="1" stop-color="white"/>
</linearGradient>
<linearGradient id="paint5_linear_932_25317" x1="137.987" y1="13.5381" x2="137.987" y2="41.6735" gradientUnits="userSpaceOnUse">
<stop stop-color="#A8C9D1"/>
<stop offset="1" stop-color="white"/>
</linearGradient>
<linearGradient id="paint6_linear_932_25317" x1="137.987" y1="23.71" x2="137.987" y2="51.8453" gradientUnits="userSpaceOnUse">
<stop stop-color="#A8C9D1"/>
<stop offset="1" stop-color="white"/>
</linearGradient>
<linearGradient id="paint7_linear_932_25317" x1="137.987" y1="33.8818" x2="137.987" y2="62.0172" gradientUnits="userSpaceOnUse">
<stop stop-color="#A8C9D1"/>
<stop offset="1" stop-color="white"/>
</linearGradient>
<linearGradient id="paint8_linear_932_25317" x1="137.987" y1="44.0537" x2="137.987" y2="72.1891" gradientUnits="userSpaceOnUse">
<stop stop-color="#A8C9D1"/>
<stop offset="1" stop-color="white"/>
</linearGradient>
<linearGradient id="paint9_linear_932_25317" x1="104.889" y1="-14.1338" x2="104.889" y2="6.88633" gradientUnits="userSpaceOnUse">
<stop stop-color="#A8C9D1"/>
<stop offset="1" stop-color="white"/>
</linearGradient>
<linearGradient id="paint10_linear_932_25317" x1="130.413" y1="-14.1338" x2="130.413" y2="6.88633" gradientUnits="userSpaceOnUse">
<stop stop-color="#A8C9D1"/>
<stop offset="1" stop-color="white"/>
</linearGradient>
<linearGradient id="paint11_linear_932_25317" x1="117.654" y1="-32.0596" x2="117.654" y2="3.77985" gradientUnits="userSpaceOnUse">
<stop stop-color="#A8C9D1"/>
<stop offset="1" stop-color="white"/>
</linearGradient>
<linearGradient id="paint12_linear_932_25317" x1="80.9009" y1="88.084" x2="80.9009" y2="136.225" gradientUnits="userSpaceOnUse">
<stop stop-color="#A8C9D1"/>
<stop offset="1" stop-color="white"/>
</linearGradient>
<linearGradient id="paint13_linear_932_25317" x1="47.6357" y1="88.084" x2="47.6357" y2="136.225" gradientUnits="userSpaceOnUse">
<stop stop-color="#A8C9D1"/>
<stop offset="1" stop-color="white"/>
</linearGradient>
<linearGradient id="paint14_linear_932_25317" x1="64.2651" y1="64.7217" x2="64.2651" y2="111.434" gradientUnits="userSpaceOnUse">
<stop stop-color="#A8C9D1"/>
<stop offset="1" stop-color="white"/>
</linearGradient>
<linearGradient id="paint15_linear_932_25317" x1="64.2653" y1="67.9912" x2="64.2653" y2="108.165" gradientUnits="userSpaceOnUse">
<stop stop-color="#A8C9D1"/>
<stop offset="1" stop-color="white"/>
</linearGradient>
<linearGradient id="paint16_linear_932_25317" x1="82.2334" y1="67.415" x2="82.2334" y2="94.7863" gradientUnits="userSpaceOnUse">
<stop stop-color="#A8C9D1"/>
<stop offset="1" stop-color="white"/>
</linearGradient>
<linearGradient id="paint17_linear_932_25317" x1="48.9693" y1="67.415" x2="48.9693" y2="94.7863" gradientUnits="userSpaceOnUse">
<stop stop-color="#A8C9D1"/>
<stop offset="1" stop-color="white"/>
</linearGradient>
<linearGradient id="paint18_linear_932_25317" x1="65.605" y1="44.0527" x2="65.605" y2="90.7655" gradientUnits="userSpaceOnUse">
<stop stop-color="#A8C9D1"/>
<stop offset="1" stop-color="white"/>
</linearGradient>
<linearGradient id="paint19_linear_932_25317" x1="65.6051" y1="47.3223" x2="65.6051" y2="87.496" gradientUnits="userSpaceOnUse">
<stop stop-color="#A8C9D1"/>
<stop offset="1" stop-color="white"/>
</linearGradient>
<linearGradient id="paint20_linear_932_25317" x1="373.917" y1="180.334" x2="373.917" y2="292.136" gradientUnits="userSpaceOnUse">
<stop stop-color="#A8C9D1"/>
<stop offset="1" stop-color="white"/>
</linearGradient>
<linearGradient id="paint21_linear_932_25317" x1="411.485" y1="180.334" x2="411.485" y2="292.136" gradientUnits="userSpaceOnUse">
<stop stop-color="#A8C9D1"/>
<stop offset="1" stop-color="white"/>
</linearGradient>
<linearGradient id="paint22_linear_932_25317" x1="392.701" y1="153.965" x2="392.701" y2="206.716" gradientUnits="userSpaceOnUse">
<stop stop-color="#A8C9D1"/>
<stop offset="1" stop-color="white"/>
</linearGradient>
<linearGradient id="paint23_linear_932_25317" x1="413.039" y1="186.159" x2="413.039" y2="214.295" gradientUnits="userSpaceOnUse">
<stop stop-color="#A8C9D1"/>
<stop offset="1" stop-color="white"/>
</linearGradient>
<linearGradient id="paint24_linear_932_25317" x1="413.039" y1="196.331" x2="413.039" y2="224.466" gradientUnits="userSpaceOnUse">
<stop stop-color="#A8C9D1"/>
<stop offset="1" stop-color="white"/>
</linearGradient>
<linearGradient id="paint25_linear_932_25317" x1="413.039" y1="206.503" x2="413.039" y2="234.638" gradientUnits="userSpaceOnUse">
<stop stop-color="#A8C9D1"/>
<stop offset="1" stop-color="white"/>
</linearGradient>
<linearGradient id="paint26_linear_932_25317" x1="413.039" y1="216.675" x2="413.039" y2="244.81" gradientUnits="userSpaceOnUse">
<stop stop-color="#A8C9D1"/>
<stop offset="1" stop-color="white"/>
</linearGradient>
<linearGradient id="paint27_linear_932_25317" x1="413.039" y1="226.847" x2="413.039" y2="254.982" gradientUnits="userSpaceOnUse">
<stop stop-color="#A8C9D1"/>
<stop offset="1" stop-color="white"/>
</linearGradient>
<linearGradient id="paint28_linear_932_25317" x1="413.039" y1="237.019" x2="413.039" y2="265.154" gradientUnits="userSpaceOnUse">
<stop stop-color="#A8C9D1"/>
<stop offset="1" stop-color="white"/>
</linearGradient>
<linearGradient id="paint29_linear_932_25317" x1="379.942" y1="178.831" x2="379.942" y2="199.839" gradientUnits="userSpaceOnUse">
<stop stop-color="#A8C9D1"/>
<stop offset="1" stop-color="white"/>
</linearGradient>
<linearGradient id="paint30_linear_932_25317" x1="405.466" y1="178.831" x2="405.466" y2="199.839" gradientUnits="userSpaceOnUse">
<stop stop-color="#A8C9D1"/>
<stop offset="1" stop-color="white"/>
</linearGradient>
<linearGradient id="paint31_linear_932_25317" x1="392.707" y1="160.905" x2="392.707" y2="196.745" gradientUnits="userSpaceOnUse">
<stop stop-color="#A8C9D1"/>
<stop offset="1" stop-color="white"/>
</linearGradient>
<linearGradient id="paint32_linear_932_25317" x1="387.027" y1="169.686" x2="387.027" y2="181.348" gradientUnits="userSpaceOnUse">
<stop stop-color="#A8C9D1"/>
<stop offset="1" stop-color="white"/>
</linearGradient>
<linearGradient id="paint33_linear_932_25317" x1="389.865" y1="171.715" x2="389.865" y2="183.365" gradientUnits="userSpaceOnUse">
<stop stop-color="#A8C9D1"/>
<stop offset="1" stop-color="white"/>
</linearGradient>
<linearGradient id="paint34_linear_932_25317" x1="392.703" y1="173.731" x2="392.703" y2="185.394" gradientUnits="userSpaceOnUse">
<stop stop-color="#A8C9D1"/>
<stop offset="1" stop-color="white"/>
</linearGradient>
<linearGradient id="paint35_linear_932_25317" x1="395.538" y1="175.761" x2="395.538" y2="187.411" gradientUnits="userSpaceOnUse">
<stop stop-color="#A8C9D1"/>
<stop offset="1" stop-color="white"/>
</linearGradient>
<linearGradient id="paint36_linear_932_25317" x1="398.377" y1="177.791" x2="398.377" y2="189.441" gradientUnits="userSpaceOnUse">
<stop stop-color="#A8C9D1"/>
<stop offset="1" stop-color="white"/>
</linearGradient>
<linearGradient id="paint37_linear_932_25317" x1="355.948" y1="281.036" x2="355.948" y2="329.19" gradientUnits="userSpaceOnUse">
<stop stop-color="#A8C9D1"/>
<stop offset="1" stop-color="white"/>
</linearGradient>
<linearGradient id="paint38_linear_932_25317" x1="322.682" y1="281.036" x2="322.682" y2="329.19" gradientUnits="userSpaceOnUse">
<stop stop-color="#A8C9D1"/>
<stop offset="1" stop-color="white"/>
</linearGradient>
<linearGradient id="paint39_linear_932_25317" x1="339.318" y1="257.687" x2="339.318" y2="304.399" gradientUnits="userSpaceOnUse">
<stop stop-color="#A8C9D1"/>
<stop offset="1" stop-color="white"/>
</linearGradient>
<linearGradient id="paint40_linear_932_25317" x1="339.318" y1="260.956" x2="339.318" y2="301.13" gradientUnits="userSpaceOnUse">
<stop stop-color="#A8C9D1"/>
<stop offset="1" stop-color="white"/>
</linearGradient>
<linearGradient id="paint41_linear_932_25317" x1="357.288" y1="260.368" x2="357.288" y2="287.752" gradientUnits="userSpaceOnUse">
<stop stop-color="#A8C9D1"/>
<stop offset="1" stop-color="white"/>
</linearGradient>
<linearGradient id="paint42_linear_932_25317" x1="324.017" y1="260.368" x2="324.017" y2="287.752" gradientUnits="userSpaceOnUse">
<stop stop-color="#A8C9D1"/>
<stop offset="1" stop-color="white"/>
</linearGradient>
<linearGradient id="paint43_linear_932_25317" x1="340.652" y1="237.018" x2="340.652" y2="283.73" gradientUnits="userSpaceOnUse">
<stop stop-color="#A8C9D1"/>
<stop offset="1" stop-color="white"/>
</linearGradient>
<linearGradient id="paint44_linear_932_25317" x1="340.652" y1="240.287" x2="340.652" y2="280.461" gradientUnits="userSpaceOnUse">
<stop stop-color="#A8C9D1"/>
<stop offset="1" stop-color="white"/>
</linearGradient>
<linearGradient id="paint45_linear_932_25317" x1="230.643" y1="168.584" x2="230.643" y2="208.465" gradientUnits="userSpaceOnUse">
<stop stop-color="#A8C9D1"/>
<stop offset="1" stop-color="white"/>
</linearGradient>
<linearGradient id="paint46_linear_932_25317" x1="230.636" y1="153.877" x2="230.636" y2="189.324" gradientUnits="userSpaceOnUse">
<stop stop-color="#A8C9D1"/>
<stop offset="1" stop-color="white"/>
</linearGradient>
<linearGradient id="paint47_linear_932_25317" x1="230.643" y1="160.366" x2="230.643" y2="193.52" gradientUnits="userSpaceOnUse">
<stop stop-color="#A8C9D1"/>
<stop offset="1" stop-color="white"/>
</linearGradient>
<linearGradient id="paint48_linear_932_25317" x1="230.643" y1="140.173" x2="230.643" y2="180.054" gradientUnits="userSpaceOnUse">
<stop stop-color="#A8C9D1"/>
<stop offset="1" stop-color="white"/>
</linearGradient>
<linearGradient id="paint49_linear_932_25317" x1="230.636" y1="125.466" x2="230.636" y2="160.913" gradientUnits="userSpaceOnUse">
<stop stop-color="#A8C9D1"/>
<stop offset="1" stop-color="white"/>
</linearGradient>
<linearGradient id="paint50_linear_932_25317" x1="230.643" y1="131.967" x2="230.643" y2="165.108" gradientUnits="userSpaceOnUse">
<stop stop-color="#A8C9D1"/>
<stop offset="1" stop-color="white"/>
</linearGradient>
<linearGradient id="paint51_linear_932_25317" x1="230.643" y1="111.386" x2="230.643" y2="151.267" gradientUnits="userSpaceOnUse">
<stop stop-color="#A8C9D1"/>
<stop offset="1" stop-color="white"/>
</linearGradient>
<linearGradient id="paint52_linear_932_25317" x1="230.627" y1="85.3691" x2="230.627" y2="136.335" gradientUnits="userSpaceOnUse">
<stop stop-color="#A8C9D1"/>
<stop offset="1" stop-color="white"/>
</linearGradient>
<linearGradient id="paint53_linear_932_25317" x1="87.3524" y1="180.334" x2="87.3524" y2="292.136" gradientUnits="userSpaceOnUse">
<stop stop-color="#A8C9D1"/>
<stop offset="1" stop-color="white"/>
</linearGradient>
<linearGradient id="paint54_linear_932_25317" x1="49.7841" y1="180.334" x2="49.7841" y2="292.136" gradientUnits="userSpaceOnUse">
<stop stop-color="#A8C9D1"/>
<stop offset="1" stop-color="white"/>
</linearGradient>
<linearGradient id="paint55_linear_932_25317" x1="68.5681" y1="153.965" x2="68.5681" y2="206.716" gradientUnits="userSpaceOnUse">
<stop stop-color="#A8C9D1"/>
<stop offset="1" stop-color="white"/>
</linearGradient>
<linearGradient id="paint56_linear_932_25317" x1="48.2307" y1="186.159" x2="48.2307" y2="214.295" gradientUnits="userSpaceOnUse">
<stop stop-color="#A8C9D1"/>
<stop offset="1" stop-color="white"/>
</linearGradient>
<linearGradient id="paint57_linear_932_25317" x1="48.2307" y1="196.331" x2="48.2307" y2="224.466" gradientUnits="userSpaceOnUse">
<stop stop-color="#A8C9D1"/>
<stop offset="1" stop-color="white"/>
</linearGradient>
<linearGradient id="paint58_linear_932_25317" x1="48.2307" y1="206.503" x2="48.2307" y2="234.638" gradientUnits="userSpaceOnUse">
<stop stop-color="#A8C9D1"/>
<stop offset="1" stop-color="white"/>
</linearGradient>
<linearGradient id="paint59_linear_932_25317" x1="48.2307" y1="216.675" x2="48.2307" y2="244.81" gradientUnits="userSpaceOnUse">
<stop stop-color="#A8C9D1"/>
<stop offset="1" stop-color="white"/>
</linearGradient>
<linearGradient id="paint60_linear_932_25317" x1="48.2307" y1="226.847" x2="48.2307" y2="254.982" gradientUnits="userSpaceOnUse">
<stop stop-color="#A8C9D1"/>
<stop offset="1" stop-color="white"/>
</linearGradient>
<linearGradient id="paint61_linear_932_25317" x1="48.2307" y1="237.019" x2="48.2307" y2="265.154" gradientUnits="userSpaceOnUse">
<stop stop-color="#A8C9D1"/>
<stop offset="1" stop-color="white"/>
</linearGradient>
<linearGradient id="paint62_linear_932_25317" x1="81.327" y1="178.831" x2="81.327" y2="199.839" gradientUnits="userSpaceOnUse">
<stop stop-color="#A8C9D1"/>
<stop offset="1" stop-color="white"/>
</linearGradient>
<linearGradient id="paint63_linear_932_25317" x1="55.804" y1="178.831" x2="55.804" y2="199.839" gradientUnits="userSpaceOnUse">
<stop stop-color="#A8C9D1"/>
<stop offset="1" stop-color="white"/>
</linearGradient>
<linearGradient id="paint64_linear_932_25317" x1="68.5626" y1="160.905" x2="68.5626" y2="196.745" gradientUnits="userSpaceOnUse">
<stop stop-color="#A8C9D1"/>
<stop offset="1" stop-color="white"/>
</linearGradient>
<linearGradient id="paint65_linear_932_25317" x1="74.244" y1="169.686" x2="74.244" y2="181.348" gradientUnits="userSpaceOnUse">
<stop stop-color="#A8C9D1"/>
<stop offset="1" stop-color="white"/>
</linearGradient>
<linearGradient id="paint66_linear_932_25317" x1="71.4076" y1="171.715" x2="71.4076" y2="183.365" gradientUnits="userSpaceOnUse">
<stop stop-color="#A8C9D1"/>
<stop offset="1" stop-color="white"/>
</linearGradient>
<linearGradient id="paint67_linear_932_25317" x1="68.5701" y1="173.731" x2="68.5701" y2="185.394" gradientUnits="userSpaceOnUse">
<stop stop-color="#A8C9D1"/>
<stop offset="1" stop-color="white"/>
</linearGradient>
<linearGradient id="paint68_linear_932_25317" x1="65.7318" y1="175.761" x2="65.7318" y2="187.411" gradientUnits="userSpaceOnUse">
<stop stop-color="#A8C9D1"/>
<stop offset="1" stop-color="white"/>
</linearGradient>
<linearGradient id="paint69_linear_932_25317" x1="62.8944" y1="177.791" x2="62.8944" y2="189.441" gradientUnits="userSpaceOnUse">
<stop stop-color="#A8C9D1"/>
<stop offset="1" stop-color="white"/>
</linearGradient>
<linearGradient id="paint70_linear_932_25317" x1="105.321" y1="281.036" x2="105.321" y2="329.19" gradientUnits="userSpaceOnUse">
<stop stop-color="#A8C9D1"/>
<stop offset="1" stop-color="white"/>
</linearGradient>
<linearGradient id="paint71_linear_932_25317" x1="138.586" y1="281.036" x2="138.586" y2="329.19" gradientUnits="userSpaceOnUse">
<stop stop-color="#A8C9D1"/>
<stop offset="1" stop-color="white"/>
</linearGradient>
<linearGradient id="paint72_linear_932_25317" x1="121.951" y1="257.687" x2="121.951" y2="304.399" gradientUnits="userSpaceOnUse">
<stop stop-color="#A8C9D1"/>
<stop offset="1" stop-color="white"/>
</linearGradient>
<linearGradient id="paint73_linear_932_25317" x1="121.951" y1="260.956" x2="121.951" y2="301.13" gradientUnits="userSpaceOnUse">
<stop stop-color="#A8C9D1"/>
<stop offset="1" stop-color="white"/>
</linearGradient>
<linearGradient id="paint74_linear_932_25317" x1="103.981" y1="260.368" x2="103.981" y2="287.752" gradientUnits="userSpaceOnUse">
<stop stop-color="#A8C9D1"/>
<stop offset="1" stop-color="white"/>
</linearGradient>
<linearGradient id="paint75_linear_932_25317" x1="137.253" y1="260.368" x2="137.253" y2="287.752" gradientUnits="userSpaceOnUse">
<stop stop-color="#A8C9D1"/>
<stop offset="1" stop-color="white"/>
</linearGradient>
<linearGradient id="paint76_linear_932_25317" x1="120.617" y1="237.018" x2="120.617" y2="283.73" gradientUnits="userSpaceOnUse">
<stop stop-color="#A8C9D1"/>
<stop offset="1" stop-color="white"/>
</linearGradient>
<linearGradient id="paint77_linear_932_25317" x1="120.617" y1="240.287" x2="120.617" y2="280.461" gradientUnits="userSpaceOnUse">
<stop stop-color="#A8C9D1"/>
<stop offset="1" stop-color="white"/>
</linearGradient>
<linearGradient id="paint78_linear_932_25317" x1="362.405" y1="-12.6182" x2="362.405" y2="99.1718" gradientUnits="userSpaceOnUse">
<stop stop-color="#A8C9D1"/>
<stop offset="1" stop-color="white"/>
</linearGradient>
<linearGradient id="paint79_linear_932_25317" x1="324.837" y1="-12.6182" x2="324.837" y2="99.1718" gradientUnits="userSpaceOnUse">
<stop stop-color="#A8C9D1"/>
<stop offset="1" stop-color="white"/>
</linearGradient>
<linearGradient id="paint80_linear_932_25317" x1="343.621" y1="-39" x2="343.621" y2="13.7507" gradientUnits="userSpaceOnUse">
<stop stop-color="#A8C9D1"/>
<stop offset="1" stop-color="white"/>
</linearGradient>
<linearGradient id="paint81_linear_932_25317" x1="323.283" y1="-6.80566" x2="323.283" y2="21.3297" gradientUnits="userSpaceOnUse">
<stop stop-color="#A8C9D1"/>
<stop offset="1" stop-color="white"/>
</linearGradient>
<linearGradient id="paint82_linear_932_25317" x1="323.283" y1="3.36621" x2="323.283" y2="31.5016" gradientUnits="userSpaceOnUse">
<stop stop-color="#A8C9D1"/>
<stop offset="1" stop-color="white"/>
</linearGradient>
<linearGradient id="paint83_linear_932_25317" x1="323.283" y1="13.5381" x2="323.283" y2="41.6735" gradientUnits="userSpaceOnUse">
<stop stop-color="#A8C9D1"/>
<stop offset="1" stop-color="white"/>
</linearGradient>
<linearGradient id="paint84_linear_932_25317" x1="323.283" y1="23.71" x2="323.283" y2="51.8453" gradientUnits="userSpaceOnUse">
<stop stop-color="#A8C9D1"/>
<stop offset="1" stop-color="white"/>
</linearGradient>
<linearGradient id="paint85_linear_932_25317" x1="323.283" y1="33.8818" x2="323.283" y2="62.0172" gradientUnits="userSpaceOnUse">
<stop stop-color="#A8C9D1"/>
<stop offset="1" stop-color="white"/>
</linearGradient>
<linearGradient id="paint86_linear_932_25317" x1="323.283" y1="44.0537" x2="323.283" y2="72.1891" gradientUnits="userSpaceOnUse">
<stop stop-color="#A8C9D1"/>
<stop offset="1" stop-color="white"/>
</linearGradient>
<linearGradient id="paint87_linear_932_25317" x1="356.38" y1="-14.1338" x2="356.38" y2="6.88633" gradientUnits="userSpaceOnUse">
<stop stop-color="#A8C9D1"/>
<stop offset="1" stop-color="white"/>
</linearGradient>
<linearGradient id="paint88_linear_932_25317" x1="330.855" y1="-14.1338" x2="330.855" y2="6.88633" gradientUnits="userSpaceOnUse">
<stop stop-color="#A8C9D1"/>
<stop offset="1" stop-color="white"/>
</linearGradient>
<linearGradient id="paint89_linear_932_25317" x1="343.613" y1="-32.0596" x2="343.613" y2="3.77985" gradientUnits="userSpaceOnUse">
<stop stop-color="#A8C9D1"/>
<stop offset="1" stop-color="white"/>
</linearGradient>
<linearGradient id="paint90_linear_932_25317" x1="380.374" y1="88.084" x2="380.374" y2="136.225" gradientUnits="userSpaceOnUse">
<stop stop-color="#A8C9D1"/>
<stop offset="1" stop-color="white"/>
</linearGradient>
<linearGradient id="paint91_linear_932_25317" x1="413.639" y1="88.084" x2="413.639" y2="136.225" gradientUnits="userSpaceOnUse">
<stop stop-color="#A8C9D1"/>
<stop offset="1" stop-color="white"/>
</linearGradient>
<linearGradient id="paint92_linear_932_25317" x1="397.003" y1="64.7217" x2="397.003" y2="111.434" gradientUnits="userSpaceOnUse">
<stop stop-color="#A8C9D1"/>
<stop offset="1" stop-color="white"/>
</linearGradient>
<linearGradient id="paint93_linear_932_25317" x1="397.004" y1="67.9912" x2="397.004" y2="108.165" gradientUnits="userSpaceOnUse">
<stop stop-color="#A8C9D1"/>
<stop offset="1" stop-color="white"/>
</linearGradient>
<linearGradient id="paint94_linear_932_25317" x1="379.034" y1="67.415" x2="379.034" y2="94.7863" gradientUnits="userSpaceOnUse">
<stop stop-color="#A8C9D1"/>
<stop offset="1" stop-color="white"/>
</linearGradient>
<linearGradient id="paint95_linear_932_25317" x1="412.306" y1="67.415" x2="412.306" y2="94.7863" gradientUnits="userSpaceOnUse">
<stop stop-color="#A8C9D1"/>
<stop offset="1" stop-color="white"/>
</linearGradient>
<linearGradient id="paint96_linear_932_25317" x1="395.67" y1="44.0527" x2="395.67" y2="90.7655" gradientUnits="userSpaceOnUse">
<stop stop-color="#A8C9D1"/>
<stop offset="1" stop-color="white"/>
</linearGradient>
<linearGradient id="paint97_linear_932_25317" x1="395.664" y1="47.3223" x2="395.664" y2="87.496" gradientUnits="userSpaceOnUse">
<stop stop-color="#A8C9D1"/>
<stop offset="1" stop-color="white"/>
</linearGradient>
<clipPath id="clip0_932_25317">
<rect width="462" height="291" rx="8" fill="white"/>
</clipPath>
</defs>
</svg>
