<svg width="361" height="120" viewBox="0 0 361 120" fill="none" xmlns="http://www.w3.org/2000/svg">
<g clip-path="url(#clip0_924_5502)">
<rect width="361" height="120" rx="8" fill="#F6F7F8"/>
<path opacity="0.29" d="M206.17 6.63331C208.624 5.22753 217.748 8.75476 220.202 10.1861L320.421 68.0531C325.712 71.1203 338.083 85.8938 332.767 88.9354L165.3 186.164C162.846 187.57 152.29 191.966 149.836 190.56L44.7862 129.933C39.4954 126.866 25.8465 111.351 31.1374 108.31L206.144 6.68443L206.17 6.63331Z" fill="url(#paint0_linear_924_5502)" stroke="#64B5C8" stroke-linejoin="round"/>
<path opacity="0.31" d="M205.735 8.3965C207.908 7.14408 217.212 10.978 219.384 12.2304L317.431 68.845C322.134 71.5544 335.527 86.0978 330.799 88.8071L165.198 185.014C163.025 186.266 152.162 191.02 149.99 189.768L46.7032 130.137C42.0002 127.428 27.2012 112.092 31.9297 109.383L205.71 8.42206L205.735 8.3965Z" fill="url(#paint1_linear_924_5502)" stroke="#64B5C8" stroke-linejoin="round"/>
<path opacity="0.33" d="M205.326 10.1858C207.243 9.08675 216.726 13.2019 218.617 14.3009L314.517 69.6631C318.632 72.0401 333.048 86.328 328.933 88.6795L165.172 183.838C163.255 184.937 152.111 190.075 150.194 188.975L48.6713 130.367C44.5562 127.99 28.6325 112.833 32.7476 110.482L205.301 10.1858H205.326Z" fill="url(#paint2_linear_924_5502)" stroke="#64B5C8" stroke-linejoin="round"/>
<path opacity="0.36" d="M204.892 11.9492C206.528 11.0035 216.189 15.4253 217.825 16.371L311.552 70.4807C315.079 72.5255 330.543 86.5322 326.99 88.577L165.095 182.688C163.46 183.633 152.009 189.129 150.373 188.183L50.6138 130.597C47.0866 128.552 30.0128 113.6 33.5656 111.581L204.892 11.9747V11.9492Z" fill="url(#paint3_linear_924_5502)" stroke="#64B5C8" stroke-linejoin="round"/>
<path opacity="0.38" d="M204.457 13.7142C205.812 12.9218 215.652 17.6503 217.007 18.4171L308.562 71.2745C311.501 72.9614 327.987 86.738 325.048 88.425L165.019 181.488C163.664 182.28 151.907 188.133 150.552 187.341L52.5563 130.777C49.617 129.09 31.4185 114.317 34.3579 112.63L204.457 13.6886V13.7142Z" fill="url(#paint4_linear_924_5502)" stroke="#64B5C8" stroke-linejoin="round"/>
<path opacity="0.4" d="M204.048 15.5014C205.147 14.888 215.141 19.8721 216.24 20.5111L305.648 72.116C307.999 73.4707 325.508 86.9917 323.156 88.3464L164.993 180.387C163.894 181 151.856 187.237 150.782 186.623L54.55 131.057C52.1985 129.702 32.8498 115.133 35.2013 113.778L204.074 15.5014H204.048Z" fill="url(#paint5_linear_924_5502)" stroke="#64B5C8" stroke-linejoin="round"/>
<path opacity="0.43" d="M203.614 17.2647C204.432 16.8046 214.604 22.0954 215.422 22.5555L302.657 72.908C304.421 73.9304 322.977 87.1703 321.188 88.1926L164.865 179.185C164.048 179.645 151.728 186.265 150.91 185.779L56.4414 131.235C54.6778 130.213 34.2046 115.848 35.9682 114.826L203.614 17.2391V17.2647Z" fill="url(#paint6_linear_924_5502)" stroke="#64B5C8" stroke-linejoin="round"/>
<path opacity="0.45" d="M203.179 19.0561C203.716 18.7494 214.068 24.3469 214.63 24.6537L299.718 73.7793C300.894 74.4694 320.472 87.4537 319.297 88.1438L164.84 178.088C164.303 178.395 151.677 185.373 151.114 185.066L58.4095 131.544C57.2338 130.854 35.6103 116.694 36.7861 116.004L203.205 19.0817L203.179 19.0561Z" fill="url(#paint7_linear_924_5502)" stroke="#64B5C8" stroke-linejoin="round"/>
<path opacity="0.48" d="M202.745 20.8184C203.026 20.665 213.557 26.5437 213.812 26.6971L296.728 74.5703C297.315 74.9026 317.917 87.6568 317.329 87.9891L164.738 176.886C164.456 177.039 151.549 184.374 151.268 184.221L60.3009 131.722C59.713 131.389 36.965 117.383 37.5528 117.05L202.745 20.8184Z" fill="url(#paint8_linear_924_5502)" stroke="#64B5C8" stroke-linejoin="round"/>
<path opacity="0.5" d="M151.472 183.454L38.3708 118.15L202.336 22.582L315.412 87.8869L151.472 183.454Z" fill="url(#paint9_linear_924_5502)" stroke="#64B5C8" stroke-linejoin="round"/>
<path d="M151.625 186.24V197.384L340 86.7104V75.5664L151.625 186.24Z" fill="url(#paint10_linear_924_5502)" stroke="#64B5C8" stroke-linejoin="round"/>
<path d="M151.702 186.239V197.383L21.9359 121.727V110.659L151.702 186.239Z" fill="url(#paint11_linear_924_5502)" stroke="#64B5C8" stroke-linejoin="round"/>
<path d="M21.9359 110.66L151.702 186.24L340 75.5665L210.08 -0.0644531L21.9359 110.66Z" fill="url(#paint12_linear_924_5502)" stroke="#64B5C8" stroke-linejoin="round"/>
<path d="M151.651 160.782V172.181L315.667 75.7961V64.3965L151.651 160.782Z" fill="url(#paint13_linear_924_5502)" stroke="#64B5C8" stroke-linejoin="round"/>
<path d="M151.702 160.784V172.184L46.2687 110.713V99.3643L151.702 160.784Z" fill="url(#paint14_linear_924_5502)" stroke="#64B5C8" stroke-linejoin="round"/>
<path d="M46.2687 99.3633L151.702 160.783L315.667 64.3977L210.106 2.92676L46.2687 99.3633Z" fill="url(#paint15_linear_924_5502)" stroke="#64B5C8" stroke-linejoin="round"/>
<g opacity="0.7" style="mix-blend-mode:screen">
<path d="M95.5988 91.6953L158.527 128.016L122.232 151.582L59.3041 115.261L95.5988 91.6953Z" fill="url(#paint16_linear_924_5502)"/>
<path d="M95.5988 91.6953L158.527 128.016L122.232 151.582L59.3041 115.261L95.5988 91.6953Z" stroke="#64B5C8" stroke-linejoin="round"/>
</g>
<path opacity="0.8" d="M151.651 75.0786V131.872L269.66 62.5289V5.73535L151.651 75.0786Z" fill="url(#paint17_linear_924_5502)" stroke="#64B5C8" stroke-linejoin="round"/>
<path d="M157.581 78.4526L263.756 16.0615V59.1551L157.581 121.546V78.4526Z" fill="url(#paint18_linear_924_5502)" stroke="#64B5C8" stroke-linejoin="round"/>
<path opacity="0.8" d="M151.702 75.0794V131.873L92.276 97.2396V40.4717L151.702 75.0794Z" fill="url(#paint19_linear_924_5502)" stroke="#64B5C8" stroke-linejoin="round"/>
<path d="M98.1802 93.8426V50.749L145.772 78.4812V121.6L98.1802 93.8426Z" fill="url(#paint20_linear_924_5502)" stroke="#64B5C8" stroke-linejoin="round"/>
<path d="M247.781 96.0176H219.921V97.8068C219.921 97.8068 219.921 97.8834 219.921 97.909C219.921 102.382 226.157 106.011 233.851 106.011C241.544 106.011 247.781 102.382 247.781 97.909C247.781 97.8834 247.781 97.8323 247.781 97.8068V96.0176Z" fill="url(#paint21_linear_924_5502)" stroke="#64B5C8" stroke-linejoin="round"/>
<path d="M247.781 96.0676C247.781 99.9271 241.544 103.045 233.851 103.045C226.157 103.045 219.921 99.9271 219.921 96.0676C219.921 92.2081 226.157 89.0898 233.851 89.0898C241.544 89.0898 247.781 92.2081 247.781 96.0676Z" fill="url(#paint22_linear_924_5502)" stroke="#64B5C8" stroke-linejoin="round"/>
<path d="M244.688 92.4922H223.014V94.7159C223.014 94.7159 223.014 94.767 223.014 94.7926C223.014 98.2687 227.87 101.106 233.851 101.106C239.832 101.106 244.688 98.2687 244.688 94.7926C244.688 94.767 244.688 94.7414 244.688 94.7159V92.4922Z" fill="url(#paint23_linear_924_5502)" stroke="#64B5C8" stroke-linejoin="round"/>
<path d="M244.688 92.5409C244.688 95.5314 239.832 97.9851 233.851 97.9851C227.87 97.9851 223.014 95.5569 223.014 92.5409C223.014 89.5249 227.87 87.0967 233.851 87.0967C239.832 87.0967 244.688 89.5249 244.688 92.5409Z" fill="url(#paint24_linear_924_5502)" stroke="#64B5C8" stroke-linejoin="round"/>
<path d="M242.03 32.5771H225.646V91.7222C225.646 91.7222 225.646 91.7733 225.646 91.7988C225.646 94.4315 229.327 96.5785 233.851 96.5785C238.375 96.5785 242.056 94.4315 242.056 91.7988C242.056 91.7988 242.056 91.7477 242.056 91.7222V32.5771H242.03Z" fill="url(#paint25_linear_924_5502)" stroke="#64B5C8" stroke-linejoin="round"/>
<path d="M242.03 32.6034C242.03 34.8782 238.349 36.7185 233.825 36.7185C229.301 36.7185 225.621 34.8782 225.621 32.6034C225.621 30.3286 229.301 28.4883 233.825 28.4883C238.349 28.4883 242.03 30.3286 242.03 32.6034Z" fill="url(#paint26_linear_924_5502)" stroke="#64B5C8" stroke-linejoin="round"/>
<path d="M244.688 31.5811H223.014V33.8047C223.014 33.8047 223.014 33.8559 223.014 33.8814C223.014 37.3575 227.87 40.1946 233.851 40.1946C239.832 40.1946 244.688 37.3575 244.688 33.8814C244.688 33.8559 244.688 33.8303 244.688 33.8047V31.5811Z" fill="url(#paint27_linear_924_5502)" stroke="#64B5C8" stroke-linejoin="round"/>
<path d="M244.688 31.6317C244.688 34.6222 239.832 37.0759 233.851 37.0759C227.87 37.0759 223.014 34.6477 223.014 31.6317C223.014 28.6157 227.87 26.1875 233.851 26.1875C239.832 26.1875 244.688 28.6157 244.688 31.6317Z" fill="url(#paint28_linear_924_5502)" stroke="#64B5C8" stroke-linejoin="round"/>
<path d="M220.381 111.89H192.521V113.679C192.521 113.679 192.521 113.755 192.521 113.781C192.521 118.254 198.758 121.909 206.451 121.909C214.144 121.909 220.381 118.28 220.381 113.781C220.381 113.755 220.381 113.704 220.381 113.679V111.89Z" fill="url(#paint29_linear_924_5502)" stroke="#64B5C8" stroke-linejoin="round"/>
<path d="M220.381 111.94C220.381 115.799 214.144 118.917 206.451 118.917C198.758 118.917 192.521 115.799 192.521 111.94C192.521 108.08 198.758 104.962 206.451 104.962C214.144 104.962 220.381 108.08 220.381 111.94Z" fill="url(#paint30_linear_924_5502)" stroke="#64B5C8" stroke-linejoin="round"/>
<path d="M217.288 108.362H195.614V110.586C195.614 110.586 195.614 110.637 195.614 110.663C195.614 114.139 200.47 116.976 206.451 116.976C212.432 116.976 217.288 114.139 217.288 110.663C217.288 110.637 217.288 110.612 217.288 110.586V108.362Z" fill="url(#paint31_linear_924_5502)" stroke="#64B5C8" stroke-linejoin="round"/>
<path d="M217.288 108.412C217.288 111.402 212.432 113.856 206.451 113.856C200.47 113.856 195.614 111.428 195.614 108.412C195.614 105.396 200.47 102.968 206.451 102.968C212.432 102.968 217.288 105.396 217.288 108.412Z" fill="url(#paint32_linear_924_5502)" stroke="#64B5C8" stroke-linejoin="round"/>
<path d="M214.63 48.4482H198.246V107.593C198.246 107.593 198.246 107.644 198.246 107.67C198.246 110.303 201.927 112.45 206.451 112.45C210.975 112.45 214.656 110.303 214.656 107.67C214.656 107.67 214.656 107.619 214.656 107.593V48.4482H214.63Z" fill="url(#paint33_linear_924_5502)" stroke="#64B5C8" stroke-linejoin="round"/>
<path d="M214.63 48.4755C214.63 50.7503 210.949 52.5905 206.425 52.5905C201.901 52.5905 198.221 50.7503 198.221 48.4755C198.221 46.2006 201.901 44.3604 206.425 44.3604C210.949 44.3604 214.63 46.2006 214.63 48.4755Z" fill="url(#paint34_linear_924_5502)" stroke="#64B5C8" stroke-linejoin="round"/>
<path d="M217.288 47.4541H195.614V49.6778C195.614 49.6778 195.614 49.7289 195.614 49.7545C195.614 53.2306 200.47 56.0677 206.451 56.0677C212.432 56.0677 217.288 53.2306 217.288 49.7545C217.288 49.7289 217.288 49.7033 217.288 49.6778V47.4541Z" fill="url(#paint35_linear_924_5502)" stroke="#64B5C8" stroke-linejoin="round"/>
<path d="M217.288 47.5038C217.288 50.4943 212.432 52.948 206.451 52.948C200.47 52.948 195.614 50.5198 195.614 47.5038C195.614 44.4877 200.47 42.0596 206.451 42.0596C212.432 42.0596 217.288 44.4877 217.288 47.5038Z" fill="url(#paint36_linear_924_5502)" stroke="#64B5C8" stroke-linejoin="round"/>
<path d="M189.863 124.286C189.863 127.276 185.006 129.73 179.025 129.73C173.045 129.73 168.188 127.302 168.188 124.286C168.188 121.27 173.045 118.842 179.025 118.842C185.006 118.842 189.863 121.27 189.863 124.286Z" fill="url(#paint37_linear_924_5502)" stroke="#64B5C8" stroke-linejoin="round"/>
<path d="M187.23 64.3213H170.846V123.466C170.846 123.466 170.846 123.517 170.846 123.543C170.846 126.176 174.527 128.323 179.051 128.323C183.575 128.323 187.256 126.176 187.256 123.543C187.256 123.543 187.256 123.492 187.256 123.466V64.3213H187.23Z" fill="url(#paint38_linear_924_5502)" stroke="#64B5C8" stroke-linejoin="round"/>
<path d="M187.23 64.3475C187.23 66.6223 183.549 68.4626 179.025 68.4626C174.501 68.4626 170.821 66.6223 170.821 64.3475C170.821 62.0727 174.501 60.2324 179.025 60.2324C183.549 60.2324 187.23 62.0727 187.23 64.3475Z" fill="url(#paint39_linear_924_5502)" stroke="#64B5C8" stroke-linejoin="round"/>
<path d="M189.863 63.3252H168.188V65.5489C168.188 65.5489 168.188 65.6 168.188 65.6256C168.188 69.1017 173.045 71.9388 179.025 71.9388C185.006 71.9388 189.863 69.1017 189.863 65.6256C189.863 65.6 189.863 65.5744 189.863 65.5489V63.3252Z" fill="url(#paint40_linear_924_5502)" stroke="#64B5C8" stroke-linejoin="round"/>
<path d="M189.863 63.3758C189.863 66.3663 185.006 68.8201 179.025 68.8201C173.045 68.8201 168.188 66.3919 168.188 63.3758C168.188 60.3598 173.045 57.9316 179.025 57.9316C185.006 57.9316 189.863 60.3598 189.863 63.3758Z" fill="url(#paint41_linear_924_5502)" stroke="#64B5C8" stroke-linejoin="round"/>
<path d="M302.581 64.2705H274.721V66.0597C274.721 66.0597 274.721 66.1364 274.721 66.1619C274.721 70.6349 280.957 74.2643 288.651 74.2643C296.344 74.2643 302.581 70.6349 302.581 66.1619C302.581 66.1364 302.581 66.0852 302.581 66.0597V64.2705Z" fill="url(#paint42_linear_924_5502)" stroke="#64B5C8" stroke-linejoin="round"/>
<path d="M302.581 64.3215C302.581 68.181 296.344 71.2993 288.651 71.2993C280.957 71.2993 274.721 68.181 274.721 64.3215C274.721 60.462 280.957 57.3438 288.651 57.3438C296.344 57.3438 302.581 60.462 302.581 64.3215Z" fill="url(#paint43_linear_924_5502)" stroke="#64B5C8" stroke-linejoin="round"/>
<path d="M299.488 60.7695H277.813V62.9932C277.813 62.9932 277.813 63.0443 277.813 63.0699C277.813 66.546 282.67 69.3831 288.651 69.3831C294.632 69.3831 299.488 66.546 299.488 63.0699C299.488 63.0443 299.488 63.0188 299.488 62.9932V60.7695Z" fill="url(#paint44_linear_924_5502)" stroke="#64B5C8" stroke-linejoin="round"/>
<path d="M299.488 60.8212C299.488 63.8116 294.632 66.2654 288.651 66.2654C282.67 66.2654 277.813 63.8372 277.813 60.8212C277.813 57.8051 282.67 55.377 288.651 55.377C294.632 55.377 299.488 57.8051 299.488 60.8212Z" fill="url(#paint45_linear_924_5502)" stroke="#64B5C8" stroke-linejoin="round"/>
<path d="M296.855 0.833008H280.472V59.978C280.472 59.978 280.472 60.0291 280.472 60.0547C280.472 62.6873 284.152 64.8343 288.676 64.8343C293.2 64.8343 296.881 62.6873 296.881 60.0547C296.881 60.0547 296.881 60.0036 296.881 59.978V0.833008H296.855Z" fill="url(#paint46_linear_924_5502)" stroke="#64B5C8" stroke-linejoin="round"/>
<path d="M296.855 0.882681C296.855 3.15749 293.175 4.99778 288.651 4.99778C284.127 4.99778 280.446 3.15749 280.446 0.882681C280.446 -1.39213 284.127 -3.23242 288.651 -3.23242C293.175 -3.23242 296.855 -1.39213 296.855 0.882681Z" fill="url(#paint47_linear_924_5502)" stroke="#64B5C8" stroke-linejoin="round"/>
<path d="M299.488 -0.137695H277.813V2.08599C277.813 2.08599 277.813 2.13711 277.813 2.16267C277.813 5.63878 282.67 8.4759 288.651 8.4759C294.632 8.4759 299.488 5.63878 299.488 2.16267C299.488 2.13711 299.488 2.11155 299.488 2.08599V-0.137695Z" fill="url(#paint48_linear_924_5502)" stroke="#64B5C8" stroke-linejoin="round"/>
<path d="M299.488 -0.0889976C299.488 2.90148 294.632 5.3552 288.651 5.3552C282.67 5.3552 277.813 2.92704 277.813 -0.0889976C277.813 -3.10503 282.67 -5.5332 288.651 -5.5332C294.632 -5.5332 299.488 -3.10503 299.488 -0.0889976Z" fill="url(#paint49_linear_924_5502)" stroke="#64B5C8" stroke-linejoin="round"/>
<path d="M275.181 80.1416H247.321V81.9308C247.321 81.9308 247.321 82.0075 247.321 82.033C247.321 86.506 253.557 90.1354 261.251 90.1354C268.944 90.1354 275.181 86.506 275.181 82.033C275.181 82.0075 275.181 81.9563 275.181 81.9308V80.1416Z" fill="url(#paint50_linear_924_5502)" stroke="#64B5C8" stroke-linejoin="round"/>
<path d="M261.251 87.1733C268.944 87.1733 275.181 84.0493 275.181 80.1956C275.181 76.3418 268.944 73.2178 261.251 73.2178C253.557 73.2178 247.321 76.3418 247.321 80.1956C247.321 84.0493 253.557 87.1733 261.251 87.1733Z" fill="url(#paint51_linear_924_5502)" stroke="#64B5C8" stroke-linejoin="round"/>
<path d="M272.088 76.6426H250.413V78.8663C250.413 78.8663 250.413 78.9174 250.413 78.9429C250.413 82.4191 255.27 85.2562 261.251 85.2562C267.232 85.2562 272.088 82.4191 272.088 78.9429C272.088 78.9174 272.088 78.8918 272.088 78.8663V76.6426Z" fill="url(#paint52_linear_924_5502)" stroke="#64B5C8" stroke-linejoin="round"/>
<path d="M272.088 76.6678C272.088 79.6583 267.232 82.112 261.251 82.112C255.27 82.112 250.413 79.6839 250.413 76.6678C250.413 73.6518 255.27 71.2236 261.251 71.2236C267.232 71.2236 272.088 73.6518 272.088 76.6678Z" fill="url(#paint53_linear_924_5502)" stroke="#64B5C8" stroke-linejoin="round"/>
<path d="M269.43 16.7031H253.046V75.8481C253.046 75.8481 253.046 75.8993 253.046 75.9248C253.046 78.5575 256.727 80.7045 261.251 80.7045C265.775 80.7045 269.455 78.5575 269.455 75.9248V75.8737V16.7031H269.43Z" fill="url(#paint54_linear_924_5502)" stroke="#64B5C8" stroke-linejoin="round"/>
<path d="M269.43 16.7557C269.43 19.0305 265.749 20.8708 261.225 20.8708C256.701 20.8708 253.021 19.0305 253.021 16.7557C253.021 14.4809 256.701 12.6406 261.225 12.6406C265.749 12.6406 269.43 14.4809 269.43 16.7557Z" fill="url(#paint55_linear_924_5502)" stroke="#64B5C8" stroke-linejoin="round"/>
<path d="M272.088 15.7344H250.413V17.9581C250.413 17.9581 250.413 18.0092 250.413 18.0347C250.413 21.5109 255.27 24.348 261.251 24.348C267.232 24.348 272.088 21.5109 272.088 18.0347C272.088 18.0092 272.088 17.9836 272.088 17.9581V15.7344Z" fill="url(#paint56_linear_924_5502)" stroke="#64B5C8" stroke-linejoin="round"/>
<path d="M272.088 15.784C272.088 18.7745 267.232 21.2283 261.251 21.2283C255.27 21.2283 250.413 18.8001 250.413 15.784C250.413 12.768 255.27 10.3398 261.251 10.3398C267.232 10.3398 272.088 12.768 272.088 15.784Z" fill="url(#paint57_linear_924_5502)" stroke="#64B5C8" stroke-linejoin="round"/>
<path d="M159.83 80.1934H143.446V139.338C143.446 139.338 143.446 139.389 143.446 139.415C143.446 142.048 147.127 144.195 151.651 144.195C156.175 144.195 159.856 142.048 159.856 139.415C159.856 139.415 159.856 139.364 159.856 139.338V80.1934H159.83Z" fill="url(#paint58_linear_924_5502)" stroke="#64B5C8" stroke-linejoin="round"/>
<path d="M159.83 80.2215C159.83 82.4964 156.15 84.3366 151.626 84.3366C147.101 84.3366 143.421 82.4964 143.421 80.2215C143.421 77.9467 147.101 76.1064 151.626 76.1064C156.15 76.1064 159.83 77.9467 159.83 80.2215Z" fill="url(#paint59_linear_924_5502)" stroke="#64B5C8" stroke-linejoin="round"/>
<path d="M162.463 79.1992H140.788V81.4229C140.788 81.4229 140.788 81.474 140.788 81.4996C140.788 84.9757 145.645 87.8128 151.626 87.8128C157.606 87.8128 162.463 84.9757 162.463 81.4996C162.463 81.474 162.463 81.4485 162.463 81.4229V79.1992Z" fill="url(#paint60_linear_924_5502)" stroke="#64B5C8" stroke-linejoin="round"/>
<path d="M162.463 79.2479C162.463 82.2384 157.606 84.6921 151.625 84.6921C145.645 84.6921 140.788 82.2639 140.788 79.2479C140.788 76.2319 145.645 73.8037 151.625 73.8037C157.606 73.8037 162.463 76.2319 162.463 79.2479Z" fill="url(#paint61_linear_924_5502)" stroke="#64B5C8" stroke-linejoin="round"/>
<path d="M83.5602 96.0146H55.7002V97.8038C55.7002 97.8038 55.7002 97.8805 55.7002 97.9061C55.7002 102.379 61.9367 106.008 69.6302 106.008C77.3236 106.008 83.5602 102.379 83.5602 97.9061C83.5602 97.8805 83.5602 97.8294 83.5602 97.8038V96.0146Z" fill="url(#paint62_linear_924_5502)" stroke="#64B5C8" stroke-linejoin="round"/>
<path d="M83.5602 96.0657C83.5602 99.9252 77.3236 103.043 69.6302 103.043C61.9367 103.043 55.7002 99.9252 55.7002 96.0657C55.7002 92.2062 61.9367 89.0879 69.6302 89.0879C77.3236 89.0879 83.5602 92.2062 83.5602 96.0657Z" fill="url(#paint63_linear_924_5502)" stroke="#64B5C8" stroke-linejoin="round"/>
<path d="M80.4675 92.4883H58.7929V94.712C58.7929 94.712 58.7929 94.7631 58.7929 94.7887C58.7929 98.2648 63.6492 101.102 69.6302 101.102C75.6111 101.102 80.4675 98.2648 80.4675 94.7887C80.4675 94.7631 80.4675 94.7375 80.4675 94.712V92.4883Z" fill="url(#paint64_linear_924_5502)" stroke="#64B5C8" stroke-linejoin="round"/>
<path d="M80.4675 92.537C80.4675 95.5275 75.6111 97.9812 69.6302 97.9812C63.6492 97.9812 58.7929 95.553 58.7929 92.537C58.7929 89.521 63.6492 87.0928 69.6302 87.0928C75.6111 87.0928 80.4675 89.521 80.4675 92.537Z" fill="url(#paint65_linear_924_5502)" stroke="#64B5C8" stroke-linejoin="round"/>
<path d="M77.8348 32.5742H61.4511V91.7192C61.4511 91.7192 61.4511 91.7703 61.4511 91.7959C61.4511 94.4285 65.1317 96.5755 69.6558 96.5755C74.1798 96.5755 77.8604 94.4285 77.8604 91.7959C77.8604 91.7959 77.8604 91.7448 77.8604 91.7192V32.5742H77.8348Z" fill="url(#paint66_linear_924_5502)" stroke="#64B5C8" stroke-linejoin="round"/>
<path d="M77.8349 32.6014C77.8349 34.8762 74.1543 36.7165 69.6302 36.7165C65.1062 36.7165 61.4256 34.8762 61.4256 32.6014C61.4256 30.3266 65.1062 28.4863 69.6302 28.4863C74.1543 28.4863 77.8349 30.3266 77.8349 32.6014Z" fill="url(#paint67_linear_924_5502)" stroke="#64B5C8" stroke-linejoin="round"/>
<path d="M80.4675 31.5771H58.7929V33.8008C58.7929 33.8008 58.7929 33.852 58.7929 33.8775C58.7929 37.3536 63.6492 40.1907 69.6302 40.1907C75.6111 40.1907 80.4675 37.3536 80.4675 33.8775C80.4675 33.852 80.4675 33.8264 80.4675 33.8008V31.5771Z" fill="url(#paint68_linear_924_5502)" stroke="#64B5C8" stroke-linejoin="round"/>
<path d="M80.4675 31.6288C80.4675 34.6193 75.6111 37.073 69.6302 37.073C63.6492 37.073 58.7929 34.6448 58.7929 31.6288C58.7929 28.6127 63.6492 26.1846 69.6302 26.1846C75.6111 26.1846 80.4675 28.6127 80.4675 31.6288Z" fill="url(#paint69_linear_924_5502)" stroke="#64B5C8" stroke-linejoin="round"/>
<path d="M110.986 111.887H83.1256V113.676C83.1256 113.676 83.1256 113.753 83.1256 113.778C83.1256 118.251 89.3622 121.906 97.0556 121.906C104.749 121.906 110.986 118.277 110.986 113.778C110.986 113.753 110.986 113.701 110.986 113.676V111.887Z" fill="url(#paint70_linear_924_5502)" stroke="#64B5C8" stroke-linejoin="round"/>
<path d="M110.986 111.94C110.986 115.799 104.749 118.917 97.0556 118.917C89.3622 118.917 83.1256 115.799 83.1256 111.94C83.1256 108.08 89.3622 104.962 97.0556 104.962C104.749 104.962 110.986 108.08 110.986 111.94Z" fill="url(#paint71_linear_924_5502)" stroke="#64B5C8" stroke-linejoin="round"/>
<path d="M107.893 108.359H86.2184V110.583C86.2184 110.583 86.2184 110.634 86.2184 110.66C86.2184 114.136 91.0747 116.973 97.0557 116.973C103.037 116.973 107.893 114.136 107.893 110.66C107.893 110.634 107.893 110.609 107.893 110.583V108.359Z" fill="url(#paint72_linear_924_5502)" stroke="#64B5C8" stroke-linejoin="round"/>
<path d="M107.893 108.408C107.893 111.399 103.037 113.852 97.0557 113.852C91.0747 113.852 86.2184 111.424 86.2184 108.408C86.2184 105.392 91.0747 102.964 97.0557 102.964C103.037 102.964 107.893 105.392 107.893 108.408Z" fill="url(#paint73_linear_924_5502)" stroke="#64B5C8" stroke-linejoin="round"/>
<path d="M105.235 48.4482H88.851V107.593C88.851 107.593 88.851 107.644 88.851 107.67C88.851 110.303 92.5316 112.45 97.0556 112.45C101.58 112.45 105.26 110.303 105.26 107.67C105.26 107.67 105.26 107.619 105.26 107.593V48.4482H105.235Z" fill="url(#paint74_linear_924_5502)" stroke="#64B5C8" stroke-linejoin="round"/>
<path d="M105.235 48.4725C105.235 50.7473 101.554 52.5876 97.03 52.5876C92.506 52.5876 88.8254 50.7473 88.8254 48.4725C88.8254 46.1977 92.506 44.3574 97.03 44.3574C101.554 44.3574 105.235 46.1977 105.235 48.4725Z" fill="url(#paint75_linear_924_5502)" stroke="#64B5C8" stroke-linejoin="round"/>
<path d="M107.893 47.4502H86.2184V49.6739C86.2184 49.6739 86.2184 49.725 86.2184 49.7506C86.2184 53.2267 91.0747 56.0638 97.0557 56.0638C103.037 56.0638 107.893 53.2267 107.893 49.7506C107.893 49.725 107.893 49.6994 107.893 49.6739V47.4502Z" fill="url(#paint76_linear_924_5502)" stroke="#64B5C8" stroke-linejoin="round"/>
<path d="M107.893 47.5008C107.893 50.4913 103.037 52.9451 97.0557 52.9451C91.0747 52.9451 86.2184 50.5169 86.2184 47.5008C86.2184 44.4848 91.0747 42.0566 97.0557 42.0566C103.037 42.0566 107.893 44.4848 107.893 47.5008Z" fill="url(#paint77_linear_924_5502)" stroke="#64B5C8" stroke-linejoin="round"/>
<path d="M135.293 124.282C135.293 127.273 130.437 129.726 124.456 129.726C118.475 129.726 113.618 127.298 113.618 124.282C113.618 121.266 118.475 118.838 124.456 118.838C130.437 118.838 135.293 121.266 135.293 124.282Z" fill="url(#paint78_linear_924_5502)" stroke="#64B5C8" stroke-linejoin="round"/>
<path d="M132.635 64.3193H116.251V123.464C116.251 123.464 116.251 123.515 116.251 123.541C116.251 126.174 119.932 128.321 124.456 128.321C128.98 128.321 132.66 126.174 132.66 123.541C132.66 123.541 132.66 123.49 132.66 123.464V64.3193H132.635Z" fill="url(#paint79_linear_924_5502)" stroke="#64B5C8" stroke-linejoin="round"/>
<path d="M132.635 64.3465C132.635 66.6214 128.954 68.4617 124.43 68.4617C119.906 68.4617 116.225 66.6214 116.225 64.3465C116.225 62.0717 119.906 60.2314 124.43 60.2314C128.954 60.2314 132.635 62.0717 132.635 64.3465Z" fill="url(#paint80_linear_924_5502)" stroke="#64B5C8" stroke-linejoin="round"/>
<path d="M135.293 63.3242H113.618V65.5479C113.618 65.5479 113.618 65.599 113.618 65.6246C113.618 69.1007 118.475 71.9378 124.456 71.9378C130.437 71.9378 135.293 69.1007 135.293 65.6246C135.293 65.599 135.293 65.5735 135.293 65.5479V63.3242Z" fill="url(#paint81_linear_924_5502)" stroke="#64B5C8" stroke-linejoin="round"/>
<path d="M135.293 63.3749C135.293 66.3653 130.437 68.8191 124.456 68.8191C118.475 68.8191 113.618 66.3909 113.618 63.3749C113.618 60.3588 118.475 57.9307 124.456 57.9307C130.437 57.9307 135.293 60.3588 135.293 63.3749Z" fill="url(#paint82_linear_924_5502)" stroke="#64B5C8" stroke-linejoin="round"/>
<path d="M151.651 76.1555V86.7116L300.127 -0.625683V-11.1562L151.651 76.1555Z" fill="url(#paint83_linear_924_5502)" stroke="#64B5C8" stroke-linejoin="round"/>
<path d="M151.702 76.1545V86.7106L54.2177 29.8916V19.4121L151.702 76.1545Z" fill="url(#paint84_linear_924_5502)" stroke="#64B5C8" stroke-linejoin="round"/>
<g opacity="0.5" style="mix-blend-mode:multiply">
<path d="M151.651 76.1555V80.1939L300.127 -7.11782V-11.1562L151.651 76.1555Z" fill="url(#paint85_linear_924_5502)"/>
<path d="M151.651 76.1555V80.1939L300.127 -7.11782V-11.1562L151.651 76.1555Z" stroke="#64B5C8" stroke-linejoin="round"/>
</g>
<g opacity="0.5" style="mix-blend-mode:multiply">
<path d="M151.702 76.1545V80.1929L54.2177 23.3739V19.4121L151.702 76.1545Z" fill="url(#paint86_linear_924_5502)"/>
<path d="M151.702 76.1545V80.1929L54.2177 23.3739V19.4121L151.702 76.1545Z" stroke="#64B5C8" stroke-linejoin="round"/>
</g>
<path d="M54.2177 19.4118L151.702 76.1542L300.127 -11.1575L202.566 -67.9766L54.2177 19.4118Z" fill="url(#paint87_linear_924_5502)" stroke="#64B5C8" stroke-linejoin="round"/>
<path d="M151.651 74.8765V78.1226L301.226 -9.85371V-13.0742L151.651 74.8765Z" fill="url(#paint88_linear_924_5502)" stroke="#64B5C8" stroke-linejoin="round"/>
<path d="M151.702 74.8785V78.1245L53.1442 20.6665V17.4971L151.702 74.8785Z" fill="url(#paint89_linear_924_5502)" stroke="#64B5C8" stroke-linejoin="round"/>
<path d="M53.1442 17.4942L151.702 74.8755L301.226 -13.0751L202.566 -70.5332L53.1442 17.4942Z" fill="url(#paint90_linear_924_5502)" stroke="#64B5C8" stroke-linejoin="round"/>
<path d="M243.257 -86.582L200.01 -67.7446L64.3649 12.2571L102.065 -3.15538L243.257 -86.582Z" fill="url(#paint91_linear_924_5502)" stroke="#64B5C8" stroke-linejoin="round"/>
<path d="M107.254 0.344624L153.67 71.9627L296.063 -12.0518L249.391 -83.082L107.254 0.344624Z" fill="url(#paint92_linear_924_5502)" stroke="#64B5C8" stroke-linejoin="round"/>
<path d="M52.7864 17.5232L102.449 -5.32715L152.137 74.8534L52.7864 17.5232Z" fill="url(#paint93_linear_924_5502)" stroke="#64B5C8" stroke-linejoin="round"/>
<path d="M64.9272 18.0842L100.302 1.80273L135.727 58.9541L64.9272 18.0842Z" fill="url(#paint94_linear_924_5502)" stroke="#64B5C8" stroke-linejoin="round"/>
<path d="M102.449 -5.3291L152.137 74.8515L155.178 72.8834L105.235 -6.6582L102.449 -5.3291Z" fill="url(#paint95_linear_924_5502)" stroke="#64B5C8" stroke-linejoin="round"/>
</g>
<defs>
<linearGradient id="paint0_linear_924_5502" x1="182.003" y1="6.30859" x2="182.003" y2="190.834" gradientUnits="userSpaceOnUse">
<stop stop-color="#A8C9D1"/>
<stop offset="1" stop-color="white"/>
</linearGradient>
<linearGradient id="paint1_linear_924_5502" x1="181.402" y1="8.14844" x2="181.402" y2="189.976" gradientUnits="userSpaceOnUse">
<stop stop-color="#A8C9D1"/>
<stop offset="1" stop-color="white"/>
</linearGradient>
<linearGradient id="paint2_linear_924_5502" x1="180.869" y1="10.001" x2="180.869" y2="189.129" gradientUnits="userSpaceOnUse">
<stop stop-color="#A8C9D1"/>
<stop offset="1" stop-color="white"/>
</linearGradient>
<linearGradient id="paint3_linear_924_5502" x1="180.299" y1="11.8174" x2="180.299" y2="188.292" gradientUnits="userSpaceOnUse">
<stop stop-color="#A8C9D1"/>
<stop offset="1" stop-color="white"/>
</linearGradient>
<linearGradient id="paint4_linear_924_5502" x1="179.717" y1="13.625" x2="179.717" y2="187.414" gradientUnits="userSpaceOnUse">
<stop stop-color="#A8C9D1"/>
<stop offset="1" stop-color="white"/>
</linearGradient>
<linearGradient id="paint5_linear_924_5502" x1="179.188" y1="15.4492" x2="179.188" y2="186.666" gradientUnits="userSpaceOnUse">
<stop stop-color="#A8C9D1"/>
<stop offset="1" stop-color="white"/>
</linearGradient>
<linearGradient id="paint6_linear_924_5502" x1="178.585" y1="17.2363" x2="178.585" y2="185.805" gradientUnits="userSpaceOnUse">
<stop stop-color="#A8C9D1"/>
<stop offset="1" stop-color="white"/>
</linearGradient>
<linearGradient id="paint7_linear_924_5502" x1="178.044" y1="19.0439" x2="178.044" y2="185.076" gradientUnits="userSpaceOnUse">
<stop stop-color="#A8C9D1"/>
<stop offset="1" stop-color="white"/>
</linearGradient>
<linearGradient id="paint8_linear_924_5502" x1="177.441" y1="20.8154" x2="177.441" y2="184.224" gradientUnits="userSpaceOnUse">
<stop stop-color="#A8C9D1"/>
<stop offset="1" stop-color="white"/>
</linearGradient>
<linearGradient id="paint9_linear_924_5502" x1="176.891" y1="22.582" x2="176.891" y2="183.454" gradientUnits="userSpaceOnUse">
<stop stop-color="#A8C9D1"/>
<stop offset="1" stop-color="white"/>
</linearGradient>
<linearGradient id="paint10_linear_924_5502" x1="245.813" y1="75.5664" x2="245.813" y2="197.384" gradientUnits="userSpaceOnUse">
<stop stop-color="#A8C9D1"/>
<stop offset="1" stop-color="white"/>
</linearGradient>
<linearGradient id="paint11_linear_924_5502" x1="86.819" y1="110.659" x2="86.819" y2="197.383" gradientUnits="userSpaceOnUse">
<stop stop-color="#A8C9D1"/>
<stop offset="1" stop-color="white"/>
</linearGradient>
<linearGradient id="paint12_linear_924_5502" x1="180.968" y1="-0.0644531" x2="180.968" y2="186.24" gradientUnits="userSpaceOnUse">
<stop stop-color="#A8C9D1"/>
<stop offset="1" stop-color="white"/>
</linearGradient>
<linearGradient id="paint13_linear_924_5502" x1="233.659" y1="64.3965" x2="233.659" y2="172.181" gradientUnits="userSpaceOnUse">
<stop stop-color="#A8C9D1"/>
<stop offset="1" stop-color="white"/>
</linearGradient>
<linearGradient id="paint14_linear_924_5502" x1="98.9855" y1="99.3643" x2="98.9855" y2="172.184" gradientUnits="userSpaceOnUse">
<stop stop-color="#A8C9D1"/>
<stop offset="1" stop-color="white"/>
</linearGradient>
<linearGradient id="paint15_linear_924_5502" x1="180.968" y1="2.92676" x2="180.968" y2="160.783" gradientUnits="userSpaceOnUse">
<stop stop-color="#A8C9D1"/>
<stop offset="1" stop-color="white"/>
</linearGradient>
<linearGradient id="paint16_linear_924_5502" x1="108.915" y1="91.6953" x2="108.915" y2="151.582" gradientUnits="userSpaceOnUse">
<stop stop-color="#A8C9D1"/>
<stop offset="1" stop-color="white"/>
</linearGradient>
<linearGradient id="paint17_linear_924_5502" x1="210.655" y1="5.73535" x2="210.655" y2="131.872" gradientUnits="userSpaceOnUse">
<stop stop-color="#A8C9D1"/>
<stop offset="1" stop-color="white"/>
</linearGradient>
<linearGradient id="paint18_linear_924_5502" x1="210.668" y1="16.0615" x2="210.668" y2="121.546" gradientUnits="userSpaceOnUse">
<stop stop-color="#A8C9D1"/>
<stop offset="1" stop-color="white"/>
</linearGradient>
<linearGradient id="paint19_linear_924_5502" x1="121.989" y1="40.4717" x2="121.989" y2="131.873" gradientUnits="userSpaceOnUse">
<stop stop-color="#A8C9D1"/>
<stop offset="1" stop-color="white"/>
</linearGradient>
<linearGradient id="paint20_linear_924_5502" x1="121.976" y1="50.749" x2="121.976" y2="121.6" gradientUnits="userSpaceOnUse">
<stop stop-color="#A8C9D1"/>
<stop offset="1" stop-color="white"/>
</linearGradient>
<linearGradient id="paint21_linear_924_5502" x1="233.851" y1="96.0176" x2="233.851" y2="106.011" gradientUnits="userSpaceOnUse">
<stop stop-color="#A8C9D1"/>
<stop offset="1" stop-color="white"/>
</linearGradient>
<linearGradient id="paint22_linear_924_5502" x1="233.851" y1="89.0898" x2="233.851" y2="103.045" gradientUnits="userSpaceOnUse">
<stop stop-color="#A8C9D1"/>
<stop offset="1" stop-color="white"/>
</linearGradient>
<linearGradient id="paint23_linear_924_5502" x1="233.851" y1="92.4922" x2="233.851" y2="101.106" gradientUnits="userSpaceOnUse">
<stop stop-color="#A8C9D1"/>
<stop offset="1" stop-color="white"/>
</linearGradient>
<linearGradient id="paint24_linear_924_5502" x1="233.851" y1="87.0967" x2="233.851" y2="97.9851" gradientUnits="userSpaceOnUse">
<stop stop-color="#A8C9D1"/>
<stop offset="1" stop-color="white"/>
</linearGradient>
<linearGradient id="paint25_linear_924_5502" x1="233.851" y1="32.5771" x2="233.851" y2="96.5785" gradientUnits="userSpaceOnUse">
<stop stop-color="#A8C9D1"/>
<stop offset="1" stop-color="white"/>
</linearGradient>
<linearGradient id="paint26_linear_924_5502" x1="233.825" y1="28.4883" x2="233.825" y2="36.7185" gradientUnits="userSpaceOnUse">
<stop stop-color="#A8C9D1"/>
<stop offset="1" stop-color="white"/>
</linearGradient>
<linearGradient id="paint27_linear_924_5502" x1="233.851" y1="31.5811" x2="233.851" y2="40.1946" gradientUnits="userSpaceOnUse">
<stop stop-color="#A8C9D1"/>
<stop offset="1" stop-color="white"/>
</linearGradient>
<linearGradient id="paint28_linear_924_5502" x1="233.851" y1="26.1875" x2="233.851" y2="37.0759" gradientUnits="userSpaceOnUse">
<stop stop-color="#A8C9D1"/>
<stop offset="1" stop-color="white"/>
</linearGradient>
<linearGradient id="paint29_linear_924_5502" x1="206.451" y1="111.89" x2="206.451" y2="121.909" gradientUnits="userSpaceOnUse">
<stop stop-color="#A8C9D1"/>
<stop offset="1" stop-color="white"/>
</linearGradient>
<linearGradient id="paint30_linear_924_5502" x1="206.451" y1="104.962" x2="206.451" y2="118.917" gradientUnits="userSpaceOnUse">
<stop stop-color="#A8C9D1"/>
<stop offset="1" stop-color="white"/>
</linearGradient>
<linearGradient id="paint31_linear_924_5502" x1="206.451" y1="108.362" x2="206.451" y2="116.976" gradientUnits="userSpaceOnUse">
<stop stop-color="#A8C9D1"/>
<stop offset="1" stop-color="white"/>
</linearGradient>
<linearGradient id="paint32_linear_924_5502" x1="206.451" y1="102.968" x2="206.451" y2="113.856" gradientUnits="userSpaceOnUse">
<stop stop-color="#A8C9D1"/>
<stop offset="1" stop-color="white"/>
</linearGradient>
<linearGradient id="paint33_linear_924_5502" x1="206.451" y1="48.4482" x2="206.451" y2="112.45" gradientUnits="userSpaceOnUse">
<stop stop-color="#A8C9D1"/>
<stop offset="1" stop-color="white"/>
</linearGradient>
<linearGradient id="paint34_linear_924_5502" x1="206.425" y1="44.3604" x2="206.425" y2="52.5905" gradientUnits="userSpaceOnUse">
<stop stop-color="#A8C9D1"/>
<stop offset="1" stop-color="white"/>
</linearGradient>
<linearGradient id="paint35_linear_924_5502" x1="206.451" y1="47.4541" x2="206.451" y2="56.0677" gradientUnits="userSpaceOnUse">
<stop stop-color="#A8C9D1"/>
<stop offset="1" stop-color="white"/>
</linearGradient>
<linearGradient id="paint36_linear_924_5502" x1="206.451" y1="42.0596" x2="206.451" y2="52.948" gradientUnits="userSpaceOnUse">
<stop stop-color="#A8C9D1"/>
<stop offset="1" stop-color="white"/>
</linearGradient>
<linearGradient id="paint37_linear_924_5502" x1="179.025" y1="118.842" x2="179.025" y2="129.73" gradientUnits="userSpaceOnUse">
<stop stop-color="#A8C9D1"/>
<stop offset="1" stop-color="white"/>
</linearGradient>
<linearGradient id="paint38_linear_924_5502" x1="179.051" y1="64.3213" x2="179.051" y2="128.323" gradientUnits="userSpaceOnUse">
<stop stop-color="#A8C9D1"/>
<stop offset="1" stop-color="white"/>
</linearGradient>
<linearGradient id="paint39_linear_924_5502" x1="179.025" y1="60.2324" x2="179.025" y2="68.4626" gradientUnits="userSpaceOnUse">
<stop stop-color="#A8C9D1"/>
<stop offset="1" stop-color="white"/>
</linearGradient>
<linearGradient id="paint40_linear_924_5502" x1="179.025" y1="63.3252" x2="179.025" y2="71.9388" gradientUnits="userSpaceOnUse">
<stop stop-color="#A8C9D1"/>
<stop offset="1" stop-color="white"/>
</linearGradient>
<linearGradient id="paint41_linear_924_5502" x1="179.025" y1="57.9316" x2="179.025" y2="68.8201" gradientUnits="userSpaceOnUse">
<stop stop-color="#A8C9D1"/>
<stop offset="1" stop-color="white"/>
</linearGradient>
<linearGradient id="paint42_linear_924_5502" x1="288.651" y1="64.2705" x2="288.651" y2="74.2643" gradientUnits="userSpaceOnUse">
<stop stop-color="#A8C9D1"/>
<stop offset="1" stop-color="white"/>
</linearGradient>
<linearGradient id="paint43_linear_924_5502" x1="288.651" y1="57.3438" x2="288.651" y2="71.2993" gradientUnits="userSpaceOnUse">
<stop stop-color="#A8C9D1"/>
<stop offset="1" stop-color="white"/>
</linearGradient>
<linearGradient id="paint44_linear_924_5502" x1="288.651" y1="60.7695" x2="288.651" y2="69.3831" gradientUnits="userSpaceOnUse">
<stop stop-color="#A8C9D1"/>
<stop offset="1" stop-color="white"/>
</linearGradient>
<linearGradient id="paint45_linear_924_5502" x1="288.651" y1="55.377" x2="288.651" y2="66.2654" gradientUnits="userSpaceOnUse">
<stop stop-color="#A8C9D1"/>
<stop offset="1" stop-color="white"/>
</linearGradient>
<linearGradient id="paint46_linear_924_5502" x1="288.676" y1="0.833008" x2="288.676" y2="64.8343" gradientUnits="userSpaceOnUse">
<stop stop-color="#A8C9D1"/>
<stop offset="1" stop-color="white"/>
</linearGradient>
<linearGradient id="paint47_linear_924_5502" x1="288.651" y1="-3.23242" x2="288.651" y2="4.99778" gradientUnits="userSpaceOnUse">
<stop stop-color="#A8C9D1"/>
<stop offset="1" stop-color="white"/>
</linearGradient>
<linearGradient id="paint48_linear_924_5502" x1="288.651" y1="-0.137695" x2="288.651" y2="8.4759" gradientUnits="userSpaceOnUse">
<stop stop-color="#A8C9D1"/>
<stop offset="1" stop-color="white"/>
</linearGradient>
<linearGradient id="paint49_linear_924_5502" x1="288.651" y1="-5.5332" x2="288.651" y2="5.3552" gradientUnits="userSpaceOnUse">
<stop stop-color="#A8C9D1"/>
<stop offset="1" stop-color="white"/>
</linearGradient>
<linearGradient id="paint50_linear_924_5502" x1="261.251" y1="80.1416" x2="261.251" y2="90.1354" gradientUnits="userSpaceOnUse">
<stop stop-color="#A8C9D1"/>
<stop offset="1" stop-color="white"/>
</linearGradient>
<linearGradient id="paint51_linear_924_5502" x1="261.251" y1="73.2178" x2="261.251" y2="87.1733" gradientUnits="userSpaceOnUse">
<stop stop-color="#A8C9D1"/>
<stop offset="1" stop-color="white"/>
</linearGradient>
<linearGradient id="paint52_linear_924_5502" x1="261.251" y1="76.6426" x2="261.251" y2="85.2562" gradientUnits="userSpaceOnUse">
<stop stop-color="#A8C9D1"/>
<stop offset="1" stop-color="white"/>
</linearGradient>
<linearGradient id="paint53_linear_924_5502" x1="261.251" y1="71.2236" x2="261.251" y2="82.112" gradientUnits="userSpaceOnUse">
<stop stop-color="#A8C9D1"/>
<stop offset="1" stop-color="white"/>
</linearGradient>
<linearGradient id="paint54_linear_924_5502" x1="261.251" y1="16.7031" x2="261.251" y2="80.7045" gradientUnits="userSpaceOnUse">
<stop stop-color="#A8C9D1"/>
<stop offset="1" stop-color="white"/>
</linearGradient>
<linearGradient id="paint55_linear_924_5502" x1="261.225" y1="12.6406" x2="261.225" y2="20.8708" gradientUnits="userSpaceOnUse">
<stop stop-color="#A8C9D1"/>
<stop offset="1" stop-color="white"/>
</linearGradient>
<linearGradient id="paint56_linear_924_5502" x1="261.251" y1="15.7344" x2="261.251" y2="24.348" gradientUnits="userSpaceOnUse">
<stop stop-color="#A8C9D1"/>
<stop offset="1" stop-color="white"/>
</linearGradient>
<linearGradient id="paint57_linear_924_5502" x1="261.251" y1="10.3398" x2="261.251" y2="21.2283" gradientUnits="userSpaceOnUse">
<stop stop-color="#A8C9D1"/>
<stop offset="1" stop-color="white"/>
</linearGradient>
<linearGradient id="paint58_linear_924_5502" x1="151.651" y1="80.1934" x2="151.651" y2="144.195" gradientUnits="userSpaceOnUse">
<stop stop-color="#A8C9D1"/>
<stop offset="1" stop-color="white"/>
</linearGradient>
<linearGradient id="paint59_linear_924_5502" x1="151.626" y1="76.1064" x2="151.626" y2="84.3366" gradientUnits="userSpaceOnUse">
<stop stop-color="#A8C9D1"/>
<stop offset="1" stop-color="white"/>
</linearGradient>
<linearGradient id="paint60_linear_924_5502" x1="151.626" y1="79.1992" x2="151.626" y2="87.8128" gradientUnits="userSpaceOnUse">
<stop stop-color="#A8C9D1"/>
<stop offset="1" stop-color="white"/>
</linearGradient>
<linearGradient id="paint61_linear_924_5502" x1="151.625" y1="73.8037" x2="151.625" y2="84.6921" gradientUnits="userSpaceOnUse">
<stop stop-color="#A8C9D1"/>
<stop offset="1" stop-color="white"/>
</linearGradient>
<linearGradient id="paint62_linear_924_5502" x1="69.6302" y1="96.0146" x2="69.6302" y2="106.008" gradientUnits="userSpaceOnUse">
<stop stop-color="#A8C9D1"/>
<stop offset="1" stop-color="white"/>
</linearGradient>
<linearGradient id="paint63_linear_924_5502" x1="69.6302" y1="89.0879" x2="69.6302" y2="103.043" gradientUnits="userSpaceOnUse">
<stop stop-color="#A8C9D1"/>
<stop offset="1" stop-color="white"/>
</linearGradient>
<linearGradient id="paint64_linear_924_5502" x1="69.6302" y1="92.4883" x2="69.6302" y2="101.102" gradientUnits="userSpaceOnUse">
<stop stop-color="#A8C9D1"/>
<stop offset="1" stop-color="white"/>
</linearGradient>
<linearGradient id="paint65_linear_924_5502" x1="69.6302" y1="87.0928" x2="69.6302" y2="97.9812" gradientUnits="userSpaceOnUse">
<stop stop-color="#A8C9D1"/>
<stop offset="1" stop-color="white"/>
</linearGradient>
<linearGradient id="paint66_linear_924_5502" x1="69.6558" y1="32.5742" x2="69.6558" y2="96.5755" gradientUnits="userSpaceOnUse">
<stop stop-color="#A8C9D1"/>
<stop offset="1" stop-color="white"/>
</linearGradient>
<linearGradient id="paint67_linear_924_5502" x1="69.6302" y1="28.4863" x2="69.6302" y2="36.7165" gradientUnits="userSpaceOnUse">
<stop stop-color="#A8C9D1"/>
<stop offset="1" stop-color="white"/>
</linearGradient>
<linearGradient id="paint68_linear_924_5502" x1="69.6302" y1="31.5771" x2="69.6302" y2="40.1907" gradientUnits="userSpaceOnUse">
<stop stop-color="#A8C9D1"/>
<stop offset="1" stop-color="white"/>
</linearGradient>
<linearGradient id="paint69_linear_924_5502" x1="69.6302" y1="26.1846" x2="69.6302" y2="37.073" gradientUnits="userSpaceOnUse">
<stop stop-color="#A8C9D1"/>
<stop offset="1" stop-color="white"/>
</linearGradient>
<linearGradient id="paint70_linear_924_5502" x1="97.0556" y1="111.887" x2="97.0556" y2="121.906" gradientUnits="userSpaceOnUse">
<stop stop-color="#A8C9D1"/>
<stop offset="1" stop-color="white"/>
</linearGradient>
<linearGradient id="paint71_linear_924_5502" x1="97.0556" y1="104.962" x2="97.0556" y2="118.917" gradientUnits="userSpaceOnUse">
<stop stop-color="#A8C9D1"/>
<stop offset="1" stop-color="white"/>
</linearGradient>
<linearGradient id="paint72_linear_924_5502" x1="97.0557" y1="108.359" x2="97.0557" y2="116.973" gradientUnits="userSpaceOnUse">
<stop stop-color="#A8C9D1"/>
<stop offset="1" stop-color="white"/>
</linearGradient>
<linearGradient id="paint73_linear_924_5502" x1="97.0557" y1="102.964" x2="97.0557" y2="113.852" gradientUnits="userSpaceOnUse">
<stop stop-color="#A8C9D1"/>
<stop offset="1" stop-color="white"/>
</linearGradient>
<linearGradient id="paint74_linear_924_5502" x1="97.0556" y1="48.4482" x2="97.0556" y2="112.45" gradientUnits="userSpaceOnUse">
<stop stop-color="#A8C9D1"/>
<stop offset="1" stop-color="white"/>
</linearGradient>
<linearGradient id="paint75_linear_924_5502" x1="97.03" y1="44.3574" x2="97.03" y2="52.5876" gradientUnits="userSpaceOnUse">
<stop stop-color="#A8C9D1"/>
<stop offset="1" stop-color="white"/>
</linearGradient>
<linearGradient id="paint76_linear_924_5502" x1="97.0557" y1="47.4502" x2="97.0557" y2="56.0638" gradientUnits="userSpaceOnUse">
<stop stop-color="#A8C9D1"/>
<stop offset="1" stop-color="white"/>
</linearGradient>
<linearGradient id="paint77_linear_924_5502" x1="97.0557" y1="42.0566" x2="97.0557" y2="52.9451" gradientUnits="userSpaceOnUse">
<stop stop-color="#A8C9D1"/>
<stop offset="1" stop-color="white"/>
</linearGradient>
<linearGradient id="paint78_linear_924_5502" x1="124.456" y1="118.838" x2="124.456" y2="129.726" gradientUnits="userSpaceOnUse">
<stop stop-color="#A8C9D1"/>
<stop offset="1" stop-color="white"/>
</linearGradient>
<linearGradient id="paint79_linear_924_5502" x1="124.456" y1="64.3193" x2="124.456" y2="128.321" gradientUnits="userSpaceOnUse">
<stop stop-color="#A8C9D1"/>
<stop offset="1" stop-color="white"/>
</linearGradient>
<linearGradient id="paint80_linear_924_5502" x1="124.43" y1="60.2314" x2="124.43" y2="68.4617" gradientUnits="userSpaceOnUse">
<stop stop-color="#A8C9D1"/>
<stop offset="1" stop-color="white"/>
</linearGradient>
<linearGradient id="paint81_linear_924_5502" x1="124.456" y1="63.3242" x2="124.456" y2="71.9378" gradientUnits="userSpaceOnUse">
<stop stop-color="#A8C9D1"/>
<stop offset="1" stop-color="white"/>
</linearGradient>
<linearGradient id="paint82_linear_924_5502" x1="124.456" y1="57.9307" x2="124.456" y2="68.8191" gradientUnits="userSpaceOnUse">
<stop stop-color="#A8C9D1"/>
<stop offset="1" stop-color="white"/>
</linearGradient>
<linearGradient id="paint83_linear_924_5502" x1="225.889" y1="-11.1563" x2="225.889" y2="86.7116" gradientUnits="userSpaceOnUse">
<stop stop-color="#A8C9D1"/>
<stop offset="1" stop-color="white"/>
</linearGradient>
<linearGradient id="paint84_linear_924_5502" x1="102.96" y1="19.4121" x2="102.96" y2="86.7106" gradientUnits="userSpaceOnUse">
<stop stop-color="#A8C9D1"/>
<stop offset="1" stop-color="white"/>
</linearGradient>
<linearGradient id="paint85_linear_924_5502" x1="225.889" y1="-11.1563" x2="225.889" y2="80.1939" gradientUnits="userSpaceOnUse">
<stop stop-color="#A8C9D1"/>
<stop offset="1" stop-color="white"/>
</linearGradient>
<linearGradient id="paint86_linear_924_5502" x1="102.96" y1="19.4121" x2="102.96" y2="80.1929" gradientUnits="userSpaceOnUse">
<stop stop-color="#A8C9D1"/>
<stop offset="1" stop-color="white"/>
</linearGradient>
<linearGradient id="paint87_linear_924_5502" x1="177.172" y1="-67.9766" x2="177.172" y2="76.1542" gradientUnits="userSpaceOnUse">
<stop stop-color="#A8C9D1"/>
<stop offset="1" stop-color="white"/>
</linearGradient>
<linearGradient id="paint88_linear_924_5502" x1="226.439" y1="-13.0742" x2="226.439" y2="78.1226" gradientUnits="userSpaceOnUse">
<stop stop-color="#A8C9D1"/>
<stop offset="1" stop-color="white"/>
</linearGradient>
<linearGradient id="paint89_linear_924_5502" x1="102.423" y1="17.4971" x2="102.423" y2="78.1245" gradientUnits="userSpaceOnUse">
<stop stop-color="#A8C9D1"/>
<stop offset="1" stop-color="white"/>
</linearGradient>
<linearGradient id="paint90_linear_924_5502" x1="177.185" y1="-70.5332" x2="177.185" y2="74.8755" gradientUnits="userSpaceOnUse">
<stop stop-color="#A8C9D1"/>
<stop offset="1" stop-color="white"/>
</linearGradient>
<linearGradient id="paint91_linear_924_5502" x1="153.811" y1="-86.582" x2="153.811" y2="12.2571" gradientUnits="userSpaceOnUse">
<stop stop-color="#A8C9D1"/>
<stop offset="1" stop-color="white"/>
</linearGradient>
<linearGradient id="paint92_linear_924_5502" x1="201.659" y1="-83.082" x2="201.659" y2="71.9627" gradientUnits="userSpaceOnUse">
<stop stop-color="#A8C9D1"/>
<stop offset="1" stop-color="white"/>
</linearGradient>
<linearGradient id="paint93_linear_924_5502" x1="102.462" y1="-5.32715" x2="102.462" y2="74.8534" gradientUnits="userSpaceOnUse">
<stop stop-color="#A8C9D1"/>
<stop offset="1" stop-color="white"/>
</linearGradient>
<linearGradient id="paint94_linear_924_5502" x1="100.327" y1="1.80273" x2="100.327" y2="58.9541" gradientUnits="userSpaceOnUse">
<stop stop-color="#A8C9D1"/>
<stop offset="1" stop-color="white"/>
</linearGradient>
<linearGradient id="paint95_linear_924_5502" x1="128.814" y1="-6.6582" x2="128.814" y2="74.8515" gradientUnits="userSpaceOnUse">
<stop stop-color="#A8C9D1"/>
<stop offset="1" stop-color="white"/>
</linearGradient>
<clipPath id="clip0_924_5502">
<rect width="361" height="120" rx="8" fill="white"/>
</clipPath>
</defs>
</svg>
