<svg width="361" height="120" viewBox="0 0 361 120" fill="none" xmlns="http://www.w3.org/2000/svg">
<g clip-path="url(#clip0_924_5280)">
<rect width="361" height="120" rx="8" fill="#F6F7F8"/>
<path d="M240.533 142.103L119.756 72.3738C118.815 71.8299 117.957 71.7985 117.298 72.1751L115.499 73.2211C115.499 73.2211 115.917 73.2839 116.325 73.3362C116.105 73.8487 115.98 74.4764 115.98 75.2191V158.432C115.98 161.204 117.664 164.426 119.745 165.629L240.522 235.358C240.752 235.494 240.972 235.589 241.192 235.662V236.603L243.001 235.557C243.796 235.097 244.309 234.03 244.309 232.513V149.3C244.309 146.528 242.625 143.306 240.543 142.103H240.533Z" fill="url(#paint0_linear_924_5280)" stroke="#64B5C8"/>
<path d="M238.786 236.383L118.009 166.653C115.927 165.45 114.243 162.229 114.243 159.457V76.2435C114.243 73.4715 115.927 72.1953 118.009 73.3983L238.786 143.128C240.867 144.331 242.551 147.553 242.551 150.325V233.538C242.551 236.31 240.867 237.586 238.786 236.383Z" fill="url(#paint1_linear_924_5280)" stroke="#64B5C8"/>
<path d="M124.5 117.61C124.5 116.08 126.148 115.117 127.481 115.867L134.446 119.785C136.021 120.671 136.995 122.337 136.995 124.143V132.637C136.995 134.166 135.348 135.13 134.015 134.38L127.049 130.462C125.475 129.576 124.5 127.91 124.5 126.104V117.61Z" fill="url(#paint2_linear_924_5280)" stroke="#64B5C8"/>
<path d="M384.224 79.6287L263.447 9.89921C262.506 9.35526 261.648 9.32388 260.989 9.70046L259.19 10.7465C259.19 10.7465 259.608 10.8093 260.016 10.8616C259.796 11.3741 259.671 12.0018 259.671 12.7445V95.9575C259.671 98.7296 261.355 101.951 263.437 103.154L384.213 172.884C384.443 173.02 384.663 173.114 384.883 173.187V174.129L386.692 173.083C387.487 172.622 388 171.555 388 170.039V86.8256C388 84.0535 386.316 80.8317 384.234 79.6287H384.224Z" fill="url(#paint3_linear_924_5280)" stroke="#64B5C8"/>
<path d="M382.477 173.909L261.7 104.18C259.619 102.977 257.934 99.755 257.934 96.983V13.7699C257.934 10.9979 259.619 9.72167 261.7 10.9246L382.477 80.6542C384.559 81.8571 386.243 85.0789 386.243 87.851V171.064C386.243 173.836 384.559 175.112 382.477 173.909Z" fill="url(#paint4_linear_924_5280)" stroke="#64B5C8"/>
<path d="M319.453 117.968C319.453 118.99 318.347 119.629 317.462 119.118L297.198 107.418C296.787 107.181 296.534 106.743 296.534 106.268C296.534 105.247 297.64 104.608 298.525 105.119L318.789 116.819C319.2 117.056 319.453 117.494 319.453 117.968Z" fill="url(#paint5_linear_924_5280)" stroke="#64B5C8"/>
<path d="M268.191 55.1355C268.191 53.6059 269.839 52.6424 271.172 53.3924L278.138 57.3106C279.712 58.1961 280.686 59.8621 280.686 61.6684V70.1622C280.686 71.6918 279.039 72.6553 277.706 71.9053L270.74 67.9871C269.166 67.1015 268.191 65.4356 268.191 63.6293V55.1355Z" fill="url(#paint6_linear_924_5280)" stroke="#64B5C8"/>
<path d="M96.8414 109.305L-23.9352 39.575C-24.8767 39.031 -25.7344 38.9997 -26.3935 39.3762L-28.1927 40.4223C-28.1927 40.4223 -27.7742 40.4851 -27.3663 40.5374C-27.5859 41.0499 -27.7115 41.6775 -27.7115 42.4202V125.633C-27.7115 128.405 -26.0273 131.627 -23.9457 132.83L96.8309 202.56C97.0611 202.696 97.2807 202.79 97.5004 202.863V203.804L99.3101 202.758C100.105 202.298 100.618 201.231 100.618 199.714V116.501C100.618 113.729 98.9335 110.507 96.8519 109.305H96.8414Z" fill="url(#paint7_linear_924_5280)" stroke="#64B5C8"/>
<path d="M95.0945 203.584L-25.6822 133.855C-27.7638 132.652 -29.4479 129.43 -29.4479 126.658V43.4447C-29.4479 40.6727 -27.7638 39.3965 -25.6822 40.5994L95.0945 110.329C97.1761 111.532 98.8603 114.754 98.8603 117.526V200.739C98.8603 203.511 97.1761 204.787 95.0945 203.584Z" fill="url(#paint8_linear_924_5280)" stroke="#64B5C8"/>
<path d="M240.533 29.6492L119.756 -40.0803C118.815 -40.6242 117.957 -40.6556 117.298 -40.279L115.499 -39.233C115.499 -39.233 115.917 -39.1702 116.325 -39.1179C116.105 -38.6054 115.98 -37.9777 115.98 -37.235V45.978C115.98 48.7501 117.664 51.9719 119.745 53.1749L240.522 122.904C240.752 123.04 240.972 123.135 241.192 123.208V124.149L243.001 123.103C243.796 122.643 244.309 121.576 244.309 120.059V36.8461C244.309 34.074 242.625 30.8522 240.543 29.6492H240.533Z" fill="url(#paint9_linear_924_5280)" stroke="#64B5C8"/>
<path d="M238.786 123.93L118.009 54.2003C115.927 52.9973 114.243 49.7755 114.243 47.0035V-36.2096C114.243 -38.9816 115.927 -40.2578 118.009 -39.0549L238.786 30.6747C240.867 31.8776 242.551 35.0994 242.551 37.8715V121.085C242.551 123.857 240.867 125.133 238.786 123.93Z" fill="url(#paint10_linear_924_5280)" stroke="#64B5C8"/>
<path d="M175.762 67.989C175.762 69.0106 174.656 69.6491 173.771 69.1383L153.506 57.4383C153.096 57.2012 152.843 56.7631 152.843 56.2889C152.843 55.2673 153.949 54.6288 154.834 55.1396L175.098 66.8396C175.509 67.0767 175.762 67.5148 175.762 67.989Z" fill="url(#paint11_linear_924_5280)" stroke="#64B5C8"/>
<path d="M203.942 84.2656C203.942 85.2872 202.836 85.9256 201.951 85.4144L181.686 73.7049C181.276 73.4678 181.023 73.0299 181.023 72.556C181.023 71.5343 182.129 70.896 183.014 71.4071L203.279 83.1167C203.689 83.3538 203.942 83.7917 203.942 84.2656Z" fill="url(#paint12_linear_924_5280)" stroke="#64B5C8"/>
<path d="M232.133 100.532C232.133 101.554 231.027 102.192 230.142 101.682L209.868 89.9812C209.457 89.7442 209.204 89.3059 209.204 88.8316C209.204 87.81 210.31 87.1714 211.194 87.682L231.469 99.3826C231.88 99.6196 232.133 100.058 232.133 100.532Z" fill="url(#paint13_linear_924_5280)" stroke="#64B5C8"/>
<path d="M124.5 5.15602C124.5 3.62637 126.148 2.66294 127.481 3.41287L134.446 7.33106C136.021 8.21665 136.995 9.88257 136.995 11.6889V20.1827C136.995 21.7123 135.348 22.6758 134.015 21.9258L127.049 18.0076C125.475 17.1221 124.5 15.4561 124.5 13.6498V5.15602Z" fill="url(#paint14_linear_924_5280)" stroke="#64B5C8"/>
<path d="M240.533 -82.0236L119.756 -151.753C118.815 -152.297 117.957 -152.328 117.298 -151.952L115.499 -150.906C115.499 -150.906 115.917 -150.843 116.325 -150.791C116.105 -150.278 115.98 -149.651 115.98 -148.908V-65.6948C115.98 -62.9228 117.664 -59.7009 119.745 -58.498L240.522 11.2315C240.752 11.3675 240.972 11.4617 241.192 11.5349V12.4763L243.001 11.4303C243.796 10.97 244.309 9.90306 244.309 8.38629V-74.8268C244.309 -77.5988 242.625 -80.8207 240.543 -82.0236H240.533Z" fill="url(#paint15_linear_924_5280)" stroke="#64B5C8"/>
<path d="M238.786 12.256L118.009 -57.4736C115.927 -58.6765 114.243 -61.8983 114.243 -64.6704V-147.883C114.243 -150.655 115.927 -151.932 118.009 -150.729L238.786 -80.9992C240.867 -79.7962 242.551 -76.5744 242.551 -73.8024V9.41073C242.551 12.1828 240.867 13.4589 238.786 12.256Z" fill="url(#paint16_linear_924_5280)" stroke="#64B5C8"/>
<path d="M384.224 -32.8254L263.447 -102.555C262.506 -103.099 261.648 -103.13 260.989 -102.754L259.19 -101.708C259.19 -101.708 259.608 -101.645 260.016 -101.593C259.796 -101.08 259.671 -100.452 259.671 -99.7096V-16.4966C259.671 -13.7245 261.355 -10.5027 263.437 -9.29975L384.213 60.4298C384.443 60.5658 384.663 60.6599 384.883 60.7331V61.6746L386.692 60.6285C387.487 60.1683 388 59.1013 388 57.5845V-25.6286C388 -28.4006 386.316 -31.6224 384.234 -32.8254H384.224Z" fill="url(#paint17_linear_924_5280)" stroke="#64B5C8"/>
<path d="M382.477 61.4552L261.7 -8.27433C259.619 -9.47729 257.934 -12.6991 257.934 -15.4711V-98.6842C257.934 -101.456 259.619 -102.732 261.7 -101.529L382.477 -31.7999C384.559 -30.597 386.243 -27.3752 386.243 -24.6031V58.6099C386.243 61.382 384.559 62.6582 382.477 61.4552Z" fill="url(#paint18_linear_924_5280)" stroke="#64B5C8"/>
<path d="M319.453 5.51532C319.453 6.53696 318.347 7.17548 317.462 6.66466L297.198 -5.03536C296.787 -5.27244 296.534 -5.71056 296.534 -6.1847C296.534 -7.20634 297.64 -7.84486 298.525 -7.33403L318.789 4.36599C319.2 4.60306 319.453 5.04119 319.453 5.51532Z" fill="url(#paint19_linear_924_5280)" stroke="#64B5C8"/>
<path d="M347.633 21.7909C347.633 22.8126 346.527 23.451 345.642 22.9398L325.377 11.2303C324.967 10.9932 324.714 10.5553 324.714 10.0814C324.714 9.05974 325.82 8.42137 326.705 8.9325L346.97 20.6421C347.38 20.8792 347.633 21.3171 347.633 21.7909Z" fill="url(#paint20_linear_924_5280)" stroke="#64B5C8"/>
<path d="M375.824 38.0576C375.824 39.0792 374.718 39.7178 373.834 39.2072L353.559 27.5066C353.148 27.2696 352.895 26.8313 352.895 26.357C352.895 25.3354 354.001 24.6968 354.886 25.2074L375.16 36.908C375.571 37.145 375.824 37.5833 375.824 38.0576Z" fill="url(#paint21_linear_924_5280)" stroke="#64B5C8"/>
<path d="M96.8414 -3.14958L-23.9352 -72.8791C-24.8767 -73.4231 -25.7344 -73.4544 -26.3935 -73.0779L-28.1927 -72.0318C-28.1927 -72.0318 -27.7742 -71.9691 -27.3663 -71.9167C-27.5859 -71.4042 -27.7115 -70.7766 -27.7115 -70.0339V13.1792C-27.7115 15.9512 -26.0273 19.1731 -23.9457 20.376L96.8309 90.1056C97.0611 90.2416 97.2807 90.3357 97.5004 90.4089V91.3504L99.3101 90.3043C100.105 89.844 100.618 88.7771 100.618 87.2603V4.04723C100.618 1.2752 98.9335 -1.94663 96.8519 -3.14958H96.8414Z" fill="url(#paint22_linear_924_5280)" stroke="#64B5C8"/>
<path d="M95.0945 91.13L-25.6822 21.4005C-27.7638 20.1975 -29.4479 16.9757 -29.4479 14.2037V-69.0094C-29.4479 -71.7814 -27.7638 -73.0576 -25.6822 -71.8547L95.0945 -2.12514C97.1761 -0.922183 98.8603 2.29964 98.8603 5.07167V88.2848C98.8603 91.0568 97.1761 92.333 95.0945 91.13Z" fill="url(#paint23_linear_924_5280)" stroke="#64B5C8"/>
<path d="M32.0706 35.1901C32.0706 36.2118 30.9646 36.8503 30.0799 36.3395L9.81524 24.6394C9.40463 24.4024 9.15168 23.9642 9.15168 23.4901C9.15168 22.4685 10.2576 21.8299 11.1424 22.3408L31.407 34.0408C31.8176 34.2779 32.0706 34.716 32.0706 35.1901Z" fill="url(#paint24_linear_924_5280)" stroke="#64B5C8"/>
<path d="M60.2508 51.4667C60.2508 52.4884 59.1447 53.1267 58.2601 52.6156L37.9949 40.906C37.5846 40.6689 37.3319 40.231 37.3319 39.7572C37.3319 38.7355 38.438 38.0972 39.3226 38.6083L59.5878 50.3179C59.9981 50.5549 60.2508 50.9928 60.2508 51.4667Z" fill="url(#paint25_linear_924_5280)" stroke="#64B5C8"/>
<path d="M88.4419 67.7334C88.4419 68.755 87.336 69.3936 86.4511 68.883L66.1764 57.1824C65.7656 56.9453 65.5125 56.5071 65.5125 56.0328C65.5125 55.0112 66.6184 54.3726 67.5032 54.8832L87.778 66.5838C88.1888 66.8208 88.4419 67.2591 88.4419 67.7334Z" fill="url(#paint26_linear_924_5280)" stroke="#64B5C8"/>
</g>
<defs>
<linearGradient id="paint0_linear_924_5280" x1="179.904" y1="71.9238" x2="179.904" y2="236.603" gradientUnits="userSpaceOnUse">
<stop stop-color="#A8C9D1"/>
<stop offset="1" stop-color="white"/>
</linearGradient>
<linearGradient id="paint1_linear_924_5280" x1="178.397" y1="72.9453" x2="178.397" y2="236.836" gradientUnits="userSpaceOnUse">
<stop stop-color="#A8C9D1"/>
<stop offset="1" stop-color="white"/>
</linearGradient>
<linearGradient id="paint2_linear_924_5280" x1="130.748" y1="114.19" x2="130.748" y2="136.056" gradientUnits="userSpaceOnUse">
<stop stop-color="#A8C9D1"/>
<stop offset="1" stop-color="white"/>
</linearGradient>
<linearGradient id="paint3_linear_924_5280" x1="323.595" y1="9.44922" x2="323.595" y2="174.129" gradientUnits="userSpaceOnUse">
<stop stop-color="#A8C9D1"/>
<stop offset="1" stop-color="white"/>
</linearGradient>
<linearGradient id="paint4_linear_924_5280" x1="322.089" y1="10.4717" x2="322.089" y2="174.362" gradientUnits="userSpaceOnUse">
<stop stop-color="#A8C9D1"/>
<stop offset="1" stop-color="white"/>
</linearGradient>
<linearGradient id="paint5_linear_924_5280" x1="307.994" y1="103.97" x2="307.994" y2="120.267" gradientUnits="userSpaceOnUse">
<stop stop-color="#A8C9D1"/>
<stop offset="1" stop-color="white"/>
</linearGradient>
<linearGradient id="paint6_linear_924_5280" x1="274.439" y1="51.7158" x2="274.439" y2="73.5819" gradientUnits="userSpaceOnUse">
<stop stop-color="#A8C9D1"/>
<stop offset="1" stop-color="white"/>
</linearGradient>
<linearGradient id="paint7_linear_924_5280" x1="36.2125" y1="39.125" x2="36.2125" y2="203.804" gradientUnits="userSpaceOnUse">
<stop stop-color="#A8C9D1"/>
<stop offset="1" stop-color="white"/>
</linearGradient>
<linearGradient id="paint8_linear_924_5280" x1="34.7062" y1="40.1465" x2="34.7062" y2="204.037" gradientUnits="userSpaceOnUse">
<stop stop-color="#A8C9D1"/>
<stop offset="1" stop-color="white"/>
</linearGradient>
<linearGradient id="paint9_linear_924_5280" x1="179.904" y1="-40.5303" x2="179.904" y2="124.149" gradientUnits="userSpaceOnUse">
<stop stop-color="#A8C9D1"/>
<stop offset="1" stop-color="white"/>
</linearGradient>
<linearGradient id="paint10_linear_924_5280" x1="178.397" y1="-39.5078" x2="178.397" y2="124.383" gradientUnits="userSpaceOnUse">
<stop stop-color="#A8C9D1"/>
<stop offset="1" stop-color="white"/>
</linearGradient>
<linearGradient id="paint11_linear_924_5280" x1="164.302" y1="53.9902" x2="164.302" y2="70.2877" gradientUnits="userSpaceOnUse">
<stop stop-color="#A8C9D1"/>
<stop offset="1" stop-color="white"/>
</linearGradient>
<linearGradient id="paint12_linear_924_5280" x1="192.483" y1="70.2568" x2="192.483" y2="86.5647" gradientUnits="userSpaceOnUse">
<stop stop-color="#A8C9D1"/>
<stop offset="1" stop-color="white"/>
</linearGradient>
<linearGradient id="paint13_linear_924_5280" x1="220.668" y1="86.5332" x2="220.668" y2="102.831" gradientUnits="userSpaceOnUse">
<stop stop-color="#A8C9D1"/>
<stop offset="1" stop-color="white"/>
</linearGradient>
<linearGradient id="paint14_linear_924_5280" x1="130.748" y1="1.73633" x2="130.748" y2="23.6024" gradientUnits="userSpaceOnUse">
<stop stop-color="#A8C9D1"/>
<stop offset="1" stop-color="white"/>
</linearGradient>
<linearGradient id="paint15_linear_924_5280" x1="179.904" y1="-152.203" x2="179.904" y2="12.4763" gradientUnits="userSpaceOnUse">
<stop stop-color="#A8C9D1"/>
<stop offset="1" stop-color="white"/>
</linearGradient>
<linearGradient id="paint16_linear_924_5280" x1="178.397" y1="-151.182" x2="178.397" y2="12.7089" gradientUnits="userSpaceOnUse">
<stop stop-color="#A8C9D1"/>
<stop offset="1" stop-color="white"/>
</linearGradient>
<linearGradient id="paint17_linear_924_5280" x1="323.595" y1="-103.005" x2="323.595" y2="61.6746" gradientUnits="userSpaceOnUse">
<stop stop-color="#A8C9D1"/>
<stop offset="1" stop-color="white"/>
</linearGradient>
<linearGradient id="paint18_linear_924_5280" x1="322.089" y1="-101.982" x2="322.089" y2="61.9082" gradientUnits="userSpaceOnUse">
<stop stop-color="#A8C9D1"/>
<stop offset="1" stop-color="white"/>
</linearGradient>
<linearGradient id="paint19_linear_924_5280" x1="307.994" y1="-8.4834" x2="307.994" y2="7.81402" gradientUnits="userSpaceOnUse">
<stop stop-color="#A8C9D1"/>
<stop offset="1" stop-color="white"/>
</linearGradient>
<linearGradient id="paint20_linear_924_5280" x1="336.174" y1="7.78223" x2="336.174" y2="24.0901" gradientUnits="userSpaceOnUse">
<stop stop-color="#A8C9D1"/>
<stop offset="1" stop-color="white"/>
</linearGradient>
<linearGradient id="paint21_linear_924_5280" x1="364.36" y1="24.0586" x2="364.36" y2="40.356" gradientUnits="userSpaceOnUse">
<stop stop-color="#A8C9D1"/>
<stop offset="1" stop-color="white"/>
</linearGradient>
<linearGradient id="paint22_linear_924_5280" x1="36.2125" y1="-73.3291" x2="36.2125" y2="91.3503" gradientUnits="userSpaceOnUse">
<stop stop-color="#A8C9D1"/>
<stop offset="1" stop-color="white"/>
</linearGradient>
<linearGradient id="paint23_linear_924_5280" x1="34.7062" y1="-72.3076" x2="34.7062" y2="91.583" gradientUnits="userSpaceOnUse">
<stop stop-color="#A8C9D1"/>
<stop offset="1" stop-color="white"/>
</linearGradient>
<linearGradient id="paint24_linear_924_5280" x1="20.6111" y1="21.1914" x2="20.6111" y2="37.4888" gradientUnits="userSpaceOnUse">
<stop stop-color="#A8C9D1"/>
<stop offset="1" stop-color="white"/>
</linearGradient>
<linearGradient id="paint25_linear_924_5280" x1="48.7914" y1="37.458" x2="48.7914" y2="53.7659" gradientUnits="userSpaceOnUse">
<stop stop-color="#A8C9D1"/>
<stop offset="1" stop-color="white"/>
</linearGradient>
<linearGradient id="paint26_linear_924_5280" x1="76.9772" y1="53.7344" x2="76.9772" y2="70.0318" gradientUnits="userSpaceOnUse">
<stop stop-color="#A8C9D1"/>
<stop offset="1" stop-color="white"/>
</linearGradient>
<clipPath id="clip0_924_5280">
<rect width="361" height="120" rx="8" fill="white"/>
</clipPath>
</defs>
</svg>
