<svg width="566" height="187" viewBox="0 0 566 187" fill="none" xmlns="http://www.w3.org/2000/svg">
<g clip-path="url(#clip0_932_24954)">
<rect width="566" height="187" rx="8" fill="#F6F7F8"/>
<path d="M122.246 74.2051L171.151 111.598" stroke="#64B5C8" stroke-linejoin="round"/>
<path d="M210.035 84.2266L248.906 111.598" stroke="#64B5C8" stroke-linejoin="round"/>
<path d="M210.034 84.2266L171.15 111.598" stroke="#64B5C8" stroke-linejoin="round"/>
<path d="M192.535 25.2998L414.173 184.228" stroke="#64B5C8" stroke-linejoin="round"/>
<path d="M169.648 47.1718L132.08 20.8152V-64.6182L169.648 -38.2741V47.1718Z" fill="url(#paint0_linear_932_24954)" stroke="#64B5C8" stroke-linejoin="round"/>
<path d="M169.648 47.1718L207.217 20.8152V-64.6182L169.648 -38.2741V47.1718Z" fill="url(#paint1_linear_932_24954)" stroke="#64B5C8" stroke-linejoin="round"/>
<g style="mix-blend-mode:multiply">
<path d="M172.756 -0.154658L207.217 -24.3315V-28.29L172.756 -4.11315V-0.154658Z" fill="url(#paint2_linear_932_24954)" stroke="#64B5C8" stroke-linejoin="round"/>
<path d="M172.756 10.0172L207.217 -14.1597V-18.1182L172.756 6.05873V10.0172Z" fill="url(#paint3_linear_932_24954)" stroke="#64B5C8" stroke-linejoin="round"/>
<path d="M172.756 20.1891L207.217 -3.9878V-7.94629L172.756 16.2306V20.1891Z" fill="url(#paint4_linear_932_24954)" stroke="#64B5C8" stroke-linejoin="round"/>
</g>
<path d="M116.271 84.2248L149.53 60.8872V36.084L116.271 59.4216V84.2248Z" fill="url(#paint5_linear_932_24954)" stroke="#64B5C8" stroke-linejoin="round"/>
<path d="M116.271 84.2248L83 60.8872V36.084L116.271 59.4216V84.2248Z" fill="url(#paint6_linear_932_24954)" stroke="#64B5C8" stroke-linejoin="round"/>
<path d="M116.271 12.7217L149.53 36.0968L116.271 59.4344L83 36.0968L116.271 12.7217Z" fill="url(#paint7_linear_932_24954)" stroke="#64B5C8" stroke-linejoin="round"/>
<g opacity="0.8" style="mix-blend-mode:multiply">
<path d="M116.272 15.9912L144.87 36.0969L116.272 56.1649L87.6602 36.0969L116.272 15.9912Z" fill="url(#paint8_linear_932_24954)"/>
<path d="M116.272 15.9912L144.87 36.0969L116.272 56.1649L87.6602 36.0969L116.272 15.9912Z" stroke="#64B5C8" stroke-linejoin="round"/>
</g>
<path d="M117.598 42.7863L150.869 19.4487V15.415L117.598 38.7401V42.7863Z" fill="url(#paint9_linear_932_24954)" stroke="#64B5C8" stroke-linejoin="round"/>
<path d="M117.599 42.7863L84.3398 19.4487V15.415L117.599 38.7401V42.7863Z" fill="url(#paint10_linear_932_24954)" stroke="#64B5C8" stroke-linejoin="round"/>
<path d="M117.599 -7.94727L150.87 15.4279L117.599 38.7655L84.3398 15.4279L117.599 -7.94727Z" fill="url(#paint11_linear_932_24954)" stroke="#64B5C8" stroke-linejoin="round"/>
<g opacity="0.8" style="mix-blend-mode:multiply">
<path d="M117.599 -4.67773L146.21 15.4279L117.599 35.496L89 15.4279L117.599 -4.67773Z" fill="url(#paint12_linear_932_24954)"/>
<path d="M117.599 -4.67773L146.21 15.4279L117.599 35.496L89 15.4279L117.599 -4.67773Z" stroke="#64B5C8" stroke-linejoin="round"/>
</g>
<path d="M444.701 240.136L407.133 213.78V128.334L444.701 154.691V240.136Z" fill="url(#paint13_linear_932_24954)" stroke="#64B5C8" stroke-linejoin="round"/>
<path d="M444.701 240.136L482.269 213.78V128.334L444.701 154.691V240.136Z" fill="url(#paint14_linear_932_24954)" stroke="#64B5C8" stroke-linejoin="round"/>
<path d="M444.701 101.965L407.133 128.359L444.701 154.716L482.269 128.359L444.701 101.965Z" fill="url(#paint15_linear_932_24954)" stroke="#64B5C8" stroke-linejoin="round"/>
<g style="mix-blend-mode:multiply">
<path d="M447.809 162.295L482.27 138.118V134.159L447.809 158.336V162.295Z" fill="url(#paint16_linear_932_24954)" stroke="#64B5C8" stroke-linejoin="round"/>
<path d="M447.809 172.466L482.27 148.29V144.331L447.809 168.508V172.466Z" fill="url(#paint17_linear_932_24954)" stroke="#64B5C8" stroke-linejoin="round"/>
<path d="M447.809 182.638L482.27 158.461V154.503L447.809 178.68V182.638Z" fill="url(#paint18_linear_932_24954)" stroke="#64B5C8" stroke-linejoin="round"/>
<path d="M447.809 192.81L482.27 168.633V164.675L447.809 188.852V192.81Z" fill="url(#paint19_linear_932_24954)" stroke="#64B5C8" stroke-linejoin="round"/>
<path d="M447.809 202.982L482.27 178.805V174.847L447.809 199.024V202.982Z" fill="url(#paint20_linear_932_24954)" stroke="#64B5C8" stroke-linejoin="round"/>
<path d="M447.809 213.154L482.27 188.977V185.019L447.809 209.195V213.154Z" fill="url(#paint21_linear_932_24954)" stroke="#64B5C8" stroke-linejoin="round"/>
</g>
<path d="M444.701 147.839L419.184 129.938V126.831L444.701 144.732V147.839Z" fill="url(#paint22_linear_932_24954)" stroke="#64B5C8" stroke-linejoin="round"/>
<path d="M444.701 147.839L470.231 129.938V126.831L444.701 144.732V147.839Z" fill="url(#paint23_linear_932_24954)" stroke="#64B5C8" stroke-linejoin="round"/>
<path d="M444.701 108.905L419.184 126.844L444.701 144.745L470.231 126.844L444.701 108.905Z" fill="url(#paint24_linear_932_24954)" stroke="#64B5C8" stroke-linejoin="round"/>
<g style="mix-blend-mode:multiply">
<path d="M445.754 117.686L430.734 128.233L432.3 129.348L447.32 118.813L445.754 117.686Z" fill="url(#paint25_linear_932_24954)" stroke="#64B5C8" stroke-linejoin="round"/>
<path d="M448.598 119.715L433.578 130.262L435.144 131.365L450.151 120.83L448.598 119.715Z" fill="url(#paint26_linear_932_24954)" stroke="#64B5C8" stroke-linejoin="round"/>
<path d="M451.43 121.731L436.41 132.292L437.976 133.394L452.996 122.859L451.43 121.731Z" fill="url(#paint27_linear_932_24954)" stroke="#64B5C8" stroke-linejoin="round"/>
<path d="M454.272 123.761L439.252 134.308L440.818 135.411L455.825 124.876L454.272 123.761Z" fill="url(#paint28_linear_932_24954)" stroke="#64B5C8" stroke-linejoin="round"/>
<path d="M457.104 125.791L442.084 136.339L443.65 137.441L458.67 126.906L457.104 125.791Z" fill="url(#paint29_linear_932_24954)" stroke="#64B5C8" stroke-linejoin="round"/>
</g>
<path d="M392.652 185.018L425.924 208.393L392.652 231.73L359.381 208.393L392.652 185.018Z" fill="url(#paint30_linear_932_24954)" stroke="#64B5C8" stroke-linejoin="round"/>
<path d="M367.497 25.2998L145.346 184.329" stroke="#64B5C8" stroke-linejoin="round"/>
<path d="M254.518 144.33L211.789 174.507" stroke="#64B5C8" stroke-linejoin="round"/>
<path d="M211.789 174.507L246.263 199.085L207.217 226.506" stroke="#64B5C8" stroke-linejoin="round"/>
<path d="M306.393 144.33L349.122 174.507" stroke="#64B5C8" stroke-linejoin="round"/>
<path d="M349.122 174.507L314.66 199.085L363.715 236.527" stroke="#64B5C8" stroke-linejoin="round"/>
<path d="M432.385 70.585L383.48 107.965" stroke="#64B5C8" stroke-linejoin="round"/>
<path d="M344.598 80.6064L305.715 107.965" stroke="#64B5C8" stroke-linejoin="round"/>
<path d="M344.598 80.6064L383.481 107.965" stroke="#64B5C8" stroke-linejoin="round"/>
<path d="M326.924 116.584C327.062 126.217 315.062 132.932 314.723 133.119C308.673 136.376 283.268 150.344 251.613 133.069C242.117 127.883 238.547 122.046 238.359 116.584V130.852C238.359 130.852 238.359 130.927 238.359 130.977V131.641C238.585 137.053 242.168 142.853 251.6 148.001C283.256 165.263 308.66 151.309 314.711 148.052C315.036 147.876 326.962 141.199 326.912 131.629V116.597L326.924 116.584Z" fill="url(#paint31_linear_932_24954)" stroke="#64B5C8" stroke-linejoin="round"/>
<path d="M325.609 101.877C325.747 110.433 314.097 116.408 313.771 116.571C307.896 119.465 283.243 131.866 252.527 116.533C243.307 111.924 239.837 106.737 239.662 101.877V114.554C239.662 114.554 239.662 114.629 239.662 114.667V115.256C239.875 120.066 243.358 125.227 252.515 129.799C283.231 145.145 307.896 132.743 313.759 129.837C314.072 129.674 325.647 123.749 325.597 115.243V101.877H325.609Z" fill="url(#paint32_linear_932_24954)" stroke="#64B5C8" stroke-linejoin="round"/>
<path d="M326.924 113.916C326.924 111.272 325.609 108.379 325.609 108.379V115.243C325.659 123.737 314.097 129.674 313.771 129.825C307.909 132.718 283.243 145.133 252.527 129.787C243.37 125.215 239.888 120.054 239.675 115.231V114.655C239.675 114.617 239.675 114.58 239.675 114.542V108.366C239.675 108.366 238.359 110.158 238.359 113.415V116.571C238.547 122.033 242.117 127.871 251.613 133.057C283.268 150.319 308.673 136.364 314.723 133.107C315.049 132.931 327.062 126.205 326.924 116.571V115.882C326.924 115.882 326.924 114.404 326.924 113.916Z" fill="url(#paint33_linear_932_24954)" stroke="#64B5C8" stroke-linejoin="round"/>
<path d="M326.924 88.1729C327.062 97.806 315.062 104.52 314.723 104.708C308.673 107.965 283.268 121.92 251.613 104.658C242.117 99.4846 238.547 93.6346 238.359 88.1729V102.441C238.359 102.441 238.359 102.516 238.359 102.566V103.23C238.585 108.642 242.168 114.442 251.6 119.59C283.256 136.852 308.66 122.897 314.711 119.64C315.036 119.465 326.962 112.788 326.912 103.218V88.1854L326.924 88.1729Z" fill="url(#paint34_linear_932_24954)" stroke="#64B5C8" stroke-linejoin="round"/>
<path d="M325.609 73.4658C325.747 82.0217 314.097 87.997 313.771 88.1599C307.896 91.0536 283.243 103.455 252.527 88.1223C243.307 83.5124 239.837 78.3263 239.662 73.4658V86.143C239.662 86.143 239.662 86.2182 239.662 86.2558V86.8445C239.875 91.6549 243.358 96.8159 252.515 101.388C283.231 116.734 307.896 104.332 313.759 101.426C314.072 101.263 325.647 95.3378 325.597 86.832V73.4658H325.609Z" fill="url(#paint35_linear_932_24954)" stroke="#64B5C8" stroke-linejoin="round"/>
<path d="M326.924 85.5037C326.924 82.8605 325.609 79.9668 325.609 79.9668V86.8441C325.659 95.3373 314.097 101.275 313.771 101.425C307.909 104.319 283.243 116.733 252.527 101.388C243.37 96.8155 239.888 91.6544 239.675 86.8315V86.2553C239.675 86.2177 239.675 86.1801 239.675 86.1426V79.9668C239.675 79.9668 238.359 81.7581 238.359 85.0151V88.1594C238.547 93.6211 242.117 99.4586 251.613 104.645C283.268 121.907 308.673 107.952 314.723 104.695C315.049 104.52 327.062 97.7926 326.924 88.1594V87.4704C326.924 87.4704 326.924 85.9922 326.924 85.5037Z" fill="url(#paint36_linear_932_24954)" stroke="#64B5C8" stroke-linejoin="round"/>
<path d="M326.924 59.3857C327.062 69.0189 315.062 75.7459 314.723 75.9212C308.673 79.1782 283.268 93.1332 251.613 75.8711C242.117 70.685 238.547 64.8475 238.359 59.3857V73.6539C238.359 73.6539 238.359 73.729 238.359 73.7791V74.4431C238.585 79.8547 242.168 85.6546 251.6 90.8032C283.256 108.065 308.66 94.1103 314.711 90.8533C315.036 90.6779 326.962 84.0011 326.912 74.4305V59.3983L326.924 59.3857Z" fill="url(#paint37_linear_932_24954)" stroke="#64B5C8" stroke-linejoin="round"/>
<path d="M251.324 41.0714C240.777 46.3577 228.212 63.1187 251.6 75.8711C283.255 93.1331 308.66 79.1782 314.71 75.9212C315.224 75.6456 344.625 59.1853 310.263 40.6956C287.677 28.532 266.319 33.5553 251.324 41.0714Z" fill="url(#paint38_linear_932_24954)" stroke="#64B5C8" stroke-linejoin="round"/>
<path d="M120.568 240.136L158.136 213.78V128.334L120.568 154.691V240.136Z" fill="url(#paint39_linear_932_24954)" stroke="#64B5C8" stroke-linejoin="round"/>
<path d="M120.568 240.136L83 213.78V128.334L120.568 154.691V240.136Z" fill="url(#paint40_linear_932_24954)" stroke="#64B5C8" stroke-linejoin="round"/>
<path d="M120.568 101.965L158.136 128.359L120.568 154.716L83 128.359L120.568 101.965Z" fill="url(#paint41_linear_932_24954)" stroke="#64B5C8" stroke-linejoin="round"/>
<g style="mix-blend-mode:multiply">
<path d="M117.461 162.295L83 138.118V134.159L117.461 158.336V162.295Z" fill="url(#paint42_linear_932_24954)" stroke="#64B5C8" stroke-linejoin="round"/>
<path d="M117.461 172.466L83 148.29V144.331L117.461 168.508V172.466Z" fill="url(#paint43_linear_932_24954)" stroke="#64B5C8" stroke-linejoin="round"/>
<path d="M117.461 182.638L83 158.461V154.503L117.461 178.68V182.638Z" fill="url(#paint44_linear_932_24954)" stroke="#64B5C8" stroke-linejoin="round"/>
<path d="M117.461 192.81L83 168.633V164.675L117.461 188.852V192.81Z" fill="url(#paint45_linear_932_24954)" stroke="#64B5C8" stroke-linejoin="round"/>
<path d="M117.461 202.982L83 178.805V174.847L117.461 199.024V202.982Z" fill="url(#paint46_linear_932_24954)" stroke="#64B5C8" stroke-linejoin="round"/>
<path d="M117.461 213.154L83 188.977V185.019L117.461 209.195V213.154Z" fill="url(#paint47_linear_932_24954)" stroke="#64B5C8" stroke-linejoin="round"/>
</g>
<path d="M120.568 147.839L146.086 129.938V126.831L120.568 144.732V147.839Z" fill="url(#paint48_linear_932_24954)" stroke="#64B5C8" stroke-linejoin="round"/>
<path d="M120.569 147.839L95.0391 129.938V126.831L120.569 144.732V147.839Z" fill="url(#paint49_linear_932_24954)" stroke="#64B5C8" stroke-linejoin="round"/>
<path d="M120.569 108.905L146.086 126.844L120.569 144.745L95.0391 126.844L120.569 108.905Z" fill="url(#paint50_linear_932_24954)" stroke="#64B5C8" stroke-linejoin="round"/>
<g style="mix-blend-mode:multiply">
<path d="M119.517 117.686L134.537 128.233L132.971 129.348L117.951 118.813L119.517 117.686Z" fill="url(#paint51_linear_932_24954)" stroke="#64B5C8" stroke-linejoin="round"/>
<path d="M116.687 119.715L131.694 130.262L130.128 131.365L115.121 120.83L116.687 119.715Z" fill="url(#paint52_linear_932_24954)" stroke="#64B5C8" stroke-linejoin="round"/>
<path d="M113.843 121.731L128.863 132.292L127.297 133.394L112.277 122.859L113.843 121.731Z" fill="url(#paint53_linear_932_24954)" stroke="#64B5C8" stroke-linejoin="round"/>
<path d="M110.999 123.761L126.018 134.308L124.453 135.411L109.445 124.876L110.999 123.761Z" fill="url(#paint54_linear_932_24954)" stroke="#64B5C8" stroke-linejoin="round"/>
<path d="M108.167 125.791L123.187 136.339L121.621 137.441L106.602 126.906L108.167 125.791Z" fill="url(#paint55_linear_932_24954)" stroke="#64B5C8" stroke-linejoin="round"/>
</g>
<path d="M172.617 185.018L139.346 208.393L172.617 231.73L205.889 208.393L172.617 185.018Z" fill="url(#paint56_linear_932_24954)" stroke="#64B5C8" stroke-linejoin="round"/>
<path d="M395.621 47.1718L433.189 20.8152V-64.6182L395.621 -38.2741V47.1718Z" fill="url(#paint57_linear_932_24954)" stroke="#64B5C8" stroke-linejoin="round"/>
<path d="M395.621 47.1718L358.053 20.8152V-64.6182L395.621 -38.2741V47.1718Z" fill="url(#paint58_linear_932_24954)" stroke="#64B5C8" stroke-linejoin="round"/>
<g style="mix-blend-mode:multiply">
<path d="M392.514 -0.154658L358.053 -24.3315V-28.29L392.514 -4.11315V-0.154658Z" fill="url(#paint59_linear_932_24954)" stroke="#64B5C8" stroke-linejoin="round"/>
<path d="M392.514 10.0172L358.053 -14.1597V-18.1182L392.514 6.05873V10.0172Z" fill="url(#paint60_linear_932_24954)" stroke="#64B5C8" stroke-linejoin="round"/>
<path d="M392.514 20.1891L358.053 -3.9878V-7.94629L392.514 16.2306V20.1891Z" fill="url(#paint61_linear_932_24954)" stroke="#64B5C8" stroke-linejoin="round"/>
</g>
<path d="M449.01 84.2248L415.738 60.8872V36.084L449.01 59.4216V84.2248Z" fill="url(#paint62_linear_932_24954)" stroke="#64B5C8" stroke-linejoin="round"/>
<path d="M449.01 84.2248L482.269 60.8872V36.084L449.01 59.4216V84.2248Z" fill="url(#paint63_linear_932_24954)" stroke="#64B5C8" stroke-linejoin="round"/>
<path d="M449.01 12.7217L415.738 36.0968L449.01 59.4344L482.269 36.0968L449.01 12.7217Z" fill="url(#paint64_linear_932_24954)" stroke="#64B5C8" stroke-linejoin="round"/>
<g opacity="0.8" style="mix-blend-mode:multiply">
<path d="M449.01 15.9912L420.398 36.0969L449.01 56.1649L477.609 36.0969L449.01 15.9912Z" fill="url(#paint65_linear_932_24954)"/>
<path d="M449.01 15.9912L420.398 36.0969L449.01 56.1649L477.609 36.0969L449.01 15.9912Z" stroke="#64B5C8" stroke-linejoin="round"/>
</g>
<path d="M447.67 42.7863L414.398 19.4487V15.415L447.67 38.7401V42.7863Z" fill="url(#paint66_linear_932_24954)" stroke="#64B5C8" stroke-linejoin="round"/>
<path d="M447.67 42.7863L480.941 19.4487V15.415L447.67 38.7401V42.7863Z" fill="url(#paint67_linear_932_24954)" stroke="#64B5C8" stroke-linejoin="round"/>
<path d="M447.67 -7.94727L414.398 15.4279L447.67 38.7655L480.941 15.4279L447.67 -7.94727Z" fill="url(#paint68_linear_932_24954)" stroke="#64B5C8" stroke-linejoin="round"/>
<g opacity="0.8" style="mix-blend-mode:multiply">
<path d="M447.67 -4.67773L419.059 15.4279L447.67 35.496L476.269 15.4279L447.67 -4.67773Z" fill="url(#paint69_linear_932_24954)"/>
<path d="M447.67 -4.67773L419.059 15.4279L447.67 35.496L476.269 15.4279L447.67 -4.67773Z" stroke="#64B5C8" stroke-linejoin="round"/>
</g>
</g>
<defs>
<linearGradient id="paint0_linear_932_24954" x1="150.864" y1="-64.6182" x2="150.864" y2="47.1718" gradientUnits="userSpaceOnUse">
<stop stop-color="#A8C9D1"/>
<stop offset="1" stop-color="white"/>
</linearGradient>
<linearGradient id="paint1_linear_932_24954" x1="188.433" y1="-64.6182" x2="188.433" y2="47.1718" gradientUnits="userSpaceOnUse">
<stop stop-color="#A8C9D1"/>
<stop offset="1" stop-color="white"/>
</linearGradient>
<linearGradient id="paint2_linear_932_24954" x1="189.987" y1="-28.29" x2="189.987" y2="-0.154659" gradientUnits="userSpaceOnUse">
<stop stop-color="#A8C9D1"/>
<stop offset="1" stop-color="white"/>
</linearGradient>
<linearGradient id="paint3_linear_932_24954" x1="189.987" y1="-18.1182" x2="189.987" y2="10.0172" gradientUnits="userSpaceOnUse">
<stop stop-color="#A8C9D1"/>
<stop offset="1" stop-color="white"/>
</linearGradient>
<linearGradient id="paint4_linear_932_24954" x1="189.987" y1="-7.94629" x2="189.987" y2="20.1891" gradientUnits="userSpaceOnUse">
<stop stop-color="#A8C9D1"/>
<stop offset="1" stop-color="white"/>
</linearGradient>
<linearGradient id="paint5_linear_932_24954" x1="132.901" y1="36.084" x2="132.901" y2="84.2248" gradientUnits="userSpaceOnUse">
<stop stop-color="#A8C9D1"/>
<stop offset="1" stop-color="white"/>
</linearGradient>
<linearGradient id="paint6_linear_932_24954" x1="99.6357" y1="36.084" x2="99.6357" y2="84.2248" gradientUnits="userSpaceOnUse">
<stop stop-color="#A8C9D1"/>
<stop offset="1" stop-color="white"/>
</linearGradient>
<linearGradient id="paint7_linear_932_24954" x1="116.265" y1="12.7217" x2="116.265" y2="59.4344" gradientUnits="userSpaceOnUse">
<stop stop-color="#A8C9D1"/>
<stop offset="1" stop-color="white"/>
</linearGradient>
<linearGradient id="paint8_linear_932_24954" x1="116.265" y1="15.9912" x2="116.265" y2="56.1649" gradientUnits="userSpaceOnUse">
<stop stop-color="#A8C9D1"/>
<stop offset="1" stop-color="white"/>
</linearGradient>
<linearGradient id="paint9_linear_932_24954" x1="134.233" y1="15.415" x2="134.233" y2="42.7863" gradientUnits="userSpaceOnUse">
<stop stop-color="#A8C9D1"/>
<stop offset="1" stop-color="white"/>
</linearGradient>
<linearGradient id="paint10_linear_932_24954" x1="100.969" y1="15.415" x2="100.969" y2="42.7863" gradientUnits="userSpaceOnUse">
<stop stop-color="#A8C9D1"/>
<stop offset="1" stop-color="white"/>
</linearGradient>
<linearGradient id="paint11_linear_932_24954" x1="117.605" y1="-7.94727" x2="117.605" y2="38.7655" gradientUnits="userSpaceOnUse">
<stop stop-color="#A8C9D1"/>
<stop offset="1" stop-color="white"/>
</linearGradient>
<linearGradient id="paint12_linear_932_24954" x1="117.605" y1="-4.67773" x2="117.605" y2="35.496" gradientUnits="userSpaceOnUse">
<stop stop-color="#A8C9D1"/>
<stop offset="1" stop-color="white"/>
</linearGradient>
<linearGradient id="paint13_linear_932_24954" x1="425.917" y1="128.334" x2="425.917" y2="240.136" gradientUnits="userSpaceOnUse">
<stop stop-color="#A8C9D1"/>
<stop offset="1" stop-color="white"/>
</linearGradient>
<linearGradient id="paint14_linear_932_24954" x1="463.485" y1="128.334" x2="463.485" y2="240.136" gradientUnits="userSpaceOnUse">
<stop stop-color="#A8C9D1"/>
<stop offset="1" stop-color="white"/>
</linearGradient>
<linearGradient id="paint15_linear_932_24954" x1="444.701" y1="101.965" x2="444.701" y2="154.716" gradientUnits="userSpaceOnUse">
<stop stop-color="#A8C9D1"/>
<stop offset="1" stop-color="white"/>
</linearGradient>
<linearGradient id="paint16_linear_932_24954" x1="465.039" y1="134.159" x2="465.039" y2="162.295" gradientUnits="userSpaceOnUse">
<stop stop-color="#A8C9D1"/>
<stop offset="1" stop-color="white"/>
</linearGradient>
<linearGradient id="paint17_linear_932_24954" x1="465.039" y1="144.331" x2="465.039" y2="172.466" gradientUnits="userSpaceOnUse">
<stop stop-color="#A8C9D1"/>
<stop offset="1" stop-color="white"/>
</linearGradient>
<linearGradient id="paint18_linear_932_24954" x1="465.039" y1="154.503" x2="465.039" y2="182.638" gradientUnits="userSpaceOnUse">
<stop stop-color="#A8C9D1"/>
<stop offset="1" stop-color="white"/>
</linearGradient>
<linearGradient id="paint19_linear_932_24954" x1="465.039" y1="164.675" x2="465.039" y2="192.81" gradientUnits="userSpaceOnUse">
<stop stop-color="#A8C9D1"/>
<stop offset="1" stop-color="white"/>
</linearGradient>
<linearGradient id="paint20_linear_932_24954" x1="465.039" y1="174.847" x2="465.039" y2="202.982" gradientUnits="userSpaceOnUse">
<stop stop-color="#A8C9D1"/>
<stop offset="1" stop-color="white"/>
</linearGradient>
<linearGradient id="paint21_linear_932_24954" x1="465.039" y1="185.019" x2="465.039" y2="213.154" gradientUnits="userSpaceOnUse">
<stop stop-color="#A8C9D1"/>
<stop offset="1" stop-color="white"/>
</linearGradient>
<linearGradient id="paint22_linear_932_24954" x1="431.942" y1="126.831" x2="431.942" y2="147.839" gradientUnits="userSpaceOnUse">
<stop stop-color="#A8C9D1"/>
<stop offset="1" stop-color="white"/>
</linearGradient>
<linearGradient id="paint23_linear_932_24954" x1="457.466" y1="126.831" x2="457.466" y2="147.839" gradientUnits="userSpaceOnUse">
<stop stop-color="#A8C9D1"/>
<stop offset="1" stop-color="white"/>
</linearGradient>
<linearGradient id="paint24_linear_932_24954" x1="444.707" y1="108.905" x2="444.707" y2="144.745" gradientUnits="userSpaceOnUse">
<stop stop-color="#A8C9D1"/>
<stop offset="1" stop-color="white"/>
</linearGradient>
<linearGradient id="paint25_linear_932_24954" x1="439.027" y1="117.686" x2="439.027" y2="129.348" gradientUnits="userSpaceOnUse">
<stop stop-color="#A8C9D1"/>
<stop offset="1" stop-color="white"/>
</linearGradient>
<linearGradient id="paint26_linear_932_24954" x1="441.865" y1="119.715" x2="441.865" y2="131.365" gradientUnits="userSpaceOnUse">
<stop stop-color="#A8C9D1"/>
<stop offset="1" stop-color="white"/>
</linearGradient>
<linearGradient id="paint27_linear_932_24954" x1="444.703" y1="121.731" x2="444.703" y2="133.394" gradientUnits="userSpaceOnUse">
<stop stop-color="#A8C9D1"/>
<stop offset="1" stop-color="white"/>
</linearGradient>
<linearGradient id="paint28_linear_932_24954" x1="447.538" y1="123.761" x2="447.538" y2="135.411" gradientUnits="userSpaceOnUse">
<stop stop-color="#A8C9D1"/>
<stop offset="1" stop-color="white"/>
</linearGradient>
<linearGradient id="paint29_linear_932_24954" x1="450.377" y1="125.791" x2="450.377" y2="137.441" gradientUnits="userSpaceOnUse">
<stop stop-color="#A8C9D1"/>
<stop offset="1" stop-color="white"/>
</linearGradient>
<linearGradient id="paint30_linear_932_24954" x1="392.652" y1="185.018" x2="392.652" y2="231.73" gradientUnits="userSpaceOnUse">
<stop stop-color="#A8C9D1"/>
<stop offset="1" stop-color="white"/>
</linearGradient>
<linearGradient id="paint31_linear_932_24954" x1="282.643" y1="116.584" x2="282.643" y2="156.465" gradientUnits="userSpaceOnUse">
<stop stop-color="#A8C9D1"/>
<stop offset="1" stop-color="white"/>
</linearGradient>
<linearGradient id="paint32_linear_932_24954" x1="282.636" y1="101.877" x2="282.636" y2="137.324" gradientUnits="userSpaceOnUse">
<stop stop-color="#A8C9D1"/>
<stop offset="1" stop-color="white"/>
</linearGradient>
<linearGradient id="paint33_linear_932_24954" x1="282.643" y1="108.366" x2="282.643" y2="141.52" gradientUnits="userSpaceOnUse">
<stop stop-color="#A8C9D1"/>
<stop offset="1" stop-color="white"/>
</linearGradient>
<linearGradient id="paint34_linear_932_24954" x1="282.643" y1="88.1729" x2="282.643" y2="128.054" gradientUnits="userSpaceOnUse">
<stop stop-color="#A8C9D1"/>
<stop offset="1" stop-color="white"/>
</linearGradient>
<linearGradient id="paint35_linear_932_24954" x1="282.636" y1="73.4658" x2="282.636" y2="108.913" gradientUnits="userSpaceOnUse">
<stop stop-color="#A8C9D1"/>
<stop offset="1" stop-color="white"/>
</linearGradient>
<linearGradient id="paint36_linear_932_24954" x1="282.643" y1="79.9668" x2="282.643" y2="113.108" gradientUnits="userSpaceOnUse">
<stop stop-color="#A8C9D1"/>
<stop offset="1" stop-color="white"/>
</linearGradient>
<linearGradient id="paint37_linear_932_24954" x1="282.643" y1="59.3857" x2="282.643" y2="99.2668" gradientUnits="userSpaceOnUse">
<stop stop-color="#A8C9D1"/>
<stop offset="1" stop-color="white"/>
</linearGradient>
<linearGradient id="paint38_linear_932_24954" x1="282.627" y1="33.3691" x2="282.627" y2="84.3347" gradientUnits="userSpaceOnUse">
<stop stop-color="#A8C9D1"/>
<stop offset="1" stop-color="white"/>
</linearGradient>
<linearGradient id="paint39_linear_932_24954" x1="139.352" y1="128.334" x2="139.352" y2="240.136" gradientUnits="userSpaceOnUse">
<stop stop-color="#A8C9D1"/>
<stop offset="1" stop-color="white"/>
</linearGradient>
<linearGradient id="paint40_linear_932_24954" x1="101.784" y1="128.334" x2="101.784" y2="240.136" gradientUnits="userSpaceOnUse">
<stop stop-color="#A8C9D1"/>
<stop offset="1" stop-color="white"/>
</linearGradient>
<linearGradient id="paint41_linear_932_24954" x1="120.568" y1="101.965" x2="120.568" y2="154.716" gradientUnits="userSpaceOnUse">
<stop stop-color="#A8C9D1"/>
<stop offset="1" stop-color="white"/>
</linearGradient>
<linearGradient id="paint42_linear_932_24954" x1="100.231" y1="134.159" x2="100.231" y2="162.295" gradientUnits="userSpaceOnUse">
<stop stop-color="#A8C9D1"/>
<stop offset="1" stop-color="white"/>
</linearGradient>
<linearGradient id="paint43_linear_932_24954" x1="100.231" y1="144.331" x2="100.231" y2="172.466" gradientUnits="userSpaceOnUse">
<stop stop-color="#A8C9D1"/>
<stop offset="1" stop-color="white"/>
</linearGradient>
<linearGradient id="paint44_linear_932_24954" x1="100.231" y1="154.503" x2="100.231" y2="182.638" gradientUnits="userSpaceOnUse">
<stop stop-color="#A8C9D1"/>
<stop offset="1" stop-color="white"/>
</linearGradient>
<linearGradient id="paint45_linear_932_24954" x1="100.231" y1="164.675" x2="100.231" y2="192.81" gradientUnits="userSpaceOnUse">
<stop stop-color="#A8C9D1"/>
<stop offset="1" stop-color="white"/>
</linearGradient>
<linearGradient id="paint46_linear_932_24954" x1="100.231" y1="174.847" x2="100.231" y2="202.982" gradientUnits="userSpaceOnUse">
<stop stop-color="#A8C9D1"/>
<stop offset="1" stop-color="white"/>
</linearGradient>
<linearGradient id="paint47_linear_932_24954" x1="100.231" y1="185.019" x2="100.231" y2="213.154" gradientUnits="userSpaceOnUse">
<stop stop-color="#A8C9D1"/>
<stop offset="1" stop-color="white"/>
</linearGradient>
<linearGradient id="paint48_linear_932_24954" x1="133.327" y1="126.831" x2="133.327" y2="147.839" gradientUnits="userSpaceOnUse">
<stop stop-color="#A8C9D1"/>
<stop offset="1" stop-color="white"/>
</linearGradient>
<linearGradient id="paint49_linear_932_24954" x1="107.804" y1="126.831" x2="107.804" y2="147.839" gradientUnits="userSpaceOnUse">
<stop stop-color="#A8C9D1"/>
<stop offset="1" stop-color="white"/>
</linearGradient>
<linearGradient id="paint50_linear_932_24954" x1="120.563" y1="108.905" x2="120.563" y2="144.745" gradientUnits="userSpaceOnUse">
<stop stop-color="#A8C9D1"/>
<stop offset="1" stop-color="white"/>
</linearGradient>
<linearGradient id="paint51_linear_932_24954" x1="126.244" y1="117.686" x2="126.244" y2="129.348" gradientUnits="userSpaceOnUse">
<stop stop-color="#A8C9D1"/>
<stop offset="1" stop-color="white"/>
</linearGradient>
<linearGradient id="paint52_linear_932_24954" x1="123.408" y1="119.715" x2="123.408" y2="131.365" gradientUnits="userSpaceOnUse">
<stop stop-color="#A8C9D1"/>
<stop offset="1" stop-color="white"/>
</linearGradient>
<linearGradient id="paint53_linear_932_24954" x1="120.57" y1="121.731" x2="120.57" y2="133.394" gradientUnits="userSpaceOnUse">
<stop stop-color="#A8C9D1"/>
<stop offset="1" stop-color="white"/>
</linearGradient>
<linearGradient id="paint54_linear_932_24954" x1="117.732" y1="123.761" x2="117.732" y2="135.411" gradientUnits="userSpaceOnUse">
<stop stop-color="#A8C9D1"/>
<stop offset="1" stop-color="white"/>
</linearGradient>
<linearGradient id="paint55_linear_932_24954" x1="114.894" y1="125.791" x2="114.894" y2="137.441" gradientUnits="userSpaceOnUse">
<stop stop-color="#A8C9D1"/>
<stop offset="1" stop-color="white"/>
</linearGradient>
<linearGradient id="paint56_linear_932_24954" x1="172.617" y1="185.018" x2="172.617" y2="231.73" gradientUnits="userSpaceOnUse">
<stop stop-color="#A8C9D1"/>
<stop offset="1" stop-color="white"/>
</linearGradient>
<linearGradient id="paint57_linear_932_24954" x1="414.405" y1="-64.6182" x2="414.405" y2="47.1718" gradientUnits="userSpaceOnUse">
<stop stop-color="#A8C9D1"/>
<stop offset="1" stop-color="white"/>
</linearGradient>
<linearGradient id="paint58_linear_932_24954" x1="376.837" y1="-64.6182" x2="376.837" y2="47.1718" gradientUnits="userSpaceOnUse">
<stop stop-color="#A8C9D1"/>
<stop offset="1" stop-color="white"/>
</linearGradient>
<linearGradient id="paint59_linear_932_24954" x1="375.283" y1="-28.29" x2="375.283" y2="-0.154659" gradientUnits="userSpaceOnUse">
<stop stop-color="#A8C9D1"/>
<stop offset="1" stop-color="white"/>
</linearGradient>
<linearGradient id="paint60_linear_932_24954" x1="375.283" y1="-18.1182" x2="375.283" y2="10.0172" gradientUnits="userSpaceOnUse">
<stop stop-color="#A8C9D1"/>
<stop offset="1" stop-color="white"/>
</linearGradient>
<linearGradient id="paint61_linear_932_24954" x1="375.283" y1="-7.94629" x2="375.283" y2="20.1891" gradientUnits="userSpaceOnUse">
<stop stop-color="#A8C9D1"/>
<stop offset="1" stop-color="white"/>
</linearGradient>
<linearGradient id="paint62_linear_932_24954" x1="432.374" y1="36.084" x2="432.374" y2="84.2248" gradientUnits="userSpaceOnUse">
<stop stop-color="#A8C9D1"/>
<stop offset="1" stop-color="white"/>
</linearGradient>
<linearGradient id="paint63_linear_932_24954" x1="465.639" y1="36.084" x2="465.639" y2="84.2248" gradientUnits="userSpaceOnUse">
<stop stop-color="#A8C9D1"/>
<stop offset="1" stop-color="white"/>
</linearGradient>
<linearGradient id="paint64_linear_932_24954" x1="449.003" y1="12.7217" x2="449.003" y2="59.4344" gradientUnits="userSpaceOnUse">
<stop stop-color="#A8C9D1"/>
<stop offset="1" stop-color="white"/>
</linearGradient>
<linearGradient id="paint65_linear_932_24954" x1="449.004" y1="15.9912" x2="449.004" y2="56.1649" gradientUnits="userSpaceOnUse">
<stop stop-color="#A8C9D1"/>
<stop offset="1" stop-color="white"/>
</linearGradient>
<linearGradient id="paint66_linear_932_24954" x1="431.034" y1="15.415" x2="431.034" y2="42.7863" gradientUnits="userSpaceOnUse">
<stop stop-color="#A8C9D1"/>
<stop offset="1" stop-color="white"/>
</linearGradient>
<linearGradient id="paint67_linear_932_24954" x1="464.306" y1="15.415" x2="464.306" y2="42.7863" gradientUnits="userSpaceOnUse">
<stop stop-color="#A8C9D1"/>
<stop offset="1" stop-color="white"/>
</linearGradient>
<linearGradient id="paint68_linear_932_24954" x1="447.67" y1="-7.94727" x2="447.67" y2="38.7655" gradientUnits="userSpaceOnUse">
<stop stop-color="#A8C9D1"/>
<stop offset="1" stop-color="white"/>
</linearGradient>
<linearGradient id="paint69_linear_932_24954" x1="447.664" y1="-4.67773" x2="447.664" y2="35.496" gradientUnits="userSpaceOnUse">
<stop stop-color="#A8C9D1"/>
<stop offset="1" stop-color="white"/>
</linearGradient>
<clipPath id="clip0_932_24954">
<rect width="566" height="187" rx="8" fill="white"/>
</clipPath>
</defs>
</svg>
