<svg width="462" height="291" viewBox="0 0 462 291" fill="none" xmlns="http://www.w3.org/2000/svg">
<g clip-path="url(#clip0_926_12261)">
<rect width="462" height="291" rx="8" fill="#F6F7F8"/>
<path d="M339.49 275.841L126.13 152.659C124.467 151.698 122.952 151.643 121.788 152.308L118.609 154.156C118.609 154.156 119.349 154.267 120.069 154.359C119.681 155.265 119.459 156.373 119.459 157.686V304.687C119.459 309.584 122.435 315.275 126.112 317.4L339.471 440.582C339.878 440.822 340.266 440.988 340.654 441.118V442.781L343.851 440.933C345.255 440.12 346.161 438.235 346.161 435.556V288.554C346.161 283.657 343.186 277.966 339.508 275.841H339.49Z" fill="url(#paint0_linear_926_12261)" stroke="#64B5C8"/>
<path d="M336.404 442.393L123.044 319.211C119.367 317.086 116.392 311.394 116.392 306.498V159.496C116.392 154.599 119.367 152.345 123.044 154.47L336.404 277.652C340.081 279.777 343.056 285.468 343.056 290.365V437.366C343.056 442.263 340.081 444.518 336.404 442.393Z" fill="url(#paint1_linear_926_12261)" stroke="#64B5C8"/>
<path d="M134.512 229.951C134.512 228.421 136.159 227.458 137.492 228.208L154.036 237.514C155.61 238.399 156.585 240.065 156.585 241.872V261.739C156.585 263.269 154.937 264.232 153.604 263.482L137.06 254.177C135.486 253.291 134.512 251.625 134.512 249.819V229.951Z" fill="url(#paint2_linear_926_12261)" stroke="#64B5C8"/>
<path d="M593.329 165.477L379.969 42.2949C378.306 41.334 376.791 41.2786 375.627 41.9438L372.448 43.7917C372.448 43.7917 373.187 43.9026 373.908 43.995C373.52 44.9005 373.298 46.0092 373.298 47.3212V194.322C373.298 199.219 376.273 204.911 379.951 207.036L593.31 330.218C593.717 330.458 594.105 330.624 594.493 330.753V332.417L597.69 330.569C599.094 329.756 600 327.871 600 325.191V178.19C600 173.293 597.025 167.602 593.347 165.477H593.329Z" fill="url(#paint3_linear_926_12261)" stroke="#64B5C8"/>
<path d="M590.243 332.027L376.884 208.846C373.207 206.721 370.231 201.029 370.231 196.132V49.1312C370.231 44.2342 373.207 41.9798 376.884 44.1049L590.243 167.286C593.921 169.412 596.896 175.103 596.896 180V327.001C596.896 331.898 593.921 334.153 590.243 332.027Z" fill="url(#paint4_linear_926_12261)" stroke="#64B5C8"/>
<path d="M478.908 233.206C478.908 235.011 476.954 236.139 475.391 235.237L439.592 214.568C438.867 214.149 438.42 213.375 438.42 212.537C438.42 210.733 440.374 209.605 441.937 210.507L477.735 231.176C478.461 231.595 478.908 232.369 478.908 233.206Z" fill="url(#paint5_linear_926_12261)" stroke="#64B5C8"/>
<path d="M388.352 119.586C388.352 118.056 389.999 117.093 391.332 117.843L407.876 127.148C409.45 128.034 410.425 129.7 410.425 131.506V151.374C410.425 152.904 408.777 153.867 407.444 153.117L390.9 143.811C389.326 142.926 388.352 141.26 388.352 139.453V119.586Z" fill="url(#paint6_linear_926_12261)" stroke="#64B5C8"/>
<path d="M593.329 366.893L379.969 243.711C378.306 242.75 376.791 242.695 375.627 243.36L372.448 245.208C372.448 245.208 373.187 245.319 373.908 245.411C373.52 246.317 373.298 247.425 373.298 248.737V395.738C373.298 400.635 376.273 406.327 379.951 408.452L593.31 531.634C593.717 531.874 594.105 532.04 594.493 532.169V533.833L597.69 531.985C599.094 531.172 600 529.287 600 526.607V379.606C600 374.709 597.025 369.018 593.347 366.893H593.329Z" fill="url(#paint7_linear_926_12261)" stroke="#64B5C8"/>
<path d="M590.243 533.444L376.884 410.262C373.207 408.137 370.231 402.445 370.231 397.548V250.547C370.231 245.65 373.207 243.396 376.884 245.521L590.243 368.702C593.921 370.828 596.896 376.519 596.896 381.416V528.417C596.896 533.314 593.921 535.569 590.243 533.444Z" fill="url(#paint8_linear_926_12261)" stroke="#64B5C8"/>
<path d="M85.65 217.899L-127.709 94.7178C-129.373 93.7569 -130.888 93.7014 -132.052 94.3667L-135.23 96.2146C-135.23 96.2146 -134.491 96.3255 -133.771 96.4179C-134.159 97.3233 -134.38 98.4321 -134.38 99.7441V246.745C-134.38 251.642 -131.405 257.334 -127.728 259.459L85.6315 382.64C86.0381 382.881 86.4261 383.047 86.8142 383.176V384.839L90.0111 382.992C91.4155 382.178 92.321 380.294 92.321 377.614V230.613C92.321 225.716 89.3458 220.024 85.6685 217.899H85.65Z" fill="url(#paint9_linear_926_12261)" stroke="#64B5C8"/>
<path d="M82.5638 384.451L-130.796 261.27C-134.473 259.145 -137.448 253.453 -137.448 248.556V101.555C-137.448 96.658 -134.473 94.4036 -130.796 96.5287L82.5638 219.71C86.2411 221.835 89.2162 227.527 89.2162 232.424V379.425C89.2162 384.322 86.2411 386.576 82.5638 384.451Z" fill="url(#paint10_linear_926_12261)" stroke="#64B5C8"/>
<path d="M21.0111 314.382C21.0111 316.187 19.0571 317.315 17.4944 316.412L-18.3053 295.726C-19.0301 295.307 -19.4766 294.533 -19.4766 293.696C-19.4766 291.892 -17.5225 290.764 -15.9598 291.667L19.8398 312.352C20.5647 312.771 21.0111 313.545 21.0111 314.382Z" fill="url(#paint11_linear_926_12261)" stroke="#64B5C8"/>
<path d="M339.49 77.1845L126.13 -45.9971C124.467 -46.958 122.952 -47.0134 121.788 -46.3482L118.609 -44.5003C118.609 -44.5003 119.349 -44.3894 120.069 -44.297C119.681 -43.3915 119.459 -42.2828 119.459 -40.9707V106.03C119.459 110.927 122.435 116.619 126.112 118.744L339.471 241.926C339.878 242.166 340.266 242.332 340.654 242.461V244.125L343.851 242.277C345.255 241.464 346.161 239.579 346.161 236.899V89.8981C346.161 85.0012 343.186 79.3096 339.508 77.1845H339.49Z" fill="url(#paint12_linear_926_12261)" stroke="#64B5C8"/>
<path d="M336.404 243.736L123.044 120.554C119.367 118.429 116.392 112.737 116.392 107.84V-39.1608C116.392 -44.0578 119.367 -46.3122 123.044 -44.1871L336.404 78.9944C340.081 81.1195 343.056 86.8111 343.056 91.7081V238.709C343.056 243.606 340.081 245.861 336.404 243.736Z" fill="url(#paint13_linear_926_12261)" stroke="#64B5C8"/>
<path d="M225.068 144.914C225.068 146.719 223.114 147.847 221.551 146.945L185.752 126.276C185.027 125.857 184.58 125.083 184.58 124.245C184.58 122.441 186.534 121.313 188.097 122.215L223.896 142.884C224.621 143.303 225.068 144.077 225.068 144.914Z" fill="url(#paint14_linear_926_12261)" stroke="#64B5C8"/>
<path d="M274.851 173.667C274.851 175.472 272.897 176.6 271.334 175.697L235.535 155.011C234.81 154.592 234.363 153.819 234.363 152.982C234.363 151.177 236.317 150.049 237.88 150.952L273.68 171.638C274.405 172.056 274.851 172.83 274.851 173.667Z" fill="url(#paint15_linear_926_12261)" stroke="#64B5C8"/>
<path d="M324.652 202.404C324.652 204.209 322.698 205.337 321.135 204.435L285.318 183.765C284.593 183.346 284.146 182.572 284.146 181.734C284.146 179.929 286.099 178.801 287.662 179.703L323.479 200.373C324.205 200.792 324.652 201.566 324.652 202.404Z" fill="url(#paint16_linear_926_12261)" stroke="#64B5C8"/>
<path d="M134.512 31.2937C134.512 29.7641 136.159 28.8006 137.492 29.5506L154.036 38.8564C155.61 39.742 156.585 41.408 156.585 43.2143V63.0821C156.585 64.6117 154.937 65.5752 153.604 64.8252L137.06 55.5194C135.486 54.6338 134.512 52.9678 134.512 51.1615V31.2937Z" fill="url(#paint17_linear_926_12261)" stroke="#64B5C8"/>
<path d="M339.49 -120.093L126.13 -243.274C124.467 -244.235 122.952 -244.291 121.788 -243.626L118.609 -241.778C118.609 -241.778 119.349 -241.667 120.069 -241.574C119.681 -240.669 119.459 -239.56 119.459 -238.248V-91.247C119.459 -86.35 122.435 -80.6584 126.112 -78.5334L339.471 44.6482C339.878 44.8885 340.266 45.0548 340.654 45.1841V46.8472L343.851 44.9993C345.255 44.1862 346.161 42.3014 346.161 39.6219V-107.379C346.161 -112.276 343.186 -117.968 339.508 -120.093H339.49Z" fill="url(#paint18_linear_926_12261)" stroke="#64B5C8"/>
<path d="M336.404 46.4582L123.044 -76.7234C119.367 -78.8485 116.392 -84.5401 116.392 -89.437V-236.438C116.392 -241.335 119.367 -243.59 123.044 -241.464L336.404 -118.283C340.081 -116.158 343.056 -110.466 343.056 -105.569V41.4318C343.056 46.3288 340.081 48.5833 336.404 46.4582Z" fill="url(#paint19_linear_926_12261)" stroke="#64B5C8"/>
<path d="M324.652 5.12656C324.652 6.93135 322.698 8.0595 321.135 7.15739L285.318 -13.5123C284.593 -13.9311 284.146 -14.7053 284.146 -15.5432C284.146 -17.348 286.099 -18.4761 287.662 -17.574L323.479 3.09572C324.205 3.51451 324.652 4.2887 324.652 5.12656Z" fill="url(#paint20_linear_926_12261)" stroke="#64B5C8"/>
<path d="M593.329 -33.1807L379.969 -156.362C378.306 -157.323 376.791 -157.379 375.627 -156.713L372.448 -154.865C372.448 -154.865 373.187 -154.755 373.908 -154.662C373.52 -153.757 373.298 -152.648 373.298 -151.336V-4.33486C373.298 0.562097 376.273 6.25366 379.951 8.37876L593.31 131.56C593.717 131.801 594.105 131.967 594.493 132.096V133.759L597.69 131.911C599.094 131.098 600 129.213 600 126.534V-20.4671C600 -25.3641 597.025 -31.0556 593.347 -33.1807H593.329Z" fill="url(#paint21_linear_926_12261)" stroke="#64B5C8"/>
<path d="M590.243 133.371L376.884 10.1896C373.207 8.06455 370.231 2.373 370.231 -2.52396V-149.525C370.231 -154.422 373.207 -156.676 376.884 -154.551L590.243 -31.3698C593.921 -29.2447 596.896 -23.5532 596.896 -18.6562V128.345C596.896 133.242 593.921 135.496 590.243 133.371Z" fill="url(#paint22_linear_926_12261)" stroke="#64B5C8"/>
<path d="M478.908 34.549C478.908 36.3537 476.954 37.4817 475.391 36.5793L439.592 15.9105C438.867 15.4917 438.42 14.7177 438.42 13.8801C438.42 12.0753 440.374 10.9474 441.937 11.8498L477.735 32.5186C478.461 32.9374 478.908 33.7114 478.908 34.549Z" fill="url(#paint23_linear_926_12261)" stroke="#64B5C8"/>
<path d="M85.65 19.2421L-127.709 -103.939C-129.373 -104.9 -130.888 -104.956 -132.052 -104.291L-135.23 -102.443C-135.23 -102.443 -134.491 -102.332 -133.771 -102.239C-134.159 -101.334 -134.38 -100.225 -134.38 -98.9131V48.088C-134.38 52.9849 -131.405 58.6765 -127.728 60.8016L85.6315 183.983C86.0381 184.223 86.4261 184.39 86.8142 184.519V186.182L90.0111 184.334C91.4155 183.521 92.321 181.636 92.321 178.957V31.9558C92.321 27.0588 89.3458 21.3672 85.6685 19.2421H85.65Z" fill="url(#paint24_linear_926_12261)" stroke="#64B5C8"/>
<path d="M82.5638 185.794L-130.796 62.6125C-134.473 60.4874 -137.448 54.7959 -137.448 49.8989V-97.1022C-137.448 -101.999 -134.473 -104.254 -130.796 -102.129L82.5638 21.053C86.2411 23.1781 89.2162 28.8697 89.2162 33.7666V180.768C89.2162 185.665 86.2411 187.919 82.5638 185.794Z" fill="url(#paint25_linear_926_12261)" stroke="#64B5C8"/>
<path d="M21.0111 115.726C21.0111 117.531 19.0571 118.658 17.4944 117.755L-18.3053 97.0697C-19.0301 96.6508 -19.4766 95.8772 -19.4766 95.0401C-19.4766 93.2353 -17.5225 92.1076 -15.9598 93.0105L19.8398 113.696C20.5647 114.115 21.0111 114.889 21.0111 115.726Z" fill="url(#paint26_linear_926_12261)" stroke="#64B5C8"/>
<path d="M70.8128 144.462C70.8128 146.267 68.8592 147.395 67.296 146.493L31.4794 125.824C30.7537 125.405 30.3066 124.631 30.3066 123.793C30.3066 121.988 32.2602 120.86 33.8234 121.762L69.64 142.432C70.3657 142.85 70.8128 143.625 70.8128 144.462Z" fill="url(#paint27_linear_926_12261)" stroke="#64B5C8"/>
</g>
<defs>
<linearGradient id="paint0_linear_926_12261" x1="232.385" y1="151.864" x2="232.385" y2="442.781" gradientUnits="userSpaceOnUse">
<stop stop-color="#A8C9D1"/>
<stop offset="1" stop-color="white"/>
</linearGradient>
<linearGradient id="paint1_linear_926_12261" x1="229.724" y1="153.67" x2="229.724" y2="443.193" gradientUnits="userSpaceOnUse">
<stop stop-color="#A8C9D1"/>
<stop offset="1" stop-color="white"/>
</linearGradient>
<linearGradient id="paint2_linear_926_12261" x1="145.548" y1="226.531" x2="145.548" y2="265.159" gradientUnits="userSpaceOnUse">
<stop stop-color="#A8C9D1"/>
<stop offset="1" stop-color="white"/>
</linearGradient>
<linearGradient id="paint3_linear_926_12261" x1="486.224" y1="41.5" x2="486.224" y2="332.417" gradientUnits="userSpaceOnUse">
<stop stop-color="#A8C9D1"/>
<stop offset="1" stop-color="white"/>
</linearGradient>
<linearGradient id="paint4_linear_926_12261" x1="483.564" y1="43.3047" x2="483.564" y2="332.828" gradientUnits="userSpaceOnUse">
<stop stop-color="#A8C9D1"/>
<stop offset="1" stop-color="white"/>
</linearGradient>
<linearGradient id="paint5_linear_926_12261" x1="458.664" y1="208.477" x2="458.664" y2="237.267" gradientUnits="userSpaceOnUse">
<stop stop-color="#A8C9D1"/>
<stop offset="1" stop-color="white"/>
</linearGradient>
<linearGradient id="paint6_linear_926_12261" x1="399.388" y1="116.166" x2="399.388" y2="154.794" gradientUnits="userSpaceOnUse">
<stop stop-color="#A8C9D1"/>
<stop offset="1" stop-color="white"/>
</linearGradient>
<linearGradient id="paint7_linear_926_12261" x1="486.224" y1="242.916" x2="486.224" y2="533.833" gradientUnits="userSpaceOnUse">
<stop stop-color="#A8C9D1"/>
<stop offset="1" stop-color="white"/>
</linearGradient>
<linearGradient id="paint8_linear_926_12261" x1="483.564" y1="244.721" x2="483.564" y2="534.244" gradientUnits="userSpaceOnUse">
<stop stop-color="#A8C9D1"/>
<stop offset="1" stop-color="white"/>
</linearGradient>
<linearGradient id="paint9_linear_926_12261" x1="-21.4548" y1="93.9229" x2="-21.4548" y2="384.839" gradientUnits="userSpaceOnUse">
<stop stop-color="#A8C9D1"/>
<stop offset="1" stop-color="white"/>
</linearGradient>
<linearGradient id="paint10_linear_926_12261" x1="-24.116" y1="95.7285" x2="-24.116" y2="385.251" gradientUnits="userSpaceOnUse">
<stop stop-color="#A8C9D1"/>
<stop offset="1" stop-color="white"/>
</linearGradient>
<linearGradient id="paint11_linear_926_12261" x1="0.767279" y1="289.635" x2="0.767279" y2="318.444" gradientUnits="userSpaceOnUse">
<stop stop-color="#A8C9D1"/>
<stop offset="1" stop-color="white"/>
</linearGradient>
<linearGradient id="paint12_linear_926_12261" x1="232.385" y1="-46.792" x2="232.385" y2="244.125" gradientUnits="userSpaceOnUse">
<stop stop-color="#A8C9D1"/>
<stop offset="1" stop-color="white"/>
</linearGradient>
<linearGradient id="paint13_linear_926_12261" x1="229.724" y1="-44.9873" x2="229.724" y2="244.536" gradientUnits="userSpaceOnUse">
<stop stop-color="#A8C9D1"/>
<stop offset="1" stop-color="white"/>
</linearGradient>
<linearGradient id="paint14_linear_926_12261" x1="204.824" y1="120.185" x2="204.824" y2="148.975" gradientUnits="userSpaceOnUse">
<stop stop-color="#A8C9D1"/>
<stop offset="1" stop-color="white"/>
</linearGradient>
<linearGradient id="paint15_linear_926_12261" x1="254.607" y1="148.92" x2="254.607" y2="177.729" gradientUnits="userSpaceOnUse">
<stop stop-color="#A8C9D1"/>
<stop offset="1" stop-color="white"/>
</linearGradient>
<linearGradient id="paint16_linear_926_12261" x1="304.399" y1="177.674" x2="304.399" y2="206.464" gradientUnits="userSpaceOnUse">
<stop stop-color="#A8C9D1"/>
<stop offset="1" stop-color="white"/>
</linearGradient>
<linearGradient id="paint17_linear_926_12261" x1="145.548" y1="27.874" x2="145.548" y2="66.5018" gradientUnits="userSpaceOnUse">
<stop stop-color="#A8C9D1"/>
<stop offset="1" stop-color="white"/>
</linearGradient>
<linearGradient id="paint18_linear_926_12261" x1="232.385" y1="-244.069" x2="232.385" y2="46.8472" gradientUnits="userSpaceOnUse">
<stop stop-color="#A8C9D1"/>
<stop offset="1" stop-color="white"/>
</linearGradient>
<linearGradient id="paint19_linear_926_12261" x1="229.724" y1="-242.265" x2="229.724" y2="47.2583" gradientUnits="userSpaceOnUse">
<stop stop-color="#A8C9D1"/>
<stop offset="1" stop-color="white"/>
</linearGradient>
<linearGradient id="paint20_linear_926_12261" x1="304.399" y1="-19.6035" x2="304.399" y2="9.1869" gradientUnits="userSpaceOnUse">
<stop stop-color="#A8C9D1"/>
<stop offset="1" stop-color="white"/>
</linearGradient>
<linearGradient id="paint21_linear_926_12261" x1="486.224" y1="-157.157" x2="486.224" y2="133.759" gradientUnits="userSpaceOnUse">
<stop stop-color="#A8C9D1"/>
<stop offset="1" stop-color="white"/>
</linearGradient>
<linearGradient id="paint22_linear_926_12261" x1="483.564" y1="-155.352" x2="483.564" y2="134.171" gradientUnits="userSpaceOnUse">
<stop stop-color="#A8C9D1"/>
<stop offset="1" stop-color="white"/>
</linearGradient>
<linearGradient id="paint23_linear_926_12261" x1="458.664" y1="9.81934" x2="458.664" y2="38.6098" gradientUnits="userSpaceOnUse">
<stop stop-color="#A8C9D1"/>
<stop offset="1" stop-color="white"/>
</linearGradient>
<linearGradient id="paint24_linear_926_12261" x1="-21.4548" y1="-104.734" x2="-21.4548" y2="186.182" gradientUnits="userSpaceOnUse">
<stop stop-color="#A8C9D1"/>
<stop offset="1" stop-color="white"/>
</linearGradient>
<linearGradient id="paint25_linear_926_12261" x1="-24.116" y1="-102.929" x2="-24.116" y2="186.594" gradientUnits="userSpaceOnUse">
<stop stop-color="#A8C9D1"/>
<stop offset="1" stop-color="white"/>
</linearGradient>
<linearGradient id="paint26_linear_926_12261" x1="0.767279" y1="90.9785" x2="0.767279" y2="119.787" gradientUnits="userSpaceOnUse">
<stop stop-color="#A8C9D1"/>
<stop offset="1" stop-color="white"/>
</linearGradient>
<linearGradient id="paint27_linear_926_12261" x1="50.5597" y1="119.732" x2="50.5597" y2="148.523" gradientUnits="userSpaceOnUse">
<stop stop-color="#A8C9D1"/>
<stop offset="1" stop-color="white"/>
</linearGradient>
<clipPath id="clip0_926_12261">
<rect width="462" height="291" rx="8" fill="white"/>
</clipPath>
</defs>
</svg>
