<svg width="462" height="291" viewBox="0 0 462 291" fill="none" xmlns="http://www.w3.org/2000/svg">
<g clip-path="url(#clip0_932_22255)">
<rect width="462" height="291" rx="8" fill="#F6F7F8"/>
<path d="M100.243 371.352L100.354 371.278C100.354 371.278 100.689 371.166 100.876 371.091L240.943 290.425C249.174 284.988 254.09 275.789 254.053 265.92L253.941 -96.9305C253.904 -97.6009 253.792 -98.234 253.68 -98.8299C251.818 -112.274 235.804 -119.797 223.551 -112.721L223.328 -112.609C223.328 -112.609 223.067 -112.46 222.918 -112.386L82.9622 -31.6823C74.8806 -26.3194 70.0391 -17.2696 70.0764 -7.58662L70.3371 353.997C70.3371 354.705 70.4116 355.338 70.5233 355.971C71.4543 370.235 87.5429 378.652 100.205 371.352H100.243Z" fill="url(#paint0_linear_932_22255)" stroke="#64B5C8" stroke-linejoin="round"/>
<path d="M100.615 371.986L100.801 371.911C100.801 371.911 101.025 371.837 101.211 371.725L241.316 291.021C249.77 285.435 254.798 276.05 254.76 265.92L254.649 -96.9671C254.612 -97.6002 254.5 -98.2333 254.388 -98.9409C253.494 -105.347 249.323 -110.97 243.215 -113.95C236.773 -117.115 229.25 -116.892 223.142 -113.354L222.807 -113.167C222.807 -113.167 222.621 -113.093 222.546 -113.018L82.5529 -32.2775C78.6797 -29.7078 75.5141 -26.3188 73.2796 -22.4083C70.7471 -17.9765 69.3691 -12.8744 69.3691 -7.58597L69.6298 353.998C69.6298 354.668 69.7043 355.339 69.816 356.009C70.263 362.862 74.2479 368.969 80.4301 372.247C86.7985 375.673 94.3586 375.561 100.578 371.949L100.615 371.986ZM103.408 8.94953C103.408 8.94953 85.9791 3.6984 80.2438 -3.41485C74.5458 -10.4536 77.5624 -18.5352 77.5997 -18.6841C79.8342 -23.0042 83.1115 -26.7284 87.2826 -29.4843L227.201 -110.225C227.201 -110.225 227.462 -110.374 227.611 -110.449L227.834 -110.56C232.49 -113.242 237.704 -113.763 242.433 -112.721C242.471 -112.721 242.545 -112.683 242.582 -112.646C248.243 -109.853 252.116 -104.676 252.936 -98.7175C253.085 -98.0471 253.159 -97.4885 253.196 -96.9671L253.308 265.883C253.308 267.931 253.047 269.942 252.638 271.879C251.669 275.417 247.982 285.323 235.916 290.575C234.799 291.059 233.793 291.506 232.899 291.878C232.713 291.692 232.601 291.431 232.527 291.096L103.408 8.94953Z" fill="url(#paint1_linear_932_22255)"/>
<path d="M100.615 371.986L100.317 371.502M100.615 371.986L100.801 371.911C100.801 371.911 101.025 371.837 101.211 371.725L241.316 291.021C249.77 285.435 254.798 276.05 254.76 265.92L254.649 -96.9671C254.612 -97.6002 254.5 -98.2333 254.388 -98.9409C253.494 -105.347 249.323 -110.97 243.215 -113.95C236.773 -117.115 229.25 -116.892 223.142 -113.354L222.807 -113.167C222.807 -113.167 222.621 -113.093 222.546 -113.018L82.5529 -32.2775C78.6797 -29.7078 75.5141 -26.3188 73.2796 -22.4083C70.7471 -17.9765 69.3691 -12.8744 69.3691 -7.58597L69.6298 353.998C69.6298 354.668 69.7043 355.339 69.816 356.009C70.263 362.862 74.2479 368.969 80.4301 372.247C86.7985 375.673 94.3586 375.561 100.578 371.949L100.615 371.986ZM103.408 8.94953C103.408 8.94953 85.9791 3.6984 80.2438 -3.41485C74.5458 -10.4536 77.5624 -18.5352 77.5997 -18.6841C79.8342 -23.0042 83.1115 -26.7284 87.2826 -29.4843L227.201 -110.225C227.201 -110.225 227.462 -110.374 227.611 -110.449L227.834 -110.56C232.49 -113.242 237.704 -113.763 242.433 -112.721C242.471 -112.721 242.545 -112.683 242.582 -112.646C248.243 -109.853 252.116 -104.676 252.936 -98.7175C253.085 -98.0471 253.159 -97.4885 253.196 -96.9671L253.308 265.883C253.308 267.931 253.047 269.942 252.638 271.879C251.669 275.417 247.982 285.323 235.916 290.575C234.799 291.059 233.793 291.506 232.899 291.878C232.713 291.692 232.601 291.431 232.527 291.096L103.408 8.94953Z" stroke="#64B5C8" stroke-linejoin="round"/>
<path d="M73.4668 35.4683V30.0309C73.4668 28.4668 74.7703 27.9081 76.3344 28.8392C77.8986 29.733 79.2021 31.7441 79.2021 33.3455V38.7828C79.2021 40.347 77.8986 40.9056 76.3344 39.9746C74.7703 39.0808 73.4668 37.0697 73.4668 35.4683Z" fill="url(#paint2_linear_932_22255)" stroke="#64B5C8" stroke-linejoin="round"/>
<path d="M79.1638 33.3073C79.1638 31.7431 77.8975 29.7321 76.2961 28.801C75.9237 28.5775 75.5513 28.5031 75.2161 28.4658C75.1416 28.652 75.1416 28.8382 75.1416 29.0989V34.5363C75.1416 36.1005 76.4078 38.1115 77.972 39.0426C78.3444 39.266 78.7168 39.3778 79.0148 39.4523C79.0893 39.266 79.1265 39.0426 79.1265 38.7819V33.3445L79.1638 33.3073Z" fill="url(#paint3_linear_932_22255)" stroke="#64B5C8" stroke-linejoin="round"/>
<path d="M74.9559 28.0186H75.2538C75.589 28.1303 75.9987 28.2048 76.4456 28.4655C78.1587 29.4338 79.4994 31.5566 79.4994 33.2697V38.707C79.4994 38.9677 79.4622 39.2284 79.3877 39.4891L79.276 39.7871H78.978C78.6056 39.6753 78.1959 39.5264 77.7863 39.3029C76.0731 38.3346 74.7324 36.2118 74.7324 34.4987V29.0613C74.7324 28.8006 74.7697 28.5772 74.8441 28.3165L74.9559 28.0186ZM78.7918 33.3069C78.7918 31.8545 77.6001 29.9924 76.1104 29.1358C75.8869 29.0241 75.7007 28.9496 75.5145 28.9124C75.5145 28.9868 75.5145 29.0241 75.5145 29.0986V34.5359C75.5145 35.9884 76.7063 37.8505 78.1587 38.707C78.3449 38.8188 78.5684 38.9305 78.7546 38.9677C78.7546 38.8933 78.7546 38.8188 78.7546 38.7443V33.3069H78.7918Z" fill="url(#paint4_linear_932_22255)" stroke="#64B5C8" stroke-linejoin="round"/>
<path d="M70.9336 36.4352C70.9336 34.8711 72.1998 34.3124 73.8012 35.2435C75.3654 36.1373 76.6689 38.1484 76.6689 39.7498C76.6689 41.3139 75.4027 41.8726 73.8012 40.9415C72.2371 40.0477 70.9336 38.0366 70.9336 36.4352Z" fill="url(#paint5_linear_932_22255)" stroke="#64B5C8" stroke-linejoin="round"/>
<path d="M70.7851 35.2445C70.9341 34.9838 71.1575 34.7603 71.4182 34.6114C72.0886 34.2017 73.0569 34.3134 74.0252 34.8721C75.7383 35.8776 77.1163 38.0004 77.1163 39.7508C77.1163 40.6073 76.7811 41.2405 76.2225 41.6129C75.5521 42.0225 74.5838 41.9108 73.6155 41.3522C71.9024 40.3466 70.5244 38.2238 70.5244 36.4735C70.5244 35.9893 70.6361 35.5796 70.8224 35.2445H70.7851ZM75.999 40.4956C76.148 40.2722 76.1852 39.9742 76.1852 39.7135C76.1852 38.2983 74.9935 36.399 73.541 35.5797C72.8334 35.17 72.2376 35.0955 71.8279 35.319C71.4182 35.5424 71.3437 36.0266 71.3437 36.399C71.3437 37.8142 72.5355 39.6763 73.9879 40.5329C74.6583 40.9425 75.3286 41.017 75.7011 40.7936C75.85 40.7191 75.9245 40.6073 75.999 40.4956Z" fill="url(#paint6_linear_932_22255)" stroke="#64B5C8" stroke-linejoin="round"/>
<path d="M73.7266 35.2789C75.2908 36.1727 76.5943 38.1838 76.5943 39.7852C76.5943 40.4556 76.3708 40.9397 75.9612 41.2004L77.8977 40.3439C77.9722 40.3439 78.0467 40.2694 78.1212 40.2321L78.2702 40.1576L78.3819 40.0832C78.8288 39.8225 78.9778 39.4128 78.9778 38.7052C78.9778 37.141 77.7115 35.13 76.1101 34.1989C75.328 33.752 74.6577 33.6775 74.1363 33.8637C74.1363 33.8637 73.9873 33.9382 73.9501 33.9382L71.79 34.9065C72.3114 34.7203 72.9818 34.832 73.7266 35.2417V35.2789Z" fill="url(#paint7_linear_932_22255)"/>
<path d="M74.1363 33.8637C74.6577 33.6775 75.328 33.752 76.1101 34.1989C77.7115 35.13 78.9778 37.141 78.9778 38.7052C78.9778 39.4128 78.8288 39.8225 78.3819 40.0832L78.2702 40.1576L78.1212 40.2321C78.0467 40.2694 77.9722 40.3439 77.8977 40.3439L75.9612 41.2004C76.3708 40.9397 76.5943 40.4556 76.5943 39.7852C76.5943 38.1838 75.2908 36.1727 73.7266 35.2789V35.2417C72.9818 34.832 72.3114 34.7203 71.79 34.9065L73.9501 33.9382C73.9873 33.9382 74.1363 33.8637 74.1363 33.8637ZM74.1363 33.8637H74.248" stroke="#64B5C8" stroke-linejoin="round"/>
<path d="M71.6045 34.535L73.7645 33.5667L73.9507 33.4922H74.0252C74.6956 33.2315 75.4777 33.3804 76.297 33.8646C78.0101 34.8701 79.3881 36.9929 79.3881 38.7433C79.3881 39.3392 79.3136 40.084 78.606 40.4937L78.3081 40.6427C78.3081 40.6427 78.1219 40.7544 78.0101 40.7916L75.8129 41.7599L75.3287 41.1268L75.7011 40.8661C76.0735 40.6054 76.148 40.1585 76.148 39.8233C76.148 38.4081 74.9563 36.5088 73.5038 35.6895C72.908 35.3543 72.3493 35.2426 71.9397 35.3915L71.6045 34.5722V34.535ZM74.2859 34.2743L74.137 34.3487L73.4294 34.6467C73.4294 34.6467 73.7645 34.7956 73.9135 34.8701C75.6266 35.8757 77.0046 37.9985 77.0046 39.7488C77.0046 39.9351 77.0046 40.084 76.9674 40.233L77.7122 39.8978C77.7122 39.8978 77.8612 39.8233 77.8984 39.8233L78.1963 39.6744C78.1963 39.6744 78.5315 39.4137 78.5315 38.6688C78.5315 37.2536 77.3398 35.3543 75.8873 34.535C75.3287 34.1998 74.7701 34.088 74.3604 34.1998H74.2487L74.2859 34.2743Z" fill="url(#paint8_linear_932_22255)" stroke="#64B5C8" stroke-linejoin="round"/>
<path d="M73.3526 46.1533C74.9168 47.0471 76.2203 49.0582 76.2203 50.6596V66.9716C76.2203 67.7165 75.9223 68.2379 75.4754 68.4613L78.0451 67.2323L78.3058 67.1206C78.9017 66.8971 79.2741 66.413 79.2741 65.5564V49.2444C79.2741 47.6802 77.9706 45.6691 76.4065 44.7381C75.6244 44.2912 75.103 44.1422 74.5816 44.3284H74.4326V44.4029C74.4326 44.4029 74.3954 44.4029 74.3581 44.4401L71.416 45.8181C71.9374 45.5946 72.645 45.7064 73.4271 46.1533H73.3526Z" fill="url(#paint9_linear_932_22255)" stroke="#64B5C8" stroke-linejoin="round"/>
<path d="M71.1562 45.4094L74.3591 43.9197C75.1412 43.6218 75.8488 43.9197 76.5564 44.3666C78.2695 45.3722 79.6475 47.495 79.6475 49.2453V65.5574C79.6475 66.7864 79.0143 67.3078 78.4557 67.5312L75.6625 68.872L75.2901 68.0899C75.737 67.8664 75.8115 67.3823 75.8115 66.9726V50.6606C75.8115 49.2454 74.5825 47.346 73.1673 46.5267C72.5342 46.1543 71.9383 46.0425 71.5287 46.2287L71.1562 45.4467V45.4094ZM78.6047 66.265C78.6047 66.265 78.7536 65.8553 78.7536 65.5202V49.2081C78.7536 47.7929 77.5247 45.8936 76.1095 45.0742C75.4391 44.6646 75.0294 44.5901 74.657 44.7018L74.508 44.7763L73.0184 45.4839C73.0184 45.4839 73.3908 45.6329 73.5397 45.7446C75.2529 46.7501 76.6308 48.8729 76.6308 50.6233V66.9354C76.6308 66.9354 76.6308 67.2333 76.6308 67.3823L78.0833 66.7119C78.0833 66.7119 78.493 66.5257 78.6419 66.265H78.6047Z" fill="url(#paint10_linear_932_22255)" stroke="#64B5C8" stroke-linejoin="round"/>
<path d="M70.5234 63.6574V47.3454C70.5234 45.7812 71.7897 45.2226 73.3538 46.1536C74.918 47.0474 76.2215 49.0585 76.2215 50.6599V66.972C76.2215 68.5362 74.9553 69.0948 73.3911 68.1637C71.8269 67.2699 70.5234 65.2589 70.5234 63.6574Z" fill="url(#paint11_linear_932_22255)" stroke="#64B5C8" stroke-linejoin="round"/>
<path d="M70.3369 46.1156C70.4858 45.8549 70.7093 45.6314 70.97 45.4825C71.6403 45.0728 72.6086 45.1845 73.5769 45.7431C75.2901 46.7487 76.668 48.8715 76.668 50.6219V66.9339C76.668 67.7905 76.3701 68.4236 75.7742 68.796C75.1039 69.2057 74.1356 69.094 73.1673 68.5353C71.4541 67.5298 70.0762 65.407 70.0762 63.6566V47.3446C70.0762 46.8604 70.1507 46.4508 70.3369 46.1156ZM75.6253 67.716C75.7742 67.4926 75.8115 67.1946 75.8115 66.9339V50.6219C75.8115 49.2067 74.5825 47.3073 73.1673 46.488C72.4969 46.1156 71.8266 46.0038 71.4541 46.2273C71.0445 46.4508 70.97 46.9349 70.97 47.3073V63.6194C70.97 65.0346 72.199 66.8967 73.6142 67.7533C74.3218 68.1629 74.9176 68.2374 75.3273 68.0139C75.4763 67.9395 75.5508 67.8277 75.6253 67.716Z" fill="url(#paint12_linear_932_22255)" stroke="#64B5C8" stroke-linejoin="round"/>
<path d="M73.4639 72.707C75.0281 73.6008 76.3316 75.6119 76.3316 77.2133V93.5253C76.3316 94.2702 76.0336 94.7916 75.5867 95.015L78.1564 93.786L78.4171 93.6743C79.013 93.4508 79.3854 92.9295 79.3854 92.1101V75.7981C79.3854 74.2339 78.082 72.2228 76.5178 71.2918C75.7357 70.8449 75.2143 70.6959 74.6929 70.8821H74.544V70.9566C74.544 70.9566 74.5067 70.9566 74.4695 70.9938L71.5273 72.3718C72.0487 72.1484 72.7563 72.2601 73.5384 72.707H73.4639Z" fill="url(#paint13_linear_932_22255)" stroke="#64B5C8" stroke-linejoin="round"/>
<path d="M71.2676 71.9612L74.4704 70.4715C75.2525 70.1736 75.9601 70.4715 76.6677 70.9184C78.3808 71.9239 79.7588 74.0467 79.7588 75.7971V92.1092C79.7588 93.3382 79.1257 93.8595 78.567 94.083L75.7739 95.4237L75.4015 94.6416C75.8484 94.4182 75.9228 93.934 75.9228 93.5244V77.2123C75.9228 75.7971 74.6939 73.8978 73.2787 73.0784C72.6455 72.706 72.0497 72.5943 71.64 72.7805L71.2676 71.9984V71.9612ZM78.7532 92.854C78.7532 92.854 78.9022 92.4444 78.9022 92.1092V75.7971C78.9022 74.3819 77.6732 72.4826 76.258 71.6632C75.5877 71.2536 75.178 71.1791 74.8056 71.2908L74.6566 71.3653L73.1669 72.0729C73.1669 72.0729 73.5393 72.2219 73.6883 72.3336C75.4015 73.3391 76.7794 75.4619 76.7794 77.2123V93.5244C76.7794 93.5244 76.7794 93.8223 76.7794 93.9713L78.2319 93.3009C78.4181 93.2264 78.6415 93.1147 78.7905 92.854H78.7532Z" fill="url(#paint14_linear_932_22255)" stroke="#64B5C8" stroke-linejoin="round"/>
<path d="M70.6348 90.2111V73.8991C70.6348 72.3349 71.901 71.7763 73.4652 72.7073C75.0293 73.6012 76.3328 75.6122 76.3328 77.2136V93.5257C76.3328 95.0899 75.0666 95.6485 73.5024 94.7174C71.9382 93.8236 70.6348 91.8125 70.6348 90.2111Z" fill="url(#paint15_linear_932_22255)" stroke="#64B5C8" stroke-linejoin="round"/>
<path d="M70.4863 72.7084C70.6352 72.4477 70.8587 72.2242 71.1194 72.0752C71.7898 71.6656 72.7581 71.7773 73.7263 72.3359C75.4395 73.3415 76.8174 75.4643 76.8174 77.2146V93.5267C76.8174 94.3833 76.5195 95.0164 75.9236 95.3888C75.2533 95.7985 74.285 95.6868 73.3167 95.1281C71.6035 94.1226 70.2256 91.9998 70.2256 90.2494V73.9373C70.2256 73.4532 70.3001 73.0435 70.4863 72.7084ZM75.7374 94.3088C75.8864 94.0853 75.9236 93.7874 75.9236 93.5267V77.2146C75.9236 75.7994 74.6946 73.9001 73.2794 73.0808C72.6091 72.6711 71.9387 72.5966 71.5663 72.8201C71.1566 73.0435 71.0822 73.5277 71.0822 73.9001V90.2121C71.0822 91.6273 72.3111 93.4895 73.7263 94.346C74.4339 94.7557 75.0298 94.8302 75.4395 94.6067C75.5885 94.5322 75.6629 94.4205 75.7374 94.3088Z" fill="url(#paint16_linear_932_22255)" stroke="#64B5C8" stroke-linejoin="round"/>
<path d="M251.819 -98.4181L251.931 264.432C251.968 274.301 247.052 283.5 238.822 288.937L98.7539 369.604C90.5978 373.216 80.7659 369.194 80.7287 359.958L80.468 -1.62581C80.4307 -11.3088 85.2722 -20.3586 93.3538 -25.7215L233.272 -106.425C243.44 -112.123 251.26 -106.984 251.856 -98.3809L251.819 -98.4181Z" fill="url(#paint17_linear_932_22255)" stroke="#64B5C8" stroke-linejoin="round"/>
<path d="M86.0177 -14.8488C88.2522 -18.722 91.3433 -22.0738 95.2165 -24.6063L235.135 -105.347C240.126 -108.14 244.967 -108.587 248.729 -106.539C252.006 -104.751 254.091 -101.251 254.352 -96.9677L254.464 265.92C254.501 275.938 249.511 285.248 241.168 290.76L101.101 371.464C96.4455 373.512 91.2316 373.251 87.3957 370.793C84.1928 368.708 82.4425 365.393 82.4052 361.446L82.1445 -0.138183C82.1445 -5.38932 83.4852 -10.4543 86.0177 -14.8116V-14.8488ZM253.496 -96.9305C253.235 -100.915 251.336 -104.155 248.319 -105.794C244.855 -107.693 240.312 -107.247 235.582 -104.602L95.6634 -23.8614C87.6936 -18.573 82.9639 -9.70941 83.0011 -0.138183L83.2618 361.446C83.2618 365.095 84.9004 368.149 87.8426 370.049C91.4178 372.358 96.3338 372.618 100.654 370.682L240.684 290.015C248.803 284.652 253.607 275.64 253.57 265.92L253.458 -96.9305H253.496Z" fill="url(#paint18_linear_932_22255)" stroke="#64B5C8" stroke-linejoin="round"/>
<path d="M103.073 360.069L238.15 281.637C243.923 277.838 247.349 271.395 247.349 264.468L247.088 -91.1943C246.679 -97.1903 241.204 -100.803 234.091 -96.8179L206.569 -80.8038V-75.9623C206.569 -70.3015 203.18 -63.7096 198.934 -61.2144L137.969 -25.7971C133.723 -23.3391 130.26 -25.9088 130.26 -31.6069V-36.4484L99.1252 -18.3487C93.4644 -14.5872 90.0754 -8.25608 90.1126 -1.47801L90.485 353.291C90.485 359.771 97.71 363.607 103.11 360.069H103.073Z" fill="url(#paint19_linear_932_22255)" stroke="#64B5C8" stroke-linejoin="round"/>
<path d="M229.212 70.399L103.11 142.425C99.7958 144.325 97.1516 142.276 97.1889 137.882C97.1889 133.487 99.9075 128.422 103.185 126.523L229.287 54.4966C232.601 52.5972 235.245 54.6456 235.208 59.0401C235.208 63.4347 232.49 68.4996 229.212 70.399Z" fill="url(#paint20_linear_932_22255)" stroke="#64B5C8" stroke-linejoin="round"/>
<path d="M103.296 148.16C102.551 148.16 101.843 147.974 101.21 147.602C99.5717 146.633 98.6406 144.548 98.6406 141.829C98.6406 137.025 101.546 131.625 105.195 129.539L231.297 57.5128C233.085 56.5073 234.835 56.3955 236.288 57.2149C237.926 58.1832 238.857 60.2687 238.857 62.9874C238.857 67.7916 235.952 73.1917 232.303 75.2773L106.201 147.304C105.195 147.862 104.227 148.16 103.296 148.16Z" fill="url(#paint21_linear_932_22255)" stroke="#64B5C8" stroke-linejoin="round"/>
<path d="M273.344 233.552C271.482 233.552 269.695 233.179 268.354 232.397L110.745 142.495C109.665 141.861 108.958 141.005 108.697 140.037H108.548V139.255L108.771 134.636L115.661 132.774L221.317 73.1125C224.818 71.1387 229.845 70.9524 232.825 72.6283L391.961 160.445L391.812 166.59C391.514 167.931 390.471 169.16 388.795 170.091L279.824 231.987C277.925 233.067 275.542 233.626 273.307 233.626L273.344 233.552Z" fill="url(#paint22_linear_932_22255)" stroke="#64B5C8" stroke-linejoin="round"/>
<path d="M390.209 159.366L232.6 69.4635C229.881 67.8994 225.114 68.1228 221.874 69.9477L112.233 131.881C109.031 133.706 108.621 136.425 111.34 137.952L268.948 227.854C271.667 229.419 276.434 229.195 279.674 227.37L386.112 167.261C389.315 165.437 392.965 160.893 390.246 159.366H390.209Z" fill="url(#paint23_linear_932_22255)" stroke="#64B5C8" stroke-linejoin="round"/>
<path d="M389.837 161.973L232.228 72.071C229.51 70.5068 224.743 70.7302 221.503 72.5551L111.862 134.489C108.659 136.314 110.074 137.692 112.793 139.219L267.72 226.216C270.439 227.78 275.69 229.94 278.893 228.153L383.022 168.826C386.225 167.001 392.556 163.575 389.874 162.011L389.837 161.973Z" fill="url(#paint24_linear_932_22255)" stroke="#64B5C8" stroke-linejoin="round"/>
<path d="M273.53 229.681C271.668 229.681 269.88 229.308 268.539 228.526L110.931 138.624C109.515 137.804 108.733 136.65 108.733 135.309C108.733 133.745 109.888 132.218 111.862 131.101L221.54 69.1672C225.041 67.1933 230.068 67.0071 233.048 68.683L390.656 158.586C391.55 159.07 392.034 159.926 391.997 160.895C391.997 163.241 389.167 166.406 386.485 167.896L280.047 228.005C278.148 229.085 275.764 229.644 273.53 229.644V229.681ZM228.057 69.2417C226.083 69.2417 223.961 69.7258 222.322 70.6196L112.644 132.553C111.229 133.373 110.372 134.415 110.372 135.346C110.372 136.24 111.117 136.873 111.75 137.209L269.359 227.111C271.817 228.526 276.323 228.303 279.265 226.627L385.703 166.518C388.087 165.177 390.358 162.459 390.358 160.932C390.358 160.522 390.209 160.261 389.837 160.038L232.228 70.1355C231.148 69.5024 229.659 69.2044 228.057 69.2044V69.2417Z" fill="url(#paint25_linear_932_22255)" stroke="#64B5C8" stroke-linejoin="round"/>
<path d="M177.558 121.045L172.493 118.177C170.78 117.209 170.705 115.607 172.381 114.676L186.496 106.669C188.172 105.701 190.928 105.738 192.678 106.744L197.743 109.611L177.558 121.082V121.045Z" fill="url(#paint26_linear_932_22255)" stroke="#64B5C8" stroke-linejoin="round"/>
<path d="M177.557 118.81L172.082 115.682C170.965 115.049 170.332 114.118 170.332 113.15C170.332 112.181 170.928 111.325 171.971 110.729L186.085 102.722C188.022 101.642 191.076 101.642 193.05 102.796L199.381 106.372L177.557 118.773V118.81ZM189.474 103.578C188.506 103.578 187.575 103.765 186.905 104.174L172.79 112.181C172.269 112.479 171.971 112.852 171.971 113.187C171.971 113.559 172.306 113.969 172.902 114.267L177.557 116.911L196.104 106.372L192.268 104.212C191.523 103.765 190.48 103.578 189.512 103.578H189.474Z" fill="url(#paint27_linear_932_22255)" stroke="#64B5C8" stroke-linejoin="round"/>
<path d="M199.866 110.767L208.022 115.422L187.837 126.892L179.681 122.237L199.866 110.767Z" fill="url(#paint28_linear_932_22255)" stroke="#64B5C8" stroke-linejoin="round"/>
<path d="M187.836 124.659L178.004 119.073L199.828 106.671L209.66 112.257L187.836 124.659ZM181.318 119.073L187.836 122.797L206.382 112.257L199.865 108.533L181.318 119.073Z" fill="url(#paint29_linear_932_22255)" stroke="#64B5C8" stroke-linejoin="round"/>
<path d="M194.986 130.949L189.958 128.081L210.143 116.61L215.171 119.478C216.884 120.446 216.959 122.048 215.283 122.979L201.168 130.986C199.492 131.954 196.736 131.917 194.986 130.911V130.949Z" fill="url(#paint30_linear_932_22255)" stroke="#64B5C8" stroke-linejoin="round"/>
<path d="M198.152 129.349C196.886 129.349 195.583 129.051 194.577 128.492L188.32 124.917L210.144 112.516L215.544 115.607C216.662 116.24 217.295 117.171 217.295 118.139C217.295 119.107 216.699 119.964 215.656 120.56L201.541 128.567C200.61 129.088 199.381 129.386 198.152 129.386V129.349ZM195.359 127.077C196.849 127.934 199.307 127.934 200.722 127.152L214.837 119.145C215.358 118.847 215.656 118.474 215.656 118.139C215.656 117.767 215.321 117.357 214.725 117.059L210.107 114.452L191.56 124.992L195.322 127.115L195.359 127.077Z" fill="url(#paint31_linear_932_22255)" stroke="#64B5C8" stroke-linejoin="round"/>
<path d="M279.303 200.931C281.686 202.309 280.979 204.022 277.85 205.847C274.796 207.635 271.705 208.119 269.322 206.741C266.976 205.4 267.72 203.613 270.812 201.825C273.94 200 276.919 199.553 279.303 200.931ZM270.29 206.182C272.152 207.225 274.536 206.816 276.956 205.363C279.489 203.911 280.122 202.57 278.297 201.49C276.435 200.447 274.126 200.82 271.631 202.309C269.173 203.724 268.428 205.102 270.29 206.182Z" fill="url(#paint32_linear_932_22255)" stroke="#64B5C8" stroke-linejoin="round"/>
<path d="M271.446 196.463C273.83 197.84 273.122 199.554 269.994 201.378C266.94 203.166 263.849 203.65 261.503 202.272C259.156 200.932 259.901 199.144 262.992 197.356C266.121 195.531 269.1 195.085 271.483 196.463H271.446ZM262.434 201.676C264.296 202.719 266.679 202.31 269.1 200.857C271.632 199.405 272.265 198.064 270.441 196.984C268.579 195.941 266.27 196.314 263.774 197.803C261.316 199.218 260.571 200.596 262.434 201.676Z" fill="url(#paint33_linear_932_22255)" stroke="#64B5C8" stroke-linejoin="round"/>
<path d="M263.587 191.956C265.97 193.334 265.263 195.047 262.134 196.872C259.081 198.659 255.99 199.143 253.606 197.765C251.26 196.425 252.005 194.637 255.096 192.85C258.224 191.025 261.203 190.578 263.587 191.956ZM254.574 197.207C256.436 198.25 258.82 197.84 261.241 196.387C263.773 194.935 264.406 193.594 262.581 192.514C260.757 191.434 258.41 191.844 255.915 193.334C253.457 194.749 252.712 196.127 254.574 197.207Z" fill="url(#paint34_linear_932_22255)" stroke="#64B5C8" stroke-linejoin="round"/>
<path d="M255.728 187.486C258.111 188.864 257.403 190.577 254.275 192.402C251.221 194.19 248.13 194.674 245.747 193.296C243.4 191.955 244.145 190.167 247.236 188.38C250.365 186.555 253.344 186.108 255.728 187.486ZM246.752 192.737C248.614 193.78 250.998 193.37 253.419 191.918C255.951 190.465 256.584 189.125 254.759 188.045C252.897 187.002 250.625 187.374 248.093 188.864C245.635 190.279 244.89 191.657 246.752 192.737Z" fill="url(#paint35_linear_932_22255)" stroke="#64B5C8" stroke-linejoin="round"/>
<path d="M244.369 180.968C246.753 182.346 246.045 184.059 242.917 185.884C239.863 187.672 236.772 188.156 234.388 186.778C232.042 185.437 232.787 183.65 235.878 181.862C239.006 180.037 241.986 179.59 244.369 180.968ZM235.357 186.22C237.219 187.262 239.602 186.853 242.023 185.4C244.555 183.948 245.188 182.607 243.364 181.527C241.502 180.484 239.192 180.857 236.697 182.346C234.239 183.762 233.494 185.139 235.357 186.22Z" fill="url(#paint36_linear_932_22255)" stroke="#64B5C8" stroke-linejoin="round"/>
<path d="M236.512 176.499C238.895 177.877 238.188 179.59 235.059 181.415C232.005 183.202 228.914 183.686 226.531 182.308C224.185 180.968 224.929 179.18 228.021 177.392C231.149 175.568 234.128 175.121 236.512 176.499ZM227.536 181.75C229.398 182.793 231.782 182.383 234.203 180.93C236.735 179.478 237.368 178.137 235.543 177.057C233.681 176.015 231.372 176.387 228.877 177.877C226.419 179.292 225.674 180.67 227.536 181.75Z" fill="url(#paint37_linear_932_22255)" stroke="#64B5C8" stroke-linejoin="round"/>
<path d="M228.653 171.993C231.037 173.334 230.329 175.084 227.201 176.909C224.147 178.696 221.056 179.181 218.71 177.803C216.363 176.462 217.108 174.674 220.199 172.887C223.328 171.062 226.307 170.615 228.69 171.993H228.653ZM219.678 177.244C221.54 178.287 223.923 177.877 226.344 176.425C228.877 174.972 229.51 173.631 227.685 172.551C225.823 171.509 223.551 171.881 221.019 173.371C218.561 174.786 217.816 176.164 219.678 177.244Z" fill="url(#paint38_linear_932_22255)" stroke="#64B5C8" stroke-linejoin="round"/>
<path d="M220.796 167.523C223.179 168.901 222.472 170.614 219.343 172.439C216.289 174.227 213.198 174.711 210.852 173.333C208.506 171.992 209.251 170.204 212.342 168.417C215.47 166.592 218.45 166.145 220.833 167.523H220.796ZM211.82 172.774C213.683 173.817 216.066 173.407 218.487 171.955C221.019 170.502 221.652 169.162 219.827 168.082C218.003 167.002 215.656 167.411 213.161 168.901C210.703 170.316 209.958 171.694 211.82 172.774Z" fill="url(#paint39_linear_932_22255)" stroke="#64B5C8" stroke-linejoin="round"/>
<path d="M209.438 161.005C211.822 162.346 211.114 164.097 207.986 165.921C204.932 167.709 201.841 168.193 199.495 166.815C197.148 165.475 197.893 163.687 200.984 161.899C204.113 160.074 207.092 159.628 209.476 161.005H209.438ZM200.463 166.257C202.325 167.299 204.709 166.89 207.129 165.437C209.662 163.985 210.295 162.644 208.47 161.564C206.608 160.521 204.299 160.894 201.804 162.383C199.346 163.799 198.601 165.177 200.463 166.257Z" fill="url(#paint40_linear_932_22255)" stroke="#64B5C8" stroke-linejoin="round"/>
<path d="M201.578 156.536C203.961 157.914 203.254 159.627 200.126 161.452C197.072 163.239 193.981 163.723 191.634 162.346C189.288 161.005 190.033 159.217 193.124 157.43C196.252 155.605 199.232 155.158 201.615 156.536H201.578ZM192.603 161.787C194.465 162.83 196.848 162.42 199.269 160.968C201.801 159.515 202.435 158.174 200.61 157.094C198.748 156.052 196.439 156.424 193.943 157.914C191.485 159.329 190.741 160.707 192.603 161.787Z" fill="url(#paint41_linear_932_22255)" stroke="#64B5C8" stroke-linejoin="round"/>
<path d="M193.758 152.069C196.141 153.447 195.434 155.16 192.305 156.985C189.252 158.773 186.16 159.257 183.777 157.879C181.431 156.538 182.176 154.75 185.267 152.963C188.395 151.138 191.374 150.691 193.758 152.069ZM184.745 157.283C186.607 158.326 188.991 157.916 191.412 156.464C193.944 155.011 194.577 153.67 192.752 152.59C190.89 151.548 188.581 151.92 186.086 153.41C183.628 154.825 182.883 156.203 184.745 157.283Z" fill="url(#paint42_linear_932_22255)" stroke="#64B5C8" stroke-linejoin="round"/>
<path d="M185.899 147.563C188.283 148.941 187.575 150.654 184.447 152.479C181.393 154.267 178.302 154.751 175.956 153.373C173.609 152.032 174.354 150.245 177.445 148.457C180.574 146.632 183.553 146.185 185.937 147.563H185.899ZM176.887 152.814C178.749 153.857 181.132 153.447 183.553 151.995C186.085 150.542 186.719 149.202 184.894 148.122C183.032 147.079 180.76 147.451 178.227 148.941C175.769 150.356 175.025 151.734 176.887 152.814Z" fill="url(#paint43_linear_932_22255)" stroke="#64B5C8" stroke-linejoin="round"/>
<path d="M174.54 141.083C176.924 142.461 176.216 144.174 173.088 145.999C170.034 147.786 166.943 148.27 164.559 146.892C162.213 145.552 162.958 143.764 166.049 141.976C169.177 140.152 172.157 139.705 174.54 141.083ZM165.527 146.297C167.39 147.339 169.773 146.93 172.194 145.477C174.726 144.025 175.359 142.684 173.535 141.604C171.672 140.561 169.363 140.934 166.868 142.423C164.41 143.839 163.665 145.217 165.527 146.297Z" fill="url(#paint44_linear_932_22255)" stroke="#64B5C8" stroke-linejoin="round"/>
<path d="M166.683 136.577C169.067 137.955 168.359 139.668 165.231 141.493C162.177 143.28 159.086 143.765 156.74 142.387C154.394 141.046 155.138 139.258 158.23 137.471C161.358 135.646 164.337 135.199 166.721 136.577H166.683ZM157.671 141.828C159.533 142.871 161.916 142.461 164.337 141.009C166.87 139.556 167.503 138.215 165.678 137.135C163.816 136.093 161.544 136.465 159.012 137.955C156.554 139.37 155.809 140.748 157.671 141.828Z" fill="url(#paint45_linear_932_22255)" stroke="#64B5C8" stroke-linejoin="round"/>
<path d="M158.824 132.106C161.208 133.484 160.5 135.197 157.372 137.022C154.318 138.81 151.227 139.294 148.88 137.916C146.534 136.575 147.279 134.788 150.37 133C153.498 131.175 156.478 130.728 158.861 132.106H158.824ZM149.811 137.357C151.674 138.4 154.057 137.99 156.478 136.538C159.01 135.085 159.643 133.745 157.819 132.665C155.956 131.622 153.647 131.994 151.152 133.484C148.694 134.899 147.949 136.277 149.811 137.357Z" fill="url(#paint46_linear_932_22255)" stroke="#64B5C8" stroke-linejoin="round"/>
<path d="M150.967 127.6C153.35 128.978 152.643 130.691 149.514 132.516C146.46 134.304 143.369 134.788 141.023 133.41C138.677 132.069 139.422 130.282 142.513 128.494C145.641 126.669 148.62 126.222 151.004 127.6H150.967ZM141.991 132.851C143.853 133.894 146.237 133.484 148.658 132.032C151.19 130.58 151.823 129.239 149.998 128.159C148.136 127.116 145.827 127.488 143.332 128.978C140.874 130.393 140.129 131.771 141.991 132.851Z" fill="url(#paint47_linear_932_22255)" stroke="#64B5C8" stroke-linejoin="round"/>
</g>
<defs>
<linearGradient id="paint0_linear_932_22255" x1="162.064" y1="-115.433" x2="162.064" y2="374.034" gradientUnits="userSpaceOnUse">
<stop stop-color="#A8C9D1"/>
<stop offset="1" stop-color="white"/>
</linearGradient>
<linearGradient id="paint1_linear_932_22255" x1="162.065" y1="-116.175" x2="162.065" y2="374.739" gradientUnits="userSpaceOnUse">
<stop stop-color="#A8C9D1"/>
<stop offset="1" stop-color="white"/>
</linearGradient>
<linearGradient id="paint2_linear_932_22255" x1="76.3344" y1="28.3867" x2="76.3344" y2="40.427" gradientUnits="userSpaceOnUse">
<stop stop-color="#A8C9D1"/>
<stop offset="1" stop-color="white"/>
</linearGradient>
<linearGradient id="paint3_linear_932_22255" x1="77.1527" y1="28.4658" x2="77.1527" y2="39.4523" gradientUnits="userSpaceOnUse">
<stop stop-color="#A8C9D1"/>
<stop offset="1" stop-color="white"/>
</linearGradient>
<linearGradient id="paint4_linear_932_22255" x1="77.1159" y1="28.0186" x2="77.1159" y2="39.7871" gradientUnits="userSpaceOnUse">
<stop stop-color="#A8C9D1"/>
<stop offset="1" stop-color="white"/>
</linearGradient>
<linearGradient id="paint5_linear_932_22255" x1="73.8012" y1="34.791" x2="73.8012" y2="41.394" gradientUnits="userSpaceOnUse">
<stop stop-color="#A8C9D1"/>
<stop offset="1" stop-color="white"/>
</linearGradient>
<linearGradient id="paint6_linear_932_22255" x1="73.8203" y1="34.3652" x2="73.8203" y2="41.859" gradientUnits="userSpaceOnUse">
<stop stop-color="#A8C9D1"/>
<stop offset="1" stop-color="white"/>
</linearGradient>
<linearGradient id="paint7_linear_932_22255" x1="75.3839" y1="33.7686" x2="75.3839" y2="41.2004" gradientUnits="userSpaceOnUse">
<stop stop-color="#A8C9D1"/>
<stop offset="1" stop-color="white"/>
</linearGradient>
<linearGradient id="paint8_linear_932_22255" x1="75.4963" y1="33.3652" x2="75.4963" y2="41.7599" gradientUnits="userSpaceOnUse">
<stop stop-color="#A8C9D1"/>
<stop offset="1" stop-color="white"/>
</linearGradient>
<linearGradient id="paint9_linear_932_22255" x1="75.3451" y1="44.25" x2="75.3451" y2="68.4613" gradientUnits="userSpaceOnUse">
<stop stop-color="#A8C9D1"/>
<stop offset="1" stop-color="white"/>
</linearGradient>
<linearGradient id="paint10_linear_932_22255" x1="75.4019" y1="43.7998" x2="75.4019" y2="68.872" gradientUnits="userSpaceOnUse">
<stop stop-color="#A8C9D1"/>
<stop offset="1" stop-color="white"/>
</linearGradient>
<linearGradient id="paint11_linear_932_22255" x1="73.3725" y1="45.7012" x2="73.3725" y2="68.6162" gradientUnits="userSpaceOnUse">
<stop stop-color="#A8C9D1"/>
<stop offset="1" stop-color="white"/>
</linearGradient>
<linearGradient id="paint12_linear_932_22255" x1="73.3721" y1="45.2363" x2="73.3721" y2="69.0422" gradientUnits="userSpaceOnUse">
<stop stop-color="#A8C9D1"/>
<stop offset="1" stop-color="white"/>
</linearGradient>
<linearGradient id="paint13_linear_932_22255" x1="75.4564" y1="70.8037" x2="75.4564" y2="95.015" gradientUnits="userSpaceOnUse">
<stop stop-color="#A8C9D1"/>
<stop offset="1" stop-color="white"/>
</linearGradient>
<linearGradient id="paint14_linear_932_22255" x1="75.5132" y1="70.3516" x2="75.5132" y2="95.4237" gradientUnits="userSpaceOnUse">
<stop stop-color="#A8C9D1"/>
<stop offset="1" stop-color="white"/>
</linearGradient>
<linearGradient id="paint15_linear_932_22255" x1="73.4838" y1="72.2549" x2="73.4838" y2="95.1699" gradientUnits="userSpaceOnUse">
<stop stop-color="#A8C9D1"/>
<stop offset="1" stop-color="white"/>
</linearGradient>
<linearGradient id="paint16_linear_932_22255" x1="73.5215" y1="71.8291" x2="73.5215" y2="95.6349" gradientUnits="userSpaceOnUse">
<stop stop-color="#A8C9D1"/>
<stop offset="1" stop-color="white"/>
</linearGradient>
<linearGradient id="paint17_linear_932_22255" x1="166.199" y1="-108.828" x2="166.199" y2="370.92" gradientUnits="userSpaceOnUse">
<stop stop-color="#A8C9D1"/>
<stop offset="1" stop-color="white"/>
</linearGradient>
<linearGradient id="paint18_linear_932_22255" x1="168.304" y1="-107.811" x2="168.304" y2="372.837" gradientUnits="userSpaceOnUse">
<stop stop-color="#A8C9D1"/>
<stop offset="1" stop-color="white"/>
</linearGradient>
<linearGradient id="paint19_linear_932_22255" x1="168.731" y1="-98.4951" x2="168.731" y2="361.416" gradientUnits="userSpaceOnUse">
<stop stop-color="#A8C9D1"/>
<stop offset="1" stop-color="white"/>
</linearGradient>
<linearGradient id="paint20_linear_932_22255" x1="166.199" y1="53.7871" x2="166.199" y2="143.135" gradientUnits="userSpaceOnUse">
<stop stop-color="#A8C9D1"/>
<stop offset="1" stop-color="white"/>
</linearGradient>
<linearGradient id="paint21_linear_932_22255" x1="168.749" y1="56.6709" x2="168.749" y2="148.16" gradientUnits="userSpaceOnUse">
<stop stop-color="#A8C9D1"/>
<stop offset="1" stop-color="white"/>
</linearGradient>
<linearGradient id="paint22_linear_932_22255" x1="250.254" y1="71.4902" x2="250.254" y2="233.626" gradientUnits="userSpaceOnUse">
<stop stop-color="#A8C9D1"/>
<stop offset="1" stop-color="white"/>
</linearGradient>
<linearGradient id="paint23_linear_932_22255" x1="250.368" y1="68.4209" x2="250.368" y2="228.897" gradientUnits="userSpaceOnUse">
<stop stop-color="#A8C9D1"/>
<stop offset="1" stop-color="white"/>
</linearGradient>
<linearGradient id="paint24_linear_932_22255" x1="250.271" y1="71.0283" x2="250.271" y2="228.827" gradientUnits="userSpaceOnUse">
<stop stop-color="#A8C9D1"/>
<stop offset="1" stop-color="white"/>
</linearGradient>
<linearGradient id="paint25_linear_932_22255" x1="250.366" y1="67.5449" x2="250.366" y2="229.681" gradientUnits="userSpaceOnUse">
<stop stop-color="#A8C9D1"/>
<stop offset="1" stop-color="white"/>
</linearGradient>
<linearGradient id="paint26_linear_932_22255" x1="184.454" y1="105.966" x2="184.454" y2="121.082" gradientUnits="userSpaceOnUse">
<stop stop-color="#A8C9D1"/>
<stop offset="1" stop-color="white"/>
</linearGradient>
<linearGradient id="paint27_linear_932_22255" x1="184.856" y1="101.921" x2="184.856" y2="118.81" gradientUnits="userSpaceOnUse">
<stop stop-color="#A8C9D1"/>
<stop offset="1" stop-color="white"/>
</linearGradient>
<linearGradient id="paint28_linear_932_22255" x1="193.851" y1="110.767" x2="193.851" y2="126.892" gradientUnits="userSpaceOnUse">
<stop stop-color="#A8C9D1"/>
<stop offset="1" stop-color="white"/>
</linearGradient>
<linearGradient id="paint29_linear_932_22255" x1="193.832" y1="106.671" x2="193.832" y2="124.659" gradientUnits="userSpaceOnUse">
<stop stop-color="#A8C9D1"/>
<stop offset="1" stop-color="white"/>
</linearGradient>
<linearGradient id="paint30_linear_932_22255" x1="203.228" y1="116.61" x2="203.228" y2="131.689" gradientUnits="userSpaceOnUse">
<stop stop-color="#A8C9D1"/>
<stop offset="1" stop-color="white"/>
</linearGradient>
<linearGradient id="paint31_linear_932_22255" x1="202.808" y1="112.516" x2="202.808" y2="129.386" gradientUnits="userSpaceOnUse">
<stop stop-color="#A8C9D1"/>
<stop offset="1" stop-color="white"/>
</linearGradient>
<linearGradient id="paint32_linear_932_22255" x1="274.332" y1="200.125" x2="274.332" y2="207.537" gradientUnits="userSpaceOnUse">
<stop stop-color="#A8C9D1"/>
<stop offset="1" stop-color="white"/>
</linearGradient>
<linearGradient id="paint33_linear_932_22255" x1="266.494" y1="195.656" x2="266.494" y2="203.068" gradientUnits="userSpaceOnUse">
<stop stop-color="#A8C9D1"/>
<stop offset="1" stop-color="white"/>
</linearGradient>
<linearGradient id="paint34_linear_932_22255" x1="258.616" y1="191.149" x2="258.616" y2="198.561" gradientUnits="userSpaceOnUse">
<stop stop-color="#A8C9D1"/>
<stop offset="1" stop-color="white"/>
</linearGradient>
<linearGradient id="paint35_linear_932_22255" x1="250.757" y1="186.68" x2="250.757" y2="194.091" gradientUnits="userSpaceOnUse">
<stop stop-color="#A8C9D1"/>
<stop offset="1" stop-color="white"/>
</linearGradient>
<linearGradient id="paint36_linear_932_22255" x1="239.399" y1="180.162" x2="239.399" y2="187.574" gradientUnits="userSpaceOnUse">
<stop stop-color="#A8C9D1"/>
<stop offset="1" stop-color="white"/>
</linearGradient>
<linearGradient id="paint37_linear_932_22255" x1="231.541" y1="175.692" x2="231.541" y2="183.104" gradientUnits="userSpaceOnUse">
<stop stop-color="#A8C9D1"/>
<stop offset="1" stop-color="white"/>
</linearGradient>
<linearGradient id="paint38_linear_932_22255" x1="223.701" y1="171.187" x2="223.701" y2="178.598" gradientUnits="userSpaceOnUse">
<stop stop-color="#A8C9D1"/>
<stop offset="1" stop-color="white"/>
</linearGradient>
<linearGradient id="paint39_linear_932_22255" x1="215.844" y1="166.717" x2="215.844" y2="174.129" gradientUnits="userSpaceOnUse">
<stop stop-color="#A8C9D1"/>
<stop offset="1" stop-color="white"/>
</linearGradient>
<linearGradient id="paint40_linear_932_22255" x1="204.487" y1="160.199" x2="204.487" y2="167.611" gradientUnits="userSpaceOnUse">
<stop stop-color="#A8C9D1"/>
<stop offset="1" stop-color="white"/>
</linearGradient>
<linearGradient id="paint41_linear_932_22255" x1="196.626" y1="155.729" x2="196.626" y2="163.141" gradientUnits="userSpaceOnUse">
<stop stop-color="#A8C9D1"/>
<stop offset="1" stop-color="white"/>
</linearGradient>
<linearGradient id="paint42_linear_932_22255" x1="188.787" y1="151.263" x2="188.787" y2="158.674" gradientUnits="userSpaceOnUse">
<stop stop-color="#A8C9D1"/>
<stop offset="1" stop-color="white"/>
</linearGradient>
<linearGradient id="paint43_linear_932_22255" x1="180.947" y1="146.757" x2="180.947" y2="154.169" gradientUnits="userSpaceOnUse">
<stop stop-color="#A8C9D1"/>
<stop offset="1" stop-color="white"/>
</linearGradient>
<linearGradient id="paint44_linear_932_22255" x1="169.57" y1="140.276" x2="169.57" y2="147.688" gradientUnits="userSpaceOnUse">
<stop stop-color="#A8C9D1"/>
<stop offset="1" stop-color="white"/>
</linearGradient>
<linearGradient id="paint45_linear_932_22255" x1="161.732" y1="135.771" x2="161.732" y2="143.182" gradientUnits="userSpaceOnUse">
<stop stop-color="#A8C9D1"/>
<stop offset="1" stop-color="white"/>
</linearGradient>
<linearGradient id="paint46_linear_932_22255" x1="153.872" y1="131.3" x2="153.872" y2="138.712" gradientUnits="userSpaceOnUse">
<stop stop-color="#A8C9D1"/>
<stop offset="1" stop-color="white"/>
</linearGradient>
<linearGradient id="paint47_linear_932_22255" x1="146.015" y1="126.794" x2="146.015" y2="134.206" gradientUnits="userSpaceOnUse">
<stop stop-color="#A8C9D1"/>
<stop offset="1" stop-color="white"/>
</linearGradient>
<clipPath id="clip0_932_22255">
<rect width="462" height="291" rx="8" fill="white"/>
</clipPath>
</defs>
</svg>
