<svg width="462" height="291" viewBox="0 0 462 291" fill="none" xmlns="http://www.w3.org/2000/svg">
<g clip-path="url(#clip0_926_12054)">
<rect width="462" height="291" rx="8" fill="#F6F7F8"/>
<path d="M84.8951 246.473V246.068H84.8682C84.8682 246.203 84.8951 246.338 84.8951 246.473Z" fill="url(#paint0_linear_926_12054)" stroke="#64B5C8" stroke-linejoin="round"/>
<path d="M32.4696 163.689C32.2 164.444 31.1485 165.091 29.5848 165.186C24.3005 165.469 19.151 166.776 15.1069 169.109C9.22943 172.492 7.1265 177.237 8.73066 181.618C7.96228 183.681 8.02968 185.838 8.94634 187.9C9.95737 185.609 12.0064 183.438 15.1069 181.645C19.151 179.313 24.287 178.006 29.5848 177.723C31.6877 177.615 32.8875 176.482 32.4696 175.444V163.703V163.689Z" fill="url(#paint1_linear_926_12054)" stroke="#64B5C8" stroke-linejoin="round"/>
<path d="M78.9636 249.668C70.1609 255.155 55.2785 255.249 46.1523 249.978C42.0678 247.619 39.857 244.599 39.493 241.526C39.2504 239.49 34.8423 238.601 32.3619 240.043L-6.16504 262.286V274.822L32.3619 252.58C34.8558 251.137 39.2638 252.027 39.493 254.063C39.857 257.136 42.0812 260.156 46.1523 262.515C55.2785 267.786 70.1609 267.691 78.9636 262.205C82.7785 259.819 84.7331 256.759 84.8679 253.658H84.8949V253.294V240.758C84.9084 243.979 82.9403 247.188 78.9636 249.655V249.668Z" fill="url(#paint2_linear_926_12054)" stroke="#64B5C8" stroke-linejoin="round"/>
<path d="M84.8951 240.73V240.325H84.8682C84.8682 240.46 84.8951 240.595 84.8951 240.73Z" fill="url(#paint3_linear_926_12054)" stroke="#64B5C8" stroke-linejoin="round"/>
<path d="M60.9946 223.515C58.5007 224.957 60.0779 227.464 63.6098 227.599C63.6772 227.599 63.7446 227.599 63.812 227.613L60.9946 229.244C58.5007 230.686 60.0779 233.193 63.6098 233.328C64.2299 233.355 64.8634 233.396 65.4835 233.45L99.562 213.768V201.231L60.9946 223.501V223.515Z" fill="url(#paint4_linear_926_12054)" stroke="#64B5C8" stroke-linejoin="round"/>
<path d="M15.1081 169.108C5.4427 174.689 5.91452 183.91 16.4831 189.208C25.1106 193.535 39.238 193.521 47.7576 189.181C52.4623 186.781 55.0909 183.573 55.6436 180.257C55.9133 178.652 59.1755 177.924 61.1571 179.07L99.5762 201.246L61.0088 223.515C58.515 224.957 60.0922 227.465 63.624 227.6C69.2184 227.815 74.7049 229.217 78.8569 231.806C86.8642 236.78 86.9181 244.706 78.9782 249.667C70.1755 255.154 55.2931 255.248 46.1669 249.977C42.0824 247.618 39.8716 244.598 39.5076 241.525C39.265 239.489 34.8569 238.6 32.3765 240.042L-6.15042 262.285L-102.629 206.584C-107.038 204.036 -107.038 197.673 -102.629 195.139L-6.81095 139.815L31.6216 162.004C33.5763 163.136 32.3495 165.024 29.5995 165.172C24.3152 165.455 19.1657 166.763 15.1216 169.095L15.1081 169.108Z" fill="url(#paint5_linear_926_12054)" stroke="#64B5C8" stroke-linejoin="round"/>
<path d="M29.5844 157.462C24.3001 157.745 19.1505 159.053 15.1064 161.385C8.98633 164.917 6.9508 169.905 8.94589 174.448C9.95692 172.156 12.0059 169.986 15.1064 168.193C19.1505 165.861 24.3001 164.553 29.5844 164.27C31.6873 164.162 32.8871 163.03 32.4692 161.992V155.979C32.1996 156.734 31.1481 157.381 29.5844 157.462Z" fill="url(#paint6_linear_926_12054)" stroke="#64B5C8" stroke-linejoin="round"/>
<path d="M-6.16504 261.381L32.3619 239.139C34.8558 237.696 39.2638 238.586 39.493 240.621C39.857 243.695 42.0678 246.715 46.1523 249.074C55.2785 254.344 70.1609 254.25 78.9636 248.764C82.7785 246.378 84.7331 243.318 84.8679 240.217H84.8949V239.853V233.045C84.9084 236.267 82.9403 239.476 78.9636 241.943C70.1609 247.429 55.2785 247.523 46.1523 242.253C42.0678 239.893 39.857 236.874 39.493 233.8C39.2504 231.765 34.8423 230.875 32.3619 232.318L-6.16504 254.56V261.368V261.381Z" fill="url(#paint7_linear_926_12054)" stroke="#64B5C8" stroke-linejoin="round"/>
<path d="M84.8951 233.019V232.614H84.8682C84.8682 232.749 84.8951 232.884 84.8951 233.019Z" fill="url(#paint8_linear_926_12054)" stroke="#64B5C8" stroke-linejoin="round"/>
<path d="M63.6098 219.889C64.2299 219.916 64.8634 219.957 65.4835 220.01L99.562 200.329V193.521L60.9946 215.791C58.5007 217.233 60.0779 219.741 63.6098 219.876V219.889Z" fill="url(#paint9_linear_926_12054)" stroke="#64B5C8" stroke-linejoin="round"/>
<path d="M84.8951 229.273V228.868H84.8682C84.8682 229.003 84.8951 229.138 84.8951 229.273Z" fill="url(#paint10_linear_926_12054)" stroke="#64B5C8" stroke-linejoin="round"/>
<path d="M32.4696 146.502C32.2 147.257 31.1485 147.904 29.5848 147.998C24.3005 148.281 19.151 149.589 15.1069 151.921C9.22943 155.305 7.1265 160.05 8.73066 164.431C7.96228 166.493 8.02968 168.65 8.94634 170.713C9.95737 168.421 12.0064 166.251 15.1069 164.458C19.151 162.126 24.287 160.818 29.5848 160.535C31.6877 160.427 32.8875 159.295 32.4696 158.257V146.515V146.502Z" fill="url(#paint11_linear_926_12054)" stroke="#64B5C8" stroke-linejoin="round"/>
<path d="M78.9636 232.466C70.1609 237.952 55.2785 238.047 46.1523 232.776C42.0678 230.417 39.857 227.397 39.493 224.324C39.2504 222.288 34.8423 221.399 32.3619 222.841L-6.16504 245.084V257.62L32.3619 235.378C34.8558 233.935 39.2638 234.825 39.493 236.861C39.857 239.934 42.0812 242.954 46.1523 245.313C55.2785 250.584 70.1609 250.489 78.9636 245.003C82.7785 242.617 84.7331 239.557 84.8679 236.456H84.8949V236.092V223.555C84.9084 226.777 82.9403 229.986 78.9636 232.452V232.466Z" fill="url(#paint12_linear_926_12054)" stroke="#64B5C8" stroke-linejoin="round"/>
<path d="M84.8951 223.542V223.138H84.8682C84.8682 223.272 84.8951 223.407 84.8951 223.542Z" fill="url(#paint13_linear_926_12054)" stroke="#64B5C8" stroke-linejoin="round"/>
<path d="M60.9946 206.327C58.5007 207.769 60.0779 210.277 63.6098 210.412C63.6772 210.412 63.7446 210.412 63.812 210.425L60.9946 212.056C58.5007 213.499 60.0779 216.006 63.6098 216.141C64.2299 216.168 64.8634 216.208 65.4835 216.262L99.562 196.581V184.044L60.9946 206.314V206.327Z" fill="url(#paint14_linear_926_12054)" stroke="#64B5C8" stroke-linejoin="round"/>
<path d="M15.1081 151.907C5.4427 157.488 5.91452 166.709 16.4831 172.007C25.1106 176.334 39.238 176.32 47.7576 171.98C52.4623 169.58 55.0909 166.372 55.6436 163.056C55.9133 161.451 59.1755 160.723 61.1571 161.869L99.5762 184.045L61.0088 206.314C58.515 207.757 60.0922 210.264 63.624 210.399C69.2184 210.614 74.7049 212.016 78.8569 214.605C86.8642 219.579 86.9181 227.505 78.9782 232.466C70.1755 237.953 55.2931 238.047 46.1669 232.776C42.0824 230.417 39.8716 227.397 39.5076 224.324C39.265 222.288 34.8569 221.399 32.3765 222.841L-6.15042 245.084L-102.629 189.396C-107.038 186.848 -107.038 180.486 -102.629 177.951L-6.81095 122.628L31.6216 144.817C33.5763 145.949 32.3495 147.836 29.5995 147.985C24.3152 148.268 19.1657 149.575 15.1216 151.907H15.1081Z" fill="url(#paint15_linear_926_12054)" stroke="#64B5C8" stroke-linejoin="round"/>
<path d="M15.1077 150.559C9.90429 153.565 7.66655 157.623 8.34057 161.559C8.85282 158.526 11.0906 155.574 15.1077 153.255C19.1518 150.923 24.2879 149.615 29.5856 149.332C32.3356 149.184 33.5624 147.297 31.6077 146.164L31.5403 146.124C31.0415 146.394 30.3945 146.596 29.5991 146.636C24.3148 146.919 19.1653 148.227 15.1212 150.559H15.1077Z" fill="url(#paint16_linear_926_12054)" stroke="#64B5C8" stroke-linejoin="round"/>
<path d="M116.453 275.065C122.182 275.402 127.763 276.939 131.955 279.675C134.476 281.32 136.148 283.315 137.011 285.432C137.86 283.383 137.927 281.212 137.213 279.15C138.655 274.971 136.903 270.374 131.955 267.152C127.763 264.416 122.196 262.879 116.453 262.542C114.862 262.447 113.784 261.773 113.514 261.019V272.773C113.096 273.811 114.337 274.957 116.453 275.079V275.065Z" fill="url(#paint17_linear_926_12054)" stroke="#64B5C8" stroke-linejoin="round"/>
<path d="M220.171 282.088L224.633 284.663C229.27 284.272 233.719 283.045 237.291 280.983C241.956 278.287 244.139 274.701 243.87 271.169V259.684C243.668 262.878 241.497 266.019 237.291 268.446C233.234 270.791 228.017 272.045 222.706 272.234C219.187 272.355 217.677 274.903 220.185 276.345L222.962 277.95C222.881 277.95 222.786 277.95 222.706 277.963C219.187 278.084 217.677 280.632 220.185 282.075L220.171 282.088Z" fill="url(#paint18_linear_926_12054)" stroke="#64B5C8" stroke-linejoin="round"/>
<path d="M205.612 249.452C201.163 251.838 198.764 254.993 198.427 258.228C198.211 260.264 193.87 261.167 191.363 259.711L191.309 259.684L152.553 237.307L114.377 259.347C112.408 260.479 113.703 262.367 116.479 262.528C122.209 262.865 127.79 264.402 131.982 267.139C139.558 272.073 139.679 280.242 132.238 285.189C123.125 291.255 107.151 291.471 97.4317 285.863C93.3606 283.517 91.069 280.538 90.5432 277.478C90.2736 275.887 86.9844 275.173 85.0298 276.292L46.8398 298.346L153.227 359.776L191.417 337.722C193.358 336.603 192.118 334.702 189.368 334.541C184.07 334.231 178.907 332.909 174.85 330.564C165.13 324.956 165.494 315.722 176.009 310.465C184.582 306.164 198.723 306.245 207.283 310.613C212.015 313.039 214.684 316.248 215.264 319.564C215.547 321.168 218.823 321.909 220.791 320.777L258.967 298.737L220.211 276.359C217.704 274.917 219.213 272.369 222.732 272.248C228.057 272.059 233.273 270.792 237.318 268.46C246.39 263.229 246.12 254.629 236.576 249.52C227.949 244.896 214.226 244.883 205.652 249.479L205.612 249.452Z" fill="url(#paint19_linear_926_12054)" stroke="#64B5C8" stroke-linejoin="round"/>
<path d="M116.453 261.625C122.182 261.962 127.763 263.499 131.955 266.235C134.476 267.88 136.148 269.875 137.011 271.991C138.803 267.664 137.118 262.798 131.955 259.441C127.763 256.705 122.196 255.168 116.453 254.831C114.862 254.737 113.784 254.063 113.514 253.308V259.333C113.096 260.371 114.337 261.517 116.453 261.638V261.625Z" fill="url(#paint20_linear_926_12054)" stroke="#64B5C8" stroke-linejoin="round"/>
<path d="M220.171 268.635L224.633 271.21C229.27 270.819 233.719 269.592 237.291 267.53C241.956 264.834 244.139 261.248 243.87 257.716V251.96C243.668 255.155 241.497 258.296 237.291 260.722C233.234 263.068 228.017 264.321 222.706 264.51C219.187 264.632 217.677 267.179 220.185 268.622L220.171 268.635Z" fill="url(#paint21_linear_926_12054)" stroke="#64B5C8" stroke-linejoin="round"/>
<path d="M153.201 352.05L46.8135 290.634V297.428L153.201 358.858V352.05Z" fill="url(#paint22_linear_926_12054)" stroke="#64B5C8" stroke-linejoin="round"/>
<path d="M220.75 313.052C218.796 314.184 215.507 313.443 215.223 311.839C214.63 308.523 211.975 305.314 207.243 302.888C198.683 298.52 184.556 298.453 175.969 302.74C168.878 306.285 166.425 311.637 168.541 316.476C169.687 313.888 172.154 311.461 175.969 309.547C184.542 305.247 198.683 305.314 207.243 309.696C211.975 312.122 214.644 315.33 215.223 318.646C215.507 320.251 218.782 320.992 220.75 319.86L258.927 297.819V291.012L220.75 313.052Z" fill="url(#paint23_linear_926_12054)" stroke="#64B5C8" stroke-linejoin="round"/>
<path d="M153.201 342.574L46.8135 281.144V293.68L153.201 355.11V342.574Z" fill="url(#paint24_linear_926_12054)" stroke="#64B5C8" stroke-linejoin="round"/>
<path d="M220.751 303.576C218.796 304.708 215.507 303.967 215.224 302.362C214.631 299.046 211.975 295.838 207.244 293.411C198.684 289.044 184.556 288.976 175.969 293.263C169.148 296.674 166.627 301.756 168.339 306.447C167.571 308.509 167.638 310.666 168.542 312.729C169.687 310.141 172.154 307.714 175.969 305.8C184.543 301.5 198.684 301.567 207.244 305.948C211.975 308.375 214.644 311.583 215.224 314.899C215.507 316.503 218.783 317.245 220.751 316.112L258.928 294.072V281.535L220.751 303.576Z" fill="url(#paint25_linear_926_12054)" stroke="#64B5C8" stroke-linejoin="round"/>
<path d="M116.453 257.878C122.182 258.215 127.763 259.751 131.955 262.488C134.476 264.132 136.148 266.128 137.011 268.244C137.86 266.195 137.927 264.025 137.213 261.962C138.655 257.783 136.903 253.186 131.955 249.965C127.763 247.228 122.196 245.691 116.453 245.354C114.862 245.26 113.784 244.586 113.514 243.831V255.586C113.096 256.624 114.337 257.77 116.453 257.891V257.878Z" fill="url(#paint26_linear_926_12054)" stroke="#64B5C8" stroke-linejoin="round"/>
<path d="M220.171 264.887L224.633 267.462C229.27 267.071 233.719 265.844 237.291 263.781C241.956 261.085 244.139 257.5 243.87 253.968V242.482C243.668 245.677 241.497 248.818 237.291 251.245C233.234 253.59 228.017 254.844 222.706 255.033C219.187 255.154 217.677 257.702 220.185 259.144L222.962 260.748C222.881 260.748 222.786 260.748 222.706 260.762C219.187 260.883 217.677 263.431 220.185 264.873L220.171 264.887Z" fill="url(#paint27_linear_926_12054)" stroke="#64B5C8" stroke-linejoin="round"/>
<path d="M205.612 232.265C201.163 234.651 198.764 237.805 198.427 241.041C198.211 243.076 193.87 243.979 191.363 242.524L191.309 242.497L152.553 220.119L114.377 242.16C112.408 243.292 113.703 245.179 116.479 245.341C122.209 245.678 127.79 247.215 131.982 249.951C139.558 254.885 139.679 263.054 132.238 268.001C123.125 274.068 107.151 274.283 97.4317 268.675C93.3606 266.33 91.069 263.351 90.5432 260.291C90.2736 258.7 86.9844 257.986 85.0298 259.104L46.8398 281.158L153.227 342.588L191.417 320.534C193.358 319.416 192.118 317.515 189.368 317.353C184.07 317.043 178.907 315.722 174.85 313.376C165.13 307.769 165.494 298.535 176.009 293.277C184.582 288.977 198.723 289.058 207.283 293.425C212.015 295.852 214.684 299.06 215.264 302.376C215.547 303.981 218.823 304.722 220.791 303.59L258.967 281.549L220.211 259.172C217.704 257.729 219.213 255.182 222.732 255.06C228.057 254.872 233.273 253.604 237.318 251.272C246.39 246.042 246.12 237.441 236.576 232.332C227.949 227.709 214.226 227.695 205.652 232.292L205.612 232.265Z" fill="url(#paint28_linear_926_12054)" stroke="#64B5C8" stroke-linejoin="round"/>
<path d="M153.914 111.629C148.589 111.427 143.359 110.133 139.287 107.787C135.392 105.536 133.194 102.678 132.696 99.7393V103.932C132.035 107.733 134.232 111.669 139.287 114.595C142.887 116.671 147.376 117.911 152.04 118.315L156.475 115.754C158.969 114.312 157.432 111.777 153.914 111.629Z" fill="url(#paint29_linear_926_12054)" stroke="#64B5C8" stroke-linejoin="round"/>
<path d="M202.768 34.4395C205.261 36.0437 206.919 38.0792 207.769 40.2496C208.578 38.2006 208.631 36.0302 207.957 33.9677C209.346 29.7214 207.607 25.0302 202.768 21.9028C193.56 15.9579 177.775 15.7423 168.19 21.2692C164.146 23.6013 161.882 26.567 161.383 29.627C161.127 31.2177 157.851 31.9187 155.883 30.7864L117.45 8.59766V21.1344L155.883 43.3231C157.837 44.4555 161.127 43.741 161.383 42.1638C161.882 39.1038 164.146 36.1381 168.19 33.806C177.761 28.279 193.547 28.4947 202.768 34.4395Z" fill="url(#paint30_linear_926_12054)" stroke="#64B5C8" stroke-linejoin="round"/>
<path d="M307.739 58.1258C299.152 62.7092 285.429 62.6822 276.815 58.0584C272.34 55.6589 269.913 52.491 269.536 49.2557C269.293 47.2202 264.953 46.3035 262.459 47.7459L223.891 70.0155L185.472 47.8403C185.122 47.6381 184.906 47.3955 184.744 47.1663V58.3954C184.313 59.029 184.475 59.7974 185.472 60.3771L223.891 82.5523L262.459 60.2827C264.953 58.8403 269.307 59.757 269.536 61.7925C269.913 65.0143 272.34 68.1822 276.815 70.5952C285.443 75.219 299.166 75.2459 307.739 70.6626C312.363 68.1822 314.763 64.8795 314.965 61.5229H315.073V48.9996H314.965C314.749 52.3697 312.363 55.6589 307.739 58.1258Z" fill="url(#paint31_linear_926_12054)" stroke="#64B5C8" stroke-linejoin="round"/>
<path d="M329.564 9.00274L291.064 31.2319C288.57 32.6743 290.107 35.2086 293.625 35.3569C293.693 35.3569 293.76 35.3569 293.828 35.3569L291.051 36.961C288.557 38.4034 290.094 40.9378 293.612 41.086C294.232 41.113 294.866 41.1534 295.486 41.2074L329.564 21.526H329.537H329.645V8.98926H329.537L329.564 9.00274Z" fill="url(#paint32_linear_926_12054)" stroke="#64B5C8" stroke-linejoin="round"/>
<path d="M188.452 56.5885C193.345 56.1706 198.05 54.836 201.703 52.5578C205.963 49.9157 207.904 46.4108 207.594 42.9733H207.742V37.2441V30.4365L207.594 30.477C207.877 33.901 205.936 37.3789 201.703 40.0211C197.565 42.5958 192.105 43.9708 186.511 44.173C182.979 44.2944 181.429 46.8017 183.936 48.2576L186.767 49.8887C186.686 49.8887 186.592 49.8887 186.511 49.9022C182.979 50.0235 188.452 56.5885 188.452 56.5885Z" fill="url(#paint33_linear_926_12054)"/>
<path d="M207.608 37.2441C207.608 37.3385 207.608 37.4463 207.608 37.5407M188.452 56.5885C193.345 56.1706 198.05 54.836 201.703 52.5578C205.963 49.9157 207.904 46.4108 207.594 42.9733H207.742V37.2441V30.4365L207.594 30.477C207.877 33.901 205.936 37.3789 201.703 40.0211C197.565 42.5958 192.105 43.9708 186.511 44.173C182.979 44.2944 181.429 46.8017 183.936 48.2576L186.767 49.8887C186.686 49.8887 186.592 49.8887 186.511 49.9022C182.979 50.0235 188.452 56.5885 188.452 56.5885Z" stroke="#64B5C8" stroke-linejoin="round"/>
<path d="M184.582 92.7152C182.614 93.8476 179.338 93.1062 179.055 91.502C178.475 88.1858 175.806 84.9775 171.074 82.551C162.514 78.1834 148.387 78.116 139.8 82.4027C132.979 85.8133 130.458 90.8954 132.17 95.5865C131.402 97.6625 131.469 99.8059 132.386 101.868C133.532 99.2802 135.999 96.8402 139.8 94.9395C148.374 90.6392 162.514 90.7066 171.074 95.0878C175.806 97.5142 178.475 100.723 179.055 104.039C179.338 105.643 182.614 106.384 184.582 105.252L222.758 83.2116V70.6748L184.582 92.7152Z" fill="url(#paint34_linear_926_12054)" stroke="#64B5C8" stroke-linejoin="round"/>
<path d="M49.4418 92.7032L10.6318 70.2988V82.8221L44.9394 102.638C45.5865 102.584 46.2335 102.544 46.8806 102.517C50.4124 102.396 51.9627 99.8883 49.4553 98.4324L46.6244 96.8013C46.7053 96.8013 46.7997 96.8013 46.8806 96.7878C50.4124 96.6665 51.9627 94.1591 49.4553 92.7032H49.4418Z" fill="url(#paint35_linear_926_12054)" stroke="#64B5C8" stroke-linejoin="round"/>
<path d="M153.914 105.886C148.589 105.684 143.359 104.389 139.287 102.044C135.392 99.7927 133.194 96.9348 132.696 93.9961V98.1885C132.035 101.99 134.232 105.926 139.287 108.851C142.887 110.927 147.376 112.168 152.04 112.572L156.475 110.011C158.969 108.568 157.432 106.034 153.914 105.886Z" fill="url(#paint36_linear_926_12054)" stroke="#64B5C8" stroke-linejoin="round"/>
<path d="M156.126 108.461C156.085 108.879 155.829 109.31 155.222 109.661L117.033 131.701L78.2764 109.324C75.7691 107.881 71.3745 108.744 71.1588 110.779C70.8353 113.853 68.638 116.859 64.5938 119.205C55.5216 124.435 40.6392 124.287 31.7826 118.773C28.3047 116.603 26.3365 113.88 25.8647 111.089V121.065C25.2716 124.705 27.2397 128.479 31.7826 131.31C40.6392 136.823 55.5216 136.972 64.5938 131.741C68.6514 129.396 70.8353 126.39 71.1588 123.316C71.3745 121.281 75.7691 120.418 78.2764 121.86L117.033 144.238L155.222 122.184C155.977 121.752 156.247 121.2 156.126 120.674V108.447V108.461Z" fill="url(#paint37_linear_926_12054)" stroke="#64B5C8" stroke-linejoin="round"/>
<path d="M260.046 96.5708C254.317 96.8943 248.763 98.4041 244.597 101.127C239.731 104.309 238.019 108.851 239.448 113.017C238.733 115.079 238.801 117.25 239.65 119.299C240.513 117.223 242.144 115.268 244.611 113.664C248.776 110.941 254.33 109.431 260.059 109.108C261.879 109.013 263.025 108.164 263.052 107.274V94.8857C262.903 95.7215 261.771 96.4764 260.059 96.5708H260.046Z" fill="url(#paint38_linear_926_12054)" stroke="#64B5C8" stroke-linejoin="round"/>
<path d="M203.509 145.707C194.329 139.614 178.355 139.331 168.689 144.912C164.645 147.244 162.381 150.21 161.882 153.27C161.626 154.86 158.35 155.561 156.382 154.429L117.963 132.254V144.777H117.949L156.382 166.966C158.336 168.098 161.612 167.384 161.882 165.807C162.381 162.747 164.645 159.781 168.689 157.449C178.355 151.868 194.329 152.137 203.509 158.244C205.936 159.862 207.553 161.803 208.403 163.865C209.252 161.816 209.306 159.66 208.605 157.584C210.02 153.445 208.349 148.916 203.509 145.707Z" fill="url(#paint39_linear_926_12054)" stroke="#64B5C8" stroke-linejoin="round"/>
<path d="M330.09 145.167V132.644L291.59 154.873C289.096 156.315 290.632 158.849 294.151 158.998C294.218 158.998 294.286 158.998 294.353 158.998L291.576 160.602C289.082 162.044 290.619 164.579 294.137 164.727C294.757 164.754 295.391 164.794 296.011 164.848L330.09 145.167Z" fill="url(#paint40_linear_926_12054)"/>
<path d="M330.09 145.167V132.644L291.59 154.873C289.096 156.315 290.632 158.849 294.151 158.998C294.218 158.998 294.286 158.998 294.353 158.998L291.576 160.602C289.082 162.044 290.619 164.579 294.137 164.727C294.757 164.754 295.391 164.794 296.011 164.848L330.09 145.167ZM330.09 145.167H330.076" stroke="#64B5C8" stroke-linejoin="round"/>
<path d="M185.943 171.495C185.512 171.239 185.256 170.956 185.108 170.659V182.279C184.852 182.872 185.054 183.519 185.943 184.032L224.363 206.207V193.67L185.943 171.495Z" fill="url(#paint41_linear_926_12054)" stroke="#64B5C8" stroke-linejoin="round"/>
<path d="M315.464 172.654C315.262 175.997 312.862 179.313 308.239 181.78C299.652 186.363 285.929 186.336 277.315 181.713C272.839 179.313 270.413 176.145 270.035 172.91C269.793 170.875 265.452 169.958 262.958 171.4L224.391 193.67V206.207L262.958 183.937C265.452 182.495 269.806 183.411 270.035 185.447C270.413 188.669 272.839 191.836 277.315 194.249C285.942 198.873 299.665 198.9 308.239 194.317C312.862 191.85 315.262 188.534 315.464 185.191V185.083C315.464 184.921 315.464 184.759 315.464 184.598V172.64V172.654Z" fill="url(#paint42_linear_926_12054)" stroke="#64B5C8" stroke-linejoin="round"/>
<path d="M244.597 101.128C248.762 98.4048 254.316 96.895 260.045 96.5714C262.809 96.4231 264.076 94.5359 262.108 93.3901L223.689 71.2148L185.121 93.4844C182.627 94.9268 178.273 94.0102 178.044 91.9746C177.667 88.7528 175.24 85.5849 170.765 83.1719C162.137 78.5482 148.414 78.5212 139.841 83.1045C130.337 88.1866 130.175 96.7736 139.301 102.044C143.386 104.404 148.616 105.684 153.928 105.886C157.459 106.021 158.983 108.569 156.489 110.011L117.962 132.254H117.975L156.408 154.443C158.363 155.575 161.638 154.861 161.908 153.283C162.407 150.223 164.671 147.258 168.716 144.926C178.381 139.345 194.355 139.614 203.535 145.721C211.03 150.695 211.003 158.864 203.481 163.771C199.316 166.494 193.762 168.004 188.033 168.328C185.269 168.476 184.002 170.363 185.97 171.509L224.389 193.684L262.957 171.414C265.451 169.972 269.805 170.889 270.034 172.924C270.412 176.146 272.838 179.314 277.313 181.727C285.941 186.351 299.664 186.378 308.237 181.794C317.741 176.712 317.903 168.125 308.777 162.854C304.692 160.495 299.462 159.215 294.15 159.013C290.619 158.878 289.095 156.33 291.589 154.888L330.116 132.645H330.103L291.67 110.456C289.715 109.324 286.426 110.038 286.17 111.616C285.671 114.676 283.407 117.641 279.362 119.973C269.697 125.554 253.723 125.285 244.543 119.178C237.048 114.204 237.075 106.035 244.597 101.128Z" fill="url(#paint43_linear_926_12054)" stroke="#64B5C8" stroke-linejoin="round"/>
<path d="M168.203 21.2562C177.774 15.7292 193.56 15.9449 202.78 21.8897C210.221 26.6887 210.383 35.2488 202.969 40.1017C198.803 42.8248 193.25 44.3346 187.52 44.6581C184.757 44.8064 183.49 46.6936 185.458 47.8395L223.877 70.0147L262.444 47.7451C264.938 46.3027 269.292 47.2194 269.522 49.2549C269.899 52.4767 272.325 55.6446 276.801 58.0576C285.428 62.6814 299.151 62.7083 307.725 58.125C317.229 53.0429 317.39 44.4559 308.264 39.1851C304.18 36.826 298.949 35.5453 293.638 35.3431C290.106 35.2083 288.583 32.6606 291.077 31.2181L329.604 8.97553L231.723 -47.5207C226.452 -50.5673 219.941 -50.5673 214.67 -47.5207L117.463 8.59808L155.895 30.7868C157.85 31.9191 161.139 31.2047 161.395 29.6275C161.894 26.5674 164.159 23.6017 168.203 21.2696V21.2562Z" fill="url(#paint44_linear_926_12054)" stroke="#64B5C8" stroke-linejoin="round"/>
<path d="M168.811 21.7405C164.753 24.086 162.57 27.0922 162.246 30.1657C162.03 32.2012 157.636 33.064 155.128 31.6216L116.372 9.24414L10.6592 70.2833L49.4692 92.7012C51.9765 94.157 50.4263 96.6509 46.8944 96.7857C41.3136 96.9879 35.8405 98.3629 31.7021 100.938C23.7486 105.885 23.7756 113.811 31.7829 118.799C40.6395 124.313 55.5219 124.461 64.5942 119.231C68.6518 116.885 70.8356 113.879 71.1591 110.805C71.3748 108.77 75.7694 107.907 78.2768 109.349L117.033 131.727L155.223 109.686C157.164 108.568 155.924 106.667 153.174 106.505C147.876 106.195 142.726 104.874 138.655 102.528C128.936 96.9205 129.3 87.6865 139.815 82.4291C148.388 78.1289 162.529 78.1963 171.089 82.5774C175.821 85.0039 178.49 88.2122 179.07 91.5284C179.353 93.1325 182.628 93.874 184.597 92.7416L222.773 70.7012L183.963 48.2968C181.456 46.8409 183.006 44.347 186.538 44.2122C192.119 44.01 197.592 42.635 201.73 40.0603C209.683 35.113 209.657 27.1865 201.649 22.1988C192.793 16.6853 177.91 16.537 168.838 21.7674L168.811 21.7405Z" fill="url(#paint45_linear_926_12054)" stroke="#64B5C8" stroke-linejoin="round"/>
<path d="M202.768 20.9858C205.261 22.5899 206.919 24.6255 207.769 26.7958C209.508 22.4147 207.823 17.4404 202.768 14.1782C193.56 8.23334 177.775 8.01765 168.19 13.5446C164.146 15.8767 161.882 18.8424 161.383 21.9024C161.127 23.4931 157.851 24.1941 155.883 23.0617L117.45 0.873047V7.68064L155.883 29.8693C157.837 31.0017 161.127 30.2872 161.383 28.71C161.882 25.65 164.146 22.6843 168.19 20.3522C177.761 14.8252 193.547 15.0409 202.768 20.9858Z" fill="url(#paint46_linear_926_12054)" stroke="#64B5C8" stroke-linejoin="round"/>
<path d="M307.739 50.4139C299.152 54.9972 285.429 54.9703 276.815 50.3465C272.34 47.947 269.913 44.7791 269.536 41.5438C269.293 39.5083 264.953 38.5916 262.459 40.034L223.891 62.3036L185.472 40.1284C185.122 39.9262 184.906 39.6835 184.744 39.4544V44.9544C184.313 45.588 184.475 46.3563 185.472 46.936L223.891 69.1112L262.459 46.8416C264.953 45.3992 269.307 46.3159 269.536 48.3514C269.913 51.5732 272.34 54.7411 276.815 57.1541C285.443 61.7779 299.166 61.8048 307.739 57.2215C312.363 54.7411 314.763 51.4384 314.965 48.0818H315.073V41.2877L314.965 41.3147C314.749 44.6578 312.363 47.9605 307.739 50.4274V50.4139Z" fill="url(#paint47_linear_926_12054)" stroke="#64B5C8" stroke-linejoin="round"/>
<path d="M329.671 1.26465H329.563L291.063 23.5073C288.57 24.9497 290.106 27.484 293.625 27.6323C294.245 27.6592 294.878 27.6997 295.498 27.7536L329.577 8.07224H329.55H329.658V1.26465H329.671Z" fill="url(#paint48_linear_926_12054)" stroke="#64B5C8" stroke-linejoin="round"/>
<path d="M201.703 32.3103C197.565 34.8851 192.105 36.2601 186.511 36.4623C182.979 36.5836 181.429 39.091 183.936 40.5468L188.438 43.1485C193.332 42.7307 198.037 41.3961 201.69 39.1179C205.95 36.4758 207.891 32.9709 207.581 29.5334H207.729V22.7393L207.581 22.7797C207.877 26.2037 205.923 29.6817 201.69 32.3238L201.703 32.3103Z" fill="url(#paint49_linear_926_12054)" stroke="#64B5C8" stroke-linejoin="round"/>
<path d="M184.582 84.9916C182.628 86.1239 179.338 85.3825 179.055 83.7784C178.476 80.4622 175.806 77.2538 171.075 74.8274C162.515 70.4597 148.387 70.3923 139.8 74.6791C132.71 78.2244 130.256 83.5762 132.386 88.4156C133.532 85.8274 135.999 83.3874 139.8 81.4867C148.374 77.1865 162.515 77.2539 171.075 81.635C175.806 84.0614 178.476 87.2698 179.055 90.5859C179.338 92.1901 182.614 92.9315 184.582 91.7992L222.759 69.7588V62.9512L184.582 84.9916Z" fill="url(#paint50_linear_926_12054)" stroke="#64B5C8" stroke-linejoin="round"/>
<path d="M46.8671 89.0622C50.399 88.9409 51.9492 86.4335 49.4418 84.9776L10.6318 62.5732V69.3674L44.9394 89.1835C45.5865 89.1296 46.2335 89.0891 46.8806 89.0622H46.8671Z" fill="url(#paint51_linear_926_12054)" stroke="#64B5C8" stroke-linejoin="round"/>
<path d="M153.916 98.1748C148.591 97.9726 143.36 96.6785 139.289 94.3329C135.394 92.0817 133.196 89.2239 132.698 86.2852V90.4776C132.037 94.279 134.234 98.2153 139.289 101.141C142.889 103.217 147.378 104.457 152.042 104.861L156.477 102.3C158.971 100.857 157.434 98.3231 153.916 98.1748Z" fill="url(#paint52_linear_926_12054)" stroke="#64B5C8" stroke-linejoin="round"/>
<path d="M156.126 100.75C156.085 101.168 155.829 101.599 155.222 101.95L117.033 123.99L78.2764 101.613C75.7691 100.17 71.3745 101.033 71.1588 103.068C70.8353 106.142 68.638 109.148 64.5938 111.494C55.5216 116.724 40.6392 116.576 31.7826 111.062C28.3047 108.892 26.3365 106.169 25.8647 103.378V107.611C25.2716 111.251 27.2397 115.026 31.7826 117.856C40.6392 123.37 55.5216 123.518 64.5938 118.288C68.6514 115.942 70.8353 112.936 71.1588 109.863C71.3745 107.827 75.7691 106.964 78.2764 108.407L117.033 130.784L155.222 108.73C155.977 108.299 156.247 107.746 156.126 107.22V100.736V100.75Z" fill="url(#paint53_linear_926_12054)" stroke="#64B5C8" stroke-linejoin="round"/>
<path d="M260.047 88.8601C254.318 89.1836 248.764 90.6934 244.598 93.4164C239.516 96.7461 237.858 101.545 239.637 105.859C240.5 103.783 242.131 101.828 244.598 100.224C248.764 97.501 254.318 95.9912 260.047 95.6676C261.867 95.5733 263.012 94.724 263.039 93.8343V87.1885C262.891 88.0243 261.759 88.7792 260.047 88.8735V88.8601Z" fill="url(#paint54_linear_926_12054)" stroke="#64B5C8" stroke-linejoin="round"/>
<path d="M203.509 144.803C205.936 146.421 207.553 148.362 208.403 150.424C210.168 146.151 208.551 141.352 203.509 138.009C194.329 131.916 178.355 131.633 168.689 137.214C164.645 139.546 162.381 142.512 161.882 145.572C161.626 147.162 158.35 147.863 156.382 146.731L117.963 124.556V131.336H117.949L156.382 153.525C158.336 154.657 161.612 153.943 161.882 152.366C162.381 149.306 164.645 146.34 168.689 144.008C178.355 138.427 194.329 138.697 203.509 144.803Z" fill="url(#paint55_linear_926_12054)" stroke="#64B5C8" stroke-linejoin="round"/>
<path d="M330.09 131.727V124.946L291.59 147.175C289.096 148.618 290.633 151.152 294.151 151.3C294.771 151.327 295.405 151.368 296.025 151.422L330.103 131.74H330.09V131.727Z" fill="url(#paint56_linear_926_12054)" stroke="#64B5C8" stroke-linejoin="round"/>
<path d="M224.364 185.973L185.944 163.798C185.513 163.542 185.257 163.258 185.109 162.962V168.853C184.853 169.446 185.055 170.093 185.944 170.605L224.364 192.781V185.973Z" fill="url(#paint57_linear_926_12054)" stroke="#64B5C8" stroke-linejoin="round"/>
<path d="M308.239 174.07C299.652 178.653 285.929 178.627 277.315 174.003C272.839 171.603 270.413 168.435 270.035 165.2C269.793 163.165 265.452 162.248 262.958 163.69L224.391 185.96V192.767L262.958 170.498C265.452 169.055 269.806 169.972 270.035 172.008C270.413 175.229 272.839 178.397 277.315 180.81C285.942 185.434 299.665 185.461 308.239 180.878C312.862 178.411 315.262 175.095 315.464 171.752V171.644C315.464 171.482 315.464 171.32 315.464 171.158V164.944C315.262 168.301 312.862 171.603 308.239 174.07Z" fill="url(#paint58_linear_926_12054)" stroke="#64B5C8" stroke-linejoin="round"/>
<path d="M153.914 94.4288C148.589 94.2266 143.359 92.9324 139.287 90.5869C135.392 88.3356 133.194 85.4778 132.696 82.5391V86.7315C132.035 90.5329 134.232 94.4692 139.287 97.3944C142.887 99.4704 147.376 100.711 152.04 101.115L156.475 98.5537C158.969 97.1113 157.432 94.577 153.914 94.4288Z" fill="url(#paint59_linear_926_12054)" stroke="#64B5C8" stroke-linejoin="round"/>
<path d="M202.768 17.2393C205.261 18.8435 206.919 20.8791 207.769 23.0494C208.578 21.0004 208.631 18.83 207.957 16.7675C209.346 12.5212 207.607 7.83004 202.768 4.70259C193.56 -1.24225 177.775 -1.45794 168.19 4.06902C164.146 6.40112 161.882 9.3668 161.383 12.4268C161.127 14.0175 157.851 14.7185 155.883 13.5862L117.45 -8.60254V3.93421L155.883 26.1229C157.837 27.2553 161.127 26.5408 161.383 24.9636C161.882 21.9036 164.146 18.9379 168.19 16.6058C177.761 11.0788 193.547 11.2945 202.768 17.2393Z" fill="url(#paint60_linear_926_12054)" stroke="#64B5C8" stroke-linejoin="round"/>
<path d="M307.739 40.9383C299.152 45.5217 285.429 45.4947 276.815 40.8709C272.34 38.4714 269.913 35.3035 269.536 32.0682C269.293 30.0327 264.953 29.116 262.459 30.5584L223.891 52.828L185.472 30.6528C185.122 30.4506 184.906 30.208 184.744 29.9788V41.2079C184.313 41.8415 184.475 42.6099 185.472 43.1896L223.891 65.3648L262.459 43.0952C264.953 41.6528 269.307 42.5695 269.536 44.605C269.913 47.8268 272.34 50.9947 276.815 53.4077C285.443 58.0315 299.166 58.0584 307.739 53.4751C312.363 50.9947 314.763 47.692 314.965 44.3354H315.073V31.8121H314.965C314.749 35.1822 312.363 38.4714 307.739 40.9383Z" fill="url(#paint61_linear_926_12054)" stroke="#64B5C8" stroke-linejoin="round"/>
<path d="M329.564 -8.19844L291.064 14.0307C288.57 15.4731 290.107 18.0074 293.625 18.1557C293.693 18.1557 293.76 18.1557 293.828 18.1557L291.051 19.7599C288.557 21.2023 290.094 23.7366 293.612 23.8849C294.232 23.9118 294.866 23.9523 295.486 24.0062L329.564 4.32484H329.537H329.645V-8.21191H329.537L329.564 -8.19844Z" fill="url(#paint62_linear_926_12054)" stroke="#64B5C8" stroke-linejoin="round"/>
<path d="M188.452 39.401C193.345 38.9831 198.05 37.6485 201.703 35.3703C205.963 32.7282 207.904 29.2233 207.594 25.7858H207.742V20.0566V13.249L207.594 13.2895C207.877 16.7135 205.936 20.1914 201.703 22.8336C197.565 25.4083 192.105 26.7833 186.511 26.9855C182.979 27.1069 181.429 29.6142 183.936 31.0701L186.767 32.7012C186.686 32.7012 186.592 32.7012 186.511 32.7147C182.979 32.836 188.452 39.401 188.452 39.401Z" fill="url(#paint63_linear_926_12054)"/>
<path d="M207.608 20.0431C207.608 20.1375 207.608 20.2453 207.608 20.3397M188.452 39.401C193.345 38.9831 198.05 37.6485 201.703 35.3703C205.963 32.7282 207.904 29.2233 207.594 25.7858H207.742V20.0566V13.249L207.594 13.2895C207.877 16.7135 205.936 20.1914 201.703 22.8336C197.565 25.4083 192.105 26.7833 186.511 26.9855C182.979 27.1069 181.429 29.6142 183.936 31.0701L186.767 32.7012C186.686 32.7012 186.592 32.7012 186.511 32.7147C182.979 32.836 188.452 39.401 188.452 39.401Z" stroke="#64B5C8" stroke-linejoin="round"/>
<path d="M184.582 75.515C182.614 76.6474 179.338 75.906 179.055 74.3018C178.475 70.9856 175.806 67.7773 171.074 65.3508C162.514 60.9832 148.387 60.9158 139.8 65.2025C132.979 68.6131 130.458 73.6952 132.17 78.3863C131.402 80.4623 131.469 82.6057 132.386 84.6682C133.532 82.08 135.999 79.64 139.8 77.7393C148.374 73.439 162.514 73.5065 171.074 77.8876C175.806 80.314 178.475 83.5224 179.055 86.8385C179.338 88.4427 182.614 89.1841 184.582 88.0518L222.758 66.0114V53.4746L184.582 75.515Z" fill="url(#paint64_linear_926_12054)" stroke="#64B5C8" stroke-linejoin="round"/>
<path d="M49.4418 75.5011L10.6318 53.0967V65.62L44.9394 85.4361C45.5865 85.3822 46.2335 85.3417 46.8806 85.3148C50.4124 85.1935 51.9627 82.6861 49.4553 81.2302L46.6244 79.5991C46.7053 79.5991 46.7997 79.5991 46.8806 79.5856C50.4124 79.4643 51.9627 76.957 49.4553 75.5011H49.4418Z" fill="url(#paint65_linear_926_12054)" stroke="#64B5C8" stroke-linejoin="round"/>
<path d="M153.914 88.6993C148.589 88.4971 143.359 87.2029 139.287 84.8574C135.392 82.6061 133.194 79.7483 132.696 76.8096V81.002C132.035 84.8034 134.232 88.7397 139.287 91.6649C142.887 93.7409 147.376 94.9811 152.04 95.3855L156.475 92.8243C158.969 91.3819 157.432 88.8475 153.914 88.6993Z" fill="url(#paint66_linear_926_12054)" stroke="#64B5C8" stroke-linejoin="round"/>
<path d="M156.126 91.2606C156.085 91.6784 155.829 92.1098 155.222 92.4603L117.033 114.501L78.2764 92.1233C75.7691 90.6809 71.3745 91.5436 71.1588 93.5792C70.8353 96.6527 68.638 99.6588 64.5938 102.004C55.5216 107.235 40.6392 107.087 31.7826 101.573C28.3047 99.4027 26.3365 96.6797 25.8647 93.8892V103.865C25.2716 107.504 27.2397 111.279 31.7826 114.11C40.6392 119.623 55.5216 119.772 64.5938 114.541C68.6514 112.196 70.8353 109.189 71.1588 106.116C71.3745 104.08 75.7691 103.218 78.2764 104.66L117.033 127.037L155.222 104.984C155.977 104.552 156.247 104 156.126 103.474V91.2471V91.2606Z" fill="url(#paint67_linear_926_12054)" stroke="#64B5C8" stroke-linejoin="round"/>
<path d="M260.046 79.3696C254.317 79.6931 248.763 81.2029 244.597 83.926C239.731 87.1074 238.019 91.6502 239.448 95.8157C238.733 97.8782 238.801 100.049 239.65 102.098C240.513 100.022 242.144 98.0669 244.611 96.4627C248.776 93.7397 254.33 92.2299 260.059 91.9064C261.879 91.812 263.025 90.9627 263.052 90.073V77.6846C262.903 78.5204 261.771 79.2753 260.059 79.3696H260.046Z" fill="url(#paint68_linear_926_12054)" stroke="#64B5C8" stroke-linejoin="round"/>
<path d="M203.509 128.52C194.329 122.427 178.355 122.144 168.689 127.724C164.645 130.057 162.381 133.022 161.882 136.082C161.626 137.673 158.35 138.374 156.382 137.242L117.963 115.066V127.59H117.949L156.382 149.778C158.336 150.911 161.612 150.196 161.882 148.619C162.381 145.559 164.645 142.593 168.689 140.261C178.355 134.68 194.329 134.95 203.509 141.057C205.936 142.674 207.553 144.615 208.403 146.678C209.252 144.629 209.306 142.472 208.605 140.41C210.02 136.271 208.349 131.742 203.509 128.533V128.52Z" fill="url(#paint69_linear_926_12054)" stroke="#64B5C8" stroke-linejoin="round"/>
<path d="M330.09 127.967V115.443L291.59 137.673C289.096 139.115 290.632 141.649 294.151 141.798C294.218 141.798 294.286 141.798 294.353 141.798L291.576 143.402C289.082 144.844 290.619 147.378 294.137 147.527C294.757 147.554 295.391 147.594 296.011 147.648L330.09 127.967Z" fill="url(#paint70_linear_926_12054)"/>
<path d="M330.09 127.967V115.443L291.59 137.673C289.096 139.115 290.632 141.649 294.151 141.798C294.218 141.798 294.286 141.798 294.353 141.798L291.576 143.402C289.082 144.844 290.619 147.378 294.137 147.527C294.757 147.554 295.391 147.594 296.011 147.648L330.09 127.967ZM330.09 127.967H330.076" stroke="#64B5C8" stroke-linejoin="round"/>
<path d="M185.943 154.308C185.512 154.052 185.256 153.769 185.108 153.473V165.093C184.852 165.686 185.054 166.333 185.943 166.845L224.363 189.02V176.484L185.943 154.308Z" fill="url(#paint71_linear_926_12054)" stroke="#64B5C8" stroke-linejoin="round"/>
<path d="M315.464 155.466C315.262 158.81 312.862 162.126 308.239 164.593C299.652 169.176 285.929 169.149 277.315 164.525C272.839 162.126 270.413 158.958 270.035 155.723C269.793 153.687 265.452 152.77 262.958 154.213L224.391 176.482V189.019L262.958 166.749C265.452 165.307 269.806 166.224 270.035 168.259C270.413 171.481 272.839 174.649 277.315 177.062C285.942 181.686 299.665 181.713 308.239 177.129C312.862 174.662 315.262 171.346 315.464 168.003V167.895C315.464 167.734 315.464 167.572 315.464 167.41V155.453V155.466Z" fill="url(#paint72_linear_926_12054)" stroke="#64B5C8" stroke-linejoin="round"/>
<path d="M244.597 83.9257C248.762 81.2026 254.316 79.6928 260.045 79.3693C262.809 79.221 264.076 77.3338 262.108 76.1879L223.689 54.0127L185.121 76.2823C182.627 77.7247 178.273 76.808 178.044 74.7725C177.667 71.5507 175.24 68.3828 170.765 65.9698C162.137 61.346 148.414 61.3191 139.841 65.9024C130.337 70.9845 130.175 79.5715 139.301 84.8423C143.386 87.2014 148.616 88.482 153.928 88.6842C157.459 88.819 158.983 91.3668 156.489 92.8092L117.962 115.052H117.975L156.408 137.241C158.363 138.373 161.638 137.658 161.908 136.081C162.407 133.021 164.671 130.056 168.716 127.723C178.381 122.143 194.355 122.412 203.535 128.519C211.03 133.493 211.003 141.662 203.481 146.569C199.316 149.292 193.762 150.802 188.033 151.125C185.269 151.274 184.002 153.161 185.97 154.307L224.389 176.482L262.957 154.212C265.451 152.77 269.805 153.687 270.034 155.722C270.412 158.944 272.838 162.112 277.313 164.525C285.941 169.149 299.664 169.176 308.237 164.592C317.741 159.51 317.903 150.923 308.777 145.652C304.692 143.293 299.462 142.013 294.15 141.81C290.619 141.676 289.095 139.128 291.589 137.685L330.116 115.443H330.103L291.67 93.2541C289.715 92.1217 286.426 92.8362 286.17 94.4134C285.671 97.4734 283.407 100.439 279.362 102.771C269.697 108.352 253.723 108.082 244.543 101.976C237.048 97.0016 237.075 88.8325 244.597 83.9257Z" fill="url(#paint73_linear_926_12054)" stroke="#64B5C8" stroke-linejoin="round"/>
<path d="M168.203 4.06865C177.774 -1.4583 193.56 -1.24262 202.78 4.70223C210.221 9.50124 210.383 18.0613 202.969 22.9142C198.803 25.6373 193.25 27.1471 187.52 27.4706C184.757 27.6189 183.49 29.5061 185.458 30.652L223.877 52.8272L262.444 30.5576C264.938 29.1152 269.292 30.0319 269.522 32.0674C269.899 35.2892 272.325 38.4571 276.801 40.8701C285.428 45.4939 299.151 45.5208 307.725 40.9375C317.229 35.8554 317.39 27.2684 308.264 21.9976C304.18 19.6385 298.949 18.3578 293.638 18.1556C290.106 18.0208 288.583 15.4731 291.077 14.0306L329.604 -8.21197L231.723 -64.7082C226.452 -67.7548 219.941 -67.7548 214.67 -64.7082L117.463 -8.58942L155.895 13.5993C157.85 14.7316 161.139 14.0172 161.395 12.44C161.894 9.37992 164.159 6.41423 168.203 4.08213V4.06865Z" fill="url(#paint74_linear_926_12054)" stroke="#64B5C8" stroke-linejoin="round"/>
<path d="M168.811 4.54026C164.753 6.88584 162.57 9.89197 162.246 12.9655C162.03 15.001 157.636 15.8638 155.128 14.4214L116.372 -7.95605L10.6592 53.0831L49.4692 75.501C51.9765 76.9434 50.4263 79.4507 46.8944 79.5855C41.3136 79.7877 35.8405 81.1627 31.7021 83.7375C23.7486 88.6848 23.7756 96.6112 31.7829 101.599C40.6395 107.112 55.5219 107.261 64.5942 102.03C68.6518 99.6848 70.8356 96.6786 71.1591 93.6051C71.3748 91.5696 75.7694 90.7068 78.2768 92.1492L117.033 114.527L155.223 92.4862C157.164 91.3674 155.924 89.4666 153.174 89.3049C147.876 88.9948 142.726 87.6737 138.655 85.3282C128.936 79.7203 129.3 70.4863 139.815 65.2289C148.388 60.9287 162.529 60.9961 171.089 65.3772C175.821 67.8037 178.49 71.012 179.07 74.3282C179.353 75.9323 182.628 76.6738 184.597 75.5414L222.773 53.501L183.963 31.0966C181.456 29.6407 183.006 27.1468 186.538 27.012C192.119 26.8098 197.592 25.4348 201.73 22.8601C209.683 17.9128 209.657 9.98633 201.649 4.99859C192.793 -0.514885 177.91 -0.663169 168.838 4.56722L168.811 4.54026Z" fill="url(#paint75_linear_926_12054)" stroke="#64B5C8" stroke-linejoin="round"/>
<path d="M451.83 249.708C449.323 248.265 444.929 249.128 444.713 251.163C444.389 254.237 442.192 257.243 438.148 259.589C429.076 264.819 414.193 264.671 405.337 259.157C401.845 256.973 399.864 254.237 399.419 251.433V255.76C399.297 256.515 399.419 261.489 399.419 261.489C398.839 265.116 400.821 268.877 405.337 271.694C414.193 277.208 429.076 277.356 438.148 272.125C442.205 269.78 444.389 266.774 444.713 263.7C444.929 261.665 449.323 260.802 451.83 262.244L490.587 284.622V272.085L451.83 249.708Z" fill="url(#paint76_linear_926_12054)" stroke="#64B5C8" stroke-linejoin="round"/>
<path d="M453.785 187.388C459.083 187.698 464.232 189.019 468.303 191.364C471.457 193.184 473.533 195.395 474.558 197.727C475.461 195.678 475.529 193.521 474.774 191.445C476.391 187.051 474.248 182.265 468.303 178.828C464.232 176.482 459.083 175.147 453.785 174.851C452.221 174.756 451.17 174.109 450.886 173.354V179.353C450.779 179.623 450.779 179.906 450.886 180.176V185.082C450.455 186.12 451.668 187.266 453.785 187.388Z" fill="url(#paint77_linear_926_12054)" stroke="#64B5C8" stroke-linejoin="round"/>
<path d="M420.435 242.886C423.967 242.765 425.518 240.257 423.01 238.802L420.179 237.17C420.26 237.17 420.355 237.17 420.435 237.157C423.967 237.036 425.518 234.528 423.01 233.072L384.2 210.668V223.205L418.508 243.007C419.155 242.953 419.802 242.913 420.449 242.886H420.435Z" fill="url(#paint78_linear_926_12054)" stroke="#64B5C8" stroke-linejoin="round"/>
<path d="M438.136 259.589C442.193 257.243 444.377 254.237 444.701 251.164C444.916 249.128 449.311 248.265 451.818 249.708L490.574 272.085L596.288 211.046L557.478 188.628C554.97 187.172 556.52 184.679 560.052 184.544C565.633 184.341 571.106 182.966 575.245 180.392C583.198 175.444 583.171 167.518 575.164 162.53C566.307 157.017 551.425 156.868 542.353 162.099C538.295 164.444 536.111 167.451 535.788 170.524C535.572 172.56 531.177 173.422 528.67 171.98L489.914 149.603L451.724 171.643C449.783 172.762 451.023 174.663 453.773 174.824C459.071 175.134 464.22 176.455 468.291 178.801C478.011 184.409 477.647 193.643 467.132 198.9C458.559 203.201 444.418 203.133 435.858 198.752C431.126 196.326 428.457 193.117 427.877 189.801C427.594 188.197 424.318 187.455 422.35 188.588L384.174 210.628L422.984 233.033C425.491 234.489 423.941 236.982 420.409 237.117C414.828 237.319 409.355 238.694 405.217 241.269C397.263 246.216 397.29 254.143 405.298 259.131C414.154 264.644 429.037 264.792 438.109 259.562L438.136 259.589Z" fill="url(#paint79_linear_926_12054)" stroke="#64B5C8" stroke-linejoin="round"/>
<path d="M453.786 173.948C459.083 174.258 464.233 175.579 468.304 177.924C471.458 179.744 473.534 181.955 474.559 184.287C476.568 179.744 474.492 174.703 468.304 171.13C464.233 168.785 459.083 167.45 453.786 167.154C452.222 167.059 451.17 166.412 450.887 165.657V171.656C450.456 172.694 451.669 173.84 453.786 173.961V173.948Z" fill="url(#paint80_linear_926_12054)" stroke="#64B5C8" stroke-linejoin="round"/>
<path d="M420.435 229.447C423.967 229.326 425.518 226.818 423.01 225.362L384.2 202.958V209.766L418.508 229.568C419.155 229.514 419.802 229.474 420.449 229.447H420.435Z" fill="url(#paint81_linear_926_12054)" stroke="#64B5C8" stroke-linejoin="round"/>
<path d="M490.601 264.374L451.845 241.997C449.338 240.554 444.943 241.417 444.727 243.452C444.404 246.526 442.207 249.532 438.163 251.878C429.09 257.108 414.208 256.96 405.351 251.446C401.86 249.263 399.878 246.526 399.433 243.722V248.049C398.854 251.676 400.835 255.437 405.351 258.254C414.208 263.767 429.09 263.916 438.163 258.685C442.22 256.34 444.404 253.334 444.727 250.26C444.943 248.225 449.338 247.362 451.845 248.804L490.601 271.182V264.374Z" fill="url(#paint82_linear_926_12054)" stroke="#64B5C8" stroke-linejoin="round"/>
<path d="M451.83 232.521C449.323 231.079 444.929 231.941 444.713 233.977C444.389 237.05 442.192 240.057 438.148 242.402C429.076 247.633 414.193 247.484 405.337 241.971C401.845 239.787 399.864 237.05 399.419 234.247V238.574C399.297 239.329 399.419 244.303 399.419 244.303C398.839 247.929 400.821 251.69 405.337 254.508C414.193 260.021 429.076 260.169 438.148 254.939C442.205 252.593 444.389 249.587 444.713 246.514C444.929 244.478 449.323 243.615 451.83 245.058L490.587 267.435V254.898L451.83 232.521Z" fill="url(#paint83_linear_926_12054)" stroke="#64B5C8" stroke-linejoin="round"/>
<path d="M453.785 170.188C459.083 170.498 464.232 171.819 468.303 174.165C471.457 175.985 473.533 178.196 474.558 180.528C475.461 178.479 475.529 176.322 474.774 174.246C476.391 169.851 474.248 165.066 468.303 161.628C464.232 159.283 459.083 157.948 453.785 157.652C452.221 157.557 451.17 156.91 450.886 156.155V162.154C450.779 162.424 450.779 162.707 450.886 162.976V167.883C450.455 168.921 451.668 170.067 453.785 170.188Z" fill="url(#paint84_linear_926_12054)" stroke="#64B5C8" stroke-linejoin="round"/>
<path d="M420.435 225.701C423.967 225.579 425.518 223.072 423.01 221.616L420.179 219.985C420.26 219.985 420.355 219.985 420.435 219.971C423.967 219.85 425.518 217.343 423.01 215.887L384.2 193.482V206.019L418.508 225.822C419.155 225.768 419.802 225.727 420.449 225.701H420.435Z" fill="url(#paint85_linear_926_12054)" stroke="#64B5C8" stroke-linejoin="round"/>
<path d="M438.136 242.401C442.193 240.056 444.377 237.05 444.701 233.976C444.916 231.941 449.311 231.078 451.818 232.52L490.574 254.898L596.288 193.859L557.478 171.441C554.97 169.998 556.52 167.491 560.052 167.356C565.633 167.154 571.106 165.779 575.245 163.204C583.198 158.257 583.171 150.33 575.164 145.343C566.307 139.829 551.425 139.681 542.353 144.911C538.295 147.257 536.111 150.263 535.788 153.337C535.572 155.372 531.177 156.235 528.67 154.792L489.914 132.415L451.724 154.455C449.783 155.574 451.023 157.475 453.773 157.637C459.071 157.947 464.22 159.268 468.291 161.614C478.011 167.221 477.647 176.455 467.132 181.713C458.559 186.013 444.418 185.946 435.858 181.565C431.126 179.138 428.457 175.93 427.877 172.614C427.594 171.009 424.318 170.268 422.35 171.4L384.174 193.441L422.984 215.845C425.491 217.301 423.941 219.795 420.409 219.93C414.828 220.132 409.355 221.507 405.217 224.082C397.263 229.029 397.29 236.955 405.298 241.943C414.154 247.457 429.037 247.605 438.109 242.374L438.136 242.401Z" fill="url(#paint86_linear_926_12054)" stroke="#64B5C8" stroke-linejoin="round"/>
<path d="M407.009 -1.57989C405.068 -0.461018 406.308 1.43972 409.058 1.60148C414.356 1.91153 419.519 3.23261 423.577 5.57819C433.296 11.186 432.932 20.4201 422.417 25.6774C413.844 29.9777 399.703 29.9103 391.143 25.5292C386.411 23.1027 383.742 19.8944 383.162 16.5782C382.879 14.974 379.604 14.2326 377.635 15.3649L339.459 37.4054L378.269 59.8098C380.776 61.2656 379.226 63.7595 375.694 63.8943C370.113 64.0965 364.64 65.4715 360.502 68.0463C352.548 72.9936 352.575 80.92 360.583 85.9078C369.439 91.4212 384.322 91.5695 393.394 86.3391C397.452 83.9936 399.635 80.9874 399.959 77.9139C400.175 75.8784 404.569 75.0156 407.077 76.458L445.833 98.8354L484.009 76.795C485.964 75.6627 484.683 73.7754 481.92 73.6137C476.19 73.2767 470.61 71.7399 466.417 69.0034C458.841 64.0696 458.72 55.9004 466.161 50.9531C475.274 44.887 491.248 44.6713 500.967 50.2791C505.038 52.6247 507.33 55.6039 507.856 58.6639C508.125 60.2546 511.415 60.9691 513.369 59.8502L551.559 37.7963L445.172 -23.6338L406.982 -1.57989H407.009Z" fill="url(#paint87_linear_926_12054)" stroke="#64B5C8" stroke-linejoin="round"/>
<path d="M378.283 65.5525L375.452 63.9214C375.533 63.9214 375.627 63.9214 375.708 63.9079C379.24 63.7866 380.79 61.2792 378.283 59.8233L339.473 37.4189V49.9557L373.78 69.7584C374.427 69.7044 375.074 69.664 375.721 69.6371C379.253 69.5157 380.804 67.0084 378.296 65.5525H378.283Z" fill="url(#paint88_linear_926_12054)" stroke="#64B5C8" stroke-linejoin="round"/>
<path d="M423.59 5.57819C419.518 3.23261 414.369 1.89805 409.071 1.60148C407.305 1.49364 406.173 0.671338 406.092 -0.191406H406.038V12.3319H406.092C406.159 13.2081 407.292 14.0304 409.071 14.1382C414.369 14.4483 419.532 15.7694 423.59 18.1149C426.744 19.9348 428.82 22.1456 429.844 24.4777C430.748 22.4287 430.815 20.2718 430.06 18.1958C431.678 13.8012 429.534 9.01569 423.59 5.57819Z" fill="url(#paint89_linear_926_12054)" stroke="#64B5C8" stroke-linejoin="round"/>
<path d="M484.898 75.9053C484.776 76.2153 484.507 76.5254 484.048 76.795L445.872 98.8354V111.372L484.048 89.3317C484.884 88.8464 485.1 88.2398 484.898 87.6736V75.9053Z" fill="url(#paint90_linear_926_12054)" stroke="#64B5C8" stroke-linejoin="round"/>
<path d="M407.103 76.4566C404.596 75.0142 400.201 75.8769 399.985 77.9125C399.662 80.986 397.464 83.9921 393.42 86.3377C384.348 91.5681 369.466 91.4198 360.609 85.9063C356.686 83.4664 354.691 80.3254 354.597 77.171H354.543V89.6943H354.597C354.691 92.8487 356.686 95.9897 360.609 98.4431C369.466 103.957 384.348 104.105 393.42 98.8745C397.478 96.5289 399.662 93.5227 399.985 90.4492C400.201 88.4137 404.596 87.5509 407.103 88.9933L445.859 111.371V98.834L407.103 76.4566Z" fill="url(#paint91_linear_926_12054)" stroke="#64B5C8" stroke-linejoin="round"/>
<path d="M513.411 59.8498C511.469 60.9687 508.18 60.2542 507.897 58.6635C507.371 55.6035 505.066 52.6243 501.009 50.2787C491.289 44.6709 475.315 44.8866 466.202 50.9528C461.444 54.1206 459.799 58.6096 461.215 62.7211C460.5 64.7836 460.568 66.9405 461.403 68.9895C462.239 66.9674 463.843 65.0667 466.202 63.4895C475.315 57.4233 491.289 57.2077 501.009 62.8155C505.08 65.1611 507.371 68.1402 507.897 71.2003C508.167 72.791 511.456 73.5054 513.411 72.3866L551.601 50.3327V37.7959L513.411 59.8498Z" fill="url(#paint92_linear_926_12054)" stroke="#64B5C8" stroke-linejoin="round"/>
<path d="M375.708 56.1842C379.24 56.0629 380.79 53.5556 378.283 52.0997L339.473 29.6953V36.5029L373.78 56.3056C374.427 56.2517 375.074 56.2112 375.721 56.1842H375.708Z" fill="url(#paint93_linear_926_12054)" stroke="#64B5C8" stroke-linejoin="round"/>
<path d="M409.058 0.684656C414.356 0.994705 419.519 2.31578 423.577 4.66137C426.731 6.48122 428.807 8.692 429.832 11.0241C431.84 6.48122 429.764 1.43956 423.577 -2.13274C419.506 -4.47833 414.356 -5.81289 409.058 -6.10946C407.293 -6.2173 406.16 -7.0396 406.079 -7.90234H406.025V-1.10823H406.079C406.147 -0.232007 407.279 0.590296 409.058 0.698139V0.684656Z" fill="url(#paint94_linear_926_12054)" stroke="#64B5C8" stroke-linejoin="round"/>
<path d="M445.859 97.932L484.036 75.8916C484.872 75.4063 485.087 74.7997 484.885 74.2335V68.1943C484.764 68.5044 484.494 68.8144 484.036 69.084L445.859 91.1245V97.932Z" fill="url(#paint95_linear_926_12054)" stroke="#64B5C8" stroke-linejoin="round"/>
<path d="M445.859 91.125L407.103 68.7476C404.596 67.3052 400.201 68.1679 399.985 70.2035C399.662 73.277 397.464 76.2831 393.42 78.6287C384.348 83.8591 369.466 83.7108 360.609 78.1973C356.686 75.7574 354.691 72.6165 354.597 69.4621H354.543V76.2562H354.597C354.691 79.4106 356.686 82.5515 360.609 85.0049C369.466 90.5184 384.348 90.6667 393.42 85.4363C397.478 83.0907 399.662 80.0846 399.985 77.0111C400.201 74.9755 404.596 74.1128 407.103 75.5552L445.859 97.9326V91.125Z" fill="url(#paint96_linear_926_12054)" stroke="#64B5C8" stroke-linejoin="round"/>
<path d="M513.409 52.1262C511.468 53.245 508.178 52.5306 507.895 50.9399C507.37 47.8798 505.064 44.9007 501.007 42.5551C491.287 36.9473 475.313 37.1629 466.2 43.2291C461.226 46.5318 459.649 51.2769 461.401 55.5367C462.237 53.5146 463.841 51.6139 466.2 50.0367C475.313 43.9705 491.287 43.7548 501.007 49.3627C505.078 51.7083 507.37 54.6874 507.895 57.7475C508.165 59.3382 511.454 60.0526 513.409 58.9338L551.599 36.8799V30.0723L513.409 52.1262Z" fill="url(#paint97_linear_926_12054)" stroke="#64B5C8" stroke-linejoin="round"/>
<path d="M378.283 48.365L375.452 46.7339C375.533 46.7339 375.627 46.7339 375.708 46.7204C379.24 46.5991 380.79 44.0917 378.283 42.6358L339.473 20.2314V32.7682L373.78 52.5709C374.427 52.5169 375.074 52.4765 375.721 52.4496C379.253 52.3282 380.804 49.8209 378.296 48.365H378.283Z" fill="url(#paint98_linear_926_12054)" stroke="#64B5C8" stroke-linejoin="round"/>
<path d="M423.59 -11.623C419.518 -13.9686 414.369 -15.3031 409.071 -15.5997C407.305 -15.7075 406.173 -16.5298 406.092 -17.3926H406.038V-4.86931H406.092C406.159 -3.99308 407.292 -3.17078 409.071 -3.06294C414.369 -2.75289 419.532 -1.43181 423.59 0.913777C426.744 2.73363 428.82 4.94441 429.844 7.27651C430.748 5.22749 430.815 3.07063 430.06 0.994656C431.678 -3.39995 429.534 -8.18548 423.59 -11.623Z" fill="url(#paint99_linear_926_12054)" stroke="#64B5C8" stroke-linejoin="round"/>
<path d="M484.898 58.7178C484.776 59.0278 484.507 59.3379 484.048 59.6075L445.872 81.6479V94.1846L484.048 72.1442C484.884 71.6589 485.1 71.0523 484.898 70.4861V58.7178Z" fill="url(#paint100_linear_926_12054)" stroke="#64B5C8" stroke-linejoin="round"/>
<path d="M407.103 59.2564C404.596 57.814 400.201 58.6767 399.985 60.7123C399.662 63.7858 397.464 66.7919 393.42 69.1375C384.348 74.3679 369.466 74.2196 360.609 68.7061C356.686 66.2662 354.691 63.1253 354.597 59.9708H354.543V72.4941H354.597C354.691 75.6485 356.686 78.7894 360.609 81.2429C369.466 86.7564 384.348 86.9046 393.42 81.6743C397.478 79.3287 399.662 76.3225 399.985 73.249C400.201 71.2135 404.596 70.3507 407.103 71.7931L445.859 94.1706V81.6338L407.103 59.2564Z" fill="url(#paint101_linear_926_12054)" stroke="#64B5C8" stroke-linejoin="round"/>
<path d="M513.411 42.6486C511.469 43.7675 508.18 43.053 507.897 41.4623C507.371 38.4023 505.066 35.4231 501.009 33.0775C491.289 27.4697 475.315 27.6854 466.202 33.7516C461.444 36.9195 459.799 41.4084 461.215 45.5199C460.5 47.5824 460.568 49.7393 461.403 51.7883C462.239 49.7663 463.843 47.8655 466.202 46.2883C475.315 40.2222 491.289 40.0065 501.009 45.6143C505.08 47.9599 507.371 50.9391 507.897 53.9991C508.167 55.5898 511.456 56.3042 513.411 55.1854L551.601 33.1315V20.5947L513.411 42.6486Z" fill="url(#paint102_linear_926_12054)" stroke="#64B5C8" stroke-linejoin="round"/>
<path d="M407.009 -18.7801C405.068 -17.6612 406.308 -15.7605 409.058 -15.5987C414.356 -15.2887 419.519 -13.9676 423.577 -11.622C433.296 -6.01416 432.932 3.21989 422.417 8.47724C413.844 12.7775 399.703 12.7101 391.143 8.32896C386.411 5.90249 383.742 2.69416 383.162 -0.622013C382.879 -2.22618 379.604 -2.9676 377.635 -1.83525L339.459 20.2052L378.269 42.6096C380.776 44.0654 379.226 46.5593 375.694 46.6941C370.113 46.8963 364.64 48.2713 360.502 50.8461C352.548 55.7934 352.575 63.7198 360.583 68.7076C369.439 74.221 384.322 74.3693 393.394 69.1389C397.452 66.7934 399.635 63.7872 399.959 60.7137C400.175 58.6782 404.569 57.8154 407.077 59.2578L445.833 81.6353L484.009 59.5948C485.964 58.4625 484.683 56.5752 481.92 56.4135C476.19 56.0765 470.61 54.5397 466.417 51.8032C458.841 46.8694 458.72 38.7002 466.161 33.7529C475.274 27.6868 491.248 27.4711 500.967 33.0789C505.038 35.4245 507.33 38.4037 507.856 41.4637C508.125 43.0544 511.415 43.7689 513.369 42.65L551.559 20.5961L445.172 -40.834L406.982 -18.7801H407.009Z" fill="url(#paint103_linear_926_12054)" stroke="#64B5C8" stroke-linejoin="round"/>
<path d="M371.57 407.185C374.738 409.018 378.647 409.018 381.815 407.185L482.419 349.098H482.405L443.973 326.909C442.018 325.777 438.729 326.491 438.473 328.069C437.974 331.129 435.709 334.094 431.665 336.426C422 342.007 406.026 341.738 396.845 335.631C389.35 330.657 389.377 322.488 396.899 317.581C401.065 314.858 406.619 313.348 412.348 313.025C415.111 312.876 416.378 310.989 414.41 309.843L375.991 287.668L337.424 309.938C334.93 311.38 330.576 310.463 330.347 308.428C329.969 305.206 327.543 302.038 323.067 299.625C314.44 295.001 300.717 294.974 292.143 299.558C282.64 304.64 282.478 313.227 291.604 318.498C295.689 320.857 300.919 322.137 306.23 322.34C309.762 322.474 311.285 325.022 308.792 326.464L270.265 348.707H270.278L371.543 407.172L371.57 407.185Z" fill="url(#paint104_linear_926_12054)" stroke="#64B5C8" stroke-linejoin="round"/>
<path d="M371.57 389.661C374.738 391.494 378.647 391.494 381.815 389.661L482.419 331.574H482.405L443.973 309.385C442.018 308.253 438.729 308.967 438.473 310.544C437.974 313.604 435.709 316.57 431.665 318.902C422 324.483 406.026 324.213 396.845 318.107C389.35 313.132 389.377 304.963 396.899 300.057C401.065 297.333 406.619 295.824 412.348 295.5C415.111 295.352 416.378 293.465 414.41 292.319L375.991 270.144L337.424 292.413C334.93 293.856 330.576 292.939 330.347 290.903C329.969 287.682 327.543 284.514 323.067 282.101C314.44 277.477 300.717 277.45 292.143 282.033C282.64 287.115 282.478 295.702 291.604 300.973C295.689 303.332 300.919 304.613 306.23 304.815C309.762 304.95 311.285 307.498 308.792 308.94L270.265 331.183H270.278L371.543 389.647L371.57 389.661Z" fill="url(#paint105_linear_926_12054)" stroke="#64B5C8" stroke-linejoin="round"/>
</g>
<defs>
<linearGradient id="paint0_linear_926_12054" x1="84.8816" y1="246.068" x2="84.8816" y2="246.473" gradientUnits="userSpaceOnUse">
<stop stop-color="#A8C9D1"/>
<stop offset="1" stop-color="white"/>
</linearGradient>
<linearGradient id="paint1_linear_926_12054" x1="20.3772" y1="163.689" x2="20.3772" y2="187.9" gradientUnits="userSpaceOnUse">
<stop stop-color="#A8C9D1"/>
<stop offset="1" stop-color="white"/>
</linearGradient>
<linearGradient id="paint2_linear_926_12054" x1="39.365" y1="239.334" x2="39.365" y2="274.822" gradientUnits="userSpaceOnUse">
<stop stop-color="#A8C9D1"/>
<stop offset="1" stop-color="white"/>
</linearGradient>
<linearGradient id="paint3_linear_926_12054" x1="84.8816" y1="240.325" x2="84.8816" y2="240.73" gradientUnits="userSpaceOnUse">
<stop stop-color="#A8C9D1"/>
<stop offset="1" stop-color="white"/>
</linearGradient>
<linearGradient id="paint4_linear_926_12054" x1="79.6706" y1="201.231" x2="79.6706" y2="233.45" gradientUnits="userSpaceOnUse">
<stop stop-color="#A8C9D1"/>
<stop offset="1" stop-color="white"/>
</linearGradient>
<linearGradient id="paint5_linear_926_12054" x1="-3.17968" y1="139.815" x2="-3.17968" y2="262.285" gradientUnits="userSpaceOnUse">
<stop stop-color="#A8C9D1"/>
<stop offset="1" stop-color="white"/>
</linearGradient>
<linearGradient id="paint6_linear_926_12054" x1="20.3789" y1="155.979" x2="20.3789" y2="174.448" gradientUnits="userSpaceOnUse">
<stop stop-color="#A8C9D1"/>
<stop offset="1" stop-color="white"/>
</linearGradient>
<linearGradient id="paint7_linear_926_12054" x1="39.365" y1="231.608" x2="39.365" y2="261.381" gradientUnits="userSpaceOnUse">
<stop stop-color="#A8C9D1"/>
<stop offset="1" stop-color="white"/>
</linearGradient>
<linearGradient id="paint8_linear_926_12054" x1="84.8816" y1="232.614" x2="84.8816" y2="233.019" gradientUnits="userSpaceOnUse">
<stop stop-color="#A8C9D1"/>
<stop offset="1" stop-color="white"/>
</linearGradient>
<linearGradient id="paint9_linear_926_12054" x1="79.6706" y1="193.521" x2="79.6706" y2="220.01" gradientUnits="userSpaceOnUse">
<stop stop-color="#A8C9D1"/>
<stop offset="1" stop-color="white"/>
</linearGradient>
<linearGradient id="paint10_linear_926_12054" x1="84.8816" y1="228.868" x2="84.8816" y2="229.273" gradientUnits="userSpaceOnUse">
<stop stop-color="#A8C9D1"/>
<stop offset="1" stop-color="white"/>
</linearGradient>
<linearGradient id="paint11_linear_926_12054" x1="20.3772" y1="146.502" x2="20.3772" y2="170.713" gradientUnits="userSpaceOnUse">
<stop stop-color="#A8C9D1"/>
<stop offset="1" stop-color="white"/>
</linearGradient>
<linearGradient id="paint12_linear_926_12054" x1="39.365" y1="222.132" x2="39.365" y2="257.62" gradientUnits="userSpaceOnUse">
<stop stop-color="#A8C9D1"/>
<stop offset="1" stop-color="white"/>
</linearGradient>
<linearGradient id="paint13_linear_926_12054" x1="84.8816" y1="223.138" x2="84.8816" y2="223.542" gradientUnits="userSpaceOnUse">
<stop stop-color="#A8C9D1"/>
<stop offset="1" stop-color="white"/>
</linearGradient>
<linearGradient id="paint14_linear_926_12054" x1="79.6706" y1="184.044" x2="79.6706" y2="216.262" gradientUnits="userSpaceOnUse">
<stop stop-color="#A8C9D1"/>
<stop offset="1" stop-color="white"/>
</linearGradient>
<linearGradient id="paint15_linear_926_12054" x1="-3.17968" y1="122.628" x2="-3.17968" y2="245.084" gradientUnits="userSpaceOnUse">
<stop stop-color="#A8C9D1"/>
<stop offset="1" stop-color="white"/>
</linearGradient>
<linearGradient id="paint16_linear_926_12054" x1="20.3935" y1="146.124" x2="20.3935" y2="161.559" gradientUnits="userSpaceOnUse">
<stop stop-color="#A8C9D1"/>
<stop offset="1" stop-color="white"/>
</linearGradient>
<linearGradient id="paint17_linear_926_12054" x1="125.568" y1="261.019" x2="125.568" y2="285.432" gradientUnits="userSpaceOnUse">
<stop stop-color="#A8C9D1"/>
<stop offset="1" stop-color="white"/>
</linearGradient>
<linearGradient id="paint18_linear_926_12054" x1="231.417" y1="259.684" x2="231.417" y2="284.663" gradientUnits="userSpaceOnUse">
<stop stop-color="#A8C9D1"/>
<stop offset="1" stop-color="white"/>
</linearGradient>
<linearGradient id="paint19_linear_926_12054" x1="152.903" y1="237.307" x2="152.903" y2="359.776" gradientUnits="userSpaceOnUse">
<stop stop-color="#A8C9D1"/>
<stop offset="1" stop-color="white"/>
</linearGradient>
<linearGradient id="paint20_linear_926_12054" x1="125.569" y1="253.308" x2="125.569" y2="271.991" gradientUnits="userSpaceOnUse">
<stop stop-color="#A8C9D1"/>
<stop offset="1" stop-color="white"/>
</linearGradient>
<linearGradient id="paint21_linear_926_12054" x1="231.417" y1="251.96" x2="231.417" y2="271.21" gradientUnits="userSpaceOnUse">
<stop stop-color="#A8C9D1"/>
<stop offset="1" stop-color="white"/>
</linearGradient>
<linearGradient id="paint22_linear_926_12054" x1="100.007" y1="290.634" x2="100.007" y2="358.858" gradientUnits="userSpaceOnUse">
<stop stop-color="#A8C9D1"/>
<stop offset="1" stop-color="white"/>
</linearGradient>
<linearGradient id="paint23_linear_926_12054" x1="213.367" y1="291.012" x2="213.367" y2="320.405" gradientUnits="userSpaceOnUse">
<stop stop-color="#A8C9D1"/>
<stop offset="1" stop-color="white"/>
</linearGradient>
<linearGradient id="paint24_linear_926_12054" x1="100.007" y1="281.144" x2="100.007" y2="355.11" gradientUnits="userSpaceOnUse">
<stop stop-color="#A8C9D1"/>
<stop offset="1" stop-color="white"/>
</linearGradient>
<linearGradient id="paint25_linear_926_12054" x1="213.369" y1="281.535" x2="213.369" y2="316.658" gradientUnits="userSpaceOnUse">
<stop stop-color="#A8C9D1"/>
<stop offset="1" stop-color="white"/>
</linearGradient>
<linearGradient id="paint26_linear_926_12054" x1="125.568" y1="243.831" x2="125.568" y2="268.244" gradientUnits="userSpaceOnUse">
<stop stop-color="#A8C9D1"/>
<stop offset="1" stop-color="white"/>
</linearGradient>
<linearGradient id="paint27_linear_926_12054" x1="231.417" y1="242.482" x2="231.417" y2="267.462" gradientUnits="userSpaceOnUse">
<stop stop-color="#A8C9D1"/>
<stop offset="1" stop-color="white"/>
</linearGradient>
<linearGradient id="paint28_linear_926_12054" x1="152.903" y1="220.119" x2="152.903" y2="342.588" gradientUnits="userSpaceOnUse">
<stop stop-color="#A8C9D1"/>
<stop offset="1" stop-color="white"/>
</linearGradient>
<linearGradient id="paint29_linear_926_12054" x1="145.141" y1="99.7393" x2="145.141" y2="118.315" gradientUnits="userSpaceOnUse">
<stop stop-color="#A8C9D1"/>
<stop offset="1" stop-color="white"/>
</linearGradient>
<linearGradient id="paint30_linear_926_12054" x1="162.937" y1="8.59766" x2="162.937" y2="43.8764" gradientUnits="userSpaceOnUse">
<stop stop-color="#A8C9D1"/>
<stop offset="1" stop-color="white"/>
</linearGradient>
<linearGradient id="paint31_linear_926_12054" x1="249.796" y1="47.0439" x2="249.796" y2="82.5523" gradientUnits="userSpaceOnUse">
<stop stop-color="#A8C9D1"/>
<stop offset="1" stop-color="white"/>
</linearGradient>
<linearGradient id="paint32_linear_926_12054" x1="309.735" y1="8.98926" x2="309.735" y2="41.2074" gradientUnits="userSpaceOnUse">
<stop stop-color="#A8C9D1"/>
<stop offset="1" stop-color="white"/>
</linearGradient>
<linearGradient id="paint33_linear_926_12054" x1="195.223" y1="30.4365" x2="195.223" y2="56.5885" gradientUnits="userSpaceOnUse">
<stop stop-color="#A8C9D1"/>
<stop offset="1" stop-color="white"/>
</linearGradient>
<linearGradient id="paint34_linear_926_12054" x1="177.2" y1="70.6748" x2="177.2" y2="105.797" gradientUnits="userSpaceOnUse">
<stop stop-color="#A8C9D1"/>
<stop offset="1" stop-color="white"/>
</linearGradient>
<linearGradient id="paint35_linear_926_12054" x1="30.6596" y1="70.2988" x2="30.6596" y2="102.638" gradientUnits="userSpaceOnUse">
<stop stop-color="#A8C9D1"/>
<stop offset="1" stop-color="white"/>
</linearGradient>
<linearGradient id="paint36_linear_926_12054" x1="145.141" y1="93.9961" x2="145.141" y2="112.572" gradientUnits="userSpaceOnUse">
<stop stop-color="#A8C9D1"/>
<stop offset="1" stop-color="white"/>
</linearGradient>
<linearGradient id="paint37_linear_926_12054" x1="90.9576" y1="108.447" x2="90.9576" y2="144.238" gradientUnits="userSpaceOnUse">
<stop stop-color="#A8C9D1"/>
<stop offset="1" stop-color="white"/>
</linearGradient>
<linearGradient id="paint38_linear_926_12054" x1="251.005" y1="94.8857" x2="251.005" y2="119.299" gradientUnits="userSpaceOnUse">
<stop stop-color="#A8C9D1"/>
<stop offset="1" stop-color="white"/>
</linearGradient>
<linearGradient id="paint39_linear_926_12054" x1="163.52" y1="132.254" x2="163.52" y2="167.519" gradientUnits="userSpaceOnUse">
<stop stop-color="#A8C9D1"/>
<stop offset="1" stop-color="white"/>
</linearGradient>
<linearGradient id="paint40_linear_926_12054" x1="310.22" y1="132.644" x2="310.22" y2="164.848" gradientUnits="userSpaceOnUse">
<stop stop-color="#A8C9D1"/>
<stop offset="1" stop-color="white"/>
</linearGradient>
<linearGradient id="paint41_linear_926_12054" x1="204.684" y1="170.659" x2="204.684" y2="206.207" gradientUnits="userSpaceOnUse">
<stop stop-color="#A8C9D1"/>
<stop offset="1" stop-color="white"/>
</linearGradient>
<linearGradient id="paint42_linear_926_12054" x1="269.927" y1="170.698" x2="269.927" y2="206.207" gradientUnits="userSpaceOnUse">
<stop stop-color="#A8C9D1"/>
<stop offset="1" stop-color="white"/>
</linearGradient>
<linearGradient id="paint43_linear_926_12054" x1="224.039" y1="71.2148" x2="224.039" y2="193.684" gradientUnits="userSpaceOnUse">
<stop stop-color="#A8C9D1"/>
<stop offset="1" stop-color="white"/>
</linearGradient>
<linearGradient id="paint44_linear_926_12054" x1="223.533" y1="-49.8057" x2="223.533" y2="70.0147" gradientUnits="userSpaceOnUse">
<stop stop-color="#A8C9D1"/>
<stop offset="1" stop-color="white"/>
</linearGradient>
<linearGradient id="paint45_linear_926_12054" x1="116.716" y1="9.24414" x2="116.716" y2="131.727" gradientUnits="userSpaceOnUse">
<stop stop-color="#A8C9D1"/>
<stop offset="1" stop-color="white"/>
</linearGradient>
<linearGradient id="paint46_linear_926_12054" x1="162.941" y1="0.873047" x2="162.941" y2="30.4226" gradientUnits="userSpaceOnUse">
<stop stop-color="#A8C9D1"/>
<stop offset="1" stop-color="white"/>
</linearGradient>
<linearGradient id="paint47_linear_926_12054" x1="249.796" y1="39.332" x2="249.796" y2="69.1112" gradientUnits="userSpaceOnUse">
<stop stop-color="#A8C9D1"/>
<stop offset="1" stop-color="white"/>
</linearGradient>
<linearGradient id="paint48_linear_926_12054" x1="309.754" y1="1.26465" x2="309.754" y2="27.7536" gradientUnits="userSpaceOnUse">
<stop stop-color="#A8C9D1"/>
<stop offset="1" stop-color="white"/>
</linearGradient>
<linearGradient id="paint49_linear_926_12054" x1="195.217" y1="22.7393" x2="195.217" y2="43.1486" gradientUnits="userSpaceOnUse">
<stop stop-color="#A8C9D1"/>
<stop offset="1" stop-color="white"/>
</linearGradient>
<linearGradient id="paint50_linear_926_12054" x1="177.202" y1="62.9512" x2="177.202" y2="92.3444" gradientUnits="userSpaceOnUse">
<stop stop-color="#A8C9D1"/>
<stop offset="1" stop-color="white"/>
</linearGradient>
<linearGradient id="paint51_linear_926_12054" x1="30.6528" y1="62.5732" x2="30.6528" y2="89.1835" gradientUnits="userSpaceOnUse">
<stop stop-color="#A8C9D1"/>
<stop offset="1" stop-color="white"/>
</linearGradient>
<linearGradient id="paint52_linear_926_12054" x1="145.143" y1="86.2852" x2="145.143" y2="104.861" gradientUnits="userSpaceOnUse">
<stop stop-color="#A8C9D1"/>
<stop offset="1" stop-color="white"/>
</linearGradient>
<linearGradient id="paint53_linear_926_12054" x1="90.9576" y1="100.736" x2="90.9576" y2="130.784" gradientUnits="userSpaceOnUse">
<stop stop-color="#A8C9D1"/>
<stop offset="1" stop-color="white"/>
</linearGradient>
<linearGradient id="paint54_linear_926_12054" x1="250.993" y1="87.1885" x2="250.993" y2="105.859" gradientUnits="userSpaceOnUse">
<stop stop-color="#A8C9D1"/>
<stop offset="1" stop-color="white"/>
</linearGradient>
<linearGradient id="paint55_linear_926_12054" x1="163.521" y1="124.556" x2="163.521" y2="154.078" gradientUnits="userSpaceOnUse">
<stop stop-color="#A8C9D1"/>
<stop offset="1" stop-color="white"/>
</linearGradient>
<linearGradient id="paint56_linear_926_12054" x1="310.233" y1="124.946" x2="310.233" y2="151.422" gradientUnits="userSpaceOnUse">
<stop stop-color="#A8C9D1"/>
<stop offset="1" stop-color="white"/>
</linearGradient>
<linearGradient id="paint57_linear_926_12054" x1="204.685" y1="162.962" x2="204.685" y2="192.781" gradientUnits="userSpaceOnUse">
<stop stop-color="#A8C9D1"/>
<stop offset="1" stop-color="white"/>
</linearGradient>
<linearGradient id="paint58_linear_926_12054" x1="269.927" y1="162.988" x2="269.927" y2="192.767" gradientUnits="userSpaceOnUse">
<stop stop-color="#A8C9D1"/>
<stop offset="1" stop-color="white"/>
</linearGradient>
<linearGradient id="paint59_linear_926_12054" x1="145.141" y1="82.5391" x2="145.141" y2="101.115" gradientUnits="userSpaceOnUse">
<stop stop-color="#A8C9D1"/>
<stop offset="1" stop-color="white"/>
</linearGradient>
<linearGradient id="paint60_linear_926_12054" x1="162.937" y1="-8.60254" x2="162.937" y2="26.6762" gradientUnits="userSpaceOnUse">
<stop stop-color="#A8C9D1"/>
<stop offset="1" stop-color="white"/>
</linearGradient>
<linearGradient id="paint61_linear_926_12054" x1="249.796" y1="29.8564" x2="249.796" y2="65.3648" gradientUnits="userSpaceOnUse">
<stop stop-color="#A8C9D1"/>
<stop offset="1" stop-color="white"/>
</linearGradient>
<linearGradient id="paint62_linear_926_12054" x1="309.735" y1="-8.21191" x2="309.735" y2="24.0062" gradientUnits="userSpaceOnUse">
<stop stop-color="#A8C9D1"/>
<stop offset="1" stop-color="white"/>
</linearGradient>
<linearGradient id="paint63_linear_926_12054" x1="195.223" y1="13.249" x2="195.223" y2="39.401" gradientUnits="userSpaceOnUse">
<stop stop-color="#A8C9D1"/>
<stop offset="1" stop-color="white"/>
</linearGradient>
<linearGradient id="paint64_linear_926_12054" x1="177.2" y1="53.4746" x2="177.2" y2="88.597" gradientUnits="userSpaceOnUse">
<stop stop-color="#A8C9D1"/>
<stop offset="1" stop-color="white"/>
</linearGradient>
<linearGradient id="paint65_linear_926_12054" x1="30.6596" y1="53.0967" x2="30.6596" y2="85.4361" gradientUnits="userSpaceOnUse">
<stop stop-color="#A8C9D1"/>
<stop offset="1" stop-color="white"/>
</linearGradient>
<linearGradient id="paint66_linear_926_12054" x1="145.141" y1="76.8096" x2="145.141" y2="95.3855" gradientUnits="userSpaceOnUse">
<stop stop-color="#A8C9D1"/>
<stop offset="1" stop-color="white"/>
</linearGradient>
<linearGradient id="paint67_linear_926_12054" x1="90.9576" y1="91.2471" x2="90.9576" y2="127.037" gradientUnits="userSpaceOnUse">
<stop stop-color="#A8C9D1"/>
<stop offset="1" stop-color="white"/>
</linearGradient>
<linearGradient id="paint68_linear_926_12054" x1="251.005" y1="77.6846" x2="251.005" y2="102.098" gradientUnits="userSpaceOnUse">
<stop stop-color="#A8C9D1"/>
<stop offset="1" stop-color="white"/>
</linearGradient>
<linearGradient id="paint69_linear_926_12054" x1="163.52" y1="115.066" x2="163.52" y2="150.332" gradientUnits="userSpaceOnUse">
<stop stop-color="#A8C9D1"/>
<stop offset="1" stop-color="white"/>
</linearGradient>
<linearGradient id="paint70_linear_926_12054" x1="310.22" y1="115.443" x2="310.22" y2="147.648" gradientUnits="userSpaceOnUse">
<stop stop-color="#A8C9D1"/>
<stop offset="1" stop-color="white"/>
</linearGradient>
<linearGradient id="paint71_linear_926_12054" x1="204.684" y1="153.473" x2="204.684" y2="189.02" gradientUnits="userSpaceOnUse">
<stop stop-color="#A8C9D1"/>
<stop offset="1" stop-color="white"/>
</linearGradient>
<linearGradient id="paint72_linear_926_12054" x1="269.927" y1="153.511" x2="269.927" y2="189.019" gradientUnits="userSpaceOnUse">
<stop stop-color="#A8C9D1"/>
<stop offset="1" stop-color="white"/>
</linearGradient>
<linearGradient id="paint73_linear_926_12054" x1="224.039" y1="54.0127" x2="224.039" y2="176.482" gradientUnits="userSpaceOnUse">
<stop stop-color="#A8C9D1"/>
<stop offset="1" stop-color="white"/>
</linearGradient>
<linearGradient id="paint74_linear_926_12054" x1="223.533" y1="-66.9932" x2="223.533" y2="52.8272" gradientUnits="userSpaceOnUse">
<stop stop-color="#A8C9D1"/>
<stop offset="1" stop-color="white"/>
</linearGradient>
<linearGradient id="paint75_linear_926_12054" x1="116.716" y1="-7.95605" x2="116.716" y2="114.527" gradientUnits="userSpaceOnUse">
<stop stop-color="#A8C9D1"/>
<stop offset="1" stop-color="white"/>
</linearGradient>
<linearGradient id="paint76_linear_926_12054" x1="444.953" y1="248.991" x2="444.953" y2="284.622" gradientUnits="userSpaceOnUse">
<stop stop-color="#A8C9D1"/>
<stop offset="1" stop-color="white"/>
</linearGradient>
<linearGradient id="paint77_linear_926_12054" x1="463.047" y1="173.354" x2="463.047" y2="197.727" gradientUnits="userSpaceOnUse">
<stop stop-color="#A8C9D1"/>
<stop offset="1" stop-color="white"/>
</linearGradient>
<linearGradient id="paint78_linear_926_12054" x1="404.221" y1="210.668" x2="404.221" y2="243.007" gradientUnits="userSpaceOnUse">
<stop stop-color="#A8C9D1"/>
<stop offset="1" stop-color="white"/>
</linearGradient>
<linearGradient id="paint79_linear_926_12054" x1="490.231" y1="149.603" x2="490.231" y2="272.085" gradientUnits="userSpaceOnUse">
<stop stop-color="#A8C9D1"/>
<stop offset="1" stop-color="white"/>
</linearGradient>
<linearGradient id="paint80_linear_926_12054" x1="463.05" y1="165.657" x2="463.05" y2="184.287" gradientUnits="userSpaceOnUse">
<stop stop-color="#A8C9D1"/>
<stop offset="1" stop-color="white"/>
</linearGradient>
<linearGradient id="paint81_linear_926_12054" x1="404.221" y1="202.958" x2="404.221" y2="229.568" gradientUnits="userSpaceOnUse">
<stop stop-color="#A8C9D1"/>
<stop offset="1" stop-color="white"/>
</linearGradient>
<linearGradient id="paint82_linear_926_12054" x1="444.968" y1="241.28" x2="444.968" y2="271.182" gradientUnits="userSpaceOnUse">
<stop stop-color="#A8C9D1"/>
<stop offset="1" stop-color="white"/>
</linearGradient>
<linearGradient id="paint83_linear_926_12054" x1="444.953" y1="231.805" x2="444.953" y2="267.435" gradientUnits="userSpaceOnUse">
<stop stop-color="#A8C9D1"/>
<stop offset="1" stop-color="white"/>
</linearGradient>
<linearGradient id="paint84_linear_926_12054" x1="463.047" y1="156.155" x2="463.047" y2="180.528" gradientUnits="userSpaceOnUse">
<stop stop-color="#A8C9D1"/>
<stop offset="1" stop-color="white"/>
</linearGradient>
<linearGradient id="paint85_linear_926_12054" x1="404.221" y1="193.482" x2="404.221" y2="225.822" gradientUnits="userSpaceOnUse">
<stop stop-color="#A8C9D1"/>
<stop offset="1" stop-color="white"/>
</linearGradient>
<linearGradient id="paint86_linear_926_12054" x1="490.231" y1="132.415" x2="490.231" y2="254.898" gradientUnits="userSpaceOnUse">
<stop stop-color="#A8C9D1"/>
<stop offset="1" stop-color="white"/>
</linearGradient>
<linearGradient id="paint87_linear_926_12054" x1="445.509" y1="-23.6338" x2="445.509" y2="98.8354" gradientUnits="userSpaceOnUse">
<stop stop-color="#A8C9D1"/>
<stop offset="1" stop-color="white"/>
</linearGradient>
<linearGradient id="paint88_linear_926_12054" x1="359.5" y1="37.4189" x2="359.5" y2="69.7584" gradientUnits="userSpaceOnUse">
<stop stop-color="#A8C9D1"/>
<stop offset="1" stop-color="white"/>
</linearGradient>
<linearGradient id="paint89_linear_926_12054" x1="418.31" y1="-0.191406" x2="418.31" y2="24.4777" gradientUnits="userSpaceOnUse">
<stop stop-color="#A8C9D1"/>
<stop offset="1" stop-color="white"/>
</linearGradient>
<linearGradient id="paint90_linear_926_12054" x1="465.42" y1="75.9053" x2="465.42" y2="111.372" gradientUnits="userSpaceOnUse">
<stop stop-color="#A8C9D1"/>
<stop offset="1" stop-color="white"/>
</linearGradient>
<linearGradient id="paint91_linear_926_12054" x1="400.201" y1="75.7402" x2="400.201" y2="111.371" gradientUnits="userSpaceOnUse">
<stop stop-color="#A8C9D1"/>
<stop offset="1" stop-color="white"/>
</linearGradient>
<linearGradient id="paint92_linear_926_12054" x1="506.162" y1="37.7959" x2="506.162" y2="72.9298" gradientUnits="userSpaceOnUse">
<stop stop-color="#A8C9D1"/>
<stop offset="1" stop-color="white"/>
</linearGradient>
<linearGradient id="paint93_linear_926_12054" x1="359.494" y1="29.6953" x2="359.494" y2="56.3056" gradientUnits="userSpaceOnUse">
<stop stop-color="#A8C9D1"/>
<stop offset="1" stop-color="white"/>
</linearGradient>
<linearGradient id="paint94_linear_926_12054" x1="418.299" y1="-7.90234" x2="418.299" y2="11.0241" gradientUnits="userSpaceOnUse">
<stop stop-color="#A8C9D1"/>
<stop offset="1" stop-color="white"/>
</linearGradient>
<linearGradient id="paint95_linear_926_12054" x1="465.408" y1="68.1943" x2="465.408" y2="97.932" gradientUnits="userSpaceOnUse">
<stop stop-color="#A8C9D1"/>
<stop offset="1" stop-color="white"/>
</linearGradient>
<linearGradient id="paint96_linear_926_12054" x1="400.201" y1="68.0312" x2="400.201" y2="97.9326" gradientUnits="userSpaceOnUse">
<stop stop-color="#A8C9D1"/>
<stop offset="1" stop-color="white"/>
</linearGradient>
<linearGradient id="paint97_linear_926_12054" x1="506.155" y1="30.0723" x2="506.155" y2="59.477" gradientUnits="userSpaceOnUse">
<stop stop-color="#A8C9D1"/>
<stop offset="1" stop-color="white"/>
</linearGradient>
<linearGradient id="paint98_linear_926_12054" x1="359.5" y1="20.2314" x2="359.5" y2="52.5709" gradientUnits="userSpaceOnUse">
<stop stop-color="#A8C9D1"/>
<stop offset="1" stop-color="white"/>
</linearGradient>
<linearGradient id="paint99_linear_926_12054" x1="418.31" y1="-17.3926" x2="418.31" y2="7.27651" gradientUnits="userSpaceOnUse">
<stop stop-color="#A8C9D1"/>
<stop offset="1" stop-color="white"/>
</linearGradient>
<linearGradient id="paint100_linear_926_12054" x1="465.42" y1="58.7178" x2="465.42" y2="94.1846" gradientUnits="userSpaceOnUse">
<stop stop-color="#A8C9D1"/>
<stop offset="1" stop-color="white"/>
</linearGradient>
<linearGradient id="paint101_linear_926_12054" x1="400.201" y1="58.54" x2="400.201" y2="94.1706" gradientUnits="userSpaceOnUse">
<stop stop-color="#A8C9D1"/>
<stop offset="1" stop-color="white"/>
</linearGradient>
<linearGradient id="paint102_linear_926_12054" x1="506.162" y1="20.5947" x2="506.162" y2="55.7286" gradientUnits="userSpaceOnUse">
<stop stop-color="#A8C9D1"/>
<stop offset="1" stop-color="white"/>
</linearGradient>
<linearGradient id="paint103_linear_926_12054" x1="445.509" y1="-40.834" x2="445.509" y2="81.6353" gradientUnits="userSpaceOnUse">
<stop stop-color="#A8C9D1"/>
<stop offset="1" stop-color="white"/>
</linearGradient>
<linearGradient id="paint104_linear_926_12054" x1="376.342" y1="287.668" x2="376.342" y2="408.56" gradientUnits="userSpaceOnUse">
<stop stop-color="#A8C9D1"/>
<stop offset="1" stop-color="white"/>
</linearGradient>
<linearGradient id="paint105_linear_926_12054" x1="376.342" y1="270.144" x2="376.342" y2="391.036" gradientUnits="userSpaceOnUse">
<stop stop-color="#A8C9D1"/>
<stop offset="1" stop-color="white"/>
</linearGradient>
<clipPath id="clip0_926_12054">
<rect width="462" height="291" rx="8" fill="white"/>
</clipPath>
</defs>
</svg>
