<svg width="64" height="64" viewBox="0 0 64 64" fill="none" xmlns="http://www.w3.org/2000/svg">
<g id="Frame 1201">
<g id="Frame 1210">
<g id="icon-3" clip-path="url(#clip0_378_16)">
<circle id="Ellipse 3" cx="32" cy="32" r="31.5" fill="white" fill-opacity="0.1" stroke="#E5E5E5"/>
<g id="Computer Chip" clip-path="url(#clip1_378_16)">
<g id="Group">
<path id="Vector" d="M36.9993 21.167H26.9993C23.7777 21.167 21.166 23.7787 21.166 27.0003V37.0003C21.166 40.222 23.7777 42.8337 26.9993 42.8337H36.9993C40.221 42.8337 42.8327 40.222 42.8327 37.0003V27.0003C42.8327 23.7787 40.221 21.167 36.9993 21.167Z" fill="url(#paint0_linear_378_16)" stroke="#004455" stroke-width="1.25" stroke-linecap="round" stroke-linejoin="round"/>
<path id="Vector_2" d="M34.5 27H29.5C28.1193 27 27 28.1193 27 29.5V34.5C27 35.8807 28.1193 37 29.5 37H34.5C35.8807 37 37 35.8807 37 34.5V29.5C37 28.1193 35.8807 27 34.5 27Z" fill="white" stroke="#004455" stroke-width="1.25" stroke-linecap="round" stroke-linejoin="round"/>
<path id="Vector_3" d="M47.0007 27H42.834" stroke="#004455" stroke-width="1.25" stroke-linecap="round" stroke-linejoin="round"/>
<path id="Vector_4" d="M47.0007 32H42.834" stroke="#004455" stroke-width="1.25" stroke-linecap="round" stroke-linejoin="round"/>
<path id="Vector_5" d="M47.0007 37H42.834" stroke="#004455" stroke-width="1.25" stroke-linecap="round" stroke-linejoin="round"/>
<path id="Vector_6" d="M21.1667 27H17" stroke="#004455" stroke-width="1.25" stroke-linecap="round" stroke-linejoin="round"/>
<path id="Vector_7" d="M21.1667 32H17" stroke="#004455" stroke-width="1.25" stroke-linecap="round" stroke-linejoin="round"/>
<path id="Vector_8" d="M21.1667 37H17" stroke="#004455" stroke-width="1.25" stroke-linecap="round" stroke-linejoin="round"/>
<path id="Vector_9" d="M27 17V21.1667" stroke="#004455" stroke-width="1.25" stroke-linecap="round" stroke-linejoin="round"/>
<path id="Vector_10" d="M32 17V21.1667" stroke="#004455" stroke-width="1.25" stroke-linecap="round" stroke-linejoin="round"/>
<path id="Vector_11" d="M37 17V21.1667" stroke="#004455" stroke-width="1.25" stroke-linecap="round" stroke-linejoin="round"/>
<path id="Vector_12" d="M27 42.833V46.9997" stroke="#004455" stroke-width="1.25" stroke-linecap="round" stroke-linejoin="round"/>
<path id="Vector_13" d="M32 42.833V46.9997" stroke="#004455" stroke-width="1.25" stroke-linecap="round" stroke-linejoin="round"/>
<path id="Vector_14" d="M37 42.833V46.9997" stroke="#004455" stroke-width="1.25" stroke-linecap="round" stroke-linejoin="round"/>
</g>
</g>
</g>
</g>
</g>
<defs>
<linearGradient id="paint0_linear_378_16" x1="31.9993" y1="21.167" x2="31.9993" y2="42.8337" gradientUnits="userSpaceOnUse">
<stop stop-color="#004455" stop-opacity="0"/>
<stop offset="1" stop-color="#004455" stop-opacity="0.2"/>
</linearGradient>
<clipPath id="clip0_378_16">
<rect width="64" height="64" fill="white"/>
</clipPath>
<clipPath id="clip1_378_16">
<rect width="40" height="40" fill="white" transform="translate(12 12)"/>
</clipPath>
</defs>
</svg>
