<svg width="64" height="64" viewBox="0 0 64 64" fill="none" xmlns="http://www.w3.org/2000/svg">
<g id="Frame 1201">
<g id="Frame 1210">
<g id="icon-2" clip-path="url(#clip0_378_16)">
<circle id="Ellipse 3" cx="32" cy="32" r="31.5" fill="white" fill-opacity="0.1" stroke="#E5E5E5"/>
<g id="Certificate, Checkmark" clip-path="url(#clip1_378_16)">
<g id="Group">
<g id="Group_2">
<g id="Group_3">
<path id="Vector" d="M27.8038 44.9021C28.2954 44.8371 28.7921 44.9704 29.1838 45.2721L30.9887 46.6571C31.5854 47.1154 32.4154 47.1154 33.0104 46.6571L34.8837 45.2187C35.2337 44.9504 35.6754 44.8321 36.1121 44.8904L38.4554 45.1987C39.2004 45.2971 39.9187 44.8821 40.2071 44.1871L41.1087 42.0071C41.2771 41.5987 41.6004 41.2754 42.0087 41.1071L44.1887 40.2054C44.8837 39.9187 45.2987 39.1987 45.2004 38.4537L44.9037 36.1954C44.8388 35.7038 44.9721 35.2071 45.2738 34.8154L46.6587 33.0104C47.1171 32.4137 47.1171 31.5837 46.6587 30.9887L45.2204 29.1154C44.9521 28.7654 44.8337 28.3237 44.8921 27.8871L45.2004 25.5437C45.2987 24.7988 44.8837 24.0804 44.1887 23.7921L42.0087 22.8904C41.6004 22.7221 41.2771 22.3987 41.1087 21.9904L40.2071 19.8104C39.9204 19.1154 39.2004 18.7004 38.4554 18.7987L36.1121 19.1071C35.6754 19.1671 35.2337 19.0487 34.8854 18.7821L33.0121 17.3438C32.4154 16.8854 31.5854 16.8854 30.9904 17.3438L29.1171 18.7821C28.7671 19.0487 28.3254 19.1671 27.8887 19.1104L25.5454 18.8021C24.8004 18.7037 24.0821 19.1188 23.7937 19.8138L22.8937 21.9937C22.7237 22.4004 22.4004 22.7237 21.9937 22.8937L19.8138 23.7937C19.1188 24.0821 18.7037 24.8004 18.8021 25.5454L19.1104 27.8887C19.1671 28.3254 19.0487 28.7671 18.7821 29.1154L17.3438 30.9887C16.8854 31.5854 16.8854 32.4154 17.3438 33.0104L18.7821 34.8837C19.0504 35.2337 19.1687 35.6754 19.1104 36.1121L18.8021 38.4554C18.7037 39.2004 19.1188 39.9187 19.8138 40.2071L21.9937 41.1087C22.4021 41.2771 22.7254 41.6004 22.8937 42.0087L23.7954 44.1887C24.0821 44.8837 24.8021 45.2987 25.5471 45.2004L27.8038 44.9021Z" fill="url(#paint0_linear_378_16)" stroke="#004455" stroke-width="1.25" stroke-linecap="round" stroke-linejoin="round"/>
<path id="Vector_2" d="M36.6654 29.6689L30.8304 35.5039L27.332 32.0039" stroke="#004455" stroke-width="1.25" stroke-linecap="round" stroke-linejoin="round"/>
</g>
</g>
</g>
</g>
</g>
</g>
</g>
<defs>
<linearGradient id="paint0_linear_378_16" x1="32.0012" y1="17" x2="32.0012" y2="47.0008" gradientUnits="userSpaceOnUse">
<stop stop-color="#004455" stop-opacity="0"/>
<stop offset="1" stop-color="#004455" stop-opacity="0.2"/>
</linearGradient>
<clipPath id="clip0_378_16">
<rect width="64" height="64" fill="white"/>
</clipPath>
<clipPath id="clip1_378_16">
<rect width="40" height="40" fill="white" transform="translate(12 12)"/>
</clipPath>
</defs>
</svg>
