<svg width="358" height="261" viewBox="0 0 358 261" fill="none" xmlns="http://www.w3.org/2000/svg">
<g clip-path="url(#clip0_932_21301)">
<rect width="358" height="261" fill="#F6F7F8"/>
<path d="M18.9768 112.07L67.8818 149.463" stroke="#64B5C8" stroke-linejoin="round"/>
<path d="M106.765 122.092L145.636 149.463" stroke="#64B5C8" stroke-linejoin="round"/>
<path d="M106.765 122.092L67.8818 149.463" stroke="#64B5C8" stroke-linejoin="round"/>
<path d="M89.265 63.165L310.903 222.094" stroke="#64B5C8" stroke-linejoin="round"/>
<path d="M66.3782 85.037L28.8101 58.6804V-26.7529L66.3782 -0.408889V85.037Z" fill="url(#paint0_linear_932_21301)" stroke="#64B5C8" stroke-linejoin="round"/>
<path d="M66.3785 85.037L103.947 58.6804V-26.7529L66.3785 -0.408889V85.037Z" fill="url(#paint1_linear_932_21301)" stroke="#64B5C8" stroke-linejoin="round"/>
<path d="M66.3784 -53.1348L28.8103 -26.7406L66.3784 -0.384046L103.947 -26.7406L66.3784 -53.1348Z" fill="url(#paint2_linear_932_21301)" stroke="#64B5C8" stroke-linejoin="round"/>
<g style="mix-blend-mode:multiply">
<path d="M69.4851 7.19495L103.947 -16.9819V-20.9404L69.4851 3.23646V7.19495Z" fill="url(#paint3_linear_932_21301)" stroke="#64B5C8" stroke-linejoin="round"/>
<path d="M69.4851 17.3668L103.947 -6.81006V-10.7686L69.4851 13.4083V17.3668Z" fill="url(#paint4_linear_932_21301)" stroke="#64B5C8" stroke-linejoin="round"/>
<path d="M69.4851 27.5387L103.947 3.36182V-0.59668L69.4851 23.5802V27.5387Z" fill="url(#paint5_linear_932_21301)" stroke="#64B5C8" stroke-linejoin="round"/>
<path d="M69.4851 37.7106L103.947 13.5337V9.5752L69.4851 33.7521V37.7106Z" fill="url(#paint6_linear_932_21301)" stroke="#64B5C8" stroke-linejoin="round"/>
<path d="M69.4851 47.8825L103.947 23.7056V19.7471L69.4851 43.924V47.8825Z" fill="url(#paint7_linear_932_21301)" stroke="#64B5C8" stroke-linejoin="round"/>
<path d="M69.4851 58.0543L103.947 33.8774V29.9189L69.4851 54.0958V58.0543Z" fill="url(#paint8_linear_932_21301)" stroke="#64B5C8" stroke-linejoin="round"/>
</g>
<path d="M13.0007 122.09L46.2596 98.7525V73.9492L13.0007 97.2868V122.09Z" fill="url(#paint9_linear_932_21301)" stroke="#64B5C8" stroke-linejoin="round"/>
<path d="M13.0007 122.09L-20.2708 98.7525V73.9492L13.0007 97.2868V122.09Z" fill="url(#paint10_linear_932_21301)" stroke="#64B5C8" stroke-linejoin="round"/>
<path d="M13.0009 50.5869L46.2598 73.9621L13.0009 97.2997L-20.2705 73.9621L13.0009 50.5869Z" fill="url(#paint11_linear_932_21301)" stroke="#64B5C8" stroke-linejoin="round"/>
<g opacity="0.8" style="mix-blend-mode:multiply">
<path d="M13.0009 53.8564L41.5998 73.9621L13.0009 94.0302L-15.6105 73.9621L13.0009 53.8564Z" fill="url(#paint12_linear_932_21301)"/>
<path d="M13.0009 53.8564L41.5998 73.9621L13.0009 94.0302L-15.6105 73.9621L13.0009 53.8564Z" stroke="#64B5C8" stroke-linejoin="round"/>
</g>
<path d="M14.3285 80.6515L47.5999 57.3139V53.2803L14.3285 76.6053V80.6515Z" fill="url(#paint13_linear_932_21301)" stroke="#64B5C8" stroke-linejoin="round"/>
<path d="M14.3287 80.6515L-18.9302 57.3139V53.2803L14.3287 76.6053V80.6515Z" fill="url(#paint14_linear_932_21301)" stroke="#64B5C8" stroke-linejoin="round"/>
<path d="M14.3286 29.918L47.6 53.2931L14.3286 76.6307L-18.9303 53.2931L14.3286 29.918Z" fill="url(#paint15_linear_932_21301)" stroke="#64B5C8" stroke-linejoin="round"/>
<g opacity="0.8" style="mix-blend-mode:multiply">
<path d="M14.329 33.1875L42.9404 53.2931L14.329 73.3612L-14.2699 53.2931L14.329 33.1875Z" fill="url(#paint16_linear_932_21301)"/>
<path d="M14.329 33.1875L42.9404 53.2931L14.329 73.3612L-14.2699 53.2931L14.329 33.1875Z" stroke="#64B5C8" stroke-linejoin="round"/>
</g>
<path d="M341.431 278.002L303.863 251.645V166.199L341.431 192.556V278.002Z" fill="url(#paint17_linear_932_21301)" stroke="#64B5C8" stroke-linejoin="round"/>
<path d="M341.432 278.002L379 251.645V166.199L341.432 192.556V278.002Z" fill="url(#paint18_linear_932_21301)" stroke="#64B5C8" stroke-linejoin="round"/>
<path d="M341.431 139.83L303.863 166.224L341.431 192.581L378.999 166.224L341.431 139.83Z" fill="url(#paint19_linear_932_21301)" stroke="#64B5C8" stroke-linejoin="round"/>
<g style="mix-blend-mode:multiply">
<path d="M344.538 200.16L379 175.983V172.024L344.538 196.201V200.16Z" fill="url(#paint20_linear_932_21301)" stroke="#64B5C8" stroke-linejoin="round"/>
<path d="M344.538 210.332L379 186.155V182.196L344.538 206.373V210.332Z" fill="url(#paint21_linear_932_21301)" stroke="#64B5C8" stroke-linejoin="round"/>
<path d="M344.538 220.504L379 196.327V192.368L344.538 216.545V220.504Z" fill="url(#paint22_linear_932_21301)" stroke="#64B5C8" stroke-linejoin="round"/>
<path d="M344.538 230.675L379 206.499V202.54L344.538 226.717V230.675Z" fill="url(#paint23_linear_932_21301)" stroke="#64B5C8" stroke-linejoin="round"/>
<path d="M344.538 240.847L379 216.67V212.712L344.538 236.889V240.847Z" fill="url(#paint24_linear_932_21301)" stroke="#64B5C8" stroke-linejoin="round"/>
<path d="M344.538 251.019L379 226.842V222.884L344.538 247.061V251.019Z" fill="url(#paint25_linear_932_21301)" stroke="#64B5C8" stroke-linejoin="round"/>
</g>
<path d="M341.431 185.704L315.914 167.803V164.696L341.431 182.597V185.704Z" fill="url(#paint26_linear_932_21301)" stroke="#64B5C8" stroke-linejoin="round"/>
<path d="M341.432 185.704L366.961 167.803V164.696L341.432 182.597V185.704Z" fill="url(#paint27_linear_932_21301)" stroke="#64B5C8" stroke-linejoin="round"/>
<path d="M341.431 146.771L315.914 164.709L341.431 182.61L366.961 164.709L341.431 146.771Z" fill="url(#paint28_linear_932_21301)" stroke="#64B5C8" stroke-linejoin="round"/>
<g style="mix-blend-mode:multiply">
<path d="M342.483 155.551L327.464 166.098L329.029 167.213L344.049 156.678L342.483 155.551Z" fill="url(#paint29_linear_932_21301)" stroke="#64B5C8" stroke-linejoin="round"/>
<path d="M345.327 157.58L330.307 168.128L331.873 169.23L346.88 158.695L345.327 157.58Z" fill="url(#paint30_linear_932_21301)" stroke="#64B5C8" stroke-linejoin="round"/>
<path d="M348.158 159.597L333.138 170.157L334.704 171.259L349.724 160.724L348.158 159.597Z" fill="url(#paint31_linear_932_21301)" stroke="#64B5C8" stroke-linejoin="round"/>
<path d="M351.001 161.626L335.982 172.174L337.548 173.276L352.555 162.741L351.001 161.626Z" fill="url(#paint32_linear_932_21301)" stroke="#64B5C8" stroke-linejoin="round"/>
<path d="M353.833 163.656L338.813 174.204L340.379 175.306L355.399 164.771L353.833 163.656Z" fill="url(#paint33_linear_932_21301)" stroke="#64B5C8" stroke-linejoin="round"/>
</g>
<path d="M288.041 243.552L321.313 266.927L288.041 290.265L254.783 266.927L288.041 243.552Z" fill="url(#paint34_linear_932_21301)" stroke="#64B5C8" stroke-linejoin="round"/>
<g opacity="0.8" style="mix-blend-mode:multiply">
<path d="M288.042 246.821L316.653 266.927L288.042 286.995L259.443 266.927L288.042 246.821Z" fill="url(#paint35_linear_932_21301)"/>
<path d="M288.042 246.821L316.653 266.927L288.042 286.995L259.443 266.927L288.042 246.821Z" stroke="#64B5C8" stroke-linejoin="round"/>
</g>
<path d="M289.382 273.617L322.653 250.28V246.233L289.382 269.571V273.617Z" fill="url(#paint36_linear_932_21301)" stroke="#64B5C8" stroke-linejoin="round"/>
<path d="M289.382 273.617L256.111 250.28V246.233L289.382 269.571V273.617Z" fill="url(#paint37_linear_932_21301)" stroke="#64B5C8" stroke-linejoin="round"/>
<path d="M289.382 222.883L322.653 246.258L289.382 269.596L256.111 246.258L289.382 222.883Z" fill="url(#paint38_linear_932_21301)" stroke="#64B5C8" stroke-linejoin="round"/>
<g opacity="0.8" style="mix-blend-mode:multiply">
<path d="M289.382 226.152L317.994 246.258L289.382 266.326L260.771 246.258L289.382 226.152Z" fill="url(#paint39_linear_932_21301)"/>
<path d="M289.382 226.152L317.994 246.258L289.382 266.326L260.771 246.258L289.382 226.152Z" stroke="#64B5C8" stroke-linejoin="round"/>
</g>
<path d="M264.228 63.165L42.0763 222.194" stroke="#64B5C8" stroke-linejoin="round"/>
<path d="M151.248 182.195L108.519 212.373" stroke="#64B5C8" stroke-linejoin="round"/>
<path d="M108.519 212.372L142.993 236.95L103.947 264.371" stroke="#64B5C8" stroke-linejoin="round"/>
<path d="M203.122 182.195L245.851 212.373" stroke="#64B5C8" stroke-linejoin="round"/>
<path d="M245.852 212.372L211.39 236.95L260.445 274.393" stroke="#64B5C8" stroke-linejoin="round"/>
<path d="M329.117 108.45L280.213 145.83" stroke="#64B5C8" stroke-linejoin="round"/>
<path d="M241.329 118.472L202.446 145.83" stroke="#64B5C8" stroke-linejoin="round"/>
<path d="M241.329 118.472L280.213 145.83" stroke="#64B5C8" stroke-linejoin="round"/>
<path d="M223.654 154.449C223.791 164.082 211.791 170.797 211.453 170.985C205.402 174.242 179.998 188.209 148.342 170.935C138.847 165.748 135.277 159.911 135.089 154.449V168.717C135.089 168.717 135.089 168.792 135.089 168.843V169.507C135.314 174.918 138.897 180.718 148.33 185.867C179.985 203.129 205.389 189.174 211.44 185.917C211.766 185.741 223.691 179.065 223.641 169.494V154.462L223.654 154.449Z" fill="url(#paint40_linear_932_21301)" stroke="#64B5C8" stroke-linejoin="round"/>
<path d="M222.338 139.742C222.476 148.298 210.826 154.273 210.501 154.436C204.625 157.33 179.973 169.732 149.257 154.399C140.037 149.789 136.567 144.603 136.391 139.742V152.419C136.391 152.419 136.391 152.495 136.391 152.532V153.121C136.604 157.931 140.087 163.092 149.244 167.665C179.96 183.01 204.625 170.608 210.488 167.702C210.801 167.539 222.376 161.614 222.326 153.108V139.742H222.338Z" fill="url(#paint41_linear_932_21301)" stroke="#64B5C8" stroke-linejoin="round"/>
<path d="M223.654 151.781C223.654 149.138 222.338 146.244 222.338 146.244V153.109C222.388 161.602 210.826 167.54 210.5 167.69C204.638 170.584 179.972 182.998 149.257 167.652C140.099 163.08 136.617 157.919 136.404 153.096V152.52C136.404 152.482 136.404 152.445 136.404 152.407V146.231C136.404 146.231 135.089 148.023 135.089 151.28V154.437C135.277 159.898 138.847 165.736 148.342 170.922C179.998 188.184 205.402 174.229 211.453 170.972C211.778 170.797 223.791 164.07 223.654 154.437V153.748C223.654 153.748 223.654 152.269 223.654 151.781Z" fill="url(#paint42_linear_932_21301)" stroke="#64B5C8" stroke-linejoin="round"/>
<path d="M223.654 126.038C223.791 135.671 211.791 142.386 211.453 142.574C205.402 145.831 179.998 159.786 148.342 142.523C138.847 137.35 135.277 131.5 135.089 126.038V140.306C135.089 140.306 135.089 140.381 135.089 140.431V141.095C135.314 146.507 138.897 152.307 148.33 157.456C179.985 174.718 205.389 160.763 211.44 157.506C211.766 157.33 223.691 150.653 223.641 141.083V126.051L223.654 126.038Z" fill="url(#paint43_linear_932_21301)" stroke="#64B5C8" stroke-linejoin="round"/>
<path d="M222.338 111.331C222.476 119.887 210.826 125.862 210.501 126.025C204.625 128.919 179.973 141.32 149.257 125.988C140.037 121.378 136.567 116.191 136.391 111.331V124.008C136.391 124.008 136.391 124.083 136.391 124.121V124.71C136.604 129.52 140.087 134.681 149.244 139.253C179.96 154.599 204.625 142.197 210.488 139.291C210.801 139.128 222.376 133.203 222.326 124.697V111.331H222.338Z" fill="url(#paint44_linear_932_21301)" stroke="#64B5C8" stroke-linejoin="round"/>
<path d="M223.654 123.369C223.654 120.726 222.338 117.832 222.338 117.832V124.709C222.388 133.203 210.826 139.14 210.5 139.291C204.638 142.184 179.972 154.598 149.257 139.253C140.099 134.681 136.617 129.52 136.404 124.697V124.121C136.404 124.083 136.404 124.045 136.404 124.008V117.832C136.404 117.832 135.089 119.623 135.089 122.88V126.025C135.277 131.486 138.847 137.324 148.342 142.51C179.998 159.772 205.402 145.817 211.453 142.56C211.778 142.385 223.791 135.658 223.654 126.025V125.336C223.654 125.336 223.654 123.857 223.654 123.369Z" fill="url(#paint45_linear_932_21301)" stroke="#64B5C8" stroke-linejoin="round"/>
<path d="M223.654 97.251C223.792 106.884 211.791 113.611 211.453 113.786C205.402 117.043 179.998 130.998 148.342 113.736C138.847 108.55 135.277 102.713 135.089 97.251V111.519C135.089 111.519 135.089 111.594 135.089 111.644V112.308C135.314 117.72 138.897 123.52 148.33 128.668C179.985 145.93 205.39 131.975 211.44 128.719C211.766 128.543 223.691 121.866 223.641 112.296V97.2635L223.654 97.251Z" fill="url(#paint46_linear_932_21301)" stroke="#64B5C8" stroke-linejoin="round"/>
<path d="M148.054 78.9366C137.506 84.223 124.942 100.984 148.329 113.736C179.985 130.998 205.389 117.043 211.44 113.786C211.953 113.511 241.354 97.0505 206.993 78.5608C184.407 66.3972 163.048 71.4205 148.054 78.9366Z" fill="url(#paint47_linear_932_21301)" stroke="#64B5C8" stroke-linejoin="round"/>
<path d="M17.298 278.002L54.8661 251.645V166.199L17.298 192.556V278.002Z" fill="url(#paint48_linear_932_21301)" stroke="#64B5C8" stroke-linejoin="round"/>
<path d="M17.2976 278.002L-20.2705 251.645V166.199L17.2976 192.556V278.002Z" fill="url(#paint49_linear_932_21301)" stroke="#64B5C8" stroke-linejoin="round"/>
<path d="M17.2979 139.83L54.866 166.224L17.2979 192.581L-20.2703 166.224L17.2979 139.83Z" fill="url(#paint50_linear_932_21301)" stroke="#64B5C8" stroke-linejoin="round"/>
<g style="mix-blend-mode:multiply">
<path d="M14.191 200.16L-20.2705 175.983V172.024L14.191 196.201V200.16Z" fill="url(#paint51_linear_932_21301)" stroke="#64B5C8" stroke-linejoin="round"/>
<path d="M14.1907 210.332L-20.2708 186.155V182.196L14.1907 206.373V210.332Z" fill="url(#paint52_linear_932_21301)" stroke="#64B5C8" stroke-linejoin="round"/>
<path d="M14.1907 220.504L-20.2708 196.327V192.368L14.1907 216.545V220.504Z" fill="url(#paint53_linear_932_21301)" stroke="#64B5C8" stroke-linejoin="round"/>
<path d="M14.1907 230.675L-20.2708 206.499V202.54L14.1907 226.717V230.675Z" fill="url(#paint54_linear_932_21301)" stroke="#64B5C8" stroke-linejoin="round"/>
<path d="M14.1907 240.847L-20.2708 216.67V212.712L14.1907 236.889V240.847Z" fill="url(#paint55_linear_932_21301)" stroke="#64B5C8" stroke-linejoin="round"/>
<path d="M14.1907 251.019L-20.2708 226.842V222.884L14.1907 247.061V251.019Z" fill="url(#paint56_linear_932_21301)" stroke="#64B5C8" stroke-linejoin="round"/>
</g>
<path d="M17.2972 185.704L42.8145 167.803V164.696L17.2972 182.597V185.704Z" fill="url(#paint57_linear_932_21301)" stroke="#64B5C8" stroke-linejoin="round"/>
<path d="M17.2974 185.704L-8.23242 167.803V164.696L17.2974 182.597V185.704Z" fill="url(#paint58_linear_932_21301)" stroke="#64B5C8" stroke-linejoin="round"/>
<path d="M17.2975 146.771L42.8148 164.709L17.2975 182.61L-8.2323 164.709L17.2975 146.771Z" fill="url(#paint59_linear_932_21301)" stroke="#64B5C8" stroke-linejoin="round"/>
<g style="mix-blend-mode:multiply">
<path d="M16.2454 155.551L31.2652 166.098L29.6993 167.213L14.6796 156.678L16.2454 155.551Z" fill="url(#paint60_linear_932_21301)" stroke="#64B5C8" stroke-linejoin="round"/>
<path d="M13.414 157.58L28.4212 168.128L26.8554 169.23L11.8481 158.695L13.414 157.58Z" fill="url(#paint61_linear_932_21301)" stroke="#64B5C8" stroke-linejoin="round"/>
<path d="M10.5704 159.597L25.5901 170.157L24.0242 171.259L9.00452 160.724L10.5704 159.597Z" fill="url(#paint62_linear_932_21301)" stroke="#64B5C8" stroke-linejoin="round"/>
<path d="M7.72704 161.626L22.7468 172.174L21.1809 173.276L6.17371 162.741L7.72704 161.626Z" fill="url(#paint63_linear_932_21301)" stroke="#64B5C8" stroke-linejoin="round"/>
<path d="M4.89594 163.656L19.9157 174.204L18.3498 175.306L3.33008 164.771L4.89594 163.656Z" fill="url(#paint64_linear_932_21301)" stroke="#64B5C8" stroke-linejoin="round"/>
</g>
<path d="M70.6869 243.552L37.4155 266.927L70.6869 290.265L103.946 266.927L70.6869 243.552Z" fill="url(#paint65_linear_932_21301)" stroke="#64B5C8" stroke-linejoin="round"/>
<g opacity="0.8" style="mix-blend-mode:multiply">
<path d="M70.687 246.821L42.0756 266.927L70.687 286.995L99.2858 266.927L70.687 246.821Z" fill="url(#paint66_linear_932_21301)"/>
<path d="M70.687 246.821L42.0756 266.927L70.687 286.995L99.2858 266.927L70.687 246.821Z" stroke="#64B5C8" stroke-linejoin="round"/>
</g>
<path d="M69.3469 273.617L36.0754 250.28V246.233L69.3469 269.571V273.617Z" fill="url(#paint67_linear_932_21301)" stroke="#64B5C8" stroke-linejoin="round"/>
<path d="M69.3469 273.617L102.618 250.28V246.233L69.3469 269.571V273.617Z" fill="url(#paint68_linear_932_21301)" stroke="#64B5C8" stroke-linejoin="round"/>
<path d="M69.3469 222.883L36.0754 246.258L69.3469 269.596L102.618 246.258L69.3469 222.883Z" fill="url(#paint69_linear_932_21301)" stroke="#64B5C8" stroke-linejoin="round"/>
<g opacity="0.8" style="mix-blend-mode:multiply">
<path d="M69.3471 226.152L40.7357 246.258L69.3471 266.326L97.9585 246.258L69.3471 226.152Z" fill="url(#paint70_linear_932_21301)"/>
<path d="M69.3471 226.152L40.7357 246.258L69.3471 266.326L97.9585 246.258L69.3471 226.152Z" stroke="#64B5C8" stroke-linejoin="round"/>
</g>
<path d="M292.35 85.037L329.919 58.6804V-26.7529L292.35 -0.408889V85.037Z" fill="url(#paint71_linear_932_21301)" stroke="#64B5C8" stroke-linejoin="round"/>
<path d="M292.351 85.037L254.782 58.6804V-26.7529L292.351 -0.408889V85.037Z" fill="url(#paint72_linear_932_21301)" stroke="#64B5C8" stroke-linejoin="round"/>
<path d="M292.35 -53.1348L329.919 -26.7406L292.35 -0.384046L254.782 -26.7406L292.35 -53.1348Z" fill="url(#paint73_linear_932_21301)" stroke="#64B5C8" stroke-linejoin="round"/>
<g style="mix-blend-mode:multiply">
<path d="M289.244 7.19495L254.782 -16.9819V-20.9404L289.244 3.23646V7.19495Z" fill="url(#paint74_linear_932_21301)" stroke="#64B5C8" stroke-linejoin="round"/>
<path d="M289.244 17.3668L254.783 -6.81006V-10.7686L289.244 13.4083V17.3668Z" fill="url(#paint75_linear_932_21301)" stroke="#64B5C8" stroke-linejoin="round"/>
<path d="M289.244 27.5387L254.783 3.36182V-0.59668L289.244 23.5802V27.5387Z" fill="url(#paint76_linear_932_21301)" stroke="#64B5C8" stroke-linejoin="round"/>
<path d="M289.244 37.7106L254.783 13.5337V9.5752L289.244 33.7521V37.7106Z" fill="url(#paint77_linear_932_21301)" stroke="#64B5C8" stroke-linejoin="round"/>
<path d="M289.244 47.8825L254.783 23.7056V19.7471L289.244 43.924V47.8825Z" fill="url(#paint78_linear_932_21301)" stroke="#64B5C8" stroke-linejoin="round"/>
<path d="M289.244 58.0543L254.783 33.8774V29.9189L289.244 54.0958V58.0543Z" fill="url(#paint79_linear_932_21301)" stroke="#64B5C8" stroke-linejoin="round"/>
</g>
<path d="M345.74 122.09L312.469 98.7525V73.9492L345.74 97.2868V122.09Z" fill="url(#paint80_linear_932_21301)" stroke="#64B5C8" stroke-linejoin="round"/>
<path d="M345.74 122.09L378.999 98.7525V73.9492L345.74 97.2868V122.09Z" fill="url(#paint81_linear_932_21301)" stroke="#64B5C8" stroke-linejoin="round"/>
<path d="M345.74 50.5869L312.468 73.9621L345.74 97.2997L378.999 73.9621L345.74 50.5869Z" fill="url(#paint82_linear_932_21301)" stroke="#64B5C8" stroke-linejoin="round"/>
<g opacity="0.8" style="mix-blend-mode:multiply">
<path d="M345.74 53.8564L317.129 73.9621L345.74 94.0302L374.339 73.9621L345.74 53.8564Z" fill="url(#paint83_linear_932_21301)"/>
<path d="M345.74 53.8564L317.129 73.9621L345.74 94.0302L374.339 73.9621L345.74 53.8564Z" stroke="#64B5C8" stroke-linejoin="round"/>
</g>
<path d="M344.4 80.6515L311.128 57.3139V53.2803L344.4 76.6053V80.6515Z" fill="url(#paint84_linear_932_21301)" stroke="#64B5C8" stroke-linejoin="round"/>
<path d="M344.4 80.6515L377.671 57.3139V53.2803L344.4 76.6053V80.6515Z" fill="url(#paint85_linear_932_21301)" stroke="#64B5C8" stroke-linejoin="round"/>
<path d="M344.4 29.918L311.128 53.2931L344.4 76.6307L377.671 53.2931L344.4 29.918Z" fill="url(#paint86_linear_932_21301)" stroke="#64B5C8" stroke-linejoin="round"/>
<g opacity="0.8" style="mix-blend-mode:multiply">
<path d="M344.4 33.1875L315.789 53.2931L344.4 73.3612L372.999 53.2931L344.4 33.1875Z" fill="url(#paint87_linear_932_21301)"/>
<path d="M344.4 33.1875L315.789 53.2931L344.4 73.3612L372.999 53.2931L344.4 33.1875Z" stroke="#64B5C8" stroke-linejoin="round"/>
</g>
</g>
<defs>
<linearGradient id="paint0_linear_932_21301" x1="47.5941" y1="-26.7529" x2="47.5941" y2="85.037" gradientUnits="userSpaceOnUse">
<stop stop-color="#A8C9D1"/>
<stop offset="1" stop-color="white"/>
</linearGradient>
<linearGradient id="paint1_linear_932_21301" x1="85.1626" y1="-26.7529" x2="85.1626" y2="85.037" gradientUnits="userSpaceOnUse">
<stop stop-color="#A8C9D1"/>
<stop offset="1" stop-color="white"/>
</linearGradient>
<linearGradient id="paint2_linear_932_21301" x1="66.3784" y1="-53.1348" x2="66.3784" y2="-0.384048" gradientUnits="userSpaceOnUse">
<stop stop-color="#A8C9D1"/>
<stop offset="1" stop-color="white"/>
</linearGradient>
<linearGradient id="paint3_linear_932_21301" x1="86.7158" y1="-20.9404" x2="86.7158" y2="7.19495" gradientUnits="userSpaceOnUse">
<stop stop-color="#A8C9D1"/>
<stop offset="1" stop-color="white"/>
</linearGradient>
<linearGradient id="paint4_linear_932_21301" x1="86.7158" y1="-10.7686" x2="86.7158" y2="17.3668" gradientUnits="userSpaceOnUse">
<stop stop-color="#A8C9D1"/>
<stop offset="1" stop-color="white"/>
</linearGradient>
<linearGradient id="paint5_linear_932_21301" x1="86.7158" y1="-0.59668" x2="86.7158" y2="27.5387" gradientUnits="userSpaceOnUse">
<stop stop-color="#A8C9D1"/>
<stop offset="1" stop-color="white"/>
</linearGradient>
<linearGradient id="paint6_linear_932_21301" x1="86.7158" y1="9.5752" x2="86.7158" y2="37.7106" gradientUnits="userSpaceOnUse">
<stop stop-color="#A8C9D1"/>
<stop offset="1" stop-color="white"/>
</linearGradient>
<linearGradient id="paint7_linear_932_21301" x1="86.7158" y1="19.7471" x2="86.7158" y2="47.8825" gradientUnits="userSpaceOnUse">
<stop stop-color="#A8C9D1"/>
<stop offset="1" stop-color="white"/>
</linearGradient>
<linearGradient id="paint8_linear_932_21301" x1="86.7158" y1="29.9189" x2="86.7158" y2="58.0543" gradientUnits="userSpaceOnUse">
<stop stop-color="#A8C9D1"/>
<stop offset="1" stop-color="white"/>
</linearGradient>
<linearGradient id="paint9_linear_932_21301" x1="29.6302" y1="73.9492" x2="29.6302" y2="122.09" gradientUnits="userSpaceOnUse">
<stop stop-color="#A8C9D1"/>
<stop offset="1" stop-color="white"/>
</linearGradient>
<linearGradient id="paint10_linear_932_21301" x1="-3.63505" y1="73.9492" x2="-3.63505" y2="122.09" gradientUnits="userSpaceOnUse">
<stop stop-color="#A8C9D1"/>
<stop offset="1" stop-color="white"/>
</linearGradient>
<linearGradient id="paint11_linear_932_21301" x1="12.9946" y1="50.5869" x2="12.9946" y2="97.2997" gradientUnits="userSpaceOnUse">
<stop stop-color="#A8C9D1"/>
<stop offset="1" stop-color="white"/>
</linearGradient>
<linearGradient id="paint12_linear_932_21301" x1="12.9947" y1="53.8564" x2="12.9947" y2="94.0302" gradientUnits="userSpaceOnUse">
<stop stop-color="#A8C9D1"/>
<stop offset="1" stop-color="white"/>
</linearGradient>
<linearGradient id="paint13_linear_932_21301" x1="30.9642" y1="53.2803" x2="30.9642" y2="80.6515" gradientUnits="userSpaceOnUse">
<stop stop-color="#A8C9D1"/>
<stop offset="1" stop-color="white"/>
</linearGradient>
<linearGradient id="paint14_linear_932_21301" x1="-2.30073" y1="53.2803" x2="-2.30073" y2="80.6515" gradientUnits="userSpaceOnUse">
<stop stop-color="#A8C9D1"/>
<stop offset="1" stop-color="white"/>
</linearGradient>
<linearGradient id="paint15_linear_932_21301" x1="14.3348" y1="29.918" x2="14.3348" y2="76.6307" gradientUnits="userSpaceOnUse">
<stop stop-color="#A8C9D1"/>
<stop offset="1" stop-color="white"/>
</linearGradient>
<linearGradient id="paint16_linear_932_21301" x1="14.3352" y1="33.1875" x2="14.3352" y2="73.3612" gradientUnits="userSpaceOnUse">
<stop stop-color="#A8C9D1"/>
<stop offset="1" stop-color="white"/>
</linearGradient>
<linearGradient id="paint17_linear_932_21301" x1="322.647" y1="166.199" x2="322.647" y2="278.002" gradientUnits="userSpaceOnUse">
<stop stop-color="#A8C9D1"/>
<stop offset="1" stop-color="white"/>
</linearGradient>
<linearGradient id="paint18_linear_932_21301" x1="360.216" y1="166.199" x2="360.216" y2="278.002" gradientUnits="userSpaceOnUse">
<stop stop-color="#A8C9D1"/>
<stop offset="1" stop-color="white"/>
</linearGradient>
<linearGradient id="paint19_linear_932_21301" x1="341.431" y1="139.83" x2="341.431" y2="192.581" gradientUnits="userSpaceOnUse">
<stop stop-color="#A8C9D1"/>
<stop offset="1" stop-color="white"/>
</linearGradient>
<linearGradient id="paint20_linear_932_21301" x1="361.769" y1="172.024" x2="361.769" y2="200.16" gradientUnits="userSpaceOnUse">
<stop stop-color="#A8C9D1"/>
<stop offset="1" stop-color="white"/>
</linearGradient>
<linearGradient id="paint21_linear_932_21301" x1="361.769" y1="182.196" x2="361.769" y2="210.332" gradientUnits="userSpaceOnUse">
<stop stop-color="#A8C9D1"/>
<stop offset="1" stop-color="white"/>
</linearGradient>
<linearGradient id="paint22_linear_932_21301" x1="361.769" y1="192.368" x2="361.769" y2="220.504" gradientUnits="userSpaceOnUse">
<stop stop-color="#A8C9D1"/>
<stop offset="1" stop-color="white"/>
</linearGradient>
<linearGradient id="paint23_linear_932_21301" x1="361.769" y1="202.54" x2="361.769" y2="230.675" gradientUnits="userSpaceOnUse">
<stop stop-color="#A8C9D1"/>
<stop offset="1" stop-color="white"/>
</linearGradient>
<linearGradient id="paint24_linear_932_21301" x1="361.769" y1="212.712" x2="361.769" y2="240.847" gradientUnits="userSpaceOnUse">
<stop stop-color="#A8C9D1"/>
<stop offset="1" stop-color="white"/>
</linearGradient>
<linearGradient id="paint25_linear_932_21301" x1="361.769" y1="222.884" x2="361.769" y2="251.019" gradientUnits="userSpaceOnUse">
<stop stop-color="#A8C9D1"/>
<stop offset="1" stop-color="white"/>
</linearGradient>
<linearGradient id="paint26_linear_932_21301" x1="328.673" y1="164.696" x2="328.673" y2="185.704" gradientUnits="userSpaceOnUse">
<stop stop-color="#A8C9D1"/>
<stop offset="1" stop-color="white"/>
</linearGradient>
<linearGradient id="paint27_linear_932_21301" x1="354.196" y1="164.696" x2="354.196" y2="185.704" gradientUnits="userSpaceOnUse">
<stop stop-color="#A8C9D1"/>
<stop offset="1" stop-color="white"/>
</linearGradient>
<linearGradient id="paint28_linear_932_21301" x1="341.438" y1="146.771" x2="341.438" y2="182.61" gradientUnits="userSpaceOnUse">
<stop stop-color="#A8C9D1"/>
<stop offset="1" stop-color="white"/>
</linearGradient>
<linearGradient id="paint29_linear_932_21301" x1="335.756" y1="155.551" x2="335.756" y2="167.213" gradientUnits="userSpaceOnUse">
<stop stop-color="#A8C9D1"/>
<stop offset="1" stop-color="white"/>
</linearGradient>
<linearGradient id="paint30_linear_932_21301" x1="338.594" y1="157.58" x2="338.594" y2="169.23" gradientUnits="userSpaceOnUse">
<stop stop-color="#A8C9D1"/>
<stop offset="1" stop-color="white"/>
</linearGradient>
<linearGradient id="paint31_linear_932_21301" x1="341.431" y1="159.597" x2="341.431" y2="171.259" gradientUnits="userSpaceOnUse">
<stop stop-color="#A8C9D1"/>
<stop offset="1" stop-color="white"/>
</linearGradient>
<linearGradient id="paint32_linear_932_21301" x1="344.268" y1="161.626" x2="344.268" y2="173.276" gradientUnits="userSpaceOnUse">
<stop stop-color="#A8C9D1"/>
<stop offset="1" stop-color="white"/>
</linearGradient>
<linearGradient id="paint33_linear_932_21301" x1="347.106" y1="163.656" x2="347.106" y2="175.306" gradientUnits="userSpaceOnUse">
<stop stop-color="#A8C9D1"/>
<stop offset="1" stop-color="white"/>
</linearGradient>
<linearGradient id="paint34_linear_932_21301" x1="288.048" y1="243.552" x2="288.048" y2="290.265" gradientUnits="userSpaceOnUse">
<stop stop-color="#A8C9D1"/>
<stop offset="1" stop-color="white"/>
</linearGradient>
<linearGradient id="paint35_linear_932_21301" x1="288.048" y1="246.821" x2="288.048" y2="286.995" gradientUnits="userSpaceOnUse">
<stop stop-color="#A8C9D1"/>
<stop offset="1" stop-color="white"/>
</linearGradient>
<linearGradient id="paint36_linear_932_21301" x1="306.018" y1="246.233" x2="306.018" y2="273.617" gradientUnits="userSpaceOnUse">
<stop stop-color="#A8C9D1"/>
<stop offset="1" stop-color="white"/>
</linearGradient>
<linearGradient id="paint37_linear_932_21301" x1="272.746" y1="246.233" x2="272.746" y2="273.617" gradientUnits="userSpaceOnUse">
<stop stop-color="#A8C9D1"/>
<stop offset="1" stop-color="white"/>
</linearGradient>
<linearGradient id="paint38_linear_932_21301" x1="289.382" y1="222.883" x2="289.382" y2="269.596" gradientUnits="userSpaceOnUse">
<stop stop-color="#A8C9D1"/>
<stop offset="1" stop-color="white"/>
</linearGradient>
<linearGradient id="paint39_linear_932_21301" x1="289.382" y1="226.152" x2="289.382" y2="266.326" gradientUnits="userSpaceOnUse">
<stop stop-color="#A8C9D1"/>
<stop offset="1" stop-color="white"/>
</linearGradient>
<linearGradient id="paint40_linear_932_21301" x1="179.372" y1="154.449" x2="179.372" y2="194.33" gradientUnits="userSpaceOnUse">
<stop stop-color="#A8C9D1"/>
<stop offset="1" stop-color="white"/>
</linearGradient>
<linearGradient id="paint41_linear_932_21301" x1="179.366" y1="139.742" x2="179.366" y2="175.189" gradientUnits="userSpaceOnUse">
<stop stop-color="#A8C9D1"/>
<stop offset="1" stop-color="white"/>
</linearGradient>
<linearGradient id="paint42_linear_932_21301" x1="179.372" y1="146.231" x2="179.372" y2="179.386" gradientUnits="userSpaceOnUse">
<stop stop-color="#A8C9D1"/>
<stop offset="1" stop-color="white"/>
</linearGradient>
<linearGradient id="paint43_linear_932_21301" x1="179.372" y1="126.038" x2="179.372" y2="165.919" gradientUnits="userSpaceOnUse">
<stop stop-color="#A8C9D1"/>
<stop offset="1" stop-color="white"/>
</linearGradient>
<linearGradient id="paint44_linear_932_21301" x1="179.366" y1="111.331" x2="179.366" y2="146.778" gradientUnits="userSpaceOnUse">
<stop stop-color="#A8C9D1"/>
<stop offset="1" stop-color="white"/>
</linearGradient>
<linearGradient id="paint45_linear_932_21301" x1="179.372" y1="117.832" x2="179.372" y2="150.974" gradientUnits="userSpaceOnUse">
<stop stop-color="#A8C9D1"/>
<stop offset="1" stop-color="white"/>
</linearGradient>
<linearGradient id="paint46_linear_932_21301" x1="179.372" y1="97.251" x2="179.372" y2="137.132" gradientUnits="userSpaceOnUse">
<stop stop-color="#A8C9D1"/>
<stop offset="1" stop-color="white"/>
</linearGradient>
<linearGradient id="paint47_linear_932_21301" x1="179.357" y1="71.2344" x2="179.357" y2="122.2" gradientUnits="userSpaceOnUse">
<stop stop-color="#A8C9D1"/>
<stop offset="1" stop-color="white"/>
</linearGradient>
<linearGradient id="paint48_linear_932_21301" x1="36.082" y1="166.199" x2="36.082" y2="278.002" gradientUnits="userSpaceOnUse">
<stop stop-color="#A8C9D1"/>
<stop offset="1" stop-color="white"/>
</linearGradient>
<linearGradient id="paint49_linear_932_21301" x1="-1.48644" y1="166.199" x2="-1.48644" y2="278.002" gradientUnits="userSpaceOnUse">
<stop stop-color="#A8C9D1"/>
<stop offset="1" stop-color="white"/>
</linearGradient>
<linearGradient id="paint50_linear_932_21301" x1="17.2979" y1="139.83" x2="17.2979" y2="192.581" gradientUnits="userSpaceOnUse">
<stop stop-color="#A8C9D1"/>
<stop offset="1" stop-color="white"/>
</linearGradient>
<linearGradient id="paint51_linear_932_21301" x1="-3.03978" y1="172.024" x2="-3.03978" y2="200.16" gradientUnits="userSpaceOnUse">
<stop stop-color="#A8C9D1"/>
<stop offset="1" stop-color="white"/>
</linearGradient>
<linearGradient id="paint52_linear_932_21301" x1="-3.04002" y1="182.196" x2="-3.04002" y2="210.332" gradientUnits="userSpaceOnUse">
<stop stop-color="#A8C9D1"/>
<stop offset="1" stop-color="white"/>
</linearGradient>
<linearGradient id="paint53_linear_932_21301" x1="-3.04002" y1="192.368" x2="-3.04002" y2="220.504" gradientUnits="userSpaceOnUse">
<stop stop-color="#A8C9D1"/>
<stop offset="1" stop-color="white"/>
</linearGradient>
<linearGradient id="paint54_linear_932_21301" x1="-3.04002" y1="202.54" x2="-3.04002" y2="230.675" gradientUnits="userSpaceOnUse">
<stop stop-color="#A8C9D1"/>
<stop offset="1" stop-color="white"/>
</linearGradient>
<linearGradient id="paint55_linear_932_21301" x1="-3.04002" y1="212.712" x2="-3.04002" y2="240.847" gradientUnits="userSpaceOnUse">
<stop stop-color="#A8C9D1"/>
<stop offset="1" stop-color="white"/>
</linearGradient>
<linearGradient id="paint56_linear_932_21301" x1="-3.04002" y1="222.884" x2="-3.04002" y2="251.019" gradientUnits="userSpaceOnUse">
<stop stop-color="#A8C9D1"/>
<stop offset="1" stop-color="white"/>
</linearGradient>
<linearGradient id="paint57_linear_932_21301" x1="30.0559" y1="164.696" x2="30.0559" y2="185.704" gradientUnits="userSpaceOnUse">
<stop stop-color="#A8C9D1"/>
<stop offset="1" stop-color="white"/>
</linearGradient>
<linearGradient id="paint58_linear_932_21301" x1="4.53248" y1="164.696" x2="4.53248" y2="185.704" gradientUnits="userSpaceOnUse">
<stop stop-color="#A8C9D1"/>
<stop offset="1" stop-color="white"/>
</linearGradient>
<linearGradient id="paint59_linear_932_21301" x1="17.2912" y1="146.771" x2="17.2912" y2="182.61" gradientUnits="userSpaceOnUse">
<stop stop-color="#A8C9D1"/>
<stop offset="1" stop-color="white"/>
</linearGradient>
<linearGradient id="paint60_linear_932_21301" x1="22.9724" y1="155.551" x2="22.9724" y2="167.213" gradientUnits="userSpaceOnUse">
<stop stop-color="#A8C9D1"/>
<stop offset="1" stop-color="white"/>
</linearGradient>
<linearGradient id="paint61_linear_932_21301" x1="20.1347" y1="157.58" x2="20.1347" y2="169.23" gradientUnits="userSpaceOnUse">
<stop stop-color="#A8C9D1"/>
<stop offset="1" stop-color="white"/>
</linearGradient>
<linearGradient id="paint62_linear_932_21301" x1="17.2973" y1="159.597" x2="17.2973" y2="171.259" gradientUnits="userSpaceOnUse">
<stop stop-color="#A8C9D1"/>
<stop offset="1" stop-color="white"/>
</linearGradient>
<linearGradient id="paint63_linear_932_21301" x1="14.4602" y1="161.626" x2="14.4602" y2="173.276" gradientUnits="userSpaceOnUse">
<stop stop-color="#A8C9D1"/>
<stop offset="1" stop-color="white"/>
</linearGradient>
<linearGradient id="paint64_linear_932_21301" x1="11.6229" y1="163.656" x2="11.6229" y2="175.306" gradientUnits="userSpaceOnUse">
<stop stop-color="#A8C9D1"/>
<stop offset="1" stop-color="white"/>
</linearGradient>
<linearGradient id="paint65_linear_932_21301" x1="70.6807" y1="243.552" x2="70.6807" y2="290.265" gradientUnits="userSpaceOnUse">
<stop stop-color="#A8C9D1"/>
<stop offset="1" stop-color="white"/>
</linearGradient>
<linearGradient id="paint66_linear_932_21301" x1="70.6807" y1="246.821" x2="70.6807" y2="286.995" gradientUnits="userSpaceOnUse">
<stop stop-color="#A8C9D1"/>
<stop offset="1" stop-color="white"/>
</linearGradient>
<linearGradient id="paint67_linear_932_21301" x1="52.7111" y1="246.233" x2="52.7111" y2="273.617" gradientUnits="userSpaceOnUse">
<stop stop-color="#A8C9D1"/>
<stop offset="1" stop-color="white"/>
</linearGradient>
<linearGradient id="paint68_linear_932_21301" x1="85.9826" y1="246.233" x2="85.9826" y2="273.617" gradientUnits="userSpaceOnUse">
<stop stop-color="#A8C9D1"/>
<stop offset="1" stop-color="white"/>
</linearGradient>
<linearGradient id="paint69_linear_932_21301" x1="69.3468" y1="222.883" x2="69.3468" y2="269.596" gradientUnits="userSpaceOnUse">
<stop stop-color="#A8C9D1"/>
<stop offset="1" stop-color="white"/>
</linearGradient>
<linearGradient id="paint70_linear_932_21301" x1="69.3471" y1="226.152" x2="69.3471" y2="266.326" gradientUnits="userSpaceOnUse">
<stop stop-color="#A8C9D1"/>
<stop offset="1" stop-color="white"/>
</linearGradient>
<linearGradient id="paint71_linear_932_21301" x1="311.134" y1="-26.7529" x2="311.134" y2="85.037" gradientUnits="userSpaceOnUse">
<stop stop-color="#A8C9D1"/>
<stop offset="1" stop-color="white"/>
</linearGradient>
<linearGradient id="paint72_linear_932_21301" x1="273.567" y1="-26.7529" x2="273.567" y2="85.037" gradientUnits="userSpaceOnUse">
<stop stop-color="#A8C9D1"/>
<stop offset="1" stop-color="white"/>
</linearGradient>
<linearGradient id="paint73_linear_932_21301" x1="292.35" y1="-53.1348" x2="292.35" y2="-0.384048" gradientUnits="userSpaceOnUse">
<stop stop-color="#A8C9D1"/>
<stop offset="1" stop-color="white"/>
</linearGradient>
<linearGradient id="paint74_linear_932_21301" x1="272.013" y1="-20.9404" x2="272.013" y2="7.19495" gradientUnits="userSpaceOnUse">
<stop stop-color="#A8C9D1"/>
<stop offset="1" stop-color="white"/>
</linearGradient>
<linearGradient id="paint75_linear_932_21301" x1="272.013" y1="-10.7686" x2="272.013" y2="17.3668" gradientUnits="userSpaceOnUse">
<stop stop-color="#A8C9D1"/>
<stop offset="1" stop-color="white"/>
</linearGradient>
<linearGradient id="paint76_linear_932_21301" x1="272.013" y1="-0.59668" x2="272.013" y2="27.5387" gradientUnits="userSpaceOnUse">
<stop stop-color="#A8C9D1"/>
<stop offset="1" stop-color="white"/>
</linearGradient>
<linearGradient id="paint77_linear_932_21301" x1="272.013" y1="9.5752" x2="272.013" y2="37.7106" gradientUnits="userSpaceOnUse">
<stop stop-color="#A8C9D1"/>
<stop offset="1" stop-color="white"/>
</linearGradient>
<linearGradient id="paint78_linear_932_21301" x1="272.013" y1="19.7471" x2="272.013" y2="47.8825" gradientUnits="userSpaceOnUse">
<stop stop-color="#A8C9D1"/>
<stop offset="1" stop-color="white"/>
</linearGradient>
<linearGradient id="paint79_linear_932_21301" x1="272.013" y1="29.9189" x2="272.013" y2="58.0543" gradientUnits="userSpaceOnUse">
<stop stop-color="#A8C9D1"/>
<stop offset="1" stop-color="white"/>
</linearGradient>
<linearGradient id="paint80_linear_932_21301" x1="329.104" y1="73.9492" x2="329.104" y2="122.09" gradientUnits="userSpaceOnUse">
<stop stop-color="#A8C9D1"/>
<stop offset="1" stop-color="white"/>
</linearGradient>
<linearGradient id="paint81_linear_932_21301" x1="362.369" y1="73.9492" x2="362.369" y2="122.09" gradientUnits="userSpaceOnUse">
<stop stop-color="#A8C9D1"/>
<stop offset="1" stop-color="white"/>
</linearGradient>
<linearGradient id="paint82_linear_932_21301" x1="345.734" y1="50.5869" x2="345.734" y2="97.2997" gradientUnits="userSpaceOnUse">
<stop stop-color="#A8C9D1"/>
<stop offset="1" stop-color="white"/>
</linearGradient>
<linearGradient id="paint83_linear_932_21301" x1="345.734" y1="53.8564" x2="345.734" y2="94.0302" gradientUnits="userSpaceOnUse">
<stop stop-color="#A8C9D1"/>
<stop offset="1" stop-color="white"/>
</linearGradient>
<linearGradient id="paint84_linear_932_21301" x1="327.764" y1="53.2803" x2="327.764" y2="80.6515" gradientUnits="userSpaceOnUse">
<stop stop-color="#A8C9D1"/>
<stop offset="1" stop-color="white"/>
</linearGradient>
<linearGradient id="paint85_linear_932_21301" x1="361.035" y1="53.2803" x2="361.035" y2="80.6515" gradientUnits="userSpaceOnUse">
<stop stop-color="#A8C9D1"/>
<stop offset="1" stop-color="white"/>
</linearGradient>
<linearGradient id="paint86_linear_932_21301" x1="344.4" y1="29.918" x2="344.4" y2="76.6307" gradientUnits="userSpaceOnUse">
<stop stop-color="#A8C9D1"/>
<stop offset="1" stop-color="white"/>
</linearGradient>
<linearGradient id="paint87_linear_932_21301" x1="344.394" y1="33.1875" x2="344.394" y2="73.3612" gradientUnits="userSpaceOnUse">
<stop stop-color="#A8C9D1"/>
<stop offset="1" stop-color="white"/>
</linearGradient>
<clipPath id="clip0_932_21301">
<rect width="358" height="261" fill="white"/>
</clipPath>
</defs>
</svg>
