<svg width="358" height="261" viewBox="0 0 358 261" fill="none" xmlns="http://www.w3.org/2000/svg">
<g clip-path="url(#clip0_932_21467)">
<rect width="358" height="261" fill="#F6F7F8"/>
<path d="M202.88 138.329C205.404 136.89 213.661 139.886 216.161 141.326L310.666 195.867C316.092 199.005 326.543 212.876 321.117 216.014L164.828 306.721C162.303 308.16 152.843 311.887 150.319 310.425L51.7331 253.523C46.3072 250.386 34.7477 235.878 40.1972 232.764L202.856 138.329H202.88Z" fill="url(#paint0_linear_932_21467)" stroke="#64B5C8" stroke-linejoin="round"/>
<path d="M202.479 139.957C204.744 138.659 213.165 141.915 215.43 143.236L307.93 196.646C312.813 199.477 324.231 213.112 319.324 215.919L164.757 305.659C162.492 306.956 152.749 311.014 150.485 309.716L53.5264 253.759C48.6431 250.928 36.0456 236.609 40.9289 233.801L202.455 140.004L202.479 139.957Z" fill="url(#paint1_linear_932_21467)" stroke="#64B5C8" stroke-linejoin="round"/>
<path d="M202.077 141.585C204.082 140.429 212.669 143.968 214.675 145.124L305.169 197.378C309.51 199.878 321.871 213.302 317.507 215.802L164.662 304.598C162.657 305.754 152.631 310.142 150.626 308.986L55.2951 253.948C50.9544 251.448 37.2953 237.293 41.6596 234.793L202.054 141.609L202.077 141.585Z" fill="url(#paint2_linear_932_21467)" stroke="#64B5C8" stroke-linejoin="round"/>
<path d="M201.7 143.236C203.469 142.222 212.221 146.02 213.967 147.034L302.48 198.132C306.278 200.326 319.583 213.513 315.785 215.683L164.639 303.512C162.869 304.527 152.584 309.268 150.814 308.254L57.1115 254.16C53.3134 251.966 38.6163 237.977 42.4145 235.806L201.676 143.236H201.7Z" fill="url(#paint3_linear_932_21467)" stroke="#64B5C8" stroke-linejoin="round"/>
<path d="M201.299 144.864C202.809 143.991 211.726 148.072 213.236 148.945L299.744 198.887C302.999 200.774 317.272 213.702 313.993 215.589L164.568 302.451C163.058 303.323 152.49 308.395 150.98 307.523L58.905 254.372C55.6495 252.485 39.8908 238.685 43.1699 236.821L201.299 144.887V144.864Z" fill="url(#paint4_linear_932_21467)" stroke="#64B5C8" stroke-linejoin="round"/>
<path d="M200.898 146.515C202.148 145.784 211.231 150.148 212.481 150.856L296.983 199.641C299.696 201.198 314.912 213.914 312.199 215.471L164.497 301.365C163.247 302.096 152.395 307.499 151.145 306.767L60.6976 254.561C57.9847 253.004 41.188 239.368 43.901 237.811L200.898 146.491V146.515Z" fill="url(#paint5_linear_932_21467)" stroke="#64B5C8" stroke-linejoin="round"/>
<path d="M200.521 148.143C201.535 147.577 210.759 152.177 211.774 152.767L294.294 200.397C296.465 201.647 312.624 214.126 310.454 215.377L164.474 300.327C163.46 300.893 152.348 306.65 151.358 306.083L62.5381 254.797C60.3677 253.547 42.5095 240.1 44.6798 238.85L200.544 148.143H200.521Z" fill="url(#paint6_linear_932_21467)" stroke="#64B5C8" stroke-linejoin="round"/>
<path d="M200.119 149.795C200.874 149.37 210.263 154.253 211.018 154.678L291.534 201.152C293.162 202.096 310.289 214.316 308.637 215.259L164.356 299.243C163.601 299.667 152.23 305.777 151.475 305.329L64.2834 254.986C62.6556 254.043 43.7594 240.785 45.3872 239.841L200.119 149.771V149.795Z" fill="url(#paint7_linear_932_21467)" stroke="#64B5C8" stroke-linejoin="round"/>
<path d="M199.718 151.422C200.214 151.139 209.768 156.306 210.287 156.589L288.821 201.93C289.906 202.567 307.977 214.551 306.891 215.188L164.332 298.204C163.837 298.488 152.183 304.928 151.664 304.645L66.0999 255.246C65.0147 254.609 45.0569 241.539 46.142 240.902L199.742 151.446L199.718 151.422Z" fill="url(#paint8_linear_932_21467)" stroke="#64B5C8" stroke-linejoin="round"/>
<path d="M199.317 153.05C199.577 152.908 209.296 158.334 209.532 158.475L286.061 202.661C286.603 202.968 305.618 214.74 305.075 215.046L164.238 297.095C163.978 297.237 152.065 304.007 151.805 303.866L67.8456 255.41C67.3031 255.104 46.3072 242.176 46.8498 241.869L199.317 153.05Z" fill="url(#paint9_linear_932_21467)" stroke="#64B5C8" stroke-linejoin="round"/>
<path d="M151.995 303.158L47.6053 242.907L198.94 154.701L303.306 214.952L151.995 303.158Z" fill="url(#paint10_linear_932_21467)" stroke="#64B5C8" stroke-linejoin="round"/>
<path d="M152.135 305.729V316.015L325.999 213.866V203.604L152.135 305.729Z" fill="url(#paint11_linear_932_21467)" stroke="#64B5C8" stroke-linejoin="round"/>
<path d="M152.206 305.73V316.015L32.4358 246.186V235.995L152.206 305.73Z" fill="url(#paint12_linear_932_21467)" stroke="#64B5C8" stroke-linejoin="round"/>
<path d="M32.4358 235.994L152.206 305.729L326 203.604L206.088 133.775L32.4358 235.994Z" fill="url(#paint13_linear_932_21467)" stroke="#64B5C8" stroke-linejoin="round"/>
<path d="M152.16 282.233V292.755L303.542 203.818V193.272L152.16 282.233Z" fill="url(#paint14_linear_932_21467)" stroke="#64B5C8" stroke-linejoin="round"/>
<path d="M152.207 282.234V292.755L54.8944 236.019V225.568L152.207 282.234Z" fill="url(#paint15_linear_932_21467)" stroke="#64B5C8" stroke-linejoin="round"/>
<path d="M54.8944 225.568L152.207 282.233L303.542 193.272L206.112 136.56L54.8944 225.568Z" fill="url(#paint16_linear_932_21467)" stroke="#64B5C8" stroke-linejoin="round"/>
<path d="M240.885 222.454H215.171V224.105C215.171 224.105 215.171 224.176 215.171 224.2C215.171 228.328 220.927 231.678 228.028 231.678C235.128 231.678 240.885 228.328 240.885 224.2C240.885 224.176 240.885 224.129 240.885 224.105V222.454Z" fill="url(#paint17_linear_932_21467)" stroke="#64B5C8" stroke-linejoin="round"/>
<path d="M240.885 222.502C240.885 226.064 235.128 228.942 228.028 228.942C220.927 228.942 215.171 226.064 215.171 222.502C215.171 218.94 220.927 216.062 228.028 216.062C235.128 216.062 240.885 218.94 240.885 222.502Z" fill="url(#paint18_linear_932_21467)" stroke="#64B5C8" stroke-linejoin="round"/>
<path d="M238.03 219.223H218.025V221.275C218.025 221.275 218.025 221.322 218.025 221.346C218.025 224.554 222.507 227.173 228.028 227.173C233.548 227.173 238.03 224.554 238.03 221.346C238.03 221.322 238.03 221.299 238.03 221.275V219.223Z" fill="url(#paint19_linear_932_21467)" stroke="#64B5C8" stroke-linejoin="round"/>
<path d="M238.03 219.246C238.03 222.006 233.548 224.27 228.028 224.27C222.507 224.27 218.025 222.029 218.025 219.246C218.025 216.462 222.507 214.221 228.028 214.221C233.548 214.221 238.03 216.462 238.03 219.246Z" fill="url(#paint20_linear_932_21467)" stroke="#64B5C8" stroke-linejoin="round"/>
<path d="M235.577 163.901H220.455V218.491C220.455 218.491 220.455 218.538 220.455 218.561C220.455 220.991 223.852 222.973 228.028 222.973C232.204 222.973 235.601 220.991 235.601 218.561C235.601 218.561 235.601 218.514 235.601 218.491V163.901H235.577Z" fill="url(#paint21_linear_932_21467)" stroke="#64B5C8" stroke-linejoin="round"/>
<path d="M235.577 163.926C235.577 166.026 232.18 167.724 228.004 167.724C223.828 167.724 220.431 166.026 220.431 163.926C220.431 161.826 223.828 160.128 228.004 160.128C232.18 160.128 235.577 161.826 235.577 163.926Z" fill="url(#paint22_linear_932_21467)" stroke="#64B5C8" stroke-linejoin="round"/>
<path d="M238.03 163.005H218.025V165.057C218.025 165.057 218.025 165.104 218.025 165.128C218.025 168.336 222.507 170.955 228.028 170.955C233.548 170.955 238.03 168.336 238.03 165.128C238.03 165.104 238.03 165.081 238.03 165.057V163.005Z" fill="url(#paint23_linear_932_21467)" stroke="#64B5C8" stroke-linejoin="round"/>
<path d="M238.03 163.028C238.03 165.788 233.548 168.053 228.028 168.053C222.507 168.053 218.025 165.812 218.025 163.028C218.025 160.244 222.507 158.003 228.028 158.003C233.548 158.003 238.03 160.244 238.03 163.028Z" fill="url(#paint24_linear_932_21467)" stroke="#64B5C8" stroke-linejoin="round"/>
<path d="M215.594 237.104H189.88V238.756C189.88 238.756 189.88 238.827 189.88 238.85C189.88 242.979 195.637 246.352 202.737 246.352C209.838 246.352 215.594 243.002 215.594 238.85C215.594 238.827 215.594 238.779 215.594 238.756V237.104Z" fill="url(#paint25_linear_932_21467)" stroke="#64B5C8" stroke-linejoin="round"/>
<path d="M215.594 237.151C215.594 240.713 209.838 243.592 202.737 243.592C195.637 243.592 189.88 240.713 189.88 237.151C189.88 233.589 195.637 230.711 202.737 230.711C209.838 230.711 215.594 233.589 215.594 237.151Z" fill="url(#paint26_linear_932_21467)" stroke="#64B5C8" stroke-linejoin="round"/>
<path d="M212.741 233.872H192.736V235.924C192.736 235.924 192.736 235.972 192.736 235.995C192.736 239.204 197.218 241.822 202.738 241.822C208.259 241.822 212.741 239.204 212.741 235.995C212.741 235.972 212.741 235.948 212.741 235.924V233.872Z" fill="url(#paint27_linear_932_21467)" stroke="#64B5C8" stroke-linejoin="round"/>
<path d="M212.741 233.896C212.741 236.656 208.259 238.921 202.738 238.921C197.218 238.921 192.736 236.68 192.736 233.896C192.736 231.112 197.218 228.871 202.738 228.871C208.259 228.871 212.741 231.112 212.741 233.896Z" fill="url(#paint28_linear_932_21467)" stroke="#64B5C8" stroke-linejoin="round"/>
<path d="M210.287 178.552H195.165V233.141C195.165 233.141 195.165 233.188 195.165 233.212C195.165 235.642 198.562 237.623 202.738 237.623C206.913 237.623 210.31 235.642 210.31 233.212C210.31 233.212 210.31 233.165 210.31 233.141V178.552H210.287Z" fill="url(#paint29_linear_932_21467)" stroke="#64B5C8" stroke-linejoin="round"/>
<path d="M210.286 178.575C210.286 180.675 206.889 182.374 202.714 182.374C198.538 182.374 195.141 180.675 195.141 178.575C195.141 176.476 198.538 174.777 202.714 174.777C206.889 174.777 210.286 176.476 210.286 178.575Z" fill="url(#paint30_linear_932_21467)" stroke="#64B5C8" stroke-linejoin="round"/>
<path d="M212.741 177.655H192.736V179.708C192.736 179.708 192.736 179.755 192.736 179.778C192.736 182.987 197.218 185.605 202.738 185.605C208.259 185.605 212.741 182.987 212.741 179.778C212.741 179.755 212.741 179.731 212.741 179.708V177.655Z" fill="url(#paint31_linear_932_21467)" stroke="#64B5C8" stroke-linejoin="round"/>
<path d="M212.741 177.679C212.741 180.439 208.259 182.704 202.738 182.704C197.218 182.704 192.736 180.463 192.736 177.679C192.736 174.895 197.218 172.654 202.738 172.654C208.259 172.654 212.741 174.895 212.741 177.679Z" fill="url(#paint32_linear_932_21467)" stroke="#64B5C8" stroke-linejoin="round"/>
<path d="M190.281 251.754H164.567V253.405C164.567 253.405 164.567 253.476 164.567 253.5C164.567 257.628 170.324 260.978 177.424 260.978C184.525 260.978 190.281 257.628 190.281 253.5C190.281 253.476 190.281 253.429 190.281 253.405V251.754Z" fill="url(#paint33_linear_932_21467)" stroke="#64B5C8" stroke-linejoin="round"/>
<path d="M190.281 251.802C190.281 255.364 184.525 258.242 177.424 258.242C170.324 258.242 164.567 255.364 164.567 251.802C164.567 248.239 170.324 245.361 177.424 245.361C184.525 245.361 190.281 248.239 190.281 251.802Z" fill="url(#paint34_linear_932_21467)" stroke="#64B5C8" stroke-linejoin="round"/>
<path d="M187.427 248.521H167.422V250.574C167.422 250.574 167.422 250.621 167.422 250.645C167.422 253.853 171.904 256.472 177.424 256.472C182.945 256.472 187.427 253.853 187.427 250.645C187.427 250.621 187.427 250.598 187.427 250.574V248.521Z" fill="url(#paint35_linear_932_21467)" stroke="#64B5C8" stroke-linejoin="round"/>
<path d="M187.427 248.545C187.427 251.305 182.945 253.57 177.424 253.57C171.904 253.57 167.422 251.329 167.422 248.545C167.422 245.762 171.904 243.521 177.424 243.521C182.945 243.521 187.427 245.762 187.427 248.545Z" fill="url(#paint36_linear_932_21467)" stroke="#64B5C8" stroke-linejoin="round"/>
<path d="M184.997 193.202H169.875V247.791C169.875 247.791 169.875 247.838 169.875 247.862C169.875 250.292 173.273 252.274 177.448 252.274C181.624 252.274 185.021 250.292 185.021 247.862C185.021 247.862 185.021 247.815 185.021 247.791V193.202H184.997Z" fill="url(#paint37_linear_932_21467)" stroke="#64B5C8" stroke-linejoin="round"/>
<path d="M184.998 193.226C184.998 195.325 181.601 197.024 177.425 197.024C173.25 197.024 169.853 195.325 169.853 193.226C169.853 191.126 173.25 189.428 177.425 189.428C181.601 189.428 184.998 191.126 184.998 193.226Z" fill="url(#paint38_linear_932_21467)" stroke="#64B5C8" stroke-linejoin="round"/>
<path d="M187.427 192.305H167.422V194.357C167.422 194.357 167.422 194.404 167.422 194.428C167.422 197.636 171.904 200.255 177.424 200.255C182.945 200.255 187.427 197.636 187.427 194.428C187.427 194.404 187.427 194.381 187.427 194.357V192.305Z" fill="url(#paint39_linear_932_21467)" stroke="#64B5C8" stroke-linejoin="round"/>
<path d="M187.427 192.33C187.427 195.09 182.945 197.354 177.424 197.354C171.904 197.354 167.422 195.113 167.422 192.33C167.422 189.546 171.904 187.305 177.424 187.305C182.945 187.305 187.427 189.546 187.427 192.33Z" fill="url(#paint40_linear_932_21467)" stroke="#64B5C8" stroke-linejoin="round"/>
<path d="M291.463 193.154H265.749V194.806C265.749 194.806 265.749 194.876 265.749 194.9C265.749 199.028 271.505 202.378 278.606 202.378C285.707 202.378 291.463 199.028 291.463 194.9C291.463 194.876 291.463 194.829 291.463 194.806V193.154Z" fill="url(#paint41_linear_932_21467)" stroke="#64B5C8" stroke-linejoin="round"/>
<path d="M291.463 193.225C291.463 196.788 285.707 199.666 278.606 199.666C271.505 199.666 265.749 196.788 265.749 193.225C265.749 189.663 271.505 186.785 278.606 186.785C285.707 186.785 291.463 189.663 291.463 193.225Z" fill="url(#paint42_linear_932_21467)" stroke="#64B5C8" stroke-linejoin="round"/>
<path d="M288.609 189.923H268.604V191.975C268.604 191.975 268.604 192.022 268.604 192.046C268.604 195.254 273.086 197.873 278.606 197.873C284.126 197.873 288.609 195.254 288.609 192.046C288.609 192.022 288.609 191.999 288.609 191.975V189.923Z" fill="url(#paint43_linear_932_21467)" stroke="#64B5C8" stroke-linejoin="round"/>
<path d="M288.609 189.97C288.609 192.73 284.126 194.995 278.606 194.995C273.086 194.995 268.604 192.754 268.604 189.97C268.604 187.186 273.086 184.945 278.606 184.945C284.126 184.945 288.609 187.186 288.609 189.97Z" fill="url(#paint44_linear_932_21467)" stroke="#64B5C8" stroke-linejoin="round"/>
<path d="M286.178 134.626H271.057V189.215C271.057 189.215 271.057 189.262 271.057 189.286C271.057 191.716 274.454 193.697 278.629 193.697C282.805 193.697 286.202 191.716 286.202 189.286C286.202 189.286 286.202 189.239 286.202 189.215V134.626H286.178Z" fill="url(#paint45_linear_932_21467)" stroke="#64B5C8" stroke-linejoin="round"/>
<path d="M286.179 134.65C286.179 136.749 282.782 138.448 278.607 138.448C274.431 138.448 271.034 136.749 271.034 134.65C271.034 132.55 274.431 130.852 278.607 130.852C282.782 130.852 286.179 132.55 286.179 134.65Z" fill="url(#paint46_linear_932_21467)" stroke="#64B5C8" stroke-linejoin="round"/>
<path d="M288.609 133.705H268.604V135.757C268.604 135.757 268.604 135.805 268.604 135.828C268.604 139.037 273.086 141.655 278.606 141.655C284.126 141.655 288.609 139.037 288.609 135.828C288.609 135.805 288.609 135.781 288.609 135.757V133.705Z" fill="url(#paint47_linear_932_21467)" stroke="#64B5C8" stroke-linejoin="round"/>
<path d="M288.609 133.753C288.609 136.513 284.126 138.778 278.606 138.778C273.086 138.778 268.604 136.537 268.604 133.753C268.604 130.97 273.086 128.729 278.606 128.729C284.126 128.729 288.609 130.97 288.609 133.753Z" fill="url(#paint48_linear_932_21467)" stroke="#64B5C8" stroke-linejoin="round"/>
<path d="M266.174 207.805H240.46V209.456C240.46 209.456 240.46 209.527 240.46 209.55C240.46 213.679 246.216 217.029 253.317 217.029C260.418 217.029 266.174 213.679 266.174 209.55C266.174 209.527 266.174 209.48 266.174 209.456V207.805Z" fill="url(#paint49_linear_932_21467)" stroke="#64B5C8" stroke-linejoin="round"/>
<path d="M253.317 214.315C260.418 214.315 266.174 211.432 266.174 207.875C266.174 204.318 260.418 201.435 253.317 201.435C246.216 201.435 240.46 204.318 240.46 207.875C240.46 211.432 246.216 214.315 253.317 214.315Z" fill="url(#paint50_linear_932_21467)" stroke="#64B5C8" stroke-linejoin="round"/>
<path d="M263.32 204.572H243.315V206.625C243.315 206.625 243.315 206.672 243.315 206.695C243.315 209.904 247.797 212.522 253.317 212.522C258.837 212.522 263.32 209.904 263.32 206.695C263.32 206.672 263.32 206.648 263.32 206.625V204.572Z" fill="url(#paint51_linear_932_21467)" stroke="#64B5C8" stroke-linejoin="round"/>
<path d="M263.32 204.62C263.32 207.38 258.837 209.644 253.317 209.644C247.797 209.644 243.315 207.403 243.315 204.62C243.315 201.836 247.797 199.595 253.317 199.595C258.837 199.595 263.32 201.836 263.32 204.62Z" fill="url(#paint52_linear_932_21467)" stroke="#64B5C8" stroke-linejoin="round"/>
<path d="M260.865 149.275H245.744V203.865C245.744 203.865 245.744 203.912 245.744 203.935C245.744 206.365 249.141 208.347 253.316 208.347C257.492 208.347 260.889 206.365 260.889 203.935V203.888V149.275H260.865Z" fill="url(#paint53_linear_932_21467)" stroke="#64B5C8" stroke-linejoin="round"/>
<path d="M260.866 149.299C260.866 151.399 257.469 153.097 253.293 153.097C249.118 153.097 245.721 151.399 245.721 149.299C245.721 147.199 249.118 145.501 253.293 145.501C257.469 145.501 260.866 147.199 260.866 149.299Z" fill="url(#paint54_linear_932_21467)" stroke="#64B5C8" stroke-linejoin="round"/>
<path d="M263.32 148.355H243.315V150.408C243.315 150.408 243.315 150.455 243.315 150.479C243.315 153.687 247.797 156.306 253.317 156.306C258.837 156.306 263.32 153.687 263.32 150.479C263.32 150.455 263.32 150.431 263.32 150.408V148.355Z" fill="url(#paint55_linear_932_21467)" stroke="#64B5C8" stroke-linejoin="round"/>
<path d="M263.32 148.403C263.32 151.163 258.837 153.428 253.317 153.428C247.797 153.428 243.315 151.186 243.315 148.403C243.315 145.619 247.797 143.378 253.317 143.378C258.837 143.378 263.32 145.619 263.32 148.403Z" fill="url(#paint56_linear_932_21467)" stroke="#64B5C8" stroke-linejoin="round"/>
<path d="M164.993 266.451C164.993 270.013 159.237 272.891 152.136 272.891C145.035 272.891 139.279 270.013 139.279 266.451C139.279 262.889 145.035 260.011 152.136 260.011C159.237 260.011 164.993 262.889 164.993 266.451Z" fill="url(#paint57_linear_932_21467)" stroke="#64B5C8" stroke-linejoin="round"/>
<path d="M162.138 263.197C162.138 265.957 157.656 268.222 152.136 268.222C146.616 268.222 142.133 265.98 142.133 263.197C142.133 260.413 146.616 258.172 152.136 258.172C157.656 258.172 162.138 260.413 162.138 263.197Z" fill="url(#paint58_linear_932_21467)" stroke="#64B5C8" stroke-linejoin="round"/>
<path d="M159.708 207.853H144.587V262.442C144.587 262.442 144.587 262.489 144.587 262.512C144.587 264.942 147.984 266.924 152.159 266.924C156.335 266.924 159.732 264.942 159.732 262.512C159.732 262.512 159.732 262.465 159.732 262.442V207.853H159.708Z" fill="url(#paint59_linear_932_21467)" stroke="#64B5C8" stroke-linejoin="round"/>
<path d="M159.708 207.875C159.708 209.975 156.311 211.673 152.135 211.673C147.96 211.673 144.562 209.975 144.562 207.875C144.562 205.776 147.96 204.077 152.135 204.077C156.311 204.077 159.708 205.776 159.708 207.875Z" fill="url(#paint60_linear_932_21467)" stroke="#64B5C8" stroke-linejoin="round"/>
<path d="M162.138 206.955H142.133V209.007C142.133 209.007 142.133 209.055 142.133 209.078C142.133 212.287 146.616 214.905 152.136 214.905C157.656 214.905 162.138 212.287 162.138 209.078C162.138 209.055 162.138 209.031 162.138 209.007V206.955Z" fill="url(#paint61_linear_932_21467)" stroke="#64B5C8" stroke-linejoin="round"/>
<path d="M162.138 206.979C162.138 209.739 157.656 212.004 152.136 212.004C146.616 212.004 142.133 209.763 142.133 206.979C142.133 204.195 146.616 201.954 152.136 201.954C157.656 201.954 162.138 204.195 162.138 206.979Z" fill="url(#paint62_linear_932_21467)" stroke="#64B5C8" stroke-linejoin="round"/>
<path d="M89.313 222.454H63.599V224.105C63.599 224.105 63.599 224.176 63.599 224.2C63.599 228.328 69.3552 231.678 76.456 231.678C83.5568 231.678 89.313 228.328 89.313 224.2C89.313 224.176 89.313 224.129 89.313 224.105V222.454Z" fill="url(#paint63_linear_932_21467)" stroke="#64B5C8" stroke-linejoin="round"/>
<path d="M89.313 222.502C89.313 226.064 83.5568 228.942 76.456 228.942C69.3552 228.942 63.599 226.064 63.599 222.502C63.599 218.94 69.3552 216.062 76.456 216.062C83.5568 216.062 89.313 218.94 89.313 222.502Z" fill="url(#paint64_linear_932_21467)" stroke="#64B5C8" stroke-linejoin="round"/>
<path d="M86.4585 219.223H66.4535V221.275C66.4535 221.275 66.4535 221.322 66.4535 221.346C66.4535 224.554 70.9358 227.173 76.456 227.173C81.9763 227.173 86.4585 224.554 86.4585 221.346C86.4585 221.322 86.4585 221.299 86.4585 221.275V219.223Z" fill="url(#paint65_linear_932_21467)" stroke="#64B5C8" stroke-linejoin="round"/>
<path d="M86.4585 219.246C86.4585 222.006 81.9763 224.27 76.456 224.27C70.9358 224.27 66.4535 222.029 66.4535 219.246C66.4535 216.462 70.9358 214.221 76.456 214.221C81.9763 214.221 86.4585 216.462 86.4585 219.246Z" fill="url(#paint66_linear_932_21467)" stroke="#64B5C8" stroke-linejoin="round"/>
<path d="M84.0289 163.901H68.9072V218.491C68.9072 218.491 68.9072 218.538 68.9072 218.561C68.9072 220.991 72.3043 222.973 76.4799 222.973C80.6555 222.973 84.0525 220.991 84.0525 218.561C84.0525 218.561 84.0525 218.514 84.0525 218.491V163.901H84.0289Z" fill="url(#paint67_linear_932_21467)" stroke="#64B5C8" stroke-linejoin="round"/>
<path d="M84.0296 163.926C84.0296 166.026 80.6325 167.724 76.4569 167.724C72.2814 167.724 68.8843 166.026 68.8843 163.926C68.8843 161.826 72.2814 160.128 76.4569 160.128C80.6325 160.128 84.0296 161.826 84.0296 163.926Z" fill="url(#paint68_linear_932_21467)" stroke="#64B5C8" stroke-linejoin="round"/>
<path d="M86.4585 163.005H66.4535V165.057C66.4535 165.057 66.4535 165.104 66.4535 165.128C66.4535 168.336 70.9358 170.955 76.456 170.955C81.9763 170.955 86.4585 168.336 86.4585 165.128C86.4585 165.104 86.4585 165.081 86.4585 165.057V163.005Z" fill="url(#paint69_linear_932_21467)" stroke="#64B5C8" stroke-linejoin="round"/>
<path d="M86.4585 163.028C86.4585 165.788 81.9763 168.053 76.456 168.053C70.9358 168.053 66.4535 165.812 66.4535 163.028C66.4535 160.244 70.9358 158.003 76.456 158.003C81.9763 158.003 86.4585 160.244 86.4585 163.028Z" fill="url(#paint70_linear_932_21467)" stroke="#64B5C8" stroke-linejoin="round"/>
<path d="M114.626 237.104H88.9121V238.756C88.9121 238.756 88.9121 238.827 88.9121 238.85C88.9121 242.979 94.6683 246.352 101.769 246.352C108.87 246.352 114.626 243.002 114.626 238.85C114.626 238.827 114.626 238.779 114.626 238.756V237.104Z" fill="url(#paint71_linear_932_21467)" stroke="#64B5C8" stroke-linejoin="round"/>
<path d="M114.626 237.151C114.626 240.713 108.87 243.592 101.769 243.592C94.6683 243.592 88.9121 240.713 88.9121 237.151C88.9121 233.589 94.6683 230.711 101.769 230.711C108.87 230.711 114.626 233.589 114.626 237.151Z" fill="url(#paint72_linear_932_21467)" stroke="#64B5C8" stroke-linejoin="round"/>
<path d="M111.771 233.872H91.7665V235.924C91.7665 235.924 91.7665 235.972 91.7665 235.995C91.7665 239.204 96.2487 241.822 101.769 241.822C107.289 241.822 111.771 239.204 111.771 235.995C111.771 235.972 111.771 235.948 111.771 235.924V233.872Z" fill="url(#paint73_linear_932_21467)" stroke="#64B5C8" stroke-linejoin="round"/>
<path d="M111.771 233.896C111.771 236.656 107.289 238.921 101.769 238.921C96.2487 238.921 91.7665 236.68 91.7665 233.896C91.7665 231.112 96.2487 228.871 101.769 228.871C107.289 228.871 111.771 231.112 111.771 233.896Z" fill="url(#paint74_linear_932_21467)" stroke="#64B5C8" stroke-linejoin="round"/>
<path d="M109.319 178.552H94.1974V233.141C94.1974 233.141 94.1974 233.188 94.1974 233.212C94.1974 235.642 97.5945 237.623 101.77 237.623C105.946 237.623 109.343 235.642 109.343 233.212C109.343 233.212 109.343 233.165 109.343 233.141V178.552H109.319Z" fill="url(#paint75_linear_932_21467)" stroke="#64B5C8" stroke-linejoin="round"/>
<path d="M109.318 178.575C109.318 180.675 105.921 182.374 101.745 182.374C97.5698 182.374 94.1727 180.675 94.1727 178.575C94.1727 176.476 97.5698 174.777 101.745 174.777C105.921 174.777 109.318 176.476 109.318 178.575Z" fill="url(#paint76_linear_932_21467)" stroke="#64B5C8" stroke-linejoin="round"/>
<path d="M111.771 177.655H91.7665V179.708C91.7665 179.708 91.7665 179.755 91.7665 179.778C91.7665 182.987 96.2487 185.605 101.769 185.605C107.289 185.605 111.771 182.987 111.771 179.778C111.771 179.755 111.771 179.731 111.771 179.708V177.655Z" fill="url(#paint77_linear_932_21467)" stroke="#64B5C8" stroke-linejoin="round"/>
<path d="M111.771 177.679C111.771 180.439 107.289 182.704 101.769 182.704C96.2487 182.704 91.7665 180.463 91.7665 177.679C91.7665 174.895 96.2487 172.654 101.769 172.654C107.289 172.654 111.771 174.895 111.771 177.679Z" fill="url(#paint78_linear_932_21467)" stroke="#64B5C8" stroke-linejoin="round"/>
<path d="M139.916 251.754H114.202V253.405C114.202 253.405 114.202 253.476 114.202 253.5C114.202 257.628 119.958 260.978 127.059 260.978C134.16 260.978 139.916 257.628 139.916 253.5C139.916 253.476 139.916 253.429 139.916 253.405V251.754Z" fill="url(#paint79_linear_932_21467)" stroke="#64B5C8" stroke-linejoin="round"/>
<path d="M139.916 251.802C139.916 255.364 134.16 258.242 127.059 258.242C119.958 258.242 114.202 255.364 114.202 251.802C114.202 248.239 119.958 245.361 127.059 245.361C134.16 245.361 139.916 248.239 139.916 251.802Z" fill="url(#paint80_linear_932_21467)" stroke="#64B5C8" stroke-linejoin="round"/>
<path d="M137.062 248.521H117.057V250.574C117.057 250.574 117.057 250.621 117.057 250.645C117.057 253.853 121.539 256.472 127.059 256.472C132.579 256.472 137.062 253.853 137.062 250.645C137.062 250.621 137.062 250.598 137.062 250.574V248.521Z" fill="url(#paint81_linear_932_21467)" stroke="#64B5C8" stroke-linejoin="round"/>
<path d="M137.062 248.545C137.062 251.305 132.579 253.57 127.059 253.57C121.539 253.57 117.057 251.329 117.057 248.545C117.057 245.762 121.539 243.521 127.059 243.521C132.579 243.521 137.062 245.762 137.062 248.545Z" fill="url(#paint82_linear_932_21467)" stroke="#64B5C8" stroke-linejoin="round"/>
<path d="M134.608 193.202H119.486V247.791C119.486 247.791 119.486 247.838 119.486 247.862C119.486 250.292 122.883 252.274 127.059 252.274C131.234 252.274 134.631 250.292 134.631 247.862C134.631 247.862 134.631 247.815 134.631 247.791V193.202H134.608Z" fill="url(#paint83_linear_932_21467)" stroke="#64B5C8" stroke-linejoin="round"/>
<path d="M134.608 193.226C134.608 195.325 131.211 197.024 127.036 197.024C122.86 197.024 119.463 195.325 119.463 193.226C119.463 191.126 122.86 189.428 127.036 189.428C131.211 189.428 134.608 191.126 134.608 193.226Z" fill="url(#paint84_linear_932_21467)" stroke="#64B5C8" stroke-linejoin="round"/>
<path d="M137.062 192.305H117.057V194.357C117.057 194.357 117.057 194.404 117.057 194.428C117.057 197.636 121.539 200.255 127.059 200.255C132.579 200.255 137.062 197.636 137.062 194.428C137.062 194.404 137.062 194.381 137.062 194.357V192.305Z" fill="url(#paint85_linear_932_21467)" stroke="#64B5C8" stroke-linejoin="round"/>
<path d="M137.062 192.33C137.062 195.09 132.579 197.354 127.059 197.354C121.539 197.354 117.057 195.113 117.057 192.33C117.057 189.546 121.539 187.305 127.059 187.305C132.579 187.305 137.062 189.546 137.062 192.33Z" fill="url(#paint86_linear_932_21467)" stroke="#64B5C8" stroke-linejoin="round"/>
<path d="M152.16 204.147V213.866L289.199 133.28V123.537L152.16 204.147Z" fill="url(#paint87_linear_932_21467)" stroke="#64B5C8" stroke-linejoin="round"/>
<path d="M152.206 204.147V213.867L62.2311 161.424V151.752L152.206 204.147Z" fill="url(#paint88_linear_932_21467)" stroke="#64B5C8" stroke-linejoin="round"/>
<path d="M152.16 204.147V207.874L289.199 127.264V123.537L152.16 204.147Z" fill="url(#paint89_linear_932_21467)" stroke="#64B5C8" stroke-linejoin="round"/>
<path d="M152.206 204.147V207.875L62.2311 155.432V151.752L152.206 204.147Z" fill="url(#paint90_linear_932_21467)" stroke="#64B5C8" stroke-linejoin="round"/>
<path d="M62.2311 151.752L152.206 204.147L289.198 123.537L199.152 71.0947L62.2311 151.752Z" fill="url(#paint91_linear_932_21467)" stroke="#64B5C8" stroke-linejoin="round"/>
<path d="M152.16 202.968V205.941L290.213 124.741V121.769L152.16 202.968Z" fill="url(#paint92_linear_932_21467)" stroke="#64B5C8" stroke-linejoin="round"/>
<path d="M152.207 202.967V205.94L61.2404 152.908V149.982L152.207 202.967Z" fill="url(#paint93_linear_932_21467)" stroke="#64B5C8" stroke-linejoin="round"/>
<path d="M61.2404 149.983L152.207 202.968L290.213 121.769L199.152 68.7363L61.2404 149.983Z" fill="url(#paint94_linear_932_21467)" stroke="#64B5C8" stroke-linejoin="round"/>
<path d="M195.661 70.5764L241.498 49.5098L287.335 123.514L195.661 70.5764Z" fill="url(#paint95_linear_932_21467)" stroke="#64B5C8" stroke-linejoin="round"/>
<path d="M236.709 53.9219L196.793 71.3083L71.5968 145.171L106.393 130.922L236.709 53.9219Z" fill="url(#paint96_linear_932_21467)" stroke="#64B5C8" stroke-linejoin="round"/>
<path d="M107.198 128.46L152.328 202.31L290.063 121.427L241.417 49.9219L107.198 128.46Z" fill="url(#paint97_linear_932_21467)" stroke="#64B5C8" stroke-linejoin="round"/>
<path d="M107.902 87.0899C107.902 95.8657 110.922 102.07 115.852 105.066C115.994 105.16 124.251 110.256 124.392 110.35C129.511 113.205 126.232 106.717 134.017 102.235C149.658 93.1999 162.326 71.3313 162.326 53.4022C162.326 44.5321 170.536 44.4613 165.511 41.4889C165.369 41.4181 156.145 36.1573 156.004 36.063C150.908 33.3029 143.925 33.7983 136.235 38.2569C120.594 47.2922 107.926 69.1609 107.926 87.0899H107.902Z" fill="url(#paint98_linear_932_21467)" stroke="#64B5C8" stroke-linejoin="round"/>
<path d="M117.174 92.5857C117.174 110.538 129.842 117.757 145.483 108.722C161.124 99.6866 173.792 77.8179 173.792 59.8888C173.792 41.9598 161.124 34.7174 145.483 43.7527C129.842 52.788 117.174 74.6567 117.174 92.5857Z" fill="url(#paint99_linear_932_21467)" stroke="#64B5C8" stroke-linejoin="round"/>
<path d="M124.535 88.3167C124.535 101.575 133.9 106.93 145.46 100.254C157.019 93.5775 166.385 77.4178 166.385 64.1361C166.385 50.8545 157.019 45.523 145.46 52.1992C133.9 58.8754 124.535 75.0351 124.535 88.3167Z" fill="url(#paint100_linear_932_21467)" stroke="#64B5C8" stroke-linejoin="round"/>
<path d="M143.549 98.438C155.108 91.7618 164.474 75.6021 164.474 62.3205C164.474 57.5787 163.247 53.8514 161.195 51.3271C164.427 53.6862 166.408 58.0741 166.408 64.1606C166.408 77.4186 157.043 93.6019 145.46 100.278C138.029 104.572 131.518 103.864 127.814 99.3345C131.659 102.118 137.25 102.071 143.525 98.438H143.549Z" fill="url(#paint101_linear_932_21467)" stroke="#64B5C8" stroke-linejoin="round"/>
<path d="M135.599 38.6343C135.811 38.5164 136 38.3512 136.212 38.2333C136.401 38.1153 136.589 38.0446 136.778 37.9502L146.191 43.3761C145.955 43.5176 145.719 43.612 145.483 43.7299C145.318 43.8243 145.153 43.9423 144.988 44.0366L135.599 38.6107V38.6343Z" fill="url(#paint102_linear_932_21467)" stroke="#64B5C8" stroke-linejoin="round"/>
<path d="M145.861 34.6484L155.344 40.1215C154.778 40.2159 154.188 40.3338 153.575 40.4754L144.091 35.0023C144.681 34.8607 145.271 34.7428 145.861 34.6484Z" fill="url(#paint103_linear_932_21467)" stroke="#64B5C8" stroke-linejoin="round"/>
<path d="M130.054 42.5977L139.42 48C139.09 48.2595 138.783 48.5425 138.476 48.8256L129.111 43.4233C129.418 43.1402 129.724 42.8572 130.054 42.5977Z" fill="url(#paint104_linear_932_21467)" stroke="#64B5C8" stroke-linejoin="round"/>
<path d="M119.792 53.7803L129.134 59.1826C128.898 59.5128 128.686 59.8431 128.45 60.1498L119.108 54.7475C119.344 54.4172 119.556 54.087 119.792 53.7803Z" fill="url(#paint105_linear_932_21467)" stroke="#64B5C8" stroke-linejoin="round"/>
<path d="M124.511 47.9521L133.853 53.3544C133.593 53.6611 133.31 53.9678 133.051 54.2509L123.709 48.8486C123.968 48.5419 124.228 48.2352 124.511 47.9521Z" fill="url(#paint106_linear_932_21467)" stroke="#64B5C8" stroke-linejoin="round"/>
<path d="M115.806 60.0088L125.125 65.3875C124.936 65.7414 124.747 66.0716 124.558 66.4255L115.24 61.0468C115.429 60.6929 115.617 60.3627 115.806 60.0088Z" fill="url(#paint107_linear_932_21467)" stroke="#64B5C8" stroke-linejoin="round"/>
<path d="M109.531 96.9033L118.708 102.211C118.92 102.825 119.156 103.438 119.439 104.004L110.286 98.7198C110.003 98.1536 109.767 97.5403 109.531 96.9269V96.9033Z" fill="url(#paint108_linear_932_21467)" stroke="#64B5C8" stroke-linejoin="round"/>
<path d="M117.198 93.271C117.198 93.7428 117.245 94.2146 117.269 94.6864L107.998 89.3313C107.974 88.8831 107.95 88.4113 107.927 87.9395L117.174 93.2946L117.198 93.271Z" fill="url(#paint109_linear_932_21467)" stroke="#64B5C8" stroke-linejoin="round"/>
<path d="M108.328 81.4751C108.375 81.0504 108.422 80.6258 108.493 80.2012L117.787 85.5563C117.717 85.9809 117.669 86.4056 117.622 86.8302L108.351 81.4751H108.328Z" fill="url(#paint110_linear_932_21467)" stroke="#64B5C8" stroke-linejoin="round"/>
<path d="M119.438 78.4793C119.32 78.8803 119.226 79.2578 119.108 79.6588L109.813 74.2801C109.931 73.8791 110.026 73.5016 110.144 73.1006L119.438 78.4793Z" fill="url(#paint111_linear_932_21467)" stroke="#64B5C8" stroke-linejoin="round"/>
<path d="M112.149 67.5805C112.291 67.203 112.432 66.8491 112.597 66.4717L121.916 71.8504C121.751 72.2278 121.609 72.5817 121.468 72.9592L112.149 67.5805Z" fill="url(#paint112_linear_932_21467)" stroke="#64B5C8" stroke-linejoin="round"/>
<path d="M136.211 38.2334C143.902 33.7983 150.885 33.2793 155.98 36.0395C156.004 36.0395 156.499 36.3226 157.254 36.7472C152.277 34.624 145.789 35.3317 138.665 39.4365C123.024 48.4718 110.356 70.3405 110.356 88.2695C110.356 97.0453 113.375 103.25 118.306 106.246C118.424 106.317 116.017 105.113 115.852 105.019C110.945 102.023 107.902 95.795 107.902 87.0428C107.902 69.0902 120.57 47.2215 136.211 38.2098V38.2334Z" fill="url(#paint113_linear_932_21467)" stroke="#64B5C8" stroke-linejoin="round"/>
<path d="M144.232 42.9508C151.734 38.6336 158.411 38.1618 163.483 40.686C158.764 39.365 152.89 40.3558 146.544 44.0123C130.904 53.0476 118.235 74.9163 118.235 92.8454C118.235 102.187 121.68 108.628 127.176 111.364C120.264 109.43 115.9 102.423 115.9 91.7602C115.9 73.8076 128.568 51.9389 144.209 42.9272L144.232 42.9508Z" fill="url(#paint114_linear_932_21467)" stroke="#64B5C8" stroke-linejoin="round"/>
<path d="M174.76 33.3975C174.76 42.1733 177.779 48.3777 182.71 51.3738C182.851 51.4681 191.108 56.5637 191.25 56.6581C196.369 59.5126 193.09 53.0251 200.875 48.5429C216.515 39.5076 229.184 17.6389 229.184 -0.290146C229.184 -9.1603 237.393 -9.23107 232.368 -12.2035C232.227 -12.2743 223.003 -17.535 222.861 -17.6294C217.766 -20.3895 210.783 -19.8941 203.092 -15.4355C187.451 -6.40017 174.783 15.4685 174.783 33.3975H174.76Z" fill="url(#paint115_linear_932_21467)" stroke="#64B5C8" stroke-linejoin="round"/>
<path d="M184.03 38.8933C184.03 56.846 196.699 64.0647 212.339 55.0295C227.98 45.9942 240.648 24.1255 240.648 6.19646C240.648 -11.7326 227.98 -18.9749 212.339 -9.93966C196.699 -0.904379 184.03 20.9643 184.03 38.8933Z" fill="url(#paint116_linear_932_21467)" stroke="#64B5C8" stroke-linejoin="round"/>
<path d="M191.415 34.6468C191.415 47.9049 200.78 53.26 212.34 46.5838C223.899 39.9076 233.265 23.7479 233.265 10.4662C233.265 -2.81541 223.899 -8.14693 212.34 -1.47073C200.78 5.20547 191.415 21.3652 191.415 34.6468Z" fill="url(#paint117_linear_932_21467)" stroke="#64B5C8" stroke-linejoin="round"/>
<path d="M210.405 44.7437C221.965 38.0675 231.33 21.9078 231.33 8.62614C231.33 3.88438 230.103 0.157031 228.051 -2.36719C231.283 -0.00810528 233.265 4.37979 233.265 10.4662C233.265 23.7243 223.899 39.9076 212.316 46.5838C204.885 50.8773 198.374 50.1696 194.67 45.6401C198.515 48.4239 204.106 48.3767 210.382 44.7437H210.405Z" fill="url(#paint118_linear_932_21467)" stroke="#64B5C8" stroke-linejoin="round"/>
<path d="M186.672 0.0859375L196.014 5.48823C195.778 5.8185 195.566 6.14878 195.33 6.45546L185.988 1.05316C186.224 0.722889 186.437 0.392618 186.672 0.0859375Z" fill="url(#paint119_linear_932_21467)" stroke="#64B5C8" stroke-linejoin="round"/>
<path d="M191.367 -5.73926L200.709 -0.336962C200.45 -0.0302812 200.167 0.276402 199.907 0.559492L190.542 -4.84281C190.801 -5.14949 191.061 -5.45617 191.344 -5.73926H191.367Z" fill="url(#paint120_linear_932_21467)" stroke="#64B5C8" stroke-linejoin="round"/>
<path d="M182.686 6.33887L192.005 11.7176C191.816 12.0714 191.627 12.4017 191.439 12.7556L182.12 7.37686C182.309 7.023 182.498 6.69273 182.686 6.33887Z" fill="url(#paint121_linear_932_21467)" stroke="#64B5C8" stroke-linejoin="round"/>
<path d="M176.387 43.2344L185.564 48.5423C185.776 49.1557 186.012 49.769 186.295 50.3352L177.142 45.0509C176.859 44.4847 176.623 43.8713 176.387 43.258V43.2344Z" fill="url(#paint122_linear_932_21467)" stroke="#64B5C8" stroke-linejoin="round"/>
<path d="M184.054 39.602C184.054 40.0738 184.101 40.5457 184.124 41.0175L174.853 35.6624C174.83 35.2141 174.806 34.7423 174.782 34.2705L184.03 39.6256L184.054 39.602Z" fill="url(#paint123_linear_932_21467)" stroke="#64B5C8" stroke-linejoin="round"/>
<path d="M175.184 27.7827C175.231 27.3581 175.278 26.9334 175.349 26.5088L184.644 31.8639C184.573 32.2885 184.526 32.7132 184.478 33.1378L175.207 27.7827H175.184Z" fill="url(#paint124_linear_932_21467)" stroke="#64B5C8" stroke-linejoin="round"/>
<path d="M186.319 24.8103C186.201 25.2114 186.106 25.5888 185.988 25.9899L176.694 20.6112C176.812 20.2101 176.906 19.8327 177.024 19.4316L186.319 24.8103Z" fill="url(#paint125_linear_932_21467)" stroke="#64B5C8" stroke-linejoin="round"/>
<path d="M179.005 13.9105C179.147 13.5331 179.288 13.1792 179.454 12.8018L188.772 18.1805C188.607 18.5579 188.465 18.9118 188.324 19.2892L179.005 13.9105Z" fill="url(#paint126_linear_932_21467)" stroke="#64B5C8" stroke-linejoin="round"/>
<path d="M203.091 -15.4355C210.782 -19.8706 217.765 -20.3896 222.861 -17.6295C222.884 -17.6295 223.38 -17.3464 224.134 -16.9218C219.157 -19.0449 212.669 -18.3372 205.545 -14.2088C189.904 -5.17353 177.236 16.6952 177.236 34.6242C177.236 43.4 180.256 49.6044 185.186 52.6004C185.304 52.6712 182.898 51.468 182.733 51.3737C177.826 48.3776 174.782 42.1497 174.782 33.3975C174.782 15.4448 187.451 -6.42384 203.091 -15.4355Z" fill="url(#paint127_linear_932_21467)" stroke="#64B5C8" stroke-linejoin="round"/>
<path d="M211.113 -10.7406C218.615 -15.0578 225.291 -15.5296 230.363 -13.0054C225.645 -14.3264 219.771 -13.3356 213.425 -9.67906C197.784 -0.643773 185.116 21.2249 185.116 39.1539C185.116 48.4959 188.56 54.9362 194.057 57.6727C187.144 55.7383 182.78 48.7318 182.78 38.0688C182.78 20.1161 195.448 -1.75254 211.089 -10.7642L211.113 -10.7406Z" fill="url(#paint128_linear_932_21467)" stroke="#64B5C8" stroke-linejoin="round"/>
<path d="M124.912 -1.44718C124.912 7.32861 127.932 13.533 132.863 16.529C133.004 16.6234 141.261 21.719 141.402 21.8134C146.522 24.6679 143.243 18.1804 151.028 13.6981C166.668 4.66284 179.336 -17.2058 179.336 -35.1349C179.336 -44.005 187.546 -44.0758 182.521 -47.0482C182.38 -47.1426 173.156 -52.3798 173.014 -52.4741C167.919 -55.2343 160.936 -54.7388 153.245 -50.2802C137.604 -41.2449 124.936 -19.3762 124.936 -1.44718H124.912Z" fill="url(#paint129_linear_932_21467)" stroke="#64B5C8" stroke-linejoin="round"/>
<path d="M134.183 4.05057C134.183 22.0032 146.851 29.222 162.492 20.1867C178.133 11.1514 190.801 -10.7173 190.801 -28.6463C190.801 -46.5753 178.133 -53.8177 162.492 -44.7824C146.851 -35.7472 134.183 -13.8785 134.183 4.05057Z" fill="url(#paint130_linear_932_21467)" stroke="#64B5C8" stroke-linejoin="round"/>
<path d="M141.567 -0.195955C141.567 13.0621 150.932 18.4172 162.492 11.741C174.051 5.0648 183.417 -11.0949 183.417 -24.3765C183.417 -37.6582 174.051 -42.9897 162.492 -36.3135C150.932 -29.6373 141.567 -13.4776 141.567 -0.195955Z" fill="url(#paint131_linear_932_21467)" stroke="#64B5C8" stroke-linejoin="round"/>
<path d="M160.558 9.90091C172.117 3.22471 181.483 -12.935 181.483 -26.2166C181.483 -30.9584 180.256 -34.6857 178.204 -37.21C181.436 -34.8509 183.417 -30.463 183.417 -24.3766C183.417 -11.1185 174.052 5.06479 162.469 11.741C155.038 16.0345 148.527 15.3268 144.823 10.7974C148.668 13.5811 154.259 13.5339 160.534 9.90091H160.558Z" fill="url(#paint132_linear_932_21467)" stroke="#64B5C8" stroke-linejoin="round"/>
<path d="M126.54 8.36719L135.717 13.6751C135.929 14.2885 136.165 14.9018 136.448 15.468L127.295 10.1837C127.012 9.6175 126.776 9.00414 126.54 8.39078V8.36719Z" fill="url(#paint133_linear_932_21467)" stroke="#64B5C8" stroke-linejoin="round"/>
<path d="M134.206 4.75828C134.206 5.2301 134.254 5.70192 134.277 6.17373L125.006 0.818617C124.982 0.370391 124.959 -0.101426 124.935 -0.573242L134.183 4.78188L134.206 4.75828Z" fill="url(#paint134_linear_932_21467)" stroke="#64B5C8" stroke-linejoin="round"/>
<path d="M153.244 -50.3027C160.935 -54.7378 167.918 -55.2568 173.013 -52.4967C173.037 -52.4967 173.532 -52.2136 174.287 -51.7889C169.31 -53.9121 162.822 -53.2044 155.698 -49.0996C140.057 -40.0643 127.389 -18.1956 127.389 -0.266582C127.389 8.5092 130.408 14.7136 135.339 17.7096C135.457 17.7804 133.051 16.5773 132.885 16.4829C127.979 13.4869 124.935 7.25889 124.935 -1.49331C124.935 -19.4459 137.604 -41.3146 153.244 -50.3263V-50.3027Z" fill="url(#paint135_linear_932_21467)" stroke="#64B5C8" stroke-linejoin="round"/>
<path d="M161.266 -45.5854C168.768 -49.9025 175.444 -50.3743 180.516 -47.8501C175.798 -49.1712 169.924 -48.1804 163.578 -44.5238C147.937 -35.4885 135.269 -13.6198 135.269 4.30921C135.269 13.6512 138.713 20.0915 144.21 22.828C137.297 20.8936 132.933 13.8871 132.933 3.22404C132.933 -14.7286 145.601 -36.5973 161.242 -45.609L161.266 -45.5854Z" fill="url(#paint136_linear_932_21467)" stroke="#64B5C8" stroke-linejoin="round"/>
<path d="M60.9095 150.007L106.747 128.94L152.607 202.945L60.9095 150.007Z" fill="url(#paint137_linear_932_21467)" stroke="#64B5C8" stroke-linejoin="round"/>
<path d="M72.1154 150.526L104.765 135.499L137.462 188.248L72.1154 150.526Z" fill="url(#paint138_linear_932_21467)" stroke="#64B5C8" stroke-linejoin="round"/>
<path d="M74.3093 150.031L105.025 135.9L104.765 135.499L72.1154 150.526L137.462 188.248L135.74 185.488L74.3093 150.031Z" fill="url(#paint139_linear_932_21467)" stroke="#64B5C8" stroke-linejoin="round"/>
</g>
<defs>
<linearGradient id="paint0_linear_932_21467" x1="180.704" y1="137.948" x2="180.704" y2="310.759" gradientUnits="userSpaceOnUse">
<stop stop-color="#A8C9D1"/>
<stop offset="1" stop-color="white"/>
</linearGradient>
<linearGradient id="paint1_linear_932_21467" x1="180.174" y1="139.657" x2="180.174" y2="309.969" gradientUnits="userSpaceOnUse">
<stop stop-color="#A8C9D1"/>
<stop offset="1" stop-color="white"/>
</linearGradient>
<linearGradient id="paint2_linear_932_21467" x1="179.618" y1="141.356" x2="179.618" y2="309.178" gradientUnits="userSpaceOnUse">
<stop stop-color="#A8C9D1"/>
<stop offset="1" stop-color="white"/>
</linearGradient>
<linearGradient id="paint3_linear_932_21467" x1="179.126" y1="143.065" x2="179.126" y2="308.395" gradientUnits="userSpaceOnUse">
<stop stop-color="#A8C9D1"/>
<stop offset="1" stop-color="white"/>
</linearGradient>
<linearGradient id="paint4_linear_932_21467" x1="178.601" y1="144.742" x2="178.601" y2="307.623" gradientUnits="userSpaceOnUse">
<stop stop-color="#A8C9D1"/>
<stop offset="1" stop-color="white"/>
</linearGradient>
<linearGradient id="paint5_linear_932_21467" x1="178.064" y1="146.433" x2="178.064" y2="306.835" gradientUnits="userSpaceOnUse">
<stop stop-color="#A8C9D1"/>
<stop offset="1" stop-color="white"/>
</linearGradient>
<linearGradient id="paint6_linear_932_21467" x1="177.576" y1="148.095" x2="177.576" y2="306.123" gradientUnits="userSpaceOnUse">
<stop stop-color="#A8C9D1"/>
<stop offset="1" stop-color="white"/>
</linearGradient>
<linearGradient id="paint7_linear_932_21467" x1="177.019" y1="149.769" x2="177.019" y2="305.352" gradientUnits="userSpaceOnUse">
<stop stop-color="#A8C9D1"/>
<stop offset="1" stop-color="white"/>
</linearGradient>
<linearGradient id="paint8_linear_932_21467" x1="176.519" y1="151.411" x2="176.519" y2="304.654" gradientUnits="userSpaceOnUse">
<stop stop-color="#A8C9D1"/>
<stop offset="1" stop-color="white"/>
</linearGradient>
<linearGradient id="paint9_linear_932_21467" x1="175.963" y1="153.047" x2="175.963" y2="303.868" gradientUnits="userSpaceOnUse">
<stop stop-color="#A8C9D1"/>
<stop offset="1" stop-color="white"/>
</linearGradient>
<linearGradient id="paint10_linear_932_21467" x1="175.456" y1="154.701" x2="175.456" y2="303.158" gradientUnits="userSpaceOnUse">
<stop stop-color="#A8C9D1"/>
<stop offset="1" stop-color="white"/>
</linearGradient>
<linearGradient id="paint11_linear_932_21467" x1="239.067" y1="203.604" x2="239.067" y2="316.015" gradientUnits="userSpaceOnUse">
<stop stop-color="#A8C9D1"/>
<stop offset="1" stop-color="white"/>
</linearGradient>
<linearGradient id="paint12_linear_932_21467" x1="92.3211" y1="235.995" x2="92.3211" y2="316.015" gradientUnits="userSpaceOnUse">
<stop stop-color="#A8C9D1"/>
<stop offset="1" stop-color="white"/>
</linearGradient>
<linearGradient id="paint13_linear_932_21467" x1="179.218" y1="133.775" x2="179.218" y2="305.729" gradientUnits="userSpaceOnUse">
<stop stop-color="#A8C9D1"/>
<stop offset="1" stop-color="white"/>
</linearGradient>
<linearGradient id="paint14_linear_932_21467" x1="227.851" y1="193.272" x2="227.851" y2="292.755" gradientUnits="userSpaceOnUse">
<stop stop-color="#A8C9D1"/>
<stop offset="1" stop-color="white"/>
</linearGradient>
<linearGradient id="paint15_linear_932_21467" x1="103.55" y1="225.568" x2="103.55" y2="292.755" gradientUnits="userSpaceOnUse">
<stop stop-color="#A8C9D1"/>
<stop offset="1" stop-color="white"/>
</linearGradient>
<linearGradient id="paint16_linear_932_21467" x1="179.218" y1="136.56" x2="179.218" y2="282.233" gradientUnits="userSpaceOnUse">
<stop stop-color="#A8C9D1"/>
<stop offset="1" stop-color="white"/>
</linearGradient>
<linearGradient id="paint17_linear_932_21467" x1="228.028" y1="222.454" x2="228.028" y2="231.678" gradientUnits="userSpaceOnUse">
<stop stop-color="#A8C9D1"/>
<stop offset="1" stop-color="white"/>
</linearGradient>
<linearGradient id="paint18_linear_932_21467" x1="228.028" y1="216.062" x2="228.028" y2="228.942" gradientUnits="userSpaceOnUse">
<stop stop-color="#A8C9D1"/>
<stop offset="1" stop-color="white"/>
</linearGradient>
<linearGradient id="paint19_linear_932_21467" x1="228.028" y1="219.223" x2="228.028" y2="227.173" gradientUnits="userSpaceOnUse">
<stop stop-color="#A8C9D1"/>
<stop offset="1" stop-color="white"/>
</linearGradient>
<linearGradient id="paint20_linear_932_21467" x1="228.028" y1="214.221" x2="228.028" y2="224.27" gradientUnits="userSpaceOnUse">
<stop stop-color="#A8C9D1"/>
<stop offset="1" stop-color="white"/>
</linearGradient>
<linearGradient id="paint21_linear_932_21467" x1="228.028" y1="163.901" x2="228.028" y2="222.973" gradientUnits="userSpaceOnUse">
<stop stop-color="#A8C9D1"/>
<stop offset="1" stop-color="white"/>
</linearGradient>
<linearGradient id="paint22_linear_932_21467" x1="228.004" y1="160.128" x2="228.004" y2="167.724" gradientUnits="userSpaceOnUse">
<stop stop-color="#A8C9D1"/>
<stop offset="1" stop-color="white"/>
</linearGradient>
<linearGradient id="paint23_linear_932_21467" x1="228.028" y1="163.005" x2="228.028" y2="170.955" gradientUnits="userSpaceOnUse">
<stop stop-color="#A8C9D1"/>
<stop offset="1" stop-color="white"/>
</linearGradient>
<linearGradient id="paint24_linear_932_21467" x1="228.028" y1="158.003" x2="228.028" y2="168.053" gradientUnits="userSpaceOnUse">
<stop stop-color="#A8C9D1"/>
<stop offset="1" stop-color="white"/>
</linearGradient>
<linearGradient id="paint25_linear_932_21467" x1="202.737" y1="237.104" x2="202.737" y2="246.352" gradientUnits="userSpaceOnUse">
<stop stop-color="#A8C9D1"/>
<stop offset="1" stop-color="white"/>
</linearGradient>
<linearGradient id="paint26_linear_932_21467" x1="202.737" y1="230.711" x2="202.737" y2="243.592" gradientUnits="userSpaceOnUse">
<stop stop-color="#A8C9D1"/>
<stop offset="1" stop-color="white"/>
</linearGradient>
<linearGradient id="paint27_linear_932_21467" x1="202.738" y1="233.872" x2="202.738" y2="241.822" gradientUnits="userSpaceOnUse">
<stop stop-color="#A8C9D1"/>
<stop offset="1" stop-color="white"/>
</linearGradient>
<linearGradient id="paint28_linear_932_21467" x1="202.738" y1="228.871" x2="202.738" y2="238.921" gradientUnits="userSpaceOnUse">
<stop stop-color="#A8C9D1"/>
<stop offset="1" stop-color="white"/>
</linearGradient>
<linearGradient id="paint29_linear_932_21467" x1="202.738" y1="178.552" x2="202.738" y2="237.623" gradientUnits="userSpaceOnUse">
<stop stop-color="#A8C9D1"/>
<stop offset="1" stop-color="white"/>
</linearGradient>
<linearGradient id="paint30_linear_932_21467" x1="202.714" y1="174.777" x2="202.714" y2="182.374" gradientUnits="userSpaceOnUse">
<stop stop-color="#A8C9D1"/>
<stop offset="1" stop-color="white"/>
</linearGradient>
<linearGradient id="paint31_linear_932_21467" x1="202.738" y1="177.655" x2="202.738" y2="185.605" gradientUnits="userSpaceOnUse">
<stop stop-color="#A8C9D1"/>
<stop offset="1" stop-color="white"/>
</linearGradient>
<linearGradient id="paint32_linear_932_21467" x1="202.738" y1="172.654" x2="202.738" y2="182.704" gradientUnits="userSpaceOnUse">
<stop stop-color="#A8C9D1"/>
<stop offset="1" stop-color="white"/>
</linearGradient>
<linearGradient id="paint33_linear_932_21467" x1="177.424" y1="251.754" x2="177.424" y2="260.978" gradientUnits="userSpaceOnUse">
<stop stop-color="#A8C9D1"/>
<stop offset="1" stop-color="white"/>
</linearGradient>
<linearGradient id="paint34_linear_932_21467" x1="177.424" y1="245.361" x2="177.424" y2="258.242" gradientUnits="userSpaceOnUse">
<stop stop-color="#A8C9D1"/>
<stop offset="1" stop-color="white"/>
</linearGradient>
<linearGradient id="paint35_linear_932_21467" x1="177.424" y1="248.521" x2="177.424" y2="256.472" gradientUnits="userSpaceOnUse">
<stop stop-color="#A8C9D1"/>
<stop offset="1" stop-color="white"/>
</linearGradient>
<linearGradient id="paint36_linear_932_21467" x1="177.424" y1="243.521" x2="177.424" y2="253.57" gradientUnits="userSpaceOnUse">
<stop stop-color="#A8C9D1"/>
<stop offset="1" stop-color="white"/>
</linearGradient>
<linearGradient id="paint37_linear_932_21467" x1="177.448" y1="193.202" x2="177.448" y2="252.274" gradientUnits="userSpaceOnUse">
<stop stop-color="#A8C9D1"/>
<stop offset="1" stop-color="white"/>
</linearGradient>
<linearGradient id="paint38_linear_932_21467" x1="177.425" y1="189.428" x2="177.425" y2="197.024" gradientUnits="userSpaceOnUse">
<stop stop-color="#A8C9D1"/>
<stop offset="1" stop-color="white"/>
</linearGradient>
<linearGradient id="paint39_linear_932_21467" x1="177.424" y1="192.305" x2="177.424" y2="200.255" gradientUnits="userSpaceOnUse">
<stop stop-color="#A8C9D1"/>
<stop offset="1" stop-color="white"/>
</linearGradient>
<linearGradient id="paint40_linear_932_21467" x1="177.424" y1="187.305" x2="177.424" y2="197.354" gradientUnits="userSpaceOnUse">
<stop stop-color="#A8C9D1"/>
<stop offset="1" stop-color="white"/>
</linearGradient>
<linearGradient id="paint41_linear_932_21467" x1="278.606" y1="193.154" x2="278.606" y2="202.378" gradientUnits="userSpaceOnUse">
<stop stop-color="#A8C9D1"/>
<stop offset="1" stop-color="white"/>
</linearGradient>
<linearGradient id="paint42_linear_932_21467" x1="278.606" y1="186.785" x2="278.606" y2="199.666" gradientUnits="userSpaceOnUse">
<stop stop-color="#A8C9D1"/>
<stop offset="1" stop-color="white"/>
</linearGradient>
<linearGradient id="paint43_linear_932_21467" x1="278.606" y1="189.923" x2="278.606" y2="197.873" gradientUnits="userSpaceOnUse">
<stop stop-color="#A8C9D1"/>
<stop offset="1" stop-color="white"/>
</linearGradient>
<linearGradient id="paint44_linear_932_21467" x1="278.606" y1="184.945" x2="278.606" y2="194.995" gradientUnits="userSpaceOnUse">
<stop stop-color="#A8C9D1"/>
<stop offset="1" stop-color="white"/>
</linearGradient>
<linearGradient id="paint45_linear_932_21467" x1="278.629" y1="134.626" x2="278.629" y2="193.697" gradientUnits="userSpaceOnUse">
<stop stop-color="#A8C9D1"/>
<stop offset="1" stop-color="white"/>
</linearGradient>
<linearGradient id="paint46_linear_932_21467" x1="278.607" y1="130.852" x2="278.607" y2="138.448" gradientUnits="userSpaceOnUse">
<stop stop-color="#A8C9D1"/>
<stop offset="1" stop-color="white"/>
</linearGradient>
<linearGradient id="paint47_linear_932_21467" x1="278.606" y1="133.705" x2="278.606" y2="141.655" gradientUnits="userSpaceOnUse">
<stop stop-color="#A8C9D1"/>
<stop offset="1" stop-color="white"/>
</linearGradient>
<linearGradient id="paint48_linear_932_21467" x1="278.606" y1="128.729" x2="278.606" y2="138.778" gradientUnits="userSpaceOnUse">
<stop stop-color="#A8C9D1"/>
<stop offset="1" stop-color="white"/>
</linearGradient>
<linearGradient id="paint49_linear_932_21467" x1="253.317" y1="207.805" x2="253.317" y2="217.029" gradientUnits="userSpaceOnUse">
<stop stop-color="#A8C9D1"/>
<stop offset="1" stop-color="white"/>
</linearGradient>
<linearGradient id="paint50_linear_932_21467" x1="253.317" y1="201.435" x2="253.317" y2="214.315" gradientUnits="userSpaceOnUse">
<stop stop-color="#A8C9D1"/>
<stop offset="1" stop-color="white"/>
</linearGradient>
<linearGradient id="paint51_linear_932_21467" x1="253.317" y1="204.572" x2="253.317" y2="212.522" gradientUnits="userSpaceOnUse">
<stop stop-color="#A8C9D1"/>
<stop offset="1" stop-color="white"/>
</linearGradient>
<linearGradient id="paint52_linear_932_21467" x1="253.317" y1="199.595" x2="253.317" y2="209.644" gradientUnits="userSpaceOnUse">
<stop stop-color="#A8C9D1"/>
<stop offset="1" stop-color="white"/>
</linearGradient>
<linearGradient id="paint53_linear_932_21467" x1="253.316" y1="149.275" x2="253.316" y2="208.347" gradientUnits="userSpaceOnUse">
<stop stop-color="#A8C9D1"/>
<stop offset="1" stop-color="white"/>
</linearGradient>
<linearGradient id="paint54_linear_932_21467" x1="253.293" y1="145.501" x2="253.293" y2="153.097" gradientUnits="userSpaceOnUse">
<stop stop-color="#A8C9D1"/>
<stop offset="1" stop-color="white"/>
</linearGradient>
<linearGradient id="paint55_linear_932_21467" x1="253.317" y1="148.355" x2="253.317" y2="156.306" gradientUnits="userSpaceOnUse">
<stop stop-color="#A8C9D1"/>
<stop offset="1" stop-color="white"/>
</linearGradient>
<linearGradient id="paint56_linear_932_21467" x1="253.317" y1="143.378" x2="253.317" y2="153.428" gradientUnits="userSpaceOnUse">
<stop stop-color="#A8C9D1"/>
<stop offset="1" stop-color="white"/>
</linearGradient>
<linearGradient id="paint57_linear_932_21467" x1="152.136" y1="260.011" x2="152.136" y2="272.891" gradientUnits="userSpaceOnUse">
<stop stop-color="#A8C9D1"/>
<stop offset="1" stop-color="white"/>
</linearGradient>
<linearGradient id="paint58_linear_932_21467" x1="152.136" y1="258.172" x2="152.136" y2="268.222" gradientUnits="userSpaceOnUse">
<stop stop-color="#A8C9D1"/>
<stop offset="1" stop-color="white"/>
</linearGradient>
<linearGradient id="paint59_linear_932_21467" x1="152.159" y1="207.853" x2="152.159" y2="266.924" gradientUnits="userSpaceOnUse">
<stop stop-color="#A8C9D1"/>
<stop offset="1" stop-color="white"/>
</linearGradient>
<linearGradient id="paint60_linear_932_21467" x1="152.135" y1="204.077" x2="152.135" y2="211.673" gradientUnits="userSpaceOnUse">
<stop stop-color="#A8C9D1"/>
<stop offset="1" stop-color="white"/>
</linearGradient>
<linearGradient id="paint61_linear_932_21467" x1="152.136" y1="206.955" x2="152.136" y2="214.905" gradientUnits="userSpaceOnUse">
<stop stop-color="#A8C9D1"/>
<stop offset="1" stop-color="white"/>
</linearGradient>
<linearGradient id="paint62_linear_932_21467" x1="152.136" y1="201.954" x2="152.136" y2="212.004" gradientUnits="userSpaceOnUse">
<stop stop-color="#A8C9D1"/>
<stop offset="1" stop-color="white"/>
</linearGradient>
<linearGradient id="paint63_linear_932_21467" x1="76.456" y1="222.454" x2="76.456" y2="231.678" gradientUnits="userSpaceOnUse">
<stop stop-color="#A8C9D1"/>
<stop offset="1" stop-color="white"/>
</linearGradient>
<linearGradient id="paint64_linear_932_21467" x1="76.456" y1="216.062" x2="76.456" y2="228.942" gradientUnits="userSpaceOnUse">
<stop stop-color="#A8C9D1"/>
<stop offset="1" stop-color="white"/>
</linearGradient>
<linearGradient id="paint65_linear_932_21467" x1="76.456" y1="219.223" x2="76.456" y2="227.173" gradientUnits="userSpaceOnUse">
<stop stop-color="#A8C9D1"/>
<stop offset="1" stop-color="white"/>
</linearGradient>
<linearGradient id="paint66_linear_932_21467" x1="76.456" y1="214.221" x2="76.456" y2="224.27" gradientUnits="userSpaceOnUse">
<stop stop-color="#A8C9D1"/>
<stop offset="1" stop-color="white"/>
</linearGradient>
<linearGradient id="paint67_linear_932_21467" x1="76.4799" y1="163.901" x2="76.4799" y2="222.973" gradientUnits="userSpaceOnUse">
<stop stop-color="#A8C9D1"/>
<stop offset="1" stop-color="white"/>
</linearGradient>
<linearGradient id="paint68_linear_932_21467" x1="76.4569" y1="160.128" x2="76.4569" y2="167.724" gradientUnits="userSpaceOnUse">
<stop stop-color="#A8C9D1"/>
<stop offset="1" stop-color="white"/>
</linearGradient>
<linearGradient id="paint69_linear_932_21467" x1="76.456" y1="163.005" x2="76.456" y2="170.955" gradientUnits="userSpaceOnUse">
<stop stop-color="#A8C9D1"/>
<stop offset="1" stop-color="white"/>
</linearGradient>
<linearGradient id="paint70_linear_932_21467" x1="76.456" y1="158.003" x2="76.456" y2="168.053" gradientUnits="userSpaceOnUse">
<stop stop-color="#A8C9D1"/>
<stop offset="1" stop-color="white"/>
</linearGradient>
<linearGradient id="paint71_linear_932_21467" x1="101.769" y1="237.104" x2="101.769" y2="246.352" gradientUnits="userSpaceOnUse">
<stop stop-color="#A8C9D1"/>
<stop offset="1" stop-color="white"/>
</linearGradient>
<linearGradient id="paint72_linear_932_21467" x1="101.769" y1="230.711" x2="101.769" y2="243.592" gradientUnits="userSpaceOnUse">
<stop stop-color="#A8C9D1"/>
<stop offset="1" stop-color="white"/>
</linearGradient>
<linearGradient id="paint73_linear_932_21467" x1="101.769" y1="233.872" x2="101.769" y2="241.822" gradientUnits="userSpaceOnUse">
<stop stop-color="#A8C9D1"/>
<stop offset="1" stop-color="white"/>
</linearGradient>
<linearGradient id="paint74_linear_932_21467" x1="101.769" y1="228.871" x2="101.769" y2="238.921" gradientUnits="userSpaceOnUse">
<stop stop-color="#A8C9D1"/>
<stop offset="1" stop-color="white"/>
</linearGradient>
<linearGradient id="paint75_linear_932_21467" x1="101.77" y1="178.552" x2="101.77" y2="237.623" gradientUnits="userSpaceOnUse">
<stop stop-color="#A8C9D1"/>
<stop offset="1" stop-color="white"/>
</linearGradient>
<linearGradient id="paint76_linear_932_21467" x1="101.745" y1="174.777" x2="101.745" y2="182.374" gradientUnits="userSpaceOnUse">
<stop stop-color="#A8C9D1"/>
<stop offset="1" stop-color="white"/>
</linearGradient>
<linearGradient id="paint77_linear_932_21467" x1="101.769" y1="177.655" x2="101.769" y2="185.605" gradientUnits="userSpaceOnUse">
<stop stop-color="#A8C9D1"/>
<stop offset="1" stop-color="white"/>
</linearGradient>
<linearGradient id="paint78_linear_932_21467" x1="101.769" y1="172.654" x2="101.769" y2="182.704" gradientUnits="userSpaceOnUse">
<stop stop-color="#A8C9D1"/>
<stop offset="1" stop-color="white"/>
</linearGradient>
<linearGradient id="paint79_linear_932_21467" x1="127.059" y1="251.754" x2="127.059" y2="260.978" gradientUnits="userSpaceOnUse">
<stop stop-color="#A8C9D1"/>
<stop offset="1" stop-color="white"/>
</linearGradient>
<linearGradient id="paint80_linear_932_21467" x1="127.059" y1="245.361" x2="127.059" y2="258.242" gradientUnits="userSpaceOnUse">
<stop stop-color="#A8C9D1"/>
<stop offset="1" stop-color="white"/>
</linearGradient>
<linearGradient id="paint81_linear_932_21467" x1="127.059" y1="248.521" x2="127.059" y2="256.472" gradientUnits="userSpaceOnUse">
<stop stop-color="#A8C9D1"/>
<stop offset="1" stop-color="white"/>
</linearGradient>
<linearGradient id="paint82_linear_932_21467" x1="127.059" y1="243.521" x2="127.059" y2="253.57" gradientUnits="userSpaceOnUse">
<stop stop-color="#A8C9D1"/>
<stop offset="1" stop-color="white"/>
</linearGradient>
<linearGradient id="paint83_linear_932_21467" x1="127.058" y1="193.202" x2="127.058" y2="252.274" gradientUnits="userSpaceOnUse">
<stop stop-color="#A8C9D1"/>
<stop offset="1" stop-color="white"/>
</linearGradient>
<linearGradient id="paint84_linear_932_21467" x1="127.036" y1="189.428" x2="127.036" y2="197.024" gradientUnits="userSpaceOnUse">
<stop stop-color="#A8C9D1"/>
<stop offset="1" stop-color="white"/>
</linearGradient>
<linearGradient id="paint85_linear_932_21467" x1="127.059" y1="192.305" x2="127.059" y2="200.255" gradientUnits="userSpaceOnUse">
<stop stop-color="#A8C9D1"/>
<stop offset="1" stop-color="white"/>
</linearGradient>
<linearGradient id="paint86_linear_932_21467" x1="127.059" y1="187.305" x2="127.059" y2="197.354" gradientUnits="userSpaceOnUse">
<stop stop-color="#A8C9D1"/>
<stop offset="1" stop-color="white"/>
</linearGradient>
<linearGradient id="paint87_linear_932_21467" x1="220.679" y1="123.537" x2="220.679" y2="213.866" gradientUnits="userSpaceOnUse">
<stop stop-color="#A8C9D1"/>
<stop offset="1" stop-color="white"/>
</linearGradient>
<linearGradient id="paint88_linear_932_21467" x1="107.219" y1="151.752" x2="107.219" y2="213.867" gradientUnits="userSpaceOnUse">
<stop stop-color="#A8C9D1"/>
<stop offset="1" stop-color="white"/>
</linearGradient>
<linearGradient id="paint89_linear_932_21467" x1="220.679" y1="123.537" x2="220.679" y2="207.874" gradientUnits="userSpaceOnUse">
<stop stop-color="#A8C9D1"/>
<stop offset="1" stop-color="white"/>
</linearGradient>
<linearGradient id="paint90_linear_932_21467" x1="107.219" y1="151.752" x2="107.219" y2="207.875" gradientUnits="userSpaceOnUse">
<stop stop-color="#A8C9D1"/>
<stop offset="1" stop-color="white"/>
</linearGradient>
<linearGradient id="paint91_linear_932_21467" x1="175.715" y1="71.0947" x2="175.715" y2="204.147" gradientUnits="userSpaceOnUse">
<stop stop-color="#A8C9D1"/>
<stop offset="1" stop-color="white"/>
</linearGradient>
<linearGradient id="paint92_linear_932_21467" x1="221.186" y1="121.769" x2="221.186" y2="205.941" gradientUnits="userSpaceOnUse">
<stop stop-color="#A8C9D1"/>
<stop offset="1" stop-color="white"/>
</linearGradient>
<linearGradient id="paint93_linear_932_21467" x1="106.723" y1="149.982" x2="106.723" y2="205.94" gradientUnits="userSpaceOnUse">
<stop stop-color="#A8C9D1"/>
<stop offset="1" stop-color="white"/>
</linearGradient>
<linearGradient id="paint94_linear_932_21467" x1="175.727" y1="68.7363" x2="175.727" y2="202.968" gradientUnits="userSpaceOnUse">
<stop stop-color="#A8C9D1"/>
<stop offset="1" stop-color="white"/>
</linearGradient>
<linearGradient id="paint95_linear_932_21467" x1="241.498" y1="49.5098" x2="241.498" y2="123.514" gradientUnits="userSpaceOnUse">
<stop stop-color="#A8C9D1"/>
<stop offset="1" stop-color="white"/>
</linearGradient>
<linearGradient id="paint96_linear_932_21467" x1="154.153" y1="53.9219" x2="154.153" y2="145.171" gradientUnits="userSpaceOnUse">
<stop stop-color="#A8C9D1"/>
<stop offset="1" stop-color="white"/>
</linearGradient>
<linearGradient id="paint97_linear_932_21467" x1="198.631" y1="49.9219" x2="198.631" y2="202.31" gradientUnits="userSpaceOnUse">
<stop stop-color="#A8C9D1"/>
<stop offset="1" stop-color="white"/>
</linearGradient>
<linearGradient id="paint98_linear_932_21467" x1="137.521" y1="34.3584" x2="137.521" y2="111.052" gradientUnits="userSpaceOnUse">
<stop stop-color="#A8C9D1"/>
<stop offset="1" stop-color="white"/>
</linearGradient>
<linearGradient id="paint99_linear_932_21467" x1="145.483" y1="39.8623" x2="145.483" y2="112.617" gradientUnits="userSpaceOnUse">
<stop stop-color="#A8C9D1"/>
<stop offset="1" stop-color="white"/>
</linearGradient>
<linearGradient id="paint100_linear_932_21467" x1="145.46" y1="49.3213" x2="145.46" y2="103.127" gradientUnits="userSpaceOnUse">
<stop stop-color="#A8C9D1"/>
<stop offset="1" stop-color="white"/>
</linearGradient>
<linearGradient id="paint101_linear_932_21467" x1="147.111" y1="51.3271" x2="147.111" y2="103.144" gradientUnits="userSpaceOnUse">
<stop stop-color="#A8C9D1"/>
<stop offset="1" stop-color="white"/>
</linearGradient>
<linearGradient id="paint102_linear_932_21467" x1="140.895" y1="37.9502" x2="140.895" y2="44.0366" gradientUnits="userSpaceOnUse">
<stop stop-color="#A8C9D1"/>
<stop offset="1" stop-color="white"/>
</linearGradient>
<linearGradient id="paint103_linear_932_21467" x1="149.718" y1="34.6484" x2="149.718" y2="40.4754" gradientUnits="userSpaceOnUse">
<stop stop-color="#A8C9D1"/>
<stop offset="1" stop-color="white"/>
</linearGradient>
<linearGradient id="paint104_linear_932_21467" x1="134.265" y1="42.5977" x2="134.265" y2="48.8256" gradientUnits="userSpaceOnUse">
<stop stop-color="#A8C9D1"/>
<stop offset="1" stop-color="white"/>
</linearGradient>
<linearGradient id="paint105_linear_932_21467" x1="124.121" y1="53.7803" x2="124.121" y2="60.1498" gradientUnits="userSpaceOnUse">
<stop stop-color="#A8C9D1"/>
<stop offset="1" stop-color="white"/>
</linearGradient>
<linearGradient id="paint106_linear_932_21467" x1="128.781" y1="47.9521" x2="128.781" y2="54.2509" gradientUnits="userSpaceOnUse">
<stop stop-color="#A8C9D1"/>
<stop offset="1" stop-color="white"/>
</linearGradient>
<linearGradient id="paint107_linear_932_21467" x1="120.182" y1="60.0088" x2="120.182" y2="66.4255" gradientUnits="userSpaceOnUse">
<stop stop-color="#A8C9D1"/>
<stop offset="1" stop-color="white"/>
</linearGradient>
<linearGradient id="paint108_linear_932_21467" x1="114.485" y1="96.9033" x2="114.485" y2="104.004" gradientUnits="userSpaceOnUse">
<stop stop-color="#A8C9D1"/>
<stop offset="1" stop-color="white"/>
</linearGradient>
<linearGradient id="paint109_linear_932_21467" x1="112.598" y1="87.9395" x2="112.598" y2="94.6864" gradientUnits="userSpaceOnUse">
<stop stop-color="#A8C9D1"/>
<stop offset="1" stop-color="white"/>
</linearGradient>
<linearGradient id="paint110_linear_932_21467" x1="113.057" y1="80.2012" x2="113.057" y2="86.8302" gradientUnits="userSpaceOnUse">
<stop stop-color="#A8C9D1"/>
<stop offset="1" stop-color="white"/>
</linearGradient>
<linearGradient id="paint111_linear_932_21467" x1="114.626" y1="73.1006" x2="114.626" y2="79.6588" gradientUnits="userSpaceOnUse">
<stop stop-color="#A8C9D1"/>
<stop offset="1" stop-color="white"/>
</linearGradient>
<linearGradient id="paint112_linear_932_21467" x1="117.032" y1="66.4717" x2="117.032" y2="72.9592" gradientUnits="userSpaceOnUse">
<stop stop-color="#A8C9D1"/>
<stop offset="1" stop-color="white"/>
</linearGradient>
<linearGradient id="paint113_linear_932_21467" x1="132.578" y1="34.3418" x2="132.578" y2="106.249" gradientUnits="userSpaceOnUse">
<stop stop-color="#A8C9D1"/>
<stop offset="1" stop-color="white"/>
</linearGradient>
<linearGradient id="paint114_linear_932_21467" x1="139.691" y1="39.1494" x2="139.691" y2="111.364" gradientUnits="userSpaceOnUse">
<stop stop-color="#A8C9D1"/>
<stop offset="1" stop-color="white"/>
</linearGradient>
<linearGradient id="paint115_linear_932_21467" x1="204.378" y1="-19.334" x2="204.378" y2="57.3597" gradientUnits="userSpaceOnUse">
<stop stop-color="#A8C9D1"/>
<stop offset="1" stop-color="white"/>
</linearGradient>
<linearGradient id="paint116_linear_932_21467" x1="212.339" y1="-13.8301" x2="212.339" y2="58.9242" gradientUnits="userSpaceOnUse">
<stop stop-color="#A8C9D1"/>
<stop offset="1" stop-color="white"/>
</linearGradient>
<linearGradient id="paint117_linear_932_21467" x1="212.34" y1="-4.34863" x2="212.34" y2="49.4574" gradientUnits="userSpaceOnUse">
<stop stop-color="#A8C9D1"/>
<stop offset="1" stop-color="white"/>
</linearGradient>
<linearGradient id="paint118_linear_932_21467" x1="213.967" y1="-2.36719" x2="213.967" y2="49.4494" gradientUnits="userSpaceOnUse">
<stop stop-color="#A8C9D1"/>
<stop offset="1" stop-color="white"/>
</linearGradient>
<linearGradient id="paint119_linear_932_21467" x1="191.001" y1="0.0859375" x2="191.001" y2="6.45546" gradientUnits="userSpaceOnUse">
<stop stop-color="#A8C9D1"/>
<stop offset="1" stop-color="white"/>
</linearGradient>
<linearGradient id="paint120_linear_932_21467" x1="195.625" y1="-5.73926" x2="195.625" y2="0.559492" gradientUnits="userSpaceOnUse">
<stop stop-color="#A8C9D1"/>
<stop offset="1" stop-color="white"/>
</linearGradient>
<linearGradient id="paint121_linear_932_21467" x1="187.063" y1="6.33887" x2="187.063" y2="12.7556" gradientUnits="userSpaceOnUse">
<stop stop-color="#A8C9D1"/>
<stop offset="1" stop-color="white"/>
</linearGradient>
<linearGradient id="paint122_linear_932_21467" x1="181.341" y1="43.2344" x2="181.341" y2="50.3352" gradientUnits="userSpaceOnUse">
<stop stop-color="#A8C9D1"/>
<stop offset="1" stop-color="white"/>
</linearGradient>
<linearGradient id="paint123_linear_932_21467" x1="179.453" y1="34.2705" x2="179.453" y2="41.0175" gradientUnits="userSpaceOnUse">
<stop stop-color="#A8C9D1"/>
<stop offset="1" stop-color="white"/>
</linearGradient>
<linearGradient id="paint124_linear_932_21467" x1="179.914" y1="26.5088" x2="179.914" y2="33.1378" gradientUnits="userSpaceOnUse">
<stop stop-color="#A8C9D1"/>
<stop offset="1" stop-color="white"/>
</linearGradient>
<linearGradient id="paint125_linear_932_21467" x1="181.506" y1="19.4316" x2="181.506" y2="25.9899" gradientUnits="userSpaceOnUse">
<stop stop-color="#A8C9D1"/>
<stop offset="1" stop-color="white"/>
</linearGradient>
<linearGradient id="paint126_linear_932_21467" x1="183.889" y1="12.8018" x2="183.889" y2="19.2892" gradientUnits="userSpaceOnUse">
<stop stop-color="#A8C9D1"/>
<stop offset="1" stop-color="white"/>
</linearGradient>
<linearGradient id="paint127_linear_932_21467" x1="199.458" y1="-19.3271" x2="199.458" y2="52.6034" gradientUnits="userSpaceOnUse">
<stop stop-color="#A8C9D1"/>
<stop offset="1" stop-color="white"/>
</linearGradient>
<linearGradient id="paint128_linear_932_21467" x1="206.572" y1="-14.542" x2="206.572" y2="57.6727" gradientUnits="userSpaceOnUse">
<stop stop-color="#A8C9D1"/>
<stop offset="1" stop-color="white"/>
</linearGradient>
<linearGradient id="paint129_linear_932_21467" x1="154.531" y1="-54.1787" x2="154.531" y2="22.515" gradientUnits="userSpaceOnUse">
<stop stop-color="#A8C9D1"/>
<stop offset="1" stop-color="white"/>
</linearGradient>
<linearGradient id="paint130_linear_932_21467" x1="162.492" y1="-48.6729" x2="162.492" y2="24.0814" gradientUnits="userSpaceOnUse">
<stop stop-color="#A8C9D1"/>
<stop offset="1" stop-color="white"/>
</linearGradient>
<linearGradient id="paint131_linear_932_21467" x1="162.492" y1="-39.1914" x2="162.492" y2="14.6146" gradientUnits="userSpaceOnUse">
<stop stop-color="#A8C9D1"/>
<stop offset="1" stop-color="white"/>
</linearGradient>
<linearGradient id="paint132_linear_932_21467" x1="164.12" y1="-37.21" x2="164.12" y2="14.6067" gradientUnits="userSpaceOnUse">
<stop stop-color="#A8C9D1"/>
<stop offset="1" stop-color="white"/>
</linearGradient>
<linearGradient id="paint133_linear_932_21467" x1="131.494" y1="8.36719" x2="131.494" y2="15.468" gradientUnits="userSpaceOnUse">
<stop stop-color="#A8C9D1"/>
<stop offset="1" stop-color="white"/>
</linearGradient>
<linearGradient id="paint134_linear_932_21467" x1="129.606" y1="-0.573242" x2="129.606" y2="6.17373" gradientUnits="userSpaceOnUse">
<stop stop-color="#A8C9D1"/>
<stop offset="1" stop-color="white"/>
</linearGradient>
<linearGradient id="paint135_linear_932_21467" x1="149.611" y1="-54.1943" x2="149.611" y2="17.7126" gradientUnits="userSpaceOnUse">
<stop stop-color="#A8C9D1"/>
<stop offset="1" stop-color="white"/>
</linearGradient>
<linearGradient id="paint136_linear_932_21467" x1="156.724" y1="-49.3867" x2="156.724" y2="22.828" gradientUnits="userSpaceOnUse">
<stop stop-color="#A8C9D1"/>
<stop offset="1" stop-color="white"/>
</linearGradient>
<linearGradient id="paint137_linear_932_21467" x1="106.758" y1="128.94" x2="106.758" y2="202.945" gradientUnits="userSpaceOnUse">
<stop stop-color="#A8C9D1"/>
<stop offset="1" stop-color="white"/>
</linearGradient>
<linearGradient id="paint138_linear_932_21467" x1="104.789" y1="135.499" x2="104.789" y2="188.248" gradientUnits="userSpaceOnUse">
<stop stop-color="#A8C9D1"/>
<stop offset="1" stop-color="white"/>
</linearGradient>
<linearGradient id="paint139_linear_932_21467" x1="104.789" y1="135.499" x2="104.789" y2="188.248" gradientUnits="userSpaceOnUse">
<stop stop-color="#A8C9D1"/>
<stop offset="1" stop-color="white"/>
</linearGradient>
<clipPath id="clip0_932_21467">
<rect width="358" height="261" fill="white"/>
</clipPath>
</defs>
</svg>
