<svg width="358" height="261" viewBox="0 0 358 261" fill="none" xmlns="http://www.w3.org/2000/svg">
<g clip-path="url(#clip0_932_21244)">
<rect width="358" height="261" fill="#F6F7F8"/>
<path d="M257.717 202.867L103.059 113.576C101.854 112.88 100.755 112.84 99.9113 113.322L97.6074 114.661C97.6074 114.661 98.1432 114.742 98.6656 114.809C98.3843 115.465 98.2236 116.269 98.2236 117.22V223.776C98.2236 227.326 100.38 231.451 103.046 232.992L257.703 322.282C257.998 322.456 258.279 322.577 258.56 322.67V323.876L260.878 322.536C261.896 321.947 262.552 320.581 262.552 318.639V212.082C262.552 208.533 260.396 204.407 257.73 202.867H257.717Z" fill="url(#paint0_linear_932_21244)" stroke="#64B5C8"/>
<path d="M255.48 323.594L100.822 234.304C98.1566 232.764 96 228.638 96 225.088V118.532C96 114.982 98.1566 113.348 100.822 114.889L255.48 204.179C258.145 205.719 260.302 209.845 260.302 213.395V319.951C260.302 323.501 258.145 325.135 255.48 323.594Z" fill="url(#paint1_linear_932_21244)" stroke="#64B5C8"/>
<path d="M174.776 251.962C174.776 253.27 173.36 254.088 172.227 253.434L146.277 238.451C145.752 238.148 145.428 237.587 145.428 236.98C145.428 235.671 146.844 234.854 147.977 235.508L173.926 250.49C174.452 250.794 174.776 251.355 174.776 251.962Z" fill="url(#paint2_linear_932_21244)" stroke="#64B5C8"/>
<path d="M210.861 272.804C210.861 274.112 209.445 274.929 208.312 274.275L182.362 259.281C181.837 258.977 181.513 258.416 181.513 257.809C181.513 256.501 182.93 255.684 184.062 256.338L210.012 271.333C210.538 271.636 210.861 272.197 210.861 272.804Z" fill="url(#paint3_linear_932_21244)" stroke="#64B5C8"/>
<path d="M109.134 170.543C109.134 169.013 110.782 168.05 112.115 168.8L122.586 174.689C124.16 175.575 125.134 177.241 125.134 179.047V191.703C125.134 193.233 123.487 194.196 122.154 193.447L111.683 187.557C110.109 186.671 109.134 185.005 109.134 183.199V170.543Z" fill="url(#paint4_linear_932_21244)" stroke="#64B5C8"/>
<path d="M441.717 122.867L287.059 33.5762C285.854 32.8797 284.755 32.8395 283.911 33.3217L281.607 34.6612C281.607 34.6612 282.143 34.7416 282.666 34.8086C282.384 35.4649 282.224 36.2686 282.224 37.2196V143.776C282.224 147.326 284.38 151.451 287.046 152.992L441.703 242.282C441.998 242.456 442.279 242.577 442.56 242.67V243.876L444.878 242.536C445.896 241.947 446.552 240.581 446.552 238.639V132.082C446.552 128.533 444.396 124.407 441.73 122.867H441.717Z" fill="url(#paint5_linear_932_21244)" stroke="#64B5C8"/>
<path d="M439.48 243.594L284.822 154.304C282.157 152.764 280 148.638 280 145.088V38.532C280 34.9824 282.157 33.3482 284.822 34.8886L439.48 124.179C442.145 125.719 444.302 129.845 444.302 133.395V239.951C444.302 243.501 442.145 245.135 439.48 243.594Z" fill="url(#paint6_linear_932_21244)" stroke="#64B5C8"/>
<path d="M358.776 171.962C358.776 173.27 357.36 174.088 356.227 173.434L330.277 158.451C329.752 158.148 329.428 157.587 329.428 156.98C329.428 155.671 330.844 154.854 331.977 155.508L357.926 170.49C358.452 170.794 358.776 171.355 358.776 171.962Z" fill="url(#paint7_linear_932_21244)" stroke="#64B5C8"/>
<path d="M293.134 90.5427C293.134 89.0131 294.782 88.0497 296.115 88.7996L306.586 94.6894C308.16 95.575 309.134 97.2409 309.134 99.0473V111.703C309.134 113.233 307.487 114.196 306.154 113.447L295.683 107.557C294.109 106.671 293.134 105.005 293.134 103.199V90.5427Z" fill="url(#paint8_linear_932_21244)" stroke="#64B5C8"/>
<path d="M441.717 268.867L287.059 179.576C285.854 178.88 284.755 178.84 283.911 179.322L281.607 180.661C281.607 180.661 282.143 180.742 282.666 180.809C282.384 181.465 282.224 182.269 282.224 183.22V289.776C282.224 293.326 284.38 297.451 287.046 298.992L441.703 388.282C441.998 388.456 442.279 388.577 442.56 388.67V389.876L444.878 388.536C445.896 387.947 446.552 386.581 446.552 384.639V278.082C446.552 274.533 444.396 270.407 441.73 268.867H441.717Z" fill="url(#paint9_linear_932_21244)" stroke="#64B5C8"/>
<path d="M439.48 389.594L284.822 300.304C282.157 298.764 280 294.638 280 291.088V184.532C280 180.982 282.157 179.348 284.822 180.889L439.48 270.179C442.145 271.719 444.302 275.845 444.302 279.395V385.951C444.302 389.501 442.145 391.135 439.48 389.594Z" fill="url(#paint10_linear_932_21244)" stroke="#64B5C8"/>
<path d="M293.134 236.543C293.134 235.013 294.782 234.05 296.115 234.8L306.586 240.689C308.16 241.575 309.134 243.241 309.134 245.047V257.703C309.134 259.233 307.487 260.196 306.154 259.447L295.683 253.557C294.109 252.671 293.134 251.005 293.134 249.199V236.543Z" fill="url(#paint11_linear_932_21244)" stroke="#64B5C8"/>
<path d="M73.7165 160.867L-80.9409 71.5762C-82.1464 70.8797 -83.2448 70.8395 -84.0887 71.3217L-86.3926 72.6612C-86.3926 72.6612 -85.8568 72.7416 -85.3344 72.8086C-85.6157 73.4649 -85.7764 74.2686 -85.7764 75.2196V181.776C-85.7764 185.326 -83.6198 189.451 -80.9543 190.992L73.7031 280.282C73.9978 280.456 74.2791 280.577 74.5604 280.67V281.876L76.8777 280.536C77.8957 279.947 78.5521 278.581 78.5521 276.639V170.082C78.5521 166.533 76.3955 162.407 73.7299 160.867H73.7165Z" fill="url(#paint12_linear_932_21244)" stroke="#64B5C8"/>
<path d="M71.4795 281.594L-83.1778 192.304C-85.8434 190.764 -88 186.638 -88 183.088V76.532C-88 72.9824 -85.8434 71.3482 -83.1778 72.8886L71.4795 162.179C74.1451 163.719 76.3017 167.845 76.3017 171.395V277.951C76.3017 281.501 74.1451 283.135 71.4795 281.594Z" fill="url(#paint13_linear_932_21244)" stroke="#64B5C8"/>
<path d="M26.8614 230.804C26.8614 232.112 25.445 232.929 24.3122 232.275L-1.63778 217.281C-2.1632 216.977 -2.48682 216.416 -2.48682 215.809C-2.48682 214.501 -1.07039 213.684 0.0623461 214.338L26.0124 229.333C26.5378 229.636 26.8614 230.197 26.8614 230.804Z" fill="url(#paint14_linear_932_21244)" stroke="#64B5C8"/>
<path d="M62.9607 251.634C62.9607 252.942 61.5446 253.76 60.4115 253.106L34.4492 238.123C33.9232 237.82 33.5991 237.259 33.5991 236.651C33.5991 235.343 35.0152 234.525 36.1483 235.179L62.1106 250.162C62.6366 250.466 62.9607 251.027 62.9607 251.634Z" fill="url(#paint15_linear_932_21244)" stroke="#64B5C8"/>
<path d="M257.717 58.8665L103.059 -30.4238C101.854 -31.1203 100.755 -31.1605 99.9113 -30.6783L97.6074 -29.3388C97.6074 -29.3388 98.1432 -29.2584 98.6656 -29.1914C98.3843 -28.5351 98.2236 -27.7314 98.2236 -26.7804V79.776C98.2236 83.3256 100.38 87.4512 103.046 88.9917L257.703 178.282C257.998 178.456 258.279 178.577 258.56 178.67V179.876L260.878 178.536C261.896 177.947 262.552 176.581 262.552 174.639V68.0822C262.552 64.5326 260.396 60.407 257.73 58.8665H257.717Z" fill="url(#paint16_linear_932_21244)" stroke="#64B5C8"/>
<path d="M255.48 179.594L100.822 90.304C98.1566 88.7636 96 84.638 96 81.0884V-25.468C96 -29.0176 98.1566 -30.6518 100.822 -29.1114L255.48 60.1789C258.145 61.7193 260.302 65.845 260.302 69.3946V175.951C260.302 179.501 258.145 181.135 255.48 179.594Z" fill="url(#paint17_linear_932_21244)" stroke="#64B5C8"/>
<path d="M174.776 107.962C174.776 109.27 173.36 110.088 172.227 109.434L146.277 94.4514C145.752 94.1478 145.428 93.5868 145.428 92.9797C145.428 91.6714 146.844 90.8538 147.977 91.5079L173.926 106.49C174.452 106.794 174.776 107.355 174.776 107.962Z" fill="url(#paint18_linear_932_21244)" stroke="#64B5C8"/>
<path d="M210.861 128.804C210.861 130.112 209.445 130.929 208.312 130.275L182.362 115.281C181.837 114.977 181.513 114.416 181.513 113.809C181.513 112.501 182.93 111.684 184.062 112.338L210.012 127.333C210.538 127.636 210.861 128.197 210.861 128.804Z" fill="url(#paint19_linear_932_21244)" stroke="#64B5C8"/>
<path d="M246.961 149.634C246.961 150.942 245.545 151.76 244.412 151.106L218.449 136.123C217.923 135.82 217.599 135.259 217.599 134.651C217.599 133.343 219.015 132.525 220.148 133.179L246.111 148.162C246.637 148.466 246.961 149.027 246.961 149.634Z" fill="url(#paint20_linear_932_21244)" stroke="#64B5C8"/>
<path d="M109.134 26.5427C109.134 25.0131 110.782 24.0497 112.115 24.7996L122.586 30.6894C124.16 31.575 125.134 33.2409 125.134 35.0473V47.7034C125.134 49.233 123.487 50.1964 122.154 49.4465L111.683 43.5567C110.109 42.6711 109.134 41.0052 109.134 39.1988V26.5427Z" fill="url(#paint21_linear_932_21244)" stroke="#64B5C8"/>
<path d="M257.717 -84.1335L103.059 -173.424C101.854 -174.12 100.755 -174.16 99.9113 -173.678L97.6074 -172.339C97.6074 -172.339 98.1432 -172.258 98.6656 -172.191C98.3843 -171.535 98.2236 -170.731 98.2236 -169.78V-63.224C98.2236 -59.6744 100.38 -55.5488 103.046 -54.0083L257.703 35.282C257.998 35.4561 258.279 35.5767 258.56 35.6704V36.876L260.878 35.5365C261.896 34.9471 262.552 33.5808 262.552 31.6386V-74.9178C262.552 -78.4674 260.396 -82.593 257.73 -84.1335H257.717Z" fill="url(#paint22_linear_932_21244)" stroke="#64B5C8"/>
<path d="M255.48 36.5944L100.822 -52.696C98.1566 -54.2364 96 -58.362 96 -61.9116V-168.468C96 -172.018 98.1566 -173.652 100.822 -172.111L255.48 -82.8211C258.145 -81.2807 260.302 -77.155 260.302 -73.6054V32.951C260.302 36.5006 258.145 38.1348 255.48 36.5944Z" fill="url(#paint23_linear_932_21244)" stroke="#64B5C8"/>
<path d="M246.961 6.63403C246.961 7.94227 245.545 8.76003 244.412 8.10612L218.449 -6.8767C217.923 -7.18027 217.599 -7.74145 217.599 -8.34879C217.599 -9.65702 219.015 -10.4748 220.148 -9.82087L246.111 5.16194C246.637 5.46551 246.961 6.0267 246.961 6.63403Z" fill="url(#paint24_linear_932_21244)" stroke="#64B5C8"/>
<path d="M441.717 -21.1335L287.059 -110.424C285.854 -111.12 284.755 -111.16 283.911 -110.678L281.607 -109.339C281.607 -109.339 282.143 -109.258 282.666 -109.191C282.384 -108.535 282.224 -107.731 282.224 -106.78V-0.22403C282.224 3.32562 284.38 7.45125 287.046 8.99166L441.703 98.282C441.998 98.4561 442.279 98.5767 442.56 98.6704V99.876L444.878 98.5365C445.896 97.9471 446.552 96.5808 446.552 94.6386V-11.9178C446.552 -15.4674 444.396 -19.593 441.73 -21.1335H441.717Z" fill="url(#paint25_linear_932_21244)" stroke="#64B5C8"/>
<path d="M439.48 99.5944L284.822 10.304C282.157 8.76362 280 4.638 280 1.08836V-105.468C280 -109.018 282.157 -110.652 284.822 -109.111L439.48 -19.8211C442.145 -18.2807 444.302 -14.155 444.302 -10.6054V95.951C444.302 99.5006 442.145 101.135 439.48 99.5944Z" fill="url(#paint26_linear_932_21244)" stroke="#64B5C8"/>
<path d="M358.776 27.9618C358.776 29.2701 357.36 30.0877 356.227 29.4336L330.277 14.4514C329.752 14.1478 329.428 13.5868 329.428 12.9797C329.428 11.6714 330.844 10.8538 331.977 11.5079L357.926 26.4901C358.452 26.7937 358.776 27.3547 358.776 27.9618Z" fill="url(#paint27_linear_932_21244)" stroke="#64B5C8"/>
<path d="M73.7165 16.8665L-80.9409 -72.4238C-82.1464 -73.1203 -83.2448 -73.1605 -84.0887 -72.6783L-86.3926 -71.3388C-86.3926 -71.3388 -85.8568 -71.2584 -85.3344 -71.1914C-85.6157 -70.5351 -85.7764 -69.7314 -85.7764 -68.7804V37.776C-85.7764 41.3256 -83.6198 45.4512 -80.9543 46.9917L73.7031 136.282C73.9978 136.456 74.2791 136.577 74.5604 136.67V137.876L76.8777 136.536C77.8957 135.947 78.5521 134.581 78.5521 132.639V26.0822C78.5521 22.5326 76.3955 18.407 73.7299 16.8665H73.7165Z" fill="url(#paint28_linear_932_21244)" stroke="#64B5C8"/>
<path d="M71.4795 137.594L-83.1778 48.304C-85.8434 46.7636 -88 42.638 -88 39.0884V-67.468C-88 -71.0176 -85.8434 -72.6518 -83.1778 -71.1114L71.4795 18.1789C74.1451 19.7193 76.3017 23.845 76.3017 27.3946V133.951C76.3017 137.501 74.1451 139.135 71.4795 137.594Z" fill="url(#paint29_linear_932_21244)" stroke="#64B5C8"/>
<path d="M26.8614 86.8037C26.8614 88.112 25.445 88.9294 24.3122 88.2749L-1.63778 73.2805C-2.1632 72.9769 -2.48682 72.4162 -2.48682 71.8094C-2.48682 70.5011 -1.07039 69.6837 0.0623461 70.3382L26.0124 85.3326C26.5378 85.6362 26.8614 86.1969 26.8614 86.8037Z" fill="url(#paint30_linear_932_21244)" stroke="#64B5C8"/>
<path d="M62.9607 107.634C62.9607 108.942 61.5446 109.76 60.4115 109.106L34.4492 94.1233C33.9232 93.8197 33.5991 93.2585 33.5991 92.6512C33.5991 91.343 35.0152 90.5252 36.1483 91.1791L62.1106 106.162C62.6366 106.466 62.9607 107.027 62.9607 107.634Z" fill="url(#paint31_linear_932_21244)" stroke="#64B5C8"/>
</g>
<defs>
<linearGradient id="paint0_linear_932_21244" x1="180.08" y1="113" x2="180.08" y2="323.876" gradientUnits="userSpaceOnUse">
<stop stop-color="#A8C9D1"/>
<stop offset="1" stop-color="white"/>
</linearGradient>
<linearGradient id="paint1_linear_932_21244" x1="178.151" y1="114.309" x2="178.151" y2="324.174" gradientUnits="userSpaceOnUse">
<stop stop-color="#A8C9D1"/>
<stop offset="1" stop-color="white"/>
</linearGradient>
<linearGradient id="paint2_linear_932_21244" x1="160.102" y1="234.036" x2="160.102" y2="254.905" gradientUnits="userSpaceOnUse">
<stop stop-color="#A8C9D1"/>
<stop offset="1" stop-color="white"/>
</linearGradient>
<linearGradient id="paint3_linear_932_21244" x1="196.187" y1="254.865" x2="196.187" y2="275.748" gradientUnits="userSpaceOnUse">
<stop stop-color="#A8C9D1"/>
<stop offset="1" stop-color="white"/>
</linearGradient>
<linearGradient id="paint4_linear_932_21244" x1="117.134" y1="167.123" x2="117.134" y2="195.123" gradientUnits="userSpaceOnUse">
<stop stop-color="#A8C9D1"/>
<stop offset="1" stop-color="white"/>
</linearGradient>
<linearGradient id="paint5_linear_932_21244" x1="364.08" y1="33" x2="364.08" y2="243.876" gradientUnits="userSpaceOnUse">
<stop stop-color="#A8C9D1"/>
<stop offset="1" stop-color="white"/>
</linearGradient>
<linearGradient id="paint6_linear_932_21244" x1="362.151" y1="34.3086" x2="362.151" y2="244.174" gradientUnits="userSpaceOnUse">
<stop stop-color="#A8C9D1"/>
<stop offset="1" stop-color="white"/>
</linearGradient>
<linearGradient id="paint7_linear_932_21244" x1="344.102" y1="154.036" x2="344.102" y2="174.905" gradientUnits="userSpaceOnUse">
<stop stop-color="#A8C9D1"/>
<stop offset="1" stop-color="white"/>
</linearGradient>
<linearGradient id="paint8_linear_932_21244" x1="301.134" y1="87.123" x2="301.134" y2="115.123" gradientUnits="userSpaceOnUse">
<stop stop-color="#A8C9D1"/>
<stop offset="1" stop-color="white"/>
</linearGradient>
<linearGradient id="paint9_linear_932_21244" x1="364.08" y1="179" x2="364.08" y2="389.876" gradientUnits="userSpaceOnUse">
<stop stop-color="#A8C9D1"/>
<stop offset="1" stop-color="white"/>
</linearGradient>
<linearGradient id="paint10_linear_932_21244" x1="362.151" y1="180.309" x2="362.151" y2="390.174" gradientUnits="userSpaceOnUse">
<stop stop-color="#A8C9D1"/>
<stop offset="1" stop-color="white"/>
</linearGradient>
<linearGradient id="paint11_linear_932_21244" x1="301.134" y1="233.123" x2="301.134" y2="261.123" gradientUnits="userSpaceOnUse">
<stop stop-color="#A8C9D1"/>
<stop offset="1" stop-color="white"/>
</linearGradient>
<linearGradient id="paint12_linear_932_21244" x1="-3.92026" y1="71" x2="-3.92026" y2="281.876" gradientUnits="userSpaceOnUse">
<stop stop-color="#A8C9D1"/>
<stop offset="1" stop-color="white"/>
</linearGradient>
<linearGradient id="paint13_linear_932_21244" x1="-5.84914" y1="72.3086" x2="-5.84914" y2="282.174" gradientUnits="userSpaceOnUse">
<stop stop-color="#A8C9D1"/>
<stop offset="1" stop-color="white"/>
</linearGradient>
<linearGradient id="paint14_linear_932_21244" x1="12.1873" y1="212.865" x2="12.1873" y2="233.748" gradientUnits="userSpaceOnUse">
<stop stop-color="#A8C9D1"/>
<stop offset="1" stop-color="white"/>
</linearGradient>
<linearGradient id="paint15_linear_932_21244" x1="48.2799" y1="233.708" x2="48.2799" y2="254.577" gradientUnits="userSpaceOnUse">
<stop stop-color="#A8C9D1"/>
<stop offset="1" stop-color="white"/>
</linearGradient>
<linearGradient id="paint16_linear_932_21244" x1="180.08" y1="-31" x2="180.08" y2="179.876" gradientUnits="userSpaceOnUse">
<stop stop-color="#A8C9D1"/>
<stop offset="1" stop-color="white"/>
</linearGradient>
<linearGradient id="paint17_linear_932_21244" x1="178.151" y1="-29.6914" x2="178.151" y2="180.174" gradientUnits="userSpaceOnUse">
<stop stop-color="#A8C9D1"/>
<stop offset="1" stop-color="white"/>
</linearGradient>
<linearGradient id="paint18_linear_932_21244" x1="160.102" y1="90.0361" x2="160.102" y2="110.905" gradientUnits="userSpaceOnUse">
<stop stop-color="#A8C9D1"/>
<stop offset="1" stop-color="white"/>
</linearGradient>
<linearGradient id="paint19_linear_932_21244" x1="196.187" y1="110.865" x2="196.187" y2="131.748" gradientUnits="userSpaceOnUse">
<stop stop-color="#A8C9D1"/>
<stop offset="1" stop-color="white"/>
</linearGradient>
<linearGradient id="paint20_linear_932_21244" x1="232.28" y1="131.708" x2="232.28" y2="152.577" gradientUnits="userSpaceOnUse">
<stop stop-color="#A8C9D1"/>
<stop offset="1" stop-color="white"/>
</linearGradient>
<linearGradient id="paint21_linear_932_21244" x1="117.134" y1="23.123" x2="117.134" y2="51.123" gradientUnits="userSpaceOnUse">
<stop stop-color="#A8C9D1"/>
<stop offset="1" stop-color="white"/>
</linearGradient>
<linearGradient id="paint22_linear_932_21244" x1="180.08" y1="-174" x2="180.08" y2="36.876" gradientUnits="userSpaceOnUse">
<stop stop-color="#A8C9D1"/>
<stop offset="1" stop-color="white"/>
</linearGradient>
<linearGradient id="paint23_linear_932_21244" x1="178.151" y1="-172.691" x2="178.151" y2="37.1744" gradientUnits="userSpaceOnUse">
<stop stop-color="#A8C9D1"/>
<stop offset="1" stop-color="white"/>
</linearGradient>
<linearGradient id="paint24_linear_932_21244" x1="232.28" y1="-11.292" x2="232.28" y2="9.57725" gradientUnits="userSpaceOnUse">
<stop stop-color="#A8C9D1"/>
<stop offset="1" stop-color="white"/>
</linearGradient>
<linearGradient id="paint25_linear_932_21244" x1="364.08" y1="-111" x2="364.08" y2="99.876" gradientUnits="userSpaceOnUse">
<stop stop-color="#A8C9D1"/>
<stop offset="1" stop-color="white"/>
</linearGradient>
<linearGradient id="paint26_linear_932_21244" x1="362.151" y1="-109.691" x2="362.151" y2="100.174" gradientUnits="userSpaceOnUse">
<stop stop-color="#A8C9D1"/>
<stop offset="1" stop-color="white"/>
</linearGradient>
<linearGradient id="paint27_linear_932_21244" x1="344.102" y1="10.0361" x2="344.102" y2="30.9054" gradientUnits="userSpaceOnUse">
<stop stop-color="#A8C9D1"/>
<stop offset="1" stop-color="white"/>
</linearGradient>
<linearGradient id="paint28_linear_932_21244" x1="-3.92026" y1="-73" x2="-3.92026" y2="137.876" gradientUnits="userSpaceOnUse">
<stop stop-color="#A8C9D1"/>
<stop offset="1" stop-color="white"/>
</linearGradient>
<linearGradient id="paint29_linear_932_21244" x1="-5.84914" y1="-71.6914" x2="-5.84914" y2="138.174" gradientUnits="userSpaceOnUse">
<stop stop-color="#A8C9D1"/>
<stop offset="1" stop-color="white"/>
</linearGradient>
<linearGradient id="paint30_linear_932_21244" x1="12.1873" y1="68.8652" x2="12.1873" y2="89.7479" gradientUnits="userSpaceOnUse">
<stop stop-color="#A8C9D1"/>
<stop offset="1" stop-color="white"/>
</linearGradient>
<linearGradient id="paint31_linear_932_21244" x1="48.2799" y1="89.708" x2="48.2799" y2="110.577" gradientUnits="userSpaceOnUse">
<stop stop-color="#A8C9D1"/>
<stop offset="1" stop-color="white"/>
</linearGradient>
<clipPath id="clip0_932_21244">
<rect width="358" height="261" fill="white"/>
</clipPath>
</defs>
</svg>
