<svg width="64" height="64" viewBox="0 0 64 64" fill="none" xmlns="http://www.w3.org/2000/svg">
<g id="Frame 1208">
<g id="Frame 1210">
<g id="icon-5" clip-path="url(#clip0_378_16)">
<circle id="Ellipse 3" cx="32" cy="32" r="31.5" fill="white" fill-opacity="0.1" stroke="#E5E5E5"/>
<g id="Pin Location Map" clip-path="url(#clip1_378_16)">
<g id="Group">
<path id="Vector" d="M22.0016 32C21.231 32.0001 20.4843 32.2672 19.8884 32.7558C19.2926 33.2444 18.8844 33.9244 18.7333 34.68L17.0667 43.013C16.97 43.4965 16.9818 43.9956 17.1012 44.4741C17.2207 44.9526 17.4448 45.3986 17.7575 45.78C18.0701 46.1614 18.4635 46.4686 18.9093 46.6796C19.3551 46.8906 19.8421 47 20.3353 47H43.6663C44.1595 47 44.6466 46.8906 45.0923 46.6796C45.5381 46.4686 45.9315 46.1614 46.2442 45.78C46.5568 45.3986 46.781 44.9526 46.9004 44.4741C47.0199 43.9956 47.0317 43.4965 46.935 43.013L45.2683 34.68C45.1172 33.9244 44.709 33.2445 44.1132 32.7559C43.5173 32.2673 42.7706 32.0002 42 32" stroke="#004455" stroke-width="1.125" stroke-linecap="round" stroke-linejoin="round"/>
<path id="Vector_2" d="M26.166 40.333H37.8327" stroke="#004455" stroke-width="1.125" stroke-linecap="round" stroke-linejoin="round"/>
<path id="Vector_3" d="M24.5 24.5C24.5 22.5109 25.2902 20.6032 26.6967 19.1967C28.1032 17.7902 30.0109 17 32 17C33.9891 17 35.8968 17.7902 37.3033 19.1967C38.7098 20.6032 39.5 22.5109 39.5 24.5C39.5 27.8111 35.7664 31.3452 33.5661 33.1399C33.115 33.4818 32.5644 33.6668 31.9984 33.6667C31.4323 33.6665 30.8819 33.4812 30.4309 33.1391C28.2325 31.3441 24.5 27.8106 24.5 24.5Z" fill="url(#paint0_linear_378_16)" stroke="#004455" stroke-width="1.125" stroke-linecap="round" stroke-linejoin="round"/>
<path id="Vector_4" d="M31.1625 23.2556C31.4084 23.0901 31.6979 23.0012 31.9943 23.0001C32.192 22.9983 32.3882 23.0358 32.5713 23.1105C32.7544 23.1851 32.9209 23.2955 33.061 23.435C33.2011 23.5746 33.312 23.7406 33.3874 23.9235C33.4628 24.1063 33.501 24.3023 33.5 24.5C33.5 24.7965 33.4121 25.0862 33.2476 25.3328C33.083 25.5793 32.8491 25.7716 32.5753 25.8853C32.3016 25.999 32.0003 26.029 31.7094 25.9716C31.4186 25.9142 31.1514 25.7719 30.9414 25.5627C30.7313 25.3535 30.588 25.0867 30.5295 24.7961C30.471 24.5056 30.4999 24.2041 30.6126 23.93C30.7252 23.6558 30.9166 23.4211 31.1625 23.2556Z" stroke="#004455" stroke-width="1.125" stroke-linecap="round" stroke-linejoin="round"/>
</g>
</g>
</g>
</g>
</g>
<defs>
<linearGradient id="paint0_linear_378_16" x1="32" y1="17" x2="32" y2="33.6667" gradientUnits="userSpaceOnUse">
<stop stop-color="#004455" stop-opacity="0"/>
<stop offset="1" stop-color="#004455" stop-opacity="0.2"/>
</linearGradient>
<clipPath id="clip0_378_16">
<rect width="64" height="64" fill="white"/>
</clipPath>
<clipPath id="clip1_378_16">
<rect width="40" height="40" fill="white" transform="translate(12 12)"/>
</clipPath>
</defs>
</svg>
