<svg width="64" height="64" viewBox="0 0 64 64" fill="none" xmlns="http://www.w3.org/2000/svg">
<g id="Frame 1208">
<g id="Frame 1210">
<g id="icon-4" clip-path="url(#clip0_378_16)">
<circle id="Ellipse 3" cx="32" cy="32" r="31.5" fill="white" fill-opacity="0.1" stroke="#E5E5E5"/>
<g id="Notes,Planner" clip-path="url(#clip1_378_16)">
<g id="Group">
<g id="Group_2">
<path id="Vector" d="M24.6327 18.4473H21.6503C20.0026 18.4473 18.668 19.7819 18.668 21.4296V42.3063C18.668 43.954 20.0026 45.2887 21.6503 45.2887H39.5446C41.1924 45.2887 42.527 43.954 42.527 42.3063V40.8151" stroke="#004455" stroke-width="1.25" stroke-linecap="round" stroke-linejoin="round"/>
<path id="Vector_2" d="M33.5801 39.3236L38.2773 38.7436C38.6069 38.7033 38.9141 38.5527 39.1497 38.3186L46.0554 31.4129C47.3154 30.1528 47.3154 28.1099 46.0554 26.8484C44.7953 25.5883 42.7524 25.5883 41.4908 26.8484L34.691 33.6482C34.4629 33.8763 34.3152 34.1716 34.269 34.4922L33.5801 39.3236Z" fill="url(#paint0_linear_378_16)" stroke="#004455" stroke-width="1.25" stroke-linecap="round" stroke-linejoin="round"/>
<path id="Vector_3" d="M34.3255 20.6835H26.8696C25.6349 20.6835 24.6328 19.6814 24.6328 18.4467C24.6328 17.212 25.6349 16.21 26.8696 16.21H34.3255C35.5602 16.21 36.5623 17.212 36.5623 18.4467C36.5623 19.6814 35.5602 20.6835 34.3255 20.6835Z" fill="url(#paint1_linear_378_16)" stroke="#004455" stroke-width="1.25" stroke-linecap="round" stroke-linejoin="round"/>
<path id="Vector_4" d="M24.6328 25.9033H33.5799" stroke="#004455" stroke-width="1.25" stroke-linecap="round" stroke-linejoin="round"/>
<path id="Vector_5" d="M24.6328 31.8682H30.5976" stroke="#004455" stroke-width="1.25" stroke-linecap="round" stroke-linejoin="round"/>
<path id="Vector_6" d="M36.5625 18.4473H39.5449C41.1926 18.4473 42.5273 19.7819 42.5273 21.4296" stroke="#004455" stroke-width="1.25" stroke-linecap="round" stroke-linejoin="round"/>
</g>
</g>
</g>
</g>
</g>
</g>
<defs>
<linearGradient id="paint0_linear_378_16" x1="40.2902" y1="25.9033" x2="40.2902" y2="39.3236" gradientUnits="userSpaceOnUse">
<stop stop-color="#004455" stop-opacity="0"/>
<stop offset="1" stop-color="#004455" stop-opacity="0.2"/>
</linearGradient>
<linearGradient id="paint1_linear_378_16" x1="30.5976" y1="16.21" x2="30.5976" y2="20.6835" gradientUnits="userSpaceOnUse">
<stop stop-color="#004455" stop-opacity="0"/>
<stop offset="1" stop-color="#004455" stop-opacity="0.2"/>
</linearGradient>
<clipPath id="clip0_378_16">
<rect width="64" height="64" fill="white"/>
</clipPath>
<clipPath id="clip1_378_16">
<rect width="40" height="40" fill="white" transform="translate(12 12)"/>
</clipPath>
</defs>
</svg>
