<svg width="64" height="64" viewBox="0 0 64 64" fill="none" xmlns="http://www.w3.org/2000/svg">
<g id="Frame 1208">
<g id="Frame 1210">
<g id="icon-3" clip-path="url(#clip0_378_16)">
<circle id="Ellipse 3" cx="32" cy="32" r="31.5" fill="white" fill-opacity="0.1" stroke="#E5E5E5"/>
<g id="Message Chat Question Support" clip-path="url(#clip1_378_16)">
<g id="Group">
<path id="Vector" d="M42.8342 42.9405V46.1651C42.8342 46.3299 42.7853 46.491 42.6937 46.6281C42.6022 46.7651 42.472 46.8719 42.3197 46.935C42.1675 46.9981 41.9999 47.0146 41.8383 46.9824C41.6766 46.9503 41.5281 46.8709 41.4116 46.7544L37.5977 42.9404" stroke="#004455" stroke-width="1.25" stroke-linecap="round" stroke-linejoin="round"/>
<path id="Vector_2" d="M42 27.833H42.8392C43.9427 27.833 45.001 28.2714 45.7813 29.0517C46.5616 29.832 47 30.8903 47 31.9938V38.7793C47 39.8828 46.5616 40.9411 45.7813 41.7214C45.001 42.5017 43.9427 42.94 42.8392 42.94" stroke="#004455" stroke-width="1.25" stroke-linecap="round" stroke-linejoin="round"/>
<path id="Vector_3" d="M37.6021 42.9404H32.8268C31.7233 42.9404 30.665 42.502 29.8847 41.7217C29.1044 40.9414 28.666 39.8831 28.666 38.7796V37" stroke="#004455" stroke-width="1.25" stroke-linecap="round" stroke-linejoin="round"/>
<path id="Vector_4" d="M26.5101 32L22.5892 35.9209C22.4727 36.0375 22.3242 36.1169 22.1626 36.149C22.0009 36.1812 21.8334 36.1647 21.6811 36.1016C21.5288 36.0385 21.3987 35.9317 21.3071 35.7946C21.2155 35.6576 21.1667 35.4965 21.1667 35.3317V32H21.1608C20.6144 32 20.0733 31.8924 19.5685 31.6833C19.0637 31.4742 18.605 31.1677 18.2186 30.7813C17.8323 30.395 17.5258 29.9363 17.3167 29.4315C17.1076 28.9267 17 28.3856 17 27.8392V21.1608C17 20.0573 17.4384 18.999 18.2187 18.2187C18.999 17.4384 20.0573 17 21.1608 17H32.8392C33.9427 17 35.001 17.4384 35.7813 18.2187C36.5616 18.999 37 20.0573 37 21.1608V27.8392C37 28.3856 36.8924 28.9267 36.6833 29.4315C36.4742 29.9363 36.1677 30.395 35.7814 30.7813C35.395 31.1677 34.9363 31.4742 34.4315 31.6833C33.9267 31.8924 33.3856 32 32.8392 32H26.5101Z" fill="url(#paint0_linear_378_16)" stroke="#004455" stroke-width="1.25" stroke-linecap="round" stroke-linejoin="round"/>
<path id="Vector_5" d="M23.666 22H28.666" stroke="#004455" stroke-width="1.25" stroke-linecap="round" stroke-linejoin="round"/>
<path id="Vector_6" d="M23.666 27H25.3327" stroke="#004455" stroke-width="1.25" stroke-linecap="round" stroke-linejoin="round"/>
<path id="Vector_7" d="M37 37H40.3333" stroke="#004455" stroke-width="1.25" stroke-linecap="round" stroke-linejoin="round"/>
</g>
</g>
</g>
</g>
</g>
<defs>
<linearGradient id="paint0_linear_378_16" x1="27" y1="17" x2="27" y2="36.165" gradientUnits="userSpaceOnUse">
<stop stop-color="#004455" stop-opacity="0"/>
<stop offset="1" stop-color="#004455" stop-opacity="0.2"/>
</linearGradient>
<clipPath id="clip0_378_16">
<rect width="64" height="64" fill="white"/>
</clipPath>
<clipPath id="clip1_378_16">
<rect width="40" height="40" fill="white" transform="translate(12 12)"/>
</clipPath>
</defs>
</svg>
