<svg width="462" height="291" viewBox="0 0 462 291" fill="none" xmlns="http://www.w3.org/2000/svg">
<g clip-path="url(#clip0_925_10170)">
<rect width="462" height="291" rx="8" fill="#F6F7F8"/>
<path d="M326.856 -40.8281C322.651 -32.065 319.802 -20.7787 318.256 -8.35293C315.678 12.3748 291.668 26.347 291.668 26.347L357.161 63.7599C357.161 63.7599 381.171 49.7877 383.749 29.06C385.268 16.8242 388.035 5.67353 392.159 -3.03536L326.856 -40.8281Z" fill="url(#paint0_linear_925_10170)" stroke="#64B5C8" stroke-linejoin="round"/>
<path d="M368.609 75.2887L271.102 18.7488C271.102 18.7488 270.885 18.6132 270.777 18.5589C268.444 17.2566 265.107 17.745 261.607 20.3224L75.0304 157.684C71.1778 160.533 67.7051 164.982 65.5347 169.974L61.8721 190.756C60.4884 193.903 61.1124 196.481 62.7945 197.05L159.623 253.183L368.609 75.2887Z" fill="url(#paint1_linear_925_10170)" stroke="#64B5C8" stroke-linejoin="round"/>
<path d="M74.326 208.338L76.198 198.598C77.2289 193.253 83.2519 190.513 87.9455 193.253L141.772 224.643C146.764 227.573 149.532 233.189 148.772 238.941L147.226 250.607L74.2988 208.311L74.326 208.338Z" fill="url(#paint2_linear_925_10170)" stroke="#64B5C8" stroke-linejoin="round"/>
<path d="M159.705 254.134L62.4152 197.73C61.7369 197.513 61.1129 196.943 60.7331 196.075C60.082 194.61 60.2447 192.575 61.1672 190.459L64.7755 169.867C67.0545 164.603 70.6086 159.991 74.5696 157.088L261.173 19.6994C264.809 17.0135 268.444 16.3624 271.157 17.8817C271.32 17.9902 271.428 18.0445 271.51 18.0987L368.745 74.503L369.098 75.8866L159.705 254.134ZM267.929 18.6142C266.138 18.6142 264.13 19.401 262.068 20.9203L75.4921 158.309C71.7481 161.076 68.3568 165.444 66.2406 170.301L62.6322 190.893C61.8454 192.765 61.6827 194.393 62.1439 195.451C62.3609 195.912 62.6594 196.21 63.0663 196.346L159.569 252.289L367.308 75.3983L270.506 19.2653C269.719 18.8312 268.851 18.6142 267.929 18.6142Z" fill="url(#paint3_linear_925_10170)" stroke="#64B5C8" stroke-linejoin="round"/>
<path d="M382.772 117.425L372.218 79.9034C371.702 77.0547 370.237 74.9928 368.067 74.1246C365.462 73.0937 362.071 73.8804 358.788 76.2951L172.212 213.684C168.251 216.587 164.697 221.199 162.418 226.462L158.782 247.136C157.589 249.903 157.751 252.508 159.189 253.81C159.732 254.298 160.41 254.542 161.17 254.542C161.929 254.542 162.716 254.298 163.53 253.837L376.233 130.529C380.465 128.087 383.613 121.874 382.826 117.425H382.772Z" fill="url(#paint4_linear_925_10170)" stroke="#64B5C8" stroke-linejoin="round"/>
<path d="M332.554 80.8238L257.158 37.9848C254.608 36.5197 251.433 36.7096 249.046 38.4731L161.143 103.206C160.329 103.803 159.868 104.753 159.922 105.784C159.977 106.788 160.519 107.71 161.414 108.198L236.159 151.689C237.488 152.448 238.953 152.828 240.418 152.828C242.182 152.828 243.945 152.285 245.438 151.173L332.879 86.7925C333.856 86.06 334.398 84.9205 334.317 83.6996C334.236 82.4788 333.584 81.4207 332.526 80.7967L332.554 80.8238Z" fill="url(#paint5_linear_925_10170)" stroke="#64B5C8" stroke-linejoin="round"/>
<path d="M364.188 55.0228L342.104 46.7751L287.381 15.6835C285.075 14.3813 282.227 14.5441 280.11 16.1176L273.409 21.1368L269.068 19.5089V25.5862C269.068 25.5862 269.068 25.6133 269.068 25.6404C269.123 26.3458 269.475 27.0241 270.181 27.431L344.925 70.9212C347.123 72.1963 349.782 72.2777 352.033 71.2468C352.033 71.2468 355.343 69.9445 357.432 69.9988C359.521 70.0259 360.281 70.46 360.281 70.46L364.188 72.739V55.0499V55.0228Z" fill="url(#paint6_linear_925_10170)" stroke="#64B5C8" stroke-linejoin="round"/>
<path d="M244.786 150.576L330.545 87.4167L256.56 45.3916C254.254 44.0893 251.406 44.2521 249.289 45.8256L163.747 108.823L236.321 151.065C238.98 152.611 242.317 152.421 244.786 150.604V150.576Z" fill="url(#paint7_linear_925_10170)" stroke="#64B5C8" stroke-linejoin="round"/>
<path d="M330.112 144.933C329.488 144.933 328.864 144.824 328.268 144.58C326.857 144.01 325.799 142.843 325.392 141.378L321.946 129.17C321.322 126.999 322.272 124.693 324.225 123.581L351.41 107.872C352.739 107.113 354.313 107.004 355.724 107.574C357.134 108.144 358.192 109.31 358.599 110.775L362.045 122.984C362.669 125.154 361.719 127.461 359.766 128.573L332.581 144.281C331.822 144.715 330.981 144.933 330.14 144.933H330.112ZM353.852 108.74C353.255 108.74 352.685 108.903 352.17 109.202L324.985 124.91C323.628 125.697 323.004 127.271 323.411 128.763L326.857 140.971C327.155 141.975 327.861 142.789 328.837 143.196C329.814 143.576 330.899 143.522 331.795 142.979L358.979 127.271C360.336 126.484 360.96 124.91 360.553 123.418L357.107 111.209C356.809 110.206 356.103 109.392 355.127 108.985C354.72 108.822 354.286 108.74 353.852 108.74Z" fill="url(#paint8_linear_925_10170)" stroke="#64B5C8" stroke-linejoin="round"/>
<path d="M145.977 246.184L71.585 203.047L73.5655 192.764C74.1081 189.97 75.8987 187.691 78.5032 186.524C81.1078 185.357 84.0107 185.493 86.4525 186.931L140.279 218.321C145.57 221.414 148.473 227.328 147.659 233.378L145.977 246.184Z" fill="url(#paint9_linear_925_10170)" stroke="#64B5C8" stroke-linejoin="round"/>
<path d="M127.229 154.781L111.087 145.746C109.188 144.661 106.827 144.797 105.064 146.072L99.5563 150.114C98.9051 150.576 98.5525 151.335 98.5796 152.122C98.6067 152.909 99.0408 153.614 99.7191 154.021L115.428 163.544C116.404 164.114 117.517 164.412 118.602 164.412C119.904 164.412 121.206 164.005 122.292 163.218L127.474 159.42C128.233 158.878 128.667 157.982 128.613 157.033C128.559 156.083 128.043 155.242 127.229 154.781Z" fill="url(#paint10_linear_925_10170)" stroke="#64B5C8" stroke-linejoin="round"/>
<path d="M100.127 149.816L115.836 159.339C117.735 160.451 120.095 160.342 121.886 159.04L127.068 155.242C128.234 154.374 128.153 152.61 126.878 151.878L110.735 142.843C109.107 141.894 107.073 142.002 105.526 143.115L100.019 147.157C99.0961 147.835 99.1504 149.219 100.154 149.816H100.127Z" fill="url(#paint11_linear_925_10170)" stroke="#64B5C8" stroke-linejoin="round"/>
<path d="M105.524 147.132L101.021 150.442L115.725 159.341C117.624 160.453 119.985 160.345 121.775 159.042L126.415 155.624L110.733 146.834C109.105 145.884 107.071 145.993 105.524 147.105V147.132Z" fill="url(#paint12_linear_925_10170)" stroke="#64B5C8" stroke-linejoin="round"/>
<path d="M118.602 160.859C117.517 160.859 116.404 160.561 115.428 159.991L99.7191 150.468C99.0408 150.062 98.6067 149.356 98.5796 148.569C98.5525 147.783 98.9051 147.023 99.5563 146.562L105.064 142.519C106.827 141.244 109.188 141.108 111.087 142.194L127.229 151.228C128.043 151.689 128.559 152.53 128.613 153.48C128.667 154.43 128.233 155.325 127.474 155.867L122.292 159.666C121.206 160.452 119.904 160.859 118.602 160.859ZM108.319 142.98C107.478 142.98 106.664 143.252 105.959 143.74L100.452 147.783C100.207 147.945 100.099 148.217 100.099 148.488C100.099 148.759 100.262 149.003 100.506 149.166L116.214 158.689C117.842 159.639 119.877 159.53 121.423 158.418L126.605 154.619C126.958 154.375 127.148 153.968 127.121 153.534C127.121 153.1 126.877 152.747 126.497 152.53L110.354 143.496C109.73 143.143 109.025 142.953 108.347 142.953L108.319 142.98Z" fill="url(#paint13_linear_925_10170)" stroke="#64B5C8" stroke-linejoin="round"/>
<path d="M147.524 139.697L131.382 130.662C129.483 129.577 127.122 129.713 125.359 130.988L119.851 135.03C119.2 135.492 118.847 136.251 118.875 137.038C118.902 137.825 119.336 138.53 120.014 138.937L135.723 148.46C136.699 149.03 137.812 149.328 138.897 149.328C140.199 149.328 141.501 148.921 142.587 148.134L147.768 144.336C148.528 143.794 148.962 142.898 148.908 141.949C148.854 140.999 148.338 140.158 147.524 139.697Z" fill="url(#paint14_linear_925_10170)" stroke="#64B5C8" stroke-linejoin="round"/>
<path d="M120.422 134.732L136.131 144.255C138.03 145.367 140.39 145.259 142.181 143.956L147.363 140.158C148.529 139.29 148.448 137.526 147.173 136.794L131.03 127.759C129.402 126.81 127.367 126.918 125.821 128.031L120.314 132.073C119.391 132.751 119.445 134.135 120.449 134.732H120.422Z" fill="url(#paint15_linear_925_10170)" stroke="#64B5C8" stroke-linejoin="round"/>
<path d="M125.819 132.048L121.315 135.358L136.02 144.257C137.919 145.369 140.28 145.261 142.07 143.958L146.71 140.54L131.028 131.75C129.4 130.8 127.366 130.909 125.819 132.021V132.048Z" fill="url(#paint16_linear_925_10170)" stroke="#64B5C8" stroke-linejoin="round"/>
<path d="M138.923 145.775C137.838 145.775 136.726 145.477 135.749 144.907L120.04 135.384C119.362 134.978 118.928 134.272 118.901 133.485C118.874 132.699 119.226 131.939 119.878 131.478L125.385 127.435C127.149 126.16 129.509 126.024 131.408 127.11L147.551 136.144C148.365 136.605 148.88 137.446 148.934 138.396C148.989 139.346 148.554 140.241 147.795 140.783L142.613 144.582C141.528 145.369 140.225 145.775 138.923 145.775ZM128.614 127.869C127.773 127.869 126.959 128.141 126.253 128.629L120.746 132.671C120.502 132.834 120.393 133.106 120.393 133.377C120.393 133.648 120.556 133.892 120.8 134.055L136.509 143.578C138.136 144.527 140.171 144.419 141.718 143.307L146.9 139.508C147.252 139.264 147.442 138.857 147.415 138.423C147.415 137.989 147.171 137.636 146.791 137.419L130.648 128.385C130.024 128.032 129.319 127.842 128.641 127.842L128.614 127.869Z" fill="url(#paint17_linear_925_10170)" stroke="#64B5C8" stroke-linejoin="round"/>
<path d="M167.708 124.858L151.565 115.824C149.666 114.738 147.306 114.874 145.542 116.149L140.035 120.192C139.384 120.653 139.031 121.412 139.058 122.199C139.085 122.986 139.519 123.691 140.198 124.098L155.906 133.621C156.883 134.191 157.995 134.489 159.08 134.489C160.383 134.489 161.685 134.082 162.77 133.296L167.952 129.497C168.712 128.955 169.146 128.059 169.092 127.11C169.037 126.16 168.522 125.319 167.708 124.858Z" fill="url(#paint18_linear_925_10170)" stroke="#64B5C8" stroke-linejoin="round"/>
<path d="M140.606 119.919L156.314 129.442C158.213 130.555 160.574 130.446 162.364 129.144L167.546 125.345C168.713 124.477 168.631 122.714 167.356 121.981L151.214 112.947C149.586 111.997 147.551 112.106 146.005 113.218L140.497 117.261C139.575 117.939 139.629 119.323 140.633 119.919H140.606Z" fill="url(#paint19_linear_925_10170)" stroke="#64B5C8" stroke-linejoin="round"/>
<path d="M146.003 117.236L141.499 120.545L156.204 129.444C158.103 130.557 160.463 130.448 162.254 129.146L166.893 125.727L151.212 116.937C149.584 115.988 147.549 116.096 146.003 117.208V117.236Z" fill="url(#paint20_linear_925_10170)" stroke="#64B5C8" stroke-linejoin="round"/>
<path d="M159.107 130.963C158.022 130.963 156.909 130.665 155.932 130.095L140.224 120.572C139.546 120.165 139.112 119.46 139.084 118.673C139.057 117.886 139.41 117.126 140.061 116.665L145.569 112.623C147.332 111.348 149.692 111.212 151.592 112.297L167.734 121.332C168.548 121.793 169.064 122.634 169.118 123.583C169.172 124.533 168.738 125.428 167.978 125.971L162.797 129.769C161.711 130.556 160.409 130.963 159.107 130.963ZM148.797 113.057C147.956 113.057 147.142 113.328 146.437 113.817L140.929 117.859C140.685 118.022 140.577 118.293 140.577 118.564C140.577 118.836 140.739 119.08 140.984 119.243L156.692 128.765C158.32 129.715 160.355 129.606 161.901 128.494L167.083 124.696C167.436 124.452 167.626 124.045 167.599 123.611C167.599 123.177 167.354 122.824 166.975 122.607L150.832 113.572C150.208 113.22 149.503 113.03 148.824 113.03L148.797 113.057Z" fill="url(#paint21_linear_925_10170)" stroke="#64B5C8" stroke-linejoin="round"/>
<path d="M155.743 171.467L139.6 162.433C137.701 161.348 135.341 161.483 133.577 162.759L128.07 166.801C127.419 167.262 127.066 168.022 127.093 168.809C127.12 169.595 127.554 170.301 128.233 170.708L143.941 180.231C144.918 180.8 146.03 181.099 147.116 181.099C148.418 181.099 149.72 180.692 150.805 179.905L155.987 176.107C156.747 175.564 157.181 174.669 157.127 173.719C157.072 172.77 156.557 171.929 155.743 171.467Z" fill="url(#paint22_linear_925_10170)" stroke="#64B5C8" stroke-linejoin="round"/>
<path d="M128.641 166.529L144.349 176.052C146.248 177.164 148.609 177.055 150.399 175.753L155.581 171.955C156.748 171.087 156.667 169.323 155.391 168.591L139.249 159.556C137.621 158.607 135.586 158.715 134.04 159.828L128.532 163.87C127.61 164.548 127.664 165.932 128.668 166.529H128.641Z" fill="url(#paint23_linear_925_10170)" stroke="#64B5C8" stroke-linejoin="round"/>
<path d="M134.038 163.845L129.534 167.155L144.239 176.054C146.138 177.166 148.498 177.057 150.289 175.755L154.928 172.337L139.247 163.546C137.619 162.597 135.584 162.705 134.038 163.818V163.845Z" fill="url(#paint24_linear_925_10170)" stroke="#64B5C8" stroke-linejoin="round"/>
<path d="M147.142 177.572C146.057 177.572 144.944 177.274 143.968 176.704L128.259 167.181C127.581 166.774 127.147 166.069 127.12 165.282C127.092 164.495 127.445 163.736 128.096 163.275L133.604 159.232C135.367 157.957 137.728 157.821 139.627 158.907L155.769 167.941C156.583 168.402 157.099 169.243 157.153 170.193C157.207 171.142 156.773 172.038 156.014 172.58L150.832 176.379C149.746 177.165 148.444 177.572 147.142 177.572ZM136.832 159.666C135.991 159.666 135.177 159.938 134.472 160.426L128.964 164.468C128.72 164.631 128.612 164.902 128.612 165.174C128.612 165.445 128.775 165.689 129.019 165.852L144.727 175.375C146.355 176.324 148.39 176.216 149.936 175.103L155.118 171.305C155.471 171.061 155.661 170.654 155.634 170.22C155.634 169.786 155.39 169.433 155.01 169.216L138.867 160.182C138.243 159.829 137.538 159.639 136.859 159.639L136.832 159.666Z" fill="url(#paint25_linear_925_10170)" stroke="#64B5C8" stroke-linejoin="round"/>
<path d="M176.038 156.381L159.895 147.347C157.996 146.262 155.636 146.397 153.872 147.673L148.365 151.715C147.714 152.176 147.361 152.936 147.388 153.723C147.415 154.509 147.849 155.215 148.528 155.622L164.236 165.145C165.213 165.714 166.325 166.013 167.41 166.013C168.713 166.013 170.015 165.606 171.1 164.819L176.282 161.021C177.042 160.478 177.476 159.583 177.422 158.633C177.367 157.684 176.852 156.843 176.038 156.381Z" fill="url(#paint26_linear_925_10170)" stroke="#64B5C8" stroke-linejoin="round"/>
<path d="M148.936 151.443L164.644 160.966C166.543 162.078 168.904 161.969 170.694 160.667L175.876 156.869C177.043 156.028 176.961 154.237 175.686 153.505L159.544 144.47C157.916 143.521 155.881 143.629 154.335 144.742L148.827 148.784C147.905 149.462 147.959 150.846 148.963 151.443H148.936Z" fill="url(#paint27_linear_925_10170)" stroke="#64B5C8" stroke-linejoin="round"/>
<path d="M154.333 148.759L149.829 152.069L164.534 160.968C166.433 162.08 168.793 161.972 170.584 160.669L175.223 157.251L159.542 148.461C157.914 147.511 155.879 147.619 154.333 148.732V148.759Z" fill="url(#paint28_linear_925_10170)" stroke="#64B5C8" stroke-linejoin="round"/>
<path d="M167.437 162.485C166.352 162.485 165.239 162.187 164.263 161.617L148.554 152.094C147.876 151.688 147.442 150.982 147.415 150.195C147.387 149.409 147.74 148.649 148.391 148.188L153.899 144.145C155.662 142.87 158.023 142.734 159.922 143.82L176.064 152.854C176.878 153.315 177.394 154.156 177.448 155.106C177.502 156.056 177.068 156.951 176.308 157.493L171.127 161.292C170.041 162.078 168.739 162.485 167.437 162.485ZM157.127 144.579C156.286 144.579 155.472 144.851 154.767 145.339L149.259 149.381C149.015 149.544 148.907 149.816 148.907 150.087C148.907 150.358 149.07 150.602 149.314 150.765L165.022 160.288C166.65 161.237 168.685 161.129 170.231 160.017L175.413 156.218C175.766 155.974 175.956 155.567 175.929 155.133C175.929 154.699 175.685 154.346 175.305 154.129L159.162 145.095C158.538 144.742 157.833 144.552 157.154 144.552L157.127 144.579Z" fill="url(#paint29_linear_925_10170)" stroke="#64B5C8" stroke-linejoin="round"/>
<path d="M196.222 141.568L180.079 132.534C178.18 131.448 175.819 131.584 174.056 132.859L168.548 136.902C167.897 137.363 167.545 138.122 167.572 138.909C167.599 139.696 168.033 140.401 168.711 140.808L184.42 150.331C185.396 150.901 186.509 151.199 187.594 151.199C188.896 151.199 190.199 150.792 191.284 150.006L196.466 146.207C197.225 145.665 197.659 144.769 197.605 143.82C197.551 142.87 197.035 142.029 196.222 141.568Z" fill="url(#paint30_linear_925_10170)" stroke="#64B5C8" stroke-linejoin="round"/>
<path d="M169.119 136.632L184.828 146.155C186.727 147.267 189.087 147.159 190.878 145.857L196.06 142.058C197.226 141.19 197.145 139.427 195.87 138.694L179.727 129.66C178.099 128.71 176.065 128.819 174.518 129.931L169.011 133.973C168.088 134.652 168.143 136.035 169.146 136.632H169.119Z" fill="url(#paint31_linear_925_10170)" stroke="#64B5C8" stroke-linejoin="round"/>
<path d="M174.516 133.919L170.013 137.229L184.717 146.128C186.617 147.24 188.977 147.132 190.768 145.829L195.407 142.411L179.725 133.621C178.098 132.671 176.063 132.78 174.516 133.892V133.919Z" fill="url(#paint32_linear_925_10170)" stroke="#64B5C8" stroke-linejoin="round"/>
<path d="M187.62 147.647C186.535 147.647 185.423 147.348 184.446 146.778L168.738 137.256C168.059 136.849 167.625 136.143 167.598 135.356C167.571 134.57 167.924 133.81 168.575 133.349L174.082 129.306C175.846 128.031 178.206 127.896 180.105 128.981L196.248 138.015C197.062 138.476 197.577 139.317 197.632 140.267C197.686 141.217 197.252 142.112 196.492 142.655L191.31 146.453C190.225 147.24 188.923 147.647 187.62 147.647ZM177.311 129.768C176.47 129.768 175.656 130.039 174.95 130.527L169.443 134.57C169.199 134.732 169.09 135.004 169.09 135.275C169.09 135.546 169.253 135.791 169.497 135.953L185.206 145.476C186.834 146.426 188.868 146.317 190.415 145.205L195.597 141.407C195.949 141.162 196.139 140.755 196.112 140.321C196.112 139.887 195.868 139.535 195.488 139.318L179.346 130.283C178.722 129.93 178.016 129.74 177.338 129.74L177.311 129.768Z" fill="url(#paint33_linear_925_10170)" stroke="#64B5C8" stroke-linejoin="round"/>
<path d="M184.339 188.125L168.196 179.09C166.297 178.005 163.937 178.141 162.173 179.416L156.666 183.458C156.015 183.919 155.662 184.679 155.689 185.466C155.716 186.253 156.15 186.958 156.828 187.365L172.537 196.888C173.514 197.458 174.626 197.756 175.711 197.756C177.014 197.756 178.316 197.349 179.401 196.562L184.583 192.764C185.343 192.221 185.777 191.326 185.722 190.376C185.668 189.427 185.153 188.586 184.339 188.125Z" fill="url(#paint34_linear_925_10170)" stroke="#64B5C8" stroke-linejoin="round"/>
<path d="M157.236 183.16L172.945 192.682C174.844 193.795 177.205 193.686 178.995 192.384L184.177 188.586C185.344 187.718 185.262 185.954 183.987 185.222L167.845 176.187C166.217 175.238 164.182 175.346 162.635 176.458L157.128 180.501C156.206 181.179 156.26 182.563 157.264 183.16H157.236Z" fill="url(#paint35_linear_925_10170)" stroke="#64B5C8" stroke-linejoin="round"/>
<path d="M162.634 180.475L158.13 183.785L172.835 192.684C174.734 193.796 177.094 193.687 178.885 192.385L183.524 188.967L167.843 180.176C166.215 179.227 164.18 179.335 162.634 180.448V180.475Z" fill="url(#paint36_linear_925_10170)" stroke="#64B5C8" stroke-linejoin="round"/>
<path d="M175.738 194.202C174.652 194.202 173.54 193.904 172.563 193.334L156.855 183.811C156.177 183.404 155.742 182.699 155.715 181.912C155.688 181.125 156.041 180.366 156.692 179.904L162.2 175.862C163.963 174.587 166.323 174.451 168.222 175.536L184.365 184.571C185.179 185.032 185.695 185.873 185.749 186.823C185.803 187.772 185.369 188.668 184.609 189.21L179.427 193.008C178.342 193.795 177.04 194.202 175.738 194.202ZM165.428 176.296C164.587 176.296 163.773 176.567 163.068 177.056L157.56 181.098C157.316 181.261 157.208 181.532 157.208 181.804C157.208 182.075 157.37 182.319 157.614 182.482L173.323 192.005C174.951 192.954 176.986 192.846 178.532 191.733L183.714 187.935C184.067 187.691 184.257 187.284 184.229 186.85C184.229 186.416 183.985 186.063 183.605 185.846L167.463 176.812C166.839 176.459 166.133 176.269 165.455 176.269L165.428 176.296Z" fill="url(#paint37_linear_925_10170)" stroke="#64B5C8" stroke-linejoin="round"/>
<path d="M204.634 173.014L188.491 163.98C186.592 162.895 184.232 163.03 182.468 164.305L176.961 168.348C176.309 168.809 175.957 169.569 175.984 170.355C176.011 171.142 176.445 171.848 177.123 172.255L192.832 181.777C193.809 182.347 194.921 182.646 196.006 182.646C197.308 182.646 198.611 182.239 199.696 181.452L204.878 177.654C205.637 177.111 206.072 176.216 206.017 175.266C205.963 174.317 205.448 173.475 204.634 173.014Z" fill="url(#paint38_linear_925_10170)" stroke="#64B5C8" stroke-linejoin="round"/>
<path d="M177.531 168.076L193.24 177.598C195.139 178.711 197.499 178.602 199.29 177.3L204.472 173.502C205.639 172.634 205.557 170.87 204.282 170.138L188.139 161.103C186.512 160.154 184.477 160.262 182.93 161.374L177.423 165.417C176.5 166.095 176.555 167.479 177.559 168.076H177.531Z" fill="url(#paint39_linear_925_10170)" stroke="#64B5C8" stroke-linejoin="round"/>
<path d="M182.928 165.392L178.425 168.702L193.13 177.6C195.029 178.713 197.389 178.604 199.18 177.302L203.819 173.884L188.138 165.093C186.51 164.144 184.475 164.252 182.928 165.365V165.392Z" fill="url(#paint40_linear_925_10170)" stroke="#64B5C8" stroke-linejoin="round"/>
<path d="M196.033 179.119C194.947 179.119 193.835 178.821 192.858 178.251L177.15 168.728C176.471 168.321 176.037 167.616 176.01 166.829C175.983 166.042 176.336 165.283 176.987 164.821L182.494 160.779C184.258 159.504 186.618 159.368 188.517 160.453L204.66 169.488C205.474 169.949 205.989 170.79 206.044 171.74C206.098 172.689 205.664 173.585 204.904 174.127L199.722 177.925C198.637 178.712 197.335 179.119 196.033 179.119ZM185.75 161.213C184.909 161.213 184.095 161.484 183.39 161.973L177.882 166.015C177.638 166.178 177.53 166.449 177.53 166.721C177.53 166.992 177.692 167.236 177.937 167.399L193.645 176.922C195.273 177.871 197.308 177.763 198.854 176.65L204.036 172.852C204.389 172.608 204.579 172.201 204.552 171.767C204.552 171.333 204.307 170.98 203.928 170.763L187.785 161.729C187.161 161.376 186.455 161.186 185.777 161.186L185.75 161.213Z" fill="url(#paint41_linear_925_10170)" stroke="#64B5C8" stroke-linejoin="round"/>
<path d="M224.817 158.201L208.675 149.166C206.775 148.081 204.415 148.217 202.652 149.492L197.144 153.534C196.493 153.996 196.14 154.755 196.167 155.542C196.195 156.329 196.629 157.034 197.307 157.441L213.016 166.964C213.992 167.534 215.105 167.832 216.19 167.832C217.492 167.832 218.794 167.425 219.88 166.638L225.061 162.84C225.821 162.297 226.255 161.402 226.201 160.453C226.147 159.503 225.631 158.662 224.817 158.201Z" fill="url(#paint42_linear_925_10170)" stroke="#64B5C8" stroke-linejoin="round"/>
<path d="M197.715 153.263L213.424 162.786C215.323 163.898 217.683 163.79 219.474 162.488L224.656 158.689C225.822 157.821 225.741 156.058 224.466 155.325L208.323 146.291C206.695 145.341 204.66 145.45 203.114 146.562L197.606 150.604C196.684 151.283 196.738 152.666 197.742 153.263H197.715Z" fill="url(#paint43_linear_925_10170)" stroke="#64B5C8" stroke-linejoin="round"/>
<path d="M203.138 150.552L198.635 153.862L213.339 162.761C215.239 163.873 217.599 163.764 219.39 162.462L224.029 159.044L208.347 150.253C206.72 149.304 204.685 149.412 203.138 150.525V150.552Z" fill="url(#paint44_linear_925_10170)" stroke="#64B5C8" stroke-linejoin="round"/>
<path d="M216.216 164.306C215.131 164.306 214.019 164.007 213.042 163.438L197.333 153.915C196.655 153.508 196.221 152.802 196.194 152.016C196.167 151.229 196.519 150.469 197.171 150.008L202.678 145.966C204.442 144.69 206.802 144.555 208.701 145.64L224.844 154.674C225.658 155.136 226.173 155.977 226.227 156.926C226.282 157.876 225.847 158.771 225.088 159.314L219.906 163.112C218.821 163.899 217.518 164.306 216.216 164.306ZM205.934 146.4C205.093 146.4 204.279 146.671 203.573 147.159L198.066 151.202C197.822 151.364 197.713 151.636 197.713 151.907C197.713 152.178 197.876 152.423 198.12 152.585L213.829 162.108C215.456 163.058 217.491 162.949 219.038 161.837L224.22 158.039C224.572 157.794 224.762 157.387 224.735 156.953C224.735 156.519 224.491 156.167 224.111 155.95L207.968 146.915C207.344 146.562 206.639 146.372 205.961 146.372L205.934 146.4Z" fill="url(#paint45_linear_925_10170)" stroke="#64B5C8" stroke-linejoin="round"/>
<path d="M303.143 151.283C301.19 150.551 299.047 150.795 297.31 151.961L213.938 207.199C210.059 209.776 207.156 213.602 205.745 218.051L201.621 231.616L203.547 230.504L207.21 218.512C208.512 214.416 211.198 210.862 214.779 208.474L298.151 153.237C298.992 152.694 299.915 152.395 300.864 152.395C301.434 152.395 302.031 152.504 302.601 152.721C304.093 153.264 305.205 154.485 305.639 156.031L309.383 169.135L310.74 168.348L307.104 155.624C306.535 153.616 305.097 152.043 303.116 151.31L303.143 151.283Z" fill="url(#paint46_linear_925_10170)" stroke="#64B5C8" stroke-linejoin="round"/>
<path d="M270.152 21.3558L344.897 64.846C347.555 66.3925 350.892 66.2025 353.361 64.3848L363.047 57.141C364.675 55.9472 364.539 53.4512 362.776 52.4474L287.38 9.60835C285.074 8.30609 282.225 8.46887 280.109 10.0424L269.962 17.639C268.66 18.5885 268.769 20.5419 270.152 21.3558Z" fill="url(#paint47_linear_925_10170)" stroke="#64B5C8" stroke-linejoin="round"/>
<path d="M270.152 27.4047L344.897 70.8948C347.555 72.4413 350.892 72.2514 353.361 70.4336L363.047 63.1898C364.675 61.996 364.539 59.5 362.776 58.4962L287.38 15.6572C285.074 14.3549 282.225 14.5177 280.109 16.0913L269.962 23.6878C268.66 24.6374 268.769 26.5908 270.152 27.4047Z" fill="url(#paint48_linear_925_10170)" stroke="#64B5C8" stroke-linejoin="round"/>
<path d="M348.777 66.6353C347.312 66.6353 345.847 66.2554 344.517 65.4958L269.773 22.0056C268.905 21.4901 268.335 20.5948 268.281 19.591C268.226 18.5872 268.688 17.6105 269.502 17.0136L279.648 9.44419C282.009 7.70784 285.21 7.51793 287.76 8.95584L363.156 51.7949C364.214 52.3917 364.892 53.477 364.947 54.6978C365.028 55.9187 364.485 57.0582 363.509 57.7907L353.823 65.0346C352.331 66.1469 350.567 66.6895 348.777 66.6895V66.6353ZM284.071 9.49846C282.823 9.49846 281.602 9.87828 280.544 10.6379L270.397 18.2345C269.99 18.5329 269.773 18.9941 269.8 19.4825C269.827 19.9979 270.098 20.432 270.533 20.6762L345.277 64.1664C347.664 65.55 350.676 65.3872 352.901 63.7594L362.586 56.5156C363.156 56.0815 363.454 55.4575 363.427 54.7521C363.373 54.0467 363.02 53.4498 362.396 53.0971L287.001 10.2581C286.078 9.74263 285.074 9.47132 284.071 9.47132V9.49846Z" fill="url(#paint49_linear_925_10170)" stroke="#64B5C8" stroke-linejoin="round"/>
<path d="M249.317 51.8774L170.855 109.665L236.348 147.784C239.007 149.33 242.344 149.14 244.813 147.322L323.437 89.426L256.588 51.4433C254.282 50.141 251.433 50.3038 249.317 51.8774Z" fill="url(#paint50_linear_925_10170)" stroke="#64B5C8" stroke-linejoin="round"/>
<path d="M240.202 152.857C238.737 152.857 237.272 152.477 235.942 151.717L162.364 108.906L248.829 45.2303C251.189 43.494 254.391 43.3041 256.941 44.742L331.957 87.364L245.248 151.202C243.756 152.287 241.992 152.857 240.229 152.857H240.202ZM165.132 108.743L236.702 150.388C239.089 151.772 242.101 151.609 244.325 149.981L329.135 87.5268L256.154 46.0714C254.12 44.9048 251.596 45.0675 249.697 46.4512L165.104 108.743H165.132Z" fill="url(#paint51_linear_925_10170)" stroke="#64B5C8" stroke-linejoin="round"/>
<path d="M364.947 73.4181V54.7523L364.079 54.4267C364.323 55.322 364.079 56.3258 363.428 57.0312V57.2483L354.122 64.4921L352.82 64.9805C351.979 65.4959 351.083 65.8486 350.134 66.0114L349.808 66.1471L349.564 66.0928C347.991 66.2556 346.363 65.93 344.925 65.089V70.2709L270.56 26.9978C270.126 26.7536 269.855 26.3195 269.828 25.804V21.3275C269.149 20.7306 268.905 19.7811 269.177 18.9672L268.281 18.6416V25.9126C268.336 26.9164 268.905 27.8117 269.773 28.3272L344.518 71.8174C346.553 73.0111 349.022 73.2824 351.273 72.577L352.304 72.1972C352.331 72.1972 355.479 71.0034 357.405 70.9763C359.195 71.0034 359.874 71.3561 359.874 71.3561L364.947 74.2862V73.3909V73.4181Z" fill="url(#paint52_linear_925_10170)" stroke="#64B5C8" stroke-linejoin="round"/>
<path d="M136.02 233.544L78.9647 200.662C76.6586 199.333 75.8447 196.349 77.2012 194.042C78.5306 191.736 81.4878 190.95 83.7939 192.279L140.849 225.161C143.155 226.491 143.969 229.475 142.613 231.781C141.283 234.087 138.326 234.874 136.02 233.544Z" fill="url(#paint53_linear_925_10170)" stroke="#64B5C8" stroke-linejoin="round"/>
<path d="M139.031 231.645L79.1273 196.945C78.3676 196.511 78.0963 195.507 78.5304 194.747C78.9645 193.988 79.9683 193.716 80.728 194.151L140.632 228.85C141.392 229.285 141.663 230.288 141.229 231.048C140.795 231.808 139.791 232.079 139.031 231.645Z" fill="url(#paint54_linear_925_10170)" stroke="#64B5C8" stroke-linejoin="round"/>
<path d="M132.384 226.9L83.2504 198.413L47.8994 219.493L46.4344 219.331V221.338C46.4344 221.338 46.4344 221.474 46.4344 221.528H46.4072C46.4344 222.098 46.7328 222.668 47.3025 223.02L94.7266 251.29C96.5172 252.348 98.7419 252.348 100.533 251.29L138.895 228.582L137.05 227.443L132.357 226.927L132.384 226.9Z" fill="url(#paint55_linear_925_10170)" stroke="#64B5C8" stroke-linejoin="round"/>
<path d="M97.6293 252.483C96.5441 252.483 95.486 252.185 94.5093 251.615L47.0852 223.345C46.4341 222.965 46.0271 222.287 46 221.527C46 221.446 46 221.364 46 221.283V218.841L47.7906 219.031L83.2502 197.896L83.4672 198.005L132.519 226.465L137.294 227.035L139.709 228.527L100.749 251.588C99.7998 252.157 98.7145 252.429 97.6293 252.429V252.483ZM46.8139 219.791V221.337C46.8139 221.337 46.8139 221.446 46.8139 221.5C46.8139 221.988 47.0852 222.422 47.4922 222.667L94.9163 250.937C96.5712 251.913 98.6603 251.913 100.315 250.937L138.108 228.554L136.914 227.794L132.166 227.225L83.2502 198.846L47.9805 219.872L46.8139 219.737V219.791Z" fill="url(#paint56_linear_925_10170)" stroke="#64B5C8" stroke-linejoin="round"/>
<path d="M83.2504 196.215L47.3025 217.648C46.1088 218.353 46.1088 220.089 47.3025 220.822L94.7266 249.092C96.5172 250.15 98.7419 250.15 100.533 249.092L137.05 227.415L83.2504 196.188V196.215Z" fill="url(#paint57_linear_925_10170)" stroke="#64B5C8" stroke-linejoin="round"/>
<path d="M97.4928 247.383C99.2834 248.441 101.508 248.441 103.299 247.383L128.204 232.651C130.456 231.322 130.456 228.039 128.177 226.71L89.218 204.11C85.5553 201.967 80.9974 201.994 77.3619 204.191L56.1459 216.807C53.8941 218.136 53.8941 221.392 56.1459 222.721L97.4928 247.383Z" fill="url(#paint58_linear_925_10170)" stroke="#64B5C8" stroke-linejoin="round"/>
<path d="M97.6293 250.285C96.5441 250.285 95.486 249.987 94.5093 249.417L47.0852 221.174C46.407 220.767 46 220.035 46 219.248C46 218.461 46.407 217.729 47.0852 217.322L83.2502 195.753L83.4672 195.861L137.864 227.414L100.749 249.444C99.7997 250.014 98.7145 250.285 97.6293 250.285ZM83.2502 196.675L47.4922 218C47.0581 218.271 46.7868 218.732 46.7868 219.221C46.7868 219.736 47.0581 220.198 47.4922 220.442L94.9163 248.712C96.5712 249.688 98.6603 249.688 100.315 248.712L136.236 227.387L83.223 196.648L83.2502 196.675Z" fill="url(#paint59_linear_925_10170)" stroke="#64B5C8" stroke-linejoin="round"/>
<path d="M90.6023 223.778L88.1063 225.215L79.8857 220.468L82.3817 219.03C83.1957 218.569 84.6336 218.623 85.5831 219.165L90.3581 221.933C91.3077 222.475 91.4162 223.316 90.5752 223.778H90.6023Z" fill="url(#paint60_linear_925_10170)" stroke="#64B5C8" stroke-linejoin="round"/>
<path d="M81.5403 229.014L78.99 230.479C78.1489 230.968 76.711 230.886 75.7615 230.344L71.0136 227.604C70.0641 227.061 69.9555 226.22 70.7695 225.732L73.3197 224.267L81.5403 229.014Z" fill="url(#paint61_linear_925_10170)" stroke="#64B5C8" stroke-linejoin="round"/>
<path d="M87.2923 225.705L82.3817 228.526L74.1611 223.779L79.0717 220.957L87.2923 225.705Z" fill="url(#paint62_linear_925_10170)" stroke="#64B5C8" stroke-linejoin="round"/>
<path d="M95.8655 239.705C97.3305 240.546 97.6018 241.332 96.6523 241.875C95.8112 242.363 94.4547 242.228 93.0168 241.414C91.5789 240.573 91.4161 239.759 92.2843 239.271C93.1796 238.755 94.509 238.918 95.8926 239.705H95.8655ZM93.6137 241.088C94.726 241.739 95.7027 241.902 96.2453 241.604C96.8422 241.251 96.4352 240.681 95.3229 240.057C94.2648 239.433 93.2881 239.189 92.6912 239.542C92.1757 239.84 92.447 240.41 93.6137 241.088Z" fill="url(#paint63_linear_925_10170)" stroke="#64B5C8" stroke-linejoin="round"/>
<path d="M99.2835 237.749C100.749 238.59 101.02 239.376 100.07 239.919C99.2292 240.407 97.8727 240.272 96.4348 239.458C94.9968 238.617 94.8341 237.803 95.7022 237.314C96.5975 236.799 97.9269 236.962 99.3106 237.749H99.2835ZM97.0045 239.132C98.1168 239.783 99.0935 239.946 99.6362 239.648C100.233 239.295 99.8261 238.725 98.7137 238.101C97.6556 237.477 96.6789 237.233 96.0821 237.586C95.5666 237.884 95.8379 238.454 97.0045 239.132Z" fill="url(#paint64_linear_925_10170)" stroke="#64B5C8" stroke-linejoin="round"/>
<path d="M102.675 235.77C104.14 236.611 104.411 237.398 103.462 237.94C102.621 238.429 101.264 238.293 99.8264 237.479C98.3884 236.638 98.2257 235.824 99.0938 235.336C99.9891 234.82 101.319 234.983 102.702 235.77H102.675ZM100.396 237.154C101.508 237.805 102.485 237.968 103.028 237.669C103.625 237.316 103.218 236.747 102.105 236.123C101.047 235.499 100.071 235.255 99.4737 235.607C98.9582 235.906 99.2295 236.475 100.396 237.154Z" fill="url(#paint65_linear_925_10170)" stroke="#64B5C8" stroke-linejoin="round"/>
<path d="M102.918 233.844L102.565 234.522L102.022 234.332L102.457 233.491L102.945 233.192L107.259 235.688L106.689 236.014L102.918 233.844Z" fill="url(#paint66_linear_925_10170)" stroke="#64B5C8" stroke-linejoin="round"/>
<path d="M110.869 231.048C112.334 231.889 112.606 232.676 111.656 233.219C110.815 233.707 109.459 233.571 108.021 232.758C106.583 231.917 106.42 231.103 107.288 230.614C108.183 230.099 109.513 230.262 110.897 231.048H110.869ZM108.59 232.432C109.703 233.083 110.679 233.246 111.222 232.947C111.819 232.595 111.412 232.025 110.3 231.401C109.242 230.777 108.265 230.533 107.668 230.886C107.153 231.184 107.424 231.754 108.59 232.432Z" fill="url(#paint67_linear_925_10170)" stroke="#64B5C8" stroke-linejoin="round"/>
<path d="M113.608 231.999L113.255 231.782V231.266C113.309 230.018 113.255 229.421 112.631 229.041C112.197 228.797 111.573 228.689 110.949 229.041C110.569 229.259 110.434 229.557 110.406 229.774L109.81 229.638C109.864 229.313 110.081 228.96 110.596 228.689C111.519 228.146 112.55 228.282 113.174 228.662C113.961 229.123 114.042 229.828 113.988 230.859V231.239L115.914 230.127L116.402 230.398L113.662 231.972L113.608 231.999Z" fill="url(#paint68_linear_925_10170)" stroke="#64B5C8" stroke-linejoin="round"/>
<path d="M117.653 227.114C119.118 227.955 119.389 228.742 118.439 229.284C117.598 229.773 116.242 229.637 114.804 228.823C113.366 227.982 113.203 227.168 114.071 226.68C114.967 226.164 116.296 226.327 117.68 227.114H117.653ZM115.401 228.497C116.513 229.149 117.49 229.311 118.032 229.013C118.629 228.66 118.222 228.09 117.11 227.466C116.052 226.842 115.075 226.598 114.478 226.951C113.963 227.249 114.234 227.819 115.401 228.497Z" fill="url(#paint69_linear_925_10170)" stroke="#64B5C8" stroke-linejoin="round"/>
<path d="M117.895 225.187L117.543 225.866L117 225.676L117.434 224.835L117.922 224.536L122.236 227.032L121.666 227.358L117.895 225.187Z" fill="url(#paint70_linear_925_10170)" stroke="#64B5C8" stroke-linejoin="round"/>
<path d="M125.844 222.395C127.309 223.236 127.58 224.023 126.631 224.565C125.79 225.054 124.433 224.918 122.995 224.104C121.557 223.263 121.395 222.449 122.263 221.961C123.158 221.445 124.487 221.608 125.871 222.395H125.844ZM123.592 223.779C124.705 224.43 125.681 224.593 126.224 224.294C126.821 223.941 126.414 223.372 125.301 222.748C124.243 222.124 123.267 221.88 122.67 222.232C122.154 222.531 122.426 223.1 123.592 223.779Z" fill="url(#paint71_linear_925_10170)" stroke="#64B5C8" stroke-linejoin="round"/>
<path d="M97.873 249.904V252.292L99.745 251.695L138.921 228.58L137.077 227.44L99.2296 249.66L97.873 249.904Z" fill="url(#paint72_linear_925_10170)" stroke="#64B5C8" stroke-linejoin="round"/>
</g>
<defs>
<linearGradient id="paint0_linear_925_10170" x1="341.914" y1="-40.8281" x2="341.914" y2="63.7599" gradientUnits="userSpaceOnUse">
<stop stop-color="#A8C9D1"/>
<stop offset="1" stop-color="white"/>
</linearGradient>
<linearGradient id="paint1_linear_925_10170" x1="214.861" y1="17.8623" x2="214.861" y2="253.183" gradientUnits="userSpaceOnUse">
<stop stop-color="#A8C9D1"/>
<stop offset="1" stop-color="white"/>
</linearGradient>
<linearGradient id="paint2_linear_925_10170" x1="111.598" y1="192.176" x2="111.598" y2="250.607" gradientUnits="userSpaceOnUse">
<stop stop-color="#A8C9D1"/>
<stop offset="1" stop-color="white"/>
</linearGradient>
<linearGradient id="paint3_linear_925_10170" x1="214.719" y1="17.0781" x2="214.719" y2="254.134" gradientUnits="userSpaceOnUse">
<stop stop-color="#A8C9D1"/>
<stop offset="1" stop-color="white"/>
</linearGradient>
<linearGradient id="paint4_linear_925_10170" x1="270.467" y1="73.6816" x2="270.467" y2="254.542" gradientUnits="userSpaceOnUse">
<stop stop-color="#A8C9D1"/>
<stop offset="1" stop-color="white"/>
</linearGradient>
<linearGradient id="paint5_linear_925_10170" x1="247.121" y1="37.0049" x2="247.121" y2="152.828" gradientUnits="userSpaceOnUse">
<stop stop-color="#A8C9D1"/>
<stop offset="1" stop-color="white"/>
</linearGradient>
<linearGradient id="paint6_linear_925_10170" x1="316.628" y1="14.8105" x2="316.628" y2="72.739" gradientUnits="userSpaceOnUse">
<stop stop-color="#A8C9D1"/>
<stop offset="1" stop-color="white"/>
</linearGradient>
<linearGradient id="paint7_linear_925_10170" x1="247.146" y1="44.5186" x2="247.146" y2="152.108" gradientUnits="userSpaceOnUse">
<stop stop-color="#A8C9D1"/>
<stop offset="1" stop-color="white"/>
</linearGradient>
<linearGradient id="paint8_linear_925_10170" x1="341.996" y1="107.213" x2="341.996" y2="144.933" gradientUnits="userSpaceOnUse">
<stop stop-color="#A8C9D1"/>
<stop offset="1" stop-color="white"/>
</linearGradient>
<linearGradient id="paint9_linear_925_10170" x1="109.69" y1="185.74" x2="109.69" y2="246.184" gradientUnits="userSpaceOnUse">
<stop stop-color="#A8C9D1"/>
<stop offset="1" stop-color="white"/>
</linearGradient>
<linearGradient id="paint10_linear_925_10170" x1="113.598" y1="145.016" x2="113.598" y2="164.412" gradientUnits="userSpaceOnUse">
<stop stop-color="#A8C9D1"/>
<stop offset="1" stop-color="white"/>
</linearGradient>
<linearGradient id="paint11_linear_925_10170" x1="113.627" y1="142.199" x2="113.627" y2="160.101" gradientUnits="userSpaceOnUse">
<stop stop-color="#A8C9D1"/>
<stop offset="1" stop-color="white"/>
</linearGradient>
<linearGradient id="paint12_linear_925_10170" x1="113.718" y1="146.189" x2="113.718" y2="160.103" gradientUnits="userSpaceOnUse">
<stop stop-color="#A8C9D1"/>
<stop offset="1" stop-color="white"/>
</linearGradient>
<linearGradient id="paint13_linear_925_10170" x1="113.598" y1="141.463" x2="113.598" y2="160.859" gradientUnits="userSpaceOnUse">
<stop stop-color="#A8C9D1"/>
<stop offset="1" stop-color="white"/>
</linearGradient>
<linearGradient id="paint14_linear_925_10170" x1="133.893" y1="129.932" x2="133.893" y2="149.328" gradientUnits="userSpaceOnUse">
<stop stop-color="#A8C9D1"/>
<stop offset="1" stop-color="white"/>
</linearGradient>
<linearGradient id="paint15_linear_925_10170" x1="133.922" y1="127.115" x2="133.922" y2="145.017" gradientUnits="userSpaceOnUse">
<stop stop-color="#A8C9D1"/>
<stop offset="1" stop-color="white"/>
</linearGradient>
<linearGradient id="paint16_linear_925_10170" x1="134.012" y1="131.105" x2="134.012" y2="145.019" gradientUnits="userSpaceOnUse">
<stop stop-color="#A8C9D1"/>
<stop offset="1" stop-color="white"/>
</linearGradient>
<linearGradient id="paint17_linear_925_10170" x1="133.919" y1="126.379" x2="133.919" y2="145.775" gradientUnits="userSpaceOnUse">
<stop stop-color="#A8C9D1"/>
<stop offset="1" stop-color="white"/>
</linearGradient>
<linearGradient id="paint18_linear_925_10170" x1="154.076" y1="115.093" x2="154.076" y2="134.489" gradientUnits="userSpaceOnUse">
<stop stop-color="#A8C9D1"/>
<stop offset="1" stop-color="white"/>
</linearGradient>
<linearGradient id="paint19_linear_925_10170" x1="154.105" y1="112.303" x2="154.105" y2="130.205" gradientUnits="userSpaceOnUse">
<stop stop-color="#A8C9D1"/>
<stop offset="1" stop-color="white"/>
</linearGradient>
<linearGradient id="paint20_linear_925_10170" x1="154.196" y1="116.293" x2="154.196" y2="130.207" gradientUnits="userSpaceOnUse">
<stop stop-color="#A8C9D1"/>
<stop offset="1" stop-color="white"/>
</linearGradient>
<linearGradient id="paint21_linear_925_10170" x1="154.103" y1="111.566" x2="154.103" y2="130.963" gradientUnits="userSpaceOnUse">
<stop stop-color="#A8C9D1"/>
<stop offset="1" stop-color="white"/>
</linearGradient>
<linearGradient id="paint22_linear_925_10170" x1="142.112" y1="161.702" x2="142.112" y2="181.099" gradientUnits="userSpaceOnUse">
<stop stop-color="#A8C9D1"/>
<stop offset="1" stop-color="white"/>
</linearGradient>
<linearGradient id="paint23_linear_925_10170" x1="142.14" y1="158.912" x2="142.14" y2="176.814" gradientUnits="userSpaceOnUse">
<stop stop-color="#A8C9D1"/>
<stop offset="1" stop-color="white"/>
</linearGradient>
<linearGradient id="paint24_linear_925_10170" x1="142.231" y1="162.902" x2="142.231" y2="176.816" gradientUnits="userSpaceOnUse">
<stop stop-color="#A8C9D1"/>
<stop offset="1" stop-color="white"/>
</linearGradient>
<linearGradient id="paint25_linear_925_10170" x1="142.138" y1="158.176" x2="142.138" y2="177.572" gradientUnits="userSpaceOnUse">
<stop stop-color="#A8C9D1"/>
<stop offset="1" stop-color="white"/>
</linearGradient>
<linearGradient id="paint26_linear_925_10170" x1="162.406" y1="146.616" x2="162.406" y2="166.013" gradientUnits="userSpaceOnUse">
<stop stop-color="#A8C9D1"/>
<stop offset="1" stop-color="white"/>
</linearGradient>
<linearGradient id="paint27_linear_925_10170" x1="162.435" y1="143.826" x2="162.435" y2="161.728" gradientUnits="userSpaceOnUse">
<stop stop-color="#A8C9D1"/>
<stop offset="1" stop-color="white"/>
</linearGradient>
<linearGradient id="paint28_linear_925_10170" x1="162.526" y1="147.816" x2="162.526" y2="161.73" gradientUnits="userSpaceOnUse">
<stop stop-color="#A8C9D1"/>
<stop offset="1" stop-color="white"/>
</linearGradient>
<linearGradient id="paint29_linear_925_10170" x1="162.433" y1="143.089" x2="162.433" y2="162.485" gradientUnits="userSpaceOnUse">
<stop stop-color="#A8C9D1"/>
<stop offset="1" stop-color="white"/>
</linearGradient>
<linearGradient id="paint30_linear_925_10170" x1="182.59" y1="131.803" x2="182.59" y2="151.199" gradientUnits="userSpaceOnUse">
<stop stop-color="#A8C9D1"/>
<stop offset="1" stop-color="white"/>
</linearGradient>
<linearGradient id="paint31_linear_925_10170" x1="182.619" y1="129.016" x2="182.619" y2="146.918" gradientUnits="userSpaceOnUse">
<stop stop-color="#A8C9D1"/>
<stop offset="1" stop-color="white"/>
</linearGradient>
<linearGradient id="paint32_linear_925_10170" x1="182.71" y1="132.977" x2="182.71" y2="146.891" gradientUnits="userSpaceOnUse">
<stop stop-color="#A8C9D1"/>
<stop offset="1" stop-color="white"/>
</linearGradient>
<linearGradient id="paint33_linear_925_10170" x1="182.616" y1="128.25" x2="182.616" y2="147.647" gradientUnits="userSpaceOnUse">
<stop stop-color="#A8C9D1"/>
<stop offset="1" stop-color="white"/>
</linearGradient>
<linearGradient id="paint34_linear_925_10170" x1="170.707" y1="178.359" x2="170.707" y2="197.756" gradientUnits="userSpaceOnUse">
<stop stop-color="#A8C9D1"/>
<stop offset="1" stop-color="white"/>
</linearGradient>
<linearGradient id="paint35_linear_925_10170" x1="170.736" y1="175.543" x2="170.736" y2="193.445" gradientUnits="userSpaceOnUse">
<stop stop-color="#A8C9D1"/>
<stop offset="1" stop-color="white"/>
</linearGradient>
<linearGradient id="paint36_linear_925_10170" x1="170.827" y1="179.532" x2="170.827" y2="193.446" gradientUnits="userSpaceOnUse">
<stop stop-color="#A8C9D1"/>
<stop offset="1" stop-color="white"/>
</linearGradient>
<linearGradient id="paint37_linear_925_10170" x1="170.734" y1="174.806" x2="170.734" y2="194.202" gradientUnits="userSpaceOnUse">
<stop stop-color="#A8C9D1"/>
<stop offset="1" stop-color="white"/>
</linearGradient>
<linearGradient id="paint38_linear_925_10170" x1="191.002" y1="163.249" x2="191.002" y2="182.646" gradientUnits="userSpaceOnUse">
<stop stop-color="#A8C9D1"/>
<stop offset="1" stop-color="white"/>
</linearGradient>
<linearGradient id="paint39_linear_925_10170" x1="191.031" y1="160.459" x2="191.031" y2="178.361" gradientUnits="userSpaceOnUse">
<stop stop-color="#A8C9D1"/>
<stop offset="1" stop-color="white"/>
</linearGradient>
<linearGradient id="paint40_linear_925_10170" x1="191.122" y1="164.449" x2="191.122" y2="178.363" gradientUnits="userSpaceOnUse">
<stop stop-color="#A8C9D1"/>
<stop offset="1" stop-color="white"/>
</linearGradient>
<linearGradient id="paint41_linear_925_10170" x1="191.029" y1="159.723" x2="191.029" y2="179.119" gradientUnits="userSpaceOnUse">
<stop stop-color="#A8C9D1"/>
<stop offset="1" stop-color="white"/>
</linearGradient>
<linearGradient id="paint42_linear_925_10170" x1="211.186" y1="148.436" x2="211.186" y2="167.832" gradientUnits="userSpaceOnUse">
<stop stop-color="#A8C9D1"/>
<stop offset="1" stop-color="white"/>
</linearGradient>
<linearGradient id="paint43_linear_925_10170" x1="211.215" y1="145.646" x2="211.215" y2="163.549" gradientUnits="userSpaceOnUse">
<stop stop-color="#A8C9D1"/>
<stop offset="1" stop-color="white"/>
</linearGradient>
<linearGradient id="paint44_linear_925_10170" x1="211.332" y1="149.609" x2="211.332" y2="163.523" gradientUnits="userSpaceOnUse">
<stop stop-color="#A8C9D1"/>
<stop offset="1" stop-color="white"/>
</linearGradient>
<linearGradient id="paint45_linear_925_10170" x1="211.212" y1="144.909" x2="211.212" y2="164.306" gradientUnits="userSpaceOnUse">
<stop stop-color="#A8C9D1"/>
<stop offset="1" stop-color="white"/>
</linearGradient>
<linearGradient id="paint46_linear_925_10170" x1="256.18" y1="150.868" x2="256.18" y2="231.616" gradientUnits="userSpaceOnUse">
<stop stop-color="#A8C9D1"/>
<stop offset="1" stop-color="white"/>
</linearGradient>
<linearGradient id="paint47_linear_925_10170" x1="316.617" y1="8.73535" x2="316.617" y2="65.8888" gradientUnits="userSpaceOnUse">
<stop stop-color="#A8C9D1"/>
<stop offset="1" stop-color="white"/>
</linearGradient>
<linearGradient id="paint48_linear_925_10170" x1="316.617" y1="14.7842" x2="316.617" y2="71.9376" gradientUnits="userSpaceOnUse">
<stop stop-color="#A8C9D1"/>
<stop offset="1" stop-color="white"/>
</linearGradient>
<linearGradient id="paint49_linear_925_10170" x1="316.615" y1="7.99609" x2="316.615" y2="66.6895" gradientUnits="userSpaceOnUse">
<stop stop-color="#A8C9D1"/>
<stop offset="1" stop-color="white"/>
</linearGradient>
<linearGradient id="paint50_linear_925_10170" x1="247.146" y1="50.5703" x2="247.146" y2="148.826" gradientUnits="userSpaceOnUse">
<stop stop-color="#A8C9D1"/>
<stop offset="1" stop-color="white"/>
</linearGradient>
<linearGradient id="paint51_linear_925_10170" x1="247.161" y1="43.7822" x2="247.161" y2="152.857" gradientUnits="userSpaceOnUse">
<stop stop-color="#A8C9D1"/>
<stop offset="1" stop-color="white"/>
</linearGradient>
<linearGradient id="paint52_linear_925_10170" x1="316.614" y1="18.6416" x2="316.614" y2="74.2862" gradientUnits="userSpaceOnUse">
<stop stop-color="#A8C9D1"/>
<stop offset="1" stop-color="white"/>
</linearGradient>
<linearGradient id="paint53_linear_925_10170" x1="109.907" y1="191.633" x2="109.907" y2="234.191" gradientUnits="userSpaceOnUse">
<stop stop-color="#A8C9D1"/>
<stop offset="1" stop-color="white"/>
</linearGradient>
<linearGradient id="paint54_linear_925_10170" x1="109.88" y1="193.943" x2="109.88" y2="231.852" gradientUnits="userSpaceOnUse">
<stop stop-color="#A8C9D1"/>
<stop offset="1" stop-color="white"/>
</linearGradient>
<linearGradient id="paint55_linear_925_10170" x1="92.6511" y1="198.413" x2="92.6511" y2="252.084" gradientUnits="userSpaceOnUse">
<stop stop-color="#A8C9D1"/>
<stop offset="1" stop-color="white"/>
</linearGradient>
<linearGradient id="paint56_linear_925_10170" x1="92.8543" y1="197.896" x2="92.8543" y2="252.483" gradientUnits="userSpaceOnUse">
<stop stop-color="#A8C9D1"/>
<stop offset="1" stop-color="white"/>
</linearGradient>
<linearGradient id="paint57_linear_925_10170" x1="91.7287" y1="196.188" x2="91.7287" y2="249.886" gradientUnits="userSpaceOnUse">
<stop stop-color="#A8C9D1"/>
<stop offset="1" stop-color="white"/>
</linearGradient>
<linearGradient id="paint58_linear_925_10170" x1="92.1735" y1="202.522" x2="92.1735" y2="248.177" gradientUnits="userSpaceOnUse">
<stop stop-color="#A8C9D1"/>
<stop offset="1" stop-color="white"/>
</linearGradient>
<linearGradient id="paint59_linear_925_10170" x1="91.9319" y1="195.753" x2="91.9319" y2="250.285" gradientUnits="userSpaceOnUse">
<stop stop-color="#A8C9D1"/>
<stop offset="1" stop-color="white"/>
</linearGradient>
<linearGradient id="paint60_linear_925_10170" x1="85.5147" y1="218.718" x2="85.5147" y2="225.215" gradientUnits="userSpaceOnUse">
<stop stop-color="#A8C9D1"/>
<stop offset="1" stop-color="white"/>
</linearGradient>
<linearGradient id="paint61_linear_925_10170" x1="75.8819" y1="224.267" x2="75.8819" y2="230.803" gradientUnits="userSpaceOnUse">
<stop stop-color="#A8C9D1"/>
<stop offset="1" stop-color="white"/>
</linearGradient>
<linearGradient id="paint62_linear_925_10170" x1="80.7267" y1="220.957" x2="80.7267" y2="228.526" gradientUnits="userSpaceOnUse">
<stop stop-color="#A8C9D1"/>
<stop offset="1" stop-color="white"/>
</linearGradient>
<linearGradient id="paint63_linear_925_10170" x1="94.4804" y1="238.974" x2="94.4804" y2="242.158" gradientUnits="userSpaceOnUse">
<stop stop-color="#A8C9D1"/>
<stop offset="1" stop-color="white"/>
</linearGradient>
<linearGradient id="paint64_linear_925_10170" x1="97.8983" y1="237.018" x2="97.8983" y2="240.202" gradientUnits="userSpaceOnUse">
<stop stop-color="#A8C9D1"/>
<stop offset="1" stop-color="white"/>
</linearGradient>
<linearGradient id="paint65_linear_925_10170" x1="101.29" y1="235.039" x2="101.29" y2="238.224" gradientUnits="userSpaceOnUse">
<stop stop-color="#A8C9D1"/>
<stop offset="1" stop-color="white"/>
</linearGradient>
<linearGradient id="paint66_linear_925_10170" x1="104.641" y1="233.192" x2="104.641" y2="236.014" gradientUnits="userSpaceOnUse">
<stop stop-color="#A8C9D1"/>
<stop offset="1" stop-color="white"/>
</linearGradient>
<linearGradient id="paint67_linear_925_10170" x1="109.484" y1="230.317" x2="109.484" y2="233.502" gradientUnits="userSpaceOnUse">
<stop stop-color="#A8C9D1"/>
<stop offset="1" stop-color="white"/>
</linearGradient>
<linearGradient id="paint68_linear_925_10170" x1="113.106" y1="228.328" x2="113.106" y2="231.999" gradientUnits="userSpaceOnUse">
<stop stop-color="#A8C9D1"/>
<stop offset="1" stop-color="white"/>
</linearGradient>
<linearGradient id="paint69_linear_925_10170" x1="116.267" y1="226.383" x2="116.267" y2="229.568" gradientUnits="userSpaceOnUse">
<stop stop-color="#A8C9D1"/>
<stop offset="1" stop-color="white"/>
</linearGradient>
<linearGradient id="paint70_linear_925_10170" x1="119.618" y1="224.536" x2="119.618" y2="227.358" gradientUnits="userSpaceOnUse">
<stop stop-color="#A8C9D1"/>
<stop offset="1" stop-color="white"/>
</linearGradient>
<linearGradient id="paint71_linear_925_10170" x1="124.459" y1="221.664" x2="124.459" y2="224.849" gradientUnits="userSpaceOnUse">
<stop stop-color="#A8C9D1"/>
<stop offset="1" stop-color="white"/>
</linearGradient>
<linearGradient id="paint72_linear_925_10170" x1="118.397" y1="227.44" x2="118.397" y2="252.292" gradientUnits="userSpaceOnUse">
<stop stop-color="#A8C9D1"/>
<stop offset="1" stop-color="white"/>
</linearGradient>
<clipPath id="clip0_925_10170">
<rect width="462" height="291" rx="8" fill="white"/>
</clipPath>
</defs>
</svg>
