<svg width="462" height="291" viewBox="0 0 462 291" fill="none" xmlns="http://www.w3.org/2000/svg">
<g clip-path="url(#clip0_925_10493)">
<rect width="462" height="291" rx="8" fill="#F6F7F8"/>
<path d="M100.243 371.352L100.355 371.278C100.355 371.278 100.69 371.166 100.877 371.091L240.944 290.425C249.175 284.988 254.091 275.789 254.054 265.92L253.942 -96.9305C253.905 -97.6009 253.793 -98.234 253.681 -98.8299C251.819 -112.274 235.805 -119.797 223.552 -112.721L223.329 -112.609C223.329 -112.609 223.068 -112.46 222.919 -112.386L82.9631 -31.6823C74.8816 -26.3194 70.0401 -17.2696 70.0774 -7.58662L70.3381 353.997C70.3381 354.705 70.4125 355.338 70.5243 355.971C71.4553 370.235 87.5439 378.652 100.206 371.352H100.243Z" fill="url(#paint0_linear_925_10493)" stroke="#64B5C8" stroke-linejoin="round"/>
<path d="M100.616 371.986L100.802 371.911C100.802 371.911 101.025 371.837 101.212 371.725L241.317 291.021C249.771 285.435 254.798 276.05 254.761 265.92L254.649 -96.9671C254.612 -97.6002 254.5 -98.2333 254.389 -98.9409C253.495 -105.347 249.324 -110.97 243.216 -113.95C236.773 -117.115 229.25 -116.892 223.142 -113.354L222.807 -113.167C222.807 -113.167 222.621 -113.093 222.547 -113.018L82.5533 -32.2775C78.6802 -29.7078 75.5146 -26.3188 73.2801 -22.4083C70.7476 -17.9765 69.3696 -12.8744 69.3696 -7.58597L69.6303 353.998C69.6303 354.668 69.7048 355.339 69.8165 356.009C70.2634 362.862 74.2483 368.969 80.4305 372.247C86.7989 375.673 94.3591 375.561 100.579 371.949L100.616 371.986ZM103.409 8.94953C103.409 8.94953 85.9796 3.6984 80.2443 -3.41485C74.5463 -10.4536 77.5629 -18.5352 77.6001 -18.6841C79.8347 -23.0042 83.112 -26.7284 87.2831 -29.4843L227.202 -110.225C227.202 -110.225 227.462 -110.374 227.611 -110.449L227.835 -110.56C232.49 -113.242 237.704 -113.763 242.434 -112.721C242.471 -112.721 242.546 -112.683 242.583 -112.646C248.244 -109.853 252.117 -104.676 252.936 -98.7175C253.085 -98.0471 253.16 -97.4885 253.197 -96.9671L253.309 265.883C253.309 267.931 253.048 269.942 252.638 271.879C251.67 275.417 247.983 285.323 235.916 290.575C234.799 291.059 233.794 291.506 232.9 291.878C232.714 291.692 232.602 291.431 232.527 291.096L103.409 8.94953Z" fill="url(#paint1_linear_925_10493)"/>
<path d="M100.616 371.986L100.318 371.502M100.616 371.986L100.802 371.911C100.802 371.911 101.025 371.837 101.212 371.725L241.317 291.021C249.771 285.435 254.798 276.05 254.761 265.92L254.649 -96.9671C254.612 -97.6002 254.5 -98.2333 254.389 -98.9409C253.495 -105.347 249.324 -110.97 243.216 -113.95C236.773 -117.115 229.25 -116.892 223.142 -113.354L222.807 -113.167C222.807 -113.167 222.621 -113.093 222.547 -113.018L82.5533 -32.2775C78.6802 -29.7078 75.5146 -26.3188 73.2801 -22.4083C70.7476 -17.9765 69.3696 -12.8744 69.3696 -7.58597L69.6303 353.998C69.6303 354.668 69.7048 355.339 69.8165 356.009C70.2634 362.862 74.2483 368.969 80.4305 372.247C86.7989 375.673 94.3591 375.561 100.579 371.949L100.616 371.986ZM103.409 8.94953C103.409 8.94953 85.9796 3.6984 80.2443 -3.41485C74.5463 -10.4536 77.5629 -18.5352 77.6001 -18.6841C79.8347 -23.0042 83.112 -26.7284 87.2831 -29.4843L227.202 -110.225C227.202 -110.225 227.462 -110.374 227.611 -110.449L227.835 -110.56C232.49 -113.242 237.704 -113.763 242.434 -112.721C242.471 -112.721 242.546 -112.683 242.583 -112.646C248.244 -109.853 252.117 -104.676 252.936 -98.7175C253.085 -98.0471 253.16 -97.4885 253.197 -96.9671L253.309 265.883C253.309 267.931 253.048 269.942 252.638 271.879C251.67 275.417 247.983 285.323 235.916 290.575C234.799 291.059 233.794 291.506 232.9 291.878C232.714 291.692 232.602 291.431 232.527 291.096L103.409 8.94953Z" stroke="#64B5C8" stroke-linejoin="round"/>
<path d="M73.4668 35.4683V30.0309C73.4668 28.4668 74.7703 27.9081 76.3344 28.8392C77.8986 29.733 79.2021 31.7441 79.2021 33.3455V38.7828C79.2021 40.347 77.8986 40.9056 76.3344 39.9746C74.7703 39.0808 73.4668 37.0697 73.4668 35.4683Z" fill="url(#paint2_linear_925_10493)" stroke="#64B5C8" stroke-linejoin="round"/>
<path d="M79.1638 33.3073C79.1638 31.7431 77.8975 29.7321 76.2961 28.801C75.9237 28.5775 75.5513 28.5031 75.2161 28.4658C75.1416 28.652 75.1416 28.8382 75.1416 29.0989V34.5363C75.1416 36.1005 76.4078 38.1115 77.972 39.0426C78.3444 39.266 78.7168 39.3778 79.0148 39.4523C79.0893 39.266 79.1265 39.0426 79.1265 38.7819V33.3445L79.1638 33.3073Z" fill="url(#paint3_linear_925_10493)" stroke="#64B5C8" stroke-linejoin="round"/>
<path d="M74.9559 28.0186H75.2538C75.589 28.1303 75.9987 28.2048 76.4456 28.4655C78.1587 29.4338 79.4994 31.5566 79.4994 33.2697V38.707C79.4994 38.9677 79.4622 39.2284 79.3877 39.4891L79.276 39.7871H78.978C78.6056 39.6753 78.1959 39.5264 77.7863 39.3029C76.0731 38.3346 74.7324 36.2118 74.7324 34.4987V29.0613C74.7324 28.8006 74.7697 28.5772 74.8441 28.3165L74.9559 28.0186ZM78.7918 33.3069C78.7918 31.8545 77.6001 29.9924 76.1104 29.1358C75.8869 29.0241 75.7007 28.9496 75.5145 28.9124C75.5145 28.9868 75.5145 29.0241 75.5145 29.0986V34.5359C75.5145 35.9884 76.7063 37.8505 78.1587 38.707C78.3449 38.8188 78.5684 38.9305 78.7546 38.9677C78.7546 38.8933 78.7546 38.8188 78.7546 38.7443V33.3069H78.7918Z" fill="url(#paint4_linear_925_10493)" stroke="#64B5C8" stroke-linejoin="round"/>
<path d="M70.9341 36.4352C70.9341 34.8711 72.2003 34.3124 73.8017 35.2435C75.3659 36.1373 76.6694 38.1484 76.6694 39.7498C76.6694 41.3139 75.4031 41.8726 73.8017 40.9415C72.2376 40.0477 70.9341 38.0366 70.9341 36.4352Z" fill="url(#paint5_linear_925_10493)" stroke="#64B5C8" stroke-linejoin="round"/>
<path d="M70.7851 35.2445C70.9341 34.9838 71.1575 34.7603 71.4182 34.6114C72.0886 34.2017 73.0569 34.3134 74.0252 34.8721C75.7383 35.8776 77.1163 38.0004 77.1163 39.7508C77.1163 40.6073 76.7811 41.2405 76.2225 41.6129C75.5521 42.0225 74.5838 41.9108 73.6155 41.3522C71.9024 40.3466 70.5244 38.2238 70.5244 36.4735C70.5244 35.9893 70.6361 35.5796 70.8224 35.2445H70.7851ZM75.999 40.4956C76.148 40.2722 76.1852 39.9742 76.1852 39.7135C76.1852 38.2983 74.9935 36.399 73.541 35.5797C72.8334 35.17 72.2376 35.0955 71.8279 35.319C71.4182 35.5424 71.3437 36.0266 71.3437 36.399C71.3437 37.8142 72.5355 39.6763 73.9879 40.5329C74.6583 40.9425 75.3286 41.017 75.7011 40.7936C75.85 40.7191 75.9245 40.6073 75.999 40.4956Z" fill="url(#paint6_linear_925_10493)" stroke="#64B5C8" stroke-linejoin="round"/>
<path d="M73.7266 35.2789C75.2908 36.1727 76.5943 38.1838 76.5943 39.7852C76.5943 40.4556 76.3708 40.9397 75.9612 41.2004L77.8977 40.3439C77.9722 40.3439 78.0467 40.2694 78.1212 40.2321L78.2702 40.1576L78.3819 40.0832C78.8288 39.8225 78.9778 39.4128 78.9778 38.7052C78.9778 37.141 77.7115 35.13 76.1101 34.1989C75.328 33.752 74.6577 33.6775 74.1363 33.8637C74.1363 33.8637 73.9873 33.9382 73.9501 33.9382L71.79 34.9065C72.3114 34.7203 72.9818 34.832 73.7266 35.2417V35.2789Z" fill="url(#paint7_linear_925_10493)"/>
<path d="M74.1363 33.8637C74.6577 33.6775 75.328 33.752 76.1101 34.1989C77.7115 35.13 78.9778 37.141 78.9778 38.7052C78.9778 39.4128 78.8288 39.8225 78.3819 40.0832L78.2702 40.1576L78.1212 40.2321C78.0467 40.2694 77.9722 40.3439 77.8977 40.3439L75.9612 41.2004C76.3708 40.9397 76.5943 40.4556 76.5943 39.7852C76.5943 38.1838 75.2908 36.1727 73.7266 35.2789V35.2417C72.9818 34.832 72.3114 34.7203 71.79 34.9065L73.9501 33.9382C73.9873 33.9382 74.1363 33.8637 74.1363 33.8637ZM74.1363 33.8637H74.248" stroke="#64B5C8" stroke-linejoin="round"/>
<path d="M71.6045 34.535L73.7645 33.5667L73.9507 33.4922H74.0252C74.6956 33.2315 75.4777 33.3804 76.297 33.8646C78.0101 34.8701 79.3881 36.9929 79.3881 38.7433C79.3881 39.3392 79.3136 40.084 78.606 40.4937L78.3081 40.6427C78.3081 40.6427 78.1219 40.7544 78.0101 40.7916L75.8129 41.7599L75.3287 41.1268L75.7011 40.8661C76.0735 40.6054 76.148 40.1585 76.148 39.8233C76.148 38.4081 74.9563 36.5088 73.5038 35.6895C72.908 35.3543 72.3493 35.2426 71.9397 35.3915L71.6045 34.5722V34.535ZM74.2859 34.2743L74.137 34.3487L73.4294 34.6467C73.4294 34.6467 73.7645 34.7956 73.9135 34.8701C75.6266 35.8757 77.0046 37.9985 77.0046 39.7488C77.0046 39.9351 77.0046 40.084 76.9674 40.233L77.7122 39.8978C77.7122 39.8978 77.8612 39.8233 77.8984 39.8233L78.1963 39.6744C78.1963 39.6744 78.5315 39.4137 78.5315 38.6688C78.5315 37.2536 77.3398 35.3543 75.8873 34.535C75.3287 34.1998 74.7701 34.088 74.3604 34.1998H74.2487L74.2859 34.2743Z" fill="url(#paint8_linear_925_10493)" stroke="#64B5C8" stroke-linejoin="round"/>
<path d="M73.3541 46.1533C74.9182 47.0471 76.2217 49.0582 76.2217 50.6596V66.9716C76.2217 67.7165 75.9238 68.2379 75.4769 68.4613L78.0466 67.2323L78.3073 67.1206C78.9032 66.8971 79.2756 66.413 79.2756 65.5564V49.2444C79.2756 47.6802 77.9721 45.6691 76.4079 44.7381C75.6258 44.2912 75.1045 44.1422 74.5831 44.3284H74.4341V44.4029C74.4341 44.4029 74.3969 44.4029 74.3596 44.4401L71.4175 45.8181C71.9389 45.5946 72.6465 45.7064 73.4286 46.1533H73.3541Z" fill="url(#paint9_linear_925_10493)" stroke="#64B5C8" stroke-linejoin="round"/>
<path d="M71.1577 45.4094L74.3605 43.9197C75.1426 43.6218 75.8502 43.9197 76.5578 44.3666C78.271 45.3722 79.6489 47.495 79.6489 49.2453V65.5574C79.6489 66.7864 79.0158 67.3078 78.4572 67.5312L75.664 68.872L75.2916 68.0899C75.7385 67.8664 75.813 67.3823 75.813 66.9726V50.6606C75.813 49.2454 74.584 47.346 73.1688 46.5267C72.5357 46.1543 71.9398 46.0425 71.5301 46.2287L71.1577 45.4467V45.4094ZM78.6061 66.265C78.6061 66.265 78.7551 65.8553 78.7551 65.5202V49.2081C78.7551 47.7929 77.5261 45.8936 76.1109 45.0742C75.4406 44.6646 75.0309 44.5901 74.6585 44.7018L74.5095 44.7763L73.0198 45.4839C73.0198 45.4839 73.3922 45.6329 73.5412 45.7446C75.2543 46.7501 76.6323 48.8729 76.6323 50.6233V66.9354C76.6323 66.9354 76.6323 67.2333 76.6323 67.3823L78.0848 66.7119C78.0848 66.7119 78.4944 66.5257 78.6434 66.265H78.6061Z" fill="url(#paint10_linear_925_10493)" stroke="#64B5C8" stroke-linejoin="round"/>
<path d="M70.5244 63.6574V47.3454C70.5244 45.7812 71.7906 45.2226 73.3548 46.1536C74.919 47.0474 76.2225 49.0585 76.2225 50.6599V66.972C76.2225 68.5362 74.9562 69.0948 73.3921 68.1637C71.8279 67.2699 70.5244 65.2589 70.5244 63.6574Z" fill="url(#paint11_linear_925_10493)" stroke="#64B5C8" stroke-linejoin="round"/>
<path d="M70.3378 46.1156C70.4868 45.8549 70.7103 45.6314 70.971 45.4825C71.6413 45.0728 72.6096 45.1845 73.5779 45.7431C75.291 46.7487 76.669 48.8715 76.669 50.6219V66.9339C76.669 67.7905 76.3711 68.4236 75.7752 68.796C75.1048 69.2057 74.1365 69.094 73.1682 68.5353C71.4551 67.5298 70.0771 65.407 70.0771 63.6566V47.3446C70.0771 46.8604 70.1516 46.4508 70.3378 46.1156ZM75.6262 67.716C75.7752 67.4926 75.8124 67.1946 75.8124 66.9339V50.6219C75.8124 49.2067 74.5834 47.3073 73.1682 46.488C72.4979 46.1156 71.8275 46.0038 71.4551 46.2273C71.0454 46.4508 70.971 46.9349 70.971 47.3073V63.6194C70.971 65.0346 72.2 66.8967 73.6152 67.7533C74.3228 68.1629 74.9186 68.2374 75.3283 68.0139C75.4773 67.9395 75.5517 67.8277 75.6262 67.716Z" fill="url(#paint12_linear_925_10493)" stroke="#64B5C8" stroke-linejoin="round"/>
<path d="M73.4649 72.707C75.0291 73.6008 76.3326 75.6119 76.3326 77.2133V93.5253C76.3326 94.2702 76.0346 94.7916 75.5877 95.015L78.1574 93.786L78.4181 93.6743C79.014 93.4508 79.3864 92.9295 79.3864 92.1101V75.7981C79.3864 74.2339 78.0829 72.2228 76.5188 71.2918C75.7367 70.8449 75.2153 70.6959 74.6939 70.8821H74.5449V70.9566C74.5449 70.9566 74.5077 70.9566 74.4704 70.9938L71.5283 72.3718C72.0497 72.1484 72.7573 72.2601 73.5394 72.707H73.4649Z" fill="url(#paint13_linear_925_10493)" stroke="#64B5C8" stroke-linejoin="round"/>
<path d="M71.2686 71.9612L74.4714 70.4715C75.2535 70.1736 75.9611 70.4715 76.6687 70.9184C78.3818 71.9239 79.7598 74.0467 79.7598 75.7971V92.1092C79.7598 93.3382 79.1266 93.8595 78.568 94.083L75.7749 95.4237L75.4024 94.6416C75.8493 94.4182 75.9238 93.934 75.9238 93.5244V77.2123C75.9238 75.7971 74.6948 73.8978 73.2796 73.0784C72.6465 72.706 72.0506 72.5943 71.641 72.7805L71.2686 71.9984V71.9612ZM78.7542 92.854C78.7542 92.854 78.9032 92.4444 78.9032 92.1092V75.7971C78.9032 74.3819 77.6742 72.4826 76.259 71.6632C75.5886 71.2536 75.179 71.1791 74.8066 71.2908L74.6576 71.3653L73.1679 72.0729C73.1679 72.0729 73.5403 72.2219 73.6893 72.3336C75.4024 73.3391 76.7804 75.4619 76.7804 77.2123V93.5244C76.7804 93.5244 76.7804 93.8223 76.7804 93.9713L78.2328 93.3009C78.419 93.2264 78.6425 93.1147 78.7915 92.854H78.7542Z" fill="url(#paint14_linear_925_10493)" stroke="#64B5C8" stroke-linejoin="round"/>
<path d="M70.6353 90.2111V73.8991C70.6353 72.3349 71.9015 71.7763 73.4657 72.7073C75.0298 73.6012 76.3333 75.6122 76.3333 77.2136V93.5257C76.3333 95.0899 75.0671 95.6485 73.5029 94.7174C71.9387 93.8236 70.6353 91.8125 70.6353 90.2111Z" fill="url(#paint15_linear_925_10493)" stroke="#64B5C8" stroke-linejoin="round"/>
<path d="M70.4868 72.7084C70.6357 72.4477 70.8592 72.2242 71.1199 72.0752C71.7902 71.6656 72.7585 71.7773 73.7268 72.3359C75.44 73.3415 76.8179 75.4643 76.8179 77.2146V93.5267C76.8179 94.3833 76.52 95.0164 75.9241 95.3888C75.2538 95.7985 74.2855 95.6868 73.3172 95.1281C71.604 94.1226 70.2261 91.9998 70.2261 90.2494V73.9373C70.2261 73.4532 70.3006 73.0435 70.4868 72.7084ZM75.7379 94.3088C75.8869 94.0853 75.9241 93.7874 75.9241 93.5267V77.2146C75.9241 75.7994 74.6951 73.9001 73.2799 73.0808C72.6096 72.6711 71.9392 72.5966 71.5668 72.8201C71.1571 73.0435 71.0826 73.5277 71.0826 73.9001V90.2121C71.0826 91.6273 72.3116 93.4895 73.7268 94.346C74.4344 94.7557 75.0303 94.8302 75.44 94.6067C75.5889 94.5322 75.6634 94.4205 75.7379 94.3088Z" fill="url(#paint16_linear_925_10493)" stroke="#64B5C8" stroke-linejoin="round"/>
<path d="M251.819 -98.4181L251.931 264.432C251.968 274.301 247.052 283.5 238.822 288.937L98.7539 369.604C90.5978 373.216 80.7659 369.194 80.7287 359.958L80.468 -1.62581C80.4307 -11.3088 85.2722 -20.3586 93.3538 -25.7215L233.272 -106.425C243.44 -112.123 251.26 -106.984 251.856 -98.3809L251.819 -98.4181Z" fill="url(#paint17_linear_925_10493)" stroke="#64B5C8" stroke-linejoin="round"/>
<path d="M86.0182 -14.8488C88.2527 -18.722 91.3438 -22.0738 95.217 -24.6063L235.136 -105.347C240.126 -108.14 244.968 -108.587 248.729 -106.539C252.006 -104.751 254.092 -101.251 254.353 -96.9677L254.464 265.92C254.502 275.938 249.511 285.248 241.169 290.76L101.101 371.464C96.446 373.512 91.2321 373.251 87.3962 370.793C84.1933 368.708 82.443 365.393 82.4057 361.446L82.145 -0.138183C82.145 -5.38932 83.4857 -10.4543 86.0182 -14.8116V-14.8488ZM253.496 -96.9305C253.235 -100.915 251.336 -104.155 248.319 -105.794C244.856 -107.693 240.312 -107.247 235.583 -104.602L95.6639 -23.8614C87.6941 -18.573 82.9643 -9.70941 83.0016 -0.138183L83.2623 361.446C83.2623 365.095 84.9009 368.149 87.8431 370.049C91.4183 372.358 96.3343 372.618 100.654 370.682L240.685 290.015C248.804 284.652 253.608 275.64 253.571 265.92L253.459 -96.9305H253.496Z" fill="url(#paint18_linear_925_10493)" stroke="#64B5C8" stroke-linejoin="round"/>
<path d="M103.074 360.069L238.151 281.637C243.924 277.838 247.35 271.395 247.35 264.468L247.089 -91.1943C246.68 -97.1903 241.205 -100.803 234.092 -96.8179L206.57 -80.8038V-75.9623C206.57 -70.3015 203.181 -63.7096 198.935 -61.2144L137.97 -25.7971C133.724 -23.3391 130.261 -25.9088 130.261 -31.6069V-36.4484L99.1262 -18.3487C93.4654 -14.5872 90.0763 -8.25608 90.1136 -1.47801L90.486 353.291C90.486 359.771 97.711 363.607 103.111 360.069H103.074Z" fill="url(#paint19_linear_925_10493)" stroke="#64B5C8" stroke-linejoin="round"/>
<path d="M229.213 70.399L103.111 142.425C99.7963 144.325 97.1521 142.276 97.1894 137.882C97.1894 133.487 99.908 128.422 103.185 126.523L229.287 54.4966C232.602 52.5972 235.246 54.6456 235.209 59.0401C235.209 63.4347 232.49 68.4996 229.213 70.399Z" fill="url(#paint20_linear_925_10493)" stroke="#64B5C8" stroke-linejoin="round"/>
<path d="M103.297 148.16C102.552 148.16 101.844 147.974 101.211 147.602C99.5727 146.633 98.6416 144.548 98.6416 141.829C98.6416 137.025 101.546 131.625 105.196 129.539L231.298 57.5128C233.086 56.5073 234.836 56.3955 236.289 57.2149C237.927 58.1832 238.858 60.2687 238.858 62.9874C238.858 67.7916 235.953 73.1917 232.304 75.2773L106.202 147.304C105.196 147.862 104.228 148.16 103.297 148.16Z" fill="url(#paint21_linear_925_10493)" stroke="#64B5C8" stroke-linejoin="round"/>
<path d="M273.345 233.552C271.483 233.552 269.696 233.179 268.355 232.397L110.746 142.495C109.666 141.861 108.958 141.005 108.698 140.037H108.549V139.255L108.772 134.636L115.662 132.774L221.318 73.1125C224.819 71.1387 229.846 70.9524 232.826 72.6283L391.961 160.445L391.812 166.59C391.515 167.931 390.472 169.16 388.796 170.091L279.825 231.987C277.926 233.067 275.543 233.626 273.308 233.626L273.345 233.552Z" fill="url(#paint22_linear_925_10493)" stroke="#64B5C8" stroke-linejoin="round"/>
<path d="M390.21 159.366L232.601 69.4635C229.882 67.8994 225.115 68.1228 221.875 69.9477L112.234 131.881C109.032 133.706 108.622 136.425 111.341 137.952L268.949 227.854C271.668 229.419 276.435 229.195 279.675 227.37L386.113 167.261C389.316 165.437 392.966 160.893 390.247 159.366H390.21Z" fill="url(#paint23_linear_925_10493)" stroke="#64B5C8" stroke-linejoin="round"/>
<path d="M389.838 161.973L232.229 72.071C229.511 70.5068 224.744 70.7302 221.503 72.5551L111.863 134.489C108.66 136.314 110.075 137.692 112.794 139.219L267.721 226.216C270.44 227.78 275.691 229.94 278.894 228.153L383.023 168.826C386.225 167.001 392.557 163.575 389.875 162.011L389.838 161.973Z" fill="url(#paint24_linear_925_10493)" stroke="#64B5C8" stroke-linejoin="round"/>
<path d="M273.531 229.681C271.669 229.681 269.881 229.308 268.54 228.526L110.932 138.624C109.516 137.804 108.734 136.65 108.734 135.309C108.734 133.745 109.889 132.218 111.863 131.101L221.541 69.1672C225.042 67.1933 230.069 67.0071 233.049 68.683L390.657 158.586C391.551 159.07 392.035 159.926 391.998 160.895C391.998 163.241 389.168 166.406 386.486 167.896L280.048 228.005C278.149 229.085 275.765 229.644 273.531 229.644V229.681ZM228.058 69.2417C226.084 69.2417 223.962 69.7258 222.323 70.6196L112.645 132.553C111.23 133.373 110.373 134.415 110.373 135.346C110.373 136.24 111.118 136.873 111.751 137.209L269.36 227.111C271.818 228.526 276.324 228.303 279.266 226.627L385.704 166.518C388.088 165.177 390.359 162.459 390.359 160.932C390.359 160.522 390.21 160.261 389.838 160.038L232.229 70.1355C231.149 69.5024 229.66 69.2044 228.058 69.2044V69.2417Z" fill="url(#paint25_linear_925_10493)" stroke="#64B5C8" stroke-linejoin="round"/>
<path d="M177.558 121.045L172.493 118.177C170.78 117.209 170.706 115.607 172.382 114.676L186.496 106.669C188.172 105.701 190.928 105.738 192.678 106.744L197.743 109.611L177.558 121.082V121.045Z" fill="url(#paint26_linear_925_10493)" stroke="#64B5C8" stroke-linejoin="round"/>
<path d="M177.557 118.81L172.083 115.682C170.966 115.049 170.333 114.118 170.333 113.15C170.333 112.181 170.928 111.325 171.971 110.729L186.086 102.722C188.023 101.642 191.076 101.642 193.05 102.796L199.381 106.372L177.557 118.773V118.81ZM189.475 103.578C188.507 103.578 187.576 103.765 186.905 104.174L172.79 112.181C172.269 112.479 171.971 112.852 171.971 113.187C171.971 113.559 172.306 113.969 172.902 114.267L177.557 116.911L196.104 106.372L192.268 104.212C191.523 103.765 190.481 103.578 189.512 103.578H189.475Z" fill="url(#paint27_linear_925_10493)" stroke="#64B5C8" stroke-linejoin="round"/>
<path d="M199.867 110.767L208.023 115.422L187.838 126.892L179.682 122.237L199.867 110.767Z" fill="url(#paint28_linear_925_10493)" stroke="#64B5C8" stroke-linejoin="round"/>
<path d="M187.836 124.659L178.004 119.073L199.828 106.671L209.66 112.257L187.836 124.659ZM181.319 119.073L187.836 122.797L206.383 112.257L199.866 108.533L181.319 119.073Z" fill="url(#paint29_linear_925_10493)" stroke="#64B5C8" stroke-linejoin="round"/>
<path d="M194.987 130.949L189.959 128.081L210.145 116.61L215.172 119.478C216.886 120.446 216.96 122.048 215.284 122.979L201.169 130.986C199.493 131.954 196.738 131.917 194.987 130.911V130.949Z" fill="url(#paint30_linear_925_10493)" stroke="#64B5C8" stroke-linejoin="round"/>
<path d="M198.153 129.349C196.887 129.349 195.583 129.051 194.578 128.492L188.321 124.917L210.145 112.516L215.545 115.607C216.663 116.24 217.296 117.171 217.296 118.139C217.296 119.107 216.7 119.964 215.657 120.56L201.542 128.567C200.611 129.088 199.382 129.386 198.153 129.386V129.349ZM195.36 127.077C196.85 127.934 199.308 127.934 200.723 127.152L214.838 119.145C215.359 118.847 215.657 118.474 215.657 118.139C215.657 117.767 215.322 117.357 214.726 117.059L210.108 114.452L191.561 124.992L195.323 127.115L195.36 127.077Z" fill="url(#paint31_linear_925_10493)" stroke="#64B5C8" stroke-linejoin="round"/>
<path d="M279.303 200.931C281.686 202.309 280.979 204.022 277.85 205.847C274.796 207.635 271.705 208.119 269.322 206.741C266.976 205.4 267.72 203.613 270.812 201.825C273.94 200 276.919 199.553 279.303 200.931ZM270.29 206.182C272.152 207.225 274.536 206.816 276.956 205.363C279.489 203.911 280.122 202.57 278.297 201.49C276.435 200.447 274.126 200.82 271.631 202.309C269.173 203.724 268.428 205.102 270.29 206.182Z" fill="url(#paint32_linear_925_10493)" stroke="#64B5C8" stroke-linejoin="round"/>
<path d="M271.446 196.463C273.83 197.84 273.122 199.554 269.994 201.378C266.94 203.166 263.849 203.65 261.503 202.272C259.156 200.932 259.901 199.144 262.992 197.356C266.121 195.531 269.1 195.085 271.483 196.463H271.446ZM262.434 201.676C264.296 202.719 266.679 202.31 269.1 200.857C271.632 199.405 272.265 198.064 270.441 196.984C268.579 195.941 266.27 196.314 263.774 197.803C261.316 199.218 260.571 200.596 262.434 201.676Z" fill="url(#paint33_linear_925_10493)" stroke="#64B5C8" stroke-linejoin="round"/>
<path d="M263.588 191.956C265.971 193.334 265.264 195.047 262.135 196.872C259.082 198.659 255.991 199.143 253.607 197.765C251.261 196.425 252.006 194.637 255.097 192.85C258.225 191.025 261.204 190.578 263.588 191.956ZM254.575 197.207C256.437 198.25 258.821 197.84 261.242 196.387C263.774 194.935 264.407 193.594 262.582 192.514C260.757 191.434 258.411 191.844 255.916 193.334C253.458 194.749 252.713 196.127 254.575 197.207Z" fill="url(#paint34_linear_925_10493)" stroke="#64B5C8" stroke-linejoin="round"/>
<path d="M255.728 187.486C258.111 188.864 257.403 190.577 254.275 192.402C251.221 194.19 248.13 194.674 245.747 193.296C243.4 191.955 244.145 190.167 247.236 188.38C250.365 186.555 253.344 186.108 255.728 187.486ZM246.752 192.737C248.614 193.78 250.998 193.37 253.419 191.918C255.951 190.465 256.584 189.125 254.759 188.045C252.897 187.002 250.625 187.374 248.093 188.864C245.635 190.279 244.89 191.657 246.752 192.737Z" fill="url(#paint35_linear_925_10493)" stroke="#64B5C8" stroke-linejoin="round"/>
<path d="M244.37 180.968C246.754 182.346 246.046 184.059 242.918 185.884C239.864 187.672 236.773 188.156 234.389 186.778C232.043 185.437 232.788 183.65 235.879 181.862C239.007 180.037 241.987 179.59 244.37 180.968ZM235.358 186.22C237.22 187.262 239.603 186.853 242.024 185.4C244.556 183.948 245.189 182.607 243.365 181.527C241.502 180.484 239.193 180.857 236.698 182.346C234.24 183.762 233.495 185.139 235.358 186.22Z" fill="url(#paint36_linear_925_10493)" stroke="#64B5C8" stroke-linejoin="round"/>
<path d="M236.512 176.499C238.896 177.877 238.188 179.59 235.06 181.415C232.006 183.202 228.915 183.686 226.531 182.308C224.185 180.968 224.93 179.18 228.021 177.392C231.149 175.568 234.129 175.121 236.512 176.499ZM227.537 181.75C229.399 182.793 231.782 182.383 234.203 180.93C236.736 179.478 237.369 178.137 235.544 177.057C233.682 176.015 231.373 176.387 228.878 177.877C226.42 179.292 225.675 180.67 227.537 181.75Z" fill="url(#paint37_linear_925_10493)" stroke="#64B5C8" stroke-linejoin="round"/>
<path d="M228.654 171.993C231.038 173.334 230.33 175.084 227.202 176.909C224.148 178.696 221.057 179.181 218.711 177.803C216.364 176.462 217.109 174.674 220.2 172.887C223.329 171.062 226.308 170.615 228.691 171.993H228.654ZM219.679 177.244C221.541 178.287 223.924 177.877 226.345 176.425C228.878 174.972 229.511 173.631 227.686 172.551C225.824 171.509 223.552 171.881 221.02 173.371C218.562 174.786 217.817 176.164 219.679 177.244Z" fill="url(#paint38_linear_925_10493)" stroke="#64B5C8" stroke-linejoin="round"/>
<path d="M220.796 167.523C223.18 168.901 222.472 170.614 219.344 172.439C216.29 174.227 213.199 174.711 210.853 173.333C208.506 171.992 209.251 170.204 212.342 168.417C215.471 166.592 218.45 166.145 220.833 167.523H220.796ZM211.821 172.774C213.683 173.817 216.067 173.407 218.487 171.955C221.02 170.502 221.653 169.162 219.828 168.082C218.003 167.002 215.657 167.411 213.162 168.901C210.704 170.316 209.959 171.694 211.821 172.774Z" fill="url(#paint39_linear_925_10493)" stroke="#64B5C8" stroke-linejoin="round"/>
<path d="M209.439 161.005C211.822 162.346 211.115 164.097 207.986 165.921C204.933 167.709 201.841 168.193 199.495 166.815C197.149 165.475 197.894 163.687 200.985 161.899C204.113 160.074 207.093 159.628 209.476 161.005H209.439ZM200.463 166.257C202.326 167.299 204.709 166.89 207.13 165.437C209.662 163.985 210.295 162.644 208.471 161.564C206.608 160.521 204.299 160.894 201.804 162.383C199.346 163.799 198.601 165.177 200.463 166.257Z" fill="url(#paint40_linear_925_10493)" stroke="#64B5C8" stroke-linejoin="round"/>
<path d="M201.579 156.536C203.962 157.914 203.255 159.627 200.127 161.452C197.073 163.239 193.982 163.723 191.635 162.346C189.289 161.005 190.034 159.217 193.125 157.43C196.253 155.605 199.233 155.158 201.616 156.536H201.579ZM192.604 161.787C194.466 162.83 196.849 162.42 199.27 160.968C201.802 159.515 202.436 158.174 200.611 157.094C198.749 156.052 196.44 156.424 193.944 157.914C191.486 159.329 190.742 160.707 192.604 161.787Z" fill="url(#paint41_linear_925_10493)" stroke="#64B5C8" stroke-linejoin="round"/>
<path d="M193.758 152.069C196.142 153.447 195.434 155.16 192.306 156.985C189.252 158.773 186.161 159.257 183.777 157.879C181.431 156.538 182.176 154.75 185.267 152.963C188.395 151.138 191.375 150.691 193.758 152.069ZM184.746 157.283C186.608 158.326 188.991 157.916 191.412 156.464C193.945 155.011 194.578 153.67 192.753 152.59C190.891 151.548 188.582 151.92 186.086 153.41C183.628 154.825 182.884 156.203 184.746 157.283Z" fill="url(#paint42_linear_925_10493)" stroke="#64B5C8" stroke-linejoin="round"/>
<path d="M185.9 147.563C188.284 148.941 187.576 150.654 184.448 152.479C181.394 154.267 178.303 154.751 175.957 153.373C173.61 152.032 174.355 150.245 177.446 148.457C180.575 146.632 183.554 146.185 185.937 147.563H185.9ZM176.888 152.814C178.75 153.857 181.133 153.447 183.554 151.995C186.086 150.542 186.72 149.202 184.895 148.122C183.033 147.079 180.761 147.451 178.228 148.941C175.77 150.356 175.026 151.734 176.888 152.814Z" fill="url(#paint43_linear_925_10493)" stroke="#64B5C8" stroke-linejoin="round"/>
<path d="M174.541 141.083C176.925 142.461 176.217 144.174 173.089 145.999C170.035 147.786 166.944 148.27 164.56 146.892C162.214 145.552 162.959 143.764 166.05 141.976C169.178 140.152 172.158 139.705 174.541 141.083ZM165.528 146.297C167.391 147.339 169.774 146.93 172.195 145.477C174.727 144.025 175.36 142.684 173.535 141.604C171.673 140.561 169.364 140.934 166.869 142.423C164.411 143.839 163.666 145.217 165.528 146.297Z" fill="url(#paint44_linear_925_10493)" stroke="#64B5C8" stroke-linejoin="round"/>
<path d="M166.684 136.577C169.068 137.955 168.36 139.668 165.232 141.493C162.178 143.28 159.087 143.765 156.741 142.387C154.395 141.046 155.139 139.258 158.23 137.471C161.359 135.646 164.338 135.199 166.722 136.577H166.684ZM157.672 141.828C159.534 142.871 161.917 142.461 164.338 141.009C166.871 139.556 167.504 138.215 165.679 137.135C163.817 136.093 161.545 136.465 159.013 137.955C156.555 139.37 155.81 140.748 157.672 141.828Z" fill="url(#paint45_linear_925_10493)" stroke="#64B5C8" stroke-linejoin="round"/>
<path d="M158.825 132.106C161.209 133.484 160.501 135.197 157.373 137.022C154.319 138.81 151.228 139.294 148.881 137.916C146.535 136.575 147.28 134.788 150.371 133C153.499 131.175 156.479 130.728 158.862 132.106H158.825ZM149.812 137.357C151.675 138.4 154.058 137.99 156.479 136.538C159.011 135.085 159.644 133.745 157.82 132.665C155.957 131.622 153.648 131.994 151.153 133.484C148.695 134.899 147.95 136.277 149.812 137.357Z" fill="url(#paint46_linear_925_10493)" stroke="#64B5C8" stroke-linejoin="round"/>
<path d="M150.967 127.6C153.351 128.978 152.643 130.691 149.515 132.516C146.461 134.304 143.37 134.788 141.024 133.41C138.677 132.069 139.422 130.282 142.513 128.494C145.642 126.669 148.621 126.222 151.004 127.6H150.967ZM141.992 132.851C143.854 133.894 146.237 133.484 148.658 132.032C151.191 130.58 151.824 129.239 149.999 128.159C148.137 127.116 145.828 127.488 143.333 128.978C140.875 130.393 140.13 131.771 141.992 132.851Z" fill="url(#paint47_linear_925_10493)" stroke="#64B5C8" stroke-linejoin="round"/>
</g>
<defs>
<linearGradient id="paint0_linear_925_10493" x1="162.065" y1="-115.433" x2="162.065" y2="374.034" gradientUnits="userSpaceOnUse">
<stop stop-color="#A8C9D1"/>
<stop offset="1" stop-color="white"/>
</linearGradient>
<linearGradient id="paint1_linear_925_10493" x1="162.065" y1="-116.175" x2="162.065" y2="374.739" gradientUnits="userSpaceOnUse">
<stop stop-color="#A8C9D1"/>
<stop offset="1" stop-color="white"/>
</linearGradient>
<linearGradient id="paint2_linear_925_10493" x1="76.3344" y1="28.3867" x2="76.3344" y2="40.427" gradientUnits="userSpaceOnUse">
<stop stop-color="#A8C9D1"/>
<stop offset="1" stop-color="white"/>
</linearGradient>
<linearGradient id="paint3_linear_925_10493" x1="77.1527" y1="28.4658" x2="77.1527" y2="39.4523" gradientUnits="userSpaceOnUse">
<stop stop-color="#A8C9D1"/>
<stop offset="1" stop-color="white"/>
</linearGradient>
<linearGradient id="paint4_linear_925_10493" x1="77.1159" y1="28.0186" x2="77.1159" y2="39.7871" gradientUnits="userSpaceOnUse">
<stop stop-color="#A8C9D1"/>
<stop offset="1" stop-color="white"/>
</linearGradient>
<linearGradient id="paint5_linear_925_10493" x1="73.8017" y1="34.791" x2="73.8017" y2="41.394" gradientUnits="userSpaceOnUse">
<stop stop-color="#A8C9D1"/>
<stop offset="1" stop-color="white"/>
</linearGradient>
<linearGradient id="paint6_linear_925_10493" x1="73.8203" y1="34.3652" x2="73.8203" y2="41.859" gradientUnits="userSpaceOnUse">
<stop stop-color="#A8C9D1"/>
<stop offset="1" stop-color="white"/>
</linearGradient>
<linearGradient id="paint7_linear_925_10493" x1="75.3839" y1="33.7686" x2="75.3839" y2="41.2004" gradientUnits="userSpaceOnUse">
<stop stop-color="#A8C9D1"/>
<stop offset="1" stop-color="white"/>
</linearGradient>
<linearGradient id="paint8_linear_925_10493" x1="75.4963" y1="33.3652" x2="75.4963" y2="41.7599" gradientUnits="userSpaceOnUse">
<stop stop-color="#A8C9D1"/>
<stop offset="1" stop-color="white"/>
</linearGradient>
<linearGradient id="paint9_linear_925_10493" x1="75.3465" y1="44.25" x2="75.3465" y2="68.4613" gradientUnits="userSpaceOnUse">
<stop stop-color="#A8C9D1"/>
<stop offset="1" stop-color="white"/>
</linearGradient>
<linearGradient id="paint10_linear_925_10493" x1="75.4033" y1="43.7998" x2="75.4033" y2="68.872" gradientUnits="userSpaceOnUse">
<stop stop-color="#A8C9D1"/>
<stop offset="1" stop-color="white"/>
</linearGradient>
<linearGradient id="paint11_linear_925_10493" x1="73.3734" y1="45.7012" x2="73.3734" y2="68.6162" gradientUnits="userSpaceOnUse">
<stop stop-color="#A8C9D1"/>
<stop offset="1" stop-color="white"/>
</linearGradient>
<linearGradient id="paint12_linear_925_10493" x1="73.3731" y1="45.2363" x2="73.3731" y2="69.0422" gradientUnits="userSpaceOnUse">
<stop stop-color="#A8C9D1"/>
<stop offset="1" stop-color="white"/>
</linearGradient>
<linearGradient id="paint13_linear_925_10493" x1="75.4574" y1="70.8037" x2="75.4574" y2="95.015" gradientUnits="userSpaceOnUse">
<stop stop-color="#A8C9D1"/>
<stop offset="1" stop-color="white"/>
</linearGradient>
<linearGradient id="paint14_linear_925_10493" x1="75.5142" y1="70.3516" x2="75.5142" y2="95.4237" gradientUnits="userSpaceOnUse">
<stop stop-color="#A8C9D1"/>
<stop offset="1" stop-color="white"/>
</linearGradient>
<linearGradient id="paint15_linear_925_10493" x1="73.4843" y1="72.2549" x2="73.4843" y2="95.1699" gradientUnits="userSpaceOnUse">
<stop stop-color="#A8C9D1"/>
<stop offset="1" stop-color="white"/>
</linearGradient>
<linearGradient id="paint16_linear_925_10493" x1="73.522" y1="71.8291" x2="73.522" y2="95.6349" gradientUnits="userSpaceOnUse">
<stop stop-color="#A8C9D1"/>
<stop offset="1" stop-color="white"/>
</linearGradient>
<linearGradient id="paint17_linear_925_10493" x1="166.199" y1="-108.828" x2="166.199" y2="370.92" gradientUnits="userSpaceOnUse">
<stop stop-color="#A8C9D1"/>
<stop offset="1" stop-color="white"/>
</linearGradient>
<linearGradient id="paint18_linear_925_10493" x1="168.305" y1="-107.811" x2="168.305" y2="372.837" gradientUnits="userSpaceOnUse">
<stop stop-color="#A8C9D1"/>
<stop offset="1" stop-color="white"/>
</linearGradient>
<linearGradient id="paint19_linear_925_10493" x1="168.732" y1="-98.4951" x2="168.732" y2="361.416" gradientUnits="userSpaceOnUse">
<stop stop-color="#A8C9D1"/>
<stop offset="1" stop-color="white"/>
</linearGradient>
<linearGradient id="paint20_linear_925_10493" x1="166.199" y1="53.7871" x2="166.199" y2="143.135" gradientUnits="userSpaceOnUse">
<stop stop-color="#A8C9D1"/>
<stop offset="1" stop-color="white"/>
</linearGradient>
<linearGradient id="paint21_linear_925_10493" x1="168.75" y1="56.6709" x2="168.75" y2="148.16" gradientUnits="userSpaceOnUse">
<stop stop-color="#A8C9D1"/>
<stop offset="1" stop-color="white"/>
</linearGradient>
<linearGradient id="paint22_linear_925_10493" x1="250.255" y1="71.4902" x2="250.255" y2="233.626" gradientUnits="userSpaceOnUse">
<stop stop-color="#A8C9D1"/>
<stop offset="1" stop-color="white"/>
</linearGradient>
<linearGradient id="paint23_linear_925_10493" x1="250.369" y1="68.4209" x2="250.369" y2="228.897" gradientUnits="userSpaceOnUse">
<stop stop-color="#A8C9D1"/>
<stop offset="1" stop-color="white"/>
</linearGradient>
<linearGradient id="paint24_linear_925_10493" x1="250.272" y1="71.0283" x2="250.272" y2="228.827" gradientUnits="userSpaceOnUse">
<stop stop-color="#A8C9D1"/>
<stop offset="1" stop-color="white"/>
</linearGradient>
<linearGradient id="paint25_linear_925_10493" x1="250.367" y1="67.5449" x2="250.367" y2="229.681" gradientUnits="userSpaceOnUse">
<stop stop-color="#A8C9D1"/>
<stop offset="1" stop-color="white"/>
</linearGradient>
<linearGradient id="paint26_linear_925_10493" x1="184.454" y1="105.966" x2="184.454" y2="121.082" gradientUnits="userSpaceOnUse">
<stop stop-color="#A8C9D1"/>
<stop offset="1" stop-color="white"/>
</linearGradient>
<linearGradient id="paint27_linear_925_10493" x1="184.857" y1="101.921" x2="184.857" y2="118.81" gradientUnits="userSpaceOnUse">
<stop stop-color="#A8C9D1"/>
<stop offset="1" stop-color="white"/>
</linearGradient>
<linearGradient id="paint28_linear_925_10493" x1="193.852" y1="110.767" x2="193.852" y2="126.892" gradientUnits="userSpaceOnUse">
<stop stop-color="#A8C9D1"/>
<stop offset="1" stop-color="white"/>
</linearGradient>
<linearGradient id="paint29_linear_925_10493" x1="193.832" y1="106.671" x2="193.832" y2="124.659" gradientUnits="userSpaceOnUse">
<stop stop-color="#A8C9D1"/>
<stop offset="1" stop-color="white"/>
</linearGradient>
<linearGradient id="paint30_linear_925_10493" x1="203.23" y1="116.61" x2="203.23" y2="131.689" gradientUnits="userSpaceOnUse">
<stop stop-color="#A8C9D1"/>
<stop offset="1" stop-color="white"/>
</linearGradient>
<linearGradient id="paint31_linear_925_10493" x1="202.808" y1="112.516" x2="202.808" y2="129.386" gradientUnits="userSpaceOnUse">
<stop stop-color="#A8C9D1"/>
<stop offset="1" stop-color="white"/>
</linearGradient>
<linearGradient id="paint32_linear_925_10493" x1="274.332" y1="200.125" x2="274.332" y2="207.537" gradientUnits="userSpaceOnUse">
<stop stop-color="#A8C9D1"/>
<stop offset="1" stop-color="white"/>
</linearGradient>
<linearGradient id="paint33_linear_925_10493" x1="266.494" y1="195.656" x2="266.494" y2="203.068" gradientUnits="userSpaceOnUse">
<stop stop-color="#A8C9D1"/>
<stop offset="1" stop-color="white"/>
</linearGradient>
<linearGradient id="paint34_linear_925_10493" x1="258.617" y1="191.149" x2="258.617" y2="198.561" gradientUnits="userSpaceOnUse">
<stop stop-color="#A8C9D1"/>
<stop offset="1" stop-color="white"/>
</linearGradient>
<linearGradient id="paint35_linear_925_10493" x1="250.757" y1="186.68" x2="250.757" y2="194.091" gradientUnits="userSpaceOnUse">
<stop stop-color="#A8C9D1"/>
<stop offset="1" stop-color="white"/>
</linearGradient>
<linearGradient id="paint36_linear_925_10493" x1="239.4" y1="180.162" x2="239.4" y2="187.574" gradientUnits="userSpaceOnUse">
<stop stop-color="#A8C9D1"/>
<stop offset="1" stop-color="white"/>
</linearGradient>
<linearGradient id="paint37_linear_925_10493" x1="231.542" y1="175.692" x2="231.542" y2="183.104" gradientUnits="userSpaceOnUse">
<stop stop-color="#A8C9D1"/>
<stop offset="1" stop-color="white"/>
</linearGradient>
<linearGradient id="paint38_linear_925_10493" x1="223.702" y1="171.187" x2="223.702" y2="178.598" gradientUnits="userSpaceOnUse">
<stop stop-color="#A8C9D1"/>
<stop offset="1" stop-color="white"/>
</linearGradient>
<linearGradient id="paint39_linear_925_10493" x1="215.844" y1="166.717" x2="215.844" y2="174.129" gradientUnits="userSpaceOnUse">
<stop stop-color="#A8C9D1"/>
<stop offset="1" stop-color="white"/>
</linearGradient>
<linearGradient id="paint40_linear_925_10493" x1="204.487" y1="160.199" x2="204.487" y2="167.611" gradientUnits="userSpaceOnUse">
<stop stop-color="#A8C9D1"/>
<stop offset="1" stop-color="white"/>
</linearGradient>
<linearGradient id="paint41_linear_925_10493" x1="196.627" y1="155.729" x2="196.627" y2="163.141" gradientUnits="userSpaceOnUse">
<stop stop-color="#A8C9D1"/>
<stop offset="1" stop-color="white"/>
</linearGradient>
<linearGradient id="paint42_linear_925_10493" x1="188.788" y1="151.263" x2="188.788" y2="158.674" gradientUnits="userSpaceOnUse">
<stop stop-color="#A8C9D1"/>
<stop offset="1" stop-color="white"/>
</linearGradient>
<linearGradient id="paint43_linear_925_10493" x1="180.948" y1="146.757" x2="180.948" y2="154.169" gradientUnits="userSpaceOnUse">
<stop stop-color="#A8C9D1"/>
<stop offset="1" stop-color="white"/>
</linearGradient>
<linearGradient id="paint44_linear_925_10493" x1="169.571" y1="140.276" x2="169.571" y2="147.688" gradientUnits="userSpaceOnUse">
<stop stop-color="#A8C9D1"/>
<stop offset="1" stop-color="white"/>
</linearGradient>
<linearGradient id="paint45_linear_925_10493" x1="161.733" y1="135.771" x2="161.733" y2="143.182" gradientUnits="userSpaceOnUse">
<stop stop-color="#A8C9D1"/>
<stop offset="1" stop-color="white"/>
</linearGradient>
<linearGradient id="paint46_linear_925_10493" x1="153.873" y1="131.3" x2="153.873" y2="138.712" gradientUnits="userSpaceOnUse">
<stop stop-color="#A8C9D1"/>
<stop offset="1" stop-color="white"/>
</linearGradient>
<linearGradient id="paint47_linear_925_10493" x1="146.015" y1="126.794" x2="146.015" y2="134.206" gradientUnits="userSpaceOnUse">
<stop stop-color="#A8C9D1"/>
<stop offset="1" stop-color="white"/>
</linearGradient>
<clipPath id="clip0_925_10493">
<rect width="462" height="291" rx="8" fill="white"/>
</clipPath>
</defs>
</svg>
