<svg width="462" height="291" viewBox="0 0 462 291" fill="none" xmlns="http://www.w3.org/2000/svg">
<g clip-path="url(#clip0_925_10327)">
<rect width="462" height="291" rx="8" fill="#F6F7F8"/>
<path d="M208.54 254.988C210.157 251.696 211.101 247.441 211.101 242.359V-74.6062C211.101 -91.7597 200.666 -111.666 187.806 -119.098L67.5962 -188.501C62.1671 -191.639 57.1809 -192.024 53.215 -190.137H53.1957C46.2843 -187.712 40.1621 -181.782 40.1621 -181.782L44.5516 -175.082H44.5708C44.4168 -173.754 44.3205 -172.368 44.3205 -170.885V146.08C44.3205 163.233 54.7551 183.14 67.6155 190.571L187.825 259.974L191.983 268.137C191.983 268.137 202.302 266.212 208.097 255.931C208.136 255.874 208.155 255.816 208.174 255.758C208.29 255.546 208.405 255.296 208.521 255.084C208.521 255.065 208.54 255.027 208.559 255.007L208.54 254.988Z" fill="url(#paint0_linear_925_10327)" stroke="#64B5C8" stroke-linejoin="round"/>
<path d="M191.348 269.388L186.959 260.783L67.0382 191.553C53.889 183.967 43.1849 163.56 43.1849 146.079V-170.905C43.1849 -172.137 43.2619 -173.369 43.3967 -174.775L38.6992 -181.956L39.373 -182.61C39.6233 -182.86 45.7647 -188.751 52.8302 -191.235L52.9649 -191.293C57.4314 -193.295 62.668 -192.679 68.174 -189.502L188.384 -120.099C201.533 -112.514 212.237 -92.1064 212.237 -74.6256V242.339C212.237 247.441 211.332 251.85 209.58 255.45L209.522 255.546C209.368 255.873 209.272 256.085 209.156 256.278L209.06 256.451C203.073 267.078 192.619 269.138 192.176 269.215L191.348 269.369V269.388ZM45.861 -176.565L45.7069 -174.967C45.5337 -173.465 45.4567 -172.176 45.4567 -170.905V146.06C45.4567 162.809 55.641 182.331 68.174 189.57L188.672 259.146L192.561 266.789C195.025 266.096 202.553 263.382 207.077 255.334C207.25 255.026 207.328 254.853 207.405 254.68L208.521 255.007L207.501 254.526V254.487C209.137 251.195 209.965 247.114 209.965 242.359V-74.6064C209.965 -91.3556 199.781 -110.877 187.248 -118.116L67.0382 -187.519C62.1096 -190.369 57.5084 -190.908 53.7158 -189.117L53.1382 -188.848L53.0612 -188.886C47.9594 -186.961 43.339 -183.111 41.6448 -181.59L45.0716 -176.353L45.861 -176.546V-176.565Z" fill="url(#paint1_linear_925_10327)" stroke="#64B5C8" stroke-linejoin="round"/>
<path d="M177.64 266.423L57.4307 197.02C44.5703 189.589 34.1357 169.682 34.1357 152.528V-164.437C34.1357 -181.59 44.5703 -189.464 57.4307 -182.033L177.64 -112.629C190.501 -105.198 200.935 -85.2915 200.935 -68.138V248.827C200.935 265.98 190.501 273.855 177.64 266.423Z" fill="url(#paint2_linear_925_10327)" stroke="#64B5C8" stroke-linejoin="round"/>
<path d="M186.901 270.351C183.801 270.351 180.47 269.369 177.063 267.406L56.8532 198.002C43.7041 190.417 33 170.01 33 152.529V-164.436C33 -173.87 36.1381 -181.089 41.6249 -184.246C46.2261 -186.903 52.0402 -186.46 58.0084 -183.014L178.218 -113.611C191.367 -106.025 202.071 -85.6183 202.071 -68.1375V248.827C202.071 258.261 198.933 265.48 193.446 268.638C191.463 269.774 189.249 270.351 186.901 270.351ZM178.199 265.442C183.435 268.465 188.441 268.907 192.291 266.674C197.046 263.921 199.761 257.433 199.761 248.827V-68.1375C199.761 -84.8867 189.577 -104.408 177.043 -111.647L56.834 -181.05C51.5974 -184.073 46.5919 -184.516 42.7415 -182.283C37.9863 -179.53 35.2525 -173.042 35.2525 -164.436V152.529C35.2525 169.278 45.4368 188.8 57.9699 196.038L178.179 265.442H178.199Z" fill="url(#paint3_linear_925_10327)" stroke="#64B5C8" stroke-linejoin="round"/>
<path d="M170.363 -106.815L127.932 -131.054C127.354 -131.381 126.661 -130.977 126.661 -130.303V-127.608C126.661 -123.18 121.829 -120.446 118.037 -122.718L115.534 -124.219C111.298 -126.761 108.719 -131.323 108.719 -136.252V-140.776C108.719 -141.873 108.141 -142.874 107.178 -143.433L54.8899 -173.485C48.4213 -177.22 43.127 -174.159 43.127 -166.689V153.76C43.127 167.487 52.8492 184.352 64.747 191.205L180.259 257.894C186.728 261.629 192.022 258.568 192.022 251.098V-69.3703C192.022 -83.097 182.3 -99.9618 170.402 -106.815H170.363Z" fill="url(#paint4_linear_925_10327)" stroke="#64B5C8" stroke-linejoin="round"/>
<path d="M185.437 260.61C183.627 260.61 181.664 260.013 179.642 258.858L64.1302 192.169C51.8859 185.103 41.9326 167.873 41.9326 153.742V-166.708C41.9326 -170.751 43.3573 -173.793 45.9563 -175.294C48.5553 -176.796 51.9052 -176.507 55.409 -174.486L107.697 -144.433C108.987 -143.682 109.796 -142.296 109.796 -140.795V-136.27C109.796 -131.765 112.202 -127.53 116.053 -125.201L118.556 -123.699C119.98 -122.852 121.694 -122.813 123.157 -123.641C124.601 -124.469 125.467 -125.951 125.467 -127.607V-130.302C125.467 -131.015 125.833 -131.669 126.468 -132.035C127.084 -132.401 127.835 -132.401 128.451 -132.035L170.902 -107.777C183.146 -100.712 193.099 -83.4815 193.099 -69.3505V251.099C193.099 255.142 191.675 258.184 189.076 259.685C187.978 260.321 186.746 260.629 185.418 260.629L185.437 260.61ZM49.6334 -173.966C48.7093 -173.966 47.8622 -173.754 47.1114 -173.331C45.244 -172.252 44.2236 -169.904 44.2236 -166.708V153.742C44.2236 167.141 53.6763 183.505 65.266 190.205L180.778 256.894C183.55 258.492 186.092 258.781 187.959 257.703C189.827 256.624 190.847 254.276 190.847 251.08V-69.3697C190.847 -82.7691 181.413 -99.1333 169.804 -105.833L127.797 -129.84V-127.626C127.797 -125.124 126.507 -122.91 124.331 -121.677C122.156 -120.445 119.595 -120.484 117.439 -121.754L114.936 -123.256C110.393 -125.99 107.563 -130.976 107.563 -136.27V-140.795C107.563 -141.488 107.197 -142.123 106.6 -142.47L54.3116 -172.522C52.656 -173.485 51.0581 -173.966 49.6527 -173.966H49.6334Z" fill="url(#paint5_linear_925_10327)" stroke="#64B5C8" stroke-linejoin="round"/>
<path d="M204.824 65.7987C204.478 65.7987 204.131 65.7025 203.823 65.5292C203.053 65.0864 202.591 64.1046 202.591 62.8725V41.3872C202.591 39.231 203.881 36.8052 205.517 35.8619L205.902 35.6309C206.73 35.1496 207.577 35.1111 208.251 35.4961C209.021 35.9389 209.483 36.9207 209.483 38.1529V59.6381C209.483 61.7943 208.193 64.2201 206.557 65.1634L206.172 65.3945C205.71 65.664 205.248 65.7987 204.824 65.7987ZM207.269 36.5549C207.019 36.5549 206.769 36.6705 206.576 36.786L206.191 37.017C204.959 37.7293 203.919 39.7315 203.919 41.4065V62.8917C203.919 63.6425 204.131 64.2201 204.478 64.4126C204.824 64.6051 205.228 64.4511 205.517 64.2778L205.902 64.0468C207.134 63.3345 208.155 61.3323 208.155 59.6573V38.1721C208.155 37.4213 207.943 36.8437 207.596 36.6512C207.481 36.5935 207.365 36.5549 207.25 36.5549H207.269Z" fill="url(#paint6_linear_925_10327)" stroke="#64B5C8" stroke-linejoin="round"/>
<path d="M204.824 31.3184C204.478 31.3184 204.131 31.2221 203.823 31.0488C203.053 30.606 202.591 29.6242 202.591 28.3921V6.90681C202.591 4.75059 203.881 2.32484 205.517 1.3815L205.902 1.15047C206.73 0.669166 207.577 0.611411 208.251 1.0157C209.021 1.4585 209.483 2.44035 209.483 3.67247V25.1577C209.483 27.3139 208.193 29.7397 206.557 30.683L206.172 30.9141C205.71 31.1836 205.248 31.3184 204.824 31.3184ZM207.269 2.09381C207.019 2.09381 206.769 2.20933 206.576 2.32484L206.191 2.55585C204.959 3.26818 203.938 5.2704 203.938 6.94532V28.4306C203.938 29.1814 204.15 29.7589 204.497 29.9515C204.843 30.144 205.248 29.9899 205.536 29.8167L205.921 29.5857C207.154 28.8733 208.174 26.8711 208.174 25.1962V3.71099C208.174 2.96016 207.962 2.3826 207.616 2.19008C207.5 2.13232 207.385 2.09381 207.269 2.09381Z" fill="url(#paint7_linear_925_10327)" stroke="#64B5C8" stroke-linejoin="round"/>
<path d="M424.54 470.988C426.157 467.696 427.101 463.441 427.101 458.359V141.394C427.101 124.24 416.666 104.334 403.806 96.9024L283.596 27.499C278.167 24.3609 273.181 23.9758 269.215 25.8625H269.196C262.284 28.2883 256.162 34.2179 256.162 34.2179L260.552 40.9176H260.571C260.417 42.246 260.321 43.6321 260.321 45.1145V362.08C260.321 379.233 270.755 399.14 283.615 406.571L403.825 475.974L407.983 484.137C407.983 484.137 418.302 482.212 424.097 471.931C424.136 471.874 424.155 471.816 424.174 471.758C424.29 471.546 424.405 471.296 424.521 471.084C424.521 471.065 424.54 471.027 424.559 471.007L424.54 470.988Z" fill="url(#paint8_linear_925_10327)" stroke="#64B5C8" stroke-linejoin="round"/>
<path d="M407.348 485.388L402.959 476.783L283.038 407.553C269.889 399.967 259.185 379.56 259.185 362.079V45.0951C259.185 43.863 259.262 42.6309 259.397 41.2255L254.699 34.0445L255.373 33.3899C255.623 33.1396 261.765 27.2485 268.83 24.765L268.965 24.7072C273.431 22.705 278.668 23.3211 284.174 26.4977L404.384 95.9011C417.533 103.486 428.237 123.894 428.237 141.374V458.339C428.237 463.441 427.332 467.85 425.58 471.45L425.522 471.546C425.368 471.873 425.272 472.085 425.156 472.278L425.06 472.451C419.073 483.078 408.619 485.138 408.176 485.215L407.348 485.369V485.388ZM261.861 39.435L261.707 41.0329C261.534 42.5346 261.457 43.8245 261.457 45.0951V362.06C261.457 378.809 271.641 398.331 284.174 405.57L404.672 475.146L408.561 482.789C411.025 482.096 418.553 479.382 423.077 471.334C423.25 471.026 423.328 470.853 423.405 470.68L424.521 471.007L423.501 470.526V470.487C425.137 467.195 425.965 463.114 425.965 458.359V141.394C425.965 124.644 415.781 105.123 403.248 97.8841L283.038 28.4806C278.11 25.6313 273.508 25.0923 269.716 26.8827L269.138 27.1522L269.061 27.1137C263.959 29.0389 259.339 32.8893 257.645 34.4102L261.072 39.6468L261.861 39.4543V39.435Z" fill="url(#paint9_linear_925_10327)" stroke="#64B5C8" stroke-linejoin="round"/>
<path d="M393.64 482.423L273.431 413.02C260.57 405.589 250.136 385.682 250.136 368.528V51.5635C250.136 34.4099 260.57 26.5359 273.431 33.9671L393.64 103.371C406.501 110.802 416.935 130.708 416.935 147.862V464.827C416.935 481.98 406.501 489.855 393.64 482.423Z" fill="url(#paint10_linear_925_10327)" stroke="#64B5C8" stroke-linejoin="round"/>
<path d="M402.901 486.351C399.801 486.351 396.47 485.369 393.063 483.406L272.853 414.002C259.704 406.417 249 386.01 249 368.529V51.564C249 42.1305 252.138 34.911 257.625 31.7537C262.226 29.0969 268.04 29.5397 274.008 32.9858L394.218 102.389C407.367 109.975 418.071 130.382 418.071 147.863V464.827C418.071 474.261 414.933 481.48 409.446 484.638C407.463 485.774 405.249 486.351 402.901 486.351ZM394.199 481.442C399.435 484.465 404.441 484.907 408.291 482.674C413.046 479.921 415.761 473.433 415.761 464.827V147.863C415.761 131.113 405.577 111.592 393.043 104.353L272.834 34.9495C267.597 31.9269 262.592 31.4841 258.742 33.7174C253.986 36.4704 251.252 42.9583 251.252 51.564V368.529C251.252 385.278 261.437 404.8 273.97 412.038L394.179 481.442H394.199Z" fill="url(#paint11_linear_925_10327)" stroke="#64B5C8" stroke-linejoin="round"/>
<path d="M386.363 109.185L343.932 84.9462C343.354 84.619 342.661 85.0233 342.661 85.6971V88.3924C342.661 92.8203 337.829 95.5541 334.037 93.2824L331.534 91.7807C327.298 89.2394 324.719 84.6767 324.719 79.7482V75.224C324.719 74.1266 324.141 73.1255 323.178 72.5672L270.89 42.5148C264.421 38.7799 259.127 41.841 259.127 49.3108V369.76C259.127 383.487 268.849 400.352 280.747 407.205L396.259 473.894C402.728 477.629 408.022 474.568 408.022 467.098V146.63C408.022 132.903 398.3 116.038 386.402 109.185H386.363Z" fill="url(#paint12_linear_925_10327)" stroke="#64B5C8" stroke-linejoin="round"/>
<path d="M401.437 476.61C399.627 476.61 397.664 476.013 395.642 474.858L280.13 408.169C267.886 401.103 257.933 383.873 257.933 369.742V49.2921C257.933 45.2492 259.357 42.2074 261.956 40.7057C264.555 39.2041 267.905 39.4929 271.409 41.5143L323.697 71.5667C324.987 72.3175 325.796 73.7037 325.796 75.2053V79.7295C325.796 84.2345 328.202 88.4699 332.053 90.7994L334.556 92.3011C335.98 93.1482 337.694 93.1867 339.157 92.3589C340.601 91.531 341.467 90.0486 341.467 88.3929V85.6977C341.467 84.9853 341.833 84.3308 342.468 83.965C343.084 83.5992 343.835 83.5992 344.451 83.965L386.902 108.223C399.146 115.288 409.099 132.519 409.099 146.649V467.099C409.099 471.142 407.675 474.184 405.076 475.685C403.978 476.321 402.746 476.629 401.418 476.629L401.437 476.61ZM265.633 42.0341C264.709 42.0341 263.862 42.2459 263.111 42.6694C261.244 43.7475 260.224 46.0963 260.224 49.2921V369.742C260.224 383.141 269.676 399.505 281.266 406.205L396.778 472.894C399.55 474.492 402.092 474.781 403.959 473.703C405.827 472.624 406.847 470.276 406.847 467.08V146.63C406.847 133.231 397.413 116.867 385.804 110.167L343.797 86.1597V88.3737C343.797 90.8765 342.507 93.0904 340.331 94.3226C338.156 95.5547 335.595 95.5162 333.439 94.2455L330.936 92.7439C326.393 90.0101 323.563 85.0238 323.563 79.7295V75.2053C323.563 74.5122 323.197 73.8769 322.6 73.5304L270.312 43.478C268.656 42.5154 267.058 42.0341 265.653 42.0341H265.633Z" fill="url(#paint13_linear_925_10327)" stroke="#64B5C8" stroke-linejoin="round"/>
<path d="M336.501 86.5262C336.501 88.4129 335.173 89.183 333.536 88.2396C331.9 87.2963 330.571 85.0053 330.571 83.0994C330.571 81.1934 331.9 80.4426 333.536 81.3859C335.173 82.3293 336.501 84.6203 336.501 86.5262Z" fill="url(#paint14_linear_925_10327)" stroke="#64B5C8" stroke-linejoin="round"/>
<path d="M420.824 281.799C420.478 281.799 420.131 281.702 419.823 281.529C419.053 281.086 418.591 280.105 418.591 278.872V257.387C418.591 255.231 419.881 252.805 421.517 251.862L421.902 251.631C422.73 251.15 423.577 251.111 424.251 251.496C425.021 251.939 425.483 252.921 425.483 254.153V275.638C425.483 277.794 424.193 280.22 422.557 281.163L422.172 281.394C421.71 281.664 421.248 281.799 420.824 281.799ZM423.269 252.555C423.019 252.555 422.769 252.67 422.576 252.786L422.191 253.017C420.959 253.729 419.919 255.732 419.919 257.406V278.892C419.919 279.643 420.131 280.22 420.478 280.413C420.824 280.605 421.228 280.451 421.517 280.278L421.902 280.047C423.134 279.335 424.155 277.332 424.155 275.657V254.172C424.155 253.421 423.943 252.844 423.596 252.651C423.481 252.593 423.365 252.555 423.25 252.555H423.269Z" fill="url(#paint15_linear_925_10327)" stroke="#64B5C8" stroke-linejoin="round"/>
<path d="M420.824 247.318C420.478 247.318 420.131 247.222 419.823 247.049C419.053 246.606 418.591 245.624 418.591 244.392V222.907C418.591 220.751 419.881 218.325 421.517 217.381L421.902 217.15C422.73 216.669 423.577 216.611 424.251 217.016C425.021 217.458 425.483 218.44 425.483 219.672V241.158C425.483 243.314 424.193 245.74 422.557 246.683L422.172 246.914C421.71 247.184 421.248 247.318 420.824 247.318ZM423.269 218.094C423.019 218.094 422.769 218.209 422.576 218.325L422.191 218.556C420.959 219.268 419.938 221.27 419.938 222.945V244.431C419.938 245.181 420.15 245.759 420.497 245.951C420.843 246.144 421.248 245.99 421.536 245.817L421.921 245.586C423.154 244.873 424.174 242.871 424.174 241.196V219.711C424.174 218.96 423.962 218.383 423.616 218.19C423.5 218.132 423.385 218.094 423.269 218.094Z" fill="url(#paint16_linear_925_10327)" stroke="#64B5C8" stroke-linejoin="round"/>
<path d="M420.824 208.005C420.478 208.005 420.131 207.909 419.823 207.736C419.053 207.293 418.591 206.311 418.591 205.079V192.989C418.591 190.833 419.881 188.407 421.517 187.463L421.902 187.232C422.73 186.751 423.577 186.713 424.251 187.098C425.021 187.54 425.483 188.522 425.483 189.754V201.845C425.483 204.001 424.193 206.427 422.557 207.37L422.172 207.601C421.71 207.871 421.248 208.005 420.824 208.005ZM423.269 188.157C423.019 188.157 422.769 188.272 422.576 188.388L422.191 188.619C420.959 189.331 419.938 191.333 419.938 193.008V205.098C419.938 205.849 420.15 206.427 420.497 206.619C420.824 206.812 421.248 206.658 421.536 206.484L421.921 206.253C423.154 205.541 424.174 203.539 424.174 201.864V189.774C424.174 189.023 423.962 188.445 423.616 188.253C423.5 188.195 423.385 188.157 423.269 188.157Z" fill="url(#paint17_linear_925_10327)" stroke="#64B5C8" stroke-linejoin="round"/>
<path d="M422.229 197.397L421.844 197.628C420.42 198.456 419.245 197.57 419.245 195.664V192.988C419.245 191.082 420.4 188.868 421.844 188.041L422.229 187.81C423.654 186.982 424.828 187.867 424.828 189.773V192.449C424.828 194.355 423.673 196.569 422.229 197.397Z" fill="url(#paint18_linear_925_10327)" stroke="#64B5C8" stroke-linejoin="round"/>
<path d="M420.824 198.591C420.478 198.591 420.131 198.495 419.823 198.322C419.053 197.879 418.591 196.897 418.591 195.665V192.989C418.591 190.833 419.881 188.407 421.517 187.463L421.902 187.232C422.73 186.751 423.577 186.713 424.251 187.098C425.021 187.54 425.483 188.522 425.483 189.754V192.43C425.483 194.587 424.193 197.012 422.557 197.956L422.172 198.187C421.71 198.456 421.248 198.591 420.824 198.591ZM423.269 188.157C423.019 188.157 422.769 188.272 422.576 188.388L422.191 188.619C420.959 189.331 419.938 191.333 419.938 193.008V195.684C419.938 196.435 420.15 197.012 420.497 197.205C420.824 197.397 421.248 197.243 421.536 197.07L421.921 196.839C423.154 196.127 424.174 194.125 424.174 192.45V189.774C424.174 189.023 423.962 188.445 423.616 188.253C423.5 188.195 423.385 188.157 423.269 188.157Z" fill="url(#paint19_linear_925_10327)" stroke="#64B5C8" stroke-linejoin="round"/>
</g>
<defs>
<linearGradient id="paint0_linear_925_10327" x1="125.631" y1="-191.28" x2="125.631" y2="268.137" gradientUnits="userSpaceOnUse">
<stop stop-color="#A8C9D1"/>
<stop offset="1" stop-color="white"/>
</linearGradient>
<linearGradient id="paint1_linear_925_10327" x1="125.468" y1="-192.444" x2="125.468" y2="269.388" gradientUnits="userSpaceOnUse">
<stop stop-color="#A8C9D1"/>
<stop offset="1" stop-color="white"/>
</linearGradient>
<linearGradient id="paint2_linear_925_10327" x1="117.535" y1="-184.832" x2="117.535" y2="269.222" gradientUnits="userSpaceOnUse">
<stop stop-color="#A8C9D1"/>
<stop offset="1" stop-color="white"/>
</linearGradient>
<linearGradient id="paint3_linear_925_10327" x1="117.536" y1="-185.962" x2="117.536" y2="270.351" gradientUnits="userSpaceOnUse">
<stop stop-color="#A8C9D1"/>
<stop offset="1" stop-color="white"/>
</linearGradient>
<linearGradient id="paint4_linear_925_10327" x1="117.574" y1="-175.078" x2="117.574" y2="259.487" gradientUnits="userSpaceOnUse">
<stop stop-color="#A8C9D1"/>
<stop offset="1" stop-color="white"/>
</linearGradient>
<linearGradient id="paint5_linear_925_10327" x1="117.516" y1="-176.243" x2="117.516" y2="260.629" gradientUnits="userSpaceOnUse">
<stop stop-color="#A8C9D1"/>
<stop offset="1" stop-color="white"/>
</linearGradient>
<linearGradient id="paint6_linear_925_10327" x1="206.037" y1="35.2354" x2="206.037" y2="65.7987" gradientUnits="userSpaceOnUse">
<stop stop-color="#A8C9D1"/>
<stop offset="1" stop-color="white"/>
</linearGradient>
<linearGradient id="paint7_linear_925_10327" x1="206.037" y1="0.74707" x2="206.037" y2="31.3184" gradientUnits="userSpaceOnUse">
<stop stop-color="#A8C9D1"/>
<stop offset="1" stop-color="white"/>
</linearGradient>
<linearGradient id="paint8_linear_925_10327" x1="341.631" y1="24.7197" x2="341.631" y2="484.137" gradientUnits="userSpaceOnUse">
<stop stop-color="#A8C9D1"/>
<stop offset="1" stop-color="white"/>
</linearGradient>
<linearGradient id="paint9_linear_925_10327" x1="341.468" y1="23.5557" x2="341.468" y2="485.388" gradientUnits="userSpaceOnUse">
<stop stop-color="#A8C9D1"/>
<stop offset="1" stop-color="white"/>
</linearGradient>
<linearGradient id="paint10_linear_925_10327" x1="333.535" y1="31.168" x2="333.535" y2="485.222" gradientUnits="userSpaceOnUse">
<stop stop-color="#A8C9D1"/>
<stop offset="1" stop-color="white"/>
</linearGradient>
<linearGradient id="paint11_linear_925_10327" x1="333.536" y1="30.0381" x2="333.536" y2="486.351" gradientUnits="userSpaceOnUse">
<stop stop-color="#A8C9D1"/>
<stop offset="1" stop-color="white"/>
</linearGradient>
<linearGradient id="paint12_linear_925_10327" x1="333.574" y1="40.9219" x2="333.574" y2="475.487" gradientUnits="userSpaceOnUse">
<stop stop-color="#A8C9D1"/>
<stop offset="1" stop-color="white"/>
</linearGradient>
<linearGradient id="paint13_linear_925_10327" x1="333.516" y1="39.7568" x2="333.516" y2="476.629" gradientUnits="userSpaceOnUse">
<stop stop-color="#A8C9D1"/>
<stop offset="1" stop-color="white"/>
</linearGradient>
<linearGradient id="paint14_linear_925_10327" x1="333.536" y1="80.9795" x2="333.536" y2="88.6426" gradientUnits="userSpaceOnUse">
<stop stop-color="#A8C9D1"/>
<stop offset="1" stop-color="white"/>
</linearGradient>
<linearGradient id="paint15_linear_925_10327" x1="422.037" y1="251.235" x2="422.037" y2="281.799" gradientUnits="userSpaceOnUse">
<stop stop-color="#A8C9D1"/>
<stop offset="1" stop-color="white"/>
</linearGradient>
<linearGradient id="paint16_linear_925_10327" x1="422.037" y1="216.747" x2="422.037" y2="247.318" gradientUnits="userSpaceOnUse">
<stop stop-color="#A8C9D1"/>
<stop offset="1" stop-color="white"/>
</linearGradient>
<linearGradient id="paint17_linear_925_10327" x1="422.037" y1="186.837" x2="422.037" y2="208.005" gradientUnits="userSpaceOnUse">
<stop stop-color="#A8C9D1"/>
<stop offset="1" stop-color="white"/>
</linearGradient>
<linearGradient id="paint18_linear_925_10327" x1="422.037" y1="187.499" x2="422.037" y2="197.939" gradientUnits="userSpaceOnUse">
<stop stop-color="#A8C9D1"/>
<stop offset="1" stop-color="white"/>
</linearGradient>
<linearGradient id="paint19_linear_925_10327" x1="422.037" y1="186.837" x2="422.037" y2="198.591" gradientUnits="userSpaceOnUse">
<stop stop-color="#A8C9D1"/>
<stop offset="1" stop-color="white"/>
</linearGradient>
<clipPath id="clip0_925_10327">
<rect width="462" height="291" rx="8" fill="white"/>
</clipPath>
</defs>
</svg>
