<svg width="462" height="291" viewBox="0 0 462 291" fill="none" xmlns="http://www.w3.org/2000/svg">
<g clip-path="url(#clip0_925_10809)">
<rect width="462" height="291" rx="8" fill="#F6F7F8"/>
<path d="M389.716 81.6189C424.801 169.233 382.157 268.67 294.582 303.716C240.579 325.309 182.08 317.44 136.993 287.705C108.848 269.213 85.937 242.231 72.4848 208.62C37.3617 121.045 79.9668 21.5298 167.581 -13.5157C201.23 -27.0066 236.664 -29.0225 269.499 -21.4242C322.145 -9.21252 368.162 27.655 389.755 81.5801L389.716 81.6189Z" fill="url(#paint0_linear_925_10809)" stroke="#64B5C8" stroke-linejoin="round"/>
<path d="M210.65 -0.682863C202.819 -0.566562 192.817 2.22467 200.067 6.64413C207.316 11.1023 211.968 11.49 212.007 17.2663C212.046 23.0426 208.285 29.0903 210.146 33.1609C212.007 37.2314 215.069 41.9998 218.016 40.6429C221.001 39.2473 229.142 30.1758 233.755 30.6022C238.407 31.0287 254.224 31.7265 256.512 26.5704C258.799 21.4144 261.125 21.7633 264.924 16.0258C268.723 10.2882 268.491 2.61235 263.877 2.57358C259.264 2.57358 258.644 4.51194 250.929 3.93043C243.214 3.38769 239.609 -1.72958 232.088 -0.411492C224.567 0.945358 216.349 -0.799165 210.611 -0.682863H210.65Z" fill="url(#paint1_linear_925_10809)" stroke="#64B5C8" stroke-linejoin="round"/>
<path d="M181.575 1.33096C172.697 6.06055 154.05 13.2325 145.405 10.7901C141.102 9.58836 135.985 7.88261 130.557 6.8359C97.6054 30.8328 73.8024 66.2272 64.4595 106.7C66.6304 111.158 69.2666 115.268 72.1741 118.64C78.9584 126.588 85.9365 127.596 94.504 129.263C103.11 130.93 100.397 135.737 104.622 140.776C108.848 145.816 110.631 148.762 115.438 151.476C120.245 154.19 113.733 159.268 111.833 164.812C109.933 170.317 109.391 173.457 113.345 184.661C117.26 195.903 128.735 205.014 132.147 209.355C135.558 213.697 129.782 218.776 131.255 227.886C132.728 236.996 132.263 261.187 140.986 274.794C149.708 288.402 154.942 286.812 154.244 277.624C153.546 268.437 150.561 259.792 155.872 252.891C161.184 245.99 171.961 247.851 175.605 235.252C179.249 222.691 181.614 223.273 187.429 218.97C193.244 214.667 190.647 211.022 196.074 201.292C201.501 191.561 203.091 182.412 195.066 178.381C187.08 174.388 181.73 174.775 174.868 165.316C168.007 155.857 157.307 146.669 147.344 141.28C137.419 135.892 121.641 142.482 115.322 140.621C109.042 138.799 105.049 126.82 105.436 122.168C105.863 117.516 101.172 116.353 96.6362 117.477C92.1005 118.602 89.5806 115.694 88.34 109.646C87.0995 103.599 96.5199 95.9616 104.157 95.3413C111.794 94.7598 115.903 98.2876 117.415 108.173C118.927 118.059 125.479 122.944 132.535 124.688C139.59 126.471 135.171 119.106 130.17 114.105C125.169 109.104 124.82 104.529 128.58 93.4805C132.341 82.4318 141.645 83.2459 148.545 73.089C155.446 62.8932 156.803 70.5691 163.781 71.577C170.759 72.585 169.712 68.8246 172.31 62.4668C174.907 56.1477 183.785 61.5751 191.073 56.4191C198.361 51.263 183.126 43.1995 184.134 36.1826C185.142 29.2045 192.081 29.4371 188.204 18.97C184.327 8.50288 189.677 8.07644 192.43 4.19973C195.182 0.323014 190.298 -3.47617 181.42 1.25343L181.575 1.33096ZM171.224 26.9173C168.937 32.1121 166.921 31.1041 163.161 36.7641C159.361 42.4629 153.469 45.5643 149.631 46.0683C145.832 46.5335 139.551 39.7492 139.203 35.5624C138.892 31.3755 144.94 30.135 151.802 29.2433C158.664 28.3129 164.517 25.3666 170.72 20.4819C175.644 16.6052 173.511 21.8 171.224 26.956V26.9173Z" fill="url(#paint2_linear_925_10809)" stroke="#64B5C8" stroke-linejoin="round"/>
<path d="M401.423 132.131V132.596C398.748 133.759 396.112 135.775 394.677 139.303C390.801 148.84 390.064 144.653 380.954 151.127C371.843 157.601 375.294 162.679 375.798 169.192C376.302 175.705 365.718 183.032 360.485 185.358C355.29 187.684 352.964 202.455 354.67 209.665C356.375 216.837 347.769 219.783 342.497 226.335C337.224 232.887 334.239 243.858 330.789 249.13C327.377 254.403 321.058 257.543 314.856 256.496C308.614 255.411 302.838 245.098 299.465 236.143C296.092 227.188 294.929 217.264 296.868 207.494C298.806 197.764 298.147 198.966 295.821 183.769C293.495 168.572 282.795 163.998 276.903 162.563C271.01 161.09 261.318 164.502 256.046 161.478C250.851 158.415 248.564 153.996 245.152 139.652C241.741 125.308 248.796 122.09 254.379 114.337C259.923 106.583 270.816 98.4811 280.624 95.8062C290.394 93.1312 297.139 95.6898 303.109 98.7137C309.118 101.699 311.909 108.405 316.213 108.871C320.477 109.297 324.16 107.126 328.424 107.94C332.689 108.754 335.557 110.848 339.744 110.15C343.931 109.452 341.256 104.645 340.675 102.009C340.093 99.3727 336.294 100.032 331.293 99.993C326.292 99.993 325.013 98.5974 323.268 95.2634C321.485 91.9294 318.616 94.8757 316.213 93.4801C313.809 92.1233 314.274 98.2485 314.08 100.613C313.886 102.978 312.026 98.7912 312.026 98.7912C312.026 98.7912 309.971 102.009 309.079 100.536C308.226 99.0626 310.242 95.4573 309.971 91.8131C309.7 88.169 304.389 89.0219 301.093 86.1919C297.798 83.3619 293.185 82.9742 288.688 84.4861C284.191 85.9981 283.338 84.9126 281.361 88.8668C279.345 92.8599 269.576 95.5348 266.435 95.0308C263.334 94.4881 265.505 88.169 268.18 82.5865C270.816 77.0041 276.321 78.8649 279.771 73.2437C283.183 67.6224 278.531 66.8083 275.352 65.9167C272.212 64.9863 271.204 62.0012 274.499 54.8293C277.794 47.6573 282.175 49.6345 283.958 52.9684C285.742 56.3024 289.696 57.9306 293.96 57.9694C298.186 58.0469 297.178 55.0619 297.1 48.8979C297.023 42.7339 299.853 39.4775 305.435 37.1127C311.018 34.7479 320.361 30.9875 323.927 27.6147C327.494 24.242 333.813 26.4517 337.186 30.0571C340.558 33.6236 347.924 34.9805 355.755 36.2986C357.965 36.6862 359.748 35.7946 361.26 34.4765C383.9 61.032 398.631 94.7594 401.5 132.209L401.423 132.131Z" fill="url(#paint3_linear_925_10809)" stroke="#64B5C8" stroke-linejoin="round"/>
<path d="M369.44 216.218C365.292 215.521 365.641 216.877 363.198 220.173C360.756 223.429 357.189 227.151 357.848 230.562C358.507 233.974 358.818 238.161 361.686 235.641C364.555 233.121 363.586 230.097 367.656 228.275C371.727 226.414 375.643 217.265 369.44 216.218Z" fill="url(#paint4_linear_925_10809)" stroke="#64B5C8" stroke-linejoin="round"/>
</g>
<defs>
<linearGradient id="paint0_linear_925_10809" x1="75" y1="16" x2="337.5" y2="316" gradientUnits="userSpaceOnUse">
<stop stop-color="white"/>
<stop offset="1" stop-color="#A8C9D1"/>
</linearGradient>
<linearGradient id="paint1_linear_925_10809" x1="232.566" y1="-0.688477" x2="232.566" y2="40.8786" gradientUnits="userSpaceOnUse">
<stop stop-color="#A8C9D1"/>
<stop offset="1" stop-color="white"/>
</linearGradient>
<linearGradient id="paint2_linear_925_10809" x1="132.538" y1="-0.946289" x2="132.538" y2="284.764" gradientUnits="userSpaceOnUse">
<stop stop-color="#A8C9D1"/>
<stop offset="1" stop-color="white"/>
</linearGradient>
<linearGradient id="paint3_linear_925_10809" x1="322.879" y1="25.9453" x2="322.879" y2="256.696" gradientUnits="userSpaceOnUse">
<stop stop-color="#A8C9D1"/>
<stop offset="1" stop-color="white"/>
</linearGradient>
<linearGradient id="paint4_linear_925_10809" x1="365.222" y1="216.04" x2="365.222" y2="236.41" gradientUnits="userSpaceOnUse">
<stop stop-color="#A8C9D1"/>
<stop offset="1" stop-color="white"/>
</linearGradient>
<clipPath id="clip0_925_10809">
<rect width="462" height="291" rx="8" fill="white"/>
</clipPath>
</defs>
</svg>
