<svg width="462" height="291" viewBox="0 0 462 291" fill="none" xmlns="http://www.w3.org/2000/svg">
<g clip-path="url(#clip0_926_13235)">
<rect width="462" height="291" rx="8" fill="#F6F7F8"/>
<path d="M190.255 195.799C197.958 209.82 208.228 217.082 218.736 217.541C219.045 217.567 236.709 218.461 237.018 218.487C247.703 218.554 236.769 211.068 245.273 197.073C262.331 168.908 263.375 122.849 247.637 94.2035C239.851 80.0317 252.905 72.7124 242.268 72.3741C241.959 72.3476 222.625 72.0769 222.316 72.0503C211.752 72.1133 201.03 79.0343 192.657 92.9086C175.599 121.073 174.555 167.133 190.292 195.778L190.255 195.799Z" fill="url(#paint0_linear_926_13235)" stroke="#64B5C8" stroke-linejoin="round"/>
<path d="M209.892 196.445C225.651 225.128 252.227 225.541 269.285 197.376C286.343 169.212 287.387 123.152 271.65 94.5069C255.912 65.8618 229.314 65.4107 212.256 93.5755C195.198 121.74 194.154 167.8 209.892 196.445Z" fill="url(#paint1_linear_926_13235)" stroke="#64B5C8" stroke-linejoin="round"/>
<path d="M217.962 183.179C229.6 204.361 249.264 204.696 261.872 183.883C274.48 163.069 275.259 129.03 263.6 107.81C251.942 86.5902 232.299 86.293 219.69 107.106C207.082 127.92 206.304 161.959 217.962 183.179Z" fill="url(#paint2_linear_926_13235)" stroke="#64B5C8" stroke-linejoin="round"/>
<path d="M257.166 182.64C269.774 161.827 270.553 127.788 258.894 106.568C254.732 98.992 249.5 94.1136 244.006 91.8823C251.24 92.8144 258.258 98.0855 263.6 107.81C275.238 128.992 274.48 163.069 261.834 183.903C253.73 197.286 242.706 201.87 232.813 197.885C241.4 198.957 250.291 193.974 257.128 182.661L257.166 182.64Z" fill="url(#paint3_linear_926_13235)" stroke="#64B5C8" stroke-linejoin="round"/>
<path d="M192.008 94.0501C192.243 93.6752 192.4 93.2458 192.636 92.8709C192.834 92.5168 193.073 92.2381 193.292 91.9216L213.093 92.3282C212.841 92.7614 212.546 93.1193 212.273 93.5148C212.092 93.8105 211.932 94.1439 211.751 94.4397L191.987 94.0124L192.008 94.0501Z" fill="url(#paint4_linear_926_13235)" stroke="#64B5C8" stroke-linejoin="round"/>
<path d="M204.903 78.6745L224.859 79.0943C224.037 79.742 223.198 80.4482 222.343 81.2127L202.387 80.7929C203.205 80.0491 204.044 79.3429 204.903 78.6745Z" fill="url(#paint5_linear_926_13235)" stroke="#64B5C8" stroke-linejoin="round"/>
<path d="M186.592 105.271L206.297 105.682C205.997 106.386 205.756 107.108 205.514 107.829L185.809 107.419C186.05 106.697 186.292 105.976 186.592 105.271Z" fill="url(#paint6_linear_926_13235)" stroke="#64B5C8" stroke-linejoin="round"/>
<path d="M180.049 132.123L199.717 132.554C199.63 133.289 199.58 134.003 199.473 134.7L179.805 134.269C179.892 133.534 179.941 132.82 180.049 132.123Z" fill="url(#paint7_linear_926_13235)" stroke="#64B5C8" stroke-linejoin="round"/>
<path d="M182.435 118.694L202.103 119.125C201.958 119.843 201.775 120.581 201.608 121.261L181.903 120.851C182.049 120.133 182.194 119.416 182.398 118.715L182.435 118.694Z" fill="url(#paint8_linear_926_13235)" stroke="#64B5C8" stroke-linejoin="round"/>
<path d="M179.166 145.612L198.776 146.026C198.785 146.757 198.773 147.451 198.782 148.182L179.173 147.768C179.164 147.037 179.175 146.343 179.166 145.612Z" fill="url(#paint9_linear_926_13235)" stroke="#64B5C8" stroke-linejoin="round"/>
<path d="M201.471 210.05L220.792 210.475C221.669 211.269 222.585 212.041 223.534 212.698L204.271 212.289C203.322 211.633 202.407 210.86 201.491 210.087L201.471 210.05Z" fill="url(#paint10_linear_926_13235)" stroke="#64B5C8" stroke-linejoin="round"/>
<path d="M210.551 197.555C210.965 198.309 211.455 199.021 211.907 199.754L192.393 199.336C191.962 198.641 191.51 197.908 191.059 197.175L210.534 197.613L210.551 197.555Z" fill="url(#paint11_linear_926_13235)" stroke="#64B5C8" stroke-linejoin="round"/>
<path d="M186.003 186.458C185.706 185.738 185.408 185.018 185.149 184.278L204.699 184.675C204.959 185.415 205.256 186.135 205.554 186.855L186.041 186.437L186.003 186.458Z" fill="url(#paint12_linear_926_13235)" stroke="#64B5C8" stroke-linejoin="round"/>
<path d="M201.165 171.895C201.328 172.639 201.509 173.325 201.672 174.069L182.101 173.635C181.937 172.89 181.757 172.204 181.593 171.46L201.165 171.895Z" fill="url(#paint13_linear_926_13235)" stroke="#64B5C8" stroke-linejoin="round"/>
<path d="M179.914 160.903C179.809 160.176 179.724 159.486 179.657 158.738L199.266 159.152C199.333 159.9 199.418 160.59 199.523 161.317L179.914 160.903Z" fill="url(#paint14_linear_926_13235)" stroke="#64B5C8" stroke-linejoin="round"/>
<path d="M192.636 92.8733C201.031 79.0367 211.731 72.0781 222.296 72.0151C222.333 71.9944 223.373 72.0118 224.952 72.0276C215.136 73.0047 205.392 79.83 197.612 92.642C180.554 120.807 179.51 166.866 195.248 195.511C202.951 209.532 213.222 216.795 223.729 217.253C223.98 217.263 219.079 217.453 218.732 217.447C208.263 216.968 197.934 209.688 190.251 195.705C174.493 167.022 175.537 120.963 192.616 92.8356L192.636 92.8733Z" fill="url(#paint15_linear_926_13235)" stroke="#64B5C8" stroke-linejoin="round"/>
<path d="M209.592 93.3695C217.788 79.8871 228.04 73.273 238.36 72.8538C229.662 74.8846 221.147 81.6238 214.217 93.0363C197.159 121.201 196.115 167.261 211.853 195.906C220.053 210.831 231.209 218.098 242.393 217.645C229.652 220.622 216.529 213.258 207.169 196.222C191.411 167.539 192.455 121.48 209.533 93.3526L209.592 93.3695Z" fill="url(#paint16_linear_926_13235)" stroke="#64B5C8" stroke-linejoin="round"/>
<path d="M190.254 19.8075C197.957 33.8285 208.227 41.0907 218.735 41.5495C219.044 41.576 236.708 42.4696 237.017 42.4961C247.702 42.5632 236.768 35.0765 245.272 21.0817C262.33 -7.08306 263.374 -53.1426 247.636 -81.7877C239.85 -95.9595 252.904 -103.279 242.267 -103.617C241.958 -103.644 222.624 -103.914 222.315 -103.941C211.751 -103.878 201.029 -96.9569 192.656 -83.0826C175.598 -54.9178 174.554 -8.85832 190.291 19.7868L190.254 19.8075Z" fill="url(#paint17_linear_926_13235)" stroke="#64B5C8" stroke-linejoin="round"/>
<path d="M209.891 20.4537C225.65 49.1365 252.226 49.5499 269.284 21.3851C286.342 -6.77964 287.386 -52.8392 271.649 -81.4843C255.911 -110.129 229.313 -110.58 212.255 -82.4157C195.197 -54.2509 194.153 -8.1914 209.891 20.4537Z" fill="url(#paint18_linear_926_13235)" stroke="#64B5C8" stroke-linejoin="round"/>
<path d="M217.96 7.1876C229.598 28.3699 249.262 28.7048 261.87 7.89154C274.478 -12.9217 275.257 -46.961 263.598 -68.181C251.94 -89.401 232.297 -89.6982 219.689 -68.8849C207.08 -48.0716 206.302 -14.0324 217.96 7.1876Z" fill="url(#paint19_linear_926_13235)" stroke="#64B5C8" stroke-linejoin="round"/>
<path d="M257.165 6.6492C269.773 -14.1641 270.552 -48.2033 258.893 -69.4233C254.731 -76.9992 249.499 -81.8776 244.005 -84.1089C251.239 -83.1768 258.257 -77.9057 263.599 -68.1814C275.237 -46.9991 274.479 -12.9222 261.833 7.91176C253.729 21.2944 242.705 25.879 232.812 21.8934C241.399 22.9656 250.29 17.9825 257.127 6.6699L257.165 6.6492Z" fill="url(#paint20_linear_926_13235)" stroke="#64B5C8" stroke-linejoin="round"/>
<path d="M201.47 34.0586L220.791 34.4838C221.668 35.2774 222.584 36.0503 223.533 36.7064L204.27 36.2982C203.321 35.6421 202.406 34.8692 201.49 34.0963L201.47 34.0586Z" fill="url(#paint21_linear_926_13235)" stroke="#64B5C8" stroke-linejoin="round"/>
<path d="M210.55 21.5636C210.964 22.3175 211.454 23.0299 211.906 23.763L192.392 23.3452C191.961 22.6498 191.509 21.9167 191.058 21.1836L210.533 21.622L210.55 21.5636Z" fill="url(#paint22_linear_926_13235)" stroke="#64B5C8" stroke-linejoin="round"/>
<path d="M186.002 10.4669C185.705 9.7471 185.407 9.02724 185.148 8.28668L204.698 8.68372C204.958 9.42428 205.256 10.1441 205.553 10.864L186.04 10.4462L186.002 10.4669Z" fill="url(#paint23_linear_926_13235)" stroke="#64B5C8" stroke-linejoin="round"/>
<path d="M201.164 -4.09639C201.327 -3.3521 201.508 -2.66622 201.671 -1.92193L182.1 -2.35666C181.936 -3.10095 181.756 -3.78683 181.592 -4.53112L201.164 -4.09639Z" fill="url(#paint24_linear_926_13235)" stroke="#64B5C8" stroke-linejoin="round"/>
<path d="M192.634 -83.1179C201.029 -96.9545 211.73 -103.913 222.294 -103.976C222.331 -103.997 223.371 -103.979 224.95 -103.964C215.134 -102.986 205.39 -96.1612 197.61 -83.3492C180.552 -55.1844 179.508 -9.12494 195.246 19.5202C202.949 33.5412 213.22 40.8033 223.727 41.2622C223.978 41.2717 219.077 41.4617 218.73 41.4559C208.261 40.9763 197.932 33.6972 190.249 19.7138C174.491 -8.96897 175.535 -55.0285 192.614 -83.1556L192.634 -83.1179Z" fill="url(#paint25_linear_926_13235)" stroke="#64B5C8" stroke-linejoin="round"/>
<path d="M209.591 -82.6227C217.787 -96.1051 228.039 -102.719 238.359 -103.138C229.661 -101.108 221.146 -94.3684 214.216 -82.9559C197.158 -54.7911 196.114 -8.73162 211.852 19.9135C220.052 34.8391 231.208 42.1054 242.392 41.6527C229.651 44.6294 216.528 37.2661 207.168 20.2298C191.41 -8.45303 192.454 -54.5125 209.532 -82.6396L209.591 -82.6227Z" fill="url(#paint26_linear_926_13235)" stroke="#64B5C8" stroke-linejoin="round"/>
<path d="M190.254 371.808C197.957 385.829 208.227 393.091 218.735 393.55C219.044 393.576 236.708 394.47 237.017 394.496C247.702 394.563 236.768 387.077 245.272 373.082C262.33 344.917 263.374 298.857 247.636 270.212C239.85 256.041 252.904 248.721 242.267 248.383C241.958 248.356 222.624 248.086 222.315 248.059C211.751 248.122 201.029 255.043 192.656 268.917C175.598 297.082 174.554 343.142 190.291 371.787L190.254 371.808Z" fill="url(#paint27_linear_926_13235)" stroke="#64B5C8" stroke-linejoin="round"/>
<path d="M209.891 372.454C225.65 401.137 252.226 401.55 269.284 373.385C286.342 345.22 287.386 299.161 271.649 270.516C255.911 241.871 229.313 241.42 212.255 269.584C195.197 297.749 194.153 343.809 209.891 372.454Z" fill="url(#paint28_linear_926_13235)" stroke="#64B5C8" stroke-linejoin="round"/>
<path d="M217.96 359.188C229.598 380.37 249.262 380.705 261.87 359.892C274.478 339.078 275.257 305.039 263.598 283.819C251.94 262.599 232.297 262.302 219.689 283.115C207.08 303.928 206.302 337.968 217.96 359.188Z" fill="url(#paint29_linear_926_13235)" stroke="#64B5C8" stroke-linejoin="round"/>
<path d="M257.165 358.649C269.773 337.836 270.552 303.797 258.893 282.577C254.731 275.001 249.499 270.122 244.005 267.891C251.239 268.823 258.257 274.094 263.599 283.819C275.237 305.001 274.479 339.078 261.833 359.912C253.729 373.294 242.705 377.879 232.812 373.893C241.399 374.966 250.29 369.983 257.127 358.67L257.165 358.649Z" fill="url(#paint30_linear_926_13235)" stroke="#64B5C8" stroke-linejoin="round"/>
<path d="M192.007 270.059C192.242 269.684 192.399 269.255 192.635 268.88C192.833 268.526 193.072 268.247 193.291 267.93L213.092 268.337C212.84 268.77 212.545 269.128 212.272 269.524C212.091 269.819 211.931 270.153 211.75 270.448L191.986 270.021L192.007 270.059Z" fill="url(#paint31_linear_926_13235)" stroke="#64B5C8" stroke-linejoin="round"/>
<path d="M204.902 254.683L224.858 255.103C224.036 255.751 223.197 256.457 222.342 257.222L202.386 256.802C203.204 256.058 204.043 255.352 204.902 254.683Z" fill="url(#paint32_linear_926_13235)" stroke="#64B5C8" stroke-linejoin="round"/>
<path d="M186.591 281.28L206.296 281.69C205.996 282.395 205.755 283.116 205.513 283.838L185.808 283.428C186.049 282.706 186.291 281.985 186.591 281.28Z" fill="url(#paint33_linear_926_13235)" stroke="#64B5C8" stroke-linejoin="round"/>
<path d="M182.434 294.702L202.102 295.133C201.957 295.851 201.774 296.589 201.607 297.269L181.902 296.859C182.048 296.141 182.193 295.423 182.397 294.723L182.434 294.702Z" fill="url(#paint34_linear_926_13235)" stroke="#64B5C8" stroke-linejoin="round"/>
<path d="M192.634 268.882C201.029 255.046 211.73 248.087 222.294 248.024C222.331 248.003 223.371 248.021 224.95 248.036C215.134 249.014 205.39 255.839 197.61 268.651C180.552 296.816 179.508 342.875 195.246 371.52C202.949 385.541 213.22 392.803 223.727 393.262C223.978 393.272 219.077 393.462 218.73 393.456C208.261 392.976 197.932 385.697 190.249 371.714C174.491 343.031 175.535 296.972 192.614 268.844L192.634 268.882Z" fill="url(#paint35_linear_926_13235)" stroke="#64B5C8" stroke-linejoin="round"/>
<path d="M209.591 269.377C217.787 255.895 228.039 249.281 238.359 248.862C229.661 250.892 221.146 257.632 214.216 269.044C197.158 297.209 196.114 343.268 211.852 371.913C220.052 386.839 231.208 394.105 242.392 393.653C229.651 396.629 216.528 389.266 207.168 372.23C191.41 343.547 192.454 297.487 209.532 269.36L209.591 269.377Z" fill="url(#paint36_linear_926_13235)" stroke="#64B5C8" stroke-linejoin="round"/>
<path d="M334.255 67.7997C341.958 81.8207 352.228 89.0829 362.736 89.5417C363.045 89.5682 380.709 90.4618 381.018 90.4883C391.703 90.5554 380.769 83.0687 389.273 69.0739C406.331 40.9091 407.375 -5.15037 391.637 -33.7955C383.851 -47.9673 396.905 -55.2866 386.268 -55.625C385.959 -55.6515 366.625 -55.9222 366.316 -55.9487C355.752 -55.8857 345.03 -48.9647 336.657 -35.0904C319.599 -6.92563 318.555 39.1339 334.292 67.779L334.255 67.7997Z" fill="url(#paint37_linear_926_13235)" stroke="#64B5C8" stroke-linejoin="round"/>
<path d="M353.892 68.4459C369.651 97.1287 396.227 97.5421 413.285 69.3773C430.343 41.2125 431.387 -4.84696 415.65 -33.4921C399.912 -62.1372 373.314 -62.5883 356.256 -34.4235C339.198 -6.25872 338.154 39.8008 353.892 68.4459Z" fill="url(#paint38_linear_926_13235)" stroke="#64B5C8" stroke-linejoin="round"/>
<path d="M361.962 55.1798C373.6 76.3621 393.264 76.697 405.872 55.8837C418.48 35.0705 419.259 1.03122 407.6 -20.1888C395.942 -41.4088 376.299 -41.706 363.69 -20.8927C351.082 -0.0794336 350.304 33.9598 361.962 55.1798Z" fill="url(#paint39_linear_926_13235)" stroke="#64B5C8" stroke-linejoin="round"/>
<path d="M401.167 54.6414C413.775 33.8281 414.554 -0.211131 402.895 -21.4311C398.733 -29.007 393.501 -33.8854 388.007 -36.1167C395.241 -35.1846 402.259 -29.9135 407.601 -20.1893C419.239 0.993047 418.481 35.07 405.835 55.904C397.731 69.2866 386.707 73.8712 376.814 69.8856C385.401 70.9578 394.292 65.9747 401.129 54.6621L401.167 54.6414Z" fill="url(#paint40_linear_926_13235)" stroke="#64B5C8" stroke-linejoin="round"/>
<path d="M324.049 4.12409L343.717 4.55509C343.63 5.28984 343.58 6.00388 343.473 6.70094L323.805 6.26994C323.892 5.53519 323.941 4.82114 324.049 4.12409Z" fill="url(#paint41_linear_926_13235)" stroke="#64B5C8" stroke-linejoin="round"/>
<path d="M326.435 -9.30582L346.103 -8.87482C345.958 -8.15706 345.775 -7.41858 345.608 -6.73851L325.903 -7.1488C326.049 -7.86656 326.194 -8.58433 326.398 -9.28511L326.435 -9.30582Z" fill="url(#paint42_linear_926_13235)" stroke="#64B5C8" stroke-linejoin="round"/>
<path d="M323.166 17.6124L342.776 18.0264C342.785 18.7574 342.773 19.4508 342.782 20.1818L323.173 19.7678C323.164 19.0367 323.175 18.3434 323.166 17.6124Z" fill="url(#paint43_linear_926_13235)" stroke="#64B5C8" stroke-linejoin="round"/>
<path d="M345.471 82.0508L364.792 82.476C365.669 83.2696 366.585 84.0425 367.534 84.6985L348.271 84.2903C347.322 83.6343 346.407 82.8614 345.491 82.0885L345.471 82.0508Z" fill="url(#paint44_linear_926_13235)" stroke="#64B5C8" stroke-linejoin="round"/>
<path d="M354.551 69.5558C354.965 70.3097 355.455 71.0221 355.907 71.7552L336.393 71.3374C335.962 70.642 335.51 69.9089 335.059 69.1758L354.534 69.6142L354.551 69.5558Z" fill="url(#paint45_linear_926_13235)" stroke="#64B5C8" stroke-linejoin="round"/>
<path d="M330.003 58.4582C329.706 57.7383 329.408 57.0185 329.149 56.2779L348.699 56.6749C348.959 57.4155 349.256 58.1353 349.554 58.8552L330.041 58.4374L330.003 58.4582Z" fill="url(#paint46_linear_926_13235)" stroke="#64B5C8" stroke-linejoin="round"/>
<path d="M345.165 43.8958C345.328 44.6401 345.509 45.326 345.672 46.0703L326.101 45.6355C325.937 44.8912 325.757 44.2054 325.593 43.4611L345.165 43.8958Z" fill="url(#paint47_linear_926_13235)" stroke="#64B5C8" stroke-linejoin="round"/>
<path d="M323.914 32.9043C323.809 32.177 323.724 31.4874 323.657 30.7394L343.266 31.1534C343.333 31.9014 343.418 32.591 343.523 33.3183L323.914 32.9043Z" fill="url(#paint48_linear_926_13235)" stroke="#64B5C8" stroke-linejoin="round"/>
<path d="M336.636 -35.1267C345.031 -48.9633 355.731 -55.9219 366.296 -55.9849C366.333 -56.0056 367.373 -55.9882 368.952 -55.9724C359.136 -54.9953 349.392 -48.17 341.612 -35.358C324.554 -7.19324 323.51 38.8663 339.248 67.5114C346.951 81.5324 357.222 88.7946 367.729 89.2534C367.98 89.2629 363.079 89.4529 362.732 89.4471C352.263 88.9675 341.934 81.6884 334.251 67.7051C318.493 39.0222 319.537 -7.03726 336.616 -35.1644L336.636 -35.1267Z" fill="url(#paint49_linear_926_13235)" stroke="#64B5C8" stroke-linejoin="round"/>
<path d="M353.592 -34.6305C361.788 -48.1129 372.04 -54.727 382.36 -55.1462C373.662 -53.1154 365.147 -46.3762 358.217 -34.9637C341.159 -6.79893 340.115 39.2606 355.853 67.9057C364.053 82.8313 375.209 90.0976 386.393 89.6449C373.652 92.6216 360.529 85.2583 351.169 68.222C335.411 39.5392 336.455 -6.52035 353.533 -34.6474L353.592 -34.6305Z" fill="url(#paint50_linear_926_13235)" stroke="#64B5C8" stroke-linejoin="round"/>
<path d="M334.254 243.808C341.957 257.829 352.227 265.091 362.735 265.55C363.044 265.576 380.708 266.47 381.017 266.496C391.702 266.563 380.768 259.077 389.272 245.082C406.33 216.917 407.374 170.857 391.636 142.212C383.85 128.041 396.904 120.721 386.267 120.383C385.958 120.356 366.624 120.086 366.315 120.059C355.751 120.122 345.029 127.043 336.656 140.917C319.598 169.082 318.554 215.142 334.291 243.787L334.254 243.808Z" fill="url(#paint51_linear_926_13235)" stroke="#64B5C8" stroke-linejoin="round"/>
<path d="M353.891 244.454C369.65 273.137 396.226 273.55 413.284 245.385C430.342 217.22 431.386 171.161 415.649 142.516C399.911 113.871 373.313 113.42 356.255 141.584C339.197 169.749 338.153 215.809 353.891 244.454Z" fill="url(#paint52_linear_926_13235)" stroke="#64B5C8" stroke-linejoin="round"/>
<path d="M361.961 231.188C373.599 252.37 393.263 252.705 405.871 231.892C418.479 211.078 419.258 177.039 407.599 155.819C395.941 134.599 376.298 134.302 363.689 155.115C351.081 175.928 350.303 209.968 361.961 231.188Z" fill="url(#paint53_linear_926_13235)" stroke="#64B5C8" stroke-linejoin="round"/>
<path d="M401.166 230.649C413.774 209.836 414.553 175.797 402.894 154.577C398.732 147.001 393.5 142.122 388.006 139.891C395.24 140.823 402.258 146.094 407.6 155.819C419.238 177.001 418.48 211.078 405.834 231.912C397.73 245.294 386.706 249.879 376.813 245.893C385.4 246.966 394.291 241.983 401.128 230.67L401.166 230.649Z" fill="url(#paint54_linear_926_13235)" stroke="#64B5C8" stroke-linejoin="round"/>
<path d="M336.008 142.058C336.243 141.683 336.4 141.254 336.636 140.879C336.834 140.525 337.073 140.246 337.292 139.929L357.093 140.336C356.841 140.769 356.546 141.127 356.273 141.523C356.092 141.818 355.932 142.152 355.751 142.447L335.987 142.02L336.008 142.058Z" fill="url(#paint55_linear_926_13235)" stroke="#64B5C8" stroke-linejoin="round"/>
<path d="M348.903 126.683L368.859 127.103C368.037 127.751 367.198 128.457 366.343 129.222L346.387 128.802C347.205 128.058 348.044 127.352 348.903 126.683Z" fill="url(#paint56_linear_926_13235)" stroke="#64B5C8" stroke-linejoin="round"/>
<path d="M330.592 153.279L350.297 153.689C349.997 154.394 349.756 155.115 349.514 155.837L329.809 155.427C330.05 154.705 330.292 153.984 330.592 153.279Z" fill="url(#paint57_linear_926_13235)" stroke="#64B5C8" stroke-linejoin="round"/>
<path d="M324.048 180.132L343.716 180.563C343.629 181.298 343.579 182.012 343.472 182.709L323.804 182.278C323.891 181.543 323.94 180.829 324.048 180.132Z" fill="url(#paint58_linear_926_13235)" stroke="#64B5C8" stroke-linejoin="round"/>
<path d="M326.435 166.702L346.103 167.133C345.958 167.851 345.775 168.589 345.608 169.269L325.903 168.859C326.049 168.141 326.194 167.423 326.398 166.723L326.435 166.702Z" fill="url(#paint59_linear_926_13235)" stroke="#64B5C8" stroke-linejoin="round"/>
<path d="M323.165 193.62L342.775 194.034C342.784 194.765 342.772 195.459 342.781 196.19L323.172 195.776C323.163 195.045 323.174 194.351 323.165 193.62Z" fill="url(#paint60_linear_926_13235)" stroke="#64B5C8" stroke-linejoin="round"/>
<path d="M345.47 258.059L364.791 258.484C365.668 259.277 366.584 260.05 367.533 260.706L348.27 260.298C347.321 259.642 346.406 258.869 345.49 258.096L345.47 258.059Z" fill="url(#paint61_linear_926_13235)" stroke="#64B5C8" stroke-linejoin="round"/>
<path d="M354.55 245.564C354.964 246.317 355.454 247.03 355.906 247.763L336.392 247.345C335.961 246.65 335.509 245.917 335.058 245.184L354.533 245.622L354.55 245.564Z" fill="url(#paint62_linear_926_13235)" stroke="#64B5C8" stroke-linejoin="round"/>
<path d="M330.003 234.466C329.706 233.746 329.408 233.026 329.149 232.286L348.699 232.683C348.959 233.423 349.256 234.143 349.554 234.863L330.041 234.445L330.003 234.466Z" fill="url(#paint63_linear_926_13235)" stroke="#64B5C8" stroke-linejoin="round"/>
<path d="M345.164 219.904C345.327 220.648 345.508 221.334 345.671 222.078L326.1 221.643C325.936 220.899 325.756 220.213 325.592 219.469L345.164 219.904Z" fill="url(#paint64_linear_926_13235)" stroke="#64B5C8" stroke-linejoin="round"/>
<path d="M323.913 208.912C323.808 208.185 323.723 207.495 323.656 206.747L343.265 207.161C343.332 207.909 343.417 208.599 343.522 209.326L323.913 208.912Z" fill="url(#paint65_linear_926_13235)" stroke="#64B5C8" stroke-linejoin="round"/>
<path d="M336.635 140.881C345.03 127.045 355.731 120.086 366.295 120.023C366.332 120.002 367.372 120.02 368.951 120.035C359.135 121.013 349.391 127.838 341.611 140.65C324.553 168.815 323.509 214.874 339.247 243.519C346.95 257.54 357.221 264.802 367.728 265.261C367.979 265.271 363.078 265.461 362.731 265.455C352.262 264.975 341.933 257.696 334.25 243.713C318.492 215.03 319.536 168.971 336.615 140.843L336.635 140.881Z" fill="url(#paint66_linear_926_13235)" stroke="#64B5C8" stroke-linejoin="round"/>
<path d="M353.591 141.377C361.787 127.895 372.039 121.281 382.359 120.862C373.661 122.892 365.146 129.632 358.216 141.044C341.158 169.209 340.114 215.268 355.852 243.913C364.052 258.839 375.208 266.105 386.392 265.653C373.651 268.629 360.528 261.266 351.168 244.23C335.41 215.547 336.454 169.487 353.532 141.36L353.591 141.377Z" fill="url(#paint67_linear_926_13235)" stroke="#64B5C8" stroke-linejoin="round"/>
<path d="M46.2547 315.8C53.9579 329.821 64.2284 337.083 74.7357 337.542C75.0447 337.568 92.7094 338.462 93.0183 338.488C103.703 338.555 92.7693 331.069 101.273 317.074C118.331 288.909 119.375 242.85 103.637 214.205C95.851 200.033 108.905 192.713 98.2681 192.375C97.9591 192.349 78.6248 192.078 78.3158 192.051C67.7518 192.114 57.0302 199.035 48.6566 212.91C31.5986 241.074 30.5545 287.134 46.2923 315.779L46.2547 315.8Z" fill="url(#paint68_linear_926_13235)" stroke="#64B5C8" stroke-linejoin="round"/>
<path d="M65.8921 316.446C81.6506 345.129 108.227 345.542 125.285 317.377C142.343 289.213 143.387 243.153 127.65 214.508C111.912 185.863 85.3144 185.412 68.2564 213.576C51.1983 241.741 50.1543 287.801 65.8921 316.446Z" fill="url(#paint69_linear_926_13235)" stroke="#64B5C8" stroke-linejoin="round"/>
<path d="M73.962 303.18C85.5997 324.362 105.264 324.697 117.872 303.884C130.48 283.07 131.259 249.031 119.6 227.811C107.942 206.591 88.2988 206.294 75.6905 227.107C63.0822 247.921 62.3036 281.96 73.962 303.18Z" fill="url(#paint70_linear_926_13235)" stroke="#64B5C8" stroke-linejoin="round"/>
<path d="M113.167 302.641C125.775 281.828 126.554 247.789 114.895 226.569C110.733 218.993 105.501 214.115 100.007 211.883C107.241 212.815 114.259 218.086 119.601 227.811C131.239 248.993 130.481 283.07 117.835 303.904C109.731 317.287 98.7072 321.871 88.8139 317.886C97.401 318.958 106.292 313.975 113.129 302.662L113.167 302.641Z" fill="url(#paint71_linear_926_13235)" stroke="#64B5C8" stroke-linejoin="round"/>
<path d="M48.0087 214.05C48.2444 213.675 48.401 213.246 48.6367 212.871C48.8346 212.517 49.0741 212.238 49.2928 211.922L69.0942 212.328C68.8415 212.761 68.5474 213.119 68.2741 213.515C68.0931 213.811 67.9328 214.144 67.7518 214.44L47.988 214.012L48.0087 214.05Z" fill="url(#paint72_linear_926_13235)" stroke="#64B5C8" stroke-linejoin="round"/>
<path d="M60.904 198.675L80.8599 199.095C80.0381 199.743 79.1994 200.449 78.3437 201.214L58.3878 200.794C59.2058 200.05 60.0445 199.344 60.904 198.675Z" fill="url(#paint73_linear_926_13235)" stroke="#64B5C8" stroke-linejoin="round"/>
<path d="M42.5916 225.272L62.297 225.683C61.9971 226.387 61.7556 227.109 61.5141 227.83L41.8088 227.42C42.0502 226.698 42.2917 225.977 42.5916 225.272Z" fill="url(#paint74_linear_926_13235)" stroke="#64B5C8" stroke-linejoin="round"/>
<path d="M36.0491 252.124L55.7168 252.555C55.6298 253.29 55.5804 254.004 55.4727 254.701L35.8051 254.27C35.8921 253.535 35.9414 252.821 36.0491 252.124Z" fill="url(#paint75_linear_926_13235)" stroke="#64B5C8" stroke-linejoin="round"/>
<path d="M38.4354 238.694L58.1031 239.125C57.9577 239.843 57.7746 240.581 57.6085 241.261L37.9031 240.851C38.0485 240.133 38.1939 239.416 38.3977 238.715L38.4354 238.694Z" fill="url(#paint76_linear_926_13235)" stroke="#64B5C8" stroke-linejoin="round"/>
<path d="M35.1663 265.612L54.7756 266.026C54.7846 266.757 54.773 267.451 54.7821 268.182L35.1729 267.768C35.1638 267.037 35.1754 266.343 35.1663 265.612Z" fill="url(#paint77_linear_926_13235)" stroke="#64B5C8" stroke-linejoin="round"/>
<path d="M57.1647 291.896C57.3282 292.64 57.5088 293.326 57.6724 294.07L38.1008 293.636C37.9372 292.891 37.7567 292.205 37.5931 291.461L57.1647 291.896Z" fill="url(#paint78_linear_926_13235)" stroke="#64B5C8" stroke-linejoin="round"/>
<path d="M35.9137 280.904C35.8085 280.177 35.724 279.487 35.6566 278.739L55.2658 279.153C55.3333 279.901 55.4178 280.591 55.523 281.318L35.9137 280.904Z" fill="url(#paint79_linear_926_13235)" stroke="#64B5C8" stroke-linejoin="round"/>
<path d="M48.6363 212.873C57.0305 199.037 67.7315 192.078 78.2955 192.015C78.3332 191.994 79.3732 192.012 80.9521 192.028C71.1356 193.005 61.3918 199.83 53.6123 212.642C36.5542 240.807 35.5102 286.866 51.248 315.511C58.9512 329.532 69.2218 336.795 79.729 337.253C79.9796 337.263 75.079 337.453 74.7324 337.447C64.2628 336.968 53.9338 329.688 46.2513 315.705C30.4928 287.022 31.5368 240.963 48.6156 212.836L48.6363 212.873Z" fill="url(#paint80_linear_926_13235)" stroke="#64B5C8" stroke-linejoin="round"/>
<path d="M65.5919 213.37C73.7881 199.887 84.0405 193.273 94.3597 192.854C85.6619 194.885 77.1466 201.624 70.2174 213.036C53.1594 241.201 52.1153 287.261 67.8531 315.906C76.0533 330.831 87.2094 338.098 98.3935 337.645C85.652 340.622 72.529 333.258 63.1691 316.222C47.4106 287.539 48.4547 241.48 65.5335 213.353L65.5919 213.37Z" fill="url(#paint81_linear_926_13235)" stroke="#64B5C8" stroke-linejoin="round"/>
<path d="M46.2537 139.808C53.9569 153.829 64.2275 161.091 74.7347 161.55C75.0437 161.576 92.7084 162.47 93.0174 162.496C103.702 162.563 92.7683 155.077 101.272 141.082C118.33 112.917 119.374 66.8574 103.636 38.2123C95.8501 24.0405 108.904 16.7212 98.2671 16.3829C97.9581 16.3563 78.6238 16.0856 78.3149 16.0591C67.7508 16.1221 57.0292 23.0431 48.6557 36.9174C31.5976 65.0822 30.5536 111.142 46.2914 139.787L46.2537 139.808Z" fill="url(#paint82_linear_926_13235)" stroke="#64B5C8" stroke-linejoin="round"/>
<path d="M65.8911 140.454C81.6496 169.137 108.226 169.55 125.284 141.385C142.342 113.22 143.386 67.1608 127.649 38.5157C111.911 9.87062 85.3135 9.41951 68.2554 37.5843C51.1973 65.7491 50.1533 111.809 65.8911 140.454Z" fill="url(#paint83_linear_926_13235)" stroke="#64B5C8" stroke-linejoin="round"/>
<path d="M73.961 127.188C85.5987 148.37 105.263 148.705 117.871 127.892C130.479 107.078 131.258 73.039 119.599 51.819C107.941 30.599 88.2978 30.3018 75.6895 51.1151C63.0812 71.9284 62.3026 105.968 73.961 127.188Z" fill="url(#paint84_linear_926_13235)" stroke="#64B5C8" stroke-linejoin="round"/>
<path d="M113.166 126.649C125.774 105.836 126.553 71.7967 114.894 50.5767C110.732 43.0008 105.5 38.1224 100.006 35.8911C107.24 36.8232 114.258 42.0943 119.6 51.8186C131.238 73.0009 130.48 107.078 117.834 127.912C109.73 141.294 98.7062 145.879 88.8129 141.893C97.4 142.966 106.291 137.983 113.128 126.67L113.166 126.649Z" fill="url(#paint85_linear_926_13235)" stroke="#64B5C8" stroke-linejoin="round"/>
<path d="M48.0077 38.0579C48.2434 37.6831 48.4 37.2536 48.6357 36.8787C48.8337 36.5246 49.0731 36.2459 49.2918 35.9295L69.0932 36.336C68.8405 36.7693 68.5465 37.1271 68.2731 37.5226C68.0921 37.8183 67.9318 38.1518 67.7508 38.4475L47.987 38.0202L48.0077 38.0579Z" fill="url(#paint86_linear_926_13235)" stroke="#64B5C8" stroke-linejoin="round"/>
<path d="M60.903 22.6833L80.8589 23.1031C80.0372 23.7508 79.1984 24.457 78.3427 25.2215L58.3868 24.8017C59.2048 24.0579 60.0435 23.3517 60.903 22.6833Z" fill="url(#paint87_linear_926_13235)" stroke="#64B5C8" stroke-linejoin="round"/>
<path d="M42.5916 49.2791L62.297 49.6894C61.9971 50.3939 61.7556 51.1154 61.5141 51.8369L41.8088 51.4266C42.0502 50.7051 42.2917 49.9836 42.5916 49.2791Z" fill="url(#paint88_linear_926_13235)" stroke="#64B5C8" stroke-linejoin="round"/>
<path d="M36.0481 76.1319L55.7158 76.5629C55.6288 77.2976 55.5795 78.0117 55.4718 78.7088L35.8041 78.2777C35.8911 77.543 35.9404 76.829 36.0481 76.1319Z" fill="url(#paint89_linear_926_13235)" stroke="#64B5C8" stroke-linejoin="round"/>
<path d="M38.4354 62.702L58.1031 63.133C57.9577 63.8508 57.7746 64.5892 57.6085 65.2693L37.9031 64.859C38.0485 64.1412 38.1939 63.4235 38.3977 62.7227L38.4354 62.702Z" fill="url(#paint90_linear_926_13235)" stroke="#64B5C8" stroke-linejoin="round"/>
<path d="M35.1653 89.6202L54.7746 90.0342C54.7837 90.7652 54.7721 91.4586 54.7811 92.1896L35.1719 91.7756C35.1628 91.0446 35.1744 90.3512 35.1653 89.6202Z" fill="url(#paint91_linear_926_13235)" stroke="#64B5C8" stroke-linejoin="round"/>
<path d="M57.4697 154.059L76.7907 154.484C77.6683 155.277 78.5836 156.05 79.5329 156.706L60.2703 156.298C59.321 155.642 58.4057 154.869 57.4904 154.096L57.4697 154.059Z" fill="url(#paint92_linear_926_13235)" stroke="#64B5C8" stroke-linejoin="round"/>
<path d="M66.5501 141.564C66.9642 142.317 67.4538 143.03 67.9056 143.763L48.3924 143.345C47.9613 142.65 47.5095 141.917 47.0576 141.184L66.5331 141.622L66.5501 141.564Z" fill="url(#paint93_linear_926_13235)" stroke="#64B5C8" stroke-linejoin="round"/>
<path d="M42.003 130.466C41.7056 129.746 41.4083 129.026 41.1486 128.286L60.6995 128.683C60.9591 129.423 61.2565 130.143 61.5538 130.863L42.0407 130.445L42.003 130.466Z" fill="url(#paint94_linear_926_13235)" stroke="#64B5C8" stroke-linejoin="round"/>
<path d="M57.1637 115.904C57.3273 116.648 57.5078 117.334 57.6714 118.078L38.0998 117.643C37.9363 116.899 37.7557 116.213 37.5921 115.469L57.1637 115.904Z" fill="url(#paint95_linear_926_13235)" stroke="#64B5C8" stroke-linejoin="round"/>
<path d="M35.9127 104.912C35.8075 104.185 35.7231 103.495 35.6556 102.747L55.2648 103.161C55.3323 103.909 55.4168 104.599 55.522 105.326L35.9127 104.912Z" fill="url(#paint96_linear_926_13235)" stroke="#64B5C8" stroke-linejoin="round"/>
<path d="M48.6354 36.8811C57.0296 23.0446 67.7305 16.0859 78.2946 16.0229C78.3322 16.0022 79.3722 16.0196 80.9511 16.0354C71.1346 17.0125 61.3908 23.8378 53.6113 36.6498C36.5532 64.8146 35.5092 110.874 51.247 139.519C58.9502 153.54 69.2208 160.802 79.7281 161.261C79.9786 161.271 75.0781 161.461 74.7314 161.455C64.2618 160.975 53.9329 153.696 46.2503 139.713C30.4918 111.03 31.5359 64.9706 48.6146 36.8434L48.6354 36.8811Z" fill="url(#paint97_linear_926_13235)" stroke="#64B5C8" stroke-linejoin="round"/>
<path d="M65.5909 37.3773C73.7871 23.8949 84.0395 17.2808 94.3587 16.8616C85.6609 18.8924 77.1456 25.6316 70.2164 37.0441C53.1584 65.2089 52.1143 111.268 67.8521 139.913C76.0524 154.839 87.2084 162.105 98.3925 161.653C85.651 164.629 72.528 157.266 63.1682 140.23C47.4097 111.547 48.4537 65.4875 65.5325 37.3604L65.5909 37.3773Z" fill="url(#paint98_linear_926_13235)" stroke="#64B5C8" stroke-linejoin="round"/>
</g>
<defs>
<linearGradient id="paint0_linear_926_13235" x1="191.289" y1="85.5512" x2="258.61" y2="208.084" gradientUnits="userSpaceOnUse">
<stop stop-color="#A8C9D1"/>
<stop offset="1" stop-color="white"/>
</linearGradient>
<linearGradient id="paint1_linear_926_13235" x1="208.841" y1="87.3598" x2="272.704" y2="203.599" gradientUnits="userSpaceOnUse">
<stop stop-color="#A8C9D1"/>
<stop offset="1" stop-color="white"/>
</linearGradient>
<linearGradient id="paint2_linear_926_13235" x1="217.164" y1="102.508" x2="264.394" y2="188.474" gradientUnits="userSpaceOnUse">
<stop stop-color="#A8C9D1"/>
<stop offset="1" stop-color="white"/>
</linearGradient>
<linearGradient id="paint3_linear_926_13235" x1="221.504" y1="104.245" x2="266.988" y2="187.032" gradientUnits="userSpaceOnUse">
<stop stop-color="#A8C9D1"/>
<stop offset="1" stop-color="white"/>
</linearGradient>
<linearGradient id="paint4_linear_926_13235" x1="199.869" y1="88.3082" x2="205.211" y2="98.0324" gradientUnits="userSpaceOnUse">
<stop stop-color="#A8C9D1"/>
<stop offset="1" stop-color="white"/>
</linearGradient>
<linearGradient id="paint5_linear_926_13235" x1="211.065" y1="75.2888" x2="216.18" y2="84.5984" gradientUnits="userSpaceOnUse">
<stop stop-color="#A8C9D1"/>
<stop offset="1" stop-color="white"/>
</linearGradient>
<linearGradient id="paint6_linear_926_13235" x1="193.319" y1="101.575" x2="198.786" y2="111.525" gradientUnits="userSpaceOnUse">
<stop stop-color="#A8C9D1"/>
<stop offset="1" stop-color="white"/>
</linearGradient>
<linearGradient id="paint7_linear_926_13235" x1="186.965" y1="128.323" x2="192.556" y2="138.5" gradientUnits="userSpaceOnUse">
<stop stop-color="#A8C9D1"/>
<stop offset="1" stop-color="white"/>
</linearGradient>
<linearGradient id="paint8_linear_926_13235" x1="189.239" y1="114.956" x2="194.768" y2="125.02" gradientUnits="userSpaceOnUse">
<stop stop-color="#A8C9D1"/>
<stop offset="1" stop-color="white"/>
</linearGradient>
<linearGradient id="paint9_linear_926_13235" x1="186.158" y1="141.771" x2="191.79" y2="152.023" gradientUnits="userSpaceOnUse">
<stop stop-color="#A8C9D1"/>
<stop offset="1" stop-color="white"/>
</linearGradient>
<linearGradient id="paint10_linear_926_13235" x1="209.386" y1="205.701" x2="215.619" y2="217.046" gradientUnits="userSpaceOnUse">
<stop stop-color="#A8C9D1"/>
<stop offset="1" stop-color="white"/>
</linearGradient>
<linearGradient id="paint11_linear_926_13235" x1="198.521" y1="193.075" x2="204.444" y2="203.854" gradientUnits="userSpaceOnUse">
<stop stop-color="#A8C9D1"/>
<stop offset="1" stop-color="white"/>
</linearGradient>
<linearGradient id="paint12_linear_926_13235" x1="192.442" y1="180.271" x2="198.261" y2="190.862" gradientUnits="userSpaceOnUse">
<stop stop-color="#A8C9D1"/>
<stop offset="1" stop-color="white"/>
</linearGradient>
<linearGradient id="paint13_linear_926_13235" x1="188.754" y1="167.526" x2="194.511" y2="178.004" gradientUnits="userSpaceOnUse">
<stop stop-color="#A8C9D1"/>
<stop offset="1" stop-color="white"/>
</linearGradient>
<linearGradient id="paint14_linear_926_13235" x1="186.742" y1="154.845" x2="192.437" y2="165.21" gradientUnits="userSpaceOnUse">
<stop stop-color="#A8C9D1"/>
<stop offset="1" stop-color="white"/>
</linearGradient>
<linearGradient id="paint15_linear_926_13235" x1="183.416" y1="89.8447" x2="246.535" y2="204.73" gradientUnits="userSpaceOnUse">
<stop stop-color="#A8C9D1"/>
<stop offset="1" stop-color="white"/>
</linearGradient>
<linearGradient id="paint16_linear_926_13235" x1="199" y1="91.2824" x2="262.389" y2="206.659" gradientUnits="userSpaceOnUse">
<stop stop-color="#A8C9D1"/>
<stop offset="1" stop-color="white"/>
</linearGradient>
<linearGradient id="paint17_linear_926_13235" x1="191.288" y1="-90.44" x2="258.609" y2="32.0931" gradientUnits="userSpaceOnUse">
<stop stop-color="#A8C9D1"/>
<stop offset="1" stop-color="white"/>
</linearGradient>
<linearGradient id="paint18_linear_926_13235" x1="208.84" y1="-88.6314" x2="272.703" y2="27.6077" gradientUnits="userSpaceOnUse">
<stop stop-color="#A8C9D1"/>
<stop offset="1" stop-color="white"/>
</linearGradient>
<linearGradient id="paint19_linear_926_13235" x1="217.162" y1="-73.4829" x2="264.392" y2="12.4827" gradientUnits="userSpaceOnUse">
<stop stop-color="#A8C9D1"/>
<stop offset="1" stop-color="white"/>
</linearGradient>
<linearGradient id="paint20_linear_926_13235" x1="221.503" y1="-71.7465" x2="266.987" y2="11.0407" gradientUnits="userSpaceOnUse">
<stop stop-color="#A8C9D1"/>
<stop offset="1" stop-color="white"/>
</linearGradient>
<linearGradient id="paint21_linear_926_13235" x1="209.385" y1="29.71" x2="215.618" y2="41.055" gradientUnits="userSpaceOnUse">
<stop stop-color="#A8C9D1"/>
<stop offset="1" stop-color="white"/>
</linearGradient>
<linearGradient id="paint22_linear_926_13235" x1="198.52" y1="17.0835" x2="204.443" y2="27.8631" gradientUnits="userSpaceOnUse">
<stop stop-color="#A8C9D1"/>
<stop offset="1" stop-color="white"/>
</linearGradient>
<linearGradient id="paint23_linear_926_13235" x1="192.441" y1="4.27976" x2="198.26" y2="14.8709" gradientUnits="userSpaceOnUse">
<stop stop-color="#A8C9D1"/>
<stop offset="1" stop-color="white"/>
</linearGradient>
<linearGradient id="paint24_linear_926_13235" x1="188.753" y1="-8.46557" x2="194.51" y2="2.01252" gradientUnits="userSpaceOnUse">
<stop stop-color="#A8C9D1"/>
<stop offset="1" stop-color="white"/>
</linearGradient>
<linearGradient id="paint25_linear_926_13235" x1="183.414" y1="-86.1465" x2="246.533" y2="28.7389" gradientUnits="userSpaceOnUse">
<stop stop-color="#A8C9D1"/>
<stop offset="1" stop-color="white"/>
</linearGradient>
<linearGradient id="paint26_linear_926_13235" x1="198.999" y1="-84.7098" x2="262.388" y2="30.6673" gradientUnits="userSpaceOnUse">
<stop stop-color="#A8C9D1"/>
<stop offset="1" stop-color="white"/>
</linearGradient>
<linearGradient id="paint27_linear_926_13235" x1="191.288" y1="261.56" x2="258.609" y2="384.093" gradientUnits="userSpaceOnUse">
<stop stop-color="#A8C9D1"/>
<stop offset="1" stop-color="white"/>
</linearGradient>
<linearGradient id="paint28_linear_926_13235" x1="208.84" y1="263.369" x2="272.703" y2="379.608" gradientUnits="userSpaceOnUse">
<stop stop-color="#A8C9D1"/>
<stop offset="1" stop-color="white"/>
</linearGradient>
<linearGradient id="paint29_linear_926_13235" x1="217.162" y1="278.517" x2="264.392" y2="364.483" gradientUnits="userSpaceOnUse">
<stop stop-color="#A8C9D1"/>
<stop offset="1" stop-color="white"/>
</linearGradient>
<linearGradient id="paint30_linear_926_13235" x1="221.503" y1="280.254" x2="266.987" y2="363.041" gradientUnits="userSpaceOnUse">
<stop stop-color="#A8C9D1"/>
<stop offset="1" stop-color="white"/>
</linearGradient>
<linearGradient id="paint31_linear_926_13235" x1="199.868" y1="264.317" x2="205.21" y2="274.041" gradientUnits="userSpaceOnUse">
<stop stop-color="#A8C9D1"/>
<stop offset="1" stop-color="white"/>
</linearGradient>
<linearGradient id="paint32_linear_926_13235" x1="211.064" y1="251.298" x2="216.179" y2="260.607" gradientUnits="userSpaceOnUse">
<stop stop-color="#A8C9D1"/>
<stop offset="1" stop-color="white"/>
</linearGradient>
<linearGradient id="paint33_linear_926_13235" x1="193.318" y1="277.584" x2="198.785" y2="287.534" gradientUnits="userSpaceOnUse">
<stop stop-color="#A8C9D1"/>
<stop offset="1" stop-color="white"/>
</linearGradient>
<linearGradient id="paint34_linear_926_13235" x1="189.238" y1="290.964" x2="194.767" y2="301.028" gradientUnits="userSpaceOnUse">
<stop stop-color="#A8C9D1"/>
<stop offset="1" stop-color="white"/>
</linearGradient>
<linearGradient id="paint35_linear_926_13235" x1="183.414" y1="265.853" x2="246.533" y2="380.739" gradientUnits="userSpaceOnUse">
<stop stop-color="#A8C9D1"/>
<stop offset="1" stop-color="white"/>
</linearGradient>
<linearGradient id="paint36_linear_926_13235" x1="198.999" y1="267.29" x2="262.388" y2="382.667" gradientUnits="userSpaceOnUse">
<stop stop-color="#A8C9D1"/>
<stop offset="1" stop-color="white"/>
</linearGradient>
<linearGradient id="paint37_linear_926_13235" x1="335.289" y1="-42.4479" x2="402.61" y2="80.0853" gradientUnits="userSpaceOnUse">
<stop stop-color="#A8C9D1"/>
<stop offset="1" stop-color="white"/>
</linearGradient>
<linearGradient id="paint38_linear_926_13235" x1="352.841" y1="-40.6392" x2="416.704" y2="75.5999" gradientUnits="userSpaceOnUse">
<stop stop-color="#A8C9D1"/>
<stop offset="1" stop-color="white"/>
</linearGradient>
<linearGradient id="paint39_linear_926_13235" x1="361.164" y1="-25.4907" x2="408.394" y2="60.4749" gradientUnits="userSpaceOnUse">
<stop stop-color="#A8C9D1"/>
<stop offset="1" stop-color="white"/>
</linearGradient>
<linearGradient id="paint40_linear_926_13235" x1="365.505" y1="-23.7543" x2="410.989" y2="59.0329" gradientUnits="userSpaceOnUse">
<stop stop-color="#A8C9D1"/>
<stop offset="1" stop-color="white"/>
</linearGradient>
<linearGradient id="paint41_linear_926_13235" x1="330.965" y1="0.324236" x2="336.556" y2="10.5008" gradientUnits="userSpaceOnUse">
<stop stop-color="#A8C9D1"/>
<stop offset="1" stop-color="white"/>
</linearGradient>
<linearGradient id="paint42_linear_926_13235" x1="333.239" y1="-13.0436" x2="338.768" y2="-2.98007" gradientUnits="userSpaceOnUse">
<stop stop-color="#A8C9D1"/>
<stop offset="1" stop-color="white"/>
</linearGradient>
<linearGradient id="paint43_linear_926_13235" x1="330.158" y1="13.7711" x2="335.79" y2="24.0231" gradientUnits="userSpaceOnUse">
<stop stop-color="#A8C9D1"/>
<stop offset="1" stop-color="white"/>
</linearGradient>
<linearGradient id="paint44_linear_926_13235" x1="353.386" y1="77.7022" x2="359.619" y2="89.0471" gradientUnits="userSpaceOnUse">
<stop stop-color="#A8C9D1"/>
<stop offset="1" stop-color="white"/>
</linearGradient>
<linearGradient id="paint45_linear_926_13235" x1="342.521" y1="65.0757" x2="348.444" y2="75.8553" gradientUnits="userSpaceOnUse">
<stop stop-color="#A8C9D1"/>
<stop offset="1" stop-color="white"/>
</linearGradient>
<linearGradient id="paint46_linear_926_13235" x1="336.442" y1="52.271" x2="342.261" y2="62.8621" gradientUnits="userSpaceOnUse">
<stop stop-color="#A8C9D1"/>
<stop offset="1" stop-color="white"/>
</linearGradient>
<linearGradient id="paint47_linear_926_13235" x1="332.754" y1="39.5266" x2="338.511" y2="50.0047" gradientUnits="userSpaceOnUse">
<stop stop-color="#A8C9D1"/>
<stop offset="1" stop-color="white"/>
</linearGradient>
<linearGradient id="paint48_linear_926_13235" x1="330.742" y1="26.8463" x2="336.437" y2="37.2113" gradientUnits="userSpaceOnUse">
<stop stop-color="#A8C9D1"/>
<stop offset="1" stop-color="white"/>
</linearGradient>
<linearGradient id="paint49_linear_926_13235" x1="327.416" y1="-38.1553" x2="390.535" y2="76.7301" gradientUnits="userSpaceOnUse">
<stop stop-color="#A8C9D1"/>
<stop offset="1" stop-color="white"/>
</linearGradient>
<linearGradient id="paint50_linear_926_13235" x1="343" y1="-36.7176" x2="406.389" y2="78.6595" gradientUnits="userSpaceOnUse">
<stop stop-color="#A8C9D1"/>
<stop offset="1" stop-color="white"/>
</linearGradient>
<linearGradient id="paint51_linear_926_13235" x1="335.288" y1="133.56" x2="402.609" y2="256.093" gradientUnits="userSpaceOnUse">
<stop stop-color="#A8C9D1"/>
<stop offset="1" stop-color="white"/>
</linearGradient>
<linearGradient id="paint52_linear_926_13235" x1="352.84" y1="135.369" x2="416.703" y2="251.608" gradientUnits="userSpaceOnUse">
<stop stop-color="#A8C9D1"/>
<stop offset="1" stop-color="white"/>
</linearGradient>
<linearGradient id="paint53_linear_926_13235" x1="361.163" y1="150.517" x2="408.393" y2="236.483" gradientUnits="userSpaceOnUse">
<stop stop-color="#A8C9D1"/>
<stop offset="1" stop-color="white"/>
</linearGradient>
<linearGradient id="paint54_linear_926_13235" x1="365.504" y1="152.254" x2="410.988" y2="235.041" gradientUnits="userSpaceOnUse">
<stop stop-color="#A8C9D1"/>
<stop offset="1" stop-color="white"/>
</linearGradient>
<linearGradient id="paint55_linear_926_13235" x1="343.869" y1="136.316" x2="349.211" y2="146.04" gradientUnits="userSpaceOnUse">
<stop stop-color="#A8C9D1"/>
<stop offset="1" stop-color="white"/>
</linearGradient>
<linearGradient id="paint56_linear_926_13235" x1="355.065" y1="123.298" x2="360.18" y2="132.607" gradientUnits="userSpaceOnUse">
<stop stop-color="#A8C9D1"/>
<stop offset="1" stop-color="white"/>
</linearGradient>
<linearGradient id="paint57_linear_926_13235" x1="337.319" y1="149.583" x2="342.786" y2="159.533" gradientUnits="userSpaceOnUse">
<stop stop-color="#A8C9D1"/>
<stop offset="1" stop-color="white"/>
</linearGradient>
<linearGradient id="paint58_linear_926_13235" x1="330.964" y1="176.332" x2="336.555" y2="186.509" gradientUnits="userSpaceOnUse">
<stop stop-color="#A8C9D1"/>
<stop offset="1" stop-color="white"/>
</linearGradient>
<linearGradient id="paint59_linear_926_13235" x1="333.239" y1="162.964" x2="338.768" y2="173.028" gradientUnits="userSpaceOnUse">
<stop stop-color="#A8C9D1"/>
<stop offset="1" stop-color="white"/>
</linearGradient>
<linearGradient id="paint60_linear_926_13235" x1="330.157" y1="189.779" x2="335.789" y2="200.031" gradientUnits="userSpaceOnUse">
<stop stop-color="#A8C9D1"/>
<stop offset="1" stop-color="white"/>
</linearGradient>
<linearGradient id="paint61_linear_926_13235" x1="353.385" y1="253.71" x2="359.618" y2="265.055" gradientUnits="userSpaceOnUse">
<stop stop-color="#A8C9D1"/>
<stop offset="1" stop-color="white"/>
</linearGradient>
<linearGradient id="paint62_linear_926_13235" x1="342.52" y1="241.083" x2="348.443" y2="251.863" gradientUnits="userSpaceOnUse">
<stop stop-color="#A8C9D1"/>
<stop offset="1" stop-color="white"/>
</linearGradient>
<linearGradient id="paint63_linear_926_13235" x1="336.442" y1="228.279" x2="342.261" y2="238.87" gradientUnits="userSpaceOnUse">
<stop stop-color="#A8C9D1"/>
<stop offset="1" stop-color="white"/>
</linearGradient>
<linearGradient id="paint64_linear_926_13235" x1="332.753" y1="215.534" x2="338.51" y2="226.013" gradientUnits="userSpaceOnUse">
<stop stop-color="#A8C9D1"/>
<stop offset="1" stop-color="white"/>
</linearGradient>
<linearGradient id="paint65_linear_926_13235" x1="330.741" y1="202.854" x2="336.436" y2="213.219" gradientUnits="userSpaceOnUse">
<stop stop-color="#A8C9D1"/>
<stop offset="1" stop-color="white"/>
</linearGradient>
<linearGradient id="paint66_linear_926_13235" x1="327.415" y1="137.853" x2="390.534" y2="252.738" gradientUnits="userSpaceOnUse">
<stop stop-color="#A8C9D1"/>
<stop offset="1" stop-color="white"/>
</linearGradient>
<linearGradient id="paint67_linear_926_13235" x1="342.999" y1="139.29" x2="406.388" y2="254.667" gradientUnits="userSpaceOnUse">
<stop stop-color="#A8C9D1"/>
<stop offset="1" stop-color="white"/>
</linearGradient>
<linearGradient id="paint68_linear_926_13235" x1="47.2891" y1="205.552" x2="114.61" y2="328.085" gradientUnits="userSpaceOnUse">
<stop stop-color="#A8C9D1"/>
<stop offset="1" stop-color="white"/>
</linearGradient>
<linearGradient id="paint69_linear_926_13235" x1="64.8414" y1="207.361" x2="128.704" y2="323.6" gradientUnits="userSpaceOnUse">
<stop stop-color="#A8C9D1"/>
<stop offset="1" stop-color="white"/>
</linearGradient>
<linearGradient id="paint70_linear_926_13235" x1="73.1643" y1="222.509" x2="120.394" y2="308.475" gradientUnits="userSpaceOnUse">
<stop stop-color="#A8C9D1"/>
<stop offset="1" stop-color="white"/>
</linearGradient>
<linearGradient id="paint71_linear_926_13235" x1="77.505" y1="224.246" x2="122.989" y2="307.033" gradientUnits="userSpaceOnUse">
<stop stop-color="#A8C9D1"/>
<stop offset="1" stop-color="white"/>
</linearGradient>
<linearGradient id="paint72_linear_926_13235" x1="55.8698" y1="208.308" x2="61.2124" y2="218.032" gradientUnits="userSpaceOnUse">
<stop stop-color="#A8C9D1"/>
<stop offset="1" stop-color="white"/>
</linearGradient>
<linearGradient id="paint73_linear_926_13235" x1="67.0664" y1="195.29" x2="72.1812" y2="204.599" gradientUnits="userSpaceOnUse">
<stop stop-color="#A8C9D1"/>
<stop offset="1" stop-color="white"/>
</linearGradient>
<linearGradient id="paint74_linear_926_13235" x1="49.3195" y1="221.576" x2="54.7863" y2="231.526" gradientUnits="userSpaceOnUse">
<stop stop-color="#A8C9D1"/>
<stop offset="1" stop-color="white"/>
</linearGradient>
<linearGradient id="paint75_linear_926_13235" x1="42.9654" y1="248.324" x2="48.5564" y2="258.501" gradientUnits="userSpaceOnUse">
<stop stop-color="#A8C9D1"/>
<stop offset="1" stop-color="white"/>
</linearGradient>
<linearGradient id="paint76_linear_926_13235" x1="45.2386" y1="234.956" x2="50.7676" y2="245.02" gradientUnits="userSpaceOnUse">
<stop stop-color="#A8C9D1"/>
<stop offset="1" stop-color="white"/>
</linearGradient>
<linearGradient id="paint77_linear_926_13235" x1="42.158" y1="261.771" x2="47.7904" y2="272.023" gradientUnits="userSpaceOnUse">
<stop stop-color="#A8C9D1"/>
<stop offset="1" stop-color="white"/>
</linearGradient>
<linearGradient id="paint78_linear_926_13235" x1="44.7544" y1="287.527" x2="50.5111" y2="298.005" gradientUnits="userSpaceOnUse">
<stop stop-color="#A8C9D1"/>
<stop offset="1" stop-color="white"/>
</linearGradient>
<linearGradient id="paint79_linear_926_13235" x1="42.7425" y1="274.846" x2="48.4371" y2="285.211" gradientUnits="userSpaceOnUse">
<stop stop-color="#A8C9D1"/>
<stop offset="1" stop-color="white"/>
</linearGradient>
<linearGradient id="paint80_linear_926_13235" x1="39.4159" y1="209.845" x2="102.535" y2="324.73" gradientUnits="userSpaceOnUse">
<stop stop-color="#A8C9D1"/>
<stop offset="1" stop-color="white"/>
</linearGradient>
<linearGradient id="paint81_linear_926_13235" x1="54.9996" y1="211.282" x2="118.389" y2="326.659" gradientUnits="userSpaceOnUse">
<stop stop-color="#A8C9D1"/>
<stop offset="1" stop-color="white"/>
</linearGradient>
<linearGradient id="paint82_linear_926_13235" x1="47.2881" y1="29.56" x2="114.609" y2="152.093" gradientUnits="userSpaceOnUse">
<stop stop-color="#A8C9D1"/>
<stop offset="1" stop-color="white"/>
</linearGradient>
<linearGradient id="paint83_linear_926_13235" x1="64.8405" y1="31.3686" x2="128.703" y2="147.608" gradientUnits="userSpaceOnUse">
<stop stop-color="#A8C9D1"/>
<stop offset="1" stop-color="white"/>
</linearGradient>
<linearGradient id="paint84_linear_926_13235" x1="73.1633" y1="46.5171" x2="120.393" y2="132.483" gradientUnits="userSpaceOnUse">
<stop stop-color="#A8C9D1"/>
<stop offset="1" stop-color="white"/>
</linearGradient>
<linearGradient id="paint85_linear_926_13235" x1="77.504" y1="48.2535" x2="122.988" y2="131.041" gradientUnits="userSpaceOnUse">
<stop stop-color="#A8C9D1"/>
<stop offset="1" stop-color="white"/>
</linearGradient>
<linearGradient id="paint86_linear_926_13235" x1="55.8688" y1="32.316" x2="61.2114" y2="42.0402" gradientUnits="userSpaceOnUse">
<stop stop-color="#A8C9D1"/>
<stop offset="1" stop-color="white"/>
</linearGradient>
<linearGradient id="paint87_linear_926_13235" x1="67.0655" y1="19.2976" x2="72.1802" y2="28.6072" gradientUnits="userSpaceOnUse">
<stop stop-color="#A8C9D1"/>
<stop offset="1" stop-color="white"/>
</linearGradient>
<linearGradient id="paint88_linear_926_13235" x1="49.3195" y1="45.5828" x2="54.7863" y2="55.5332" gradientUnits="userSpaceOnUse">
<stop stop-color="#A8C9D1"/>
<stop offset="1" stop-color="white"/>
</linearGradient>
<linearGradient id="paint89_linear_926_13235" x1="42.9644" y1="72.332" x2="48.5555" y2="82.5086" gradientUnits="userSpaceOnUse">
<stop stop-color="#A8C9D1"/>
<stop offset="1" stop-color="white"/>
</linearGradient>
<linearGradient id="paint90_linear_926_13235" x1="45.2386" y1="58.9643" x2="50.7676" y2="69.0277" gradientUnits="userSpaceOnUse">
<stop stop-color="#A8C9D1"/>
<stop offset="1" stop-color="white"/>
</linearGradient>
<linearGradient id="paint91_linear_926_13235" x1="42.157" y1="85.7789" x2="47.7895" y2="96.0309" gradientUnits="userSpaceOnUse">
<stop stop-color="#A8C9D1"/>
<stop offset="1" stop-color="white"/>
</linearGradient>
<linearGradient id="paint92_linear_926_13235" x1="65.3848" y1="149.71" x2="71.6178" y2="161.055" gradientUnits="userSpaceOnUse">
<stop stop-color="#A8C9D1"/>
<stop offset="1" stop-color="white"/>
</linearGradient>
<linearGradient id="paint93_linear_926_13235" x1="54.5204" y1="137.083" x2="60.4428" y2="147.863" gradientUnits="userSpaceOnUse">
<stop stop-color="#A8C9D1"/>
<stop offset="1" stop-color="white"/>
</linearGradient>
<linearGradient id="paint94_linear_926_13235" x1="48.4418" y1="124.279" x2="54.2606" y2="134.87" gradientUnits="userSpaceOnUse">
<stop stop-color="#A8C9D1"/>
<stop offset="1" stop-color="white"/>
</linearGradient>
<linearGradient id="paint95_linear_926_13235" x1="44.7534" y1="111.534" x2="50.5101" y2="122.013" gradientUnits="userSpaceOnUse">
<stop stop-color="#A8C9D1"/>
<stop offset="1" stop-color="white"/>
</linearGradient>
<linearGradient id="paint96_linear_926_13235" x1="42.7415" y1="98.8541" x2="48.4361" y2="109.219" gradientUnits="userSpaceOnUse">
<stop stop-color="#A8C9D1"/>
<stop offset="1" stop-color="white"/>
</linearGradient>
<linearGradient id="paint97_linear_926_13235" x1="39.415" y1="33.8525" x2="102.534" y2="148.738" gradientUnits="userSpaceOnUse">
<stop stop-color="#A8C9D1"/>
<stop offset="1" stop-color="white"/>
</linearGradient>
<linearGradient id="paint98_linear_926_13235" x1="54.9986" y1="35.2902" x2="118.388" y2="150.667" gradientUnits="userSpaceOnUse">
<stop stop-color="#A8C9D1"/>
<stop offset="1" stop-color="white"/>
</linearGradient>
<clipPath id="clip0_926_13235">
<rect width="462" height="291" rx="8" fill="white"/>
</clipPath>
</defs>
</svg>
