<svg width="361" height="120" viewBox="0 0 361 120" fill="none" xmlns="http://www.w3.org/2000/svg">
<g clip-path="url(#clip0_925_5884)">
<rect width="361" height="120" rx="8" fill="#F6F7F8"/>
<path d="M130.748 -11.4055L144.709 -19.5107C133.649 -13.0895 126.793 0.578599 126.739 19.9943C126.63 59.0756 154.107 106.686 188.126 126.33L174.164 134.435C140.146 114.802 112.668 67.1918 112.777 28.0996C112.831 8.68387 119.687 -4.98427 130.748 -11.4055Z" fill="url(#paint0_linear_925_5884)" stroke="#64B5C8"/>
<path d="M235.551 136.815L221.59 144.92C233.563 137.966 240.984 123.179 241.038 102.155C241.158 59.8362 211.398 8.30358 174.577 -12.9592L188.539 -21.0645C225.371 0.198306 255.119 51.7309 255 94.05C254.945 115.074 247.514 129.861 235.551 136.815Z" fill="url(#paint1_linear_925_5884)" stroke="#64B5C8"/>
<path d="M174.588 -12.9584C211.42 8.30434 241.169 59.8369 241.049 102.156C240.929 144.475 210.975 161.533 174.153 140.27C137.332 119.018 107.573 67.4859 107.692 25.1668C107.812 -17.1523 137.767 -34.2103 174.588 -12.9584ZM174.164 134.436C208.182 154.08 235.845 138.304 235.964 99.2225C236.073 60.1411 208.595 12.5308 174.566 -7.11306C140.548 -26.7569 112.886 -10.981 112.777 28.1003C112.668 67.1817 140.146 114.792 174.164 134.436Z" fill="url(#paint2_linear_925_5884)" stroke="#64B5C8"/>
<path d="M220.655 137.184L217.994 138.727C229.054 132.306 235.91 118.638 235.964 99.2221C236.073 60.1408 208.584 12.5196 174.566 -7.11342L177.228 -8.65625C211.246 10.9876 238.735 58.5979 238.626 97.6793C238.572 117.095 231.716 130.763 220.655 137.184Z" fill="url(#paint3_linear_925_5884)" stroke="#64B5C8"/>
<path d="M174.566 -7.11491C208.584 12.529 236.073 60.1393 235.964 99.2206C235.856 138.313 208.182 154.078 174.164 134.434C140.146 114.801 112.658 67.1907 112.766 28.0985C112.875 -10.9828 140.548 -26.7588 174.566 -7.11491Z" fill="url(#paint4_linear_925_5884)" stroke="#64B5C8"/>
<path d="M128.086 -9.86342L130.748 -11.4062C119.687 -4.97418 112.831 8.6831 112.777 28.1097C112.668 67.191 140.146 114.801 174.164 134.445L171.502 135.988C137.495 116.344 110.007 68.7338 110.115 29.6525C110.17 10.2259 117.025 -3.43136 128.086 -9.86342Z" fill="url(#paint5_linear_925_5884)" stroke="#64B5C8"/>
<path d="M141.721 96.245L144.383 94.7021L140.439 98.4397L137.788 99.9825L141.721 96.245Z" fill="url(#paint6_linear_925_5884)" stroke="#64B5C8"/>
<path d="M140.657 94.702L143.319 93.1592L144.383 94.702L141.721 96.2448L140.657 94.702Z" fill="url(#paint7_linear_925_5884)" stroke="#64B5C8"/>
<path d="M137.767 81.8159L140.428 80.2731L143.351 78.665L140.689 80.2079L137.767 81.8159Z" fill="url(#paint8_linear_925_5884)" stroke="#64B5C8"/>
<path d="M120.241 33.4335L122.903 31.8906C122.882 32.5643 122.871 33.2379 122.871 33.9332C122.816 52.7188 130.27 74.2966 143.329 93.1582L140.667 94.7011C127.608 75.8395 120.154 54.2616 120.209 35.4761C120.209 34.7807 120.22 34.1071 120.241 33.4335Z" fill="url(#paint9_linear_925_5884)" stroke="#64B5C8"/>
<path d="M132.41 38.2147L135.061 36.6719L134.985 38.1604L132.323 39.7032L132.41 38.2147Z" fill="url(#paint10_linear_925_5884)" stroke="#64B5C8"/>
<path d="M120.404 30.457L123.066 28.9033L135.061 36.6718L132.41 38.2146L120.404 30.457Z" fill="url(#paint11_linear_925_5884)" stroke="#64B5C8"/>
<path d="M132.323 39.703L134.985 38.1602C134.931 39.0402 134.909 39.9637 134.909 40.8764C134.833 65.8767 152.489 96.4508 174.24 109.011C177.326 110.793 180.379 112.151 183.356 113.063L180.694 114.606C177.728 113.693 174.664 112.335 171.578 110.553C149.816 97.9936 132.171 67.4195 132.247 42.4192C132.247 41.5066 132.28 40.583 132.323 39.703Z" fill="url(#paint12_linear_925_5884)" stroke="#64B5C8"/>
<path d="M182.552 111.792L185.214 110.249L186.637 117.137L183.975 118.691L182.552 111.792Z" fill="url(#paint13_linear_925_5884)" stroke="#64B5C8"/>
<path d="M179.966 111.118L182.628 109.564L185.214 110.249L182.552 111.792L179.966 111.118Z" fill="url(#paint14_linear_925_5884)" stroke="#64B5C8"/>
<path d="M119.122 4.89146L121.784 3.34863L125.88 7.91192L123.229 9.46562L119.122 4.89146Z" fill="url(#paint15_linear_925_5884)" stroke="#64B5C8"/>
<path d="M135.137 2.44712L137.799 0.904297C129.368 5.8044 124.142 15.6155 123.066 28.9142L120.404 30.457C121.48 17.1583 126.706 7.34723 135.137 2.44712Z" fill="url(#paint16_linear_925_5884)" stroke="#64B5C8"/>
<path d="M202.272 111.781L199.61 113.324C197.155 114.747 194.351 115.627 191.266 115.888L193.928 114.345C197.024 114.085 199.816 113.205 202.272 111.781Z" fill="url(#paint17_linear_925_5884)" stroke="#64B5C8"/>
<path d="M210.844 126.449L208.182 127.992C198.502 133.62 185.377 132.382 171.546 124.396C164.234 120.18 157.171 114.368 150.565 107.153L153.227 105.61C159.833 112.825 166.896 118.627 174.208 122.853C188.05 130.839 201.175 132.077 210.844 126.449Z" fill="url(#paint18_linear_925_5884)" stroke="#64B5C8"/>
<path d="M143.753 17.0174L146.415 15.4746C142.004 18.0387 138.614 22.4499 136.658 28.5995L133.996 30.1423C135.952 23.9928 139.342 19.5816 143.753 17.0174Z" fill="url(#paint19_linear_925_5884)" stroke="#64B5C8"/>
<path d="M211.149 125.971L213.191 129.133C209.921 131.741 206.162 133.457 202.055 134.294L204.315 139.661L202.065 140.031L199.806 134.674C191.385 135.717 181.639 133.316 171.535 127.482C163.843 123.038 156.422 116.932 149.468 109.337L150.566 107.164C157.171 114.378 164.234 120.18 171.546 124.407C186.855 133.251 201.294 133.816 211.159 125.982L211.149 125.971Z" fill="url(#paint20_linear_925_5884)" stroke="#64B5C8"/>
<path d="M141.852 13.7683L144.514 12.2255C146.524 11.063 148.718 10.2481 151.087 9.81348L148.425 11.3563C146.057 11.7909 143.862 12.6058 141.852 13.7683Z" fill="url(#paint21_linear_925_5884)" stroke="#64B5C8"/>
<path d="M144.383 -4.35366L147.045 -5.89648L153.358 9.48832L150.696 11.042L144.383 -4.35366Z" fill="url(#paint22_linear_925_5884)" stroke="#64B5C8"/>
<path d="M204.162 115.04L201.501 116.583C208.943 112.259 213.441 103.198 213.821 91.0614L216.483 89.5186C216.103 101.655 211.605 110.716 204.162 115.04Z" fill="url(#paint23_linear_925_5884)" stroke="#64B5C8"/>
<path d="M213.832 87.9872L216.483 86.4443L225.849 91.8442L223.187 93.3871L213.832 87.9872Z" fill="url(#paint24_linear_925_5884)" stroke="#64B5C8"/>
<path d="M157.497 -3.13686L160.159 -4.67969C164.397 -3.57146 168.775 -1.77874 173.208 0.655016L170.546 2.19784C166.124 -0.235912 161.735 -2.02863 157.497 -3.13686Z" fill="url(#paint25_linear_925_5884)" stroke="#64B5C8"/>
<path d="M150.696 11.0413L153.358 9.49849C159.616 8.96611 166.852 10.8349 174.501 15.2461C183.139 20.2331 191.418 27.9907 198.469 37.704L195.807 39.2468C188.767 29.5335 180.477 21.7759 171.839 16.7889C164.19 12.3777 156.954 10.5089 150.696 11.0413Z" fill="url(#paint26_linear_925_5884)" stroke="#64B5C8"/>
<path d="M196.916 40.7567L199.567 39.2139L196.09 42.9514L193.428 44.5051L196.916 40.7567Z" fill="url(#paint27_linear_925_5884)" stroke="#64B5C8"/>
<path d="M144.383 -4.35449L150.696 11.0303C156.954 10.4979 164.19 12.3667 171.839 16.7779C180.477 21.7649 188.756 29.5225 195.807 39.2358L196.905 40.746L193.428 44.4944L191.233 41.474L193.167 39.3879C186.811 30.9893 179.466 24.253 171.828 19.8418C154.347 9.74825 139.146 13.8878 133.986 30.1309L131.432 27.7624C134.398 18.4076 140.505 12.8122 148.414 11.3454L143.514 -0.595209C130.194 1.78422 121.795 13.1816 120.393 30.446L132.388 38.2145L132.302 39.703C132.247 40.5939 132.225 41.5066 132.225 42.4192C132.149 67.4195 149.805 97.9936 171.557 110.553C174.642 112.335 177.695 113.693 180.672 114.606L179.955 111.118L182.541 111.792L183.964 118.691L182.672 118.355C179.064 117.398 175.327 115.823 171.557 113.639C160.311 107.142 150.098 96.1357 142.547 83.478L139.625 85.0969L137.756 81.8156L140.678 80.2076C133.747 67.5608 129.509 53.545 129.553 40.8873C129.553 40.4201 129.553 39.9529 129.574 39.4857L120.231 33.4339C120.209 34.1075 120.198 34.7812 120.198 35.4765C120.144 54.2621 127.597 75.8399 140.657 94.7015L141.721 96.2443L137.788 99.9819L135.648 96.8962L137.984 94.6798C124.913 75.2206 117.471 53.1647 117.525 33.9228C117.547 25.1656 119.144 17.6145 122.088 11.5953L117.992 7.02114L119.133 4.89161L123.229 9.46576C127.651 1.82768 134.496 -2.97464 143.253 -4.18065L144.383 -4.34363V-4.35449Z" fill="url(#paint28_linear_925_5884)" stroke="#64B5C8"/>
<path d="M195.807 39.2471L198.469 37.6934L199.567 39.2145L196.916 40.7573L195.807 39.2471Z" fill="url(#paint29_linear_925_5884)" stroke="#64B5C8"/>
<path d="M204.478 53.5018L207.139 51.959C212.941 63.5302 216.223 75.699 216.494 86.4444L213.832 87.9873C213.572 77.2418 210.279 65.073 204.478 53.5018Z" fill="url(#paint30_linear_925_5884)" stroke="#64B5C8"/>
<path d="M202.391 54.2515L205.053 52.7087L207.139 51.959L204.478 53.5018L202.391 54.2515Z" fill="url(#paint31_linear_925_5884)" stroke="#64B5C8"/>
<path d="M173.241 -0.48647L175.892 -2.0293L175.881 2.21891L173.23 3.76174L173.241 -0.48647Z" fill="url(#paint32_linear_925_5884)" stroke="#64B5C8"/>
<path d="M170.557 -2.04018L173.219 -3.58301L175.892 -2.02932L173.241 -0.486489L170.557 -2.04018Z" fill="url(#paint33_linear_925_5884)" stroke="#64B5C8"/>
<path d="M220.221 65.3124L222.883 63.7695C226.533 74.276 228.587 84.9345 228.554 94.952C228.533 102.731 227.272 109.62 224.817 115.4L222.155 116.943C224.61 111.152 225.871 104.274 225.892 96.4948C225.925 86.4773 223.872 75.8188 220.221 65.3124Z" fill="url(#paint34_linear_925_5884)" stroke="#64B5C8"/>
<path d="M218.971 61.8685L221.633 60.3257L225.697 60.1953L223.035 61.7381L218.971 61.8685Z" fill="url(#paint35_linear_925_5884)" stroke="#64B5C8"/>
<path d="M223.035 61.7381L225.697 60.1953L226.946 63.6286L224.284 65.1715L223.035 61.7381Z" fill="url(#paint36_linear_925_5884)" stroke="#64B5C8"/>
<path d="M173.241 -0.486394V3.76181C192.874 15.659 209.921 38.1386 218.971 61.8677L223.035 61.7373L224.284 65.1707L220.221 65.301C223.872 75.8075 225.925 86.466 225.892 96.4835C225.871 104.263 224.61 111.151 222.155 116.931L219.667 114.378C221.84 109.261 223.013 103.231 223.187 96.4509L213.832 91.051C213.311 107.468 205.282 118.246 192.602 119.311L191.277 115.878C203.511 114.845 211.149 104.154 211.192 87.9762C211.225 77.5676 208.106 65.5727 202.413 54.2296L204.499 53.4799C210.301 65.0511 213.582 77.2199 213.854 87.9654L223.209 93.3653C222.589 61.0311 199.849 22.1345 171.893 6C167.254 3.32721 162.658 1.38238 158.225 0.219829L157.519 -3.15918C161.756 -2.05095 166.135 -0.258231 170.568 2.17552V-2.06182L173.262 -0.51899L173.241 -0.486394Z" fill="url(#paint37_linear_925_5884)" stroke="#64B5C8"/>
<path d="M173.23 3.76158L175.892 2.21875C195.536 14.1159 212.583 36.5955 221.633 60.3246L218.971 61.8675C209.91 38.1275 192.874 15.6479 173.23 3.76158Z" fill="url(#paint38_linear_925_5884)" stroke="#64B5C8"/>
<path d="M171.926 -11.4157C208.758 9.84703 238.507 61.3905 238.387 103.71C238.268 146.018 208.313 163.087 171.491 141.824C134.67 120.572 104.911 69.0286 105.03 26.7203C105.15 -15.5987 135.105 -32.6676 171.926 -11.4157ZM171.502 135.989C205.521 155.633 233.183 139.857 233.302 100.776C233.411 61.6838 205.933 14.0844 171.904 -5.55951C137.897 -25.2034 110.224 -9.4383 110.115 29.6539C110.007 68.7352 137.484 116.346 171.502 135.989Z" fill="url(#paint39_linear_925_5884)" stroke="#64B5C8"/>
<path d="M221.601 144.931L218.939 146.474C230.912 139.52 238.333 124.733 238.387 103.709C238.507 61.3901 208.747 9.8466 171.926 -11.4162L174.588 -12.959C211.42 8.30377 241.169 59.8472 241.049 102.166C240.995 123.179 233.563 137.977 221.601 144.931Z" fill="url(#paint40_linear_925_5884)" stroke="#64B5C8"/>
<path d="M33.7478 108.595L47.7093 100.489C36.6487 106.91 29.7929 120.579 29.7386 139.994C29.6299 179.076 57.1075 226.686 91.1257 246.33L77.1642 254.435C43.146 234.802 15.6684 187.192 15.7771 148.1C15.8314 128.684 22.6872 115.016 33.7478 108.595Z" fill="url(#paint41_linear_925_5884)" stroke="#64B5C8"/>
<path d="M30.1406 102.401L44.1021 94.296C56.2274 87.2555 73.0138 88.2442 91.5494 98.9462L77.5879 107.052C59.0523 96.3495 42.2659 95.3499 30.1406 102.401Z" fill="url(#paint42_linear_925_5884)" stroke="#64B5C8"/>
<path d="M138.551 256.815L124.59 264.92C136.563 257.966 143.984 243.179 144.038 222.155C144.158 179.836 114.398 128.304 77.5771 107.041L91.5386 98.9355C128.371 120.198 158.119 171.731 158 214.05C157.945 235.074 150.514 249.861 138.551 256.815Z" fill="url(#paint43_linear_925_5884)" stroke="#64B5C8"/>
<path d="M77.5879 107.042C114.42 128.304 144.169 179.837 144.049 222.156C143.929 264.475 113.975 281.533 77.1533 260.27C40.3319 239.018 10.5727 187.486 10.6923 145.167C10.8118 102.848 40.7665 85.7897 77.5879 107.042ZM77.1642 254.436C111.182 274.08 138.845 258.304 138.964 219.222C139.073 180.141 111.595 132.531 77.5662 112.887C43.5479 93.2431 15.8857 109.019 15.7771 148.1C15.6684 187.182 43.1459 234.792 77.1642 254.436Z" fill="url(#paint44_linear_925_5884)" stroke="#64B5C8"/>
<path d="M33.7369 108.594L36.3988 107.052C47.6006 100.543 63.1049 101.456 80.2281 111.343L77.5662 112.886C60.4539 102.999 44.9387 102.086 33.7369 108.594Z" fill="url(#paint45_linear_925_5884)" stroke="#64B5C8"/>
<path d="M123.655 257.184L120.994 258.727C132.054 252.306 138.91 238.638 138.964 219.222C139.073 180.141 111.584 132.52 77.5662 112.887L80.2281 111.344C114.246 130.988 141.735 178.598 141.626 217.679C141.572 237.095 134.716 250.763 123.655 257.184Z" fill="url(#paint46_linear_925_5884)" stroke="#64B5C8"/>
<path d="M77.5662 112.885C111.584 132.529 139.073 180.139 138.964 219.221C138.856 258.313 111.182 274.078 77.1642 254.434C43.146 234.801 15.6576 187.191 15.7663 148.098C15.8749 109.017 43.548 93.2412 77.5662 112.885Z" fill="url(#paint47_linear_925_5884)" stroke="#64B5C8"/>
<path d="M31.0859 110.137L33.7478 108.594C22.6873 115.026 15.8315 128.683 15.7771 148.11C15.6685 187.191 43.146 234.801 77.1643 254.445L74.5023 255.988C40.495 236.344 13.0066 188.734 13.1152 149.653C13.1695 130.226 20.0253 116.569 31.0859 110.137Z" fill="url(#paint48_linear_925_5884)" stroke="#64B5C8"/>
<path d="M36.2358 119.199L38.8978 117.656C41.8748 115.929 45.2212 114.777 48.9153 114.277L46.2533 115.82C42.5593 116.331 39.2128 117.472 36.2358 119.199Z" fill="url(#paint49_linear_925_5884)" stroke="#64B5C8"/>
<path d="M47.3834 115.646L50.0453 114.104L56.3578 129.488L53.6959 131.042L47.3834 115.646Z" fill="url(#paint50_linear_925_5884)" stroke="#64B5C8"/>
<path d="M46.2534 115.809L48.9153 114.266L50.0453 114.104L47.3834 115.646L46.2534 115.809Z" fill="url(#paint51_linear_925_5884)" stroke="#64B5C8"/>
<path d="M60.4974 116.863L63.1593 115.32C67.3966 116.429 71.7752 118.221 76.2081 120.655L73.5462 122.198C69.1242 119.764 64.7347 117.971 60.4974 116.863Z" fill="url(#paint52_linear_925_5884)" stroke="#64B5C8"/>
<path d="M47.3833 115.646L53.6959 131.03C59.9541 130.498 67.1902 132.367 74.8391 136.778C83.4768 141.765 91.7559 149.523 98.8073 159.236L99.9046 160.746L96.4278 164.494L94.2331 161.474L96.1671 159.388C89.8111 150.989 82.4663 144.253 74.8283 139.842C57.3465 129.748 42.1464 133.888 36.9855 150.131L34.4323 147.762C37.3984 138.408 43.5045 132.812 51.4142 131.345L46.5141 119.405C33.1937 121.784 24.795 133.182 23.3935 150.446L35.3884 158.214L35.3015 159.703C35.2471 160.594 35.2254 161.507 35.2254 162.419C35.1494 187.42 52.8049 217.994 74.5566 230.553C77.6423 232.335 80.6953 233.693 83.6724 234.606L82.9553 231.118L85.5411 231.792L86.9644 238.691L85.6715 238.355C82.0643 237.398 78.3268 235.823 74.5566 233.639C63.3114 227.142 53.0983 216.136 45.5471 203.478L42.6245 205.097L40.7557 201.816L43.6784 200.208C36.7465 187.561 32.5092 173.545 32.5526 160.887C32.5526 160.42 32.5526 159.953 32.5744 159.486L23.2305 153.434C23.2088 154.108 23.1979 154.781 23.1979 155.477C23.1436 174.262 30.5969 195.84 43.6566 214.701L44.7214 216.244L40.7883 219.982L38.6479 216.896L40.9839 214.68C27.9133 195.221 20.4708 173.165 20.5251 153.923C20.5468 145.166 22.144 137.614 25.0884 131.595L20.9923 127.021L22.1331 124.892L26.2292 129.466C30.6513 121.828 37.4962 117.025 46.2534 115.819L47.3833 115.656V115.646Z" fill="url(#paint53_linear_925_5884)" stroke="#64B5C8"/>
<path d="M76.2407 119.514L78.8918 117.971L78.8809 122.219L76.2299 123.762L76.2407 119.514Z" fill="url(#paint54_linear_925_5884)" stroke="#64B5C8"/>
<path d="M73.5571 117.96L76.219 116.417L78.8918 117.971L76.2408 119.514L73.5571 117.96Z" fill="url(#paint55_linear_925_5884)" stroke="#64B5C8"/>
<path d="M27.4787 103.944L30.1406 102.401C42.2659 95.3608 59.0523 96.3495 77.5771 107.041L74.9152 108.584C56.4013 97.8924 39.604 96.9037 27.4787 103.944Z" fill="url(#paint56_linear_925_5884)" stroke="#64B5C8"/>
<path d="M76.2407 119.514V123.762C95.8737 135.659 112.921 158.139 121.971 181.868L126.035 181.737L127.284 185.171L123.221 185.301C126.872 195.807 128.925 206.466 128.892 216.484C128.871 224.263 127.61 231.151 125.155 236.931L122.667 234.378C124.84 229.261 126.013 223.231 126.187 216.451L116.832 211.051C116.311 227.468 108.282 238.246 95.6021 239.311L94.2766 235.878C106.511 234.845 114.149 224.154 114.192 207.976C114.225 197.568 111.106 185.573 105.413 174.23L107.499 173.48C113.301 185.051 116.582 197.22 116.854 207.965L126.209 213.365C125.589 181.031 102.849 142.134 74.8935 126C70.2541 123.327 65.6582 121.382 61.2253 120.22L60.5191 116.841C64.7564 117.949 69.135 119.742 73.5679 122.176V117.938L76.2625 119.481L76.2407 119.514Z" fill="url(#paint57_linear_925_5884)" stroke="#64B5C8"/>
<path d="M74.9261 108.584C111.758 129.847 141.507 181.39 141.387 223.71C141.268 266.018 111.313 283.087 74.4915 261.824C37.67 240.572 7.91087 189.029 8.03039 146.72C8.1499 104.401 38.1046 87.3324 74.9261 108.584ZM74.5023 255.989C108.521 275.633 136.183 259.857 136.302 220.776C136.411 181.684 108.933 134.084 74.9043 114.44C40.8969 94.7966 13.2238 110.562 13.1152 149.654C13.0065 188.735 40.4841 236.346 74.5023 255.989Z" fill="url(#paint58_linear_925_5884)" stroke="#64B5C8"/>
<path d="M124.601 264.931L121.939 266.474C133.912 259.52 141.333 244.733 141.387 223.709C141.507 181.39 111.747 129.847 74.926 108.584L77.5879 107.041C114.42 128.304 144.169 179.847 144.049 222.166C143.995 243.179 136.563 257.977 124.601 264.931Z" fill="url(#paint59_linear_925_5884)" stroke="#64B5C8"/>
<path d="M335.944 20.6217L321.983 28.727C310.781 35.2351 295.277 34.3225 278.153 24.4353L292.115 16.3301C309.238 26.2172 324.742 27.1299 335.944 20.6217Z" fill="url(#paint60_linear_925_5884)" stroke="#64B5C8"/>
<path d="M234.748 -121.405L248.709 -129.511C237.649 -123.09 230.793 -109.421 230.739 -90.0057C230.63 -50.9244 258.107 -3.31404 292.126 16.3298L278.164 24.4351C244.146 4.80209 216.668 -42.8082 216.777 -81.9004C216.831 -101.316 223.687 -114.984 234.748 -121.405Z" fill="url(#paint61_linear_925_5884)" stroke="#64B5C8"/>
<path d="M339.551 26.8145L325.59 34.9198C337.563 27.9662 344.984 13.179 345.038 -7.84475C345.158 -50.1638 315.398 -101.696 278.577 -122.959L292.539 -131.064C329.371 -109.802 359.119 -58.2691 359 -15.95C358.945 5.07371 351.514 19.8609 339.551 26.8145Z" fill="url(#paint62_linear_925_5884)" stroke="#64B5C8"/>
<path d="M278.588 -122.958C315.42 -101.696 345.169 -50.1631 345.049 -7.84399C344.929 34.4751 314.975 51.5331 278.153 30.2704C241.332 9.01846 211.573 -42.5141 211.692 -84.8332C211.812 -127.152 241.767 -144.21 278.588 -122.958ZM278.164 24.4358C312.182 44.0797 339.845 28.3038 339.964 -10.7775C340.073 -49.8589 312.595 -97.4692 278.566 -117.113C244.548 -136.757 216.886 -120.981 216.777 -81.8997C216.668 -42.8183 244.146 4.79197 278.164 24.4358Z" fill="url(#paint63_linear_925_5884)" stroke="#64B5C8"/>
<path d="M324.655 27.1843L321.994 28.7272C333.054 22.306 339.91 8.63781 339.964 -10.7779C340.073 -49.8592 312.584 -97.4804 278.566 -117.113L281.228 -118.656C315.246 -99.0124 342.735 -51.4021 342.626 -12.3207C342.572 7.09499 335.716 20.7631 324.655 27.1843Z" fill="url(#paint64_linear_925_5884)" stroke="#64B5C8"/>
<path d="M278.566 -117.115C312.584 -97.471 340.073 -49.8607 339.964 -10.7794C339.856 28.3128 312.182 44.0779 278.164 24.434C244.146 4.80098 216.658 -42.8093 216.766 -81.9015C216.875 -120.983 244.548 -136.759 278.566 -117.115Z" fill="url(#paint65_linear_925_5884)" stroke="#64B5C8"/>
<path d="M232.086 -119.863L234.748 -121.406C223.687 -114.974 216.831 -101.317 216.777 -81.8903C216.668 -42.809 244.146 4.80134 278.164 24.4452L275.502 25.988C241.495 6.34416 214.007 -41.2662 214.115 -80.3475C214.17 -99.7741 221.025 -113.431 232.086 -119.863Z" fill="url(#paint66_linear_925_5884)" stroke="#64B5C8"/>
<path d="M236.323 -70.297L238.985 -71.8398C238.931 -70.9598 238.909 -70.0363 238.909 -69.1236C238.833 -44.1233 256.489 -13.5492 278.24 -0.989332C281.326 0.792524 284.379 2.15064 287.356 3.0633L284.694 4.60612C281.728 3.69347 278.664 2.33535 275.578 0.553493C253.816 -12.0064 236.171 -42.5805 236.247 -67.5808C236.247 -68.4934 236.28 -69.417 236.323 -70.297Z" fill="url(#paint67_linear_925_5884)" stroke="#64B5C8"/>
<path d="M286.552 1.79185L289.214 0.249023L290.637 7.13741L287.975 8.69111L286.552 1.79185Z" fill="url(#paint68_linear_925_5884)" stroke="#64B5C8"/>
<path d="M283.966 1.11815L286.628 -0.435547L289.214 0.248952L286.552 1.79178L283.966 1.11815Z" fill="url(#paint69_linear_925_5884)" stroke="#64B5C8"/>
<path d="M306.065 24.2939L308.717 22.7402L310.976 28.1075L308.315 29.6504L306.065 24.2939Z" fill="url(#paint70_linear_925_5884)" stroke="#64B5C8"/>
<path d="M306.272 1.78125L303.61 3.32407C301.155 4.74739 298.351 5.62745 295.266 5.88821L297.928 4.34539C301.024 4.08463 303.816 3.20456 306.272 1.78125Z" fill="url(#paint71_linear_925_5884)" stroke="#64B5C8"/>
<path d="M314.844 16.4494L312.182 17.9922C302.502 23.6203 289.377 22.3817 275.546 14.3959C268.234 10.1803 261.171 4.36752 254.565 -2.84682L257.227 -4.38965C263.833 2.8247 270.896 8.6266 278.208 12.8531C292.05 20.8388 305.175 22.0774 314.844 16.4494Z" fill="url(#paint72_linear_925_5884)" stroke="#64B5C8"/>
<path d="M321.994 28.738L319.332 30.2808C308.13 36.7889 292.626 35.8762 275.502 25.9891L278.164 24.4463C295.287 34.3334 310.792 35.2461 321.994 28.738Z" fill="url(#paint73_linear_925_5884)" stroke="#64B5C8"/>
<path d="M315.149 15.9715L317.811 14.4287L319.853 17.5795L317.191 19.1224L315.149 15.9715Z" fill="url(#paint74_linear_925_5884)" stroke="#64B5C8"/>
<path d="M315.149 15.9713L317.191 19.133C313.921 21.7406 310.162 23.4573 306.055 24.2939L308.315 29.6612L306.065 30.0306L303.806 24.6742C295.385 25.7172 285.639 23.3161 275.535 17.4816C267.843 13.0378 260.422 6.93168 253.468 -0.662942L254.566 -2.83594C261.171 4.37841 268.234 10.1803 275.546 14.4068C290.855 23.2509 305.294 23.8158 315.159 15.9822L315.149 15.9713Z" fill="url(#paint75_linear_925_5884)" stroke="#64B5C8"/>
<path d="M316.735 19.7086L314.073 21.2515C315.159 20.6213 316.192 19.9151 317.191 19.1219L319.853 17.5791C318.854 18.3722 317.821 19.0785 316.735 19.7086Z" fill="url(#paint76_linear_925_5884)" stroke="#64B5C8"/>
<path d="M308.162 5.04039L305.501 6.58322C312.943 2.25895 317.441 -6.80243 317.821 -18.9386L320.483 -20.4814C320.103 -8.34527 315.605 0.71613 308.162 5.04039Z" fill="url(#paint77_linear_925_5884)" stroke="#64B5C8"/>
<path d="M248.383 -114.354L254.696 -98.9697C260.954 -99.5021 268.19 -97.6333 275.839 -93.2221C284.477 -88.2351 292.756 -80.4775 299.807 -70.7642L300.905 -69.254L297.428 -65.5056L295.233 -68.526L297.167 -70.6121C290.811 -79.0107 283.466 -85.747 275.828 -90.1582C258.347 -100.252 243.146 -96.1122 237.986 -79.8691L235.432 -82.2376C238.398 -91.5924 244.505 -97.1878 252.414 -98.6546L247.514 -110.595C234.194 -108.216 225.795 -96.8184 224.393 -79.554L236.388 -71.7855L236.302 -70.297C236.247 -69.4061 236.225 -68.4934 236.225 -67.5808C236.149 -42.5805 253.805 -12.0064 275.557 0.553495C278.642 2.33535 281.695 3.69347 284.672 4.60613L283.955 1.11848L286.541 1.7921L287.964 8.69137L286.672 8.35456C283.064 7.39844 279.327 5.823 275.557 3.63914C264.311 -2.85811 254.098 -13.8643 246.547 -26.522L243.625 -24.9031L241.756 -28.1844L244.678 -29.7924C237.747 -42.4392 233.509 -56.455 233.553 -69.1127C233.553 -69.5799 233.553 -70.0471 233.574 -70.5143L224.231 -76.5661C224.209 -75.8925 224.198 -75.2188 224.198 -74.5235C224.144 -55.7379 231.597 -34.1601 244.657 -15.2985L245.721 -13.7557L241.788 -10.0181L239.648 -13.1038L241.984 -15.3202C228.913 -34.7794 221.471 -56.8353 221.525 -76.0772C221.547 -84.8344 223.144 -92.3855 226.088 -98.4047L221.992 -102.979L223.133 -105.108L227.229 -100.534C231.651 -108.172 238.496 -112.975 247.253 -114.181L248.383 -114.344V-114.354Z" fill="url(#paint78_linear_925_5884)" stroke="#64B5C8"/>
<path d="M324.221 -44.6876L326.883 -46.2305C330.533 -35.724 332.587 -25.0655 332.554 -15.048C332.533 -7.26867 331.272 -0.380263 328.817 5.3999L326.155 6.94273C328.61 1.1517 329.871 -5.72583 329.892 -13.5052C329.925 -23.5227 327.872 -34.1812 324.221 -44.6876Z" fill="url(#paint79_linear_925_5884)" stroke="#64B5C8"/>
<path d="M277.241 -110.486V-106.238C296.874 -94.341 313.921 -71.8614 322.971 -48.1323L327.035 -48.2627L328.284 -44.8293L324.221 -44.699C327.872 -34.1925 329.925 -23.534 329.892 -13.5165C329.871 -5.73716 328.61 1.15123 326.155 6.9314L323.667 4.37814C325.84 -0.739266 327.013 -6.76933 327.187 -13.5491L317.832 -18.949C317.311 -2.53199 309.282 8.24606 296.602 9.31083L295.277 5.87751C307.511 4.84534 315.149 -5.84581 315.192 -22.0238C315.225 -32.4324 312.106 -44.4273 306.413 -55.7704L308.499 -56.5201C314.301 -44.9489 317.582 -32.7801 317.854 -22.0346L327.209 -16.6347C326.589 -48.9689 303.849 -87.8655 275.893 -104C271.254 -106.673 266.658 -108.618 262.225 -109.78L261.519 -113.159C265.756 -112.051 270.135 -110.258 274.568 -107.824V-112.062L277.262 -110.519L277.241 -110.486Z" fill="url(#paint80_linear_925_5884)" stroke="#64B5C8"/>
<path d="M275.926 -121.416C312.758 -100.153 342.507 -48.6095 342.387 -6.29044C342.268 36.0178 312.313 53.0867 275.491 31.8239C238.67 10.572 208.911 -40.9714 209.03 -83.2797C209.15 -125.599 239.105 -142.668 275.926 -121.416ZM275.502 25.9894C309.521 45.6333 337.183 29.8573 337.302 -9.22399C337.411 -48.3162 309.933 -95.9156 275.904 -115.56C241.897 -135.203 214.224 -119.438 214.115 -80.3461C214.007 -41.2648 241.484 6.34553 275.502 25.9894Z" fill="url(#paint81_linear_925_5884)" stroke="#64B5C8"/>
<path d="M325.601 34.9308L322.939 36.4737C334.912 29.5201 342.333 14.7329 342.387 -6.29086C342.507 -48.6099 312.747 -100.153 275.926 -121.416L278.588 -122.959C315.42 -101.696 345.169 -50.1528 345.049 -7.83369C344.995 13.1792 337.563 27.9773 325.601 34.9308Z" fill="url(#paint82_linear_925_5884)" stroke="#64B5C8"/>
<path d="M314.748 68.5945L328.709 60.4893C317.649 66.9105 310.793 80.5786 310.739 99.9943C310.63 139.076 338.107 186.686 372.126 206.33L358.164 214.435C324.146 194.802 296.668 147.192 296.777 108.1C296.831 88.6839 303.687 75.0157 314.748 68.5945Z" fill="url(#paint83_linear_925_5884)" stroke="#64B5C8"/>
<path d="M311.141 62.4013L325.102 54.296C337.227 47.2555 354.014 48.2442 372.549 58.9462L358.588 67.0515C340.052 56.3495 323.266 55.3499 311.141 62.4013Z" fill="url(#paint84_linear_925_5884)" stroke="#64B5C8"/>
<path d="M419.551 216.815L405.59 224.92C417.563 217.966 424.984 203.179 425.038 182.155C425.158 139.836 395.398 88.3036 358.577 67.0408L372.539 58.9355C409.371 80.1983 439.119 131.731 439 174.05C438.945 195.074 431.514 209.861 419.551 216.815Z" fill="url(#paint85_linear_925_5884)" stroke="#64B5C8"/>
<path d="M358.588 67.0416C395.42 88.3043 425.169 139.837 425.049 182.156C424.929 224.475 394.975 241.533 358.153 220.27C321.332 199.018 291.573 147.486 291.692 105.167C291.812 62.8477 321.767 45.7897 358.588 67.0416ZM358.164 214.436C392.182 234.08 419.845 218.304 419.964 179.222C420.073 140.141 392.595 92.5308 358.566 72.8869C324.548 53.2431 296.886 69.019 296.777 108.1C296.668 147.182 324.146 194.792 358.164 214.436Z" fill="url(#paint86_linear_925_5884)" stroke="#64B5C8"/>
<path d="M314.737 68.5944L317.399 67.0516C328.601 60.5435 344.105 61.4561 361.228 71.3433L358.566 72.8861C341.454 62.999 325.939 62.0863 314.737 68.5944Z" fill="url(#paint87_linear_925_5884)" stroke="#64B5C8"/>
<path d="M404.655 217.184L401.994 218.727C413.054 212.306 419.91 198.638 419.964 179.222C420.073 140.141 392.584 92.5196 358.566 72.8866L361.228 71.3438C395.246 90.9876 422.735 138.598 422.626 177.679C422.572 197.095 415.716 210.763 404.655 217.184Z" fill="url(#paint88_linear_925_5884)" stroke="#64B5C8"/>
<path d="M358.566 72.8851C392.584 92.529 420.073 140.139 419.964 179.221C419.856 218.313 392.182 234.078 358.164 214.434C324.146 194.801 296.658 147.191 296.766 108.098C296.875 69.0172 324.548 53.2412 358.566 72.8851Z" fill="url(#paint89_linear_925_5884)" stroke="#64B5C8"/>
<path d="M312.086 70.1366L314.748 68.5938C303.687 75.0258 296.831 88.6831 296.777 108.11C296.668 147.191 324.146 194.801 358.164 214.445L355.502 215.988C321.495 196.344 294.007 148.734 294.115 109.653C294.17 90.2259 301.025 76.5686 312.086 70.1366Z" fill="url(#paint90_linear_925_5884)" stroke="#64B5C8"/>
<path d="M304.241 113.433L306.903 111.891C306.882 112.564 306.871 113.238 306.871 113.933C306.816 132.719 314.27 154.297 327.329 173.158L324.667 174.701C311.608 155.839 304.154 134.262 304.209 115.476C304.209 114.781 304.22 114.107 304.241 113.433Z" fill="url(#paint91_linear_925_5884)" stroke="#64B5C8"/>
<path d="M316.41 118.215L319.061 116.672L318.985 118.16L316.323 119.703L316.41 118.215Z" fill="url(#paint92_linear_925_5884)" stroke="#64B5C8"/>
<path d="M304.404 110.457L307.066 108.903L319.061 116.672L316.41 118.215L304.404 110.457Z" fill="url(#paint93_linear_925_5884)" stroke="#64B5C8"/>
<path d="M316.323 119.703L318.985 118.16C318.931 119.04 318.909 119.964 318.909 120.876C318.833 145.877 336.489 176.451 358.24 189.011C361.326 190.793 364.379 192.151 367.356 193.063L364.694 194.606C361.728 193.693 358.664 192.335 355.578 190.553C333.816 177.994 316.171 147.42 316.247 122.419C316.247 121.507 316.28 120.583 316.323 119.703Z" fill="url(#paint94_linear_925_5884)" stroke="#64B5C8"/>
<path d="M303.122 84.8915L305.784 83.3486L309.88 87.9119L307.229 89.4656L303.122 84.8915Z" fill="url(#paint95_linear_925_5884)" stroke="#64B5C8"/>
<path d="M319.137 82.4471L321.799 80.9043C313.368 85.8044 308.142 95.6155 307.066 108.914L304.404 110.457C305.48 97.1583 310.706 87.3472 319.137 82.4471Z" fill="url(#paint96_linear_925_5884)" stroke="#64B5C8"/>
<path d="M327.753 97.0174L330.415 95.4746C326.004 98.0387 322.614 102.45 320.658 108.6L317.996 110.142C319.952 103.993 323.342 99.5816 327.753 97.0174Z" fill="url(#paint97_linear_925_5884)" stroke="#64B5C8"/>
<path d="M325.852 93.7683L328.514 92.2255C330.524 91.063 332.718 90.2481 335.087 89.8135L332.425 91.3563C330.057 91.7909 327.862 92.6058 325.852 93.7683Z" fill="url(#paint98_linear_925_5884)" stroke="#64B5C8"/>
<path d="M317.236 79.1992L319.898 77.6564C322.875 75.9288 326.221 74.7771 329.915 74.2773L327.253 75.8202C323.559 76.3308 320.213 77.4716 317.236 79.1992Z" fill="url(#paint99_linear_925_5884)" stroke="#64B5C8"/>
<path d="M328.383 75.6463L331.045 74.1035L337.358 89.4883L334.696 91.042L328.383 75.6463Z" fill="url(#paint100_linear_925_5884)" stroke="#64B5C8"/>
<path d="M327.253 75.8093L329.915 74.2665L331.045 74.1035L328.383 75.6463L327.253 75.8093Z" fill="url(#paint101_linear_925_5884)" stroke="#64B5C8"/>
<path d="M341.497 76.8631L344.159 75.3203C348.397 76.4285 352.775 78.2213 357.208 80.655L354.546 82.1978C350.124 79.7641 345.735 77.9714 341.497 76.8631Z" fill="url(#paint102_linear_925_5884)" stroke="#64B5C8"/>
<path d="M334.696 91.0413L337.358 89.4985C343.616 88.9661 350.852 90.8349 358.501 95.2461C367.139 100.233 375.418 107.991 382.469 117.704L379.807 119.247C372.767 109.534 364.477 101.776 355.839 96.7889C348.19 92.3777 340.954 90.5089 334.696 91.0413Z" fill="url(#paint103_linear_925_5884)" stroke="#64B5C8"/>
<path d="M328.383 75.6455L334.696 91.0303C340.954 90.4979 348.19 92.3667 355.839 96.7779C364.477 101.765 372.756 109.523 379.807 119.236L380.905 120.746L377.428 124.494L375.233 121.474L377.167 119.388C370.811 110.989 363.466 104.253 355.828 99.8418C338.347 89.7482 323.146 93.8878 317.986 110.131L315.432 107.762C318.398 98.4076 324.505 92.8122 332.414 91.3454L327.514 79.4048C314.194 81.7842 305.795 93.1816 304.393 110.446L316.388 118.214L316.302 119.703C316.247 120.594 316.225 121.507 316.225 122.419C316.149 147.42 333.805 177.994 355.557 190.553C358.642 192.335 361.695 193.693 364.672 194.606L363.955 191.118L366.541 191.792L367.964 198.691L366.672 198.355C363.064 197.398 359.327 195.823 355.557 193.639C344.311 187.142 334.098 176.136 326.547 163.478L323.625 165.097L321.756 161.816L324.678 160.208C317.747 147.561 313.509 133.545 313.553 120.887C313.553 120.42 313.553 119.953 313.574 119.486L304.231 113.434C304.209 114.108 304.198 114.781 304.198 115.477C304.144 134.262 311.597 155.84 324.657 174.701L325.721 176.244L321.788 179.982L319.648 176.896L321.984 174.68C308.913 155.221 301.471 133.165 301.525 113.923C301.547 105.166 303.144 97.6145 306.088 91.5953L301.992 87.0211L303.133 84.8916L307.229 89.4658C311.651 81.8277 318.496 77.0254 327.253 75.8193L328.383 75.6564V75.6455Z" fill="url(#paint104_linear_925_5884)" stroke="#64B5C8"/>
<path d="M357.241 79.5135L359.892 77.9707L359.881 82.2189L357.23 83.7617L357.241 79.5135Z" fill="url(#paint105_linear_925_5884)" stroke="#64B5C8"/>
<path d="M354.557 77.9598L357.219 76.417L359.892 77.9707L357.241 79.5135L354.557 77.9598Z" fill="url(#paint106_linear_925_5884)" stroke="#64B5C8"/>
<path d="M308.479 63.9442L311.141 62.4013C323.266 55.3608 340.052 56.3495 358.577 67.0407L355.915 68.5835C337.401 57.8924 320.604 56.9037 308.479 63.9442Z" fill="url(#paint107_linear_925_5884)" stroke="#64B5C8"/>
<path d="M357.241 79.5136V83.7618C376.874 95.659 393.921 118.139 402.971 141.868L407.035 141.737L408.284 145.171L404.221 145.301C407.872 155.807 409.925 166.466 409.892 176.484C409.871 184.263 408.61 191.151 406.155 196.931L403.667 194.378C405.84 189.261 407.013 183.231 407.187 176.451L397.832 171.051C397.311 187.468 389.282 198.246 376.602 199.311L375.277 195.878C387.511 194.845 395.149 184.154 395.192 167.976C395.225 157.568 392.106 145.573 386.413 134.23L388.499 133.48C394.301 145.051 397.582 157.22 397.854 167.965L407.209 173.365C406.589 141.031 383.849 102.134 355.893 86C351.254 83.3272 346.658 81.3824 342.225 80.2198L341.519 76.8408C345.756 77.949 350.135 79.7418 354.568 82.1755V77.9382L357.262 79.481L357.241 79.5136Z" fill="url(#paint108_linear_925_5884)" stroke="#64B5C8"/>
<path d="M357.23 83.7616L359.892 82.2188C379.536 94.1159 396.583 116.596 405.633 140.325L402.971 141.867C393.91 118.127 376.874 95.6479 357.23 83.7616Z" fill="url(#paint109_linear_925_5884)" stroke="#64B5C8"/>
<path d="M355.926 68.5843C392.758 89.847 422.507 141.39 422.387 183.71C422.268 226.018 392.313 243.087 355.491 221.824C318.67 200.572 288.911 149.029 289.03 106.72C289.15 64.4013 319.105 47.3324 355.926 68.5843ZM355.502 215.989C389.521 235.633 417.183 219.857 417.302 180.776C417.411 141.684 389.933 94.0844 355.904 74.4405C321.897 54.7966 294.224 70.5617 294.115 109.654C294.007 148.735 321.484 196.346 355.502 215.989Z" fill="url(#paint110_linear_925_5884)" stroke="#64B5C8"/>
<path d="M405.601 224.931L402.939 226.474C414.912 219.52 422.333 204.733 422.387 183.709C422.507 141.39 392.747 89.8466 355.926 68.5838L358.588 67.041C395.42 88.3038 425.169 139.847 425.049 182.166C424.995 203.179 417.563 217.977 405.601 224.931Z" fill="url(#paint111_linear_925_5884)" stroke="#64B5C8"/>
<path d="M63.9441 58.6217L49.9826 66.727C38.7808 73.2351 23.2765 72.3225 6.15332 62.4353L20.1148 54.3301C37.238 64.2172 52.7423 65.1299 63.9441 58.6217Z" fill="url(#paint112_linear_925_5884)" stroke="#64B5C8"/>
<path d="M-37.2522 -83.4055L-23.2907 -91.5107C-34.3513 -85.0895 -41.2071 -71.4214 -41.2614 -52.0057C-41.3701 -12.9244 -13.8925 34.686 20.1257 54.3298L6.16421 62.4351C-27.854 42.8021 -55.3316 -4.80823 -55.2229 -43.9004C-55.1686 -63.3161 -48.3128 -76.9843 -37.2522 -83.4055Z" fill="url(#paint113_linear_925_5884)" stroke="#64B5C8"/>
<path d="M67.5513 64.8145L53.5898 72.9198C65.563 65.9662 72.9838 51.179 73.0381 30.1553C73.1577 -12.1638 43.3985 -63.6964 6.57709 -84.9592L20.5386 -93.0645C57.3709 -71.8017 87.1192 -20.2691 86.9996 22.05C86.9453 43.0737 79.5137 57.8609 67.5513 64.8145Z" fill="url(#paint114_linear_925_5884)" stroke="#64B5C8"/>
<path d="M6.58792 -84.9584C43.4202 -63.6957 73.1685 -12.1631 73.049 30.156C72.9295 72.4751 42.9747 89.5331 6.15332 68.2704C-30.6681 47.0185 -60.4273 -4.51413 -60.3077 -46.8332C-60.1882 -89.1523 -30.2335 -106.21 6.58792 -84.9584ZM6.16419 62.4358C40.1824 82.0797 67.8447 66.3038 67.9642 27.2225C68.0728 -11.8589 40.5953 -59.4692 6.56619 -79.1131C-27.4521 -98.7569 -55.1143 -82.981 -55.2229 -43.8997C-55.3316 -4.81835 -27.8541 42.792 6.16419 62.4358Z" fill="url(#paint115_linear_925_5884)" stroke="#64B5C8"/>
<path d="M52.6555 65.1843L49.9936 66.7272C61.0541 60.306 67.9099 46.6378 67.9642 27.2221C68.0729 -11.8592 40.5845 -59.4804 6.56625 -79.1134L9.22817 -80.6562C43.2464 -61.0124 70.7348 -13.4021 70.6262 25.6793C70.5718 45.095 63.716 58.7631 52.6555 65.1843Z" fill="url(#paint116_linear_925_5884)" stroke="#64B5C8"/>
<path d="M6.56624 -79.1149C40.5845 -59.471 68.0729 -11.8607 67.9642 27.2206C67.8556 66.3128 40.1825 82.0779 6.16423 62.434C-27.854 42.801 -55.3424 -4.80933 -55.2337 -43.9015C-55.1251 -82.9828 -27.452 -98.7588 6.56624 -79.1149Z" fill="url(#paint117_linear_925_5884)" stroke="#64B5C8"/>
<path d="M-39.9141 -81.8634L-37.2522 -83.4062C-48.3127 -76.9742 -55.1685 -63.3169 -55.2229 -43.8903C-55.3315 -4.809 -27.854 42.8013 6.16426 62.4452L3.50234 63.988C-30.505 44.3442 -57.9934 -3.26617 -57.8848 -42.3475C-57.8305 -61.7741 -50.9747 -75.4314 -39.9141 -81.8634Z" fill="url(#paint118_linear_925_5884)" stroke="#64B5C8"/>
<path d="M-35.6768 -32.297L-33.0149 -33.8398C-33.0692 -32.9598 -33.0909 -32.0363 -33.0909 -31.1236C-33.167 -6.12329 -15.5114 24.4508 6.2403 37.0107C9.32595 38.7925 12.379 40.1506 15.356 41.0633L12.6941 42.6061C9.72795 41.6935 6.66403 40.3353 3.57838 38.5535C-18.1842 25.9936 -35.8289 -4.58046 -35.7528 -29.5808C-35.7528 -30.4934 -35.7202 -31.417 -35.6768 -32.297Z" fill="url(#paint119_linear_925_5884)" stroke="#64B5C8"/>
<path d="M14.552 39.7918L17.2139 38.249L18.6372 45.1374L15.9753 46.6911L14.552 39.7918Z" fill="url(#paint120_linear_925_5884)" stroke="#64B5C8"/>
<path d="M11.9661 39.1182L14.628 37.5645L17.2139 38.249L14.552 39.7918L11.9661 39.1182Z" fill="url(#paint121_linear_925_5884)" stroke="#64B5C8"/>
<path d="M34.0655 62.2939L36.7165 60.7402L38.9765 66.1075L36.3145 67.6504L34.0655 62.2939Z" fill="url(#paint122_linear_925_5884)" stroke="#64B5C8"/>
<path d="M34.2719 39.7812L31.61 41.3241C29.1545 42.7474 26.3513 43.6275 23.2657 43.8882L25.9276 42.3454C29.0241 42.0846 31.8164 41.2046 34.2719 39.7812Z" fill="url(#paint123_linear_925_5884)" stroke="#64B5C8"/>
<path d="M42.8444 54.4494L40.1825 55.9922C30.5018 61.6203 17.3769 60.3817 3.54579 52.3959C-3.76634 48.1803 -10.8286 42.3675 -17.4345 35.1532L-14.7726 33.6104C-8.16665 40.8247 -1.10442 46.6266 6.20771 50.8531C20.0497 58.8388 33.1746 60.0774 42.8444 54.4494Z" fill="url(#paint124_linear_925_5884)" stroke="#64B5C8"/>
<path d="M49.9936 66.738L47.3317 68.2808C36.1299 74.7889 20.6256 73.8762 3.50235 63.9891L6.16427 62.4463C23.2875 72.3334 38.7918 73.2461 49.9936 66.738Z" fill="url(#paint125_linear_925_5884)" stroke="#64B5C8"/>
<path d="M43.1486 53.9715L45.8105 52.4287L47.8532 55.5795L45.1912 57.1224L43.1486 53.9715Z" fill="url(#paint126_linear_925_5884)" stroke="#64B5C8"/>
<path d="M43.1486 53.9713L45.1912 57.133C41.9209 59.7406 38.1616 61.4573 34.0546 62.2939L36.3145 67.6612L34.0655 68.0306L31.8056 62.6742C23.3852 63.7172 13.6393 61.3161 3.5349 55.4816C-4.1575 51.0378 -11.5783 44.9317 -18.5319 37.3371L-17.4345 35.1641C-10.8286 42.3784 -3.76636 48.1803 3.54577 52.4068C18.8545 61.2509 33.2941 61.8158 43.1595 53.9822L43.1486 53.9713Z" fill="url(#paint127_linear_925_5884)" stroke="#64B5C8"/>
<path d="M44.7349 57.7086L42.073 59.2515C43.1595 58.6213 44.1917 57.9151 45.1912 57.1219L47.8532 55.5791C46.8536 56.3722 45.8214 57.0785 44.7349 57.7086Z" fill="url(#paint128_linear_925_5884)" stroke="#64B5C8"/>
<path d="M36.1625 43.0404L33.5005 44.5832C40.9431 40.259 45.4412 31.1976 45.8214 19.0614L48.4834 17.5186C48.1031 29.6547 43.605 38.7161 36.1625 43.0404Z" fill="url(#paint129_linear_925_5884)" stroke="#64B5C8"/>
<path d="M45.8323 15.9872L48.4833 14.4443L57.8489 19.8442L55.187 21.3871L45.8323 15.9872Z" fill="url(#paint130_linear_925_5884)" stroke="#64B5C8"/>
<path d="M-23.6167 -76.3545L-17.3041 -60.9697C-11.0459 -61.5021 -3.80982 -59.6333 3.83913 -55.2221C12.4768 -50.2351 20.7559 -42.4775 27.8073 -32.7642L28.9046 -31.254L25.4278 -27.5056L23.2331 -30.526L25.1671 -32.6121C18.8111 -41.0107 11.4663 -47.747 3.82826 -52.1582C-13.6535 -62.2518 -28.8536 -58.1122 -34.0145 -41.8691L-36.5677 -44.2376C-33.6016 -53.5924 -27.4955 -59.1878 -19.5858 -60.6546L-24.4859 -72.5952C-37.8063 -70.2158 -46.205 -58.8184 -47.6065 -41.554L-35.6116 -33.7855L-35.6985 -32.297C-35.7529 -31.4061 -35.7746 -30.4934 -35.7746 -29.5808C-35.8506 -4.58046 -18.1951 25.9936 3.55663 38.5535C6.64229 40.3354 9.69535 41.6935 12.6724 42.6061L11.9553 39.1185L14.5411 39.7921L15.9644 46.6914L14.6715 46.3546C11.0643 45.3984 7.32678 43.823 3.55663 41.6391C-7.68862 35.1419 -17.9017 24.1357 -25.4529 11.478L-28.3755 13.0969L-30.2443 9.81563L-27.3216 8.20762C-34.2535 -4.43921 -38.4908 -18.455 -38.4474 -31.1127C-38.4474 -31.5799 -38.4474 -32.0471 -38.4256 -32.5143L-47.7695 -38.5661C-47.7912 -37.8925 -47.8021 -37.2188 -47.8021 -36.5235C-47.8564 -17.7379 -40.4031 3.8399 -27.3434 22.7015L-26.2786 24.2443L-30.2117 27.9819L-32.3521 24.8962L-30.0161 22.6798C-43.0867 3.22059 -50.5292 -18.8353 -50.4749 -38.0772C-50.4532 -46.8344 -48.856 -54.3855 -45.9116 -60.4047L-50.0077 -64.9789L-48.8669 -67.1084L-44.7708 -62.5342C-40.3487 -70.1723 -33.5038 -74.9746 -24.7466 -76.1807L-23.6167 -76.3436V-76.3545Z" fill="url(#paint131_linear_925_5884)" stroke="#64B5C8"/>
<path d="M36.4775 -18.4982L39.1395 -20.041C44.9414 -8.46982 48.2226 3.69896 48.4942 14.4444L45.8323 15.9873C45.5715 5.24179 42.2794 -6.92698 36.4775 -18.4982Z" fill="url(#paint132_linear_925_5884)" stroke="#64B5C8"/>
<path d="M52.2209 -6.68764L54.8828 -8.23047C58.5334 2.27596 60.5869 12.9345 60.5543 22.952C60.5326 30.7313 59.2723 37.6197 56.8168 43.3999L54.1549 44.9427C56.6103 39.1517 57.8707 32.2742 57.8924 24.4948C57.925 14.4773 55.8715 3.81879 52.2209 -6.68764Z" fill="url(#paint133_linear_925_5884)" stroke="#64B5C8"/>
<path d="M5.24075 -72.4864V-68.2382C24.8738 -56.341 41.9209 -33.8614 50.9715 -10.1323L55.035 -10.2627L56.2844 -6.82934L52.2209 -6.69896C55.8715 3.80747 57.925 14.466 57.8924 24.4835C57.8707 32.2628 56.6104 39.1512 54.1549 44.9314L51.6668 42.3781C53.8398 37.2607 55.0132 31.2307 55.1871 24.4509L45.8323 19.051C45.3108 35.468 37.2816 46.2461 24.6021 47.3108L23.2766 43.8775C35.5106 42.8453 43.1487 32.1542 43.1921 15.9762C43.2247 5.56759 40.1065 -6.42734 34.4132 -17.7704L36.4993 -18.5201C42.3012 -6.94886 45.5824 5.21991 45.854 15.9654L55.2088 21.3653C54.5895 -10.9689 31.8491 -49.8655 3.8935 -66C-0.745846 -68.6728 -5.34173 -70.6176 -9.77464 -71.7802L-10.4809 -75.1592C-6.24352 -74.051 -1.86494 -72.2582 2.56797 -69.8245V-74.0618L5.26249 -72.519L5.24075 -72.4864Z" fill="url(#paint134_linear_925_5884)" stroke="#64B5C8"/>
<path d="M3.92606 -83.4157C40.7583 -62.153 70.5066 -10.6095 70.3871 31.7096C70.2676 74.0178 40.3129 91.0867 3.49146 69.8239C-33.33 48.572 -63.0891 -2.97144 -62.9696 -45.2797C-62.8501 -87.5987 -32.8954 -104.668 3.92606 -83.4157ZM3.50232 63.9894C37.5206 83.6333 65.1828 67.8573 65.3023 28.776C65.411 -10.3162 37.9334 -57.9156 3.90433 -77.5595C-30.1031 -97.2034 -57.7762 -81.4383 -57.8848 -42.3461C-57.9935 -3.26479 -30.5159 44.3455 3.50232 63.9894Z" fill="url(#paint135_linear_925_5884)" stroke="#64B5C8"/>
<path d="M53.6007 72.9308L50.9388 74.4737C62.912 67.5201 70.3328 52.7329 70.3871 31.7091C70.5066 -10.6099 40.7474 -62.1534 3.92603 -83.4162L6.58794 -84.959C43.4202 -63.6962 73.1685 -12.1528 73.049 30.1663C72.9947 51.1792 65.563 65.9773 53.6007 72.9308Z" fill="url(#paint136_linear_925_5884)" stroke="#64B5C8"/>
</g>
<defs>
<linearGradient id="paint0_linear_925_5884" x1="150.451" y1="-19.5107" x2="150.451" y2="134.435" gradientUnits="userSpaceOnUse">
<stop stop-color="#A8C9D1"/>
<stop offset="1" stop-color="white"/>
</linearGradient>
<linearGradient id="paint1_linear_925_5884" x1="214.789" y1="-21.0645" x2="214.789" y2="144.92" gradientUnits="userSpaceOnUse">
<stop stop-color="#A8C9D1"/>
<stop offset="1" stop-color="white"/>
</linearGradient>
<linearGradient id="paint2_linear_925_5884" x1="174.371" y1="-22.1006" x2="174.371" y2="149.42" gradientUnits="userSpaceOnUse">
<stop stop-color="#A8C9D1"/>
<stop offset="1" stop-color="white"/>
</linearGradient>
<linearGradient id="paint3_linear_925_5884" x1="206.596" y1="-8.65625" x2="206.596" y2="138.727" gradientUnits="userSpaceOnUse">
<stop stop-color="#A8C9D1"/>
<stop offset="1" stop-color="white"/>
</linearGradient>
<linearGradient id="paint4_linear_925_5884" x1="174.365" y1="-15.5645" x2="174.365" y2="142.886" gradientUnits="userSpaceOnUse">
<stop stop-color="#A8C9D1"/>
<stop offset="1" stop-color="white"/>
</linearGradient>
<linearGradient id="paint5_linear_925_5884" x1="142.14" y1="-11.4063" x2="142.14" y2="135.988" gradientUnits="userSpaceOnUse">
<stop stop-color="#A8C9D1"/>
<stop offset="1" stop-color="white"/>
</linearGradient>
<linearGradient id="paint6_linear_925_5884" x1="141.086" y1="94.7021" x2="141.086" y2="99.9825" gradientUnits="userSpaceOnUse">
<stop stop-color="#A8C9D1"/>
<stop offset="1" stop-color="white"/>
</linearGradient>
<linearGradient id="paint7_linear_925_5884" x1="142.52" y1="93.1592" x2="142.52" y2="96.2448" gradientUnits="userSpaceOnUse">
<stop stop-color="#A8C9D1"/>
<stop offset="1" stop-color="white"/>
</linearGradient>
<linearGradient id="paint8_linear_925_5884" x1="140.559" y1="78.665" x2="140.559" y2="81.8159" gradientUnits="userSpaceOnUse">
<stop stop-color="#A8C9D1"/>
<stop offset="1" stop-color="white"/>
</linearGradient>
<linearGradient id="paint9_linear_925_5884" x1="131.769" y1="31.8906" x2="131.769" y2="94.7011" gradientUnits="userSpaceOnUse">
<stop stop-color="#A8C9D1"/>
<stop offset="1" stop-color="white"/>
</linearGradient>
<linearGradient id="paint10_linear_925_5884" x1="133.692" y1="36.6719" x2="133.692" y2="39.7032" gradientUnits="userSpaceOnUse">
<stop stop-color="#A8C9D1"/>
<stop offset="1" stop-color="white"/>
</linearGradient>
<linearGradient id="paint11_linear_925_5884" x1="127.733" y1="28.9033" x2="127.733" y2="38.2146" gradientUnits="userSpaceOnUse">
<stop stop-color="#A8C9D1"/>
<stop offset="1" stop-color="white"/>
</linearGradient>
<linearGradient id="paint12_linear_925_5884" x1="157.801" y1="38.1602" x2="157.801" y2="114.606" gradientUnits="userSpaceOnUse">
<stop stop-color="#A8C9D1"/>
<stop offset="1" stop-color="white"/>
</linearGradient>
<linearGradient id="paint13_linear_925_5884" x1="184.595" y1="110.249" x2="184.595" y2="118.691" gradientUnits="userSpaceOnUse">
<stop stop-color="#A8C9D1"/>
<stop offset="1" stop-color="white"/>
</linearGradient>
<linearGradient id="paint14_linear_925_5884" x1="182.59" y1="109.564" x2="182.59" y2="111.792" gradientUnits="userSpaceOnUse">
<stop stop-color="#A8C9D1"/>
<stop offset="1" stop-color="white"/>
</linearGradient>
<linearGradient id="paint15_linear_925_5884" x1="122.501" y1="3.34863" x2="122.501" y2="9.46562" gradientUnits="userSpaceOnUse">
<stop stop-color="#A8C9D1"/>
<stop offset="1" stop-color="white"/>
</linearGradient>
<linearGradient id="paint16_linear_925_5884" x1="129.102" y1="0.904297" x2="129.102" y2="30.457" gradientUnits="userSpaceOnUse">
<stop stop-color="#A8C9D1"/>
<stop offset="1" stop-color="white"/>
</linearGradient>
<linearGradient id="paint17_linear_925_5884" x1="196.769" y1="111.781" x2="196.769" y2="115.888" gradientUnits="userSpaceOnUse">
<stop stop-color="#A8C9D1"/>
<stop offset="1" stop-color="white"/>
</linearGradient>
<linearGradient id="paint18_linear_925_5884" x1="180.705" y1="105.61" x2="180.705" y2="131.46" gradientUnits="userSpaceOnUse">
<stop stop-color="#A8C9D1"/>
<stop offset="1" stop-color="white"/>
</linearGradient>
<linearGradient id="paint19_linear_925_5884" x1="140.206" y1="15.4746" x2="140.206" y2="30.1423" gradientUnits="userSpaceOnUse">
<stop stop-color="#A8C9D1"/>
<stop offset="1" stop-color="white"/>
</linearGradient>
<linearGradient id="paint20_linear_925_5884" x1="181.33" y1="107.164" x2="181.33" y2="140.031" gradientUnits="userSpaceOnUse">
<stop stop-color="#A8C9D1"/>
<stop offset="1" stop-color="white"/>
</linearGradient>
<linearGradient id="paint21_linear_925_5884" x1="146.469" y1="9.81348" x2="146.469" y2="13.7683" gradientUnits="userSpaceOnUse">
<stop stop-color="#A8C9D1"/>
<stop offset="1" stop-color="white"/>
</linearGradient>
<linearGradient id="paint22_linear_925_5884" x1="148.871" y1="-5.89648" x2="148.871" y2="11.042" gradientUnits="userSpaceOnUse">
<stop stop-color="#A8C9D1"/>
<stop offset="1" stop-color="white"/>
</linearGradient>
<linearGradient id="paint23_linear_925_5884" x1="208.992" y1="89.5186" x2="208.992" y2="116.583" gradientUnits="userSpaceOnUse">
<stop stop-color="#A8C9D1"/>
<stop offset="1" stop-color="white"/>
</linearGradient>
<linearGradient id="paint24_linear_925_5884" x1="219.841" y1="86.4443" x2="219.841" y2="93.3871" gradientUnits="userSpaceOnUse">
<stop stop-color="#A8C9D1"/>
<stop offset="1" stop-color="white"/>
</linearGradient>
<linearGradient id="paint25_linear_925_5884" x1="165.353" y1="-4.67969" x2="165.353" y2="2.19784" gradientUnits="userSpaceOnUse">
<stop stop-color="#A8C9D1"/>
<stop offset="1" stop-color="white"/>
</linearGradient>
<linearGradient id="paint26_linear_925_5884" x1="174.583" y1="9.41016" x2="174.583" y2="39.2468" gradientUnits="userSpaceOnUse">
<stop stop-color="#A8C9D1"/>
<stop offset="1" stop-color="white"/>
</linearGradient>
<linearGradient id="paint27_linear_925_5884" x1="196.497" y1="39.2139" x2="196.497" y2="44.5051" gradientUnits="userSpaceOnUse">
<stop stop-color="#A8C9D1"/>
<stop offset="1" stop-color="white"/>
</linearGradient>
<linearGradient id="paint28_linear_925_5884" x1="157.215" y1="-4.35449" x2="157.215" y2="118.691" gradientUnits="userSpaceOnUse">
<stop stop-color="#A8C9D1"/>
<stop offset="1" stop-color="white"/>
</linearGradient>
<linearGradient id="paint29_linear_925_5884" x1="197.687" y1="37.6934" x2="197.687" y2="40.7573" gradientUnits="userSpaceOnUse">
<stop stop-color="#A8C9D1"/>
<stop offset="1" stop-color="white"/>
</linearGradient>
<linearGradient id="paint30_linear_925_5884" x1="210.486" y1="51.959" x2="210.486" y2="87.9873" gradientUnits="userSpaceOnUse">
<stop stop-color="#A8C9D1"/>
<stop offset="1" stop-color="white"/>
</linearGradient>
<linearGradient id="paint31_linear_925_5884" x1="204.765" y1="51.959" x2="204.765" y2="54.2515" gradientUnits="userSpaceOnUse">
<stop stop-color="#A8C9D1"/>
<stop offset="1" stop-color="white"/>
</linearGradient>
<linearGradient id="paint32_linear_925_5884" x1="174.561" y1="-2.0293" x2="174.561" y2="3.76174" gradientUnits="userSpaceOnUse">
<stop stop-color="#A8C9D1"/>
<stop offset="1" stop-color="white"/>
</linearGradient>
<linearGradient id="paint33_linear_925_5884" x1="173.224" y1="-3.58301" x2="173.224" y2="-0.486489" gradientUnits="userSpaceOnUse">
<stop stop-color="#A8C9D1"/>
<stop offset="1" stop-color="white"/>
</linearGradient>
<linearGradient id="paint34_linear_925_5884" x1="224.388" y1="63.7695" x2="224.388" y2="116.943" gradientUnits="userSpaceOnUse">
<stop stop-color="#A8C9D1"/>
<stop offset="1" stop-color="white"/>
</linearGradient>
<linearGradient id="paint35_linear_925_5884" x1="222.334" y1="60.1953" x2="222.334" y2="61.8685" gradientUnits="userSpaceOnUse">
<stop stop-color="#A8C9D1"/>
<stop offset="1" stop-color="white"/>
</linearGradient>
<linearGradient id="paint36_linear_925_5884" x1="224.991" y1="60.1953" x2="224.991" y2="65.1715" gradientUnits="userSpaceOnUse">
<stop stop-color="#A8C9D1"/>
<stop offset="1" stop-color="white"/>
</linearGradient>
<linearGradient id="paint37_linear_925_5884" x1="191.706" y1="-3.15918" x2="191.706" y2="119.311" gradientUnits="userSpaceOnUse">
<stop stop-color="#A8C9D1"/>
<stop offset="1" stop-color="white"/>
</linearGradient>
<linearGradient id="paint38_linear_925_5884" x1="197.432" y1="2.21875" x2="197.432" y2="61.8675" gradientUnits="userSpaceOnUse">
<stop stop-color="#A8C9D1"/>
<stop offset="1" stop-color="white"/>
</linearGradient>
<linearGradient id="paint39_linear_925_5884" x1="171.709" y1="-20.5557" x2="171.709" y2="150.971" gradientUnits="userSpaceOnUse">
<stop stop-color="#A8C9D1"/>
<stop offset="1" stop-color="white"/>
</linearGradient>
<linearGradient id="paint40_linear_925_5884" x1="206.488" y1="-12.959" x2="206.488" y2="146.474" gradientUnits="userSpaceOnUse">
<stop stop-color="#A8C9D1"/>
<stop offset="1" stop-color="white"/>
</linearGradient>
<linearGradient id="paint41_linear_925_5884" x1="53.4512" y1="100.489" x2="53.4512" y2="254.435" gradientUnits="userSpaceOnUse">
<stop stop-color="#A8C9D1"/>
<stop offset="1" stop-color="white"/>
</linearGradient>
<linearGradient id="paint42_linear_925_5884" x1="60.845" y1="89.7988" x2="60.845" y2="107.052" gradientUnits="userSpaceOnUse">
<stop stop-color="#A8C9D1"/>
<stop offset="1" stop-color="white"/>
</linearGradient>
<linearGradient id="paint43_linear_925_5884" x1="117.789" y1="98.9355" x2="117.789" y2="264.92" gradientUnits="userSpaceOnUse">
<stop stop-color="#A8C9D1"/>
<stop offset="1" stop-color="white"/>
</linearGradient>
<linearGradient id="paint44_linear_925_5884" x1="77.3706" y1="97.8994" x2="77.3706" y2="269.42" gradientUnits="userSpaceOnUse">
<stop stop-color="#A8C9D1"/>
<stop offset="1" stop-color="white"/>
</linearGradient>
<linearGradient id="paint45_linear_925_5884" x1="56.9825" y1="102.894" x2="56.9825" y2="112.886" gradientUnits="userSpaceOnUse">
<stop stop-color="#A8C9D1"/>
<stop offset="1" stop-color="white"/>
</linearGradient>
<linearGradient id="paint46_linear_925_5884" x1="109.596" y1="111.344" x2="109.596" y2="258.727" gradientUnits="userSpaceOnUse">
<stop stop-color="#A8C9D1"/>
<stop offset="1" stop-color="white"/>
</linearGradient>
<linearGradient id="paint47_linear_925_5884" x1="77.3652" y1="104.436" x2="77.3652" y2="262.886" gradientUnits="userSpaceOnUse">
<stop stop-color="#A8C9D1"/>
<stop offset="1" stop-color="white"/>
</linearGradient>
<linearGradient id="paint48_linear_925_5884" x1="45.1396" y1="108.594" x2="45.1396" y2="255.988" gradientUnits="userSpaceOnUse">
<stop stop-color="#A8C9D1"/>
<stop offset="1" stop-color="white"/>
</linearGradient>
<linearGradient id="paint49_linear_925_5884" x1="42.5756" y1="114.277" x2="42.5756" y2="119.199" gradientUnits="userSpaceOnUse">
<stop stop-color="#A8C9D1"/>
<stop offset="1" stop-color="white"/>
</linearGradient>
<linearGradient id="paint50_linear_925_5884" x1="51.8706" y1="114.104" x2="51.8706" y2="131.042" gradientUnits="userSpaceOnUse">
<stop stop-color="#A8C9D1"/>
<stop offset="1" stop-color="white"/>
</linearGradient>
<linearGradient id="paint51_linear_925_5884" x1="48.1494" y1="114.104" x2="48.1494" y2="115.809" gradientUnits="userSpaceOnUse">
<stop stop-color="#A8C9D1"/>
<stop offset="1" stop-color="white"/>
</linearGradient>
<linearGradient id="paint52_linear_925_5884" x1="68.3528" y1="115.32" x2="68.3528" y2="122.198" gradientUnits="userSpaceOnUse">
<stop stop-color="#A8C9D1"/>
<stop offset="1" stop-color="white"/>
</linearGradient>
<linearGradient id="paint53_linear_925_5884" x1="60.2147" y1="115.646" x2="60.2147" y2="238.691" gradientUnits="userSpaceOnUse">
<stop stop-color="#A8C9D1"/>
<stop offset="1" stop-color="white"/>
</linearGradient>
<linearGradient id="paint54_linear_925_5884" x1="77.5608" y1="117.971" x2="77.5608" y2="123.762" gradientUnits="userSpaceOnUse">
<stop stop-color="#A8C9D1"/>
<stop offset="1" stop-color="white"/>
</linearGradient>
<linearGradient id="paint55_linear_925_5884" x1="76.2245" y1="116.417" x2="76.2245" y2="119.514" gradientUnits="userSpaceOnUse">
<stop stop-color="#A8C9D1"/>
<stop offset="1" stop-color="white"/>
</linearGradient>
<linearGradient id="paint56_linear_925_5884" x1="52.5279" y1="97.9033" x2="52.5279" y2="108.584" gradientUnits="userSpaceOnUse">
<stop stop-color="#A8C9D1"/>
<stop offset="1" stop-color="white"/>
</linearGradient>
<linearGradient id="paint57_linear_925_5884" x1="94.7059" y1="116.841" x2="94.7059" y2="239.311" gradientUnits="userSpaceOnUse">
<stop stop-color="#A8C9D1"/>
<stop offset="1" stop-color="white"/>
</linearGradient>
<linearGradient id="paint58_linear_925_5884" x1="74.7088" y1="99.4443" x2="74.7088" y2="270.971" gradientUnits="userSpaceOnUse">
<stop stop-color="#A8C9D1"/>
<stop offset="1" stop-color="white"/>
</linearGradient>
<linearGradient id="paint59_linear_925_5884" x1="109.488" y1="107.041" x2="109.488" y2="266.474" gradientUnits="userSpaceOnUse">
<stop stop-color="#A8C9D1"/>
<stop offset="1" stop-color="white"/>
</linearGradient>
<linearGradient id="paint60_linear_925_5884" x1="307.049" y1="16.3301" x2="307.049" y2="32.8851" gradientUnits="userSpaceOnUse">
<stop stop-color="#A8C9D1"/>
<stop offset="1" stop-color="white"/>
</linearGradient>
<linearGradient id="paint61_linear_925_5884" x1="254.451" y1="-129.511" x2="254.451" y2="24.4351" gradientUnits="userSpaceOnUse">
<stop stop-color="#A8C9D1"/>
<stop offset="1" stop-color="white"/>
</linearGradient>
<linearGradient id="paint62_linear_925_5884" x1="318.789" y1="-131.064" x2="318.789" y2="34.9198" gradientUnits="userSpaceOnUse">
<stop stop-color="#A8C9D1"/>
<stop offset="1" stop-color="white"/>
</linearGradient>
<linearGradient id="paint63_linear_925_5884" x1="278.371" y1="-132.101" x2="278.371" y2="39.4195" gradientUnits="userSpaceOnUse">
<stop stop-color="#A8C9D1"/>
<stop offset="1" stop-color="white"/>
</linearGradient>
<linearGradient id="paint64_linear_925_5884" x1="310.596" y1="-118.656" x2="310.596" y2="28.7272" gradientUnits="userSpaceOnUse">
<stop stop-color="#A8C9D1"/>
<stop offset="1" stop-color="white"/>
</linearGradient>
<linearGradient id="paint65_linear_925_5884" x1="278.365" y1="-125.564" x2="278.365" y2="32.8855" gradientUnits="userSpaceOnUse">
<stop stop-color="#A8C9D1"/>
<stop offset="1" stop-color="white"/>
</linearGradient>
<linearGradient id="paint66_linear_925_5884" x1="246.14" y1="-121.406" x2="246.14" y2="25.988" gradientUnits="userSpaceOnUse">
<stop stop-color="#A8C9D1"/>
<stop offset="1" stop-color="white"/>
</linearGradient>
<linearGradient id="paint67_linear_925_5884" x1="261.801" y1="-71.8398" x2="261.801" y2="4.60612" gradientUnits="userSpaceOnUse">
<stop stop-color="#A8C9D1"/>
<stop offset="1" stop-color="white"/>
</linearGradient>
<linearGradient id="paint68_linear_925_5884" x1="288.595" y1="0.249023" x2="288.595" y2="8.69112" gradientUnits="userSpaceOnUse">
<stop stop-color="#A8C9D1"/>
<stop offset="1" stop-color="white"/>
</linearGradient>
<linearGradient id="paint69_linear_925_5884" x1="286.59" y1="-0.435547" x2="286.59" y2="1.79178" gradientUnits="userSpaceOnUse">
<stop stop-color="#A8C9D1"/>
<stop offset="1" stop-color="white"/>
</linearGradient>
<linearGradient id="paint70_linear_925_5884" x1="308.521" y1="22.7402" x2="308.521" y2="29.6504" gradientUnits="userSpaceOnUse">
<stop stop-color="#A8C9D1"/>
<stop offset="1" stop-color="white"/>
</linearGradient>
<linearGradient id="paint71_linear_925_5884" x1="300.769" y1="1.78125" x2="300.769" y2="5.88821" gradientUnits="userSpaceOnUse">
<stop stop-color="#A8C9D1"/>
<stop offset="1" stop-color="white"/>
</linearGradient>
<linearGradient id="paint72_linear_925_5884" x1="284.705" y1="-4.38965" x2="284.705" y2="21.4601" gradientUnits="userSpaceOnUse">
<stop stop-color="#A8C9D1"/>
<stop offset="1" stop-color="white"/>
</linearGradient>
<linearGradient id="paint73_linear_925_5884" x1="298.748" y1="24.4463" x2="298.748" y2="34.4388" gradientUnits="userSpaceOnUse">
<stop stop-color="#A8C9D1"/>
<stop offset="1" stop-color="white"/>
</linearGradient>
<linearGradient id="paint74_linear_925_5884" x1="317.501" y1="14.4287" x2="317.501" y2="19.1224" gradientUnits="userSpaceOnUse">
<stop stop-color="#A8C9D1"/>
<stop offset="1" stop-color="white"/>
</linearGradient>
<linearGradient id="paint75_linear_925_5884" x1="285.33" y1="-2.83594" x2="285.33" y2="30.0306" gradientUnits="userSpaceOnUse">
<stop stop-color="#A8C9D1"/>
<stop offset="1" stop-color="white"/>
</linearGradient>
<linearGradient id="paint76_linear_925_5884" x1="316.963" y1="17.5791" x2="316.963" y2="21.2515" gradientUnits="userSpaceOnUse">
<stop stop-color="#A8C9D1"/>
<stop offset="1" stop-color="white"/>
</linearGradient>
<linearGradient id="paint77_linear_925_5884" x1="312.992" y1="-20.4814" x2="312.992" y2="6.58322" gradientUnits="userSpaceOnUse">
<stop stop-color="#A8C9D1"/>
<stop offset="1" stop-color="white"/>
</linearGradient>
<linearGradient id="paint78_linear_925_5884" x1="261.215" y1="-114.354" x2="261.215" y2="8.69137" gradientUnits="userSpaceOnUse">
<stop stop-color="#A8C9D1"/>
<stop offset="1" stop-color="white"/>
</linearGradient>
<linearGradient id="paint79_linear_925_5884" x1="328.388" y1="-46.2305" x2="328.388" y2="6.94273" gradientUnits="userSpaceOnUse">
<stop stop-color="#A8C9D1"/>
<stop offset="1" stop-color="white"/>
</linearGradient>
<linearGradient id="paint80_linear_925_5884" x1="295.706" y1="-113.159" x2="295.706" y2="9.31083" gradientUnits="userSpaceOnUse">
<stop stop-color="#A8C9D1"/>
<stop offset="1" stop-color="white"/>
</linearGradient>
<linearGradient id="paint81_linear_925_5884" x1="275.709" y1="-130.556" x2="275.709" y2="40.9711" gradientUnits="userSpaceOnUse">
<stop stop-color="#A8C9D1"/>
<stop offset="1" stop-color="white"/>
</linearGradient>
<linearGradient id="paint82_linear_925_5884" x1="310.488" y1="-122.959" x2="310.488" y2="36.4737" gradientUnits="userSpaceOnUse">
<stop stop-color="#A8C9D1"/>
<stop offset="1" stop-color="white"/>
</linearGradient>
<linearGradient id="paint83_linear_925_5884" x1="334.451" y1="60.4893" x2="334.451" y2="214.435" gradientUnits="userSpaceOnUse">
<stop stop-color="#A8C9D1"/>
<stop offset="1" stop-color="white"/>
</linearGradient>
<linearGradient id="paint84_linear_925_5884" x1="341.845" y1="49.7988" x2="341.845" y2="67.0515" gradientUnits="userSpaceOnUse">
<stop stop-color="#A8C9D1"/>
<stop offset="1" stop-color="white"/>
</linearGradient>
<linearGradient id="paint85_linear_925_5884" x1="398.789" y1="58.9355" x2="398.789" y2="224.92" gradientUnits="userSpaceOnUse">
<stop stop-color="#A8C9D1"/>
<stop offset="1" stop-color="white"/>
</linearGradient>
<linearGradient id="paint86_linear_925_5884" x1="358.371" y1="57.8994" x2="358.371" y2="229.42" gradientUnits="userSpaceOnUse">
<stop stop-color="#A8C9D1"/>
<stop offset="1" stop-color="white"/>
</linearGradient>
<linearGradient id="paint87_linear_925_5884" x1="337.982" y1="62.8936" x2="337.982" y2="72.8861" gradientUnits="userSpaceOnUse">
<stop stop-color="#A8C9D1"/>
<stop offset="1" stop-color="white"/>
</linearGradient>
<linearGradient id="paint88_linear_925_5884" x1="390.596" y1="71.3437" x2="390.596" y2="218.727" gradientUnits="userSpaceOnUse">
<stop stop-color="#A8C9D1"/>
<stop offset="1" stop-color="white"/>
</linearGradient>
<linearGradient id="paint89_linear_925_5884" x1="358.365" y1="64.4355" x2="358.365" y2="222.886" gradientUnits="userSpaceOnUse">
<stop stop-color="#A8C9D1"/>
<stop offset="1" stop-color="white"/>
</linearGradient>
<linearGradient id="paint90_linear_925_5884" x1="326.14" y1="68.5937" x2="326.14" y2="215.988" gradientUnits="userSpaceOnUse">
<stop stop-color="#A8C9D1"/>
<stop offset="1" stop-color="white"/>
</linearGradient>
<linearGradient id="paint91_linear_925_5884" x1="315.769" y1="111.891" x2="315.769" y2="174.701" gradientUnits="userSpaceOnUse">
<stop stop-color="#A8C9D1"/>
<stop offset="1" stop-color="white"/>
</linearGradient>
<linearGradient id="paint92_linear_925_5884" x1="317.692" y1="116.672" x2="317.692" y2="119.703" gradientUnits="userSpaceOnUse">
<stop stop-color="#A8C9D1"/>
<stop offset="1" stop-color="white"/>
</linearGradient>
<linearGradient id="paint93_linear_925_5884" x1="311.733" y1="108.903" x2="311.733" y2="118.215" gradientUnits="userSpaceOnUse">
<stop stop-color="#A8C9D1"/>
<stop offset="1" stop-color="white"/>
</linearGradient>
<linearGradient id="paint94_linear_925_5884" x1="341.801" y1="118.16" x2="341.801" y2="194.606" gradientUnits="userSpaceOnUse">
<stop stop-color="#A8C9D1"/>
<stop offset="1" stop-color="white"/>
</linearGradient>
<linearGradient id="paint95_linear_925_5884" x1="306.501" y1="83.3486" x2="306.501" y2="89.4656" gradientUnits="userSpaceOnUse">
<stop stop-color="#A8C9D1"/>
<stop offset="1" stop-color="white"/>
</linearGradient>
<linearGradient id="paint96_linear_925_5884" x1="313.102" y1="80.9043" x2="313.102" y2="110.457" gradientUnits="userSpaceOnUse">
<stop stop-color="#A8C9D1"/>
<stop offset="1" stop-color="white"/>
</linearGradient>
<linearGradient id="paint97_linear_925_5884" x1="324.206" y1="95.4746" x2="324.206" y2="110.142" gradientUnits="userSpaceOnUse">
<stop stop-color="#A8C9D1"/>
<stop offset="1" stop-color="white"/>
</linearGradient>
<linearGradient id="paint98_linear_925_5884" x1="330.469" y1="89.8135" x2="330.469" y2="93.7683" gradientUnits="userSpaceOnUse">
<stop stop-color="#A8C9D1"/>
<stop offset="1" stop-color="white"/>
</linearGradient>
<linearGradient id="paint99_linear_925_5884" x1="323.576" y1="74.2773" x2="323.576" y2="79.1992" gradientUnits="userSpaceOnUse">
<stop stop-color="#A8C9D1"/>
<stop offset="1" stop-color="white"/>
</linearGradient>
<linearGradient id="paint100_linear_925_5884" x1="332.871" y1="74.1035" x2="332.871" y2="91.042" gradientUnits="userSpaceOnUse">
<stop stop-color="#A8C9D1"/>
<stop offset="1" stop-color="white"/>
</linearGradient>
<linearGradient id="paint101_linear_925_5884" x1="329.149" y1="74.1035" x2="329.149" y2="75.8093" gradientUnits="userSpaceOnUse">
<stop stop-color="#A8C9D1"/>
<stop offset="1" stop-color="white"/>
</linearGradient>
<linearGradient id="paint102_linear_925_5884" x1="349.353" y1="75.3203" x2="349.353" y2="82.1978" gradientUnits="userSpaceOnUse">
<stop stop-color="#A8C9D1"/>
<stop offset="1" stop-color="white"/>
</linearGradient>
<linearGradient id="paint103_linear_925_5884" x1="358.583" y1="89.4102" x2="358.583" y2="119.247" gradientUnits="userSpaceOnUse">
<stop stop-color="#A8C9D1"/>
<stop offset="1" stop-color="white"/>
</linearGradient>
<linearGradient id="paint104_linear_925_5884" x1="341.215" y1="75.6455" x2="341.215" y2="198.691" gradientUnits="userSpaceOnUse">
<stop stop-color="#A8C9D1"/>
<stop offset="1" stop-color="white"/>
</linearGradient>
<linearGradient id="paint105_linear_925_5884" x1="358.561" y1="77.9707" x2="358.561" y2="83.7617" gradientUnits="userSpaceOnUse">
<stop stop-color="#A8C9D1"/>
<stop offset="1" stop-color="white"/>
</linearGradient>
<linearGradient id="paint106_linear_925_5884" x1="357.224" y1="76.417" x2="357.224" y2="79.5135" gradientUnits="userSpaceOnUse">
<stop stop-color="#A8C9D1"/>
<stop offset="1" stop-color="white"/>
</linearGradient>
<linearGradient id="paint107_linear_925_5884" x1="333.528" y1="57.9033" x2="333.528" y2="68.5835" gradientUnits="userSpaceOnUse">
<stop stop-color="#A8C9D1"/>
<stop offset="1" stop-color="white"/>
</linearGradient>
<linearGradient id="paint108_linear_925_5884" x1="375.706" y1="76.8408" x2="375.706" y2="199.311" gradientUnits="userSpaceOnUse">
<stop stop-color="#A8C9D1"/>
<stop offset="1" stop-color="white"/>
</linearGradient>
<linearGradient id="paint109_linear_925_5884" x1="381.432" y1="82.2188" x2="381.432" y2="141.867" gradientUnits="userSpaceOnUse">
<stop stop-color="#A8C9D1"/>
<stop offset="1" stop-color="white"/>
</linearGradient>
<linearGradient id="paint110_linear_925_5884" x1="355.709" y1="59.4443" x2="355.709" y2="230.971" gradientUnits="userSpaceOnUse">
<stop stop-color="#A8C9D1"/>
<stop offset="1" stop-color="white"/>
</linearGradient>
<linearGradient id="paint111_linear_925_5884" x1="390.488" y1="67.041" x2="390.488" y2="226.474" gradientUnits="userSpaceOnUse">
<stop stop-color="#A8C9D1"/>
<stop offset="1" stop-color="white"/>
</linearGradient>
<linearGradient id="paint112_linear_925_5884" x1="35.0487" y1="54.3301" x2="35.0487" y2="70.8851" gradientUnits="userSpaceOnUse">
<stop stop-color="#A8C9D1"/>
<stop offset="1" stop-color="white"/>
</linearGradient>
<linearGradient id="paint113_linear_925_5884" x1="-17.5488" y1="-91.5107" x2="-17.5488" y2="62.4351" gradientUnits="userSpaceOnUse">
<stop stop-color="#A8C9D1"/>
<stop offset="1" stop-color="white"/>
</linearGradient>
<linearGradient id="paint114_linear_925_5884" x1="46.7885" y1="-93.0645" x2="46.7885" y2="72.9198" gradientUnits="userSpaceOnUse">
<stop stop-color="#A8C9D1"/>
<stop offset="1" stop-color="white"/>
</linearGradient>
<linearGradient id="paint115_linear_925_5884" x1="6.37062" y1="-94.1006" x2="6.37062" y2="77.4195" gradientUnits="userSpaceOnUse">
<stop stop-color="#A8C9D1"/>
<stop offset="1" stop-color="white"/>
</linearGradient>
<linearGradient id="paint116_linear_925_5884" x1="38.5964" y1="-80.6563" x2="38.5964" y2="66.7272" gradientUnits="userSpaceOnUse">
<stop stop-color="#A8C9D1"/>
<stop offset="1" stop-color="white"/>
</linearGradient>
<linearGradient id="paint117_linear_925_5884" x1="6.36524" y1="-87.5645" x2="6.36524" y2="70.8855" gradientUnits="userSpaceOnUse">
<stop stop-color="#A8C9D1"/>
<stop offset="1" stop-color="white"/>
</linearGradient>
<linearGradient id="paint118_linear_925_5884" x1="-25.8604" y1="-83.4063" x2="-25.8604" y2="63.988" gradientUnits="userSpaceOnUse">
<stop stop-color="#A8C9D1"/>
<stop offset="1" stop-color="white"/>
</linearGradient>
<linearGradient id="paint119_linear_925_5884" x1="-10.1985" y1="-33.8398" x2="-10.1985" y2="42.6061" gradientUnits="userSpaceOnUse">
<stop stop-color="#A8C9D1"/>
<stop offset="1" stop-color="white"/>
</linearGradient>
<linearGradient id="paint120_linear_925_5884" x1="16.5946" y1="38.249" x2="16.5946" y2="46.6911" gradientUnits="userSpaceOnUse">
<stop stop-color="#A8C9D1"/>
<stop offset="1" stop-color="white"/>
</linearGradient>
<linearGradient id="paint121_linear_925_5884" x1="14.59" y1="37.5645" x2="14.59" y2="39.7918" gradientUnits="userSpaceOnUse">
<stop stop-color="#A8C9D1"/>
<stop offset="1" stop-color="white"/>
</linearGradient>
<linearGradient id="paint122_linear_925_5884" x1="36.521" y1="60.7402" x2="36.521" y2="67.6504" gradientUnits="userSpaceOnUse">
<stop stop-color="#A8C9D1"/>
<stop offset="1" stop-color="white"/>
</linearGradient>
<linearGradient id="paint123_linear_925_5884" x1="28.7688" y1="39.7812" x2="28.7688" y2="43.8882" gradientUnits="userSpaceOnUse">
<stop stop-color="#A8C9D1"/>
<stop offset="1" stop-color="white"/>
</linearGradient>
<linearGradient id="paint124_linear_925_5884" x1="12.705" y1="33.6104" x2="12.705" y2="59.4601" gradientUnits="userSpaceOnUse">
<stop stop-color="#A8C9D1"/>
<stop offset="1" stop-color="white"/>
</linearGradient>
<linearGradient id="paint125_linear_925_5884" x1="26.748" y1="62.4463" x2="26.748" y2="72.4388" gradientUnits="userSpaceOnUse">
<stop stop-color="#A8C9D1"/>
<stop offset="1" stop-color="white"/>
</linearGradient>
<linearGradient id="paint126_linear_925_5884" x1="45.5009" y1="52.4287" x2="45.5009" y2="57.1224" gradientUnits="userSpaceOnUse">
<stop stop-color="#A8C9D1"/>
<stop offset="1" stop-color="white"/>
</linearGradient>
<linearGradient id="paint127_linear_925_5884" x1="13.3297" y1="35.1641" x2="13.3297" y2="68.0306" gradientUnits="userSpaceOnUse">
<stop stop-color="#A8C9D1"/>
<stop offset="1" stop-color="white"/>
</linearGradient>
<linearGradient id="paint128_linear_925_5884" x1="44.9631" y1="55.5791" x2="44.9631" y2="59.2515" gradientUnits="userSpaceOnUse">
<stop stop-color="#A8C9D1"/>
<stop offset="1" stop-color="white"/>
</linearGradient>
<linearGradient id="paint129_linear_925_5884" x1="40.992" y1="17.5186" x2="40.992" y2="44.5832" gradientUnits="userSpaceOnUse">
<stop stop-color="#A8C9D1"/>
<stop offset="1" stop-color="white"/>
</linearGradient>
<linearGradient id="paint130_linear_925_5884" x1="51.8406" y1="14.4443" x2="51.8406" y2="21.3871" gradientUnits="userSpaceOnUse">
<stop stop-color="#A8C9D1"/>
<stop offset="1" stop-color="white"/>
</linearGradient>
<linearGradient id="paint131_linear_925_5884" x1="-10.7853" y1="-76.3545" x2="-10.7853" y2="46.6914" gradientUnits="userSpaceOnUse">
<stop stop-color="#A8C9D1"/>
<stop offset="1" stop-color="white"/>
</linearGradient>
<linearGradient id="paint132_linear_925_5884" x1="42.4859" y1="-20.041" x2="42.4859" y2="15.9873" gradientUnits="userSpaceOnUse">
<stop stop-color="#A8C9D1"/>
<stop offset="1" stop-color="white"/>
</linearGradient>
<linearGradient id="paint133_linear_925_5884" x1="56.3878" y1="-8.23047" x2="56.3878" y2="44.9427" gradientUnits="userSpaceOnUse">
<stop stop-color="#A8C9D1"/>
<stop offset="1" stop-color="white"/>
</linearGradient>
<linearGradient id="paint134_linear_925_5884" x1="23.706" y1="-75.1592" x2="23.706" y2="47.3108" gradientUnits="userSpaceOnUse">
<stop stop-color="#A8C9D1"/>
<stop offset="1" stop-color="white"/>
</linearGradient>
<linearGradient id="paint135_linear_925_5884" x1="3.70876" y1="-92.5557" x2="3.70876" y2="78.9711" gradientUnits="userSpaceOnUse">
<stop stop-color="#A8C9D1"/>
<stop offset="1" stop-color="white"/>
</linearGradient>
<linearGradient id="paint136_linear_925_5884" x1="38.4877" y1="-84.959" x2="38.4877" y2="74.4737" gradientUnits="userSpaceOnUse">
<stop stop-color="#A8C9D1"/>
<stop offset="1" stop-color="white"/>
</linearGradient>
<clipPath id="clip0_925_5884">
<rect width="361" height="120" rx="8" fill="white"/>
</clipPath>
</defs>
</svg>
