<svg width="462" height="291" viewBox="0 0 462 291" fill="none" xmlns="http://www.w3.org/2000/svg">
<g clip-path="url(#clip0_926_19552)">
<rect width="462" height="291" rx="8" fill="#F6F7F8"/>
<path d="M263.273 26.0088C266.732 24.0367 278.048 28.1425 281.474 30.1146L410.986 104.86C418.422 109.16 432.744 128.17 425.308 132.47L211.126 256.776C207.666 258.748 194.702 263.856 191.243 261.852L56.1385 183.873C48.7028 179.573 32.8614 159.691 40.3295 155.423L263.241 26.0088H263.273Z" fill="url(#paint0_linear_926_19552)" stroke="#64B5C8" stroke-linejoin="round"/>
<path d="M262.722 28.2398C265.826 26.4617 277.368 30.9232 280.471 32.7336L407.235 105.927C413.927 109.807 429.574 128.493 422.85 132.341L211.028 255.322C207.924 257.1 194.572 262.66 191.468 260.882L58.5945 184.197C51.9023 180.317 34.6384 160.693 41.3306 156.846L262.69 28.3045L262.722 28.2398Z" fill="url(#paint1_linear_926_19552)" stroke="#64B5C8" stroke-linejoin="round"/>
<path d="M262.172 30.471C264.92 28.8869 276.688 33.7363 279.436 35.3204L403.451 106.93C409.4 110.357 426.341 128.752 420.36 132.179L210.897 253.867C208.149 255.451 194.409 261.465 191.661 259.88L61.0184 184.456C55.0698 181.029 36.351 161.631 42.332 158.204L262.14 30.5033L262.172 30.471Z" fill="url(#paint2_linear_926_19552)" stroke="#64B5C8" stroke-linejoin="round"/>
<path d="M261.657 32.7318C264.082 31.3417 276.076 36.5467 278.469 37.9369L399.769 107.962C404.974 110.969 423.207 129.041 418.002 132.015L210.868 252.378C208.443 253.768 194.348 260.266 191.923 258.876L63.5105 184.745C58.3055 181.738 38.1642 162.567 43.3693 159.592L261.625 32.7318H261.657Z" fill="url(#paint3_linear_926_19552)" stroke="#64B5C8" stroke-linejoin="round"/>
<path d="M261.109 34.9636C263.178 33.7674 275.398 39.3604 277.467 40.5566L396.019 108.998C400.481 111.584 420.04 129.301 415.546 131.887L210.772 250.924C208.703 252.12 194.219 259.071 192.15 257.875L65.9683 185.037C61.5068 182.45 39.9108 163.538 44.4046 160.984L261.109 34.9959V34.9636Z" fill="url(#paint4_linear_926_19552)" stroke="#64B5C8" stroke-linejoin="round"/>
<path d="M260.557 37.2261C262.27 36.2238 274.717 42.2048 276.431 43.1747L392.235 110.032C395.953 112.166 416.805 129.591 413.087 131.725L210.673 249.436C208.959 250.438 194.088 257.842 192.374 256.84L68.4233 185.295C64.7055 183.161 41.6869 164.475 45.4048 162.341L260.557 37.1937V37.2261Z" fill="url(#paint5_linear_926_19552)" stroke="#64B5C8" stroke-linejoin="round"/>
<path d="M260.041 39.4576C261.431 38.6817 274.072 44.9859 275.462 45.7942L388.55 111.067C391.524 112.781 413.67 129.883 410.696 131.596L210.641 248.015C209.251 248.79 194.024 256.679 192.666 255.903L70.9462 185.619C67.9718 183.905 43.4985 165.478 46.4728 163.764L260.073 39.4576H260.041Z" fill="url(#paint6_linear_926_19552)" stroke="#64B5C8" stroke-linejoin="round"/>
<path d="M259.489 41.7214C260.524 41.1394 273.391 47.8316 274.426 48.4136L384.766 112.102C386.997 113.396 410.468 130.142 408.205 131.435L210.478 246.528C209.443 247.11 193.861 255.483 192.826 254.869L73.3367 185.878C71.1059 184.585 45.2101 166.416 47.4408 165.123L259.489 41.689V41.7214Z" fill="url(#paint7_linear_926_19552)" stroke="#64B5C8" stroke-linejoin="round"/>
<path d="M258.941 43.9529C259.62 43.5649 272.713 50.6451 273.424 51.033L381.049 113.17C382.536 114.043 407.3 130.466 405.813 131.339L210.447 245.106C209.768 245.494 193.797 254.32 193.086 253.932L75.8271 186.235C74.34 185.362 46.9893 167.451 48.4765 166.578L258.973 43.9852L258.941 43.9529Z" fill="url(#paint8_linear_926_19552)" stroke="#64B5C8" stroke-linejoin="round"/>
<path d="M258.391 46.1815C258.746 45.9875 272.066 53.4233 272.389 53.6172L377.266 114.17C378.01 114.59 404.067 130.723 403.323 131.143L210.317 243.585C209.961 243.779 193.635 253.057 193.279 252.863L78.219 186.459C77.4754 186.038 48.7022 168.322 49.4458 167.902L258.391 46.1815Z" fill="url(#paint9_linear_926_19552)" stroke="#64B5C8" stroke-linejoin="round"/>
<path d="M193.54 251.895L50.4824 169.326L257.876 48.4463L400.901 131.016L193.54 251.895Z" fill="url(#paint10_linear_926_19552)" stroke="#64B5C8" stroke-linejoin="round"/>
<path d="M193.73 255.418V269.513L431.998 129.527V115.464L193.73 255.418Z" fill="url(#paint11_linear_926_19552)" stroke="#64B5C8" stroke-linejoin="round"/>
<path d="M193.83 255.418V269.514L29.6934 173.819V159.853L193.83 255.418Z" fill="url(#paint12_linear_926_19552)" stroke="#64B5C8" stroke-linejoin="round"/>
<path d="M29.6934 159.851L193.83 255.417L432 115.463L267.67 19.7676L29.6934 159.851Z" fill="url(#paint13_linear_926_19552)" stroke="#64B5C8" stroke-linejoin="round"/>
<path d="M193.766 223.218V237.637L401.223 115.755V101.304L193.766 223.218Z" fill="url(#paint14_linear_926_19552)" stroke="#64B5C8" stroke-linejoin="round"/>
<path d="M193.828 223.219V237.638L60.4688 159.885V145.563L193.828 223.219Z" fill="url(#paint15_linear_926_19552)" stroke="#64B5C8" stroke-linejoin="round"/>
<path d="M60.4688 145.563L193.828 223.218L401.221 101.304L267.7 23.584L60.4688 145.563Z" fill="url(#paint16_linear_926_19552)" stroke="#64B5C8" stroke-linejoin="round"/>
<path d="M315.356 141.295H280.117V143.558C280.117 143.558 280.117 143.655 280.117 143.687C280.117 149.345 288.006 153.936 297.737 153.936C307.468 153.936 315.356 149.345 315.356 143.687C315.356 143.655 315.356 143.59 315.356 143.558V141.295Z" fill="url(#paint17_linear_926_19552)" stroke="#64B5C8" stroke-linejoin="round"/>
<path d="M315.356 141.361C315.356 146.243 307.468 150.187 297.737 150.187C288.006 150.187 280.117 146.243 280.117 141.361C280.117 136.479 288.006 132.535 297.737 132.535C307.468 132.535 315.356 136.479 315.356 141.361Z" fill="url(#paint18_linear_926_19552)" stroke="#64B5C8" stroke-linejoin="round"/>
<path d="M311.443 136.867H284.027V139.68C284.027 139.68 284.027 139.744 284.027 139.777C284.027 144.174 290.17 147.762 297.735 147.762C305.3 147.762 311.443 144.174 311.443 139.777C311.443 139.744 311.443 139.712 311.443 139.68V136.867Z" fill="url(#paint19_linear_926_19552)" stroke="#64B5C8" stroke-linejoin="round"/>
<path d="M311.443 136.899C311.443 140.681 305.3 143.785 297.735 143.785C290.17 143.785 284.027 140.714 284.027 136.899C284.027 133.084 290.17 130.013 297.735 130.013C305.3 130.013 311.443 133.084 311.443 136.899Z" fill="url(#paint20_linear_926_19552)" stroke="#64B5C8" stroke-linejoin="round"/>
<path d="M308.083 61.0537H287.359V135.864C287.359 135.864 287.359 135.929 287.359 135.961C287.359 139.291 292.015 142.007 297.737 142.007C303.459 142.007 308.115 139.291 308.115 135.961C308.115 135.961 308.115 135.896 308.115 135.864V61.0537H308.083Z" fill="url(#paint21_linear_926_19552)" stroke="#64B5C8" stroke-linejoin="round"/>
<path d="M308.08 61.0878C308.08 63.9652 303.424 66.2929 297.702 66.2929C291.98 66.2929 287.324 63.9652 287.324 61.0878C287.324 58.2105 291.98 55.8828 297.702 55.8828C303.424 55.8828 308.08 58.2105 308.08 61.0878Z" fill="url(#paint22_linear_926_19552)" stroke="#64B5C8" stroke-linejoin="round"/>
<path d="M311.443 59.8252H284.027V62.6378C284.027 62.6378 284.027 62.7025 284.027 62.7348C284.027 67.1316 290.17 70.7202 297.735 70.7202C305.3 70.7202 311.443 67.1316 311.443 62.7348C311.443 62.7025 311.443 62.6702 311.443 62.6378V59.8252Z" fill="url(#paint23_linear_926_19552)" stroke="#64B5C8" stroke-linejoin="round"/>
<path d="M311.443 59.8559C311.443 63.6384 305.3 66.7421 297.735 66.7421C290.17 66.7421 284.027 63.6708 284.027 59.8559C284.027 56.041 290.17 52.9697 297.735 52.9697C305.3 52.9697 311.443 56.041 311.443 59.8559Z" fill="url(#paint24_linear_926_19552)" stroke="#64B5C8" stroke-linejoin="round"/>
<path d="M280.698 161.373H245.459V163.636C245.459 163.636 245.459 163.733 245.459 163.765C245.459 169.423 253.347 174.046 263.079 174.046C272.81 174.046 280.698 169.455 280.698 163.765C280.698 163.733 280.698 163.668 280.698 163.636V161.373Z" fill="url(#paint25_linear_926_19552)" stroke="#64B5C8" stroke-linejoin="round"/>
<path d="M280.698 161.436C280.698 166.318 272.81 170.262 263.079 170.262C253.347 170.262 245.459 166.318 245.459 161.436C245.459 156.555 253.347 152.61 263.079 152.61C272.81 152.61 280.698 156.555 280.698 161.436Z" fill="url(#paint26_linear_926_19552)" stroke="#64B5C8" stroke-linejoin="round"/>
<path d="M276.788 156.942H249.373V159.755C249.373 159.755 249.373 159.82 249.373 159.852C249.373 164.249 255.516 167.837 263.081 167.837C270.646 167.837 276.788 164.249 276.788 159.852C276.788 159.82 276.788 159.787 276.788 159.755V156.942Z" fill="url(#paint27_linear_926_19552)" stroke="#64B5C8" stroke-linejoin="round"/>
<path d="M276.788 156.976C276.788 160.759 270.646 163.862 263.081 163.862C255.516 163.862 249.373 160.791 249.373 156.976C249.373 153.161 255.516 150.09 263.081 150.09C270.646 150.09 276.788 153.161 276.788 156.976Z" fill="url(#paint28_linear_926_19552)" stroke="#64B5C8" stroke-linejoin="round"/>
<path d="M273.424 81.1299H252.701V155.94C252.701 155.94 252.701 156.005 252.701 156.037C252.701 159.367 257.357 162.083 263.079 162.083C268.801 162.083 273.457 159.367 273.457 156.037C273.457 156.037 273.457 155.972 273.457 155.94V81.1299H273.424Z" fill="url(#paint29_linear_926_19552)" stroke="#64B5C8" stroke-linejoin="round"/>
<path d="M273.421 81.163C273.421 84.0404 268.766 86.3681 263.044 86.3681C257.321 86.3681 252.666 84.0404 252.666 81.163C252.666 78.2857 257.321 75.958 263.044 75.958C268.766 75.958 273.421 78.2857 273.421 81.163Z" fill="url(#paint30_linear_926_19552)" stroke="#64B5C8" stroke-linejoin="round"/>
<path d="M276.788 79.9023H249.373V82.715C249.373 82.715 249.373 82.7797 249.373 82.812C249.373 87.2088 255.516 90.7974 263.081 90.7974C270.646 90.7974 276.788 87.2088 276.788 82.812C276.788 82.7797 276.788 82.7473 276.788 82.715V79.9023Z" fill="url(#paint31_linear_926_19552)" stroke="#64B5C8" stroke-linejoin="round"/>
<path d="M276.788 79.936C276.788 83.7185 270.646 86.8221 263.081 86.8221C255.516 86.8221 249.373 83.7509 249.373 79.936C249.373 76.1211 255.516 73.0498 263.081 73.0498C270.646 73.0498 276.788 76.1211 276.788 79.936Z" fill="url(#paint32_linear_926_19552)" stroke="#64B5C8" stroke-linejoin="round"/>
<path d="M246.007 181.449H210.768V183.712C210.768 183.712 210.768 183.809 210.768 183.842C210.768 189.499 218.656 194.09 228.387 194.09C238.118 194.09 246.007 189.499 246.007 183.842C246.007 183.809 246.007 183.745 246.007 183.712V181.449Z" fill="url(#paint33_linear_926_19552)" stroke="#64B5C8" stroke-linejoin="round"/>
<path d="M246.007 181.514C246.007 186.396 238.118 190.34 228.387 190.34C218.656 190.34 210.768 186.396 210.768 181.514C210.768 176.633 218.656 172.688 228.387 172.688C238.118 172.688 246.007 176.633 246.007 181.514Z" fill="url(#paint34_linear_926_19552)" stroke="#64B5C8" stroke-linejoin="round"/>
<path d="M242.095 177.019H214.68V179.831C214.68 179.831 214.68 179.896 214.68 179.928C214.68 184.325 220.822 187.914 228.387 187.914C235.952 187.914 242.095 184.325 242.095 179.928C242.095 179.896 242.095 179.864 242.095 179.831V177.019Z" fill="url(#paint35_linear_926_19552)" stroke="#64B5C8" stroke-linejoin="round"/>
<path d="M242.095 177.051C242.095 180.834 235.952 183.937 228.387 183.937C220.822 183.937 214.68 180.866 214.68 177.051C214.68 173.236 220.822 170.165 228.387 170.165C235.952 170.165 242.095 173.236 242.095 177.051Z" fill="url(#paint36_linear_926_19552)" stroke="#64B5C8" stroke-linejoin="round"/>
<path d="M238.766 101.208H218.043V176.018C218.043 176.018 218.043 176.083 218.043 176.115C218.043 179.445 222.698 182.161 228.421 182.161C234.143 182.161 238.798 179.445 238.798 176.115C238.798 176.115 238.798 176.051 238.798 176.018V101.208H238.766Z" fill="url(#paint37_linear_926_19552)" stroke="#64B5C8" stroke-linejoin="round"/>
<path d="M238.769 101.24C238.769 104.118 234.114 106.445 228.391 106.445C222.669 106.445 218.014 104.118 218.014 101.24C218.014 98.3629 222.669 96.0352 228.391 96.0352C234.114 96.0352 238.769 98.3629 238.769 101.24Z" fill="url(#paint38_linear_926_19552)" stroke="#64B5C8" stroke-linejoin="round"/>
<path d="M242.095 99.9775H214.68V102.79C214.68 102.79 214.68 102.855 214.68 102.887C214.68 107.284 220.822 110.873 228.387 110.873C235.952 110.873 242.095 107.284 242.095 102.887C242.095 102.855 242.095 102.823 242.095 102.79V99.9775Z" fill="url(#paint39_linear_926_19552)" stroke="#64B5C8" stroke-linejoin="round"/>
<path d="M242.095 100.012C242.095 103.795 235.952 106.898 228.387 106.898C220.822 106.898 214.68 103.827 214.68 100.012C214.68 96.1973 220.822 93.126 228.387 93.126C235.952 93.126 242.095 96.1973 242.095 100.012Z" fill="url(#paint40_linear_926_19552)" stroke="#64B5C8" stroke-linejoin="round"/>
<path d="M384.671 101.143H349.432V103.406C349.432 103.406 349.432 103.503 349.432 103.535C349.432 109.193 357.32 113.783 367.051 113.783C376.782 113.783 384.671 109.193 384.671 103.535C384.671 103.503 384.671 103.438 384.671 103.406V101.143Z" fill="url(#paint41_linear_926_19552)" stroke="#64B5C8" stroke-linejoin="round"/>
<path d="M384.671 101.24C384.671 106.122 376.782 110.066 367.051 110.066C357.32 110.066 349.432 106.122 349.432 101.24C349.432 96.3582 357.32 92.4141 367.051 92.4141C376.782 92.4141 384.671 96.3582 384.671 101.24Z" fill="url(#paint42_linear_926_19552)" stroke="#64B5C8" stroke-linejoin="round"/>
<path d="M380.757 96.7139H353.342V99.5265C353.342 99.5265 353.342 99.5912 353.342 99.6235C353.342 104.02 359.484 107.609 367.049 107.609C374.615 107.609 380.757 104.02 380.757 99.6235C380.757 99.5912 380.757 99.5589 380.757 99.5265V96.7139Z" fill="url(#paint43_linear_926_19552)" stroke="#64B5C8" stroke-linejoin="round"/>
<path d="M380.757 96.7797C380.757 100.562 374.615 103.666 367.049 103.666C359.484 103.666 353.342 100.595 353.342 96.7797C353.342 92.9649 359.484 89.8936 367.049 89.8936C374.615 89.8936 380.757 92.9649 380.757 96.7797Z" fill="url(#paint44_linear_926_19552)" stroke="#64B5C8" stroke-linejoin="round"/>
<path d="M377.426 20.9326H356.703V95.7428C356.703 95.7428 356.703 95.8075 356.703 95.8398C356.703 99.1698 361.359 101.885 367.081 101.885C372.803 101.885 377.459 99.1698 377.459 95.8398C377.459 95.8398 377.459 95.7752 377.459 95.7428V20.9326H377.426Z" fill="url(#paint45_linear_926_19552)" stroke="#64B5C8" stroke-linejoin="round"/>
<path d="M377.429 20.9668C377.429 23.8441 372.774 26.1718 367.052 26.1718C361.329 26.1718 356.674 23.8441 356.674 20.9668C356.674 18.0894 361.329 15.7617 367.052 15.7617C372.774 15.7617 377.429 18.0894 377.429 20.9668Z" fill="url(#paint46_linear_926_19552)" stroke="#64B5C8" stroke-linejoin="round"/>
<path d="M380.757 19.6719H353.342V22.4845C353.342 22.4845 353.342 22.5492 353.342 22.5815C353.342 26.9783 359.484 30.5669 367.049 30.5669C374.615 30.5669 380.757 26.9783 380.757 22.5815C380.757 22.5492 380.757 22.5168 380.757 22.4845V19.6719Z" fill="url(#paint47_linear_926_19552)" stroke="#64B5C8" stroke-linejoin="round"/>
<path d="M380.757 19.7377C380.757 23.5203 374.615 26.6239 367.049 26.6239C359.484 26.6239 353.342 23.5526 353.342 19.7377C353.342 15.9228 359.484 12.8516 367.049 12.8516C374.615 12.8516 380.757 15.9228 380.757 19.7377Z" fill="url(#paint48_linear_926_19552)" stroke="#64B5C8" stroke-linejoin="round"/>
<path d="M350.012 121.22H314.773V123.483C314.773 123.483 314.773 123.58 314.773 123.612C314.773 129.27 322.662 133.861 332.393 133.861C342.124 133.861 350.012 129.27 350.012 123.612C350.012 123.58 350.012 123.515 350.012 123.483V121.22Z" fill="url(#paint49_linear_926_19552)" stroke="#64B5C8" stroke-linejoin="round"/>
<path d="M332.393 130.142C342.124 130.142 350.012 126.191 350.012 121.316C350.012 116.442 342.124 112.49 332.393 112.49C322.662 112.49 314.773 116.442 314.773 121.316C314.773 126.191 322.662 130.142 332.393 130.142Z" fill="url(#paint50_linear_926_19552)" stroke="#64B5C8" stroke-linejoin="round"/>
<path d="M346.101 116.79H318.686V119.603C318.686 119.603 318.686 119.667 318.686 119.7C318.686 124.096 324.828 127.685 332.393 127.685C339.958 127.685 346.101 124.096 346.101 119.7C346.101 119.667 346.101 119.635 346.101 119.603V116.79Z" fill="url(#paint51_linear_926_19552)" stroke="#64B5C8" stroke-linejoin="round"/>
<path d="M346.101 116.855C346.101 120.637 339.958 123.741 332.393 123.741C324.828 123.741 318.686 120.67 318.686 116.855C318.686 113.04 324.828 109.969 332.393 109.969C339.958 109.969 346.101 113.04 346.101 116.855Z" fill="url(#paint52_linear_926_19552)" stroke="#64B5C8" stroke-linejoin="round"/>
<path d="M342.737 41.0098H322.014V115.82C322.014 115.82 322.014 115.885 322.014 115.917C322.014 119.247 326.669 121.963 332.391 121.963C338.114 121.963 342.769 119.247 342.769 115.917V115.852V41.0098H342.737Z" fill="url(#paint53_linear_926_19552)" stroke="#64B5C8" stroke-linejoin="round"/>
<path d="M342.738 41.0409C342.738 43.9183 338.082 46.246 332.36 46.246C326.638 46.246 321.982 43.9183 321.982 41.0409C321.982 38.1636 326.638 35.8359 332.36 35.8359C338.082 35.8359 342.738 38.1636 342.738 41.0409Z" fill="url(#paint54_linear_926_19552)" stroke="#64B5C8" stroke-linejoin="round"/>
<path d="M346.101 39.75H318.686V42.5626C318.686 42.5626 318.686 42.6273 318.686 42.6596C318.686 47.0564 324.828 50.645 332.393 50.645C339.958 50.645 346.101 47.0564 346.101 42.6596C346.101 42.6273 346.101 42.595 346.101 42.5626V39.75Z" fill="url(#paint55_linear_926_19552)" stroke="#64B5C8" stroke-linejoin="round"/>
<path d="M346.101 39.8149C346.101 43.5974 339.958 46.701 332.393 46.701C324.828 46.701 318.686 43.6297 318.686 39.8149C318.686 36 324.828 32.9287 332.393 32.9287C339.958 32.9287 346.101 36 346.101 39.8149Z" fill="url(#paint56_linear_926_19552)" stroke="#64B5C8" stroke-linejoin="round"/>
<path d="M211.352 201.525H176.113V203.788C176.113 203.788 176.113 203.885 176.113 203.918C176.113 209.575 184.002 214.199 193.733 214.199C203.464 214.199 211.352 209.608 211.352 203.918C211.352 203.885 211.352 203.821 211.352 203.788V201.525Z" fill="url(#paint57_linear_926_19552)" stroke="#64B5C8" stroke-linejoin="round"/>
<path d="M211.352 201.591C211.352 206.472 203.464 210.416 193.733 210.416C184.002 210.416 176.113 206.472 176.113 201.591C176.113 196.709 184.002 192.765 193.733 192.765C203.464 192.765 211.352 196.709 211.352 201.591Z" fill="url(#paint58_linear_926_19552)" stroke="#64B5C8" stroke-linejoin="round"/>
<path d="M207.441 197.063H180.025V199.876C180.025 199.876 180.025 199.941 180.025 199.973C180.025 204.37 186.168 207.958 193.733 207.958C201.298 207.958 207.441 204.37 207.441 199.973C207.441 199.941 207.441 199.908 207.441 199.876V197.063Z" fill="url(#paint59_linear_926_19552)" stroke="#64B5C8" stroke-linejoin="round"/>
<path d="M207.441 197.13C207.441 200.913 201.298 204.016 193.733 204.016C186.168 204.016 180.025 200.945 180.025 197.13C180.025 193.315 186.168 190.244 193.733 190.244C201.298 190.244 207.441 193.315 207.441 197.13Z" fill="url(#paint60_linear_926_19552)" stroke="#64B5C8" stroke-linejoin="round"/>
<path d="M204.11 121.286H183.387V196.096C183.387 196.096 183.387 196.161 183.387 196.193C183.387 199.523 188.042 202.239 193.764 202.239C199.487 202.239 204.142 199.523 204.142 196.193C204.142 196.193 204.142 196.129 204.142 196.096V121.286H204.11Z" fill="url(#paint61_linear_926_19552)" stroke="#64B5C8" stroke-linejoin="round"/>
<path d="M204.111 121.316C204.111 124.194 199.456 126.521 193.733 126.521C188.011 126.521 183.355 124.194 183.355 121.316C183.355 118.439 188.011 116.111 193.733 116.111C199.456 116.111 204.111 118.439 204.111 121.316Z" fill="url(#paint62_linear_926_19552)" stroke="#64B5C8" stroke-linejoin="round"/>
<path d="M207.441 120.056H180.025V122.868C180.025 122.868 180.025 122.933 180.025 122.965C180.025 127.362 186.168 130.951 193.733 130.951C201.298 130.951 207.441 127.362 207.441 122.965C207.441 122.933 207.441 122.901 207.441 122.868V120.056Z" fill="url(#paint63_linear_926_19552)" stroke="#64B5C8" stroke-linejoin="round"/>
<path d="M207.441 120.088C207.441 123.871 201.298 126.974 193.733 126.974C186.168 126.974 180.025 123.903 180.025 120.088C180.025 116.273 186.168 113.202 193.733 113.202C201.298 113.202 207.441 116.273 207.441 120.088Z" fill="url(#paint64_linear_926_19552)" stroke="#64B5C8" stroke-linejoin="round"/>
<path d="M107.639 141.295H72.4004V143.558C72.4004 143.558 72.4004 143.655 72.4004 143.687C72.4004 149.345 80.2888 153.936 90.0199 153.936C99.7511 153.936 107.639 149.345 107.639 143.687C107.639 143.655 107.639 143.59 107.639 143.558V141.295Z" fill="url(#paint65_linear_926_19552)" stroke="#64B5C8" stroke-linejoin="round"/>
<path d="M107.639 141.361C107.639 146.243 99.7511 150.187 90.0199 150.187C80.2888 150.187 72.4004 146.243 72.4004 141.361C72.4004 136.479 80.2888 132.535 90.0199 132.535C99.7511 132.535 107.639 136.479 107.639 141.361Z" fill="url(#paint66_linear_926_19552)" stroke="#64B5C8" stroke-linejoin="round"/>
<path d="M103.726 136.867H76.3105V139.68C76.3105 139.68 76.3105 139.744 76.3105 139.777C76.3105 144.174 82.4531 147.762 90.0182 147.762C97.5833 147.762 103.726 144.174 103.726 139.777C103.726 139.744 103.726 139.712 103.726 139.68V136.867Z" fill="url(#paint67_linear_926_19552)" stroke="#64B5C8" stroke-linejoin="round"/>
<path d="M103.726 136.899C103.726 140.681 97.5833 143.785 90.0182 143.785C82.4531 143.785 76.3105 140.714 76.3105 136.899C76.3105 133.084 82.4531 130.013 90.0182 130.013C97.5833 130.013 103.726 133.084 103.726 136.899Z" fill="url(#paint68_linear_926_19552)" stroke="#64B5C8" stroke-linejoin="round"/>
<path d="M100.395 61.0537H79.6719V135.864C79.6719 135.864 79.6719 135.929 79.6719 135.961C79.6719 139.291 84.3273 142.007 90.0496 142.007C95.7719 142.007 100.427 139.291 100.427 135.961C100.427 135.961 100.427 135.896 100.427 135.864V61.0537H100.395Z" fill="url(#paint69_linear_926_19552)" stroke="#64B5C8" stroke-linejoin="round"/>
<path d="M100.398 61.0878C100.398 63.9652 95.7426 66.2929 90.0203 66.2929C84.298 66.2929 79.6426 63.9652 79.6426 61.0878C79.6426 58.2105 84.298 55.8828 90.0203 55.8828C95.7426 55.8828 100.398 58.2105 100.398 61.0878Z" fill="url(#paint70_linear_926_19552)" stroke="#64B5C8" stroke-linejoin="round"/>
<path d="M103.726 59.8252H76.3105V62.6378C76.3105 62.6378 76.3105 62.7025 76.3105 62.7348C76.3105 67.1316 82.4531 70.7202 90.0182 70.7202C97.5833 70.7202 103.726 67.1316 103.726 62.7348C103.726 62.7025 103.726 62.6702 103.726 62.6378V59.8252Z" fill="url(#paint71_linear_926_19552)" stroke="#64B5C8" stroke-linejoin="round"/>
<path d="M103.726 59.8559C103.726 63.6384 97.5833 66.7421 90.0182 66.7421C82.4531 66.7421 76.3105 63.6708 76.3105 59.8559C76.3105 56.041 82.4531 52.9697 90.0182 52.9697C97.5833 52.9697 103.726 56.041 103.726 59.8559Z" fill="url(#paint72_linear_926_19552)" stroke="#64B5C8" stroke-linejoin="round"/>
<path d="M142.327 161.373H107.088V163.636C107.088 163.636 107.088 163.733 107.088 163.765C107.088 169.423 114.976 174.046 124.707 174.046C134.439 174.046 142.327 169.455 142.327 163.765C142.327 163.733 142.327 163.668 142.327 163.636V161.373Z" fill="url(#paint73_linear_926_19552)" stroke="#64B5C8" stroke-linejoin="round"/>
<path d="M142.327 161.436C142.327 166.318 134.439 170.262 124.707 170.262C114.976 170.262 107.088 166.318 107.088 161.436C107.088 156.555 114.976 152.61 124.707 152.61C134.439 152.61 142.327 156.555 142.327 161.436Z" fill="url(#paint74_linear_926_19552)" stroke="#64B5C8" stroke-linejoin="round"/>
<path d="M138.417 156.942H111.002V159.755C111.002 159.755 111.002 159.82 111.002 159.852C111.002 164.249 117.145 167.837 124.71 167.837C132.275 167.837 138.417 164.249 138.417 159.852C138.417 159.82 138.417 159.787 138.417 159.755V156.942Z" fill="url(#paint75_linear_926_19552)" stroke="#64B5C8" stroke-linejoin="round"/>
<path d="M138.417 156.976C138.417 160.759 132.275 163.862 124.71 163.862C117.145 163.862 111.002 160.791 111.002 156.976C111.002 153.161 117.145 150.09 124.71 150.09C132.275 150.09 138.417 153.161 138.417 156.976Z" fill="url(#paint76_linear_926_19552)" stroke="#64B5C8" stroke-linejoin="round"/>
<path d="M135.057 81.1299H114.334V155.94C114.334 155.94 114.334 156.005 114.334 156.037C114.334 159.367 118.989 162.083 124.712 162.083C130.434 162.083 135.089 159.367 135.089 156.037C135.089 156.037 135.089 155.972 135.089 155.94V81.1299H135.057Z" fill="url(#paint77_linear_926_19552)" stroke="#64B5C8" stroke-linejoin="round"/>
<path d="M135.054 81.163C135.054 84.0404 130.399 86.3681 124.677 86.3681C118.954 86.3681 114.299 84.0404 114.299 81.163C114.299 78.2857 118.954 75.958 124.677 75.958C130.399 75.958 135.054 78.2857 135.054 81.163Z" fill="url(#paint78_linear_926_19552)" stroke="#64B5C8" stroke-linejoin="round"/>
<path d="M138.417 79.9023H111.002V82.715C111.002 82.715 111.002 82.7797 111.002 82.812C111.002 87.2088 117.145 90.7974 124.71 90.7974C132.275 90.7974 138.417 87.2088 138.417 82.812C138.417 82.7797 138.417 82.7473 138.417 82.715V79.9023Z" fill="url(#paint79_linear_926_19552)" stroke="#64B5C8" stroke-linejoin="round"/>
<path d="M138.417 79.936C138.417 83.7185 132.275 86.8221 124.71 86.8221C117.145 86.8221 111.002 83.7509 111.002 79.936C111.002 76.1211 117.145 73.0498 124.71 73.0498C132.275 73.0498 138.417 76.1211 138.417 79.936Z" fill="url(#paint80_linear_926_19552)" stroke="#64B5C8" stroke-linejoin="round"/>
<path d="M176.987 181.449H141.748V183.712C141.748 183.712 141.748 183.809 141.748 183.842C141.748 189.499 149.636 194.09 159.368 194.09C169.099 194.09 176.987 189.499 176.987 183.842C176.987 183.809 176.987 183.745 176.987 183.712V181.449Z" fill="url(#paint81_linear_926_19552)" stroke="#64B5C8" stroke-linejoin="round"/>
<path d="M176.987 181.514C176.987 186.396 169.099 190.34 159.368 190.34C149.636 190.34 141.748 186.396 141.748 181.514C141.748 176.633 149.636 172.688 159.368 172.688C169.099 172.688 176.987 176.633 176.987 181.514Z" fill="url(#paint82_linear_926_19552)" stroke="#64B5C8" stroke-linejoin="round"/>
<path d="M173.074 177.019H145.658V179.831C145.658 179.831 145.658 179.896 145.658 179.928C145.658 184.325 151.801 187.914 159.366 187.914C166.931 187.914 173.074 184.325 173.074 179.928C173.074 179.896 173.074 179.864 173.074 179.831V177.019Z" fill="url(#paint83_linear_926_19552)" stroke="#64B5C8" stroke-linejoin="round"/>
<path d="M173.074 177.051C173.074 180.834 166.931 183.937 159.366 183.937C151.801 183.937 145.658 180.866 145.658 177.051C145.658 173.236 151.801 170.165 159.366 170.165C166.931 170.165 173.074 173.236 173.074 177.051Z" fill="url(#paint84_linear_926_19552)" stroke="#64B5C8" stroke-linejoin="round"/>
<path d="M169.711 101.208H148.988V176.018C148.988 176.018 148.988 176.083 148.988 176.115C148.988 179.445 153.644 182.161 159.366 182.161C165.088 182.161 169.744 179.445 169.744 176.115C169.744 176.115 169.744 176.051 169.744 176.018V101.208H169.711Z" fill="url(#paint85_linear_926_19552)" stroke="#64B5C8" stroke-linejoin="round"/>
<path d="M169.713 101.24C169.713 104.118 165.057 106.445 159.335 106.445C153.612 106.445 148.957 104.118 148.957 101.24C148.957 98.3629 153.612 96.0352 159.335 96.0352C165.057 96.0352 169.713 98.3629 169.713 101.24Z" fill="url(#paint86_linear_926_19552)" stroke="#64B5C8" stroke-linejoin="round"/>
<path d="M173.074 99.9775H145.658V102.79C145.658 102.79 145.658 102.855 145.658 102.887C145.658 107.284 151.801 110.873 159.366 110.873C166.931 110.873 173.074 107.284 173.074 102.887C173.074 102.855 173.074 102.823 173.074 102.79V99.9775Z" fill="url(#paint87_linear_926_19552)" stroke="#64B5C8" stroke-linejoin="round"/>
<path d="M173.074 100.012C173.074 103.795 166.931 106.898 159.366 106.898C151.801 106.898 145.658 103.827 145.658 100.012C145.658 96.1973 151.801 93.126 159.366 93.126C166.931 93.126 173.074 96.1973 173.074 100.012Z" fill="url(#paint88_linear_926_19552)" stroke="#64B5C8" stroke-linejoin="round"/>
<path d="M193.766 116.207V129.527L381.567 19.0894V5.7373L193.766 116.207Z" fill="url(#paint89_linear_926_19552)" stroke="#64B5C8" stroke-linejoin="round"/>
<path d="M193.83 116.208V129.528L70.5254 57.6594V44.4043L193.83 116.208Z" fill="url(#paint90_linear_926_19552)" stroke="#64B5C8" stroke-linejoin="round"/>
<path d="M193.766 116.207V121.315L381.567 10.8454V5.7373L193.766 116.207Z" fill="url(#paint91_linear_926_19552)" stroke="#64B5C8" stroke-linejoin="round"/>
<path d="M193.83 116.208V121.316L70.5254 49.4477V44.4043L193.83 116.208Z" fill="url(#paint92_linear_926_19552)" stroke="#64B5C8" stroke-linejoin="round"/>
<path d="M70.5254 44.4034L193.83 116.207L381.567 5.7374L258.165 -66.1309L70.5254 44.4034Z" fill="url(#paint93_linear_926_19552)" stroke="#64B5C8" stroke-linejoin="round"/>
<path d="M193.766 114.591V118.665L382.957 7.38699V3.31348L193.766 114.591Z" fill="url(#paint94_linear_926_19552)" stroke="#64B5C8" stroke-linejoin="round"/>
<path d="M193.83 114.59V118.664L69.168 45.9874V41.9785L193.83 114.59Z" fill="url(#paint95_linear_926_19552)" stroke="#64B5C8" stroke-linejoin="round"/>
<path d="M69.168 41.9811L193.83 114.593L382.957 3.31517L258.166 -69.3613L69.168 41.9811Z" fill="url(#paint96_linear_926_19552)" stroke="#64B5C8" stroke-linejoin="round"/>
<path d="M253.379 -66.8408L316.195 -95.7109L379.011 5.70641L253.379 -66.8408Z" fill="url(#paint97_linear_926_19552)" stroke="#64B5C8" stroke-linejoin="round"/>
<path d="M309.631 -89.665L254.93 -65.8383L83.3574 35.3851L131.043 15.8581L309.631 -89.665Z" fill="url(#paint98_linear_926_19552)" stroke="#64B5C8" stroke-linejoin="round"/>
<path d="M132.148 12.4852L193.996 113.69L382.751 2.84659L316.084 -95.1455L132.148 12.4852Z" fill="url(#paint99_linear_926_19552)" stroke="#64B5C8" stroke-linejoin="round"/>
<path d="M68.7129 42.0127L131.529 13.1426L194.377 114.56L68.7129 42.0127Z" fill="url(#paint100_linear_926_19552)" stroke="#64B5C8" stroke-linejoin="round"/>
<path d="M84.0684 42.7237L128.812 22.1299L173.621 94.4184L84.0684 42.7237Z" fill="url(#paint101_linear_926_19552)" stroke="#64B5C8" stroke-linejoin="round"/>
<path d="M87.075 42.0448L129.168 22.6795L128.812 22.1299L84.0684 42.7237L173.621 94.4184L171.261 90.6359L87.075 42.0448Z" fill="url(#paint102_linear_926_19552)" stroke="#64B5C8" stroke-linejoin="round"/>
</g>
<defs>
<linearGradient id="paint0_linear_926_19552" x1="232.883" y1="25.4863" x2="232.883" y2="262.31" gradientUnits="userSpaceOnUse">
<stop stop-color="#A8C9D1"/>
<stop offset="1" stop-color="white"/>
</linearGradient>
<linearGradient id="paint1_linear_926_19552" x1="232.155" y1="27.8291" x2="232.155" y2="261.228" gradientUnits="userSpaceOnUse">
<stop stop-color="#A8C9D1"/>
<stop offset="1" stop-color="white"/>
</linearGradient>
<linearGradient id="paint2_linear_926_19552" x1="231.394" y1="30.1572" x2="231.394" y2="260.144" gradientUnits="userSpaceOnUse">
<stop stop-color="#A8C9D1"/>
<stop offset="1" stop-color="white"/>
</linearGradient>
<linearGradient id="paint3_linear_926_19552" x1="230.722" y1="32.498" x2="230.722" y2="259.07" gradientUnits="userSpaceOnUse">
<stop stop-color="#A8C9D1"/>
<stop offset="1" stop-color="white"/>
</linearGradient>
<linearGradient id="paint4_linear_926_19552" x1="230.002" y1="34.7969" x2="230.002" y2="258.013" gradientUnits="userSpaceOnUse">
<stop stop-color="#A8C9D1"/>
<stop offset="1" stop-color="white"/>
</linearGradient>
<linearGradient id="paint5_linear_926_19552" x1="229.265" y1="37.1133" x2="229.265" y2="256.933" gradientUnits="userSpaceOnUse">
<stop stop-color="#A8C9D1"/>
<stop offset="1" stop-color="white"/>
</linearGradient>
<linearGradient id="paint6_linear_926_19552" x1="228.596" y1="39.3916" x2="228.596" y2="255.957" gradientUnits="userSpaceOnUse">
<stop stop-color="#A8C9D1"/>
<stop offset="1" stop-color="white"/>
</linearGradient>
<linearGradient id="paint7_linear_926_19552" x1="227.831" y1="41.6855" x2="227.831" y2="254.901" gradientUnits="userSpaceOnUse">
<stop stop-color="#A8C9D1"/>
<stop offset="1" stop-color="white"/>
</linearGradient>
<linearGradient id="paint8_linear_926_19552" x1="227.148" y1="43.9375" x2="227.148" y2="253.945" gradientUnits="userSpaceOnUse">
<stop stop-color="#A8C9D1"/>
<stop offset="1" stop-color="white"/>
</linearGradient>
<linearGradient id="paint9_linear_926_19552" x1="226.385" y1="46.1777" x2="226.385" y2="252.866" gradientUnits="userSpaceOnUse">
<stop stop-color="#A8C9D1"/>
<stop offset="1" stop-color="white"/>
</linearGradient>
<linearGradient id="paint10_linear_926_19552" x1="225.692" y1="48.4463" x2="225.692" y2="251.895" gradientUnits="userSpaceOnUse">
<stop stop-color="#A8C9D1"/>
<stop offset="1" stop-color="white"/>
</linearGradient>
<linearGradient id="paint11_linear_926_19552" x1="312.864" y1="115.464" x2="312.864" y2="269.513" gradientUnits="userSpaceOnUse">
<stop stop-color="#A8C9D1"/>
<stop offset="1" stop-color="white"/>
</linearGradient>
<linearGradient id="paint12_linear_926_19552" x1="111.762" y1="159.853" x2="111.762" y2="269.514" gradientUnits="userSpaceOnUse">
<stop stop-color="#A8C9D1"/>
<stop offset="1" stop-color="white"/>
</linearGradient>
<linearGradient id="paint13_linear_926_19552" x1="230.847" y1="19.7676" x2="230.847" y2="255.417" gradientUnits="userSpaceOnUse">
<stop stop-color="#A8C9D1"/>
<stop offset="1" stop-color="white"/>
</linearGradient>
<linearGradient id="paint14_linear_926_19552" x1="297.495" y1="101.304" x2="297.495" y2="237.637" gradientUnits="userSpaceOnUse">
<stop stop-color="#A8C9D1"/>
<stop offset="1" stop-color="white"/>
</linearGradient>
<linearGradient id="paint15_linear_926_19552" x1="127.148" y1="145.563" x2="127.148" y2="237.638" gradientUnits="userSpaceOnUse">
<stop stop-color="#A8C9D1"/>
<stop offset="1" stop-color="white"/>
</linearGradient>
<linearGradient id="paint16_linear_926_19552" x1="230.845" y1="23.584" x2="230.845" y2="223.218" gradientUnits="userSpaceOnUse">
<stop stop-color="#A8C9D1"/>
<stop offset="1" stop-color="white"/>
</linearGradient>
<linearGradient id="paint17_linear_926_19552" x1="297.737" y1="141.295" x2="297.737" y2="153.936" gradientUnits="userSpaceOnUse">
<stop stop-color="#A8C9D1"/>
<stop offset="1" stop-color="white"/>
</linearGradient>
<linearGradient id="paint18_linear_926_19552" x1="297.737" y1="132.535" x2="297.737" y2="150.187" gradientUnits="userSpaceOnUse">
<stop stop-color="#A8C9D1"/>
<stop offset="1" stop-color="white"/>
</linearGradient>
<linearGradient id="paint19_linear_926_19552" x1="297.735" y1="136.867" x2="297.735" y2="147.762" gradientUnits="userSpaceOnUse">
<stop stop-color="#A8C9D1"/>
<stop offset="1" stop-color="white"/>
</linearGradient>
<linearGradient id="paint20_linear_926_19552" x1="297.735" y1="130.013" x2="297.735" y2="143.785" gradientUnits="userSpaceOnUse">
<stop stop-color="#A8C9D1"/>
<stop offset="1" stop-color="white"/>
</linearGradient>
<linearGradient id="paint21_linear_926_19552" x1="297.737" y1="61.0537" x2="297.737" y2="142.007" gradientUnits="userSpaceOnUse">
<stop stop-color="#A8C9D1"/>
<stop offset="1" stop-color="white"/>
</linearGradient>
<linearGradient id="paint22_linear_926_19552" x1="297.702" y1="55.8828" x2="297.702" y2="66.2929" gradientUnits="userSpaceOnUse">
<stop stop-color="#A8C9D1"/>
<stop offset="1" stop-color="white"/>
</linearGradient>
<linearGradient id="paint23_linear_926_19552" x1="297.735" y1="59.8252" x2="297.735" y2="70.7202" gradientUnits="userSpaceOnUse">
<stop stop-color="#A8C9D1"/>
<stop offset="1" stop-color="white"/>
</linearGradient>
<linearGradient id="paint24_linear_926_19552" x1="297.735" y1="52.9697" x2="297.735" y2="66.7421" gradientUnits="userSpaceOnUse">
<stop stop-color="#A8C9D1"/>
<stop offset="1" stop-color="white"/>
</linearGradient>
<linearGradient id="paint25_linear_926_19552" x1="263.079" y1="161.373" x2="263.079" y2="174.046" gradientUnits="userSpaceOnUse">
<stop stop-color="#A8C9D1"/>
<stop offset="1" stop-color="white"/>
</linearGradient>
<linearGradient id="paint26_linear_926_19552" x1="263.079" y1="152.61" x2="263.079" y2="170.262" gradientUnits="userSpaceOnUse">
<stop stop-color="#A8C9D1"/>
<stop offset="1" stop-color="white"/>
</linearGradient>
<linearGradient id="paint27_linear_926_19552" x1="263.081" y1="156.942" x2="263.081" y2="167.837" gradientUnits="userSpaceOnUse">
<stop stop-color="#A8C9D1"/>
<stop offset="1" stop-color="white"/>
</linearGradient>
<linearGradient id="paint28_linear_926_19552" x1="263.081" y1="150.09" x2="263.081" y2="163.862" gradientUnits="userSpaceOnUse">
<stop stop-color="#A8C9D1"/>
<stop offset="1" stop-color="white"/>
</linearGradient>
<linearGradient id="paint29_linear_926_19552" x1="263.079" y1="81.1299" x2="263.079" y2="162.083" gradientUnits="userSpaceOnUse">
<stop stop-color="#A8C9D1"/>
<stop offset="1" stop-color="white"/>
</linearGradient>
<linearGradient id="paint30_linear_926_19552" x1="263.044" y1="75.958" x2="263.044" y2="86.3681" gradientUnits="userSpaceOnUse">
<stop stop-color="#A8C9D1"/>
<stop offset="1" stop-color="white"/>
</linearGradient>
<linearGradient id="paint31_linear_926_19552" x1="263.081" y1="79.9023" x2="263.081" y2="90.7974" gradientUnits="userSpaceOnUse">
<stop stop-color="#A8C9D1"/>
<stop offset="1" stop-color="white"/>
</linearGradient>
<linearGradient id="paint32_linear_926_19552" x1="263.081" y1="73.0498" x2="263.081" y2="86.8221" gradientUnits="userSpaceOnUse">
<stop stop-color="#A8C9D1"/>
<stop offset="1" stop-color="white"/>
</linearGradient>
<linearGradient id="paint33_linear_926_19552" x1="228.387" y1="181.449" x2="228.387" y2="194.09" gradientUnits="userSpaceOnUse">
<stop stop-color="#A8C9D1"/>
<stop offset="1" stop-color="white"/>
</linearGradient>
<linearGradient id="paint34_linear_926_19552" x1="228.387" y1="172.688" x2="228.387" y2="190.34" gradientUnits="userSpaceOnUse">
<stop stop-color="#A8C9D1"/>
<stop offset="1" stop-color="white"/>
</linearGradient>
<linearGradient id="paint35_linear_926_19552" x1="228.387" y1="177.019" x2="228.387" y2="187.914" gradientUnits="userSpaceOnUse">
<stop stop-color="#A8C9D1"/>
<stop offset="1" stop-color="white"/>
</linearGradient>
<linearGradient id="paint36_linear_926_19552" x1="228.387" y1="170.165" x2="228.387" y2="183.937" gradientUnits="userSpaceOnUse">
<stop stop-color="#A8C9D1"/>
<stop offset="1" stop-color="white"/>
</linearGradient>
<linearGradient id="paint37_linear_926_19552" x1="228.421" y1="101.208" x2="228.421" y2="182.161" gradientUnits="userSpaceOnUse">
<stop stop-color="#A8C9D1"/>
<stop offset="1" stop-color="white"/>
</linearGradient>
<linearGradient id="paint38_linear_926_19552" x1="228.391" y1="96.0352" x2="228.391" y2="106.445" gradientUnits="userSpaceOnUse">
<stop stop-color="#A8C9D1"/>
<stop offset="1" stop-color="white"/>
</linearGradient>
<linearGradient id="paint39_linear_926_19552" x1="228.387" y1="99.9775" x2="228.387" y2="110.873" gradientUnits="userSpaceOnUse">
<stop stop-color="#A8C9D1"/>
<stop offset="1" stop-color="white"/>
</linearGradient>
<linearGradient id="paint40_linear_926_19552" x1="228.387" y1="93.126" x2="228.387" y2="106.898" gradientUnits="userSpaceOnUse">
<stop stop-color="#A8C9D1"/>
<stop offset="1" stop-color="white"/>
</linearGradient>
<linearGradient id="paint41_linear_926_19552" x1="367.051" y1="101.143" x2="367.051" y2="113.783" gradientUnits="userSpaceOnUse">
<stop stop-color="#A8C9D1"/>
<stop offset="1" stop-color="white"/>
</linearGradient>
<linearGradient id="paint42_linear_926_19552" x1="367.051" y1="92.4141" x2="367.051" y2="110.066" gradientUnits="userSpaceOnUse">
<stop stop-color="#A8C9D1"/>
<stop offset="1" stop-color="white"/>
</linearGradient>
<linearGradient id="paint43_linear_926_19552" x1="367.049" y1="96.7139" x2="367.049" y2="107.609" gradientUnits="userSpaceOnUse">
<stop stop-color="#A8C9D1"/>
<stop offset="1" stop-color="white"/>
</linearGradient>
<linearGradient id="paint44_linear_926_19552" x1="367.049" y1="89.8936" x2="367.049" y2="103.666" gradientUnits="userSpaceOnUse">
<stop stop-color="#A8C9D1"/>
<stop offset="1" stop-color="white"/>
</linearGradient>
<linearGradient id="paint45_linear_926_19552" x1="367.081" y1="20.9326" x2="367.081" y2="101.885" gradientUnits="userSpaceOnUse">
<stop stop-color="#A8C9D1"/>
<stop offset="1" stop-color="white"/>
</linearGradient>
<linearGradient id="paint46_linear_926_19552" x1="367.052" y1="15.7617" x2="367.052" y2="26.1718" gradientUnits="userSpaceOnUse">
<stop stop-color="#A8C9D1"/>
<stop offset="1" stop-color="white"/>
</linearGradient>
<linearGradient id="paint47_linear_926_19552" x1="367.049" y1="19.6719" x2="367.049" y2="30.5669" gradientUnits="userSpaceOnUse">
<stop stop-color="#A8C9D1"/>
<stop offset="1" stop-color="white"/>
</linearGradient>
<linearGradient id="paint48_linear_926_19552" x1="367.049" y1="12.8516" x2="367.049" y2="26.6239" gradientUnits="userSpaceOnUse">
<stop stop-color="#A8C9D1"/>
<stop offset="1" stop-color="white"/>
</linearGradient>
<linearGradient id="paint49_linear_926_19552" x1="332.393" y1="121.22" x2="332.393" y2="133.861" gradientUnits="userSpaceOnUse">
<stop stop-color="#A8C9D1"/>
<stop offset="1" stop-color="white"/>
</linearGradient>
<linearGradient id="paint50_linear_926_19552" x1="332.393" y1="112.49" x2="332.393" y2="130.142" gradientUnits="userSpaceOnUse">
<stop stop-color="#A8C9D1"/>
<stop offset="1" stop-color="white"/>
</linearGradient>
<linearGradient id="paint51_linear_926_19552" x1="332.393" y1="116.79" x2="332.393" y2="127.685" gradientUnits="userSpaceOnUse">
<stop stop-color="#A8C9D1"/>
<stop offset="1" stop-color="white"/>
</linearGradient>
<linearGradient id="paint52_linear_926_19552" x1="332.393" y1="109.969" x2="332.393" y2="123.741" gradientUnits="userSpaceOnUse">
<stop stop-color="#A8C9D1"/>
<stop offset="1" stop-color="white"/>
</linearGradient>
<linearGradient id="paint53_linear_926_19552" x1="332.391" y1="41.0098" x2="332.391" y2="121.963" gradientUnits="userSpaceOnUse">
<stop stop-color="#A8C9D1"/>
<stop offset="1" stop-color="white"/>
</linearGradient>
<linearGradient id="paint54_linear_926_19552" x1="332.36" y1="35.8359" x2="332.36" y2="46.246" gradientUnits="userSpaceOnUse">
<stop stop-color="#A8C9D1"/>
<stop offset="1" stop-color="white"/>
</linearGradient>
<linearGradient id="paint55_linear_926_19552" x1="332.393" y1="39.75" x2="332.393" y2="50.645" gradientUnits="userSpaceOnUse">
<stop stop-color="#A8C9D1"/>
<stop offset="1" stop-color="white"/>
</linearGradient>
<linearGradient id="paint56_linear_926_19552" x1="332.393" y1="32.9287" x2="332.393" y2="46.701" gradientUnits="userSpaceOnUse">
<stop stop-color="#A8C9D1"/>
<stop offset="1" stop-color="white"/>
</linearGradient>
<linearGradient id="paint57_linear_926_19552" x1="193.733" y1="201.525" x2="193.733" y2="214.199" gradientUnits="userSpaceOnUse">
<stop stop-color="#A8C9D1"/>
<stop offset="1" stop-color="white"/>
</linearGradient>
<linearGradient id="paint58_linear_926_19552" x1="193.733" y1="192.765" x2="193.733" y2="210.416" gradientUnits="userSpaceOnUse">
<stop stop-color="#A8C9D1"/>
<stop offset="1" stop-color="white"/>
</linearGradient>
<linearGradient id="paint59_linear_926_19552" x1="193.733" y1="197.063" x2="193.733" y2="207.958" gradientUnits="userSpaceOnUse">
<stop stop-color="#A8C9D1"/>
<stop offset="1" stop-color="white"/>
</linearGradient>
<linearGradient id="paint60_linear_926_19552" x1="193.733" y1="190.244" x2="193.733" y2="204.016" gradientUnits="userSpaceOnUse">
<stop stop-color="#A8C9D1"/>
<stop offset="1" stop-color="white"/>
</linearGradient>
<linearGradient id="paint61_linear_926_19552" x1="193.764" y1="121.286" x2="193.764" y2="202.239" gradientUnits="userSpaceOnUse">
<stop stop-color="#A8C9D1"/>
<stop offset="1" stop-color="white"/>
</linearGradient>
<linearGradient id="paint62_linear_926_19552" x1="193.733" y1="116.111" x2="193.733" y2="126.521" gradientUnits="userSpaceOnUse">
<stop stop-color="#A8C9D1"/>
<stop offset="1" stop-color="white"/>
</linearGradient>
<linearGradient id="paint63_linear_926_19552" x1="193.733" y1="120.056" x2="193.733" y2="130.951" gradientUnits="userSpaceOnUse">
<stop stop-color="#A8C9D1"/>
<stop offset="1" stop-color="white"/>
</linearGradient>
<linearGradient id="paint64_linear_926_19552" x1="193.733" y1="113.202" x2="193.733" y2="126.974" gradientUnits="userSpaceOnUse">
<stop stop-color="#A8C9D1"/>
<stop offset="1" stop-color="white"/>
</linearGradient>
<linearGradient id="paint65_linear_926_19552" x1="90.0199" y1="141.295" x2="90.0199" y2="153.936" gradientUnits="userSpaceOnUse">
<stop stop-color="#A8C9D1"/>
<stop offset="1" stop-color="white"/>
</linearGradient>
<linearGradient id="paint66_linear_926_19552" x1="90.0199" y1="132.535" x2="90.0199" y2="150.187" gradientUnits="userSpaceOnUse">
<stop stop-color="#A8C9D1"/>
<stop offset="1" stop-color="white"/>
</linearGradient>
<linearGradient id="paint67_linear_926_19552" x1="90.0182" y1="136.867" x2="90.0182" y2="147.762" gradientUnits="userSpaceOnUse">
<stop stop-color="#A8C9D1"/>
<stop offset="1" stop-color="white"/>
</linearGradient>
<linearGradient id="paint68_linear_926_19552" x1="90.0182" y1="130.013" x2="90.0182" y2="143.785" gradientUnits="userSpaceOnUse">
<stop stop-color="#A8C9D1"/>
<stop offset="1" stop-color="white"/>
</linearGradient>
<linearGradient id="paint69_linear_926_19552" x1="90.0496" y1="61.0537" x2="90.0496" y2="142.007" gradientUnits="userSpaceOnUse">
<stop stop-color="#A8C9D1"/>
<stop offset="1" stop-color="white"/>
</linearGradient>
<linearGradient id="paint70_linear_926_19552" x1="90.0203" y1="55.8828" x2="90.0203" y2="66.2929" gradientUnits="userSpaceOnUse">
<stop stop-color="#A8C9D1"/>
<stop offset="1" stop-color="white"/>
</linearGradient>
<linearGradient id="paint71_linear_926_19552" x1="90.0182" y1="59.8252" x2="90.0182" y2="70.7202" gradientUnits="userSpaceOnUse">
<stop stop-color="#A8C9D1"/>
<stop offset="1" stop-color="white"/>
</linearGradient>
<linearGradient id="paint72_linear_926_19552" x1="90.0182" y1="52.9697" x2="90.0182" y2="66.7421" gradientUnits="userSpaceOnUse">
<stop stop-color="#A8C9D1"/>
<stop offset="1" stop-color="white"/>
</linearGradient>
<linearGradient id="paint73_linear_926_19552" x1="124.707" y1="161.373" x2="124.707" y2="174.046" gradientUnits="userSpaceOnUse">
<stop stop-color="#A8C9D1"/>
<stop offset="1" stop-color="white"/>
</linearGradient>
<linearGradient id="paint74_linear_926_19552" x1="124.707" y1="152.61" x2="124.707" y2="170.262" gradientUnits="userSpaceOnUse">
<stop stop-color="#A8C9D1"/>
<stop offset="1" stop-color="white"/>
</linearGradient>
<linearGradient id="paint75_linear_926_19552" x1="124.71" y1="156.942" x2="124.71" y2="167.837" gradientUnits="userSpaceOnUse">
<stop stop-color="#A8C9D1"/>
<stop offset="1" stop-color="white"/>
</linearGradient>
<linearGradient id="paint76_linear_926_19552" x1="124.71" y1="150.09" x2="124.71" y2="163.862" gradientUnits="userSpaceOnUse">
<stop stop-color="#A8C9D1"/>
<stop offset="1" stop-color="white"/>
</linearGradient>
<linearGradient id="paint77_linear_926_19552" x1="124.712" y1="81.1299" x2="124.712" y2="162.083" gradientUnits="userSpaceOnUse">
<stop stop-color="#A8C9D1"/>
<stop offset="1" stop-color="white"/>
</linearGradient>
<linearGradient id="paint78_linear_926_19552" x1="124.677" y1="75.958" x2="124.677" y2="86.3681" gradientUnits="userSpaceOnUse">
<stop stop-color="#A8C9D1"/>
<stop offset="1" stop-color="white"/>
</linearGradient>
<linearGradient id="paint79_linear_926_19552" x1="124.71" y1="79.9023" x2="124.71" y2="90.7974" gradientUnits="userSpaceOnUse">
<stop stop-color="#A8C9D1"/>
<stop offset="1" stop-color="white"/>
</linearGradient>
<linearGradient id="paint80_linear_926_19552" x1="124.71" y1="73.0498" x2="124.71" y2="86.8221" gradientUnits="userSpaceOnUse">
<stop stop-color="#A8C9D1"/>
<stop offset="1" stop-color="white"/>
</linearGradient>
<linearGradient id="paint81_linear_926_19552" x1="159.368" y1="181.449" x2="159.368" y2="194.09" gradientUnits="userSpaceOnUse">
<stop stop-color="#A8C9D1"/>
<stop offset="1" stop-color="white"/>
</linearGradient>
<linearGradient id="paint82_linear_926_19552" x1="159.368" y1="172.688" x2="159.368" y2="190.34" gradientUnits="userSpaceOnUse">
<stop stop-color="#A8C9D1"/>
<stop offset="1" stop-color="white"/>
</linearGradient>
<linearGradient id="paint83_linear_926_19552" x1="159.366" y1="177.019" x2="159.366" y2="187.914" gradientUnits="userSpaceOnUse">
<stop stop-color="#A8C9D1"/>
<stop offset="1" stop-color="white"/>
</linearGradient>
<linearGradient id="paint84_linear_926_19552" x1="159.366" y1="170.165" x2="159.366" y2="183.937" gradientUnits="userSpaceOnUse">
<stop stop-color="#A8C9D1"/>
<stop offset="1" stop-color="white"/>
</linearGradient>
<linearGradient id="paint85_linear_926_19552" x1="159.366" y1="101.208" x2="159.366" y2="182.161" gradientUnits="userSpaceOnUse">
<stop stop-color="#A8C9D1"/>
<stop offset="1" stop-color="white"/>
</linearGradient>
<linearGradient id="paint86_linear_926_19552" x1="159.335" y1="96.0352" x2="159.335" y2="106.445" gradientUnits="userSpaceOnUse">
<stop stop-color="#A8C9D1"/>
<stop offset="1" stop-color="white"/>
</linearGradient>
<linearGradient id="paint87_linear_926_19552" x1="159.366" y1="99.9775" x2="159.366" y2="110.873" gradientUnits="userSpaceOnUse">
<stop stop-color="#A8C9D1"/>
<stop offset="1" stop-color="white"/>
</linearGradient>
<linearGradient id="paint88_linear_926_19552" x1="159.366" y1="93.126" x2="159.366" y2="106.898" gradientUnits="userSpaceOnUse">
<stop stop-color="#A8C9D1"/>
<stop offset="1" stop-color="white"/>
</linearGradient>
<linearGradient id="paint89_linear_926_19552" x1="287.666" y1="5.7373" x2="287.666" y2="129.527" gradientUnits="userSpaceOnUse">
<stop stop-color="#A8C9D1"/>
<stop offset="1" stop-color="white"/>
</linearGradient>
<linearGradient id="paint90_linear_926_19552" x1="132.178" y1="44.4043" x2="132.178" y2="129.528" gradientUnits="userSpaceOnUse">
<stop stop-color="#A8C9D1"/>
<stop offset="1" stop-color="white"/>
</linearGradient>
<linearGradient id="paint91_linear_926_19552" x1="287.666" y1="5.7373" x2="287.666" y2="121.315" gradientUnits="userSpaceOnUse">
<stop stop-color="#A8C9D1"/>
<stop offset="1" stop-color="white"/>
</linearGradient>
<linearGradient id="paint92_linear_926_19552" x1="132.178" y1="44.4043" x2="132.178" y2="121.316" gradientUnits="userSpaceOnUse">
<stop stop-color="#A8C9D1"/>
<stop offset="1" stop-color="white"/>
</linearGradient>
<linearGradient id="paint93_linear_926_19552" x1="226.046" y1="-66.1309" x2="226.046" y2="116.207" gradientUnits="userSpaceOnUse">
<stop stop-color="#A8C9D1"/>
<stop offset="1" stop-color="white"/>
</linearGradient>
<linearGradient id="paint94_linear_926_19552" x1="288.361" y1="3.31348" x2="288.361" y2="118.665" gradientUnits="userSpaceOnUse">
<stop stop-color="#A8C9D1"/>
<stop offset="1" stop-color="white"/>
</linearGradient>
<linearGradient id="paint95_linear_926_19552" x1="131.499" y1="41.9785" x2="131.499" y2="118.664" gradientUnits="userSpaceOnUse">
<stop stop-color="#A8C9D1"/>
<stop offset="1" stop-color="white"/>
</linearGradient>
<linearGradient id="paint96_linear_926_19552" x1="226.063" y1="-69.3613" x2="226.063" y2="114.593" gradientUnits="userSpaceOnUse">
<stop stop-color="#A8C9D1"/>
<stop offset="1" stop-color="white"/>
</linearGradient>
<linearGradient id="paint97_linear_926_19552" x1="316.195" y1="-95.7109" x2="316.195" y2="5.70641" gradientUnits="userSpaceOnUse">
<stop stop-color="#A8C9D1"/>
<stop offset="1" stop-color="white"/>
</linearGradient>
<linearGradient id="paint98_linear_926_19552" x1="196.494" y1="-89.665" x2="196.494" y2="35.3851" gradientUnits="userSpaceOnUse">
<stop stop-color="#A8C9D1"/>
<stop offset="1" stop-color="white"/>
</linearGradient>
<linearGradient id="paint99_linear_926_19552" x1="257.45" y1="-95.1455" x2="257.45" y2="113.69" gradientUnits="userSpaceOnUse">
<stop stop-color="#A8C9D1"/>
<stop offset="1" stop-color="white"/>
</linearGradient>
<linearGradient id="paint100_linear_926_19552" x1="131.545" y1="13.1426" x2="131.545" y2="114.56" gradientUnits="userSpaceOnUse">
<stop stop-color="#A8C9D1"/>
<stop offset="1" stop-color="white"/>
</linearGradient>
<linearGradient id="paint101_linear_926_19552" x1="128.845" y1="22.1299" x2="128.845" y2="94.4184" gradientUnits="userSpaceOnUse">
<stop stop-color="#A8C9D1"/>
<stop offset="1" stop-color="white"/>
</linearGradient>
<linearGradient id="paint102_linear_926_19552" x1="128.845" y1="22.1299" x2="128.845" y2="94.4184" gradientUnits="userSpaceOnUse">
<stop stop-color="#A8C9D1"/>
<stop offset="1" stop-color="white"/>
</linearGradient>
<clipPath id="clip0_926_19552">
<rect width="462" height="291" rx="8" fill="white"/>
</clipPath>
</defs>
</svg>
