<svg width="462" height="291" viewBox="0 0 462 291" fill="none" xmlns="http://www.w3.org/2000/svg">
<g clip-path="url(#clip0_926_19504)">
<rect width="462" height="291" rx="8" fill="#F6F7F8"/>
<path d="M391.985 224.293V-34.2154L289.211 -61.1064L270.285 -72.0407C265.947 -74.545 258.351 -74.2302 253.329 -71.3427L235.662 -61.1474L180.854 -61.1748L197.084 188.384C196.961 190.081 197.905 191.723 199.999 192.927L302.554 270.316C306.892 272.82 314.487 272.505 319.509 269.618L387.852 230.15C390.74 228.481 392.135 226.319 391.985 224.307V224.293Z" fill="url(#paint0_linear_926_19504)" stroke="#64B5C8" stroke-linejoin="round"/>
<path d="M262.415 -73.7256C259.24 -73.6435 255.942 -72.8497 253.328 -71.3444L235.661 -61.1491L180.852 -61.1765V198.03C180.729 199.727 181.674 201.369 183.767 202.574L302.553 270.314C304.647 271.518 307.479 272.066 310.422 271.997L311.653 11.1759L262.428 -73.7119L262.415 -73.7256Z" fill="url(#paint1_linear_926_19504)" stroke="#64B5C8" stroke-linejoin="round"/>
<path d="M303.646 270.849C307.396 272.45 312.815 272.368 317.195 270.698V8.08398H303.646V270.849Z" fill="url(#paint2_linear_926_19504)" stroke="#64B5C8" stroke-linejoin="round"/>
<path d="M302.553 11.1904L183.768 -56.5502C179.43 -59.0545 179.963 -63.4337 184.986 -66.3349L253.328 -105.789C258.351 -108.69 265.932 -109.005 270.284 -106.487L389.069 -38.746C393.408 -36.2417 392.874 -31.8625 387.852 -28.9613L319.509 10.5061C314.486 13.4073 306.905 13.7221 302.553 11.204V11.1904Z" fill="url(#paint3_linear_926_19504)" stroke="#64B5C8" stroke-linejoin="round"/>
<path d="M387.851 -33.7785L319.509 5.68895C314.486 8.59016 306.905 8.90491 302.553 6.38688L183.768 -61.3536C182.796 -61.9147 182.085 -62.5716 181.606 -63.2832C180.114 -60.8883 180.784 -58.2745 183.768 -56.5502L302.553 11.1903C306.891 13.6946 314.486 13.3799 319.509 10.4924L387.851 -28.975C391.752 -31.2194 392.929 -34.3669 391.232 -36.8439C390.547 -35.7491 389.425 -34.6953 387.851 -33.7921V-33.7785Z" fill="url(#paint4_linear_926_19504)" stroke="#64B5C8" stroke-linejoin="round"/>
<path d="M289.428 62.413L201.653 11.7376C199.121 10.2733 197.068 6.35946 197.068 2.97928V-13.1005C197.068 -16.4807 199.121 -18.0271 201.653 -16.5628L289.428 34.1125C291.96 35.5768 294.013 39.4907 294.013 42.8709V58.9507C294.013 62.3309 291.96 63.8773 289.428 62.413Z" fill="url(#paint5_linear_926_19504)" stroke="#64B5C8" stroke-linejoin="round"/>
<path d="M282.792 48.1946L278.673 45.8134C278.125 45.4987 277.674 44.6365 277.674 43.9112V39.5047C277.674 38.7657 278.125 38.4372 278.673 38.752L282.792 41.1332C283.339 41.4479 283.791 42.3101 283.791 43.0354V47.4419C283.791 48.1809 283.339 48.5094 282.792 48.1946Z" fill="url(#paint6_linear_926_19504)" stroke="#64B5C8" stroke-linejoin="round"/>
<path d="M268.997 40.2298L264.878 37.8486C264.331 37.5338 263.879 36.6717 263.879 35.9464V31.5398C263.879 30.8008 264.331 30.4724 264.878 30.7871L268.997 33.1683C269.544 33.4831 269.996 34.3452 269.996 35.0705V39.4771C269.996 40.2161 269.544 40.5445 268.997 40.2298Z" fill="url(#paint7_linear_926_19504)" stroke="#64B5C8" stroke-linejoin="round"/>
<path d="M289.428 120.506L201.653 69.8304C199.121 68.3661 197.068 64.4522 197.068 61.072V44.9922C197.068 41.612 199.121 40.0656 201.653 41.5299L289.428 92.2053C291.96 93.6696 294.013 97.5835 294.013 100.964V117.043C294.013 120.424 291.96 121.97 289.428 120.506Z" fill="url(#paint8_linear_926_19504)" stroke="#64B5C8" stroke-linejoin="round"/>
<path d="M282.792 106.301L278.673 103.92C278.125 103.605 277.674 102.743 277.674 102.018V97.6111C277.674 96.8721 278.125 96.5437 278.673 96.8584L282.792 99.2396C283.339 99.5544 283.791 100.417 283.791 101.142V105.548C283.791 106.287 283.339 106.616 282.792 106.301Z" fill="url(#paint9_linear_926_19504)" stroke="#64B5C8" stroke-linejoin="round"/>
<path d="M268.997 98.3362L264.878 95.955C264.331 95.6403 263.879 94.7781 263.879 94.0528V89.6463C263.879 88.9073 264.331 88.5788 264.878 88.8936L268.997 91.2748C269.544 91.5895 269.996 92.4517 269.996 93.177V97.5835C269.996 98.3225 269.544 98.651 268.997 98.3362Z" fill="url(#paint10_linear_926_19504)" stroke="#64B5C8" stroke-linejoin="round"/>
<path d="M289.428 178.611L201.653 127.936C199.121 126.472 197.068 122.558 197.068 119.178V103.098C197.068 99.7175 199.121 98.1711 201.653 99.6354L289.428 150.311C291.96 151.775 294.013 155.689 294.013 159.069V175.149C294.013 178.529 291.96 180.076 289.428 178.611Z" fill="url(#paint11_linear_926_19504)" stroke="#64B5C8" stroke-linejoin="round"/>
<path d="M282.792 164.394L278.673 162.013C278.125 161.698 277.674 160.836 277.674 160.11V155.704C277.674 154.965 278.125 154.636 278.673 154.951L282.792 157.332C283.339 157.647 283.791 158.509 283.791 159.235V163.641C283.791 164.38 283.339 164.709 282.792 164.394Z" fill="url(#paint12_linear_926_19504)" stroke="#64B5C8" stroke-linejoin="round"/>
<path d="M268.997 156.429L264.878 154.048C264.331 153.733 263.879 152.871 263.879 152.146V147.739C263.879 147 264.331 146.672 264.878 146.986L268.997 149.368C269.544 149.682 269.996 150.544 269.996 151.27V155.676C269.996 156.415 269.544 156.744 268.997 156.429Z" fill="url(#paint13_linear_926_19504)" stroke="#64B5C8" stroke-linejoin="round"/>
<path d="M289.428 236.718L201.653 186.042C199.121 184.578 197.068 180.664 197.068 177.284V161.204C197.068 157.824 199.121 156.278 201.653 157.742L289.428 208.417C291.96 209.882 294.013 213.795 294.013 217.176V233.255C294.013 236.636 291.96 238.182 289.428 236.718Z" fill="url(#paint14_linear_926_19504)" stroke="#64B5C8" stroke-linejoin="round"/>
<path d="M282.792 222.5L278.673 220.119C278.125 219.804 277.674 218.942 277.674 218.217V213.81C277.674 213.071 278.125 212.743 278.673 213.058L282.792 215.439C283.339 215.754 283.791 216.616 283.791 217.341V221.748C283.791 222.487 283.339 222.815 282.792 222.5Z" fill="url(#paint15_linear_926_19504)" stroke="#64B5C8" stroke-linejoin="round"/>
<path d="M268.997 214.535L264.878 212.154C264.331 211.839 263.879 210.977 263.879 210.252V205.845C263.879 205.106 264.331 204.778 264.878 205.093L268.997 207.474C269.544 207.789 269.996 208.651 269.996 209.376V213.783C269.996 214.522 269.544 214.85 268.997 214.535Z" fill="url(#paint16_linear_926_19504)" stroke="#64B5C8" stroke-linejoin="round"/>
<path d="M332.852 62.4136L377.821 36.6722C380.353 35.2079 382.405 31.294 382.405 27.9138V11.834C382.405 8.45384 380.353 6.90744 377.821 8.37173L332.852 34.1131C330.32 35.5774 328.268 39.4913 328.268 42.8715V58.9513C328.268 62.3315 330.32 63.8779 332.852 62.4136Z" fill="url(#paint17_linear_926_19504)" stroke="#64B5C8" stroke-linejoin="round"/>
<path d="M332.852 120.506L377.821 94.765C380.353 93.3007 382.405 89.3868 382.405 86.0066V69.9268C382.405 66.5466 380.353 65.0002 377.821 66.4645L332.852 92.2059C330.32 93.6702 328.268 97.5841 328.268 100.964V117.044C328.268 120.424 330.32 121.971 332.852 120.506Z" fill="url(#paint18_linear_926_19504)" stroke="#64B5C8" stroke-linejoin="round"/>
<path d="M332.852 178.613L377.821 152.871C380.353 151.407 382.405 147.493 382.405 144.113V128.033C382.405 124.653 380.353 123.107 377.821 124.571L332.852 150.312C330.32 151.777 328.268 155.691 328.268 159.071V175.151C328.268 178.531 330.32 180.077 332.852 178.613Z" fill="url(#paint19_linear_926_19504)" stroke="#64B5C8" stroke-linejoin="round"/>
<path d="M332.852 236.719L377.821 210.978C380.353 209.514 382.405 205.6 382.405 202.22V186.14C382.405 182.76 380.353 181.213 377.821 182.677L332.852 208.419C330.32 209.883 328.268 213.797 328.268 217.177V233.257C328.268 236.637 330.32 238.184 332.852 236.719Z" fill="url(#paint20_linear_926_19504)" stroke="#64B5C8" stroke-linejoin="round"/>
<path d="M246.238 240.179V119.655L201.502 88.2893C178.922 72.4558 156.15 59.3046 133.57 49.0682L88.8337 28.7871L70.7559 39.3519L90.7496 53.8443V148.188C90.7496 148.188 88.3 225.098 169.452 313.858C179.893 314.502 188.939 313.721 196.794 311.915L195.453 316.281L211.341 306.92C212.71 306.181 214.024 305.401 215.296 304.594L215.515 304.457C247.565 283.724 246.238 240.179 246.238 240.179Z" fill="url(#paint21_linear_926_19504)" stroke="#64B5C8" stroke-linejoin="round"/>
<path d="M167.44 66.5302C156.136 60.0025 144.819 54.1727 133.556 49.0682L88.82 28.7871L70.7559 39.3519L90.7496 53.8443V110.801L167.44 66.5302Z" fill="url(#paint22_linear_926_19504)" stroke="#64B5C8" stroke-linejoin="round"/>
<path d="M228.174 250.757V130.233L183.438 98.8674C160.858 83.0339 138.086 69.8827 115.506 59.6463L70.756 39.3516V159.875C70.756 159.875 68.3064 236.784 149.458 325.545C230.61 330.499 228.16 250.757 228.16 250.757H228.174Z" fill="url(#paint23_linear_926_19504)" stroke="#64B5C8" stroke-linejoin="round"/>
<path d="M196.986 298.257C187.229 307.727 173.338 312.462 155.657 312.27C83.4966 230.968 84.2356 160.956 84.2493 160.299V60.2754L109.936 71.9213C131.722 81.8018 153.851 94.5836 175.706 109.897L214.694 137.24V251.167C214.708 251.454 215.091 280.699 197 298.243L196.986 298.257Z" fill="url(#paint24_linear_926_19504)" stroke="#64B5C8" stroke-linejoin="round"/>
</g>
<defs>
<linearGradient id="paint0_linear_926_19504" x1="286.425" y1="-73.7314" x2="286.425" y2="272.007" gradientUnits="userSpaceOnUse">
<stop stop-color="#A8C9D1"/>
<stop offset="1" stop-color="white"/>
</linearGradient>
<linearGradient id="paint1_linear_926_19504" x1="246.247" y1="-73.7256" x2="246.247" y2="272.003" gradientUnits="userSpaceOnUse">
<stop stop-color="#A8C9D1"/>
<stop offset="1" stop-color="white"/>
</linearGradient>
<linearGradient id="paint2_linear_926_19504" x1="310.421" y1="8.08398" x2="310.421" y2="272.002" gradientUnits="userSpaceOnUse">
<stop stop-color="#A8C9D1"/>
<stop offset="1" stop-color="white"/>
</linearGradient>
<linearGradient id="paint3_linear_926_19504" x1="286.419" y1="-108.188" x2="286.419" y2="12.905" gradientUnits="userSpaceOnUse">
<stop stop-color="#A8C9D1"/>
<stop offset="1" stop-color="white"/>
</linearGradient>
<linearGradient id="paint4_linear_926_19504" x1="286.413" y1="-63.2832" x2="286.413" y2="12.8811" gradientUnits="userSpaceOnUse">
<stop stop-color="#A8C9D1"/>
<stop offset="1" stop-color="white"/>
</linearGradient>
<linearGradient id="paint5_linear_926_19504" x1="245.54" y1="-17.1152" x2="245.54" y2="62.9654" gradientUnits="userSpaceOnUse">
<stop stop-color="#A8C9D1"/>
<stop offset="1" stop-color="white"/>
</linearGradient>
<linearGradient id="paint6_linear_926_19504" x1="280.732" y1="38.6328" x2="280.732" y2="48.3138" gradientUnits="userSpaceOnUse">
<stop stop-color="#A8C9D1"/>
<stop offset="1" stop-color="white"/>
</linearGradient>
<linearGradient id="paint7_linear_926_19504" x1="266.937" y1="30.668" x2="266.937" y2="40.3489" gradientUnits="userSpaceOnUse">
<stop stop-color="#A8C9D1"/>
<stop offset="1" stop-color="white"/>
</linearGradient>
<linearGradient id="paint8_linear_926_19504" x1="245.54" y1="40.9775" x2="245.54" y2="121.058" gradientUnits="userSpaceOnUse">
<stop stop-color="#A8C9D1"/>
<stop offset="1" stop-color="white"/>
</linearGradient>
<linearGradient id="paint9_linear_926_19504" x1="280.732" y1="96.7393" x2="280.732" y2="106.42" gradientUnits="userSpaceOnUse">
<stop stop-color="#A8C9D1"/>
<stop offset="1" stop-color="white"/>
</linearGradient>
<linearGradient id="paint10_linear_926_19504" x1="266.937" y1="88.7744" x2="266.937" y2="98.4554" gradientUnits="userSpaceOnUse">
<stop stop-color="#A8C9D1"/>
<stop offset="1" stop-color="white"/>
</linearGradient>
<linearGradient id="paint11_linear_926_19504" x1="245.54" y1="99.083" x2="245.54" y2="179.164" gradientUnits="userSpaceOnUse">
<stop stop-color="#A8C9D1"/>
<stop offset="1" stop-color="white"/>
</linearGradient>
<linearGradient id="paint12_linear_926_19504" x1="280.732" y1="154.832" x2="280.732" y2="164.513" gradientUnits="userSpaceOnUse">
<stop stop-color="#A8C9D1"/>
<stop offset="1" stop-color="white"/>
</linearGradient>
<linearGradient id="paint13_linear_926_19504" x1="266.937" y1="146.867" x2="266.937" y2="156.548" gradientUnits="userSpaceOnUse">
<stop stop-color="#A8C9D1"/>
<stop offset="1" stop-color="white"/>
</linearGradient>
<linearGradient id="paint14_linear_926_19504" x1="245.54" y1="157.189" x2="245.54" y2="237.27" gradientUnits="userSpaceOnUse">
<stop stop-color="#A8C9D1"/>
<stop offset="1" stop-color="white"/>
</linearGradient>
<linearGradient id="paint15_linear_926_19504" x1="280.732" y1="212.938" x2="280.732" y2="222.619" gradientUnits="userSpaceOnUse">
<stop stop-color="#A8C9D1"/>
<stop offset="1" stop-color="white"/>
</linearGradient>
<linearGradient id="paint16_linear_926_19504" x1="266.937" y1="204.974" x2="266.937" y2="214.655" gradientUnits="userSpaceOnUse">
<stop stop-color="#A8C9D1"/>
<stop offset="1" stop-color="white"/>
</linearGradient>
<linearGradient id="paint17_linear_926_19504" x1="355.336" y1="7.81934" x2="355.336" y2="62.966" gradientUnits="userSpaceOnUse">
<stop stop-color="#A8C9D1"/>
<stop offset="1" stop-color="white"/>
</linearGradient>
<linearGradient id="paint18_linear_926_19504" x1="355.336" y1="65.9121" x2="355.336" y2="121.059" gradientUnits="userSpaceOnUse">
<stop stop-color="#A8C9D1"/>
<stop offset="1" stop-color="white"/>
</linearGradient>
<linearGradient id="paint19_linear_926_19504" x1="355.336" y1="124.019" x2="355.336" y2="179.165" gradientUnits="userSpaceOnUse">
<stop stop-color="#A8C9D1"/>
<stop offset="1" stop-color="white"/>
</linearGradient>
<linearGradient id="paint20_linear_926_19504" x1="355.336" y1="182.125" x2="355.336" y2="237.272" gradientUnits="userSpaceOnUse">
<stop stop-color="#A8C9D1"/>
<stop offset="1" stop-color="white"/>
</linearGradient>
<linearGradient id="paint21_linear_926_19504" x1="158.501" y1="28.7871" x2="158.501" y2="316.281" gradientUnits="userSpaceOnUse">
<stop stop-color="#A8C9D1"/>
<stop offset="1" stop-color="white"/>
</linearGradient>
<linearGradient id="paint22_linear_926_19504" x1="119.098" y1="28.7871" x2="119.098" y2="110.801" gradientUnits="userSpaceOnUse">
<stop stop-color="#A8C9D1"/>
<stop offset="1" stop-color="white"/>
</linearGradient>
<linearGradient id="paint23_linear_926_19504" x1="149.461" y1="39.3516" x2="149.461" y2="325.767" gradientUnits="userSpaceOnUse">
<stop stop-color="#A8C9D1"/>
<stop offset="1" stop-color="white"/>
</linearGradient>
<linearGradient id="paint24_linear_926_19504" x1="149.472" y1="60.2754" x2="149.472" y2="312.276" gradientUnits="userSpaceOnUse">
<stop stop-color="#A8C9D1"/>
<stop offset="1" stop-color="white"/>
</linearGradient>
<clipPath id="clip0_926_19504">
<rect width="462" height="291" rx="8" fill="white"/>
</clipPath>
</defs>
</svg>
