<svg width="499" height="120" viewBox="0 0 499 120" fill="none" xmlns="http://www.w3.org/2000/svg">
<g clip-path="url(#clip0_925_8426)">
<rect width="499" height="120" rx="8" fill="#F6F7F8"/>
<path d="M122.262 10.2583L140.395 3.00781L158.539 10.2583L140.395 17.521L122.262 10.2583Z" fill="url(#paint0_linear_925_8426)" stroke="#64B5C8"/>
<path d="M122.262 10.2583L140.395 3.00781L158.539 10.2583L140.395 17.521L122.262 10.2583Z" fill="url(#paint1_linear_925_8426)" stroke="#64B5C8"/>
<path d="M122.262 10.2588V35.6538V61.0489V86.444L140.395 93.6944V68.2993V42.9166V17.5216L122.262 10.2588Z" fill="url(#paint2_linear_925_8426)" stroke="#64B5C8"/>
<path d="M140.395 17.5216V93.6944L158.539 86.444V10.2588L140.395 17.5216Z" fill="url(#paint3_linear_925_8426)" stroke="#64B5C8"/>
<path d="M30.0942 110.541L48.2389 103.278L66.3711 110.541L48.2389 117.792L30.0942 110.541Z" fill="url(#paint4_linear_925_8426)" stroke="#64B5C8"/>
<path d="M30.0942 110.541L48.2389 103.278L66.3711 110.541L48.2389 117.792L30.0942 110.541Z" fill="url(#paint5_linear_925_8426)" stroke="#64B5C8"/>
<path d="M30.0942 110.541V135.924V161.319V186.714L48.2389 193.977V168.582V143.187V117.791L30.0942 110.541Z" fill="url(#paint6_linear_925_8426)" stroke="#64B5C8"/>
<path d="M48.2388 117.791V193.977L66.371 186.714V110.541L48.2388 117.791Z" fill="url(#paint7_linear_925_8426)" stroke="#64B5C8"/>
<path d="M143.581 122.152L161.714 114.89L179.858 122.152L161.714 129.403L143.581 122.152Z" fill="url(#paint8_linear_925_8426)" stroke="#64B5C8"/>
<path d="M143.581 122.152L161.714 114.89L179.858 122.152L161.714 129.403L143.581 122.152Z" fill="url(#paint9_linear_925_8426)" stroke="#64B5C8"/>
<path d="M68.9898 -15.5947L50.8452 -8.34429L87.1221 6.16893L105.267 -1.09384L68.9898 -15.5947Z" fill="url(#paint10_linear_925_8426)" stroke="#64B5C8"/>
<path d="M87.1223 6.17V82.3552L105.267 75.0924V-1.09277L87.1223 6.17Z" fill="url(#paint11_linear_925_8426)" stroke="#64B5C8"/>
<path d="M50.8452 -8.34375V17.0513L68.9898 24.3018V75.0919L87.1221 82.3547V6.16948L50.8452 -8.34375Z" fill="url(#paint12_linear_925_8426)" stroke="#64B5C8"/>
<path d="M193.025 72.3877L174.893 79.6381L211.17 94.1514L229.302 86.9009L193.025 72.3877Z" fill="url(#paint13_linear_925_8426)" stroke="#64B5C8"/>
<path d="M211.17 94.1508V170.336L229.302 163.086V86.9004L211.17 94.1508Z" fill="url(#paint14_linear_925_8426)" stroke="#64B5C8"/>
<path d="M174.893 79.6377V105.033L193.025 112.296V163.086L211.17 170.336V94.1509L174.893 79.6377Z" fill="url(#paint15_linear_925_8426)" stroke="#64B5C8"/>
<path d="M-48.2031 38.5195V63.9146L24.3507 92.941V67.546L-48.2031 38.5195Z" fill="url(#paint16_linear_925_8426)" stroke="#64B5C8"/>
<path d="M-30.0585 31.2686L-48.2031 38.519L24.3507 67.5454L42.4953 60.295L-30.0585 31.2686Z" fill="url(#paint17_linear_925_8426)" stroke="#64B5C8"/>
<path d="M24.3506 67.5454V92.9404L42.4952 85.69V60.2949L24.3506 67.5454Z" fill="url(#paint18_linear_925_8426)" stroke="#64B5C8"/>
<path d="M78.9575 97.7827L97.0898 90.5322L115.234 97.7827L97.0898 105.045L78.9575 97.7827Z" fill="url(#paint19_linear_925_8426)" stroke="#64B5C8"/>
<path d="M97.0898 130.441V105.046L78.9575 97.7832V123.178V148.573L97.0898 155.836L115.234 163.087V137.691L97.0898 130.441Z" fill="url(#paint20_linear_925_8426)" stroke="#64B5C8"/>
<path d="M97.0898 105.046V130.441L115.234 123.178V97.7832L97.0898 105.046Z" fill="url(#paint21_linear_925_8426)" stroke="#64B5C8"/>
<path d="M-2.37842 -1.14312L15.7662 -8.39355L33.8985 -1.14312L15.7662 6.11967L-2.37842 -1.14312Z" fill="url(#paint22_linear_925_8426)" stroke="#64B5C8"/>
<path d="M15.7661 6.12022V31.5153L33.8984 24.2525V-1.14258L15.7661 6.12022Z" fill="url(#paint23_linear_925_8426)" stroke="#64B5C8"/>
<path d="M-2.37823 -1.1426V-26.5253L-20.5105 -33.7881V-8.39303V17.002L-2.37823 24.2525L15.7664 31.5153V6.1202L-2.37823 -1.1426Z" fill="url(#paint24_linear_925_8426)" stroke="#64B5C8"/>
<path d="M-25.7229 125.969L-7.57828 118.706L10.554 125.969L-7.57828 133.219L-25.7229 125.969Z" fill="url(#paint25_linear_925_8426)" stroke="#64B5C8"/>
<path d="M194.717 7.25629L212.85 0.00585938L230.994 7.25629L212.85 14.5191L194.717 7.25629Z" fill="url(#paint26_linear_925_8426)" stroke="#64B5C8"/>
<path d="M212.849 14.5187V39.9014V65.2964L230.994 58.046V32.6509V7.25586L212.849 14.5187Z" fill="url(#paint27_linear_925_8426)" stroke="#64B5C8"/>
<path d="M194.717 7.25692V-18.1381L176.573 -25.3886L158.44 -32.6514V-7.25631L176.573 0.00648668V25.4015L194.717 32.652V58.047L212.85 65.2975V39.9024V14.5197L194.717 7.25692Z" fill="url(#paint28_linear_925_8426)" stroke="#64B5C8"/>
<path d="M194.717 -18.1382V7.25682L212.85 0.00638614V-25.3887L194.717 -18.1382Z" fill="url(#paint29_linear_925_8426)" stroke="#64B5C8"/>
<path d="M348.447 37.4936L366.591 30.2432L384.723 37.4936L366.591 44.7564L348.447 37.4936Z" fill="url(#paint30_linear_925_8426)" stroke="#64B5C8"/>
<path d="M348.447 37.4936L366.591 30.2432L384.723 37.4936L366.591 44.7564L348.447 37.4936Z" fill="url(#paint31_linear_925_8426)" stroke="#64B5C8"/>
<path d="M348.447 37.4941V62.8892V88.2843V113.679L366.591 120.93V95.5347V70.152V44.7569L348.447 37.4941Z" fill="url(#paint32_linear_925_8426)" stroke="#64B5C8"/>
<path d="M366.591 44.7569V120.93L384.723 113.679V37.4941L366.591 44.7569Z" fill="url(#paint33_linear_925_8426)" stroke="#64B5C8"/>
<path d="M406.747 99.7706L424.879 92.5078L443.023 99.7706L424.879 107.021L406.747 99.7706Z" fill="url(#paint34_linear_925_8426)" stroke="#64B5C8"/>
<path d="M406.747 99.7706L424.879 92.5078L443.023 99.7706L424.879 107.021L406.747 99.7706Z" fill="url(#paint35_linear_925_8426)" stroke="#64B5C8"/>
<path d="M406.747 99.7705V125.153L424.879 132.416V107.021L406.747 99.7705Z" fill="url(#paint36_linear_925_8426)" stroke="#64B5C8"/>
<path d="M424.879 107.021V132.416L443.024 125.153V99.7705L424.879 107.021Z" fill="url(#paint37_linear_925_8426)" stroke="#64B5C8"/>
<path d="M330.821 -7.34267L348.953 -14.6055L367.098 -7.34267L348.953 -0.0922408L330.821 -7.34267Z" fill="url(#paint38_linear_925_8426)" stroke="#64B5C8"/>
<path d="M330.821 -7.34267L348.953 -14.6055L367.098 -7.34267L348.953 -0.0922408L330.821 -7.34267Z" fill="url(#paint39_linear_925_8426)" stroke="#64B5C8"/>
<path d="M330.821 -7.34277V18.0399L348.953 25.3027V-0.0923413L330.821 -7.34277Z" fill="url(#paint40_linear_925_8426)" stroke="#64B5C8"/>
<path d="M348.953 -0.0923413V25.3027L367.098 18.0399V-7.34277L348.953 -0.0923413Z" fill="url(#paint41_linear_925_8426)" stroke="#64B5C8"/>
<path d="M300.794 -32.3306V43.8546L318.939 36.6041V-39.5811L300.794 -32.3306Z" fill="url(#paint42_linear_925_8426)" stroke="#64B5C8"/>
<path d="M264.517 -46.8438V-21.4487L282.661 -14.1859V36.6042L300.794 43.8547V-32.3305L264.517 -46.8438Z" fill="url(#paint43_linear_925_8426)" stroke="#64B5C8"/>
<path d="M488.786 54.6377L470.642 61.9005L543.195 90.9146L561.34 83.6642L488.786 54.6377Z" fill="url(#paint44_linear_925_8426)" stroke="#64B5C8"/>
<path d="M470.642 61.9004V87.2831L543.195 116.31V90.9145L470.642 61.9004Z" fill="url(#paint45_linear_925_8426)" stroke="#64B5C8"/>
<path d="M259.477 41.4209L241.345 48.6837L313.899 77.6978L332.031 70.4474L259.477 41.4209Z" fill="url(#paint46_linear_925_8426)" stroke="#64B5C8"/>
<path d="M241.345 48.6836V74.0787L313.899 103.093V77.6977L241.345 48.6836Z" fill="url(#paint47_linear_925_8426)" stroke="#64B5C8"/>
<path d="M313.899 77.6977V103.093L332.031 95.8423V70.4473L313.899 77.6977Z" fill="url(#paint48_linear_925_8426)" stroke="#64B5C8"/>
<path d="M275.93 113.197L294.062 105.946L312.207 113.197L294.062 120.46L275.93 113.197Z" fill="url(#paint49_linear_925_8426)" stroke="#64B5C8"/>
<path d="M294.062 145.843V120.46L275.93 113.197V138.592V163.987L294.062 171.238L312.207 178.501V153.106L294.062 145.843Z" fill="url(#paint50_linear_925_8426)" stroke="#64B5C8"/>
<path d="M294.062 120.46V145.843L312.207 138.592V113.197L294.062 120.46Z" fill="url(#paint51_linear_925_8426)" stroke="#64B5C8"/>
<path d="M484.896 12.1743L503.028 4.92383L521.172 12.1743L503.028 19.4371L484.896 12.1743Z" fill="url(#paint52_linear_925_8426)" stroke="#64B5C8"/>
<path d="M484.896 12.1728V-13.2222L466.751 -20.4727V4.9224V30.3175L484.896 37.5679L503.028 44.8183V19.4356L484.896 12.1728Z" fill="url(#paint53_linear_925_8426)" stroke="#64B5C8"/>
<path d="M484.896 -13.2222V12.1728L503.028 4.9224V-20.4727L484.896 -13.2222Z" fill="url(#paint54_linear_925_8426)" stroke="#64B5C8"/>
<path d="M414.824 14.9028L432.957 7.65234L451.101 14.9028L432.957 22.1532L414.824 14.9028Z" fill="url(#paint55_linear_925_8426)" stroke="#64B5C8"/>
<path d="M432.957 22.1528V47.5478V72.9429L451.101 65.6925V40.2974V14.9023L432.957 22.1528Z" fill="url(#paint56_linear_925_8426)" stroke="#64B5C8"/>
<path d="M414.824 14.9034V-10.4917L396.68 -17.7421L378.547 -25.0049V0.390175L396.68 7.65297V33.0357L414.824 40.2985V65.6935L432.957 72.944V47.5489V22.1538L414.824 14.9034Z" fill="url(#paint57_linear_925_8426)" stroke="#64B5C8"/>
<path d="M414.824 -10.4918V14.9033L432.957 7.65287V-17.7422L414.824 -10.4918Z" fill="url(#paint58_linear_925_8426)" stroke="#64B5C8"/>
<path d="M491.158 114.333L473.013 107.083L454.881 114.333L473.013 121.596L491.158 128.847L509.29 121.596L491.158 114.333Z" fill="url(#paint59_linear_925_8426)" stroke="#64B5C8"/>
<path d="M491.158 154.242V128.847L473.013 121.597L454.881 114.334V139.729L473.013 146.992V172.387L491.158 179.637V205.032L509.29 212.283V186.888V161.505L491.158 154.242Z" fill="url(#paint60_linear_925_8426)" stroke="#64B5C8"/>
</g>
<defs>
<linearGradient id="paint0_linear_925_8426" x1="140.401" y1="3.00781" x2="140.401" y2="17.521" gradientUnits="userSpaceOnUse">
<stop stop-color="#A8C9D1"/>
<stop offset="1" stop-color="white"/>
</linearGradient>
<linearGradient id="paint1_linear_925_8426" x1="140.401" y1="3.00781" x2="140.401" y2="17.521" gradientUnits="userSpaceOnUse">
<stop stop-color="#A8C9D1"/>
<stop offset="1" stop-color="white"/>
</linearGradient>
<linearGradient id="paint2_linear_925_8426" x1="131.329" y1="10.2588" x2="131.329" y2="93.6944" gradientUnits="userSpaceOnUse">
<stop stop-color="#A8C9D1"/>
<stop offset="1" stop-color="white"/>
</linearGradient>
<linearGradient id="paint3_linear_925_8426" x1="149.467" y1="10.2588" x2="149.467" y2="93.6944" gradientUnits="userSpaceOnUse">
<stop stop-color="#A8C9D1"/>
<stop offset="1" stop-color="white"/>
</linearGradient>
<linearGradient id="paint4_linear_925_8426" x1="48.2327" y1="103.278" x2="48.2327" y2="117.792" gradientUnits="userSpaceOnUse">
<stop stop-color="#A8C9D1"/>
<stop offset="1" stop-color="white"/>
</linearGradient>
<linearGradient id="paint5_linear_925_8426" x1="48.2327" y1="103.278" x2="48.2327" y2="117.792" gradientUnits="userSpaceOnUse">
<stop stop-color="#A8C9D1"/>
<stop offset="1" stop-color="white"/>
</linearGradient>
<linearGradient id="paint6_linear_925_8426" x1="39.1666" y1="110.541" x2="39.1666" y2="193.977" gradientUnits="userSpaceOnUse">
<stop stop-color="#A8C9D1"/>
<stop offset="1" stop-color="white"/>
</linearGradient>
<linearGradient id="paint7_linear_925_8426" x1="57.3049" y1="110.541" x2="57.3049" y2="193.977" gradientUnits="userSpaceOnUse">
<stop stop-color="#A8C9D1"/>
<stop offset="1" stop-color="white"/>
</linearGradient>
<linearGradient id="paint8_linear_925_8426" x1="161.72" y1="114.89" x2="161.72" y2="129.403" gradientUnits="userSpaceOnUse">
<stop stop-color="#A8C9D1"/>
<stop offset="1" stop-color="white"/>
</linearGradient>
<linearGradient id="paint9_linear_925_8426" x1="161.72" y1="114.89" x2="161.72" y2="129.403" gradientUnits="userSpaceOnUse">
<stop stop-color="#A8C9D1"/>
<stop offset="1" stop-color="white"/>
</linearGradient>
<linearGradient id="paint10_linear_925_8426" x1="78.056" y1="-15.5947" x2="78.056" y2="6.16893" gradientUnits="userSpaceOnUse">
<stop stop-color="#A8C9D1"/>
<stop offset="1" stop-color="white"/>
</linearGradient>
<linearGradient id="paint11_linear_925_8426" x1="96.1946" y1="-1.09277" x2="96.1946" y2="82.3552" gradientUnits="userSpaceOnUse">
<stop stop-color="#A8C9D1"/>
<stop offset="1" stop-color="white"/>
</linearGradient>
<linearGradient id="paint12_linear_925_8426" x1="68.9837" y1="-8.34375" x2="68.9837" y2="82.3547" gradientUnits="userSpaceOnUse">
<stop stop-color="#A8C9D1"/>
<stop offset="1" stop-color="white"/>
</linearGradient>
<linearGradient id="paint13_linear_925_8426" x1="202.098" y1="72.3877" x2="202.098" y2="94.1514" gradientUnits="userSpaceOnUse">
<stop stop-color="#A8C9D1"/>
<stop offset="1" stop-color="white"/>
</linearGradient>
<linearGradient id="paint14_linear_925_8426" x1="220.236" y1="86.9004" x2="220.236" y2="170.336" gradientUnits="userSpaceOnUse">
<stop stop-color="#A8C9D1"/>
<stop offset="1" stop-color="white"/>
</linearGradient>
<linearGradient id="paint15_linear_925_8426" x1="193.032" y1="79.6377" x2="193.032" y2="170.336" gradientUnits="userSpaceOnUse">
<stop stop-color="#A8C9D1"/>
<stop offset="1" stop-color="white"/>
</linearGradient>
<linearGradient id="paint16_linear_925_8426" x1="-11.9262" y1="38.5195" x2="-11.9262" y2="92.941" gradientUnits="userSpaceOnUse">
<stop stop-color="#A8C9D1"/>
<stop offset="1" stop-color="white"/>
</linearGradient>
<linearGradient id="paint17_linear_925_8426" x1="-2.85392" y1="31.2686" x2="-2.85392" y2="67.5454" gradientUnits="userSpaceOnUse">
<stop stop-color="#A8C9D1"/>
<stop offset="1" stop-color="white"/>
</linearGradient>
<linearGradient id="paint18_linear_925_8426" x1="33.4229" y1="60.2949" x2="33.4229" y2="92.9404" gradientUnits="userSpaceOnUse">
<stop stop-color="#A8C9D1"/>
<stop offset="1" stop-color="white"/>
</linearGradient>
<linearGradient id="paint19_linear_925_8426" x1="97.096" y1="90.5322" x2="97.096" y2="105.045" gradientUnits="userSpaceOnUse">
<stop stop-color="#A8C9D1"/>
<stop offset="1" stop-color="white"/>
</linearGradient>
<linearGradient id="paint20_linear_925_8426" x1="97.096" y1="97.7832" x2="97.096" y2="163.087" gradientUnits="userSpaceOnUse">
<stop stop-color="#A8C9D1"/>
<stop offset="1" stop-color="white"/>
</linearGradient>
<linearGradient id="paint21_linear_925_8426" x1="106.162" y1="97.7832" x2="106.162" y2="130.441" gradientUnits="userSpaceOnUse">
<stop stop-color="#A8C9D1"/>
<stop offset="1" stop-color="white"/>
</linearGradient>
<linearGradient id="paint22_linear_925_8426" x1="15.76" y1="-8.39355" x2="15.76" y2="6.11967" gradientUnits="userSpaceOnUse">
<stop stop-color="#A8C9D1"/>
<stop offset="1" stop-color="white"/>
</linearGradient>
<linearGradient id="paint23_linear_925_8426" x1="24.8322" y1="-1.14258" x2="24.8322" y2="31.5153" gradientUnits="userSpaceOnUse">
<stop stop-color="#A8C9D1"/>
<stop offset="1" stop-color="white"/>
</linearGradient>
<linearGradient id="paint24_linear_925_8426" x1="-2.37205" y1="-33.7881" x2="-2.37205" y2="31.5153" gradientUnits="userSpaceOnUse">
<stop stop-color="#A8C9D1"/>
<stop offset="1" stop-color="white"/>
</linearGradient>
<linearGradient id="paint25_linear_925_8426" x1="-7.58445" y1="118.706" x2="-7.58445" y2="133.219" gradientUnits="userSpaceOnUse">
<stop stop-color="#A8C9D1"/>
<stop offset="1" stop-color="white"/>
</linearGradient>
<linearGradient id="paint26_linear_925_8426" x1="212.856" y1="0.00585937" x2="212.856" y2="14.5191" gradientUnits="userSpaceOnUse">
<stop stop-color="#A8C9D1"/>
<stop offset="1" stop-color="white"/>
</linearGradient>
<linearGradient id="paint27_linear_925_8426" x1="221.922" y1="7.25586" x2="221.922" y2="65.2964" gradientUnits="userSpaceOnUse">
<stop stop-color="#A8C9D1"/>
<stop offset="1" stop-color="white"/>
</linearGradient>
<linearGradient id="paint28_linear_925_8426" x1="185.645" y1="-32.6514" x2="185.645" y2="65.2975" gradientUnits="userSpaceOnUse">
<stop stop-color="#A8C9D1"/>
<stop offset="1" stop-color="white"/>
</linearGradient>
<linearGradient id="paint29_linear_925_8426" x1="203.783" y1="-25.3887" x2="203.783" y2="7.25682" gradientUnits="userSpaceOnUse">
<stop stop-color="#A8C9D1"/>
<stop offset="1" stop-color="white"/>
</linearGradient>
<linearGradient id="paint30_linear_925_8426" x1="366.585" y1="30.2432" x2="366.585" y2="44.7564" gradientUnits="userSpaceOnUse">
<stop stop-color="#A8C9D1"/>
<stop offset="1" stop-color="white"/>
</linearGradient>
<linearGradient id="paint31_linear_925_8426" x1="366.585" y1="30.2432" x2="366.585" y2="44.7564" gradientUnits="userSpaceOnUse">
<stop stop-color="#A8C9D1"/>
<stop offset="1" stop-color="white"/>
</linearGradient>
<linearGradient id="paint32_linear_925_8426" x1="357.519" y1="37.4941" x2="357.519" y2="120.93" gradientUnits="userSpaceOnUse">
<stop stop-color="#A8C9D1"/>
<stop offset="1" stop-color="white"/>
</linearGradient>
<linearGradient id="paint33_linear_925_8426" x1="375.657" y1="37.4941" x2="375.657" y2="120.93" gradientUnits="userSpaceOnUse">
<stop stop-color="#A8C9D1"/>
<stop offset="1" stop-color="white"/>
</linearGradient>
<linearGradient id="paint34_linear_925_8426" x1="424.885" y1="92.5078" x2="424.885" y2="107.021" gradientUnits="userSpaceOnUse">
<stop stop-color="#A8C9D1"/>
<stop offset="1" stop-color="white"/>
</linearGradient>
<linearGradient id="paint35_linear_925_8426" x1="424.885" y1="92.5078" x2="424.885" y2="107.021" gradientUnits="userSpaceOnUse">
<stop stop-color="#A8C9D1"/>
<stop offset="1" stop-color="white"/>
</linearGradient>
<linearGradient id="paint36_linear_925_8426" x1="415.813" y1="99.7705" x2="415.813" y2="132.416" gradientUnits="userSpaceOnUse">
<stop stop-color="#A8C9D1"/>
<stop offset="1" stop-color="white"/>
</linearGradient>
<linearGradient id="paint37_linear_925_8426" x1="433.951" y1="99.7705" x2="433.951" y2="132.416" gradientUnits="userSpaceOnUse">
<stop stop-color="#A8C9D1"/>
<stop offset="1" stop-color="white"/>
</linearGradient>
<linearGradient id="paint38_linear_925_8426" x1="348.959" y1="-14.6055" x2="348.959" y2="-0.0922403" gradientUnits="userSpaceOnUse">
<stop stop-color="#A8C9D1"/>
<stop offset="1" stop-color="white"/>
</linearGradient>
<linearGradient id="paint39_linear_925_8426" x1="348.959" y1="-14.6055" x2="348.959" y2="-0.0922403" gradientUnits="userSpaceOnUse">
<stop stop-color="#A8C9D1"/>
<stop offset="1" stop-color="white"/>
</linearGradient>
<linearGradient id="paint40_linear_925_8426" x1="339.887" y1="-7.34277" x2="339.887" y2="25.3027" gradientUnits="userSpaceOnUse">
<stop stop-color="#A8C9D1"/>
<stop offset="1" stop-color="white"/>
</linearGradient>
<linearGradient id="paint41_linear_925_8426" x1="358.025" y1="-7.34277" x2="358.025" y2="25.3027" gradientUnits="userSpaceOnUse">
<stop stop-color="#A8C9D1"/>
<stop offset="1" stop-color="white"/>
</linearGradient>
<linearGradient id="paint42_linear_925_8426" x1="309.866" y1="-39.5811" x2="309.866" y2="43.8546" gradientUnits="userSpaceOnUse">
<stop stop-color="#A8C9D1"/>
<stop offset="1" stop-color="white"/>
</linearGradient>
<linearGradient id="paint43_linear_925_8426" x1="282.655" y1="-46.8438" x2="282.655" y2="43.8547" gradientUnits="userSpaceOnUse">
<stop stop-color="#A8C9D1"/>
<stop offset="1" stop-color="white"/>
</linearGradient>
<linearGradient id="paint44_linear_925_8426" x1="515.991" y1="54.6377" x2="515.991" y2="90.9146" gradientUnits="userSpaceOnUse">
<stop stop-color="#A8C9D1"/>
<stop offset="1" stop-color="white"/>
</linearGradient>
<linearGradient id="paint45_linear_925_8426" x1="506.918" y1="61.9004" x2="506.918" y2="116.31" gradientUnits="userSpaceOnUse">
<stop stop-color="#A8C9D1"/>
<stop offset="1" stop-color="white"/>
</linearGradient>
<linearGradient id="paint46_linear_925_8426" x1="286.688" y1="41.4209" x2="286.688" y2="77.6978" gradientUnits="userSpaceOnUse">
<stop stop-color="#A8C9D1"/>
<stop offset="1" stop-color="white"/>
</linearGradient>
<linearGradient id="paint47_linear_925_8426" x1="277.622" y1="48.6836" x2="277.622" y2="103.093" gradientUnits="userSpaceOnUse">
<stop stop-color="#A8C9D1"/>
<stop offset="1" stop-color="white"/>
</linearGradient>
<linearGradient id="paint48_linear_925_8426" x1="322.965" y1="70.4473" x2="322.965" y2="103.093" gradientUnits="userSpaceOnUse">
<stop stop-color="#A8C9D1"/>
<stop offset="1" stop-color="white"/>
</linearGradient>
<linearGradient id="paint49_linear_925_8426" x1="294.068" y1="105.946" x2="294.068" y2="120.46" gradientUnits="userSpaceOnUse">
<stop stop-color="#A8C9D1"/>
<stop offset="1" stop-color="white"/>
</linearGradient>
<linearGradient id="paint50_linear_925_8426" x1="294.068" y1="113.197" x2="294.068" y2="178.501" gradientUnits="userSpaceOnUse">
<stop stop-color="#A8C9D1"/>
<stop offset="1" stop-color="white"/>
</linearGradient>
<linearGradient id="paint51_linear_925_8426" x1="303.134" y1="113.197" x2="303.134" y2="145.843" gradientUnits="userSpaceOnUse">
<stop stop-color="#A8C9D1"/>
<stop offset="1" stop-color="white"/>
</linearGradient>
<linearGradient id="paint52_linear_925_8426" x1="503.034" y1="4.92383" x2="503.034" y2="19.4371" gradientUnits="userSpaceOnUse">
<stop stop-color="#A8C9D1"/>
<stop offset="1" stop-color="white"/>
</linearGradient>
<linearGradient id="paint53_linear_925_8426" x1="484.889" y1="-20.4727" x2="484.889" y2="44.8183" gradientUnits="userSpaceOnUse">
<stop stop-color="#A8C9D1"/>
<stop offset="1" stop-color="white"/>
</linearGradient>
<linearGradient id="paint54_linear_925_8426" x1="493.962" y1="-20.4727" x2="493.962" y2="12.1728" gradientUnits="userSpaceOnUse">
<stop stop-color="#A8C9D1"/>
<stop offset="1" stop-color="white"/>
</linearGradient>
<linearGradient id="paint55_linear_925_8426" x1="432.963" y1="7.65234" x2="432.963" y2="22.1532" gradientUnits="userSpaceOnUse">
<stop stop-color="#A8C9D1"/>
<stop offset="1" stop-color="white"/>
</linearGradient>
<linearGradient id="paint56_linear_925_8426" x1="442.029" y1="14.9023" x2="442.029" y2="72.9429" gradientUnits="userSpaceOnUse">
<stop stop-color="#A8C9D1"/>
<stop offset="1" stop-color="white"/>
</linearGradient>
<linearGradient id="paint57_linear_925_8426" x1="405.752" y1="-25.0049" x2="405.752" y2="72.944" gradientUnits="userSpaceOnUse">
<stop stop-color="#A8C9D1"/>
<stop offset="1" stop-color="white"/>
</linearGradient>
<linearGradient id="paint58_linear_925_8426" x1="423.891" y1="-17.7422" x2="423.891" y2="14.9033" gradientUnits="userSpaceOnUse">
<stop stop-color="#A8C9D1"/>
<stop offset="1" stop-color="white"/>
</linearGradient>
<linearGradient id="paint59_linear_925_8426" x1="482.086" y1="107.083" x2="482.086" y2="128.847" gradientUnits="userSpaceOnUse">
<stop stop-color="#A8C9D1"/>
<stop offset="1" stop-color="white"/>
</linearGradient>
<linearGradient id="paint60_linear_925_8426" x1="482.085" y1="114.334" x2="482.085" y2="212.283" gradientUnits="userSpaceOnUse">
<stop stop-color="#A8C9D1"/>
<stop offset="1" stop-color="white"/>
</linearGradient>
<clipPath id="clip0_925_8426">
<rect width="499" height="120" rx="8" fill="white"/>
</clipPath>
</defs>
</svg>
