<svg width="462" height="291" viewBox="0 0 462 291" fill="none" xmlns="http://www.w3.org/2000/svg">
<g clip-path="url(#clip0_932_25642)">
<rect width="462" height="291" rx="8" fill="#F6F7F8"/>
<path d="M84.8961 246.473V246.068H84.8691C84.8691 246.203 84.8961 246.338 84.8961 246.473Z" fill="url(#paint0_linear_932_25642)" stroke="#64B5C8" stroke-linejoin="round"/>
<path d="M32.4706 163.689C32.201 164.444 31.1495 165.091 29.5858 165.186C24.3015 165.469 19.152 166.776 15.1078 169.109C9.2304 172.492 7.12747 177.237 8.73164 181.618C7.96326 183.681 8.03065 185.838 8.94732 187.9C9.95835 185.609 12.0074 183.438 15.1078 181.645C19.152 179.313 24.288 178.006 29.5858 177.723C31.6887 177.615 32.8885 176.482 32.4706 175.444V163.703V163.689Z" fill="url(#paint1_linear_932_25642)" stroke="#64B5C8" stroke-linejoin="round"/>
<path d="M78.9645 249.668C70.1618 255.155 55.2795 255.249 46.1533 249.978C42.0687 247.619 39.8579 244.599 39.494 241.526C39.2513 239.49 34.8432 238.601 32.3629 240.043L-6.16406 262.286V274.822L32.3629 252.58C34.8567 251.137 39.2648 252.027 39.494 254.063C39.8579 257.136 42.0822 260.156 46.1533 262.515C55.2795 267.786 70.1618 267.691 78.9645 262.205C82.7795 259.819 84.7341 256.759 84.8689 253.658H84.8959V253.294V240.758C84.9094 243.979 82.9412 247.188 78.9645 249.655V249.668Z" fill="url(#paint2_linear_932_25642)" stroke="#64B5C8" stroke-linejoin="round"/>
<path d="M84.8961 240.73V240.325H84.8691C84.8691 240.46 84.8961 240.595 84.8961 240.73Z" fill="url(#paint3_linear_932_25642)" stroke="#64B5C8" stroke-linejoin="round"/>
<path d="M60.9965 223.515C58.5027 224.957 60.0799 227.464 63.6117 227.599C63.6791 227.599 63.7465 227.599 63.8139 227.613L60.9965 229.244C58.5027 230.686 60.0799 233.193 63.6117 233.328C64.2318 233.355 64.8654 233.396 65.4855 233.45L99.5639 213.768V201.231L60.9965 223.501V223.515Z" fill="url(#paint4_linear_932_25642)" stroke="#64B5C8" stroke-linejoin="round"/>
<path d="M15.1081 169.108C5.4427 174.689 5.91452 183.91 16.4831 189.208C25.1106 193.535 39.238 193.521 47.7576 189.181C52.4623 186.781 55.0909 183.573 55.6436 180.257C55.9133 178.652 59.1755 177.924 61.1571 179.07L99.5762 201.246L61.0088 223.515C58.515 224.957 60.0922 227.465 63.624 227.6C69.2184 227.815 74.7049 229.217 78.8569 231.806C86.8642 236.78 86.9181 244.706 78.9782 249.667C70.1755 255.154 55.2931 255.248 46.1669 249.977C42.0824 247.618 39.8716 244.598 39.5076 241.525C39.265 239.489 34.8569 238.6 32.3765 240.042L-6.15042 262.285L-102.629 206.584C-107.038 204.036 -107.038 197.673 -102.629 195.139L-6.81095 139.815L31.6216 162.004C33.5763 163.136 32.3495 165.024 29.5995 165.172C24.3152 165.455 19.1657 166.763 15.1216 169.095L15.1081 169.108Z" fill="url(#paint5_linear_932_25642)" stroke="#64B5C8" stroke-linejoin="round"/>
<path d="M29.5853 157.462C24.301 157.745 19.1515 159.053 15.1074 161.385C8.98731 164.917 6.95177 169.905 8.94687 174.448C9.9579 172.156 12.0069 169.986 15.1074 168.193C19.1515 165.861 24.301 164.553 29.5853 164.27C31.6883 164.162 32.888 163.03 32.4701 161.992V155.979C32.2005 156.734 31.1491 157.381 29.5853 157.462Z" fill="url(#paint6_linear_932_25642)" stroke="#64B5C8" stroke-linejoin="round"/>
<path d="M-6.16602 261.381L32.3609 239.139C34.8548 237.696 39.2629 238.586 39.492 240.621C39.856 243.695 42.0668 246.715 46.1513 249.074C55.2776 254.344 70.1599 254.25 78.9626 248.764C82.7775 246.378 84.7322 243.318 84.867 240.217H84.8939V239.853V233.045C84.9074 236.267 82.9393 239.476 78.9626 241.943C70.1599 247.429 55.2776 247.523 46.1513 242.253C42.0668 239.893 39.856 236.874 39.492 233.8C39.2494 231.765 34.8413 230.875 32.3609 232.318L-6.16602 254.56V261.368V261.381Z" fill="url(#paint7_linear_932_25642)" stroke="#64B5C8" stroke-linejoin="round"/>
<path d="M84.8961 233.019V232.614H84.8691C84.8691 232.749 84.8961 232.884 84.8961 233.019Z" fill="url(#paint8_linear_932_25642)" stroke="#64B5C8" stroke-linejoin="round"/>
<path d="M63.6098 219.889C64.2299 219.916 64.8634 219.957 65.4835 220.01L99.562 200.329V193.521L60.9946 215.791C58.5007 217.233 60.0779 219.741 63.6098 219.876V219.889Z" fill="url(#paint9_linear_932_25642)" stroke="#64B5C8" stroke-linejoin="round"/>
<path d="M84.8961 229.273V228.868H84.8691C84.8691 229.003 84.8961 229.138 84.8961 229.273Z" fill="url(#paint10_linear_932_25642)" stroke="#64B5C8" stroke-linejoin="round"/>
<path d="M32.4706 146.502C32.201 147.257 31.1495 147.904 29.5858 147.998C24.3015 148.281 19.152 149.589 15.1078 151.921C9.2304 155.305 7.12747 160.05 8.73164 164.431C7.96326 166.493 8.03065 168.65 8.94732 170.713C9.95835 168.421 12.0074 166.251 15.1078 164.458C19.152 162.126 24.288 160.818 29.5858 160.535C31.6887 160.427 32.8885 159.295 32.4706 158.257V146.515V146.502Z" fill="url(#paint11_linear_932_25642)" stroke="#64B5C8" stroke-linejoin="round"/>
<path d="M78.9645 232.466C70.1618 237.952 55.2795 238.047 46.1533 232.776C42.0687 230.417 39.8579 227.397 39.494 224.324C39.2513 222.288 34.8432 221.399 32.3629 222.841L-6.16406 245.084V257.62L32.3629 235.378C34.8567 233.935 39.2648 234.825 39.494 236.861C39.8579 239.934 42.0822 242.954 46.1533 245.313C55.2795 250.584 70.1618 250.489 78.9645 245.003C82.7795 242.617 84.7341 239.557 84.8689 236.456H84.8959V236.092V223.555C84.9094 226.777 82.9412 229.986 78.9645 232.452V232.466Z" fill="url(#paint12_linear_932_25642)" stroke="#64B5C8" stroke-linejoin="round"/>
<path d="M84.8961 223.542V223.138H84.8691C84.8691 223.272 84.8961 223.407 84.8961 223.542Z" fill="url(#paint13_linear_932_25642)" stroke="#64B5C8" stroke-linejoin="round"/>
<path d="M60.9965 206.327C58.5027 207.769 60.0799 210.277 63.6117 210.412C63.6791 210.412 63.7465 210.412 63.8139 210.425L60.9965 212.056C58.5027 213.499 60.0799 216.006 63.6117 216.141C64.2318 216.168 64.8654 216.208 65.4855 216.262L99.5639 196.581V184.044L60.9965 206.314V206.327Z" fill="url(#paint14_linear_932_25642)" stroke="#64B5C8" stroke-linejoin="round"/>
<path d="M15.1081 151.907C5.4427 157.488 5.91452 166.709 16.4831 172.007C25.1106 176.334 39.238 176.32 47.7576 171.98C52.4623 169.58 55.0909 166.372 55.6436 163.056C55.9133 161.451 59.1755 160.723 61.1571 161.869L99.5762 184.045L61.0088 206.314C58.515 207.757 60.0922 210.264 63.624 210.399C69.2184 210.614 74.7049 212.016 78.8569 214.605C86.8642 219.579 86.9181 227.505 78.9782 232.466C70.1755 237.953 55.2931 238.047 46.1669 232.776C42.0824 230.417 39.8716 227.397 39.5076 224.324C39.265 222.288 34.8569 221.399 32.3765 222.841L-6.15042 245.084L-102.629 189.396C-107.038 186.848 -107.038 180.486 -102.629 177.951L-6.81095 122.628L31.6216 144.817C33.5763 145.949 32.3495 147.836 29.5995 147.985C24.3152 148.268 19.1657 149.575 15.1216 151.907H15.1081Z" fill="url(#paint15_linear_932_25642)" stroke="#64B5C8" stroke-linejoin="round"/>
<path d="M15.1067 150.559C9.90331 153.565 7.66557 157.623 8.33959 161.559C8.85184 158.526 11.0896 155.574 15.1067 153.255C19.1508 150.923 24.2869 149.615 29.5847 149.332C32.3347 149.184 33.5614 147.297 31.6067 146.164L31.5393 146.124C31.0405 146.394 30.3935 146.596 29.5981 146.636C24.3138 146.919 19.1643 148.227 15.1202 150.559H15.1067Z" fill="url(#paint16_linear_932_25642)" stroke="#64B5C8" stroke-linejoin="round"/>
<path d="M116.455 275.065C122.184 275.402 127.765 276.939 131.957 279.675C134.478 281.32 136.15 283.315 137.012 285.432C137.862 283.383 137.929 281.212 137.215 279.15C138.657 274.971 136.905 270.374 131.957 267.152C127.765 264.416 122.198 262.879 116.455 262.542C114.864 262.447 113.786 261.773 113.516 261.019V272.773C113.098 273.811 114.338 274.957 116.455 275.079V275.065Z" fill="url(#paint17_linear_932_25642)" stroke="#64B5C8" stroke-linejoin="round"/>
<path d="M220.171 282.088L224.633 284.663C229.27 284.272 233.719 283.045 237.291 280.983C241.956 278.287 244.139 274.701 243.87 271.169V259.684C243.668 262.878 241.497 266.019 237.291 268.446C233.234 270.791 228.017 272.045 222.706 272.234C219.187 272.355 217.677 274.903 220.185 276.345L222.962 277.95C222.881 277.95 222.786 277.95 222.706 277.963C219.187 278.084 217.677 280.632 220.185 282.075L220.171 282.088Z" fill="url(#paint18_linear_932_25642)" stroke="#64B5C8" stroke-linejoin="round"/>
<path d="M205.612 249.452C201.163 251.838 198.764 254.993 198.427 258.228C198.211 260.264 193.87 261.167 191.363 259.711L191.309 259.684L152.553 237.307L114.377 259.347C112.408 260.479 113.703 262.367 116.479 262.528C122.209 262.865 127.79 264.402 131.982 267.139C139.558 272.073 139.679 280.242 132.238 285.189C123.125 291.255 107.151 291.471 97.4317 285.863C93.3606 283.517 91.069 280.538 90.5432 277.478C90.2736 275.887 86.9844 275.173 85.0298 276.292L46.8398 298.346L153.227 359.776L191.417 337.722C193.358 336.603 192.118 334.702 189.368 334.541C184.07 334.231 178.907 332.909 174.85 330.564C165.13 324.956 165.494 315.722 176.009 310.465C184.582 306.164 198.723 306.245 207.283 310.613C212.015 313.039 214.684 316.248 215.264 319.564C215.547 321.168 218.823 321.909 220.791 320.777L258.967 298.737L220.211 276.359C217.704 274.917 219.213 272.369 222.732 272.248C228.057 272.059 233.273 270.792 237.318 268.46C246.39 263.229 246.12 254.629 236.576 249.52C227.949 244.896 214.226 244.883 205.652 249.479L205.612 249.452Z" fill="url(#paint19_linear_932_25642)" stroke="#64B5C8" stroke-linejoin="round"/>
<path d="M116.453 261.625C122.182 261.962 127.763 263.499 131.955 266.235C134.476 267.88 136.148 269.875 137.011 271.991C138.803 267.664 137.118 262.798 131.955 259.441C127.763 256.705 122.196 255.168 116.453 254.831C114.862 254.737 113.784 254.063 113.514 253.308V259.333C113.096 260.371 114.337 261.517 116.453 261.638V261.625Z" fill="url(#paint20_linear_932_25642)" stroke="#64B5C8" stroke-linejoin="round"/>
<path d="M220.171 268.635L224.633 271.21C229.27 270.819 233.719 269.592 237.291 267.53C241.956 264.834 244.139 261.248 243.87 257.716V251.96C243.668 255.155 241.497 258.296 237.291 260.722C233.234 263.068 228.017 264.321 222.706 264.51C219.187 264.632 217.677 267.179 220.185 268.622L220.171 268.635Z" fill="url(#paint21_linear_932_25642)" stroke="#64B5C8" stroke-linejoin="round"/>
<path d="M153.202 352.05L46.8145 290.634V297.428L153.202 358.858V352.05Z" fill="url(#paint22_linear_932_25642)" stroke="#64B5C8" stroke-linejoin="round"/>
<path d="M220.75 313.052C218.796 314.184 215.507 313.443 215.223 311.839C214.63 308.523 211.975 305.314 207.243 302.888C198.683 298.52 184.556 298.453 175.969 302.74C168.878 306.285 166.425 311.637 168.541 316.476C169.687 313.888 172.154 311.461 175.969 309.547C184.542 305.247 198.683 305.314 207.243 309.696C211.975 312.122 214.644 315.33 215.223 318.646C215.507 320.251 218.782 320.992 220.75 319.86L258.927 297.819V291.012L220.75 313.052Z" fill="url(#paint23_linear_932_25642)" stroke="#64B5C8" stroke-linejoin="round"/>
<path d="M153.202 342.574L46.8145 281.144V293.68L153.202 355.11V342.574Z" fill="url(#paint24_linear_932_25642)" stroke="#64B5C8" stroke-linejoin="round"/>
<path d="M220.752 303.576C218.797 304.708 215.508 303.967 215.225 302.362C214.632 299.046 211.976 295.838 207.245 293.411C198.685 289.044 184.557 288.976 175.97 293.263C169.149 296.674 166.628 301.756 168.34 306.447C167.572 308.509 167.639 310.666 168.543 312.729C169.688 310.141 172.155 307.714 175.97 305.8C184.544 301.5 198.685 301.567 207.245 305.948C211.976 308.375 214.645 311.583 215.225 314.899C215.508 316.503 218.784 317.245 220.752 316.112L258.928 294.072V281.535L220.752 303.576Z" fill="url(#paint25_linear_932_25642)" stroke="#64B5C8" stroke-linejoin="round"/>
<path d="M116.455 257.878C122.184 258.215 127.765 259.751 131.957 262.488C134.478 264.132 136.15 266.128 137.012 268.244C137.862 266.195 137.929 264.025 137.215 261.962C138.657 257.783 136.905 253.186 131.957 249.965C127.765 247.228 122.198 245.691 116.455 245.354C114.864 245.26 113.786 244.586 113.516 243.831V255.586C113.098 256.624 114.338 257.77 116.455 257.891V257.878Z" fill="url(#paint26_linear_932_25642)" stroke="#64B5C8" stroke-linejoin="round"/>
<path d="M220.171 264.887L224.633 267.462C229.27 267.071 233.719 265.844 237.291 263.781C241.956 261.085 244.139 257.5 243.87 253.968V242.482C243.668 245.677 241.497 248.818 237.291 251.245C233.234 253.59 228.017 254.844 222.706 255.033C219.187 255.154 217.677 257.702 220.185 259.144L222.962 260.748C222.881 260.748 222.786 260.748 222.706 260.762C219.187 260.883 217.677 263.431 220.185 264.873L220.171 264.887Z" fill="url(#paint27_linear_932_25642)" stroke="#64B5C8" stroke-linejoin="round"/>
<path d="M205.612 232.265C201.163 234.651 198.764 237.805 198.427 241.041C198.211 243.076 193.87 243.979 191.363 242.524L191.309 242.497L152.553 220.119L114.377 242.16C112.408 243.292 113.703 245.179 116.479 245.341C122.209 245.678 127.79 247.215 131.982 249.951C139.558 254.885 139.679 263.054 132.238 268.001C123.125 274.068 107.151 274.283 97.4317 268.675C93.3606 266.33 91.069 263.351 90.5432 260.291C90.2736 258.7 86.9844 257.986 85.0298 259.104L46.8398 281.158L153.227 342.588L191.417 320.534C193.358 319.416 192.118 317.515 189.368 317.353C184.07 317.043 178.907 315.722 174.85 313.376C165.13 307.769 165.494 298.535 176.009 293.277C184.582 288.977 198.723 289.058 207.283 293.425C212.015 295.852 214.684 299.06 215.264 302.376C215.547 303.981 218.823 304.722 220.791 303.59L258.967 281.549L220.211 259.172C217.704 257.729 219.213 255.182 222.732 255.06C228.057 254.872 233.273 253.604 237.318 251.272C246.39 246.042 246.12 237.441 236.576 232.332C227.949 227.709 214.226 227.695 205.652 232.292L205.612 232.265Z" fill="url(#paint28_linear_932_25642)" stroke="#64B5C8" stroke-linejoin="round"/>
<path d="M153.913 111.629C148.588 111.427 143.358 110.133 139.286 107.787C135.391 105.536 133.193 102.678 132.695 99.7393V103.932C132.034 107.733 134.231 111.669 139.286 114.595C142.886 116.671 147.375 117.911 152.039 118.315L156.474 115.754C158.968 114.312 157.431 111.777 153.913 111.629Z" fill="url(#paint29_linear_932_25642)" stroke="#64B5C8" stroke-linejoin="round"/>
<path d="M202.767 34.4395C205.26 36.0437 206.918 38.0792 207.768 40.2496C208.577 38.2006 208.63 36.0302 207.956 33.9677C209.345 29.7214 207.606 25.0302 202.767 21.9028C193.559 15.9579 177.774 15.7423 168.189 21.2692C164.145 23.6013 161.881 26.567 161.382 29.627C161.126 31.2177 157.85 31.9187 155.882 30.7864L117.449 8.59766V21.1344L155.882 43.3231C157.836 44.4555 161.126 43.741 161.382 42.1638C161.881 39.1038 164.145 36.1381 168.189 33.806C177.76 28.279 193.546 28.4947 202.767 34.4395Z" fill="url(#paint30_linear_932_25642)" stroke="#64B5C8" stroke-linejoin="round"/>
<path d="M307.737 58.1258C299.15 62.7092 285.427 62.6822 276.813 58.0584C272.338 55.6589 269.911 52.491 269.534 49.2557C269.291 47.2202 264.951 46.3035 262.457 47.7459L223.889 70.0155L185.47 47.8403C185.12 47.6381 184.904 47.3955 184.742 47.1663V58.3954C184.311 59.029 184.473 59.7974 185.47 60.3771L223.889 82.5523L262.457 60.2827C264.951 58.8403 269.305 59.757 269.534 61.7925C269.911 65.0143 272.338 68.1822 276.813 70.5952C285.441 75.219 299.164 75.2459 307.737 70.6626C312.361 68.1822 314.761 64.8795 314.963 61.5229H315.071V48.9996H314.963C314.747 52.3697 312.361 55.6589 307.737 58.1258Z" fill="url(#paint31_linear_932_25642)" stroke="#64B5C8" stroke-linejoin="round"/>
<path d="M329.562 9.00274L291.062 31.2319C288.568 32.6743 290.105 35.2086 293.624 35.3569C293.691 35.3569 293.758 35.3569 293.826 35.3569L291.049 36.961C288.555 38.4034 290.092 40.9378 293.61 41.086C294.23 41.113 294.864 41.1534 295.484 41.2074L329.562 21.526H329.535H329.643V8.98926H329.535L329.562 9.00274Z" fill="url(#paint32_linear_932_25642)" stroke="#64B5C8" stroke-linejoin="round"/>
<path d="M188.451 56.5885C193.344 56.1706 198.049 54.836 201.702 52.5578C205.962 49.9157 207.903 46.4108 207.593 42.9733H207.741V37.2441V30.4365L207.593 30.477C207.876 33.901 205.935 37.3789 201.702 40.0211C197.564 42.5958 192.104 43.9708 186.51 44.173C182.978 44.2944 181.428 46.8017 183.935 48.2576L186.766 49.8887C186.685 49.8887 186.591 49.8887 186.51 49.9022C182.978 50.0235 188.451 56.5885 188.451 56.5885Z" fill="url(#paint33_linear_932_25642)"/>
<path d="M207.607 37.2441C207.607 37.3385 207.607 37.4463 207.607 37.5407M188.451 56.5885C193.344 56.1706 198.049 54.836 201.702 52.5578C205.962 49.9157 207.903 46.4108 207.593 42.9733H207.741V37.2441V30.4365L207.593 30.477C207.876 33.901 205.935 37.3789 201.702 40.0211C197.564 42.5958 192.104 43.9708 186.51 44.173C182.978 44.2944 181.428 46.8017 183.935 48.2576L186.766 49.8887C186.685 49.8887 186.591 49.8887 186.51 49.9022C182.978 50.0235 188.451 56.5885 188.451 56.5885Z" stroke="#64B5C8" stroke-linejoin="round"/>
<path d="M184.581 92.7152C182.613 93.8476 179.337 93.1062 179.054 91.502C178.474 88.1858 175.805 84.9775 171.074 82.551C162.513 78.1834 148.386 78.116 139.799 82.4027C132.978 85.8133 130.457 90.8954 132.169 95.5865C131.401 97.6625 131.468 99.8059 132.385 101.868C133.531 99.2802 135.998 96.8402 139.799 94.9395C148.373 90.6392 162.513 90.7066 171.074 95.0878C175.805 97.5142 178.474 100.723 179.054 104.039C179.337 105.643 182.613 106.384 184.581 105.252L222.757 83.2116V70.6748L184.581 92.7152Z" fill="url(#paint34_linear_932_25642)" stroke="#64B5C8" stroke-linejoin="round"/>
<path d="M49.4409 92.7032L10.6309 70.2988V82.8221L44.9384 102.638C45.5855 102.584 46.2325 102.544 46.8796 102.517C50.4115 102.396 51.9617 99.8883 49.4543 98.4324L46.6235 96.8013C46.7044 96.8013 46.7987 96.8013 46.8796 96.7878C50.4115 96.6665 51.9617 94.1591 49.4543 92.7032H49.4409Z" fill="url(#paint35_linear_932_25642)" stroke="#64B5C8" stroke-linejoin="round"/>
<path d="M153.913 105.886C148.588 105.684 143.358 104.389 139.286 102.044C135.391 99.7927 133.193 96.9348 132.695 93.9961V98.1885C132.034 101.99 134.231 105.926 139.286 108.851C142.886 110.927 147.375 112.168 152.039 112.572L156.474 110.011C158.968 108.568 157.431 106.034 153.913 105.886Z" fill="url(#paint36_linear_932_25642)" stroke="#64B5C8" stroke-linejoin="round"/>
<path d="M156.124 108.461C156.083 108.879 155.827 109.31 155.22 109.661L117.031 131.701L78.2745 109.324C75.7671 107.881 71.3725 108.744 71.1568 110.779C70.8333 113.853 68.636 116.859 64.5919 119.205C55.5196 124.435 40.6373 124.287 31.7806 118.773C28.3027 116.603 26.3346 113.88 25.8628 111.089V121.065C25.2696 124.705 27.2378 128.479 31.7806 131.31C40.6373 136.823 55.5196 136.972 64.5919 131.741C68.6495 129.396 70.8333 126.39 71.1568 123.316C71.3725 121.281 75.7671 120.418 78.2745 121.86L117.031 144.238L155.22 122.184C155.975 121.752 156.245 121.2 156.124 120.674V108.447V108.461Z" fill="url(#paint37_linear_932_25642)" stroke="#64B5C8" stroke-linejoin="round"/>
<path d="M260.045 96.5708C254.316 96.8943 248.762 98.4041 244.596 101.127C239.73 104.309 238.018 108.851 239.447 113.017C238.732 115.079 238.8 117.25 239.649 119.299C240.512 117.223 242.143 115.268 244.61 113.664C248.775 110.941 254.329 109.431 260.058 109.108C261.878 109.013 263.024 108.164 263.051 107.274V94.8857C262.903 95.7215 261.77 96.4764 260.058 96.5708H260.045Z" fill="url(#paint38_linear_932_25642)" stroke="#64B5C8" stroke-linejoin="round"/>
<path d="M203.507 145.707C194.327 139.614 178.353 139.331 168.687 144.912C164.643 147.244 162.379 150.21 161.88 153.27C161.624 154.86 158.348 155.561 156.38 154.429L117.961 132.254V144.777H117.947L156.38 166.966C158.334 168.098 161.61 167.384 161.88 165.807C162.379 162.747 164.643 159.781 168.687 157.449C178.353 151.868 194.327 152.137 203.507 158.244C205.934 159.862 207.551 161.803 208.401 163.865C209.25 161.816 209.304 159.66 208.603 157.584C210.018 153.445 208.347 148.916 203.507 145.707Z" fill="url(#paint39_linear_932_25642)" stroke="#64B5C8" stroke-linejoin="round"/>
<path d="M330.088 145.167V132.644L291.588 154.873C289.094 156.315 290.631 158.849 294.149 158.998C294.216 158.998 294.284 158.998 294.351 158.998L291.574 160.602C289.08 162.044 290.617 164.579 294.135 164.727C294.756 164.754 295.389 164.794 296.009 164.848L330.088 145.167Z" fill="url(#paint40_linear_932_25642)"/>
<path d="M330.088 145.167V132.644L291.588 154.873C289.094 156.315 290.631 158.849 294.149 158.998C294.216 158.998 294.284 158.998 294.351 158.998L291.574 160.602C289.08 162.044 290.617 164.579 294.135 164.727C294.756 164.754 295.389 164.794 296.009 164.848L330.088 145.167ZM330.088 145.167H330.074" stroke="#64B5C8" stroke-linejoin="round"/>
<path d="M185.943 171.495C185.511 171.239 185.255 170.956 185.107 170.659V182.279C184.851 182.872 185.053 183.519 185.943 184.032L224.362 206.207V193.67L185.943 171.495Z" fill="url(#paint41_linear_932_25642)" stroke="#64B5C8" stroke-linejoin="round"/>
<path d="M315.462 172.654C315.26 175.997 312.86 179.313 308.237 181.78C299.65 186.363 285.927 186.336 277.313 181.713C272.837 179.313 270.411 176.145 270.033 172.91C269.791 170.875 265.45 169.958 262.956 171.4L224.389 193.67V206.207L262.956 183.937C265.45 182.495 269.804 183.411 270.033 185.447C270.411 188.669 272.837 191.836 277.313 194.249C285.94 198.873 299.663 198.9 308.237 194.317C312.86 191.85 315.26 188.534 315.462 185.191V185.083C315.462 184.921 315.462 184.759 315.462 184.598V172.64V172.654Z" fill="url(#paint42_linear_932_25642)" stroke="#64B5C8" stroke-linejoin="round"/>
<path d="M244.598 101.128C248.763 98.4048 254.317 96.895 260.046 96.5714C262.81 96.4231 264.077 94.5359 262.109 93.3901L223.69 71.2148L185.122 93.4844C182.628 94.9268 178.274 94.0102 178.045 91.9746C177.667 88.7528 175.241 85.5849 170.766 83.1719C162.138 78.5482 148.415 78.5212 139.842 83.1045C130.338 88.1866 130.176 96.7736 139.302 102.044C143.387 104.404 148.617 105.684 153.929 105.886C157.46 106.021 158.984 108.569 156.49 110.011L117.963 132.254H117.976L156.409 154.443C158.364 155.575 161.639 154.861 161.909 153.283C162.408 150.223 164.672 147.258 168.717 144.926C178.382 139.345 194.356 139.614 203.536 145.721C211.031 150.695 211.004 158.864 203.482 163.771C199.317 166.494 193.763 168.004 188.034 168.328C185.27 168.476 184.003 170.363 185.971 171.509L224.39 193.684L262.958 171.414C265.452 169.972 269.806 170.889 270.035 172.924C270.413 176.146 272.839 179.314 277.314 181.727C285.942 186.351 299.665 186.378 308.238 181.794C317.742 176.712 317.904 168.125 308.778 162.854C304.693 160.495 299.463 159.215 294.151 159.013C290.62 158.878 289.096 156.33 291.59 154.888L330.117 132.645H330.104L291.671 110.456C289.716 109.324 286.427 110.038 286.171 111.616C285.672 114.676 283.408 117.641 279.363 119.973C269.698 125.554 253.724 125.285 244.544 119.178C237.049 114.204 237.075 106.035 244.598 101.128Z" fill="url(#paint43_linear_932_25642)" stroke="#64B5C8" stroke-linejoin="round"/>
<path d="M168.203 21.2562C177.774 15.7292 193.56 15.9449 202.78 21.8897C210.221 26.6887 210.383 35.2488 202.969 40.1017C198.803 42.8248 193.25 44.3346 187.52 44.6581C184.757 44.8064 183.49 46.6936 185.458 47.8395L223.877 70.0147L262.444 47.7451C264.938 46.3027 269.292 47.2194 269.522 49.2549C269.899 52.4767 272.325 55.6446 276.801 58.0576C285.428 62.6814 299.151 62.7083 307.725 58.125C317.229 53.0429 317.39 44.4559 308.264 39.1851C304.18 36.826 298.949 35.5453 293.638 35.3431C290.106 35.2083 288.583 32.6606 291.077 31.2181L329.604 8.97553L231.723 -47.5207C226.452 -50.5673 219.941 -50.5673 214.67 -47.5207L117.463 8.59808L155.895 30.7868C157.85 31.9191 161.139 31.2047 161.395 29.6275C161.894 26.5674 164.159 23.6017 168.203 21.2696V21.2562Z" fill="url(#paint44_linear_932_25642)" stroke="#64B5C8" stroke-linejoin="round"/>
<path d="M168.81 21.7405C164.752 24.086 162.569 27.0922 162.245 30.1657C162.029 32.2012 157.635 33.064 155.127 31.6216L116.371 9.24414L10.6582 70.2833L49.4682 92.7012C51.9756 94.157 50.4253 96.6509 46.8935 96.7857C41.3126 96.9879 35.8396 98.3629 31.7011 100.938C23.7477 105.885 23.7746 113.811 31.782 118.799C40.6386 124.313 55.5209 124.461 64.5932 119.231C68.6508 116.885 70.8346 113.879 71.1581 110.805C71.3738 108.77 75.7684 107.907 78.2758 109.349L117.032 131.727L155.222 109.686C157.163 108.568 155.923 106.667 153.173 106.505C147.875 106.195 142.725 104.874 138.654 102.528C128.935 96.9205 129.299 87.6865 139.814 82.4291C148.387 78.1289 162.528 78.1963 171.088 82.5774C175.82 85.0039 178.489 88.2122 179.069 91.5284C179.352 93.1325 182.627 93.874 184.596 92.7416L222.772 70.7012L183.962 48.2968C181.455 46.8409 183.005 44.347 186.537 44.2122C192.118 44.01 197.591 42.635 201.729 40.0603C209.682 35.113 209.656 27.1865 201.648 22.1988C192.792 16.6853 177.909 16.537 168.837 21.7674L168.81 21.7405Z" fill="url(#paint45_linear_932_25642)" stroke="#64B5C8" stroke-linejoin="round"/>
<path d="M202.768 20.9858C205.262 22.5899 206.92 24.6255 207.77 26.7958C209.509 22.4147 207.824 17.4404 202.768 14.1782C193.561 8.23334 177.776 8.01765 168.191 13.5446C164.147 15.8767 161.883 18.8424 161.384 21.9024C161.128 23.4931 157.852 24.1941 155.884 23.0617L117.451 0.873047V7.68064L155.884 29.8693C157.838 31.0017 161.128 30.2872 161.384 28.71C161.883 25.65 164.147 22.6843 168.191 20.3522C177.762 14.8252 193.548 15.0409 202.768 20.9858Z" fill="url(#paint46_linear_932_25642)" stroke="#64B5C8" stroke-linejoin="round"/>
<path d="M307.739 50.4139C299.152 54.9972 285.429 54.9703 276.815 50.3465C272.34 47.947 269.913 44.7791 269.536 41.5438C269.293 39.5083 264.953 38.5916 262.459 40.034L223.891 62.3036L185.472 40.1284C185.122 39.9262 184.906 39.6835 184.744 39.4544V44.9544C184.313 45.588 184.475 46.3563 185.472 46.936L223.891 69.1112L262.459 46.8416C264.953 45.3992 269.307 46.3159 269.536 48.3514C269.913 51.5732 272.34 54.7411 276.815 57.1541C285.443 61.7779 299.166 61.8048 307.739 57.2215C312.363 54.7411 314.763 51.4384 314.965 48.0818H315.073V41.2877L314.965 41.3147C314.749 44.6578 312.363 47.9605 307.739 50.4274V50.4139Z" fill="url(#paint47_linear_932_25642)" stroke="#64B5C8" stroke-linejoin="round"/>
<path d="M329.672 1.26465H329.564L291.064 23.5073C288.57 24.9497 290.107 27.484 293.626 27.6323C294.246 27.6592 294.879 27.6997 295.499 27.7536L329.578 8.07224H329.551H329.659V1.26465H329.672Z" fill="url(#paint48_linear_932_25642)" stroke="#64B5C8" stroke-linejoin="round"/>
<path d="M201.702 32.3103C197.564 34.8851 192.104 36.2601 186.51 36.4623C182.978 36.5836 181.428 39.091 183.935 40.5468L188.438 43.1485C193.331 42.7307 198.036 41.3961 201.689 39.1179C205.949 36.4758 207.89 32.9709 207.58 29.5334H207.728V22.7393L207.58 22.7797C207.876 26.2037 205.922 29.6817 201.689 32.3238L201.702 32.3103Z" fill="url(#paint49_linear_932_25642)" stroke="#64B5C8" stroke-linejoin="round"/>
<path d="M184.58 84.9916C182.626 86.1239 179.336 85.3825 179.053 83.7784C178.474 80.4622 175.805 77.2538 171.073 74.8274C162.513 70.4597 148.385 70.3923 139.798 74.6791C132.708 78.2244 130.254 83.5762 132.384 88.4156C133.53 85.8274 135.997 83.3874 139.798 81.4867C148.372 77.1865 162.513 77.2539 171.073 81.635C175.805 84.0614 178.474 87.2698 179.053 90.5859C179.336 92.1901 182.612 92.9315 184.58 91.7992L222.757 69.7588V62.9512L184.58 84.9916Z" fill="url(#paint50_linear_932_25642)" stroke="#64B5C8" stroke-linejoin="round"/>
<path d="M46.8661 89.0622C50.398 88.9409 51.9482 86.4335 49.4409 84.9776L10.6309 62.5732V69.3674L44.9384 89.1835C45.5855 89.1296 46.2325 89.0891 46.8796 89.0622H46.8661Z" fill="url(#paint51_linear_932_25642)" stroke="#64B5C8" stroke-linejoin="round"/>
<path d="M153.915 98.1748C148.59 97.9726 143.36 96.6785 139.288 94.3329C135.393 92.0817 133.195 89.2239 132.697 86.2852V90.4776C132.036 94.279 134.233 98.2153 139.288 101.141C142.888 103.217 147.377 104.457 152.041 104.861L156.476 102.3C158.97 100.857 157.433 98.3231 153.915 98.1748Z" fill="url(#paint52_linear_932_25642)" stroke="#64B5C8" stroke-linejoin="round"/>
<path d="M156.126 100.75C156.085 101.168 155.829 101.599 155.222 101.95L117.033 123.99L78.2764 101.613C75.7691 100.17 71.3745 101.033 71.1588 103.068C70.8353 106.142 68.638 109.148 64.5938 111.494C55.5216 116.724 40.6392 116.576 31.7826 111.062C28.3047 108.892 26.3365 106.169 25.8647 103.378V107.611C25.2716 111.251 27.2397 115.026 31.7826 117.856C40.6392 123.37 55.5216 123.518 64.5938 118.288C68.6514 115.942 70.8353 112.936 71.1588 109.863C71.3745 107.827 75.7691 106.964 78.2764 108.407L117.033 130.784L155.222 108.73C155.977 108.299 156.247 107.746 156.126 107.22V100.736V100.75Z" fill="url(#paint53_linear_932_25642)" stroke="#64B5C8" stroke-linejoin="round"/>
<path d="M260.046 88.8601C254.317 89.1836 248.763 90.6934 244.597 93.4164C239.515 96.7461 237.857 101.545 239.636 105.859C240.499 103.783 242.13 101.828 244.597 100.224C248.763 97.501 254.317 95.9912 260.046 95.6676C261.866 95.5733 263.011 94.724 263.038 93.8343V87.1885C262.89 88.0243 261.758 88.7792 260.046 88.8735V88.8601Z" fill="url(#paint54_linear_932_25642)" stroke="#64B5C8" stroke-linejoin="round"/>
<path d="M203.509 144.803C205.936 146.421 207.553 148.362 208.403 150.424C210.168 146.151 208.551 141.352 203.509 138.009C194.329 131.916 178.355 131.633 168.689 137.214C164.645 139.546 162.381 142.512 161.882 145.572C161.626 147.162 158.35 147.863 156.382 146.731L117.963 124.556V131.336H117.949L156.382 153.525C158.336 154.657 161.612 153.943 161.882 152.366C162.381 149.306 164.645 146.34 168.689 144.008C178.355 138.427 194.329 138.697 203.509 144.803Z" fill="url(#paint55_linear_932_25642)" stroke="#64B5C8" stroke-linejoin="round"/>
<path d="M330.09 131.727V124.946L291.59 147.175C289.096 148.618 290.633 151.152 294.151 151.3C294.771 151.327 295.405 151.368 296.025 151.422L330.103 131.74H330.09V131.727Z" fill="url(#paint56_linear_932_25642)" stroke="#64B5C8" stroke-linejoin="round"/>
<path d="M224.364 185.973L185.944 163.798C185.513 163.542 185.257 163.258 185.109 162.962V168.853C184.853 169.446 185.055 170.093 185.944 170.605L224.364 192.781V185.973Z" fill="url(#paint57_linear_932_25642)" stroke="#64B5C8" stroke-linejoin="round"/>
<path d="M308.239 174.07C299.652 178.653 285.929 178.627 277.315 174.003C272.839 171.603 270.413 168.435 270.035 165.2C269.793 163.165 265.452 162.248 262.958 163.69L224.391 185.96V192.767L262.958 170.498C265.452 169.055 269.806 169.972 270.035 172.008C270.413 175.229 272.839 178.397 277.315 180.81C285.942 185.434 299.665 185.461 308.239 180.878C312.862 178.411 315.262 175.095 315.464 171.752V171.644C315.464 171.482 315.464 171.32 315.464 171.158V164.944C315.262 168.301 312.862 171.603 308.239 174.07Z" fill="url(#paint58_linear_932_25642)" stroke="#64B5C8" stroke-linejoin="round"/>
<path d="M153.913 94.4288C148.588 94.2266 143.358 92.9324 139.286 90.5869C135.391 88.3356 133.193 85.4778 132.695 82.5391V86.7315C132.034 90.5329 134.231 94.4692 139.286 97.3944C142.886 99.4704 147.375 100.711 152.039 101.115L156.474 98.5537C158.968 97.1113 157.431 94.577 153.913 94.4288Z" fill="url(#paint59_linear_932_25642)" stroke="#64B5C8" stroke-linejoin="round"/>
<path d="M202.767 17.2393C205.26 18.8435 206.918 20.8791 207.768 23.0494C208.577 21.0004 208.63 18.83 207.956 16.7675C209.345 12.5212 207.606 7.83004 202.767 4.70259C193.559 -1.24225 177.774 -1.45794 168.189 4.06902C164.145 6.40112 161.881 9.3668 161.382 12.4268C161.126 14.0175 157.85 14.7185 155.882 13.5862L117.449 -8.60254V3.93421L155.882 26.1229C157.836 27.2553 161.126 26.5408 161.382 24.9636C161.881 21.9036 164.145 18.9379 168.189 16.6058C177.76 11.0788 193.546 11.2945 202.767 17.2393Z" fill="url(#paint60_linear_932_25642)" stroke="#64B5C8" stroke-linejoin="round"/>
<path d="M307.737 40.9383C299.15 45.5217 285.427 45.4947 276.813 40.8709C272.338 38.4714 269.911 35.3035 269.534 32.0682C269.291 30.0327 264.951 29.116 262.457 30.5584L223.889 52.828L185.47 30.6528C185.12 30.4506 184.904 30.208 184.742 29.9788V41.2079C184.311 41.8415 184.473 42.6099 185.47 43.1896L223.889 65.3648L262.457 43.0952C264.951 41.6528 269.305 42.5695 269.534 44.605C269.911 47.8268 272.338 50.9947 276.813 53.4077C285.441 58.0315 299.164 58.0584 307.737 53.4751C312.361 50.9947 314.761 47.692 314.963 44.3354H315.071V31.8121H314.963C314.747 35.1822 312.361 38.4714 307.737 40.9383Z" fill="url(#paint61_linear_932_25642)" stroke="#64B5C8" stroke-linejoin="round"/>
<path d="M329.562 -8.19844L291.062 14.0307C288.568 15.4731 290.105 18.0074 293.624 18.1557C293.691 18.1557 293.758 18.1557 293.826 18.1557L291.049 19.7599C288.555 21.2023 290.092 23.7366 293.61 23.8849C294.23 23.9118 294.864 23.9523 295.484 24.0062L329.562 4.32484H329.535H329.643V-8.21191H329.535L329.562 -8.19844Z" fill="url(#paint62_linear_932_25642)" stroke="#64B5C8" stroke-linejoin="round"/>
<path d="M188.451 39.401C193.344 38.9831 198.049 37.6485 201.702 35.3703C205.962 32.7282 207.903 29.2233 207.593 25.7858H207.741V20.0566V13.249L207.593 13.2895C207.876 16.7135 205.935 20.1914 201.702 22.8336C197.564 25.4083 192.104 26.7833 186.51 26.9855C182.978 27.1069 181.428 29.6142 183.935 31.0701L186.766 32.7012C186.685 32.7012 186.591 32.7012 186.51 32.7147C182.978 32.836 188.451 39.401 188.451 39.401Z" fill="url(#paint63_linear_932_25642)"/>
<path d="M207.607 20.0431C207.607 20.1375 207.607 20.2453 207.607 20.3397M188.451 39.401C193.344 38.9831 198.049 37.6485 201.702 35.3703C205.962 32.7282 207.903 29.2233 207.593 25.7858H207.741V20.0566V13.249L207.593 13.2895C207.876 16.7135 205.935 20.1914 201.702 22.8336C197.564 25.4083 192.104 26.7833 186.51 26.9855C182.978 27.1069 181.428 29.6142 183.935 31.0701L186.766 32.7012C186.685 32.7012 186.591 32.7012 186.51 32.7147C182.978 32.836 188.451 39.401 188.451 39.401Z" stroke="#64B5C8" stroke-linejoin="round"/>
<path d="M184.581 75.515C182.613 76.6474 179.337 75.906 179.054 74.3018C178.474 70.9856 175.805 67.7773 171.074 65.3508C162.513 60.9832 148.386 60.9158 139.799 65.2025C132.978 68.6131 130.457 73.6952 132.169 78.3863C131.401 80.4623 131.468 82.6057 132.385 84.6682C133.531 82.08 135.998 79.64 139.799 77.7393C148.373 73.439 162.513 73.5065 171.074 77.8876C175.805 80.314 178.474 83.5224 179.054 86.8385C179.337 88.4427 182.613 89.1841 184.581 88.0518L222.757 66.0114V53.4746L184.581 75.515Z" fill="url(#paint64_linear_932_25642)" stroke="#64B5C8" stroke-linejoin="round"/>
<path d="M49.4409 75.5011L10.6309 53.0967V65.62L44.9384 85.4361C45.5855 85.3822 46.2325 85.3417 46.8796 85.3148C50.4115 85.1935 51.9617 82.6861 49.4543 81.2302L46.6235 79.5991C46.7044 79.5991 46.7987 79.5991 46.8796 79.5856C50.4115 79.4643 51.9617 76.957 49.4543 75.5011H49.4409Z" fill="url(#paint65_linear_932_25642)" stroke="#64B5C8" stroke-linejoin="round"/>
<path d="M153.913 88.6993C148.588 88.4971 143.358 87.2029 139.286 84.8574C135.391 82.6061 133.193 79.7483 132.695 76.8096V81.002C132.034 84.8034 134.231 88.7397 139.286 91.6649C142.886 93.7409 147.375 94.9811 152.039 95.3855L156.474 92.8243C158.968 91.3819 157.431 88.8475 153.913 88.6993Z" fill="url(#paint66_linear_932_25642)" stroke="#64B5C8" stroke-linejoin="round"/>
<path d="M156.124 91.2606C156.083 91.6784 155.827 92.1098 155.22 92.4603L117.031 114.501L78.2745 92.1233C75.7671 90.6809 71.3725 91.5436 71.1568 93.5792C70.8333 96.6527 68.636 99.6588 64.5919 102.004C55.5196 107.235 40.6373 107.087 31.7806 101.573C28.3027 99.4027 26.3346 96.6797 25.8628 93.8892V103.865C25.2696 107.504 27.2378 111.279 31.7806 114.11C40.6373 119.623 55.5196 119.772 64.5919 114.541C68.6495 112.196 70.8333 109.189 71.1568 106.116C71.3725 104.08 75.7671 103.218 78.2745 104.66L117.031 127.037L155.22 104.984C155.975 104.552 156.245 104 156.124 103.474V91.2471V91.2606Z" fill="url(#paint67_linear_932_25642)" stroke="#64B5C8" stroke-linejoin="round"/>
<path d="M260.045 79.3696C254.316 79.6931 248.762 81.2029 244.596 83.926C239.73 87.1074 238.018 91.6502 239.447 95.8157C238.732 97.8782 238.8 100.049 239.649 102.098C240.512 100.022 242.143 98.0669 244.61 96.4627C248.775 93.7397 254.329 92.2299 260.058 91.9064C261.878 91.812 263.024 90.9627 263.051 90.073V77.6846C262.903 78.5204 261.77 79.2753 260.058 79.3696H260.045Z" fill="url(#paint68_linear_932_25642)" stroke="#64B5C8" stroke-linejoin="round"/>
<path d="M203.507 128.52C194.327 122.427 178.353 122.144 168.687 127.724C164.643 130.057 162.379 133.022 161.88 136.082C161.624 137.673 158.348 138.374 156.38 137.242L117.961 115.066V127.59H117.947L156.38 149.778C158.334 150.911 161.61 150.196 161.88 148.619C162.379 145.559 164.643 142.593 168.687 140.261C178.353 134.68 194.327 134.95 203.507 141.057C205.934 142.674 207.551 144.615 208.401 146.678C209.25 144.629 209.304 142.472 208.603 140.41C210.018 136.271 208.347 131.742 203.507 128.533V128.52Z" fill="url(#paint69_linear_932_25642)" stroke="#64B5C8" stroke-linejoin="round"/>
<path d="M330.088 127.967V115.443L291.588 137.673C289.094 139.115 290.631 141.649 294.149 141.798C294.216 141.798 294.284 141.798 294.351 141.798L291.574 143.402C289.08 144.844 290.617 147.378 294.135 147.527C294.756 147.554 295.389 147.594 296.009 147.648L330.088 127.967Z" fill="url(#paint70_linear_932_25642)"/>
<path d="M330.088 127.967V115.443L291.588 137.673C289.094 139.115 290.631 141.649 294.149 141.798C294.216 141.798 294.284 141.798 294.351 141.798L291.574 143.402C289.08 144.844 290.617 147.378 294.135 147.527C294.756 147.554 295.389 147.594 296.009 147.648L330.088 127.967ZM330.088 127.967H330.074" stroke="#64B5C8" stroke-linejoin="round"/>
<path d="M185.943 154.308C185.511 154.052 185.255 153.769 185.107 153.473V165.093C184.851 165.686 185.053 166.333 185.943 166.845L224.362 189.02V176.484L185.943 154.308Z" fill="url(#paint71_linear_932_25642)" stroke="#64B5C8" stroke-linejoin="round"/>
<path d="M315.462 155.466C315.26 158.81 312.86 162.126 308.237 164.593C299.65 169.176 285.927 169.149 277.313 164.525C272.837 162.126 270.411 158.958 270.033 155.723C269.791 153.687 265.45 152.77 262.956 154.213L224.389 176.482V189.019L262.956 166.749C265.45 165.307 269.804 166.224 270.033 168.259C270.411 171.481 272.837 174.649 277.313 177.062C285.94 181.686 299.663 181.713 308.237 177.129C312.86 174.662 315.26 171.346 315.462 168.003V167.895C315.462 167.734 315.462 167.572 315.462 167.41V155.453V155.466Z" fill="url(#paint72_linear_932_25642)" stroke="#64B5C8" stroke-linejoin="round"/>
<path d="M244.598 83.9257C248.763 81.2026 254.317 79.6928 260.046 79.3693C262.81 79.221 264.077 77.3338 262.109 76.1879L223.69 54.0127L185.122 76.2823C182.628 77.7247 178.274 76.808 178.045 74.7725C177.667 71.5507 175.241 68.3828 170.766 65.9698C162.138 61.346 148.415 61.3191 139.842 65.9024C130.338 70.9845 130.176 79.5715 139.302 84.8423C143.387 87.2014 148.617 88.482 153.929 88.6842C157.46 88.819 158.984 91.3668 156.49 92.8092L117.963 115.052H117.976L156.409 137.241C158.364 138.373 161.639 137.658 161.909 136.081C162.408 133.021 164.672 130.056 168.717 127.723C178.382 122.143 194.356 122.412 203.536 128.519C211.031 133.493 211.004 141.662 203.482 146.569C199.317 149.292 193.763 150.802 188.034 151.125C185.27 151.274 184.003 153.161 185.971 154.307L224.39 176.482L262.958 154.212C265.452 152.77 269.806 153.687 270.035 155.722C270.413 158.944 272.839 162.112 277.314 164.525C285.942 169.149 299.665 169.176 308.238 164.592C317.742 159.51 317.904 150.923 308.778 145.652C304.693 143.293 299.463 142.013 294.151 141.81C290.62 141.676 289.096 139.128 291.59 137.685L330.117 115.443H330.104L291.671 93.2541C289.716 92.1217 286.427 92.8362 286.171 94.4134C285.672 97.4734 283.408 100.439 279.363 102.771C269.698 108.352 253.724 108.082 244.544 101.976C237.049 97.0016 237.075 88.8325 244.598 83.9257Z" fill="url(#paint73_linear_932_25642)" stroke="#64B5C8" stroke-linejoin="round"/>
<path d="M168.203 4.06865C177.774 -1.4583 193.56 -1.24262 202.78 4.70223C210.221 9.50124 210.383 18.0613 202.969 22.9142C198.803 25.6373 193.25 27.1471 187.52 27.4706C184.757 27.6189 183.49 29.5061 185.458 30.652L223.877 52.8272L262.444 30.5576C264.938 29.1152 269.292 30.0319 269.522 32.0674C269.899 35.2892 272.325 38.4571 276.801 40.8701C285.428 45.4939 299.151 45.5208 307.725 40.9375C317.229 35.8554 317.39 27.2684 308.264 21.9976C304.18 19.6385 298.949 18.3578 293.638 18.1556C290.106 18.0208 288.583 15.4731 291.077 14.0306L329.604 -8.21197L231.723 -64.7082C226.452 -67.7548 219.941 -67.7548 214.67 -64.7082L117.463 -8.58942L155.895 13.5993C157.85 14.7316 161.139 14.0172 161.395 12.44C161.894 9.37992 164.159 6.41423 168.203 4.08213V4.06865Z" fill="url(#paint74_linear_932_25642)" stroke="#64B5C8" stroke-linejoin="round"/>
<path d="M168.81 4.54026C164.752 6.88584 162.569 9.89197 162.245 12.9655C162.029 15.001 157.635 15.8638 155.127 14.4214L116.371 -7.95605L10.6582 53.0831L49.4682 75.501C51.9756 76.9434 50.4253 79.4507 46.8935 79.5855C41.3126 79.7877 35.8396 81.1627 31.7011 83.7375C23.7477 88.6848 23.7746 96.6112 31.782 101.599C40.6386 107.112 55.5209 107.261 64.5932 102.03C68.6508 99.6848 70.8346 96.6786 71.1581 93.6051C71.3738 91.5696 75.7684 90.7068 78.2758 92.1492L117.032 114.527L155.222 92.4862C157.163 91.3674 155.923 89.4666 153.173 89.3049C147.875 88.9948 142.725 87.6737 138.654 85.3282C128.935 79.7203 129.299 70.4863 139.814 65.2289C148.387 60.9287 162.528 60.9961 171.088 65.3772C175.82 67.8037 178.489 71.012 179.069 74.3282C179.352 75.9323 182.627 76.6738 184.596 75.5414L222.772 53.501L183.962 31.0966C181.455 29.6407 183.005 27.1468 186.537 27.012C192.118 26.8098 197.591 25.4348 201.729 22.8601C209.682 17.9128 209.656 9.98633 201.648 4.99859C192.792 -0.514885 177.909 -0.663169 168.837 4.56722L168.81 4.54026Z" fill="url(#paint75_linear_932_25642)" stroke="#64B5C8" stroke-linejoin="round"/>
<path d="M451.83 249.708C449.323 248.265 444.929 249.128 444.713 251.163C444.389 254.237 442.192 257.243 438.148 259.589C429.076 264.819 414.193 264.671 405.337 259.157C401.845 256.973 399.864 254.237 399.419 251.433V255.76C399.297 256.515 399.419 261.489 399.419 261.489C398.839 265.116 400.821 268.877 405.337 271.694C414.193 277.208 429.076 277.356 438.148 272.125C442.205 269.78 444.389 266.774 444.713 263.7C444.929 261.665 449.323 260.802 451.83 262.244L490.587 284.622V272.085L451.83 249.708Z" fill="url(#paint76_linear_932_25642)" stroke="#64B5C8" stroke-linejoin="round"/>
<path d="M453.784 187.388C459.082 187.698 464.231 189.019 468.302 191.364C471.457 193.184 473.533 195.395 474.557 197.727C475.46 195.678 475.528 193.521 474.773 191.445C476.39 187.051 474.247 182.265 468.302 178.828C464.231 176.482 459.082 175.147 453.784 174.851C452.22 174.756 451.169 174.109 450.885 173.354V179.353C450.778 179.623 450.778 179.906 450.885 180.176V185.082C450.454 186.12 451.667 187.266 453.784 187.388Z" fill="url(#paint77_linear_932_25642)" stroke="#64B5C8" stroke-linejoin="round"/>
<path d="M420.434 242.886C423.966 242.765 425.517 240.257 423.009 238.802L420.178 237.17C420.259 237.17 420.354 237.17 420.434 237.157C423.966 237.036 425.517 234.528 423.009 233.072L384.199 210.668V223.205L418.507 243.007C419.154 242.953 419.801 242.913 420.448 242.886H420.434Z" fill="url(#paint78_linear_932_25642)" stroke="#64B5C8" stroke-linejoin="round"/>
<path d="M438.136 259.589C442.193 257.243 444.377 254.237 444.701 251.164C444.916 249.128 449.311 248.265 451.818 249.708L490.574 272.085L596.288 211.046L557.478 188.628C554.97 187.172 556.52 184.679 560.052 184.544C565.633 184.341 571.106 182.966 575.245 180.392C583.198 175.444 583.171 167.518 575.164 162.53C566.307 157.017 551.425 156.868 542.353 162.099C538.295 164.444 536.111 167.451 535.788 170.524C535.572 172.56 531.177 173.422 528.67 171.98L489.914 149.603L451.724 171.643C449.783 172.762 451.023 174.663 453.773 174.824C459.071 175.134 464.22 176.455 468.291 178.801C478.011 184.409 477.647 193.643 467.132 198.9C458.559 203.201 444.418 203.133 435.858 198.752C431.126 196.326 428.457 193.117 427.877 189.801C427.594 188.197 424.318 187.455 422.35 188.588L384.174 210.628L422.984 233.033C425.491 234.489 423.941 236.982 420.409 237.117C414.828 237.319 409.355 238.694 405.217 241.269C397.263 246.216 397.29 254.143 405.298 259.131C414.154 264.644 429.037 264.792 438.109 259.562L438.136 259.589Z" fill="url(#paint79_linear_932_25642)" stroke="#64B5C8" stroke-linejoin="round"/>
<path d="M453.786 173.948C459.083 174.258 464.233 175.579 468.304 177.924C471.458 179.744 473.534 181.955 474.559 184.287C476.568 179.744 474.492 174.703 468.304 171.13C464.233 168.785 459.083 167.45 453.786 167.154C452.222 167.059 451.17 166.412 450.887 165.657V171.656C450.456 172.694 451.669 173.84 453.786 173.961V173.948Z" fill="url(#paint80_linear_932_25642)" stroke="#64B5C8" stroke-linejoin="round"/>
<path d="M420.434 229.447C423.966 229.326 425.517 226.818 423.009 225.362L384.199 202.958V209.766L418.507 229.568C419.154 229.514 419.801 229.474 420.448 229.447H420.434Z" fill="url(#paint81_linear_932_25642)" stroke="#64B5C8" stroke-linejoin="round"/>
<path d="M490.6 264.374L451.844 241.997C449.337 240.554 444.942 241.417 444.726 243.452C444.403 246.526 442.206 249.532 438.162 251.878C429.089 257.108 414.207 256.96 405.35 251.446C401.859 249.263 399.877 246.526 399.432 243.722V248.049C398.853 251.676 400.834 255.437 405.35 258.254C414.207 263.767 429.089 263.916 438.162 258.685C442.219 256.34 444.403 253.334 444.726 250.26C444.942 248.225 449.337 247.362 451.844 248.804L490.6 271.182V264.374Z" fill="url(#paint82_linear_932_25642)" stroke="#64B5C8" stroke-linejoin="round"/>
<path d="M451.83 232.521C449.323 231.079 444.929 231.941 444.713 233.977C444.389 237.05 442.192 240.057 438.148 242.402C429.076 247.633 414.193 247.484 405.337 241.971C401.845 239.787 399.864 237.05 399.419 234.247V238.574C399.297 239.329 399.419 244.303 399.419 244.303C398.839 247.929 400.821 251.69 405.337 254.508C414.193 260.021 429.076 260.169 438.148 254.939C442.205 252.593 444.389 249.587 444.713 246.514C444.929 244.478 449.323 243.615 451.83 245.058L490.587 267.435V254.898L451.83 232.521Z" fill="url(#paint83_linear_932_25642)" stroke="#64B5C8" stroke-linejoin="round"/>
<path d="M453.784 170.188C459.082 170.498 464.231 171.819 468.302 174.165C471.457 175.985 473.533 178.196 474.557 180.528C475.46 178.479 475.528 176.322 474.773 174.246C476.39 169.851 474.247 165.066 468.302 161.628C464.231 159.283 459.082 157.948 453.784 157.652C452.22 157.557 451.169 156.91 450.885 156.155V162.154C450.778 162.424 450.778 162.707 450.885 162.976V167.883C450.454 168.921 451.667 170.067 453.784 170.188Z" fill="url(#paint84_linear_932_25642)" stroke="#64B5C8" stroke-linejoin="round"/>
<path d="M420.434 225.701C423.966 225.579 425.517 223.072 423.009 221.616L420.178 219.985C420.259 219.985 420.354 219.985 420.434 219.971C423.966 219.85 425.517 217.343 423.009 215.887L384.199 193.482V206.019L418.507 225.822C419.154 225.768 419.801 225.727 420.448 225.701H420.434Z" fill="url(#paint85_linear_932_25642)" stroke="#64B5C8" stroke-linejoin="round"/>
<path d="M438.136 242.401C442.193 240.056 444.377 237.05 444.701 233.976C444.916 231.941 449.311 231.078 451.818 232.52L490.574 254.898L596.288 193.859L557.478 171.441C554.97 169.998 556.52 167.491 560.052 167.356C565.633 167.154 571.106 165.779 575.245 163.204C583.198 158.257 583.171 150.33 575.164 145.343C566.307 139.829 551.425 139.681 542.353 144.911C538.295 147.257 536.111 150.263 535.788 153.337C535.572 155.372 531.177 156.235 528.67 154.792L489.914 132.415L451.724 154.455C449.783 155.574 451.023 157.475 453.773 157.637C459.071 157.947 464.22 159.268 468.291 161.614C478.011 167.221 477.647 176.455 467.132 181.713C458.559 186.013 444.418 185.946 435.858 181.565C431.126 179.138 428.457 175.93 427.877 172.614C427.594 171.009 424.318 170.268 422.35 171.4L384.174 193.441L422.984 215.845C425.491 217.301 423.941 219.795 420.409 219.93C414.828 220.132 409.355 221.507 405.217 224.082C397.263 229.029 397.29 236.955 405.298 241.943C414.154 247.457 429.037 247.605 438.109 242.374L438.136 242.401Z" fill="url(#paint86_linear_932_25642)" stroke="#64B5C8" stroke-linejoin="round"/>
<path d="M407.009 -1.57989C405.068 -0.461018 406.308 1.43972 409.058 1.60148C414.356 1.91153 419.519 3.23261 423.577 5.57819C433.296 11.186 432.932 20.4201 422.417 25.6774C413.844 29.9777 399.703 29.9103 391.143 25.5292C386.411 23.1027 383.742 19.8944 383.162 16.5782C382.879 14.974 379.604 14.2326 377.635 15.3649L339.459 37.4054L378.269 59.8098C380.776 61.2656 379.226 63.7595 375.694 63.8943C370.113 64.0965 364.64 65.4715 360.502 68.0463C352.548 72.9936 352.575 80.92 360.583 85.9078C369.439 91.4212 384.322 91.5695 393.394 86.3391C397.452 83.9936 399.635 80.9874 399.959 77.9139C400.175 75.8784 404.569 75.0156 407.077 76.458L445.833 98.8354L484.009 76.795C485.964 75.6627 484.683 73.7754 481.92 73.6137C476.19 73.2767 470.61 71.7399 466.417 69.0034C458.841 64.0696 458.72 55.9004 466.161 50.9531C475.274 44.887 491.248 44.6713 500.967 50.2791C505.038 52.6247 507.33 55.6039 507.856 58.6639C508.125 60.2546 511.415 60.9691 513.369 59.8502L551.559 37.7963L445.172 -23.6338L406.982 -1.57989H407.009Z" fill="url(#paint87_linear_932_25642)" stroke="#64B5C8" stroke-linejoin="round"/>
<path d="M378.283 65.5525L375.452 63.9214C375.533 63.9214 375.627 63.9214 375.708 63.9079C379.24 63.7866 380.79 61.2792 378.283 59.8233L339.473 37.4189V49.9557L373.78 69.7584C374.427 69.7044 375.074 69.664 375.721 69.6371C379.253 69.5157 380.804 67.0084 378.296 65.5525H378.283Z" fill="url(#paint88_linear_932_25642)" stroke="#64B5C8" stroke-linejoin="round"/>
<path d="M423.591 5.57819C419.519 3.23261 414.37 1.89805 409.072 1.60148C407.306 1.49364 406.174 0.671338 406.093 -0.191406H406.039V12.3319H406.093C406.16 13.2081 407.293 14.0304 409.072 14.1382C414.37 14.4483 419.533 15.7694 423.591 18.1149C426.745 19.9348 428.821 22.1456 429.845 24.4777C430.749 22.4287 430.816 20.2718 430.061 18.1958C431.679 13.8012 429.535 9.01569 423.591 5.57819Z" fill="url(#paint89_linear_932_25642)" stroke="#64B5C8" stroke-linejoin="round"/>
<path d="M484.899 75.9053C484.777 76.2153 484.508 76.5254 484.049 76.795L445.873 98.8354V111.372L484.049 89.3317C484.885 88.8464 485.101 88.2398 484.899 87.6736V75.9053Z" fill="url(#paint90_linear_932_25642)" stroke="#64B5C8" stroke-linejoin="round"/>
<path d="M407.103 76.4566C404.596 75.0142 400.201 75.8769 399.985 77.9125C399.662 80.986 397.464 83.9921 393.42 86.3377C384.348 91.5681 369.466 91.4198 360.609 85.9063C356.686 83.4664 354.691 80.3254 354.597 77.171H354.543V89.6943H354.597C354.691 92.8487 356.686 95.9897 360.609 98.4431C369.466 103.957 384.348 104.105 393.42 98.8745C397.478 96.5289 399.662 93.5227 399.985 90.4492C400.201 88.4137 404.596 87.5509 407.103 88.9933L445.859 111.371V98.834L407.103 76.4566Z" fill="url(#paint91_linear_932_25642)" stroke="#64B5C8" stroke-linejoin="round"/>
<path d="M513.41 59.8498C511.468 60.9687 508.179 60.2542 507.896 58.6635C507.37 55.6035 505.065 52.6243 501.008 50.2787C491.288 44.6709 475.314 44.8866 466.201 50.9528C461.443 54.1206 459.798 58.6096 461.214 62.7211C460.499 64.7836 460.567 66.9405 461.402 68.9895C462.238 66.9674 463.842 65.0667 466.201 63.4895C475.314 57.4233 491.288 57.2077 501.008 62.8155C505.079 65.1611 507.37 68.1402 507.896 71.2003C508.166 72.791 511.455 73.5054 513.41 72.3866L551.6 50.3327V37.7959L513.41 59.8498Z" fill="url(#paint92_linear_932_25642)" stroke="#64B5C8" stroke-linejoin="round"/>
<path d="M375.708 56.1842C379.24 56.0629 380.79 53.5556 378.283 52.0997L339.473 29.6953V36.5029L373.78 56.3056C374.427 56.2517 375.074 56.2112 375.721 56.1842H375.708Z" fill="url(#paint93_linear_932_25642)" stroke="#64B5C8" stroke-linejoin="round"/>
<path d="M409.058 0.684656C414.356 0.994705 419.519 2.31578 423.577 4.66137C426.731 6.48122 428.807 8.692 429.832 11.0241C431.84 6.48122 429.764 1.43956 423.577 -2.13274C419.506 -4.47833 414.356 -5.81289 409.058 -6.10946C407.293 -6.2173 406.16 -7.0396 406.079 -7.90234H406.025V-1.10823H406.079C406.147 -0.232007 407.279 0.590296 409.058 0.698139V0.684656Z" fill="url(#paint94_linear_932_25642)" stroke="#64B5C8" stroke-linejoin="round"/>
<path d="M445.859 97.932L484.036 75.8916C484.872 75.4063 485.087 74.7997 484.885 74.2335V68.1943C484.764 68.5044 484.494 68.8144 484.036 69.084L445.859 91.1245V97.932Z" fill="url(#paint95_linear_932_25642)" stroke="#64B5C8" stroke-linejoin="round"/>
<path d="M445.859 91.125L407.103 68.7476C404.596 67.3052 400.201 68.1679 399.985 70.2035C399.662 73.277 397.464 76.2831 393.42 78.6287C384.348 83.8591 369.466 83.7108 360.609 78.1973C356.686 75.7574 354.691 72.6165 354.597 69.4621H354.543V76.2562H354.597C354.691 79.4106 356.686 82.5515 360.609 85.0049C369.466 90.5184 384.348 90.6667 393.42 85.4363C397.478 83.0907 399.662 80.0846 399.985 77.0111C400.201 74.9755 404.596 74.1128 407.103 75.5552L445.859 97.9326V91.125Z" fill="url(#paint96_linear_932_25642)" stroke="#64B5C8" stroke-linejoin="round"/>
<path d="M513.409 52.1262C511.468 53.245 508.178 52.5306 507.895 50.9399C507.37 47.8798 505.064 44.9007 501.007 42.5551C491.287 36.9473 475.313 37.1629 466.2 43.2291C461.226 46.5318 459.649 51.2769 461.401 55.5367C462.237 53.5146 463.841 51.6139 466.2 50.0367C475.313 43.9705 491.287 43.7548 501.007 49.3627C505.078 51.7083 507.37 54.6874 507.895 57.7475C508.165 59.3382 511.454 60.0526 513.409 58.9338L551.599 36.8799V30.0723L513.409 52.1262Z" fill="url(#paint97_linear_932_25642)" stroke="#64B5C8" stroke-linejoin="round"/>
<path d="M378.283 48.365L375.452 46.7339C375.533 46.7339 375.627 46.7339 375.708 46.7204C379.24 46.5991 380.79 44.0917 378.283 42.6358L339.473 20.2314V32.7682L373.78 52.5709C374.427 52.5169 375.074 52.4765 375.721 52.4496C379.253 52.3282 380.804 49.8209 378.296 48.365H378.283Z" fill="url(#paint98_linear_932_25642)" stroke="#64B5C8" stroke-linejoin="round"/>
<path d="M423.591 -11.623C419.519 -13.9686 414.37 -15.3031 409.072 -15.5997C407.306 -15.7075 406.174 -16.5298 406.093 -17.3926H406.039V-4.86931H406.093C406.16 -3.99308 407.293 -3.17078 409.072 -3.06294C414.37 -2.75289 419.533 -1.43181 423.591 0.913777C426.745 2.73363 428.821 4.94441 429.845 7.27651C430.749 5.22749 430.816 3.07063 430.061 0.994656C431.679 -3.39995 429.535 -8.18548 423.591 -11.623Z" fill="url(#paint99_linear_932_25642)" stroke="#64B5C8" stroke-linejoin="round"/>
<path d="M484.899 58.7178C484.777 59.0278 484.508 59.3379 484.049 59.6075L445.873 81.6479V94.1846L484.049 72.1442C484.885 71.6589 485.101 71.0523 484.899 70.4861V58.7178Z" fill="url(#paint100_linear_932_25642)" stroke="#64B5C8" stroke-linejoin="round"/>
<path d="M407.103 59.2564C404.596 57.814 400.201 58.6767 399.985 60.7123C399.662 63.7858 397.464 66.7919 393.42 69.1375C384.348 74.3679 369.466 74.2196 360.609 68.7061C356.686 66.2662 354.691 63.1253 354.597 59.9708H354.543V72.4941H354.597C354.691 75.6485 356.686 78.7894 360.609 81.2429C369.466 86.7564 384.348 86.9046 393.42 81.6743C397.478 79.3287 399.662 76.3225 399.985 73.249C400.201 71.2135 404.596 70.3507 407.103 71.7931L445.859 94.1706V81.6338L407.103 59.2564Z" fill="url(#paint101_linear_932_25642)" stroke="#64B5C8" stroke-linejoin="round"/>
<path d="M513.41 42.6486C511.468 43.7675 508.179 43.053 507.896 41.4623C507.37 38.4023 505.065 35.4231 501.008 33.0775C491.288 27.4697 475.314 27.6854 466.201 33.7516C461.443 36.9195 459.798 41.4084 461.214 45.5199C460.499 47.5824 460.567 49.7393 461.402 51.7883C462.238 49.7663 463.842 47.8655 466.201 46.2883C475.314 40.2222 491.288 40.0065 501.008 45.6143C505.079 47.9599 507.37 50.9391 507.896 53.9991C508.166 55.5898 511.455 56.3042 513.41 55.1854L551.6 33.1315V20.5947L513.41 42.6486Z" fill="url(#paint102_linear_932_25642)" stroke="#64B5C8" stroke-linejoin="round"/>
<path d="M407.009 -18.7801C405.068 -17.6612 406.308 -15.7605 409.058 -15.5987C414.356 -15.2887 419.519 -13.9676 423.577 -11.622C433.296 -6.01416 432.932 3.21989 422.417 8.47724C413.844 12.7775 399.703 12.7101 391.143 8.32896C386.411 5.90249 383.742 2.69416 383.162 -0.622013C382.879 -2.22618 379.604 -2.9676 377.635 -1.83525L339.459 20.2052L378.269 42.6096C380.776 44.0654 379.226 46.5593 375.694 46.6941C370.113 46.8963 364.64 48.2713 360.502 50.8461C352.548 55.7934 352.575 63.7198 360.583 68.7076C369.439 74.221 384.322 74.3693 393.394 69.1389C397.452 66.7934 399.635 63.7872 399.959 60.7137C400.175 58.6782 404.569 57.8154 407.077 59.2578L445.833 81.6353L484.009 59.5948C485.964 58.4625 484.683 56.5752 481.92 56.4135C476.19 56.0765 470.61 54.5397 466.417 51.8032C458.841 46.8694 458.72 38.7002 466.161 33.7529C475.274 27.6868 491.248 27.4711 500.967 33.0789C505.038 35.4245 507.33 38.4037 507.856 41.4637C508.125 43.0544 511.415 43.7689 513.369 42.65L551.559 20.5961L445.172 -40.834L406.982 -18.7801H407.009Z" fill="url(#paint103_linear_932_25642)" stroke="#64B5C8" stroke-linejoin="round"/>
<path d="M371.569 407.185C374.737 409.018 378.646 409.018 381.814 407.185L482.418 349.098H482.404L443.972 326.909C442.017 325.777 438.728 326.491 438.472 328.069C437.973 331.129 435.708 334.094 431.664 336.426C421.999 342.007 406.025 341.738 396.844 335.631C389.349 330.657 389.376 322.488 396.898 317.581C401.064 314.858 406.618 313.348 412.347 313.025C415.11 312.876 416.377 310.989 414.409 309.843L375.99 287.668L337.423 309.938C334.929 311.38 330.575 310.463 330.346 308.428C329.968 305.206 327.542 302.038 323.066 299.625C314.439 295.001 300.716 294.974 292.142 299.558C282.639 304.64 282.477 313.227 291.603 318.498C295.688 320.857 300.918 322.137 306.229 322.34C309.761 322.474 311.284 325.022 308.791 326.464L270.264 348.707H270.277L371.542 407.172L371.569 407.185Z" fill="url(#paint104_linear_932_25642)" stroke="#64B5C8" stroke-linejoin="round"/>
<path d="M371.569 389.661C374.737 391.494 378.646 391.494 381.814 389.661L482.418 331.574H482.404L443.972 309.385C442.017 308.253 438.728 308.967 438.472 310.544C437.973 313.604 435.708 316.57 431.664 318.902C421.999 324.483 406.025 324.213 396.844 318.107C389.349 313.132 389.376 304.963 396.898 300.057C401.064 297.333 406.618 295.824 412.347 295.5C415.11 295.352 416.377 293.465 414.409 292.319L375.99 270.144L337.423 292.413C334.929 293.856 330.575 292.939 330.346 290.903C329.968 287.682 327.542 284.514 323.066 282.101C314.439 277.477 300.716 277.45 292.142 282.033C282.639 287.115 282.477 295.702 291.603 300.973C295.688 303.332 300.918 304.613 306.229 304.815C309.761 304.95 311.284 307.498 308.791 308.94L270.264 331.183H270.277L371.542 389.647L371.569 389.661Z" fill="url(#paint105_linear_932_25642)" stroke="#64B5C8" stroke-linejoin="round"/>
</g>
<defs>
<linearGradient id="paint0_linear_932_25642" x1="84.8826" y1="246.068" x2="84.8826" y2="246.473" gradientUnits="userSpaceOnUse">
<stop stop-color="#A8C9D1"/>
<stop offset="1" stop-color="white"/>
</linearGradient>
<linearGradient id="paint1_linear_932_25642" x1="20.3781" y1="163.689" x2="20.3781" y2="187.9" gradientUnits="userSpaceOnUse">
<stop stop-color="#A8C9D1"/>
<stop offset="1" stop-color="white"/>
</linearGradient>
<linearGradient id="paint2_linear_932_25642" x1="39.366" y1="239.334" x2="39.366" y2="274.822" gradientUnits="userSpaceOnUse">
<stop stop-color="#A8C9D1"/>
<stop offset="1" stop-color="white"/>
</linearGradient>
<linearGradient id="paint3_linear_932_25642" x1="84.8826" y1="240.325" x2="84.8826" y2="240.73" gradientUnits="userSpaceOnUse">
<stop stop-color="#A8C9D1"/>
<stop offset="1" stop-color="white"/>
</linearGradient>
<linearGradient id="paint4_linear_932_25642" x1="79.6726" y1="201.231" x2="79.6726" y2="233.45" gradientUnits="userSpaceOnUse">
<stop stop-color="#A8C9D1"/>
<stop offset="1" stop-color="white"/>
</linearGradient>
<linearGradient id="paint5_linear_932_25642" x1="-3.17968" y1="139.815" x2="-3.17968" y2="262.285" gradientUnits="userSpaceOnUse">
<stop stop-color="#A8C9D1"/>
<stop offset="1" stop-color="white"/>
</linearGradient>
<linearGradient id="paint6_linear_932_25642" x1="20.3799" y1="155.979" x2="20.3799" y2="174.448" gradientUnits="userSpaceOnUse">
<stop stop-color="#A8C9D1"/>
<stop offset="1" stop-color="white"/>
</linearGradient>
<linearGradient id="paint7_linear_932_25642" x1="39.364" y1="231.608" x2="39.364" y2="261.381" gradientUnits="userSpaceOnUse">
<stop stop-color="#A8C9D1"/>
<stop offset="1" stop-color="white"/>
</linearGradient>
<linearGradient id="paint8_linear_932_25642" x1="84.8826" y1="232.614" x2="84.8826" y2="233.019" gradientUnits="userSpaceOnUse">
<stop stop-color="#A8C9D1"/>
<stop offset="1" stop-color="white"/>
</linearGradient>
<linearGradient id="paint9_linear_932_25642" x1="79.6706" y1="193.521" x2="79.6706" y2="220.01" gradientUnits="userSpaceOnUse">
<stop stop-color="#A8C9D1"/>
<stop offset="1" stop-color="white"/>
</linearGradient>
<linearGradient id="paint10_linear_932_25642" x1="84.8826" y1="228.868" x2="84.8826" y2="229.273" gradientUnits="userSpaceOnUse">
<stop stop-color="#A8C9D1"/>
<stop offset="1" stop-color="white"/>
</linearGradient>
<linearGradient id="paint11_linear_932_25642" x1="20.3781" y1="146.502" x2="20.3781" y2="170.713" gradientUnits="userSpaceOnUse">
<stop stop-color="#A8C9D1"/>
<stop offset="1" stop-color="white"/>
</linearGradient>
<linearGradient id="paint12_linear_932_25642" x1="39.366" y1="222.132" x2="39.366" y2="257.62" gradientUnits="userSpaceOnUse">
<stop stop-color="#A8C9D1"/>
<stop offset="1" stop-color="white"/>
</linearGradient>
<linearGradient id="paint13_linear_932_25642" x1="84.8826" y1="223.138" x2="84.8826" y2="223.542" gradientUnits="userSpaceOnUse">
<stop stop-color="#A8C9D1"/>
<stop offset="1" stop-color="white"/>
</linearGradient>
<linearGradient id="paint14_linear_932_25642" x1="79.6726" y1="184.044" x2="79.6726" y2="216.262" gradientUnits="userSpaceOnUse">
<stop stop-color="#A8C9D1"/>
<stop offset="1" stop-color="white"/>
</linearGradient>
<linearGradient id="paint15_linear_932_25642" x1="-3.17968" y1="122.628" x2="-3.17968" y2="245.084" gradientUnits="userSpaceOnUse">
<stop stop-color="#A8C9D1"/>
<stop offset="1" stop-color="white"/>
</linearGradient>
<linearGradient id="paint16_linear_932_25642" x1="20.3925" y1="146.124" x2="20.3925" y2="161.559" gradientUnits="userSpaceOnUse">
<stop stop-color="#A8C9D1"/>
<stop offset="1" stop-color="white"/>
</linearGradient>
<linearGradient id="paint17_linear_932_25642" x1="125.57" y1="261.019" x2="125.57" y2="285.432" gradientUnits="userSpaceOnUse">
<stop stop-color="#A8C9D1"/>
<stop offset="1" stop-color="white"/>
</linearGradient>
<linearGradient id="paint18_linear_932_25642" x1="231.417" y1="259.684" x2="231.417" y2="284.663" gradientUnits="userSpaceOnUse">
<stop stop-color="#A8C9D1"/>
<stop offset="1" stop-color="white"/>
</linearGradient>
<linearGradient id="paint19_linear_932_25642" x1="152.903" y1="237.307" x2="152.903" y2="359.776" gradientUnits="userSpaceOnUse">
<stop stop-color="#A8C9D1"/>
<stop offset="1" stop-color="white"/>
</linearGradient>
<linearGradient id="paint20_linear_932_25642" x1="125.569" y1="253.308" x2="125.569" y2="271.991" gradientUnits="userSpaceOnUse">
<stop stop-color="#A8C9D1"/>
<stop offset="1" stop-color="white"/>
</linearGradient>
<linearGradient id="paint21_linear_932_25642" x1="231.417" y1="251.96" x2="231.417" y2="271.21" gradientUnits="userSpaceOnUse">
<stop stop-color="#A8C9D1"/>
<stop offset="1" stop-color="white"/>
</linearGradient>
<linearGradient id="paint22_linear_932_25642" x1="100.008" y1="290.634" x2="100.008" y2="358.858" gradientUnits="userSpaceOnUse">
<stop stop-color="#A8C9D1"/>
<stop offset="1" stop-color="white"/>
</linearGradient>
<linearGradient id="paint23_linear_932_25642" x1="213.367" y1="291.012" x2="213.367" y2="320.405" gradientUnits="userSpaceOnUse">
<stop stop-color="#A8C9D1"/>
<stop offset="1" stop-color="white"/>
</linearGradient>
<linearGradient id="paint24_linear_932_25642" x1="100.008" y1="281.144" x2="100.008" y2="355.11" gradientUnits="userSpaceOnUse">
<stop stop-color="#A8C9D1"/>
<stop offset="1" stop-color="white"/>
</linearGradient>
<linearGradient id="paint25_linear_932_25642" x1="213.37" y1="281.535" x2="213.37" y2="316.658" gradientUnits="userSpaceOnUse">
<stop stop-color="#A8C9D1"/>
<stop offset="1" stop-color="white"/>
</linearGradient>
<linearGradient id="paint26_linear_932_25642" x1="125.57" y1="243.831" x2="125.57" y2="268.244" gradientUnits="userSpaceOnUse">
<stop stop-color="#A8C9D1"/>
<stop offset="1" stop-color="white"/>
</linearGradient>
<linearGradient id="paint27_linear_932_25642" x1="231.417" y1="242.482" x2="231.417" y2="267.462" gradientUnits="userSpaceOnUse">
<stop stop-color="#A8C9D1"/>
<stop offset="1" stop-color="white"/>
</linearGradient>
<linearGradient id="paint28_linear_932_25642" x1="152.903" y1="220.119" x2="152.903" y2="342.588" gradientUnits="userSpaceOnUse">
<stop stop-color="#A8C9D1"/>
<stop offset="1" stop-color="white"/>
</linearGradient>
<linearGradient id="paint29_linear_932_25642" x1="145.14" y1="99.7393" x2="145.14" y2="118.315" gradientUnits="userSpaceOnUse">
<stop stop-color="#A8C9D1"/>
<stop offset="1" stop-color="white"/>
</linearGradient>
<linearGradient id="paint30_linear_932_25642" x1="162.936" y1="8.59766" x2="162.936" y2="43.8764" gradientUnits="userSpaceOnUse">
<stop stop-color="#A8C9D1"/>
<stop offset="1" stop-color="white"/>
</linearGradient>
<linearGradient id="paint31_linear_932_25642" x1="249.794" y1="47.0439" x2="249.794" y2="82.5523" gradientUnits="userSpaceOnUse">
<stop stop-color="#A8C9D1"/>
<stop offset="1" stop-color="white"/>
</linearGradient>
<linearGradient id="paint32_linear_932_25642" x1="309.733" y1="8.98926" x2="309.733" y2="41.2074" gradientUnits="userSpaceOnUse">
<stop stop-color="#A8C9D1"/>
<stop offset="1" stop-color="white"/>
</linearGradient>
<linearGradient id="paint33_linear_932_25642" x1="195.222" y1="30.4365" x2="195.222" y2="56.5885" gradientUnits="userSpaceOnUse">
<stop stop-color="#A8C9D1"/>
<stop offset="1" stop-color="white"/>
</linearGradient>
<linearGradient id="paint34_linear_932_25642" x1="177.199" y1="70.6748" x2="177.199" y2="105.797" gradientUnits="userSpaceOnUse">
<stop stop-color="#A8C9D1"/>
<stop offset="1" stop-color="white"/>
</linearGradient>
<linearGradient id="paint35_linear_932_25642" x1="30.6586" y1="70.2988" x2="30.6586" y2="102.638" gradientUnits="userSpaceOnUse">
<stop stop-color="#A8C9D1"/>
<stop offset="1" stop-color="white"/>
</linearGradient>
<linearGradient id="paint36_linear_932_25642" x1="145.14" y1="93.9961" x2="145.14" y2="112.572" gradientUnits="userSpaceOnUse">
<stop stop-color="#A8C9D1"/>
<stop offset="1" stop-color="white"/>
</linearGradient>
<linearGradient id="paint37_linear_932_25642" x1="90.9557" y1="108.447" x2="90.9557" y2="144.238" gradientUnits="userSpaceOnUse">
<stop stop-color="#A8C9D1"/>
<stop offset="1" stop-color="white"/>
</linearGradient>
<linearGradient id="paint38_linear_932_25642" x1="251.004" y1="94.8857" x2="251.004" y2="119.299" gradientUnits="userSpaceOnUse">
<stop stop-color="#A8C9D1"/>
<stop offset="1" stop-color="white"/>
</linearGradient>
<linearGradient id="paint39_linear_932_25642" x1="163.518" y1="132.254" x2="163.518" y2="167.519" gradientUnits="userSpaceOnUse">
<stop stop-color="#A8C9D1"/>
<stop offset="1" stop-color="white"/>
</linearGradient>
<linearGradient id="paint40_linear_932_25642" x1="310.218" y1="132.644" x2="310.218" y2="164.848" gradientUnits="userSpaceOnUse">
<stop stop-color="#A8C9D1"/>
<stop offset="1" stop-color="white"/>
</linearGradient>
<linearGradient id="paint41_linear_932_25642" x1="204.683" y1="170.659" x2="204.683" y2="206.207" gradientUnits="userSpaceOnUse">
<stop stop-color="#A8C9D1"/>
<stop offset="1" stop-color="white"/>
</linearGradient>
<linearGradient id="paint42_linear_932_25642" x1="269.925" y1="170.698" x2="269.925" y2="206.207" gradientUnits="userSpaceOnUse">
<stop stop-color="#A8C9D1"/>
<stop offset="1" stop-color="white"/>
</linearGradient>
<linearGradient id="paint43_linear_932_25642" x1="224.04" y1="71.2148" x2="224.04" y2="193.684" gradientUnits="userSpaceOnUse">
<stop stop-color="#A8C9D1"/>
<stop offset="1" stop-color="white"/>
</linearGradient>
<linearGradient id="paint44_linear_932_25642" x1="223.533" y1="-49.8057" x2="223.533" y2="70.0147" gradientUnits="userSpaceOnUse">
<stop stop-color="#A8C9D1"/>
<stop offset="1" stop-color="white"/>
</linearGradient>
<linearGradient id="paint45_linear_932_25642" x1="116.715" y1="9.24414" x2="116.715" y2="131.727" gradientUnits="userSpaceOnUse">
<stop stop-color="#A8C9D1"/>
<stop offset="1" stop-color="white"/>
</linearGradient>
<linearGradient id="paint46_linear_932_25642" x1="162.942" y1="0.873047" x2="162.942" y2="30.4226" gradientUnits="userSpaceOnUse">
<stop stop-color="#A8C9D1"/>
<stop offset="1" stop-color="white"/>
</linearGradient>
<linearGradient id="paint47_linear_932_25642" x1="249.796" y1="39.332" x2="249.796" y2="69.1112" gradientUnits="userSpaceOnUse">
<stop stop-color="#A8C9D1"/>
<stop offset="1" stop-color="white"/>
</linearGradient>
<linearGradient id="paint48_linear_932_25642" x1="309.755" y1="1.26465" x2="309.755" y2="27.7536" gradientUnits="userSpaceOnUse">
<stop stop-color="#A8C9D1"/>
<stop offset="1" stop-color="white"/>
</linearGradient>
<linearGradient id="paint49_linear_932_25642" x1="195.216" y1="22.7393" x2="195.216" y2="43.1486" gradientUnits="userSpaceOnUse">
<stop stop-color="#A8C9D1"/>
<stop offset="1" stop-color="white"/>
</linearGradient>
<linearGradient id="paint50_linear_932_25642" x1="177.2" y1="62.9512" x2="177.2" y2="92.3444" gradientUnits="userSpaceOnUse">
<stop stop-color="#A8C9D1"/>
<stop offset="1" stop-color="white"/>
</linearGradient>
<linearGradient id="paint51_linear_932_25642" x1="30.6518" y1="62.5732" x2="30.6518" y2="89.1835" gradientUnits="userSpaceOnUse">
<stop stop-color="#A8C9D1"/>
<stop offset="1" stop-color="white"/>
</linearGradient>
<linearGradient id="paint52_linear_932_25642" x1="145.142" y1="86.2852" x2="145.142" y2="104.861" gradientUnits="userSpaceOnUse">
<stop stop-color="#A8C9D1"/>
<stop offset="1" stop-color="white"/>
</linearGradient>
<linearGradient id="paint53_linear_932_25642" x1="90.9576" y1="100.736" x2="90.9576" y2="130.784" gradientUnits="userSpaceOnUse">
<stop stop-color="#A8C9D1"/>
<stop offset="1" stop-color="white"/>
</linearGradient>
<linearGradient id="paint54_linear_932_25642" x1="250.992" y1="87.1885" x2="250.992" y2="105.859" gradientUnits="userSpaceOnUse">
<stop stop-color="#A8C9D1"/>
<stop offset="1" stop-color="white"/>
</linearGradient>
<linearGradient id="paint55_linear_932_25642" x1="163.521" y1="124.556" x2="163.521" y2="154.078" gradientUnits="userSpaceOnUse">
<stop stop-color="#A8C9D1"/>
<stop offset="1" stop-color="white"/>
</linearGradient>
<linearGradient id="paint56_linear_932_25642" x1="310.233" y1="124.946" x2="310.233" y2="151.422" gradientUnits="userSpaceOnUse">
<stop stop-color="#A8C9D1"/>
<stop offset="1" stop-color="white"/>
</linearGradient>
<linearGradient id="paint57_linear_932_25642" x1="204.685" y1="162.962" x2="204.685" y2="192.781" gradientUnits="userSpaceOnUse">
<stop stop-color="#A8C9D1"/>
<stop offset="1" stop-color="white"/>
</linearGradient>
<linearGradient id="paint58_linear_932_25642" x1="269.927" y1="162.988" x2="269.927" y2="192.767" gradientUnits="userSpaceOnUse">
<stop stop-color="#A8C9D1"/>
<stop offset="1" stop-color="white"/>
</linearGradient>
<linearGradient id="paint59_linear_932_25642" x1="145.14" y1="82.5391" x2="145.14" y2="101.115" gradientUnits="userSpaceOnUse">
<stop stop-color="#A8C9D1"/>
<stop offset="1" stop-color="white"/>
</linearGradient>
<linearGradient id="paint60_linear_932_25642" x1="162.936" y1="-8.60254" x2="162.936" y2="26.6762" gradientUnits="userSpaceOnUse">
<stop stop-color="#A8C9D1"/>
<stop offset="1" stop-color="white"/>
</linearGradient>
<linearGradient id="paint61_linear_932_25642" x1="249.794" y1="29.8564" x2="249.794" y2="65.3648" gradientUnits="userSpaceOnUse">
<stop stop-color="#A8C9D1"/>
<stop offset="1" stop-color="white"/>
</linearGradient>
<linearGradient id="paint62_linear_932_25642" x1="309.733" y1="-8.21191" x2="309.733" y2="24.0062" gradientUnits="userSpaceOnUse">
<stop stop-color="#A8C9D1"/>
<stop offset="1" stop-color="white"/>
</linearGradient>
<linearGradient id="paint63_linear_932_25642" x1="195.222" y1="13.249" x2="195.222" y2="39.401" gradientUnits="userSpaceOnUse">
<stop stop-color="#A8C9D1"/>
<stop offset="1" stop-color="white"/>
</linearGradient>
<linearGradient id="paint64_linear_932_25642" x1="177.199" y1="53.4746" x2="177.199" y2="88.597" gradientUnits="userSpaceOnUse">
<stop stop-color="#A8C9D1"/>
<stop offset="1" stop-color="white"/>
</linearGradient>
<linearGradient id="paint65_linear_932_25642" x1="30.6586" y1="53.0967" x2="30.6586" y2="85.4361" gradientUnits="userSpaceOnUse">
<stop stop-color="#A8C9D1"/>
<stop offset="1" stop-color="white"/>
</linearGradient>
<linearGradient id="paint66_linear_932_25642" x1="145.14" y1="76.8096" x2="145.14" y2="95.3855" gradientUnits="userSpaceOnUse">
<stop stop-color="#A8C9D1"/>
<stop offset="1" stop-color="white"/>
</linearGradient>
<linearGradient id="paint67_linear_932_25642" x1="90.9557" y1="91.2471" x2="90.9557" y2="127.037" gradientUnits="userSpaceOnUse">
<stop stop-color="#A8C9D1"/>
<stop offset="1" stop-color="white"/>
</linearGradient>
<linearGradient id="paint68_linear_932_25642" x1="251.004" y1="77.6846" x2="251.004" y2="102.098" gradientUnits="userSpaceOnUse">
<stop stop-color="#A8C9D1"/>
<stop offset="1" stop-color="white"/>
</linearGradient>
<linearGradient id="paint69_linear_932_25642" x1="163.518" y1="115.066" x2="163.518" y2="150.332" gradientUnits="userSpaceOnUse">
<stop stop-color="#A8C9D1"/>
<stop offset="1" stop-color="white"/>
</linearGradient>
<linearGradient id="paint70_linear_932_25642" x1="310.218" y1="115.443" x2="310.218" y2="147.648" gradientUnits="userSpaceOnUse">
<stop stop-color="#A8C9D1"/>
<stop offset="1" stop-color="white"/>
</linearGradient>
<linearGradient id="paint71_linear_932_25642" x1="204.683" y1="153.473" x2="204.683" y2="189.02" gradientUnits="userSpaceOnUse">
<stop stop-color="#A8C9D1"/>
<stop offset="1" stop-color="white"/>
</linearGradient>
<linearGradient id="paint72_linear_932_25642" x1="269.925" y1="153.511" x2="269.925" y2="189.019" gradientUnits="userSpaceOnUse">
<stop stop-color="#A8C9D1"/>
<stop offset="1" stop-color="white"/>
</linearGradient>
<linearGradient id="paint73_linear_932_25642" x1="224.04" y1="54.0127" x2="224.04" y2="176.482" gradientUnits="userSpaceOnUse">
<stop stop-color="#A8C9D1"/>
<stop offset="1" stop-color="white"/>
</linearGradient>
<linearGradient id="paint74_linear_932_25642" x1="223.533" y1="-66.9932" x2="223.533" y2="52.8272" gradientUnits="userSpaceOnUse">
<stop stop-color="#A8C9D1"/>
<stop offset="1" stop-color="white"/>
</linearGradient>
<linearGradient id="paint75_linear_932_25642" x1="116.715" y1="-7.95605" x2="116.715" y2="114.527" gradientUnits="userSpaceOnUse">
<stop stop-color="#A8C9D1"/>
<stop offset="1" stop-color="white"/>
</linearGradient>
<linearGradient id="paint76_linear_932_25642" x1="444.953" y1="248.991" x2="444.953" y2="284.622" gradientUnits="userSpaceOnUse">
<stop stop-color="#A8C9D1"/>
<stop offset="1" stop-color="white"/>
</linearGradient>
<linearGradient id="paint77_linear_932_25642" x1="463.046" y1="173.354" x2="463.046" y2="197.727" gradientUnits="userSpaceOnUse">
<stop stop-color="#A8C9D1"/>
<stop offset="1" stop-color="white"/>
</linearGradient>
<linearGradient id="paint78_linear_932_25642" x1="404.22" y1="210.668" x2="404.22" y2="243.007" gradientUnits="userSpaceOnUse">
<stop stop-color="#A8C9D1"/>
<stop offset="1" stop-color="white"/>
</linearGradient>
<linearGradient id="paint79_linear_932_25642" x1="490.231" y1="149.603" x2="490.231" y2="272.085" gradientUnits="userSpaceOnUse">
<stop stop-color="#A8C9D1"/>
<stop offset="1" stop-color="white"/>
</linearGradient>
<linearGradient id="paint80_linear_932_25642" x1="463.05" y1="165.657" x2="463.05" y2="184.287" gradientUnits="userSpaceOnUse">
<stop stop-color="#A8C9D1"/>
<stop offset="1" stop-color="white"/>
</linearGradient>
<linearGradient id="paint81_linear_932_25642" x1="404.22" y1="202.958" x2="404.22" y2="229.568" gradientUnits="userSpaceOnUse">
<stop stop-color="#A8C9D1"/>
<stop offset="1" stop-color="white"/>
</linearGradient>
<linearGradient id="paint82_linear_932_25642" x1="444.967" y1="241.28" x2="444.967" y2="271.182" gradientUnits="userSpaceOnUse">
<stop stop-color="#A8C9D1"/>
<stop offset="1" stop-color="white"/>
</linearGradient>
<linearGradient id="paint83_linear_932_25642" x1="444.953" y1="231.805" x2="444.953" y2="267.435" gradientUnits="userSpaceOnUse">
<stop stop-color="#A8C9D1"/>
<stop offset="1" stop-color="white"/>
</linearGradient>
<linearGradient id="paint84_linear_932_25642" x1="463.046" y1="156.155" x2="463.046" y2="180.528" gradientUnits="userSpaceOnUse">
<stop stop-color="#A8C9D1"/>
<stop offset="1" stop-color="white"/>
</linearGradient>
<linearGradient id="paint85_linear_932_25642" x1="404.22" y1="193.482" x2="404.22" y2="225.822" gradientUnits="userSpaceOnUse">
<stop stop-color="#A8C9D1"/>
<stop offset="1" stop-color="white"/>
</linearGradient>
<linearGradient id="paint86_linear_932_25642" x1="490.231" y1="132.415" x2="490.231" y2="254.898" gradientUnits="userSpaceOnUse">
<stop stop-color="#A8C9D1"/>
<stop offset="1" stop-color="white"/>
</linearGradient>
<linearGradient id="paint87_linear_932_25642" x1="445.509" y1="-23.6338" x2="445.509" y2="98.8354" gradientUnits="userSpaceOnUse">
<stop stop-color="#A8C9D1"/>
<stop offset="1" stop-color="white"/>
</linearGradient>
<linearGradient id="paint88_linear_932_25642" x1="359.5" y1="37.4189" x2="359.5" y2="69.7584" gradientUnits="userSpaceOnUse">
<stop stop-color="#A8C9D1"/>
<stop offset="1" stop-color="white"/>
</linearGradient>
<linearGradient id="paint89_linear_932_25642" x1="418.311" y1="-0.191406" x2="418.311" y2="24.4777" gradientUnits="userSpaceOnUse">
<stop stop-color="#A8C9D1"/>
<stop offset="1" stop-color="white"/>
</linearGradient>
<linearGradient id="paint90_linear_932_25642" x1="465.421" y1="75.9053" x2="465.421" y2="111.372" gradientUnits="userSpaceOnUse">
<stop stop-color="#A8C9D1"/>
<stop offset="1" stop-color="white"/>
</linearGradient>
<linearGradient id="paint91_linear_932_25642" x1="400.201" y1="75.7402" x2="400.201" y2="111.371" gradientUnits="userSpaceOnUse">
<stop stop-color="#A8C9D1"/>
<stop offset="1" stop-color="white"/>
</linearGradient>
<linearGradient id="paint92_linear_932_25642" x1="506.161" y1="37.7959" x2="506.161" y2="72.9298" gradientUnits="userSpaceOnUse">
<stop stop-color="#A8C9D1"/>
<stop offset="1" stop-color="white"/>
</linearGradient>
<linearGradient id="paint93_linear_932_25642" x1="359.494" y1="29.6953" x2="359.494" y2="56.3056" gradientUnits="userSpaceOnUse">
<stop stop-color="#A8C9D1"/>
<stop offset="1" stop-color="white"/>
</linearGradient>
<linearGradient id="paint94_linear_932_25642" x1="418.299" y1="-7.90234" x2="418.299" y2="11.0241" gradientUnits="userSpaceOnUse">
<stop stop-color="#A8C9D1"/>
<stop offset="1" stop-color="white"/>
</linearGradient>
<linearGradient id="paint95_linear_932_25642" x1="465.408" y1="68.1943" x2="465.408" y2="97.932" gradientUnits="userSpaceOnUse">
<stop stop-color="#A8C9D1"/>
<stop offset="1" stop-color="white"/>
</linearGradient>
<linearGradient id="paint96_linear_932_25642" x1="400.201" y1="68.0312" x2="400.201" y2="97.9326" gradientUnits="userSpaceOnUse">
<stop stop-color="#A8C9D1"/>
<stop offset="1" stop-color="white"/>
</linearGradient>
<linearGradient id="paint97_linear_932_25642" x1="506.155" y1="30.0723" x2="506.155" y2="59.477" gradientUnits="userSpaceOnUse">
<stop stop-color="#A8C9D1"/>
<stop offset="1" stop-color="white"/>
</linearGradient>
<linearGradient id="paint98_linear_932_25642" x1="359.5" y1="20.2314" x2="359.5" y2="52.5709" gradientUnits="userSpaceOnUse">
<stop stop-color="#A8C9D1"/>
<stop offset="1" stop-color="white"/>
</linearGradient>
<linearGradient id="paint99_linear_932_25642" x1="418.311" y1="-17.3926" x2="418.311" y2="7.27651" gradientUnits="userSpaceOnUse">
<stop stop-color="#A8C9D1"/>
<stop offset="1" stop-color="white"/>
</linearGradient>
<linearGradient id="paint100_linear_932_25642" x1="465.421" y1="58.7178" x2="465.421" y2="94.1846" gradientUnits="userSpaceOnUse">
<stop stop-color="#A8C9D1"/>
<stop offset="1" stop-color="white"/>
</linearGradient>
<linearGradient id="paint101_linear_932_25642" x1="400.201" y1="58.54" x2="400.201" y2="94.1706" gradientUnits="userSpaceOnUse">
<stop stop-color="#A8C9D1"/>
<stop offset="1" stop-color="white"/>
</linearGradient>
<linearGradient id="paint102_linear_932_25642" x1="506.161" y1="20.5947" x2="506.161" y2="55.7286" gradientUnits="userSpaceOnUse">
<stop stop-color="#A8C9D1"/>
<stop offset="1" stop-color="white"/>
</linearGradient>
<linearGradient id="paint103_linear_932_25642" x1="445.509" y1="-40.834" x2="445.509" y2="81.6353" gradientUnits="userSpaceOnUse">
<stop stop-color="#A8C9D1"/>
<stop offset="1" stop-color="white"/>
</linearGradient>
<linearGradient id="paint104_linear_932_25642" x1="376.341" y1="287.668" x2="376.341" y2="408.56" gradientUnits="userSpaceOnUse">
<stop stop-color="#A8C9D1"/>
<stop offset="1" stop-color="white"/>
</linearGradient>
<linearGradient id="paint105_linear_932_25642" x1="376.341" y1="270.144" x2="376.341" y2="391.036" gradientUnits="userSpaceOnUse">
<stop stop-color="#A8C9D1"/>
<stop offset="1" stop-color="white"/>
</linearGradient>
<clipPath id="clip0_932_25642">
<rect width="462" height="291" rx="8" fill="white"/>
</clipPath>
</defs>
</svg>
