<svg width="462" height="291" viewBox="0 0 462 291" fill="none" xmlns="http://www.w3.org/2000/svg">
<g clip-path="url(#clip0_932_26267)">
<rect width="462" height="291" rx="8" fill="#F6F7F8"/>
<path d="M339.488 275.841L126.128 152.659C124.465 151.698 122.95 151.643 121.786 152.308L118.607 154.156C118.607 154.156 119.347 154.267 120.067 154.359C119.679 155.265 119.457 156.373 119.457 157.686V304.687C119.457 309.584 122.433 315.275 126.11 317.4L339.469 440.582C339.876 440.822 340.264 440.988 340.652 441.118V442.781L343.849 440.933C345.253 440.12 346.159 438.235 346.159 435.556V288.554C346.159 283.657 343.184 277.966 339.506 275.841H339.488Z" fill="url(#paint0_linear_932_26267)" stroke="#64B5C8"/>
<path d="M336.403 442.393L123.043 319.211C119.366 317.086 116.391 311.394 116.391 306.498V159.496C116.391 154.599 119.366 152.345 123.043 154.47L336.403 277.652C340.08 279.777 343.055 285.468 343.055 290.365V437.366C343.055 442.263 340.08 444.518 336.403 442.393Z" fill="url(#paint1_linear_932_26267)" stroke="#64B5C8"/>
<path d="M134.512 229.951C134.512 228.421 136.159 227.458 137.492 228.208L154.036 237.514C155.61 238.399 156.585 240.065 156.585 241.872V261.739C156.585 263.269 154.937 264.232 153.604 263.482L137.06 254.177C135.486 253.291 134.512 251.625 134.512 249.819V229.951Z" fill="url(#paint2_linear_932_26267)" stroke="#64B5C8"/>
<path d="M593.328 165.477L379.968 42.2949C378.305 41.334 376.79 41.2786 375.626 41.9438L372.447 43.7917C372.447 43.7917 373.186 43.9026 373.907 43.995C373.519 44.9005 373.297 46.0092 373.297 47.3212V194.322C373.297 199.219 376.272 204.911 379.95 207.036L593.309 330.218C593.716 330.458 594.104 330.624 594.492 330.753V332.417L597.689 330.569C599.093 329.756 599.999 327.871 599.999 325.191V178.19C599.999 173.293 597.024 167.602 593.346 165.477H593.328Z" fill="url(#paint3_linear_932_26267)" stroke="#64B5C8"/>
<path d="M590.242 332.027L376.883 208.846C373.206 206.721 370.23 201.029 370.23 196.132V49.1312C370.23 44.2342 373.206 41.9798 376.883 44.1049L590.242 167.286C593.92 169.412 596.895 175.103 596.895 180V327.001C596.895 331.898 593.92 334.153 590.242 332.027Z" fill="url(#paint4_linear_932_26267)" stroke="#64B5C8"/>
<path d="M478.906 233.206C478.906 235.011 476.952 236.139 475.389 235.237L439.59 214.568C438.865 214.149 438.418 213.375 438.418 212.537C438.418 210.733 440.372 209.605 441.935 210.507L477.733 231.176C478.459 231.595 478.906 232.369 478.906 233.206Z" fill="url(#paint5_linear_932_26267)" stroke="#64B5C8"/>
<path d="M388.35 119.586C388.35 118.056 389.997 117.093 391.33 117.843L407.874 127.148C409.448 128.034 410.423 129.7 410.423 131.506V151.374C410.423 152.904 408.775 153.867 407.442 153.117L390.898 143.811C389.324 142.926 388.35 141.26 388.35 139.453V119.586Z" fill="url(#paint6_linear_932_26267)" stroke="#64B5C8"/>
<path d="M593.328 366.893L379.968 243.711C378.305 242.75 376.79 242.695 375.626 243.36L372.447 245.208C372.447 245.208 373.186 245.319 373.907 245.411C373.519 246.317 373.297 247.425 373.297 248.737V395.738C373.297 400.635 376.272 406.327 379.95 408.452L593.309 531.634C593.716 531.874 594.104 532.04 594.492 532.169V533.833L597.689 531.985C599.093 531.172 599.999 529.287 599.999 526.607V379.606C599.999 374.709 597.024 369.018 593.346 366.893H593.328Z" fill="url(#paint7_linear_932_26267)" stroke="#64B5C8"/>
<path d="M590.242 533.444L376.883 410.262C373.206 408.137 370.23 402.445 370.23 397.548V250.547C370.23 245.65 373.206 243.396 376.883 245.521L590.242 368.702C593.92 370.828 596.895 376.519 596.895 381.416V528.417C596.895 533.314 593.92 535.569 590.242 533.444Z" fill="url(#paint8_linear_932_26267)" stroke="#64B5C8"/>
<path d="M85.65 217.899L-127.709 94.7178C-129.373 93.7569 -130.888 93.7014 -132.052 94.3667L-135.23 96.2146C-135.23 96.2146 -134.491 96.3255 -133.771 96.4179C-134.159 97.3233 -134.38 98.4321 -134.38 99.7441V246.745C-134.38 251.642 -131.405 257.334 -127.728 259.459L85.6315 382.64C86.0381 382.881 86.4261 383.047 86.8142 383.176V384.839L90.0111 382.992C91.4155 382.178 92.321 380.294 92.321 377.614V230.613C92.321 225.716 89.3458 220.024 85.6685 217.899H85.65Z" fill="url(#paint9_linear_932_26267)" stroke="#64B5C8"/>
<path d="M82.5628 384.451L-130.797 261.27C-134.474 259.145 -137.449 253.453 -137.449 248.556V101.555C-137.449 96.658 -134.474 94.4036 -130.797 96.5287L82.5628 219.71C86.2401 221.835 89.2153 227.527 89.2153 232.424V379.425C89.2153 384.322 86.2401 386.576 82.5628 384.451Z" fill="url(#paint10_linear_932_26267)" stroke="#64B5C8"/>
<path d="M21.0111 314.382C21.0111 316.187 19.0571 317.315 17.4944 316.412L-18.3053 295.726C-19.0301 295.307 -19.4766 294.533 -19.4766 293.696C-19.4766 291.892 -17.5225 290.764 -15.9598 291.667L19.8398 312.352C20.5647 312.771 21.0111 313.545 21.0111 314.382Z" fill="url(#paint11_linear_932_26267)" stroke="#64B5C8"/>
<path d="M339.488 77.1845L126.128 -45.9971C124.465 -46.958 122.95 -47.0134 121.786 -46.3482L118.607 -44.5003C118.607 -44.5003 119.347 -44.3894 120.067 -44.297C119.679 -43.3915 119.457 -42.2828 119.457 -40.9707V106.03C119.457 110.927 122.433 116.619 126.11 118.744L339.469 241.926C339.876 242.166 340.264 242.332 340.652 242.461V244.125L343.849 242.277C345.253 241.464 346.159 239.579 346.159 236.899V89.8981C346.159 85.0012 343.184 79.3096 339.506 77.1845H339.488Z" fill="url(#paint12_linear_932_26267)" stroke="#64B5C8"/>
<path d="M336.403 243.736L123.043 120.554C119.366 118.429 116.391 112.737 116.391 107.84V-39.1608C116.391 -44.0578 119.366 -46.3122 123.043 -44.1871L336.403 78.9944C340.08 81.1195 343.055 86.8111 343.055 91.7081V238.709C343.055 243.606 340.08 245.861 336.403 243.736Z" fill="url(#paint13_linear_932_26267)" stroke="#64B5C8"/>
<path d="M225.068 144.914C225.068 146.719 223.114 147.847 221.551 146.945L185.752 126.276C185.027 125.857 184.58 125.083 184.58 124.245C184.58 122.441 186.534 121.313 188.097 122.215L223.896 142.884C224.621 143.303 225.068 144.077 225.068 144.914Z" fill="url(#paint14_linear_932_26267)" stroke="#64B5C8"/>
<path d="M274.849 173.667C274.849 175.472 272.895 176.6 271.332 175.697L235.533 155.011C234.808 154.592 234.361 153.819 234.361 152.982C234.361 151.177 236.315 150.049 237.878 150.952L273.678 171.638C274.403 172.056 274.849 172.83 274.849 173.667Z" fill="url(#paint15_linear_932_26267)" stroke="#64B5C8"/>
<path d="M324.651 202.404C324.651 204.209 322.697 205.337 321.134 204.435L285.317 183.765C284.592 183.346 284.145 182.572 284.145 181.734C284.145 179.929 286.098 178.801 287.661 179.703L323.478 200.373C324.204 200.792 324.651 201.566 324.651 202.404Z" fill="url(#paint16_linear_932_26267)" stroke="#64B5C8"/>
<path d="M134.512 31.2937C134.512 29.7641 136.159 28.8006 137.492 29.5506L154.036 38.8564C155.61 39.742 156.585 41.408 156.585 43.2143V63.0821C156.585 64.6117 154.937 65.5752 153.604 64.8252L137.06 55.5194C135.486 54.6338 134.512 52.9678 134.512 51.1615V31.2937Z" fill="url(#paint17_linear_932_26267)" stroke="#64B5C8"/>
<path d="M339.488 -120.093L126.128 -243.274C124.465 -244.235 122.95 -244.291 121.786 -243.626L118.607 -241.778C118.607 -241.778 119.347 -241.667 120.067 -241.574C119.679 -240.669 119.457 -239.56 119.457 -238.248V-91.247C119.457 -86.35 122.433 -80.6584 126.11 -78.5334L339.469 44.6482C339.876 44.8885 340.264 45.0548 340.652 45.1841V46.8472L343.849 44.9993C345.253 44.1862 346.159 42.3014 346.159 39.6219V-107.379C346.159 -112.276 343.184 -117.968 339.506 -120.093H339.488Z" fill="url(#paint18_linear_932_26267)" stroke="#64B5C8"/>
<path d="M336.403 46.4582L123.043 -76.7234C119.366 -78.8485 116.391 -84.5401 116.391 -89.437V-236.438C116.391 -241.335 119.366 -243.59 123.043 -241.464L336.403 -118.283C340.08 -116.158 343.055 -110.466 343.055 -105.569V41.4318C343.055 46.3288 340.08 48.5833 336.403 46.4582Z" fill="url(#paint19_linear_932_26267)" stroke="#64B5C8"/>
<path d="M324.651 5.12656C324.651 6.93135 322.697 8.0595 321.134 7.15739L285.317 -13.5123C284.592 -13.9311 284.145 -14.7053 284.145 -15.5432C284.145 -17.348 286.098 -18.4761 287.661 -17.574L323.478 3.09572C324.204 3.51451 324.651 4.2887 324.651 5.12656Z" fill="url(#paint20_linear_932_26267)" stroke="#64B5C8"/>
<path d="M593.328 -33.1807L379.968 -156.362C378.305 -157.323 376.79 -157.379 375.626 -156.713L372.447 -154.865C372.447 -154.865 373.186 -154.755 373.907 -154.662C373.519 -153.757 373.297 -152.648 373.297 -151.336V-4.33486C373.297 0.562097 376.272 6.25366 379.95 8.37876L593.309 131.56C593.716 131.801 594.104 131.967 594.492 132.096V133.759L597.689 131.911C599.093 131.098 599.999 129.213 599.999 126.534V-20.4671C599.999 -25.3641 597.024 -31.0556 593.346 -33.1807H593.328Z" fill="url(#paint21_linear_932_26267)" stroke="#64B5C8"/>
<path d="M590.242 133.371L376.883 10.1896C373.206 8.06455 370.23 2.373 370.23 -2.52396V-149.525C370.23 -154.422 373.206 -156.676 376.883 -154.551L590.242 -31.3698C593.92 -29.2447 596.895 -23.5532 596.895 -18.6562V128.345C596.895 133.242 593.92 135.496 590.242 133.371Z" fill="url(#paint22_linear_932_26267)" stroke="#64B5C8"/>
<path d="M478.906 34.549C478.906 36.3537 476.952 37.4817 475.389 36.5793L439.59 15.9105C438.865 15.4917 438.418 14.7177 438.418 13.8801C438.418 12.0753 440.372 10.9474 441.935 11.8498L477.733 32.5186C478.459 32.9374 478.906 33.7114 478.906 34.549Z" fill="url(#paint23_linear_932_26267)" stroke="#64B5C8"/>
<path d="M85.65 19.2421L-127.709 -103.939C-129.373 -104.9 -130.888 -104.956 -132.052 -104.291L-135.23 -102.443C-135.23 -102.443 -134.491 -102.332 -133.771 -102.239C-134.159 -101.334 -134.38 -100.225 -134.38 -98.9131V48.088C-134.38 52.9849 -131.405 58.6765 -127.728 60.8016L85.6315 183.983C86.0381 184.223 86.4261 184.39 86.8142 184.519V186.182L90.0111 184.334C91.4155 183.521 92.321 181.636 92.321 178.957V31.9558C92.321 27.0588 89.3458 21.3672 85.6685 19.2421H85.65Z" fill="url(#paint24_linear_932_26267)" stroke="#64B5C8"/>
<path d="M82.5628 185.794L-130.797 62.6125C-134.474 60.4874 -137.449 54.7959 -137.449 49.8989V-97.1022C-137.449 -101.999 -134.474 -104.254 -130.797 -102.129L82.5628 21.053C86.2401 23.1781 89.2153 28.8697 89.2153 33.7666V180.768C89.2153 185.665 86.2401 187.919 82.5628 185.794Z" fill="url(#paint25_linear_932_26267)" stroke="#64B5C8"/>
<path d="M21.0111 115.726C21.0111 117.531 19.0571 118.658 17.4944 117.755L-18.3053 97.0697C-19.0301 96.6508 -19.4766 95.8772 -19.4766 95.0401C-19.4766 93.2353 -17.5225 92.1076 -15.9598 93.0105L19.8398 113.696C20.5647 114.115 21.0111 114.889 21.0111 115.726Z" fill="url(#paint26_linear_932_26267)" stroke="#64B5C8"/>
<path d="M70.8108 144.462C70.8108 146.267 68.8573 147.395 67.2941 146.493L31.4774 125.824C30.7518 125.405 30.3047 124.631 30.3047 123.793C30.3047 121.988 32.2583 120.86 33.8214 121.762L69.6381 142.432C70.3638 142.85 70.8108 143.625 70.8108 144.462Z" fill="url(#paint27_linear_932_26267)" stroke="#64B5C8"/>
</g>
<defs>
<linearGradient id="paint0_linear_932_26267" x1="232.383" y1="151.864" x2="232.383" y2="442.781" gradientUnits="userSpaceOnUse">
<stop stop-color="#A8C9D1"/>
<stop offset="1" stop-color="white"/>
</linearGradient>
<linearGradient id="paint1_linear_932_26267" x1="229.723" y1="153.67" x2="229.723" y2="443.193" gradientUnits="userSpaceOnUse">
<stop stop-color="#A8C9D1"/>
<stop offset="1" stop-color="white"/>
</linearGradient>
<linearGradient id="paint2_linear_932_26267" x1="145.548" y1="226.531" x2="145.548" y2="265.159" gradientUnits="userSpaceOnUse">
<stop stop-color="#A8C9D1"/>
<stop offset="1" stop-color="white"/>
</linearGradient>
<linearGradient id="paint3_linear_932_26267" x1="486.223" y1="41.5" x2="486.223" y2="332.417" gradientUnits="userSpaceOnUse">
<stop stop-color="#A8C9D1"/>
<stop offset="1" stop-color="white"/>
</linearGradient>
<linearGradient id="paint4_linear_932_26267" x1="483.563" y1="43.3047" x2="483.563" y2="332.828" gradientUnits="userSpaceOnUse">
<stop stop-color="#A8C9D1"/>
<stop offset="1" stop-color="white"/>
</linearGradient>
<linearGradient id="paint5_linear_932_26267" x1="458.662" y1="208.477" x2="458.662" y2="237.267" gradientUnits="userSpaceOnUse">
<stop stop-color="#A8C9D1"/>
<stop offset="1" stop-color="white"/>
</linearGradient>
<linearGradient id="paint6_linear_932_26267" x1="399.386" y1="116.166" x2="399.386" y2="154.794" gradientUnits="userSpaceOnUse">
<stop stop-color="#A8C9D1"/>
<stop offset="1" stop-color="white"/>
</linearGradient>
<linearGradient id="paint7_linear_932_26267" x1="486.223" y1="242.916" x2="486.223" y2="533.833" gradientUnits="userSpaceOnUse">
<stop stop-color="#A8C9D1"/>
<stop offset="1" stop-color="white"/>
</linearGradient>
<linearGradient id="paint8_linear_932_26267" x1="483.563" y1="244.721" x2="483.563" y2="534.244" gradientUnits="userSpaceOnUse">
<stop stop-color="#A8C9D1"/>
<stop offset="1" stop-color="white"/>
</linearGradient>
<linearGradient id="paint9_linear_932_26267" x1="-21.4548" y1="93.9229" x2="-21.4548" y2="384.839" gradientUnits="userSpaceOnUse">
<stop stop-color="#A8C9D1"/>
<stop offset="1" stop-color="white"/>
</linearGradient>
<linearGradient id="paint10_linear_932_26267" x1="-24.117" y1="95.7285" x2="-24.117" y2="385.251" gradientUnits="userSpaceOnUse">
<stop stop-color="#A8C9D1"/>
<stop offset="1" stop-color="white"/>
</linearGradient>
<linearGradient id="paint11_linear_932_26267" x1="0.767279" y1="289.635" x2="0.767279" y2="318.444" gradientUnits="userSpaceOnUse">
<stop stop-color="#A8C9D1"/>
<stop offset="1" stop-color="white"/>
</linearGradient>
<linearGradient id="paint12_linear_932_26267" x1="232.383" y1="-46.792" x2="232.383" y2="244.125" gradientUnits="userSpaceOnUse">
<stop stop-color="#A8C9D1"/>
<stop offset="1" stop-color="white"/>
</linearGradient>
<linearGradient id="paint13_linear_932_26267" x1="229.723" y1="-44.9873" x2="229.723" y2="244.536" gradientUnits="userSpaceOnUse">
<stop stop-color="#A8C9D1"/>
<stop offset="1" stop-color="white"/>
</linearGradient>
<linearGradient id="paint14_linear_932_26267" x1="204.824" y1="120.185" x2="204.824" y2="148.975" gradientUnits="userSpaceOnUse">
<stop stop-color="#A8C9D1"/>
<stop offset="1" stop-color="white"/>
</linearGradient>
<linearGradient id="paint15_linear_932_26267" x1="254.605" y1="148.92" x2="254.605" y2="177.729" gradientUnits="userSpaceOnUse">
<stop stop-color="#A8C9D1"/>
<stop offset="1" stop-color="white"/>
</linearGradient>
<linearGradient id="paint16_linear_932_26267" x1="304.398" y1="177.674" x2="304.398" y2="206.464" gradientUnits="userSpaceOnUse">
<stop stop-color="#A8C9D1"/>
<stop offset="1" stop-color="white"/>
</linearGradient>
<linearGradient id="paint17_linear_932_26267" x1="145.548" y1="27.874" x2="145.548" y2="66.5018" gradientUnits="userSpaceOnUse">
<stop stop-color="#A8C9D1"/>
<stop offset="1" stop-color="white"/>
</linearGradient>
<linearGradient id="paint18_linear_932_26267" x1="232.383" y1="-244.069" x2="232.383" y2="46.8472" gradientUnits="userSpaceOnUse">
<stop stop-color="#A8C9D1"/>
<stop offset="1" stop-color="white"/>
</linearGradient>
<linearGradient id="paint19_linear_932_26267" x1="229.723" y1="-242.265" x2="229.723" y2="47.2583" gradientUnits="userSpaceOnUse">
<stop stop-color="#A8C9D1"/>
<stop offset="1" stop-color="white"/>
</linearGradient>
<linearGradient id="paint20_linear_932_26267" x1="304.398" y1="-19.6035" x2="304.398" y2="9.1869" gradientUnits="userSpaceOnUse">
<stop stop-color="#A8C9D1"/>
<stop offset="1" stop-color="white"/>
</linearGradient>
<linearGradient id="paint21_linear_932_26267" x1="486.223" y1="-157.157" x2="486.223" y2="133.759" gradientUnits="userSpaceOnUse">
<stop stop-color="#A8C9D1"/>
<stop offset="1" stop-color="white"/>
</linearGradient>
<linearGradient id="paint22_linear_932_26267" x1="483.563" y1="-155.352" x2="483.563" y2="134.171" gradientUnits="userSpaceOnUse">
<stop stop-color="#A8C9D1"/>
<stop offset="1" stop-color="white"/>
</linearGradient>
<linearGradient id="paint23_linear_932_26267" x1="458.662" y1="9.81934" x2="458.662" y2="38.6098" gradientUnits="userSpaceOnUse">
<stop stop-color="#A8C9D1"/>
<stop offset="1" stop-color="white"/>
</linearGradient>
<linearGradient id="paint24_linear_932_26267" x1="-21.4548" y1="-104.734" x2="-21.4548" y2="186.182" gradientUnits="userSpaceOnUse">
<stop stop-color="#A8C9D1"/>
<stop offset="1" stop-color="white"/>
</linearGradient>
<linearGradient id="paint25_linear_932_26267" x1="-24.117" y1="-102.929" x2="-24.117" y2="186.594" gradientUnits="userSpaceOnUse">
<stop stop-color="#A8C9D1"/>
<stop offset="1" stop-color="white"/>
</linearGradient>
<linearGradient id="paint26_linear_932_26267" x1="0.767279" y1="90.9785" x2="0.767279" y2="119.787" gradientUnits="userSpaceOnUse">
<stop stop-color="#A8C9D1"/>
<stop offset="1" stop-color="white"/>
</linearGradient>
<linearGradient id="paint27_linear_932_26267" x1="50.5578" y1="119.732" x2="50.5578" y2="148.523" gradientUnits="userSpaceOnUse">
<stop stop-color="#A8C9D1"/>
<stop offset="1" stop-color="white"/>
</linearGradient>
<clipPath id="clip0_932_26267">
<rect width="462" height="291" rx="8" fill="white"/>
</clipPath>
</defs>
</svg>
