<svg width="499" height="120" viewBox="0 0 499 120" fill="none" xmlns="http://www.w3.org/2000/svg">
<g clip-path="url(#clip0_925_8152)">
<rect width="499" height="120" rx="8" fill="#F6F7F8"/>
<path d="M319.36 144.431L182.062 65.1629C180.992 64.5446 180.017 64.5089 179.267 64.937L177.222 66.1261C177.222 66.1261 177.698 66.1975 178.162 66.2569C177.912 66.8396 177.769 67.5531 177.769 68.3974V162.993C177.769 166.145 179.684 169.807 182.05 171.175L319.348 250.443C319.61 250.597 319.859 250.704 320.109 250.787V251.858L322.166 250.669C323.07 250.145 323.653 248.932 323.653 247.208V152.612C323.653 149.461 321.738 145.798 319.372 144.431H319.36Z" fill="url(#paint0_linear_925_8152)" stroke="#64B5C8"/>
<path d="M317.374 251.607L180.076 172.339C177.71 170.972 175.795 167.309 175.795 164.158V69.5619C175.795 66.4106 177.71 64.9599 180.076 66.3274L317.374 145.595C319.74 146.963 321.655 150.625 321.655 153.777V248.373C321.655 251.524 319.74 252.975 317.374 251.607Z" fill="url(#paint1_linear_925_8152)" stroke="#64B5C8"/>
<path d="M187.455 116.12C187.455 114.59 189.102 113.627 190.436 114.377L199.11 119.256C200.685 120.142 201.659 121.808 201.659 123.614V134.138C201.659 135.667 200.012 136.631 198.679 135.881L190.004 131.001C188.429 130.116 187.455 128.45 187.455 126.643V116.12Z" fill="url(#paint2_linear_925_8152)" stroke="#64B5C8"/>
<path d="M482.707 73.4104L345.409 -5.8576C344.339 -6.47595 343.364 -6.51162 342.615 -6.08353L340.57 -4.89439C340.57 -4.89439 341.045 -4.82304 341.509 -4.76359C341.259 -4.18091 341.117 -3.46743 341.117 -2.62314V91.9729C341.117 95.1241 343.031 98.7866 345.397 100.154L482.695 179.422C482.957 179.577 483.207 179.684 483.456 179.767V180.837L485.514 179.648C486.417 179.125 487 177.912 487 176.188V81.5917C487 78.4405 485.086 74.7779 482.719 73.4104H482.707Z" fill="url(#paint3_linear_925_8152)" stroke="#64B5C8"/>
<path d="M480.721 180.588L343.423 101.32C341.057 99.9521 339.143 96.2896 339.143 93.1383V-1.45766C339.143 -4.60888 341.057 -6.05963 343.423 -4.69212L480.721 74.5759C483.088 75.9434 485.002 79.6059 485.002 82.7572V177.353C485.002 180.504 483.088 181.955 480.721 180.588Z" fill="url(#paint4_linear_925_8152)" stroke="#64B5C8"/>
<path d="M409.076 116.995C409.076 118.156 407.819 118.882 406.813 118.301L383.777 105.001C383.31 104.731 383.022 104.233 383.022 103.694C383.022 102.533 384.279 101.807 385.285 102.388L408.322 115.688C408.789 115.958 409.076 116.456 409.076 116.995Z" fill="url(#paint5_linear_925_8152)" stroke="#64B5C8"/>
<path d="M441.111 135.498C441.111 136.66 439.854 137.385 438.848 136.804L415.811 123.493C415.344 123.223 415.057 122.726 415.057 122.187C415.057 121.026 416.315 120.3 417.32 120.881L440.357 134.192C440.824 134.462 441.111 134.96 441.111 135.498Z" fill="url(#paint6_linear_925_8152)" stroke="#64B5C8"/>
<path d="M350.802 45.0994C350.802 43.5697 352.45 42.6063 353.783 43.3562L362.458 48.2358C364.032 49.1214 365.006 50.7874 365.006 52.5937V63.1172C365.006 64.6468 363.359 65.6102 362.026 64.8603L353.351 59.9807C351.777 59.0951 350.802 57.4292 350.802 55.6228V45.0994Z" fill="url(#paint7_linear_925_8152)" stroke="#64B5C8"/>
<path d="M156.013 107.146L18.715 27.8778C17.6448 27.2594 16.6697 27.2237 15.9206 27.6518L13.8752 28.841C13.8752 28.841 14.3509 28.9123 14.8147 28.9718C14.5649 29.5544 14.4222 30.2679 14.4222 31.1122V125.708C14.4222 128.859 16.3368 132.522 18.7031 133.889L156.001 213.157C156.263 213.312 156.512 213.419 156.762 213.502V214.573L158.819 213.383C159.723 212.86 160.306 211.647 160.306 209.923V115.327C160.306 112.176 158.391 108.513 156.025 107.146H156.013Z" fill="url(#paint8_linear_925_8152)" stroke="#64B5C8"/>
<path d="M154.027 214.322L16.7291 135.054C14.3628 133.686 12.4482 130.024 12.4482 126.873V32.2767C12.4482 29.1255 14.3628 27.6747 16.7291 29.0423L154.027 108.31C156.394 109.678 158.308 113.34 158.308 116.492V211.088C158.308 214.239 156.394 215.69 154.027 214.322Z" fill="url(#paint9_linear_925_8152)" stroke="#64B5C8"/>
<path d="M24.1079 78.8328C24.1079 77.3031 25.7552 76.3397 27.0884 77.0896L35.7633 81.9692C37.3377 82.8548 38.312 84.5208 38.312 86.3271V96.8506C38.312 98.3802 36.6647 99.3436 35.3315 98.5937L26.6566 93.7141C25.0822 92.8285 24.1079 91.1626 24.1079 89.3562V78.8328Z" fill="url(#paint10_linear_925_8152)" stroke="#64B5C8"/>
<path d="M319.36 16.594L182.062 -62.674C180.992 -63.2924 180.017 -63.328 179.267 -62.8999L177.222 -61.7108C177.222 -61.7108 177.698 -61.6395 178.162 -61.58C177.912 -60.9973 177.769 -60.2838 177.769 -59.4395V35.1565C177.769 38.3077 179.684 41.9702 182.05 43.3377L319.348 122.606C319.61 122.76 319.859 122.867 320.109 122.951V124.021L322.166 122.832C323.07 122.308 323.653 121.096 323.653 119.371V24.7753C323.653 21.6241 321.738 17.9615 319.372 16.594H319.36Z" fill="url(#paint11_linear_925_8152)" stroke="#64B5C8"/>
<path d="M317.374 123.772L180.076 44.5042C177.71 43.1367 175.795 39.4741 175.795 36.3229V-58.2731C175.795 -61.4243 177.71 -62.8751 180.076 -61.5076L317.374 17.7605C319.74 19.128 321.655 22.7905 321.655 25.9417V120.538C321.655 123.689 319.74 125.14 317.374 123.772Z" fill="url(#paint12_linear_925_8152)" stroke="#64B5C8"/>
<path d="M245.729 60.1783C245.729 61.3397 244.472 62.0655 243.466 61.4848L220.429 48.1843C219.962 47.9148 219.675 47.4168 219.675 46.8778C219.675 45.7164 220.932 44.9905 221.938 45.5712L244.975 58.8717C245.441 59.1412 245.729 59.6393 245.729 60.1783Z" fill="url(#paint13_linear_925_8152)" stroke="#64B5C8"/>
<path d="M277.764 78.6818C277.764 79.8432 276.507 80.5689 275.501 79.9879L252.464 66.6765C251.997 66.407 251.71 65.9092 251.71 65.3705C251.71 64.2091 252.967 63.4834 253.973 64.0645L277.01 77.3758C277.477 77.6453 277.764 78.1431 277.764 78.6818Z" fill="url(#paint14_linear_925_8152)" stroke="#64B5C8"/>
<path d="M309.811 97.1737C309.811 98.3351 308.554 99.0611 307.548 98.4806L284.5 85.1795C284.033 84.91 283.745 84.4118 283.745 83.8726C283.745 82.7112 285.002 81.9853 286.008 82.5658L309.057 95.8668C309.524 96.1363 309.811 96.6345 309.811 97.1737Z" fill="url(#paint15_linear_925_8152)" stroke="#64B5C8"/>
<path d="M187.455 -11.717C187.455 -13.2467 189.102 -14.2101 190.436 -13.4602L199.11 -8.58056C200.685 -7.69496 201.659 -6.02905 201.659 -4.22268V6.30075C201.659 7.8304 200.012 8.79383 198.679 8.0439L190.004 3.16428C188.429 2.27869 187.455 0.612771 187.455 -1.1936V-11.717Z" fill="url(#paint16_linear_925_8152)" stroke="#64B5C8"/>
<path d="M482.707 -54.4265L345.409 -133.695C344.339 -134.313 343.364 -134.349 342.615 -133.92L340.57 -132.731C340.57 -132.731 341.045 -132.66 341.509 -132.601C341.259 -132.018 341.117 -131.304 341.117 -130.46V-35.8641C341.117 -32.7128 343.031 -29.0503 345.397 -27.6828L482.695 51.5852C482.957 51.7398 483.207 51.8468 483.456 51.9301V53.0003L485.514 51.8112C486.417 51.2879 487 50.075 487 48.3508V-46.2452C487 -49.3965 485.086 -53.059 482.719 -54.4265H482.707Z" fill="url(#paint17_linear_925_8152)" stroke="#64B5C8"/>
<path d="M480.721 52.7507L343.423 -26.5173C341.057 -27.8848 339.143 -31.5474 339.143 -34.6986V-129.295C339.143 -132.446 341.057 -133.897 343.423 -132.529L480.721 -53.261C483.088 -51.8935 485.002 -48.231 485.002 -45.0798V49.5163C485.002 52.6675 483.088 54.1182 480.721 52.7507Z" fill="url(#paint18_linear_925_8152)" stroke="#64B5C8"/>
<path d="M441.111 7.66134C441.111 8.82273 439.854 9.54842 438.848 8.96738L415.811 -4.34398C415.344 -4.6135 415.057 -5.11131 415.057 -5.65002C415.057 -6.81141 416.315 -7.5371 417.32 -6.95605L440.357 6.3553C440.824 6.62482 441.111 7.12263 441.111 7.66134Z" fill="url(#paint19_linear_925_8152)" stroke="#64B5C8"/>
<path d="M473.159 26.1532C473.159 27.3146 471.902 28.0406 470.896 27.46L447.847 14.159C447.38 13.8895 447.093 13.3913 447.093 12.8521C447.093 11.6907 448.35 10.9647 449.356 11.5453L472.404 24.8463C472.871 25.1158 473.159 25.614 473.159 26.1532Z" fill="url(#paint20_linear_925_8152)" stroke="#64B5C8"/>
<path d="M156.013 -20.6912L18.715 -99.9592C17.6448 -100.578 16.6697 -100.613 15.9206 -100.185L13.8752 -98.996C13.8752 -98.996 14.3509 -98.9246 14.8147 -98.8652C14.5649 -98.2825 14.4222 -97.569 14.4222 -96.7247V-2.1287C14.4222 1.02252 16.3368 4.68507 18.7031 6.05258L156.001 85.3206C156.263 85.4752 156.512 85.5822 156.762 85.6654V86.7356L158.819 85.5465C159.723 85.0233 160.306 83.8104 160.306 82.0861V-12.5099C160.306 -15.6611 158.391 -19.3237 156.025 -20.6912H156.013Z" fill="url(#paint21_linear_925_8152)" stroke="#64B5C8"/>
<path d="M154.027 86.4851L16.7291 7.21708C14.3628 5.84957 12.4482 2.18702 12.4482 -0.964194V-95.5602C12.4482 -98.7114 14.3628 -100.162 16.7291 -98.7947L154.027 -19.5267C156.394 -18.1591 158.308 -14.4966 158.308 -11.3454V83.2506C158.308 86.4018 156.394 87.8526 154.027 86.4851Z" fill="url(#paint22_linear_925_8152)" stroke="#64B5C8"/>
<path d="M82.3819 22.8931C82.3819 24.0545 81.1247 24.7804 80.1189 24.1997L57.0822 10.8992C56.6154 10.6297 56.3279 10.1316 56.3279 9.59264C56.3279 8.43125 57.5851 7.70538 58.5909 8.28609L81.6276 21.5866C82.0944 21.8561 82.3819 22.3541 82.3819 22.8931Z" fill="url(#paint23_linear_925_8152)" stroke="#64B5C8"/>
<path d="M114.417 41.3967C114.417 42.5581 113.159 43.2838 112.154 42.7027L89.1165 29.3914C88.6501 29.1219 88.3628 28.624 88.3628 28.0853C88.3628 26.9239 89.6202 26.1983 90.6258 26.7793L113.663 40.0907C114.13 40.3602 114.417 40.858 114.417 41.3967Z" fill="url(#paint24_linear_925_8152)" stroke="#64B5C8"/>
<path d="M146.464 59.8885C146.464 61.0499 145.207 61.7759 144.201 61.1954L121.153 47.8943C120.686 47.6248 120.398 47.1266 120.398 46.5875C120.398 45.4261 121.656 44.7001 122.661 45.2806L145.71 58.5817C146.177 58.8512 146.464 59.3494 146.464 59.8885Z" fill="url(#paint25_linear_925_8152)" stroke="#64B5C8"/>
</g>
<defs>
<linearGradient id="paint0_linear_925_8152" x1="250.437" y1="64.6514" x2="250.437" y2="251.858" gradientUnits="userSpaceOnUse">
<stop stop-color="#A8C9D1"/>
<stop offset="1" stop-color="white"/>
</linearGradient>
<linearGradient id="paint1_linear_925_8152" x1="248.725" y1="65.8125" x2="248.725" y2="252.122" gradientUnits="userSpaceOnUse">
<stop stop-color="#A8C9D1"/>
<stop offset="1" stop-color="white"/>
</linearGradient>
<linearGradient id="paint2_linear_925_8152" x1="194.557" y1="112.7" x2="194.557" y2="137.557" gradientUnits="userSpaceOnUse">
<stop stop-color="#A8C9D1"/>
<stop offset="1" stop-color="white"/>
</linearGradient>
<linearGradient id="paint3_linear_925_8152" x1="413.785" y1="-6.36914" x2="413.785" y2="180.837" gradientUnits="userSpaceOnUse">
<stop stop-color="#A8C9D1"/>
<stop offset="1" stop-color="white"/>
</linearGradient>
<linearGradient id="paint4_linear_925_8152" x1="412.072" y1="-5.20703" x2="412.072" y2="181.103" gradientUnits="userSpaceOnUse">
<stop stop-color="#A8C9D1"/>
<stop offset="1" stop-color="white"/>
</linearGradient>
<linearGradient id="paint5_linear_925_8152" x1="396.049" y1="101.081" x2="396.049" y2="119.608" gradientUnits="userSpaceOnUse">
<stop stop-color="#A8C9D1"/>
<stop offset="1" stop-color="white"/>
</linearGradient>
<linearGradient id="paint6_linear_925_8152" x1="428.084" y1="119.573" x2="428.084" y2="138.112" gradientUnits="userSpaceOnUse">
<stop stop-color="#A8C9D1"/>
<stop offset="1" stop-color="white"/>
</linearGradient>
<linearGradient id="paint7_linear_925_8152" x1="357.904" y1="41.6797" x2="357.904" y2="66.5368" gradientUnits="userSpaceOnUse">
<stop stop-color="#A8C9D1"/>
<stop offset="1" stop-color="white"/>
</linearGradient>
<linearGradient id="paint8_linear_925_8152" x1="87.0905" y1="27.3662" x2="87.0905" y2="214.573" gradientUnits="userSpaceOnUse">
<stop stop-color="#A8C9D1"/>
<stop offset="1" stop-color="white"/>
</linearGradient>
<linearGradient id="paint9_linear_925_8152" x1="85.3781" y1="28.5273" x2="85.3781" y2="214.837" gradientUnits="userSpaceOnUse">
<stop stop-color="#A8C9D1"/>
<stop offset="1" stop-color="white"/>
</linearGradient>
<linearGradient id="paint10_linear_925_8152" x1="31.21" y1="75.4131" x2="31.21" y2="100.27" gradientUnits="userSpaceOnUse">
<stop stop-color="#A8C9D1"/>
<stop offset="1" stop-color="white"/>
</linearGradient>
<linearGradient id="paint11_linear_925_8152" x1="250.437" y1="-63.1855" x2="250.437" y2="124.021" gradientUnits="userSpaceOnUse">
<stop stop-color="#A8C9D1"/>
<stop offset="1" stop-color="white"/>
</linearGradient>
<linearGradient id="paint12_linear_925_8152" x1="248.725" y1="-62.0225" x2="248.725" y2="124.287" gradientUnits="userSpaceOnUse">
<stop stop-color="#A8C9D1"/>
<stop offset="1" stop-color="white"/>
</linearGradient>
<linearGradient id="paint13_linear_925_8152" x1="232.702" y1="44.2646" x2="232.702" y2="62.7914" gradientUnits="userSpaceOnUse">
<stop stop-color="#A8C9D1"/>
<stop offset="1" stop-color="white"/>
</linearGradient>
<linearGradient id="paint14_linear_925_8152" x1="264.737" y1="62.7568" x2="264.737" y2="81.2955" gradientUnits="userSpaceOnUse">
<stop stop-color="#A8C9D1"/>
<stop offset="1" stop-color="white"/>
</linearGradient>
<linearGradient id="paint15_linear_925_8152" x1="296.778" y1="81.2598" x2="296.778" y2="99.7866" gradientUnits="userSpaceOnUse">
<stop stop-color="#A8C9D1"/>
<stop offset="1" stop-color="white"/>
</linearGradient>
<linearGradient id="paint16_linear_925_8152" x1="194.557" y1="-15.1367" x2="194.557" y2="9.72044" gradientUnits="userSpaceOnUse">
<stop stop-color="#A8C9D1"/>
<stop offset="1" stop-color="white"/>
</linearGradient>
<linearGradient id="paint17_linear_925_8152" x1="413.785" y1="-134.206" x2="413.785" y2="53.0003" gradientUnits="userSpaceOnUse">
<stop stop-color="#A8C9D1"/>
<stop offset="1" stop-color="white"/>
</linearGradient>
<linearGradient id="paint18_linear_925_8152" x1="412.072" y1="-133.044" x2="412.072" y2="53.2656" gradientUnits="userSpaceOnUse">
<stop stop-color="#A8C9D1"/>
<stop offset="1" stop-color="white"/>
</linearGradient>
<linearGradient id="paint19_linear_925_8152" x1="428.084" y1="-8.26367" x2="428.084" y2="10.275" gradientUnits="userSpaceOnUse">
<stop stop-color="#A8C9D1"/>
<stop offset="1" stop-color="white"/>
</linearGradient>
<linearGradient id="paint20_linear_925_8152" x1="460.126" y1="10.2393" x2="460.126" y2="28.766" gradientUnits="userSpaceOnUse">
<stop stop-color="#A8C9D1"/>
<stop offset="1" stop-color="white"/>
</linearGradient>
<linearGradient id="paint21_linear_925_8152" x1="87.0905" y1="-100.471" x2="87.0905" y2="86.7356" gradientUnits="userSpaceOnUse">
<stop stop-color="#A8C9D1"/>
<stop offset="1" stop-color="white"/>
</linearGradient>
<linearGradient id="paint22_linear_925_8152" x1="85.3781" y1="-99.3096" x2="85.3781" y2="87" gradientUnits="userSpaceOnUse">
<stop stop-color="#A8C9D1"/>
<stop offset="1" stop-color="white"/>
</linearGradient>
<linearGradient id="paint23_linear_925_8152" x1="69.3549" y1="6.97949" x2="69.3549" y2="25.5063" gradientUnits="userSpaceOnUse">
<stop stop-color="#A8C9D1"/>
<stop offset="1" stop-color="white"/>
</linearGradient>
<linearGradient id="paint24_linear_925_8152" x1="101.39" y1="25.4717" x2="101.39" y2="44.0104" gradientUnits="userSpaceOnUse">
<stop stop-color="#A8C9D1"/>
<stop offset="1" stop-color="white"/>
</linearGradient>
<linearGradient id="paint25_linear_925_8152" x1="133.431" y1="43.9746" x2="133.431" y2="62.5014" gradientUnits="userSpaceOnUse">
<stop stop-color="#A8C9D1"/>
<stop offset="1" stop-color="white"/>
</linearGradient>
<clipPath id="clip0_925_8152">
<rect width="499" height="120" rx="8" fill="white"/>
</clipPath>
</defs>
</svg>
