<svg width="462" height="291" viewBox="0 0 462 291" fill="none" xmlns="http://www.w3.org/2000/svg">
<g clip-path="url(#clip0_925_9022)">
<rect width="462" height="291" rx="8" fill="#F6F7F8"/>
<path d="M-12.0381 248.069C-12.1285 248.069 -12.2188 248.051 -12.3091 247.996L-214.446 131.282C-214.699 131.137 -214.789 130.812 -214.645 130.541C-214.5 130.27 -214.175 130.198 -213.904 130.342L-12.0201 246.894L244.788 98.6342C244.951 98.5438 245.168 98.5438 245.33 98.6342L416.446 197.426L529.33 132.257C529.583 132.113 529.908 132.203 530.071 132.456C530.215 132.709 530.125 133.034 529.872 133.197L416.717 198.528C416.554 198.618 416.337 198.618 416.175 198.528L245.059 99.7363L-11.7491 247.996C-11.7491 247.996 -11.9297 248.069 -12.0201 248.069H-12.0381Z" fill="url(#paint0_linear_925_9022)" stroke="#64B5C8" stroke-linejoin="round"/>
<path d="M643.443 323.969C643.353 323.969 643.262 323.951 643.172 323.897L495.617 238.71L404.16 291.52C403.997 291.611 403.781 291.611 403.618 291.52L44.8198 84.3608C44.6572 84.2705 44.5488 84.0898 44.5488 83.891C44.5488 83.6923 44.6572 83.5297 44.8198 83.4213L228.293 -22.5072C228.546 -22.6517 228.871 -22.5614 229.034 -22.3085C229.196 -22.0555 229.088 -21.7303 228.835 -21.5677L46.1749 83.891L403.907 290.418L495.364 237.607C495.526 237.517 495.743 237.517 495.906 237.607L643.732 322.957C643.985 323.102 644.076 323.427 643.931 323.698C643.841 323.861 643.66 323.969 643.461 323.969H643.443Z" fill="url(#paint1_linear_925_9022)" stroke="#64B5C8" stroke-linejoin="round"/>
<path d="M311.041 395.262C310.951 395.262 310.86 395.244 310.77 395.19L201.246 331.954C201.083 331.864 200.975 331.683 200.975 331.484C200.975 331.286 201.083 331.123 201.246 331.015L337.473 252.368C337.726 252.223 338.052 252.314 338.214 252.567C338.377 252.819 338.268 253.145 338.015 253.307L202.583 331.484L311.294 394.25C311.547 394.395 311.637 394.72 311.493 394.991C311.402 395.154 311.222 395.262 311.023 395.262H311.041Z" fill="url(#paint2_linear_925_9022)" stroke="#64B5C8" stroke-linejoin="round"/>
<path d="M471.244 426.879C471.154 426.879 471.063 426.861 470.973 426.807L-120.803 85.1364C-121.056 84.9919 -121.146 84.6667 -121.002 84.3957C-120.857 84.1427 -120.532 84.0524 -120.261 84.1969L471.515 425.849C471.768 425.994 471.858 426.319 471.714 426.59C471.623 426.753 471.443 426.861 471.244 426.861V426.879Z" fill="url(#paint3_linear_925_9022)" stroke="#64B5C8" stroke-linejoin="round"/>
<path d="M113.602 281.277C113.512 281.277 113.421 281.259 113.331 281.204L-41.9753 191.536C-42.1379 191.446 -42.2463 191.265 -42.2463 191.067C-42.2463 190.868 -42.1379 190.705 -41.9753 190.597L94.252 111.95C94.5049 111.806 94.8301 111.896 94.9927 112.149C95.1553 112.402 95.0469 112.727 94.794 112.89L-40.6203 191.067L113.62 280.12L483.584 66.5289C483.837 66.3844 484.162 66.4747 484.325 66.7277C484.469 66.9806 484.379 67.3058 484.126 67.4684L113.909 281.222C113.909 281.222 113.729 281.295 113.638 281.295L113.602 281.277Z" fill="url(#paint4_linear_925_9022)" stroke="#64B5C8" stroke-linejoin="round"/>
<path opacity="0.5" d="M11.5213 55.7956L-35.4355 28.6947L11.5213 1.59375L58.4601 28.6947L11.5213 55.7956Z" fill="url(#paint5_linear_925_9022)" stroke="#64B5C8" stroke-linejoin="round"/>
<path opacity="0.7" d="M11.5213 30.7712L-35.4355 3.67026L11.5213 -23.4307L58.4601 3.67026L11.5213 30.7712Z" fill="url(#paint6_linear_925_9022)" stroke="#64B5C8" stroke-linejoin="round"/>
<path d="M11.5214 32.1086C11.2865 32.1086 11.0697 32.0544 10.8529 31.9279L-36.0859 4.827C-36.5014 4.59213 -36.7544 4.14044 -36.7544 3.67069C-36.7544 3.20094 -36.5014 2.74926 -36.0859 2.51439L10.8529 -24.5865C11.2684 -24.8214 11.7743 -24.8214 12.1899 -24.5865L59.1287 2.51439C59.5442 2.74926 59.7972 3.20094 59.7972 3.67069C59.7972 4.14044 59.5442 4.59213 59.1287 4.827L12.1899 31.9279C11.9911 32.0544 11.7563 32.1086 11.5214 32.1086ZM-32.7615 3.67069L11.5214 29.2359L55.8043 3.67069L11.5214 -21.8945L-32.7615 3.67069Z" fill="url(#paint7_linear_925_9022)" stroke="#64B5C8" stroke-linejoin="round"/>
<path opacity="0.5" d="M238.103 18.3589C240.904 26.3807 221.969 40.3106 195.808 49.4707C169.647 58.6308 146.141 59.5523 143.341 51.5123C140.54 43.4904 159.475 29.5606 185.636 20.4005C211.797 11.2403 235.303 10.3189 238.103 18.3589Z" fill="url(#paint8_linear_925_9022)" stroke="#64B5C8" stroke-linejoin="round"/>
<path d="M214.598 14.7652C190.677 14.1871 171.688 2.02778 172.194 -19.0929C172.7 -40.2135 192.501 -56.8716 216.44 -56.3115C240.362 -55.7333 259.35 -38.1539 258.844 -17.0332C258.339 4.08745 238.537 15.3253 214.598 14.7471V14.7652Z" fill="url(#paint9_linear_925_9022)" stroke="#64B5C8" stroke-linejoin="round"/>
<path d="M258.487 -8.76895C258.993 -29.8969 240.002 -47.4885 216.071 -48.0608C192.14 -48.6331 172.331 -31.9695 171.825 -10.8415C171.32 10.2864 190.31 27.878 214.241 28.4503C238.172 29.0227 257.982 12.359 258.487 -8.76895Z" fill="url(#paint10_linear_925_9022)" stroke="#64B5C8" stroke-linejoin="round"/>
<path d="M184.949 -37.3599C177.09 -30.6388 172.104 -21.28 171.869 -10.8371C171.363 10.2836 190.352 27.8811 214.273 28.4412C226.107 28.7303 236.929 24.7916 244.915 18.179L184.949 -37.3779V-37.3599Z" fill="url(#paint11_linear_925_9022)" stroke="#64B5C8" stroke-linejoin="round"/>
<path d="M256.555 -8.81636C257.038 -28.9967 238.894 -45.7993 216.03 -46.3461C193.167 -46.8929 174.241 -30.9768 173.758 -10.7965C173.276 9.38381 191.419 26.1864 214.283 26.7332C237.146 27.28 256.072 11.3639 256.555 -8.81636Z" fill="url(#paint12_linear_925_9022)" stroke="#64B5C8" stroke-linejoin="round"/>
<path d="M248.391 -9.00986C248.778 -25.21 234.213 -38.6986 215.858 -39.1375C197.503 -39.5765 182.31 -26.7996 181.922 -10.5995C181.535 5.60061 196.1 19.0893 214.455 19.5282C232.81 19.9672 248.003 7.19025 248.391 -9.00986Z" fill="url(#paint13_linear_925_9022)" stroke="#64B5C8" stroke-linejoin="round"/>
<path d="M248.402 -9.01204C248.402 -9.68053 248.402 -10.349 248.366 -11.0175C246.83 4.23129 232.159 15.957 214.562 15.5233C196.964 15.1078 182.872 2.69557 182.077 -12.6074C182.005 -11.957 181.968 -11.2885 181.95 -10.62C181.571 5.58633 196.133 19.0645 214.471 19.5162C232.828 19.9498 248.022 7.17625 248.402 -9.0301V-9.01204Z" fill="url(#paint14_linear_925_9022)" stroke="#64B5C8" stroke-linejoin="round"/>
<path d="M214.146 -35.625C232.503 -35.1914 247.065 -21.6951 246.667 -5.48878C246.595 -2.20054 245.89 0.925104 244.698 3.852C246.974 0.00367238 248.293 -4.35054 248.402 -8.99384C248.781 -25.2002 234.219 -38.6784 215.881 -39.1301C201.246 -39.4733 188.635 -31.4153 183.92 -19.9245C189.575 -29.5183 201.047 -35.9322 214.146 -35.6069V-35.625Z" fill="url(#paint15_linear_925_9022)" stroke="#64B5C8" stroke-linejoin="round"/>
<path d="M490.847 194.879L490.775 212.006C490.775 212.241 490.666 212.458 490.377 212.621L304.14 319.489C303.525 319.832 302.477 319.796 301.773 319.38L271.42 301.746C271.076 301.548 270.896 301.313 270.86 301.078C270.86 301.06 270.86 301.042 270.86 301.024L270.932 283.733L285.657 292.153L457.513 193.542C458.127 193.198 459.175 193.234 459.88 193.65L470.304 199.702L490.883 194.915L490.847 194.879Z" fill="url(#paint16_linear_925_9022)" stroke="#64B5C8" stroke-linejoin="round"/>
<path d="M457.549 176.305L271.311 283.173C270.697 283.516 270.769 284.131 271.474 284.546L301.827 302.18C302.531 302.596 303.579 302.632 304.194 302.288L490.431 195.42C491.046 195.077 490.973 194.463 490.269 194.047L459.916 176.414C459.211 175.998 458.163 175.962 457.549 176.305Z" fill="url(#paint17_linear_925_9022)" stroke="#64B5C8" stroke-linejoin="round"/>
<path opacity="0.6" d="M450.81 202.05L304.465 284.491C303.381 278.691 301.701 272.801 299.46 267.02L445.553 183.188C447.955 189.439 449.744 195.798 450.81 202.05Z" fill="url(#paint18_linear_925_9022)" stroke="#64B5C8" stroke-linejoin="round"/>
<path d="M463.999 186.188L288.385 286.949C287.969 287.184 288.023 287.6 288.493 287.889L296.118 292.315C296.587 292.586 297.328 292.622 297.744 292.387L473.358 191.626C473.773 191.391 473.719 190.976 473.249 190.687L465.625 186.26C465.155 185.989 464.414 185.953 463.999 186.188Z" fill="url(#paint19_linear_925_9022)" stroke="#64B5C8" stroke-linejoin="round"/>
<path d="M473.358 191.626L469.78 193.668L465.661 191.283C465.191 191.012 464.451 190.976 464.035 191.211L291.998 289.93L288.493 287.889C288.023 287.618 287.969 287.184 288.385 286.949L463.999 186.188C464.414 185.953 465.137 185.989 465.625 186.26L473.249 190.687C473.719 190.958 473.773 191.391 473.358 191.626Z" fill="url(#paint20_linear_925_9022)" stroke="#64B5C8" stroke-linejoin="round"/>
<path d="M21.2961 12.633L167.406 -71.1992C167.334 -45.0197 185.636 -13.149 208.256 0.00394576L409.598 116.972C436.211 132.419 457.711 169.891 457.621 200.659L311.529 284.491C311.619 253.723 290.101 216.251 263.506 200.804L62.1643 83.8361C39.526 70.6832 21.2419 38.8125 21.3142 12.633H21.2961Z" fill="url(#paint21_linear_925_9022)" stroke="#64B5C8" stroke-linejoin="round"/>
<path opacity="0.8" d="M457.621 200.659L311.529 284.491C311.529 283.136 311.475 281.781 311.402 280.408L457.494 196.594C457.567 197.967 457.621 199.322 457.621 200.677V200.659Z" fill="url(#paint22_linear_925_9022)" stroke="#64B5C8" stroke-linejoin="round"/>
<g opacity="0.32">
<path d="M246.053 137.803L212.972 156.791L216.152 158.634L249.251 139.646L246.053 137.803Z" fill="url(#paint23_linear_925_9022)" stroke="#64B5C8" stroke-linejoin="round"/>
<path d="M263.036 128.064L251.112 134.894L254.292 136.737L266.216 129.907L263.036 128.064Z" fill="url(#paint24_linear_925_9022)" stroke="#64B5C8" stroke-linejoin="round"/>
<path d="M276.189 120.514L268.077 125.157L271.275 127L279.369 122.357L276.189 120.514Z" fill="url(#paint25_linear_925_9022)" stroke="#64B5C8" stroke-linejoin="round"/>
<path d="M223.722 142.212L205.69 152.564L208.87 154.407L226.901 144.055L223.722 142.212Z" fill="url(#paint26_linear_925_9022)" stroke="#64B5C8" stroke-linejoin="round"/>
<path d="M250.877 126.638L228.781 139.321L231.96 141.164L254.057 128.481L250.877 126.638Z" fill="url(#paint27_linear_925_9022)" stroke="#64B5C8" stroke-linejoin="round"/>
<path d="M264.03 119.086L255.936 123.729L259.115 125.59L267.21 120.929L264.03 119.086Z" fill="url(#paint28_linear_925_9022)" stroke="#64B5C8" stroke-linejoin="round"/>
<path d="M276.55 111.912L268.456 116.555L271.636 118.398L279.73 113.755L276.55 111.912Z" fill="url(#paint29_linear_925_9022)" stroke="#64B5C8" stroke-linejoin="round"/>
<path d="M211.472 140.856L198.427 148.336L201.607 150.179L214.652 142.699L211.472 140.856Z" fill="url(#paint30_linear_925_9022)" stroke="#64B5C8" stroke-linejoin="round"/>
<path d="M220.975 135.382L216.531 137.947L219.711 139.79L224.173 137.243L220.975 135.382Z" fill="url(#paint31_linear_925_9022)" stroke="#64B5C8" stroke-linejoin="round"/>
<path d="M234.128 127.848L226.034 132.491L229.214 134.334L237.326 129.691L234.128 127.848Z" fill="url(#paint32_linear_925_9022)" stroke="#64B5C8" stroke-linejoin="round"/>
<path d="M239.296 116.483L191.147 144.108L194.327 145.951L242.494 118.326L239.296 116.483Z" fill="url(#paint33_linear_925_9022)" stroke="#64B5C8" stroke-linejoin="round"/>
<path d="M256.279 106.746L244.355 113.576L247.535 115.436L259.459 108.589L256.279 106.746Z" fill="url(#paint34_linear_925_9022)" stroke="#64B5C8" stroke-linejoin="round"/>
<path d="M196.928 132.401L183.884 139.881L187.063 141.742L200.108 134.244L196.928 132.401Z" fill="url(#paint35_linear_925_9022)" stroke="#64B5C8" stroke-linejoin="round"/>
<path d="M227.534 114.839L201.987 129.491L205.167 131.352L230.732 116.682L227.534 114.839Z" fill="url(#paint36_linear_925_9022)" stroke="#64B5C8" stroke-linejoin="round"/>
<path d="M240.687 107.287L232.593 111.93L235.773 113.773L243.885 109.13L240.687 107.287Z" fill="url(#paint37_linear_925_9022)" stroke="#64B5C8" stroke-linejoin="round"/>
<path d="M203.306 120.349L176.602 135.652L179.782 137.513L206.486 122.192L203.306 120.349Z" fill="url(#paint38_linear_925_9022)" stroke="#64B5C8" stroke-linejoin="round"/>
<path d="M227.66 106.366L208.346 117.441L211.544 119.302L230.84 108.209L227.66 106.366Z" fill="url(#paint39_linear_925_9022)" stroke="#64B5C8" stroke-linejoin="round"/>
<path d="M245.764 95.9775L232.719 103.475L235.899 105.318L248.943 97.8385L245.764 95.9775Z" fill="url(#paint40_linear_925_9022)" stroke="#64B5C8" stroke-linejoin="round"/>
<path d="M178.355 126.258L169.339 131.443L172.519 133.286L181.535 128.119L178.355 126.258Z" fill="url(#paint41_linear_925_9022)" stroke="#64B5C8" stroke-linejoin="round"/>
<path d="M195.32 116.521L183.396 123.368L186.594 125.211L198.5 118.381L195.32 116.521Z" fill="url(#paint42_linear_925_9022)" stroke="#64B5C8" stroke-linejoin="round"/>
<path d="M219.566 102.608L200.379 113.629L203.558 115.472L222.764 104.451L219.566 102.608Z" fill="url(#paint43_linear_925_9022)" stroke="#64B5C8" stroke-linejoin="round"/>
<path d="M189.683 111.37L162.058 127.215L165.238 129.058L192.863 113.213L189.683 111.37Z" fill="url(#paint44_linear_925_9022)" stroke="#64B5C8" stroke-linejoin="round"/>
<path d="M220.614 93.6104L194.742 108.462L197.922 110.323L223.794 95.4713L220.614 93.6104Z" fill="url(#paint45_linear_925_9022)" stroke="#64B5C8" stroke-linejoin="round"/>
<path d="M233.767 86.0762L225.655 90.7195L228.853 92.5623L236.947 87.919L233.767 86.0762Z" fill="url(#paint46_linear_925_9022)" stroke="#64B5C8" stroke-linejoin="round"/>
<path d="M246.378 78.8311L238.284 83.4743L241.464 85.3172L249.558 80.6739L246.378 78.8311Z" fill="url(#paint47_linear_925_9022)" stroke="#64B5C8" stroke-linejoin="round"/>
<path d="M171.327 113.503L154.795 122.988L157.975 124.831L174.525 115.346L171.327 113.503Z" fill="url(#paint48_linear_925_9022)" stroke="#64B5C8" stroke-linejoin="round"/>
<path d="M313.173 99.2843L336.118 86.1133L339.316 87.9742L316.371 101.127L313.173 99.2843Z" fill="url(#paint49_linear_925_9022)" stroke="#64B5C8" stroke-linejoin="round"/>
<path d="M310.824 92.2383L328.855 81.8857L332.035 83.7467L314.004 94.0812L310.824 92.2383Z" fill="url(#paint50_linear_925_9022)" stroke="#64B5C8" stroke-linejoin="round"/>
<path d="M308.53 85.1556L321.574 77.6758L324.772 79.5186L311.728 86.9985L308.53 85.1556Z" fill="url(#paint51_linear_925_9022)" stroke="#64B5C8" stroke-linejoin="round"/>
<path d="M295.34 84.3228L314.311 73.4463L317.491 75.2892L298.52 86.1837L295.34 84.3228Z" fill="url(#paint52_linear_925_9022)" stroke="#64B5C8" stroke-linejoin="round"/>
<path d="M293.985 76.6986L307.03 69.2188L310.228 71.0616L297.183 78.5595L293.985 76.6986Z" fill="url(#paint53_linear_925_9022)" stroke="#64B5C8" stroke-linejoin="round"/>
<path d="M283.218 74.4946L299.767 64.9912L302.947 66.8341L286.397 76.3375L283.218 74.4946Z" fill="url(#paint54_linear_925_9022)" stroke="#64B5C8" stroke-linejoin="round"/>
<path d="M283.47 65.949L292.486 60.7637L295.684 62.6246L286.668 67.7918L283.47 65.949Z" fill="url(#paint55_linear_925_9022)" stroke="#64B5C8" stroke-linejoin="round"/>
<path d="M267.752 66.5645L285.223 56.5371L288.403 58.3981L270.932 68.4254L267.752 66.5645Z" fill="url(#paint56_linear_925_9022)" stroke="#64B5C8" stroke-linejoin="round"/>
<path d="M261.41 61.8125L277.942 52.3271L281.14 54.17L264.59 63.6553L261.41 61.8125Z" fill="url(#paint57_linear_925_9022)" stroke="#64B5C8" stroke-linejoin="round"/>
<path d="M183.431 106.564L176.385 110.593L179.565 112.436L186.611 108.407L183.431 106.564Z" fill="url(#paint58_linear_925_9022)" stroke="#64B5C8" stroke-linejoin="round"/>
<path d="M204.317 94.5684L188.49 103.656L191.67 105.499L207.497 96.4112L204.317 94.5684Z" fill="url(#paint59_linear_925_9022)" stroke="#64B5C8" stroke-linejoin="round"/>
<path d="M184.534 62.1543L157.812 77.4934L160.992 79.3363L187.732 63.9972L184.534 62.1543Z" fill="url(#paint60_linear_925_9022)" stroke="#64B5C8" stroke-linejoin="round"/>
<path d="M202.836 51.6582L192.321 57.6927L195.501 59.5355L206.034 53.5011L202.836 51.6582Z" fill="url(#paint61_linear_925_9022)" stroke="#64B5C8" stroke-linejoin="round"/>
</g>
<path d="M276.117 78.18L276.532 67.5384L279.007 61.3232L280.579 66.4724L276.117 78.18Z" fill="url(#paint62_linear_925_9022)" stroke="#64B5C8" stroke-linejoin="round"/>
<path d="M387.683 80.2032L388.098 69.7783C388.098 69.7783 379.281 78.5771 379.263 78.7939C379.263 79.0107 387.664 80.2032 387.664 80.2032H387.683Z" fill="url(#paint63_linear_925_9022)" stroke="#64B5C8" stroke-linejoin="round"/>
<path d="M331.132 111.135C300.327 110.394 275.882 94.7299 276.532 67.5386C277.183 40.3474 302.694 18.9015 333.499 19.6242C364.303 20.3649 388.748 43.0033 388.098 70.1945C387.448 97.3858 361.937 111.858 331.132 111.117V111.135Z" fill="url(#paint64_linear_925_9022)" stroke="#64B5C8" stroke-linejoin="round"/>
<path d="M387.665 80.8357C388.316 53.6427 363.871 31.0012 333.067 30.2645C302.263 29.5278 276.764 50.9749 276.114 78.1679C275.463 105.361 299.908 128.002 330.712 128.739C361.516 129.476 387.015 108.029 387.665 80.8357Z" fill="url(#paint65_linear_925_9022)" stroke="#64B5C8" stroke-linejoin="round"/>
<path d="M292.956 44.0322C282.838 52.6865 276.424 64.7193 276.099 78.1794C275.448 105.371 299.893 128.027 330.698 128.75C345.929 129.111 359.877 124.052 370.157 115.543L292.956 44.0322Z" fill="url(#paint66_linear_925_9022)" stroke="#64B5C8" stroke-linejoin="round"/>
<path d="M385.173 80.7751C385.794 54.7891 362.442 33.1527 333.015 32.449C303.587 31.7452 279.228 52.2405 278.606 78.2265C277.985 104.212 301.337 125.849 330.764 126.553C360.192 127.256 384.551 106.761 385.173 80.7751Z" fill="url(#paint67_linear_925_9022)" stroke="#64B5C8" stroke-linejoin="round"/>
<path d="M374.661 80.5239C375.16 59.6652 356.407 42.2978 332.775 41.7326C309.143 41.1675 289.582 57.6186 289.083 78.4772C288.584 99.3358 307.337 116.703 330.969 117.268C354.6 117.834 374.162 101.383 374.661 80.5239Z" fill="url(#paint68_linear_925_9022)" stroke="#64B5C8" stroke-linejoin="round"/>
<path d="M374.674 80.529C374.692 79.6618 374.674 78.8126 374.62 77.9635C372.65 97.5845 353.752 112.689 331.114 112.147C308.457 111.605 290.318 95.6152 289.288 75.9219C289.197 76.771 289.143 77.6202 289.125 78.4874C288.619 99.3371 307.373 116.718 331.005 117.278C354.637 117.838 374.186 101.397 374.692 80.529H374.674Z" fill="url(#paint69_linear_925_9022)" stroke="#64B5C8" stroke-linejoin="round"/>
<path d="M330.554 46.2556C354.186 46.8157 372.921 64.1964 372.434 85.0461C372.325 89.2738 371.44 93.3209 369.886 97.0789C372.813 92.1285 374.511 86.5095 374.656 80.5293C375.162 59.6616 356.408 42.2989 332.776 41.7388C313.932 41.2871 297.689 51.6578 291.637 66.4549C298.9 54.1149 313.679 45.8582 330.554 46.2556Z" fill="url(#paint70_linear_925_9022)" stroke="#64B5C8" stroke-linejoin="round"/>
<path d="M276.532 67.5388C276.442 71.5859 276.063 74.5128 277.002 78.3069C278.231 74.3141 280.887 62.3897 280.887 62.3897L285.132 52.9043L288.674 49.9955L294.654 45.6232L295.142 31.9463C283.994 40.6728 276.84 53.3199 276.496 67.5569L276.532 67.5388Z" fill="url(#paint71_linear_925_9022)" stroke="#64B5C8" stroke-linejoin="round"/>
<path d="M384.503 66.1474L384.738 63.3469C384.738 62.9495 385.063 62.6243 385.442 62.6423H385.659C386.039 62.6423 386.328 62.9856 386.328 63.3831L386.093 66.1835C386.093 66.581 385.768 66.9062 385.388 66.8881H385.171C384.792 66.8881 384.503 66.5448 384.503 66.1474Z" fill="url(#paint72_linear_925_9022)" stroke="#64B5C8" stroke-linejoin="round"/>
<path d="M379.588 55.4163L379.877 50.3755C379.877 49.9239 380.239 49.5625 380.672 49.5625H381.16C381.594 49.5806 381.937 49.96 381.919 50.4297L381.63 55.4705C381.63 55.9222 381.268 56.2835 380.835 56.2835H380.347C379.913 56.2655 379.57 55.8861 379.588 55.4163Z" fill="url(#paint73_linear_925_9022)" stroke="#64B5C8" stroke-linejoin="round"/>
<path d="M372.795 46.0389L373.084 41.1607C373.084 40.6367 373.5 40.2393 373.988 40.2393H374.837C375.324 40.2754 375.704 40.709 375.686 41.2149L375.397 46.0931C375.397 46.617 374.981 47.0145 374.493 47.0145H373.644C373.156 46.9784 372.777 46.5447 372.795 46.0389Z" fill="url(#paint74_linear_925_9022)" stroke="#64B5C8" stroke-linejoin="round"/>
<path d="M362.623 38.4872L362.93 32.5611C362.93 32.0371 363.346 31.6396 363.834 31.6396H364.683C365.171 31.6758 365.55 32.1094 365.532 32.6153L365.225 38.5414C365.225 39.0653 364.809 39.4628 364.322 39.4628H363.472C362.985 39.4267 362.605 38.993 362.623 38.4872Z" fill="url(#paint75_linear_925_9022)" stroke="#64B5C8" stroke-linejoin="round"/>
<path d="M352.397 33.5184L352.722 26.689C352.722 26.1651 353.138 25.7676 353.626 25.7676H354.475C354.963 25.8037 355.342 26.2373 355.324 26.7432L354.999 33.5727C354.999 34.0966 354.583 34.4941 354.095 34.4941H353.246C352.758 34.4579 352.379 34.0243 352.397 33.5184Z" fill="url(#paint76_linear_925_9022)" stroke="#64B5C8" stroke-linejoin="round"/>
<path d="M342.117 30.4828L342.442 23.9244C342.442 23.4004 342.858 23.0029 343.345 23.0029H344.195C344.682 23.0391 345.062 23.4727 345.044 23.9786L344.719 30.537C344.719 31.0609 344.303 31.4584 343.815 31.4584H342.966C342.478 31.4223 342.099 30.9887 342.117 30.4828Z" fill="url(#paint77_linear_925_9022)" stroke="#64B5C8" stroke-linejoin="round"/>
<path d="M331.782 29.453L332.107 22.8042C332.107 22.2803 332.523 21.8828 333.01 21.8828H333.86C334.347 21.9189 334.727 22.3526 334.709 22.8584L334.384 29.5072C334.384 30.0312 333.968 30.4286 333.48 30.4286H332.631C332.143 30.3925 331.764 29.9589 331.782 29.453Z" fill="url(#paint78_linear_925_9022)" stroke="#64B5C8" stroke-linejoin="round"/>
<path d="M321.43 29.6683L321.755 23.4351C321.755 22.9112 322.171 22.5137 322.658 22.5137H323.508C323.995 22.5498 324.375 22.9834 324.357 23.4893L324.032 29.7225C324.032 30.2465 323.616 30.6439 323.128 30.6439H322.279C321.791 30.6078 321.412 30.1742 321.43 29.6683Z" fill="url(#paint79_linear_925_9022)" stroke="#64B5C8" stroke-linejoin="round"/>
<path d="M311.023 31.9276L311.33 25.8931C311.33 25.3692 311.746 24.9717 312.234 24.9717H313.083C313.571 25.0078 313.95 25.4414 313.932 25.9473L313.625 31.9818C313.625 32.5057 313.209 32.9032 312.721 32.9032H311.872C311.384 32.8671 311.005 32.4335 311.023 31.9276Z" fill="url(#paint80_linear_925_9022)" stroke="#64B5C8" stroke-linejoin="round"/>
<path d="M300.544 37.0223L300.869 30.482C300.869 29.958 301.285 29.5605 301.773 29.5605H302.622C303.11 29.5967 303.489 30.0303 303.471 30.5362L303.146 37.0765C303.146 37.6005 302.73 37.998 302.242 37.998H301.393C300.905 37.9618 300.526 37.5282 300.544 37.0223Z" fill="url(#paint81_linear_925_9022)" stroke="#64B5C8" stroke-linejoin="round"/>
<path d="M64.6033 212.618L64.9646 203.278L67.1327 197.821L68.5239 202.338L64.6033 212.618Z" fill="url(#paint82_linear_925_9022)" stroke="#64B5C8" stroke-linejoin="round"/>
<path d="M162.564 214.408L162.926 205.248C162.926 205.248 155.175 212.981 155.175 213.162C155.175 213.342 162.564 214.408 162.564 214.408Z" fill="url(#paint83_linear_925_9022)" stroke="#64B5C8" stroke-linejoin="round"/>
<path d="M112.898 241.563C85.8508 240.913 64.3869 227.164 64.965 203.297C65.5432 179.412 87.9285 160.586 114.975 161.236C142.022 161.887 163.486 181.761 162.908 205.645C162.33 229.53 139.944 242.232 112.898 241.581V241.563Z" fill="url(#paint84_linear_925_9022)" stroke="#64B5C8" stroke-linejoin="round"/>
<path d="M162.531 214.952C163.102 191.071 141.642 171.187 114.598 170.54C87.555 169.893 65.169 188.729 64.5978 212.61C64.0267 236.491 85.4867 256.375 112.53 257.022C139.574 257.668 161.96 238.833 162.531 214.952Z" fill="url(#paint85_linear_925_9022)" stroke="#64B5C8" stroke-linejoin="round"/>
<path d="M79.4003 182.646C70.5112 190.234 64.8923 200.803 64.6032 212.619C64.0251 236.504 85.489 256.378 112.536 257.029C125.905 257.354 138.155 252.891 147.171 245.429L79.4003 182.646Z" fill="url(#paint86_linear_925_9022)" stroke="#64B5C8" stroke-linejoin="round"/>
<path d="M160.345 214.9C160.89 192.086 140.388 173.091 114.552 172.473C88.7155 171.855 67.3287 189.849 66.7831 212.663C66.2375 235.476 86.7397 254.472 112.576 255.089C138.412 255.707 159.799 237.714 160.345 214.9Z" fill="url(#paint87_linear_925_9022)" stroke="#64B5C8" stroke-linejoin="round"/>
<path d="M151.115 214.68C151.553 196.365 135.096 181.116 114.357 180.62C93.6184 180.124 76.4511 194.569 76.0131 212.884C75.575 231.199 92.0322 246.448 112.771 246.944C133.51 247.44 150.677 232.995 151.115 214.68Z" fill="url(#paint88_linear_925_9022)" stroke="#64B5C8" stroke-linejoin="round"/>
<path d="M151.128 214.697C151.128 213.939 151.128 213.18 151.092 212.439C149.357 229.675 132.771 242.919 112.897 242.449C93.0053 241.979 77.07 227.941 76.1666 210.65C76.0943 211.391 76.0401 212.15 76.022 212.909C75.5884 231.229 92.0477 246.478 112.789 246.966C133.53 247.453 150.712 233.018 151.146 214.716L151.128 214.697Z" fill="url(#paint89_linear_925_9022)" stroke="#64B5C8" stroke-linejoin="round"/>
<path d="M112.391 184.597C133.133 185.103 149.592 200.333 149.158 218.654C149.068 222.357 148.291 225.917 146.936 229.205C149.502 224.851 151.001 219.936 151.128 214.679C151.561 196.358 135.102 181.11 114.361 180.622C97.8291 180.224 83.5559 189.33 78.2441 202.321C84.6219 191.48 97.6123 184.235 112.409 184.579L112.391 184.597Z" fill="url(#paint90_linear_925_9022)" stroke="#64B5C8" stroke-linejoin="round"/>
<path d="M64.9648 203.277C64.8745 206.837 64.5492 209.402 65.3803 212.727C66.4644 209.222 68.795 198.743 68.795 198.743L72.5169 190.413L75.6245 187.848L80.8821 184.018L81.3157 172.003C71.5232 179.663 65.2538 190.775 64.9467 203.259L64.9648 203.277Z" fill="url(#paint91_linear_925_9022)" stroke="#64B5C8" stroke-linejoin="round"/>
<path d="M159.746 202.068L159.945 199.611C159.945 199.25 160.234 198.979 160.559 198.979H160.74C161.065 198.979 161.336 199.286 161.318 199.629L161.119 202.086C161.119 202.447 160.83 202.718 160.505 202.718H160.324C159.999 202.718 159.728 202.411 159.746 202.068Z" fill="url(#paint92_linear_925_9022)" stroke="#64B5C8" stroke-linejoin="round"/>
<path d="M155.446 192.637L155.698 188.21C155.698 187.813 156.024 187.488 156.403 187.506H156.837C157.216 187.524 157.505 187.867 157.505 188.264L157.252 192.691C157.252 193.088 156.927 193.414 156.548 193.396H156.114C155.735 193.377 155.446 193.034 155.446 192.637Z" fill="url(#paint93_linear_925_9022)" stroke="#64B5C8" stroke-linejoin="round"/>
<path d="M149.484 184.415L149.737 180.134C149.737 179.682 150.098 179.32 150.532 179.339H151.273C151.706 179.375 152.031 179.736 152.031 180.206L151.778 184.488C151.778 184.939 151.417 185.301 150.983 185.301H150.243C149.809 185.265 149.484 184.903 149.484 184.434V184.415Z" fill="url(#paint94_linear_925_9022)" stroke="#64B5C8" stroke-linejoin="round"/>
<path d="M140.558 177.768L140.829 172.564C140.829 172.112 141.191 171.751 141.624 171.769H142.365C142.799 171.805 143.124 172.167 143.124 172.636L142.853 177.84C142.853 178.291 142.492 178.653 142.058 178.635H141.317C140.884 178.599 140.558 178.237 140.558 177.768Z" fill="url(#paint95_linear_925_9022)" stroke="#64B5C8" stroke-linejoin="round"/>
<path d="M131.561 173.414L131.85 167.433C131.85 166.982 132.211 166.62 132.645 166.638H133.386C133.819 166.674 134.144 167.036 134.144 167.506L133.855 173.486C133.855 173.938 133.494 174.299 133.06 174.281H132.32C131.886 174.245 131.561 173.883 131.561 173.414Z" fill="url(#paint96_linear_925_9022)" stroke="#64B5C8" stroke-linejoin="round"/>
<path d="M122.545 170.756L122.834 165.01C122.834 164.559 123.196 164.197 123.629 164.215H124.37C124.804 164.252 125.129 164.613 125.129 165.083L124.84 170.828C124.84 171.28 124.478 171.641 124.045 171.623H123.304C122.87 171.587 122.545 171.226 122.545 170.756Z" fill="url(#paint97_linear_925_9022)" stroke="#64B5C8" stroke-linejoin="round"/>
<path d="M113.475 169.835L113.764 164C113.764 163.548 114.126 163.187 114.559 163.205H115.3C115.734 163.241 116.059 163.602 116.059 164.072L115.77 169.908C115.77 170.359 115.409 170.721 114.975 170.703H114.234C113.801 170.667 113.475 170.305 113.475 169.835Z" fill="url(#paint98_linear_925_9022)" stroke="#64B5C8" stroke-linejoin="round"/>
<path d="M104.387 170.034L104.658 164.559C104.658 164.108 105.02 163.746 105.453 163.764H106.194C106.628 163.8 106.953 164.162 106.953 164.632L106.682 170.106C106.682 170.558 106.321 170.919 105.887 170.901H105.146C104.713 170.865 104.387 170.503 104.387 170.034Z" fill="url(#paint99_linear_925_9022)" stroke="#64B5C8" stroke-linejoin="round"/>
<path d="M95.2458 172.021L95.5169 166.727C95.5169 166.276 95.8782 165.914 96.3118 165.932H97.0526C97.4862 165.968 97.8114 166.33 97.8114 166.8L97.5404 172.093C97.5404 172.545 97.1791 172.906 96.7454 172.906H96.0047C95.5711 172.87 95.2458 172.509 95.2458 172.039V172.021Z" fill="url(#paint100_linear_925_9022)" stroke="#64B5C8" stroke-linejoin="round"/>
<path d="M86.0493 176.485L86.3384 170.74C86.3384 170.288 86.6997 169.927 87.1334 169.945H87.8741C88.3077 169.981 88.6329 170.342 88.6329 170.812L88.3439 176.558C88.3439 177.009 87.9825 177.371 87.5489 177.353H86.8081C86.3745 177.316 86.0493 176.955 86.0493 176.485Z" fill="url(#paint101_linear_925_9022)" stroke="#64B5C8" stroke-linejoin="round"/>
</g>
<defs>
<linearGradient id="paint0_linear_925_9022" x1="157.713" y1="98.5664" x2="157.713" y2="248.069" gradientUnits="userSpaceOnUse">
<stop stop-color="#A8C9D1"/>
<stop offset="1" stop-color="white"/>
</linearGradient>
<linearGradient id="paint1_linear_925_9022" x1="344.274" y1="-22.5762" x2="344.274" y2="323.969" gradientUnits="userSpaceOnUse">
<stop stop-color="#A8C9D1"/>
<stop offset="1" stop-color="white"/>
</linearGradient>
<linearGradient id="paint2_linear_925_9022" x1="269.633" y1="252.299" x2="269.633" y2="395.262" gradientUnits="userSpaceOnUse">
<stop stop-color="#A8C9D1"/>
<stop offset="1" stop-color="white"/>
</linearGradient>
<linearGradient id="paint3_linear_925_9022" x1="175.356" y1="84.1279" x2="175.356" y2="426.879" gradientUnits="userSpaceOnUse">
<stop stop-color="#A8C9D1"/>
<stop offset="1" stop-color="white"/>
</linearGradient>
<linearGradient id="paint4_linear_925_9022" x1="221.074" y1="66.46" x2="221.074" y2="281.295" gradientUnits="userSpaceOnUse">
<stop stop-color="#A8C9D1"/>
<stop offset="1" stop-color="white"/>
</linearGradient>
<linearGradient id="paint5_linear_925_9022" x1="11.5123" y1="1.59375" x2="11.5123" y2="55.7956" gradientUnits="userSpaceOnUse">
<stop stop-color="#A8C9D1"/>
<stop offset="1" stop-color="white"/>
</linearGradient>
<linearGradient id="paint6_linear_925_9022" x1="11.5123" y1="-23.4307" x2="11.5123" y2="30.7712" gradientUnits="userSpaceOnUse">
<stop stop-color="#A8C9D1"/>
<stop offset="1" stop-color="white"/>
</linearGradient>
<linearGradient id="paint7_linear_925_9022" x1="11.5214" y1="-24.7627" x2="11.5214" y2="32.1086" gradientUnits="userSpaceOnUse">
<stop stop-color="#A8C9D1"/>
<stop offset="1" stop-color="white"/>
</linearGradient>
<linearGradient id="paint8_linear_925_9022" x1="190.722" y1="12.8818" x2="190.722" y2="56.9893" gradientUnits="userSpaceOnUse">
<stop stop-color="#A8C9D1"/>
<stop offset="1" stop-color="white"/>
</linearGradient>
<linearGradient id="paint9_linear_925_9022" x1="215.519" y1="-56.3252" x2="215.519" y2="14.7684" gradientUnits="userSpaceOnUse">
<stop stop-color="#A8C9D1"/>
<stop offset="1" stop-color="white"/>
</linearGradient>
<linearGradient id="paint10_linear_925_9022" x1="171.825" y1="-10.8415" x2="258.487" y2="-8.76893" gradientUnits="userSpaceOnUse">
<stop stop-color="#A8C9D1"/>
<stop offset="1" stop-color="white"/>
</linearGradient>
<linearGradient id="paint11_linear_925_9022" x1="208.387" y1="-37.3779" x2="208.387" y2="28.4561" gradientUnits="userSpaceOnUse">
<stop stop-color="#A8C9D1"/>
<stop offset="1" stop-color="white"/>
</linearGradient>
<linearGradient id="paint12_linear_925_9022" x1="173.758" y1="-10.7965" x2="256.555" y2="-8.81638" gradientUnits="userSpaceOnUse">
<stop stop-color="#A8C9D1"/>
<stop offset="1" stop-color="white"/>
</linearGradient>
<linearGradient id="paint13_linear_925_9022" x1="181.922" y1="-10.5995" x2="248.391" y2="-9.00984" gradientUnits="userSpaceOnUse">
<stop stop-color="#A8C9D1"/>
<stop offset="1" stop-color="white"/>
</linearGradient>
<linearGradient id="paint14_linear_925_9022" x1="215.172" y1="-12.6074" x2="215.172" y2="19.5269" gradientUnits="userSpaceOnUse">
<stop stop-color="#A8C9D1"/>
<stop offset="1" stop-color="white"/>
</linearGradient>
<linearGradient id="paint15_linear_925_9022" x1="216.164" y1="-39.1406" x2="216.164" y2="3.85201" gradientUnits="userSpaceOnUse">
<stop stop-color="#A8C9D1"/>
<stop offset="1" stop-color="white"/>
</linearGradient>
<linearGradient id="paint16_linear_925_9022" x1="380.871" y1="193.309" x2="380.871" y2="319.722" gradientUnits="userSpaceOnUse">
<stop stop-color="#A8C9D1"/>
<stop offset="1" stop-color="white"/>
</linearGradient>
<linearGradient id="paint17_linear_925_9022" x1="380.871" y1="176.072" x2="380.871" y2="302.521" gradientUnits="userSpaceOnUse">
<stop stop-color="#A8C9D1"/>
<stop offset="1" stop-color="white"/>
</linearGradient>
<linearGradient id="paint18_linear_925_9022" x1="375.135" y1="183.188" x2="375.135" y2="284.491" gradientUnits="userSpaceOnUse">
<stop stop-color="#A8C9D1"/>
<stop offset="1" stop-color="white"/>
</linearGradient>
<linearGradient id="paint19_linear_925_9022" x1="380.871" y1="186.032" x2="380.871" y2="292.543" gradientUnits="userSpaceOnUse">
<stop stop-color="#A8C9D1"/>
<stop offset="1" stop-color="white"/>
</linearGradient>
<linearGradient id="paint20_linear_925_9022" x1="380.871" y1="186.032" x2="380.871" y2="289.93" gradientUnits="userSpaceOnUse">
<stop stop-color="#A8C9D1"/>
<stop offset="1" stop-color="white"/>
</linearGradient>
<linearGradient id="paint21_linear_925_9022" x1="619" y1="326" x2="21" y2="34.5" gradientUnits="userSpaceOnUse">
<stop stop-color="#A8C9D1"/>
<stop offset="1" stop-color="white"/>
</linearGradient>
<linearGradient id="paint22_linear_925_9022" x1="384.512" y1="196.594" x2="384.512" y2="284.491" gradientUnits="userSpaceOnUse">
<stop stop-color="#A8C9D1"/>
<stop offset="1" stop-color="white"/>
</linearGradient>
<linearGradient id="paint23_linear_925_9022" x1="231.111" y1="137.803" x2="231.111" y2="158.634" gradientUnits="userSpaceOnUse">
<stop stop-color="#A8C9D1"/>
<stop offset="1" stop-color="white"/>
</linearGradient>
<linearGradient id="paint24_linear_925_9022" x1="258.664" y1="128.064" x2="258.664" y2="136.737" gradientUnits="userSpaceOnUse">
<stop stop-color="#A8C9D1"/>
<stop offset="1" stop-color="white"/>
</linearGradient>
<linearGradient id="paint25_linear_925_9022" x1="273.723" y1="120.514" x2="273.723" y2="127" gradientUnits="userSpaceOnUse">
<stop stop-color="#A8C9D1"/>
<stop offset="1" stop-color="white"/>
</linearGradient>
<linearGradient id="paint26_linear_925_9022" x1="216.296" y1="142.212" x2="216.296" y2="154.407" gradientUnits="userSpaceOnUse">
<stop stop-color="#A8C9D1"/>
<stop offset="1" stop-color="white"/>
</linearGradient>
<linearGradient id="paint27_linear_925_9022" x1="241.419" y1="126.638" x2="241.419" y2="141.164" gradientUnits="userSpaceOnUse">
<stop stop-color="#A8C9D1"/>
<stop offset="1" stop-color="white"/>
</linearGradient>
<linearGradient id="paint28_linear_925_9022" x1="261.573" y1="119.086" x2="261.573" y2="125.59" gradientUnits="userSpaceOnUse">
<stop stop-color="#A8C9D1"/>
<stop offset="1" stop-color="white"/>
</linearGradient>
<linearGradient id="paint29_linear_925_9022" x1="274.093" y1="111.912" x2="274.093" y2="118.398" gradientUnits="userSpaceOnUse">
<stop stop-color="#A8C9D1"/>
<stop offset="1" stop-color="white"/>
</linearGradient>
<linearGradient id="paint30_linear_925_9022" x1="206.539" y1="140.856" x2="206.539" y2="150.179" gradientUnits="userSpaceOnUse">
<stop stop-color="#A8C9D1"/>
<stop offset="1" stop-color="white"/>
</linearGradient>
<linearGradient id="paint31_linear_925_9022" x1="220.352" y1="135.382" x2="220.352" y2="139.79" gradientUnits="userSpaceOnUse">
<stop stop-color="#A8C9D1"/>
<stop offset="1" stop-color="white"/>
</linearGradient>
<linearGradient id="paint32_linear_925_9022" x1="231.68" y1="127.848" x2="231.68" y2="134.334" gradientUnits="userSpaceOnUse">
<stop stop-color="#A8C9D1"/>
<stop offset="1" stop-color="white"/>
</linearGradient>
<linearGradient id="paint33_linear_925_9022" x1="216.82" y1="116.483" x2="216.82" y2="145.951" gradientUnits="userSpaceOnUse">
<stop stop-color="#A8C9D1"/>
<stop offset="1" stop-color="white"/>
</linearGradient>
<linearGradient id="paint34_linear_925_9022" x1="251.907" y1="106.746" x2="251.907" y2="115.436" gradientUnits="userSpaceOnUse">
<stop stop-color="#A8C9D1"/>
<stop offset="1" stop-color="white"/>
</linearGradient>
<linearGradient id="paint35_linear_925_9022" x1="191.996" y1="132.401" x2="191.996" y2="141.742" gradientUnits="userSpaceOnUse">
<stop stop-color="#A8C9D1"/>
<stop offset="1" stop-color="white"/>
</linearGradient>
<linearGradient id="paint36_linear_925_9022" x1="216.36" y1="114.839" x2="216.36" y2="131.352" gradientUnits="userSpaceOnUse">
<stop stop-color="#A8C9D1"/>
<stop offset="1" stop-color="white"/>
</linearGradient>
<linearGradient id="paint37_linear_925_9022" x1="238.239" y1="107.287" x2="238.239" y2="113.773" gradientUnits="userSpaceOnUse">
<stop stop-color="#A8C9D1"/>
<stop offset="1" stop-color="white"/>
</linearGradient>
<linearGradient id="paint38_linear_925_9022" x1="191.544" y1="120.349" x2="191.544" y2="137.513" gradientUnits="userSpaceOnUse">
<stop stop-color="#A8C9D1"/>
<stop offset="1" stop-color="white"/>
</linearGradient>
<linearGradient id="paint39_linear_925_9022" x1="219.593" y1="106.366" x2="219.593" y2="119.302" gradientUnits="userSpaceOnUse">
<stop stop-color="#A8C9D1"/>
<stop offset="1" stop-color="white"/>
</linearGradient>
<linearGradient id="paint40_linear_925_9022" x1="240.831" y1="95.9775" x2="240.831" y2="105.318" gradientUnits="userSpaceOnUse">
<stop stop-color="#A8C9D1"/>
<stop offset="1" stop-color="white"/>
</linearGradient>
<linearGradient id="paint41_linear_925_9022" x1="175.437" y1="126.258" x2="175.437" y2="133.286" gradientUnits="userSpaceOnUse">
<stop stop-color="#A8C9D1"/>
<stop offset="1" stop-color="white"/>
</linearGradient>
<linearGradient id="paint42_linear_925_9022" x1="190.948" y1="116.521" x2="190.948" y2="125.211" gradientUnits="userSpaceOnUse">
<stop stop-color="#A8C9D1"/>
<stop offset="1" stop-color="white"/>
</linearGradient>
<linearGradient id="paint43_linear_925_9022" x1="211.571" y1="102.608" x2="211.571" y2="115.472" gradientUnits="userSpaceOnUse">
<stop stop-color="#A8C9D1"/>
<stop offset="1" stop-color="white"/>
</linearGradient>
<linearGradient id="paint44_linear_925_9022" x1="177.46" y1="111.37" x2="177.46" y2="129.058" gradientUnits="userSpaceOnUse">
<stop stop-color="#A8C9D1"/>
<stop offset="1" stop-color="white"/>
</linearGradient>
<linearGradient id="paint45_linear_925_9022" x1="209.268" y1="93.6104" x2="209.268" y2="110.323" gradientUnits="userSpaceOnUse">
<stop stop-color="#A8C9D1"/>
<stop offset="1" stop-color="white"/>
</linearGradient>
<linearGradient id="paint46_linear_925_9022" x1="231.301" y1="86.0762" x2="231.301" y2="92.5623" gradientUnits="userSpaceOnUse">
<stop stop-color="#A8C9D1"/>
<stop offset="1" stop-color="white"/>
</linearGradient>
<linearGradient id="paint47_linear_925_9022" x1="243.921" y1="78.8311" x2="243.921" y2="85.3172" gradientUnits="userSpaceOnUse">
<stop stop-color="#A8C9D1"/>
<stop offset="1" stop-color="white"/>
</linearGradient>
<linearGradient id="paint48_linear_925_9022" x1="164.66" y1="113.503" x2="164.66" y2="124.831" gradientUnits="userSpaceOnUse">
<stop stop-color="#A8C9D1"/>
<stop offset="1" stop-color="white"/>
</linearGradient>
<linearGradient id="paint49_linear_925_9022" x1="326.245" y1="86.1133" x2="326.245" y2="101.127" gradientUnits="userSpaceOnUse">
<stop stop-color="#A8C9D1"/>
<stop offset="1" stop-color="white"/>
</linearGradient>
<linearGradient id="paint50_linear_925_9022" x1="321.43" y1="81.8857" x2="321.43" y2="94.0812" gradientUnits="userSpaceOnUse">
<stop stop-color="#A8C9D1"/>
<stop offset="1" stop-color="white"/>
</linearGradient>
<linearGradient id="paint51_linear_925_9022" x1="316.651" y1="77.6758" x2="316.651" y2="86.9985" gradientUnits="userSpaceOnUse">
<stop stop-color="#A8C9D1"/>
<stop offset="1" stop-color="white"/>
</linearGradient>
<linearGradient id="paint52_linear_925_9022" x1="306.416" y1="73.4463" x2="306.416" y2="86.1837" gradientUnits="userSpaceOnUse">
<stop stop-color="#A8C9D1"/>
<stop offset="1" stop-color="white"/>
</linearGradient>
<linearGradient id="paint53_linear_925_9022" x1="302.107" y1="69.2188" x2="302.107" y2="78.5595" gradientUnits="userSpaceOnUse">
<stop stop-color="#A8C9D1"/>
<stop offset="1" stop-color="white"/>
</linearGradient>
<linearGradient id="paint54_linear_925_9022" x1="293.082" y1="64.9912" x2="293.082" y2="76.3375" gradientUnits="userSpaceOnUse">
<stop stop-color="#A8C9D1"/>
<stop offset="1" stop-color="white"/>
</linearGradient>
<linearGradient id="paint55_linear_925_9022" x1="289.577" y1="60.7637" x2="289.577" y2="67.7918" gradientUnits="userSpaceOnUse">
<stop stop-color="#A8C9D1"/>
<stop offset="1" stop-color="white"/>
</linearGradient>
<linearGradient id="paint56_linear_925_9022" x1="278.077" y1="56.5371" x2="278.077" y2="68.4254" gradientUnits="userSpaceOnUse">
<stop stop-color="#A8C9D1"/>
<stop offset="1" stop-color="white"/>
</linearGradient>
<linearGradient id="paint57_linear_925_9022" x1="271.275" y1="52.3271" x2="271.275" y2="63.6553" gradientUnits="userSpaceOnUse">
<stop stop-color="#A8C9D1"/>
<stop offset="1" stop-color="white"/>
</linearGradient>
<linearGradient id="paint58_linear_925_9022" x1="181.498" y1="106.564" x2="181.498" y2="112.436" gradientUnits="userSpaceOnUse">
<stop stop-color="#A8C9D1"/>
<stop offset="1" stop-color="white"/>
</linearGradient>
<linearGradient id="paint59_linear_925_9022" x1="197.994" y1="94.5684" x2="197.994" y2="105.499" gradientUnits="userSpaceOnUse">
<stop stop-color="#A8C9D1"/>
<stop offset="1" stop-color="white"/>
</linearGradient>
<linearGradient id="paint60_linear_925_9022" x1="172.772" y1="62.1543" x2="172.772" y2="79.3363" gradientUnits="userSpaceOnUse">
<stop stop-color="#A8C9D1"/>
<stop offset="1" stop-color="white"/>
</linearGradient>
<linearGradient id="paint61_linear_925_9022" x1="199.177" y1="51.6582" x2="199.177" y2="59.5355" gradientUnits="userSpaceOnUse">
<stop stop-color="#A8C9D1"/>
<stop offset="1" stop-color="white"/>
</linearGradient>
<linearGradient id="paint62_linear_925_9022" x1="278.348" y1="61.3232" x2="278.348" y2="78.18" gradientUnits="userSpaceOnUse">
<stop stop-color="#A8C9D1"/>
<stop offset="1" stop-color="white"/>
</linearGradient>
<linearGradient id="paint63_linear_925_9022" x1="383.681" y1="69.7783" x2="383.681" y2="80.2032" gradientUnits="userSpaceOnUse">
<stop stop-color="#A8C9D1"/>
<stop offset="1" stop-color="white"/>
</linearGradient>
<linearGradient id="paint64_linear_925_9022" x1="332.315" y1="19.6064" x2="332.315" y2="111.144" gradientUnits="userSpaceOnUse">
<stop stop-color="#A8C9D1"/>
<stop offset="1" stop-color="white"/>
</linearGradient>
<linearGradient id="paint65_linear_925_9022" x1="276.114" y1="78.1679" x2="387.665" y2="80.8358" gradientUnits="userSpaceOnUse">
<stop stop-color="#A8C9D1"/>
<stop offset="1" stop-color="white"/>
</linearGradient>
<linearGradient id="paint66_linear_925_9022" x1="323.122" y1="44.0322" x2="323.122" y2="128.768" gradientUnits="userSpaceOnUse">
<stop stop-color="#A8C9D1"/>
<stop offset="1" stop-color="white"/>
</linearGradient>
<linearGradient id="paint67_linear_925_9022" x1="278.606" y1="78.2265" x2="385.173" y2="80.7751" gradientUnits="userSpaceOnUse">
<stop stop-color="#A8C9D1"/>
<stop offset="1" stop-color="white"/>
</linearGradient>
<linearGradient id="paint68_linear_925_9022" x1="289.083" y1="78.4772" x2="374.661" y2="80.5239" gradientUnits="userSpaceOnUse">
<stop stop-color="#A8C9D1"/>
<stop offset="1" stop-color="white"/>
</linearGradient>
<linearGradient id="paint69_linear_925_9022" x1="331.904" y1="75.9219" x2="331.904" y2="117.292" gradientUnits="userSpaceOnUse">
<stop stop-color="#A8C9D1"/>
<stop offset="1" stop-color="white"/>
</linearGradient>
<linearGradient id="paint70_linear_925_9022" x1="333.151" y1="41.7246" x2="333.151" y2="97.0789" gradientUnits="userSpaceOnUse">
<stop stop-color="#A8C9D1"/>
<stop offset="1" stop-color="white"/>
</linearGradient>
<linearGradient id="paint71_linear_925_9022" x1="285.761" y1="31.9463" x2="285.761" y2="78.3069" gradientUnits="userSpaceOnUse">
<stop stop-color="#A8C9D1"/>
<stop offset="1" stop-color="white"/>
</linearGradient>
<linearGradient id="paint72_linear_925_9022" x1="385.415" y1="62.6416" x2="385.415" y2="66.8888" gradientUnits="userSpaceOnUse">
<stop stop-color="#A8C9D1"/>
<stop offset="1" stop-color="white"/>
</linearGradient>
<linearGradient id="paint73_linear_925_9022" x1="380.753" y1="49.5625" x2="380.753" y2="56.2835" gradientUnits="userSpaceOnUse">
<stop stop-color="#A8C9D1"/>
<stop offset="1" stop-color="white"/>
</linearGradient>
<linearGradient id="paint74_linear_925_9022" x1="374.24" y1="40.2393" x2="374.24" y2="47.0145" gradientUnits="userSpaceOnUse">
<stop stop-color="#A8C9D1"/>
<stop offset="1" stop-color="white"/>
</linearGradient>
<linearGradient id="paint75_linear_925_9022" x1="364.078" y1="31.6396" x2="364.078" y2="39.4628" gradientUnits="userSpaceOnUse">
<stop stop-color="#A8C9D1"/>
<stop offset="1" stop-color="white"/>
</linearGradient>
<linearGradient id="paint76_linear_925_9022" x1="353.861" y1="25.7676" x2="353.861" y2="34.4941" gradientUnits="userSpaceOnUse">
<stop stop-color="#A8C9D1"/>
<stop offset="1" stop-color="white"/>
</linearGradient>
<linearGradient id="paint77_linear_925_9022" x1="343.58" y1="23.0029" x2="343.58" y2="31.4584" gradientUnits="userSpaceOnUse">
<stop stop-color="#A8C9D1"/>
<stop offset="1" stop-color="white"/>
</linearGradient>
<linearGradient id="paint78_linear_925_9022" x1="333.245" y1="21.8828" x2="333.245" y2="30.4286" gradientUnits="userSpaceOnUse">
<stop stop-color="#A8C9D1"/>
<stop offset="1" stop-color="white"/>
</linearGradient>
<linearGradient id="paint79_linear_925_9022" x1="322.893" y1="22.5137" x2="322.893" y2="30.6439" gradientUnits="userSpaceOnUse">
<stop stop-color="#A8C9D1"/>
<stop offset="1" stop-color="white"/>
</linearGradient>
<linearGradient id="paint80_linear_925_9022" x1="312.478" y1="24.9717" x2="312.478" y2="32.9032" gradientUnits="userSpaceOnUse">
<stop stop-color="#A8C9D1"/>
<stop offset="1" stop-color="white"/>
</linearGradient>
<linearGradient id="paint81_linear_925_9022" x1="302.008" y1="29.5605" x2="302.008" y2="37.998" gradientUnits="userSpaceOnUse">
<stop stop-color="#A8C9D1"/>
<stop offset="1" stop-color="white"/>
</linearGradient>
<linearGradient id="paint82_linear_925_9022" x1="66.5636" y1="197.821" x2="66.5636" y2="212.618" gradientUnits="userSpaceOnUse">
<stop stop-color="#A8C9D1"/>
<stop offset="1" stop-color="white"/>
</linearGradient>
<linearGradient id="paint83_linear_925_9022" x1="159.05" y1="205.248" x2="159.05" y2="214.408" gradientUnits="userSpaceOnUse">
<stop stop-color="#A8C9D1"/>
<stop offset="1" stop-color="white"/>
</linearGradient>
<linearGradient id="paint84_linear_925_9022" x1="113.936" y1="161.22" x2="113.936" y2="241.605" gradientUnits="userSpaceOnUse">
<stop stop-color="#A8C9D1"/>
<stop offset="1" stop-color="white"/>
</linearGradient>
<linearGradient id="paint85_linear_925_9022" x1="64.5978" y1="212.61" x2="162.531" y2="214.952" gradientUnits="userSpaceOnUse">
<stop stop-color="#A8C9D1"/>
<stop offset="1" stop-color="white"/>
</linearGradient>
<linearGradient id="paint86_linear_925_9022" x1="105.881" y1="182.646" x2="105.881" y2="257.045" gradientUnits="userSpaceOnUse">
<stop stop-color="#A8C9D1"/>
<stop offset="1" stop-color="white"/>
</linearGradient>
<linearGradient id="paint87_linear_925_9022" x1="66.7831" y1="212.663" x2="160.345" y2="214.9" gradientUnits="userSpaceOnUse">
<stop stop-color="#A8C9D1"/>
<stop offset="1" stop-color="white"/>
</linearGradient>
<linearGradient id="paint88_linear_925_9022" x1="76.0131" y1="212.884" x2="151.115" y2="214.68" gradientUnits="userSpaceOnUse">
<stop stop-color="#A8C9D1"/>
<stop offset="1" stop-color="white"/>
</linearGradient>
<linearGradient id="paint89_linear_925_9022" x1="113.58" y1="210.65" x2="113.58" y2="246.978" gradientUnits="userSpaceOnUse">
<stop stop-color="#A8C9D1"/>
<stop offset="1" stop-color="white"/>
</linearGradient>
<linearGradient id="paint90_linear_925_9022" x1="114.69" y1="180.609" x2="114.69" y2="229.205" gradientUnits="userSpaceOnUse">
<stop stop-color="#A8C9D1"/>
<stop offset="1" stop-color="white"/>
</linearGradient>
<linearGradient id="paint91_linear_925_9022" x1="73.0709" y1="172.003" x2="73.0709" y2="212.727" gradientUnits="userSpaceOnUse">
<stop stop-color="#A8C9D1"/>
<stop offset="1" stop-color="white"/>
</linearGradient>
<linearGradient id="paint92_linear_925_9022" x1="160.532" y1="198.979" x2="160.532" y2="202.718" gradientUnits="userSpaceOnUse">
<stop stop-color="#A8C9D1"/>
<stop offset="1" stop-color="white"/>
</linearGradient>
<linearGradient id="paint93_linear_925_9022" x1="156.475" y1="187.505" x2="156.475" y2="193.396" gradientUnits="userSpaceOnUse">
<stop stop-color="#A8C9D1"/>
<stop offset="1" stop-color="white"/>
</linearGradient>
<linearGradient id="paint94_linear_925_9022" x1="150.758" y1="179.338" x2="150.758" y2="185.301" gradientUnits="userSpaceOnUse">
<stop stop-color="#A8C9D1"/>
<stop offset="1" stop-color="white"/>
</linearGradient>
<linearGradient id="paint95_linear_925_9022" x1="141.841" y1="171.769" x2="141.841" y2="178.635" gradientUnits="userSpaceOnUse">
<stop stop-color="#A8C9D1"/>
<stop offset="1" stop-color="white"/>
</linearGradient>
<linearGradient id="paint96_linear_925_9022" x1="132.853" y1="166.638" x2="132.853" y2="174.281" gradientUnits="userSpaceOnUse">
<stop stop-color="#A8C9D1"/>
<stop offset="1" stop-color="white"/>
</linearGradient>
<linearGradient id="paint97_linear_925_9022" x1="123.837" y1="164.215" x2="123.837" y2="171.624" gradientUnits="userSpaceOnUse">
<stop stop-color="#A8C9D1"/>
<stop offset="1" stop-color="white"/>
</linearGradient>
<linearGradient id="paint98_linear_925_9022" x1="114.767" y1="163.204" x2="114.767" y2="170.703" gradientUnits="userSpaceOnUse">
<stop stop-color="#A8C9D1"/>
<stop offset="1" stop-color="white"/>
</linearGradient>
<linearGradient id="paint99_linear_925_9022" x1="105.67" y1="163.764" x2="105.67" y2="170.902" gradientUnits="userSpaceOnUse">
<stop stop-color="#A8C9D1"/>
<stop offset="1" stop-color="white"/>
</linearGradient>
<linearGradient id="paint100_linear_925_9022" x1="96.5286" y1="165.932" x2="96.5286" y2="172.906" gradientUnits="userSpaceOnUse">
<stop stop-color="#A8C9D1"/>
<stop offset="1" stop-color="white"/>
</linearGradient>
<linearGradient id="paint101_linear_925_9022" x1="87.3411" y1="169.944" x2="87.3411" y2="177.353" gradientUnits="userSpaceOnUse">
<stop stop-color="#A8C9D1"/>
<stop offset="1" stop-color="white"/>
</linearGradient>
<clipPath id="clip0_925_9022">
<rect width="462" height="291" rx="8" fill="white"/>
</clipPath>
</defs>
</svg>
