<svg width="462" height="291" viewBox="0 0 462 291" fill="none" xmlns="http://www.w3.org/2000/svg">
<g clip-path="url(#clip0_925_8698)">
<rect width="462" height="291" rx="8" fill="#F6F7F8"/>
<path d="M256.775 153.971C259.541 152.395 268.589 155.678 271.33 157.255L374.89 217.023C380.836 220.461 392.288 235.662 386.342 239.1L215.077 338.498C212.311 340.075 201.945 344.16 199.179 342.557L91.1459 280.203C85.2001 276.765 72.533 260.867 78.5046 257.454L256.749 153.971H256.775Z" fill="url(#paint0_linear_925_8698)" stroke="#64B5C8" stroke-linejoin="round"/>
<path d="M256.336 155.755C258.818 154.333 268.046 157.901 270.528 159.349L371.891 217.876C377.242 220.978 389.754 235.92 384.377 238.996L215 337.335C212.518 338.757 201.841 343.203 199.36 341.781L93.1106 280.462C87.7594 277.36 73.9548 261.668 79.306 258.592L256.31 155.807L256.336 155.755Z" fill="url(#paint1_linear_925_8698)" stroke="#64B5C8" stroke-linejoin="round"/>
<path d="M255.896 157.54C258.093 156.273 267.503 160.151 269.7 161.418L368.866 218.678C373.622 221.419 387.169 236.128 382.386 238.868L214.895 336.173C212.698 337.439 201.711 342.248 199.514 340.981L95.0486 280.67C90.292 277.93 75.3241 262.419 80.1066 259.679L255.87 157.566L255.896 157.54Z" fill="url(#paint2_linear_925_8698)" stroke="#64B5C8" stroke-linejoin="round"/>
<path d="M255.483 159.348C257.421 158.236 267.012 162.399 268.925 163.51L365.919 219.504C370.081 221.908 384.662 236.359 380.5 238.737L214.87 334.982C212.931 336.094 201.66 341.29 199.721 340.178L97.0398 280.901C92.8778 278.497 76.7724 263.167 80.9345 260.789L255.457 159.348H255.483Z" fill="url(#paint3_linear_925_8698)" stroke="#64B5C8" stroke-linejoin="round"/>
<path d="M255.043 161.132C256.698 160.176 266.47 164.648 268.124 165.605L362.921 220.332C366.488 222.4 382.128 236.566 378.535 238.635L214.793 333.819C213.138 334.776 201.557 340.334 199.903 339.377L99.0048 281.134C95.4373 279.066 78.1687 263.943 81.762 261.901L255.043 161.158V161.132Z" fill="url(#paint4_linear_925_8698)" stroke="#64B5C8" stroke-linejoin="round"/>
<path d="M254.604 162.942C255.974 162.14 265.927 166.923 267.297 167.698L359.896 221.159C362.869 222.865 379.543 236.799 376.57 238.505L214.715 332.63C213.345 333.431 201.454 339.351 200.084 338.55L100.97 281.341C97.9967 279.635 79.5905 264.693 82.5634 262.986L254.604 162.916V162.942Z" fill="url(#paint5_linear_925_8698)" stroke="#64B5C8" stroke-linejoin="round"/>
<path d="M254.191 164.726C255.302 164.105 265.41 169.146 266.522 169.792L356.95 221.986C359.328 223.356 377.036 237.032 374.658 238.402L214.69 331.492C213.578 332.113 201.402 338.421 200.316 337.8L102.986 281.599C100.608 280.229 81.0385 265.494 83.4168 264.124L254.216 164.726H254.191Z" fill="url(#paint6_linear_925_8698)" stroke="#64B5C8" stroke-linejoin="round"/>
<path d="M253.75 166.535C254.577 166.07 264.866 171.421 265.693 171.887L353.924 222.814C355.708 223.848 374.476 237.239 372.666 238.273L214.56 330.304C213.732 330.769 201.272 337.464 200.445 336.973L104.898 281.807C103.115 280.772 82.4076 266.244 84.1914 265.21L253.75 166.51V166.535Z" fill="url(#paint7_linear_925_8698)" stroke="#64B5C8" stroke-linejoin="round"/>
<path d="M253.311 168.32C253.854 168.01 264.324 173.671 264.892 173.981L350.951 223.668C352.141 224.366 371.943 237.498 370.754 238.196L214.534 329.167C213.991 329.477 201.221 336.534 200.652 336.224L106.889 282.092C105.7 281.394 83.8298 267.072 85.0189 266.374L253.337 168.346L253.311 168.32Z" fill="url(#paint8_linear_925_8698)" stroke="#64B5C8" stroke-linejoin="round"/>
<path d="M252.872 170.103C253.156 169.947 263.807 175.893 264.065 176.048L347.927 224.468C348.521 224.804 369.358 237.704 368.763 238.04L214.431 327.951C214.146 328.106 201.091 335.525 200.807 335.37L108.802 282.271C108.208 281.935 85.2 267.769 85.7945 267.433L252.872 170.103Z" fill="url(#paint9_linear_925_8698)" stroke="#64B5C8" stroke-linejoin="round"/>
<path d="M201.015 334.595L86.6226 268.571L252.459 171.913L366.825 237.937L201.015 334.595Z" fill="url(#paint10_linear_925_8698)" stroke="#64B5C8" stroke-linejoin="round"/>
<path d="M201.168 337.412V348.683L391.692 236.747V225.502L201.168 337.412Z" fill="url(#paint11_linear_925_8698)" stroke="#64B5C8" stroke-linejoin="round"/>
<path d="M201.247 337.413V348.684L70 272.164V260.996L201.247 337.413Z" fill="url(#paint12_linear_925_8698)" stroke="#64B5C8" stroke-linejoin="round"/>
<path d="M70 260.995L201.247 337.412L391.694 225.501L260.292 148.981L70 260.995Z" fill="url(#paint13_linear_925_8698)" stroke="#64B5C8" stroke-linejoin="round"/>
<path d="M201.195 311.665V323.195L367.083 225.735V214.18L201.195 311.665Z" fill="url(#paint14_linear_925_8698)" stroke="#64B5C8" stroke-linejoin="round"/>
<path d="M201.247 311.665V323.195L94.6104 261.022V249.57L201.247 311.665Z" fill="url(#paint15_linear_925_8698)" stroke="#64B5C8" stroke-linejoin="round"/>
<path d="M94.6104 249.57L201.247 311.665L367.083 214.18L260.317 152.033L94.6104 249.57Z" fill="url(#paint16_linear_925_8698)" stroke="#64B5C8" stroke-linejoin="round"/>
<path d="M298.422 246.157H270.244V247.967C270.244 247.967 270.244 248.044 270.244 248.07C270.244 252.594 276.552 256.265 284.333 256.265C292.114 256.265 298.422 252.594 298.422 248.07C298.422 248.044 298.422 247.993 298.422 247.967V246.157Z" fill="url(#paint17_linear_925_8698)" stroke="#64B5C8" stroke-linejoin="round"/>
<path d="M298.422 246.21C298.422 250.113 292.114 253.267 284.333 253.267C276.552 253.267 270.244 250.113 270.244 246.21C270.244 242.306 276.552 239.152 284.333 239.152C292.114 239.152 298.422 242.306 298.422 246.21Z" fill="url(#paint18_linear_925_8698)" stroke="#64B5C8" stroke-linejoin="round"/>
<path d="M295.294 242.616H273.372V244.865C273.372 244.865 273.372 244.917 273.372 244.943C273.372 248.459 278.283 251.328 284.333 251.328C290.382 251.328 295.294 248.459 295.294 244.943C295.294 244.917 295.294 244.891 295.294 244.865V242.616Z" fill="url(#paint19_linear_925_8698)" stroke="#64B5C8" stroke-linejoin="round"/>
<path d="M295.294 242.642C295.294 245.667 290.382 248.148 284.333 248.148C278.283 248.148 273.372 245.693 273.372 242.642C273.372 239.592 278.283 237.136 284.333 237.136C290.382 237.136 295.294 239.592 295.294 242.642Z" fill="url(#paint20_linear_925_8698)" stroke="#64B5C8" stroke-linejoin="round"/>
<path d="M292.605 181.994H276.035V241.814C276.035 241.814 276.035 241.866 276.035 241.892C276.035 244.554 279.757 246.726 284.333 246.726C288.909 246.726 292.631 244.554 292.631 241.892C292.631 241.892 292.631 241.84 292.631 241.814V181.994H292.605Z" fill="url(#paint21_linear_925_8698)" stroke="#64B5C8" stroke-linejoin="round"/>
<path d="M292.605 182.021C292.605 184.322 288.882 186.184 284.307 186.184C279.731 186.184 276.008 184.322 276.008 182.021C276.008 179.721 279.731 177.859 284.307 177.859C288.882 177.859 292.605 179.721 292.605 182.021Z" fill="url(#paint22_linear_925_8698)" stroke="#64B5C8" stroke-linejoin="round"/>
<path d="M295.294 181.012H273.372V183.261C273.372 183.261 273.372 183.312 273.372 183.338C273.372 186.854 278.283 189.724 284.333 189.724C290.382 189.724 295.294 186.854 295.294 183.338C295.294 183.312 295.294 183.287 295.294 183.261V181.012Z" fill="url(#paint23_linear_925_8698)" stroke="#64B5C8" stroke-linejoin="round"/>
<path d="M295.294 181.037C295.294 184.061 290.382 186.543 284.333 186.543C278.283 186.543 273.372 184.087 273.372 181.037C273.372 177.986 278.283 175.53 284.333 175.53C290.382 175.53 295.294 177.986 295.294 181.037Z" fill="url(#paint24_linear_925_8698)" stroke="#64B5C8" stroke-linejoin="round"/>
<path d="M270.708 262.212H242.53V264.022C242.53 264.022 242.53 264.099 242.53 264.125C242.53 268.649 248.838 272.346 256.619 272.346C264.401 272.346 270.708 268.675 270.708 264.125C270.708 264.099 270.708 264.047 270.708 264.022V262.212Z" fill="url(#paint25_linear_925_8698)" stroke="#64B5C8" stroke-linejoin="round"/>
<path d="M270.708 262.262C270.708 266.166 264.401 269.32 256.619 269.32C248.838 269.32 242.53 266.166 242.53 262.262C242.53 258.359 248.838 255.205 256.619 255.205C264.401 255.205 270.708 258.359 270.708 262.262Z" fill="url(#paint26_linear_925_8698)" stroke="#64B5C8" stroke-linejoin="round"/>
<path d="M267.582 258.669H245.66V260.918C245.66 260.918 245.66 260.97 245.66 260.996C245.66 264.511 250.571 267.381 256.621 267.381C262.67 267.381 267.582 264.511 267.582 260.996C267.582 260.97 267.582 260.944 267.582 260.918V258.669Z" fill="url(#paint27_linear_925_8698)" stroke="#64B5C8" stroke-linejoin="round"/>
<path d="M267.582 258.696C267.582 261.72 262.67 264.202 256.621 264.202C250.571 264.202 245.66 261.746 245.66 258.696C245.66 255.645 250.571 253.189 256.621 253.189C262.67 253.189 267.582 255.645 267.582 258.696Z" fill="url(#paint28_linear_925_8698)" stroke="#64B5C8" stroke-linejoin="round"/>
<path d="M264.892 198.048H248.321V257.868C248.321 257.868 248.321 257.92 248.321 257.945C248.321 260.608 252.044 262.78 256.62 262.78C261.195 262.78 264.918 260.608 264.918 257.945C264.918 257.945 264.918 257.894 264.918 257.868V198.048H264.892Z" fill="url(#paint29_linear_925_8698)" stroke="#64B5C8" stroke-linejoin="round"/>
<path d="M264.892 198.074C264.892 200.375 261.169 202.236 256.594 202.236C252.018 202.236 248.295 200.375 248.295 198.074C248.295 195.773 252.018 193.912 256.594 193.912C261.169 193.912 264.892 195.773 264.892 198.074Z" fill="url(#paint30_linear_925_8698)" stroke="#64B5C8" stroke-linejoin="round"/>
<path d="M267.582 197.066H245.66V199.315C245.66 199.315 245.66 199.367 245.66 199.393C245.66 202.909 250.571 205.778 256.621 205.778C262.67 205.778 267.582 202.909 267.582 199.393C267.582 199.367 267.582 199.341 267.582 199.315V197.066Z" fill="url(#paint31_linear_925_8698)" stroke="#64B5C8" stroke-linejoin="round"/>
<path d="M267.582 197.092C267.582 200.117 262.67 202.599 256.621 202.599C250.571 202.599 245.66 200.143 245.66 197.092C245.66 194.042 250.571 191.586 256.621 191.586C262.67 191.586 267.582 194.042 267.582 197.092Z" fill="url(#paint32_linear_925_8698)" stroke="#64B5C8" stroke-linejoin="round"/>
<path d="M242.97 278.265H214.792V280.074C214.792 280.074 214.792 280.152 214.792 280.178C214.792 284.702 221.1 288.372 228.881 288.372C236.662 288.372 242.97 284.702 242.97 280.178C242.97 280.152 242.97 280.1 242.97 280.074V278.265Z" fill="url(#paint33_linear_925_8698)" stroke="#64B5C8" stroke-linejoin="round"/>
<path d="M242.97 278.317C242.97 282.221 236.662 285.375 228.881 285.375C221.1 285.375 214.792 282.221 214.792 278.317C214.792 274.414 221.1 271.26 228.881 271.26C236.662 271.26 242.97 274.414 242.97 278.317Z" fill="url(#paint34_linear_925_8698)" stroke="#64B5C8" stroke-linejoin="round"/>
<path d="M239.842 274.723H217.92V276.972C217.92 276.972 217.92 277.023 217.92 277.049C217.92 280.565 222.832 283.435 228.881 283.435C234.93 283.435 239.842 280.565 239.842 277.049C239.842 277.023 239.842 276.998 239.842 276.972V274.723Z" fill="url(#paint35_linear_925_8698)" stroke="#64B5C8" stroke-linejoin="round"/>
<path d="M239.842 274.749C239.842 277.773 234.93 280.255 228.881 280.255C222.832 280.255 217.92 277.799 217.92 274.749C217.92 271.698 222.832 269.242 228.881 269.242C234.93 269.242 239.842 271.698 239.842 274.749Z" fill="url(#paint36_linear_925_8698)" stroke="#64B5C8" stroke-linejoin="round"/>
<path d="M237.18 214.103H220.609V273.922C220.609 273.922 220.609 273.974 220.609 274C220.609 276.663 224.331 278.834 228.907 278.834C233.483 278.834 237.205 276.663 237.205 274C237.205 274 237.205 273.948 237.205 273.922V214.103H237.18Z" fill="url(#paint37_linear_925_8698)" stroke="#64B5C8" stroke-linejoin="round"/>
<path d="M237.18 214.129C237.18 216.43 233.457 218.291 228.882 218.291C224.306 218.291 220.583 216.43 220.583 214.129C220.583 211.828 224.306 209.967 228.882 209.967C233.457 209.967 237.18 211.828 237.18 214.129Z" fill="url(#paint38_linear_925_8698)" stroke="#64B5C8" stroke-linejoin="round"/>
<path d="M239.842 213.119H217.92V215.368C217.92 215.368 217.92 215.42 217.92 215.446C217.92 218.962 222.832 221.831 228.881 221.831C234.93 221.831 239.842 218.962 239.842 215.446C239.842 215.42 239.842 215.394 239.842 215.368V213.119Z" fill="url(#paint39_linear_925_8698)" stroke="#64B5C8" stroke-linejoin="round"/>
<path d="M239.842 213.147C239.842 216.172 234.93 218.653 228.881 218.653C222.832 218.653 217.92 216.197 217.92 213.147C217.92 210.097 222.832 207.641 228.881 207.641C234.93 207.641 239.842 210.097 239.842 213.147Z" fill="url(#paint40_linear_925_8698)" stroke="#64B5C8" stroke-linejoin="round"/>
<path d="M353.847 214.051H325.669V215.86C325.669 215.86 325.669 215.938 325.669 215.964C325.669 220.488 331.977 224.159 339.758 224.159C347.539 224.159 353.847 220.488 353.847 215.964C353.847 215.938 353.847 215.886 353.847 215.86V214.051Z" fill="url(#paint41_linear_925_8698)" stroke="#64B5C8" stroke-linejoin="round"/>
<path d="M353.847 214.129C353.847 218.032 347.539 221.186 339.758 221.186C331.977 221.186 325.669 218.032 325.669 214.129C325.669 210.225 331.977 207.071 339.758 207.071C347.539 207.071 353.847 210.225 353.847 214.129Z" fill="url(#paint42_linear_925_8698)" stroke="#64B5C8" stroke-linejoin="round"/>
<path d="M350.719 210.509H328.797V212.758C328.797 212.758 328.797 212.81 328.797 212.835C328.797 216.351 333.709 219.221 339.758 219.221C345.807 219.221 350.719 216.351 350.719 212.835C350.719 212.81 350.719 212.784 350.719 212.758V210.509Z" fill="url(#paint43_linear_925_8698)" stroke="#64B5C8" stroke-linejoin="round"/>
<path d="M350.719 210.561C350.719 213.586 345.807 216.067 339.758 216.067C333.709 216.067 328.797 213.611 328.797 210.561C328.797 207.511 333.709 205.055 339.758 205.055C345.807 205.055 350.719 207.511 350.719 210.561Z" fill="url(#paint44_linear_925_8698)" stroke="#64B5C8" stroke-linejoin="round"/>
<path d="M348.056 149.913H331.485V209.733C331.485 209.733 331.485 209.785 331.485 209.811C331.485 212.473 335.208 214.645 339.784 214.645C344.359 214.645 348.082 212.473 348.082 209.811C348.082 209.811 348.082 209.759 348.082 209.733V149.913H348.056Z" fill="url(#paint45_linear_925_8698)" stroke="#64B5C8" stroke-linejoin="round"/>
<path d="M348.057 149.939C348.057 152.24 344.334 154.101 339.758 154.101C335.183 154.101 331.46 152.24 331.46 149.939C331.46 147.639 335.183 145.777 339.758 145.777C344.334 145.777 348.057 147.639 348.057 149.939Z" fill="url(#paint46_linear_925_8698)" stroke="#64B5C8" stroke-linejoin="round"/>
<path d="M350.719 148.904H328.797V151.153C328.797 151.153 328.797 151.205 328.797 151.231C328.797 154.747 333.709 157.616 339.758 157.616C345.807 157.616 350.719 154.747 350.719 151.231C350.719 151.205 350.719 151.179 350.719 151.153V148.904Z" fill="url(#paint47_linear_925_8698)" stroke="#64B5C8" stroke-linejoin="round"/>
<path d="M350.719 148.957C350.719 151.982 345.807 154.464 339.758 154.464C333.709 154.464 328.797 152.008 328.797 148.957C328.797 145.907 333.709 143.451 339.758 143.451C345.807 143.451 350.719 145.907 350.719 148.957Z" fill="url(#paint48_linear_925_8698)" stroke="#64B5C8" stroke-linejoin="round"/>
<path d="M326.135 230.104H297.957V231.914C297.957 231.914 297.957 231.992 297.957 232.017C297.957 236.541 304.265 240.212 312.046 240.212C319.827 240.212 326.135 236.541 326.135 232.017C326.135 231.992 326.135 231.94 326.135 231.914V230.104Z" fill="url(#paint49_linear_925_8698)" stroke="#64B5C8" stroke-linejoin="round"/>
<path d="M312.046 237.239C319.827 237.239 326.135 234.079 326.135 230.181C326.135 226.284 319.827 223.124 312.046 223.124C304.265 223.124 297.957 226.284 297.957 230.181C297.957 234.079 304.265 237.239 312.046 237.239Z" fill="url(#paint50_linear_925_8698)" stroke="#64B5C8" stroke-linejoin="round"/>
<path d="M323.006 226.562H301.084V228.812C301.084 228.812 301.084 228.863 301.084 228.889C301.084 232.405 305.996 235.274 312.045 235.274C318.095 235.274 323.006 232.405 323.006 228.889C323.006 228.863 323.006 228.837 323.006 228.812V226.562Z" fill="url(#paint51_linear_925_8698)" stroke="#64B5C8" stroke-linejoin="round"/>
<path d="M323.006 226.614C323.006 229.638 318.095 232.12 312.045 232.12C305.996 232.12 301.084 229.664 301.084 226.614C301.084 223.563 305.996 221.107 312.045 221.107C318.095 221.107 323.006 223.563 323.006 226.614Z" fill="url(#paint52_linear_925_8698)" stroke="#64B5C8" stroke-linejoin="round"/>
<path d="M320.317 165.967H303.747V225.787C303.747 225.787 303.747 225.838 303.747 225.864C303.747 228.527 307.469 230.698 312.045 230.698C316.621 230.698 320.343 228.527 320.343 225.864V225.813V165.967H320.317Z" fill="url(#paint53_linear_925_8698)" stroke="#64B5C8" stroke-linejoin="round"/>
<path d="M320.318 165.992C320.318 168.293 316.595 170.154 312.019 170.154C307.444 170.154 303.721 168.293 303.721 165.992C303.721 163.691 307.444 161.83 312.019 161.83C316.595 161.83 320.318 163.691 320.318 165.992Z" fill="url(#paint54_linear_925_8698)" stroke="#64B5C8" stroke-linejoin="round"/>
<path d="M323.006 164.959H301.084V167.208C301.084 167.208 301.084 167.26 301.084 167.286C301.084 170.801 305.996 173.671 312.045 173.671C318.095 173.671 323.006 170.801 323.006 167.286C323.006 167.26 323.006 167.234 323.006 167.208V164.959Z" fill="url(#paint55_linear_925_8698)" stroke="#64B5C8" stroke-linejoin="round"/>
<path d="M323.006 165.011C323.006 168.036 318.095 170.518 312.045 170.518C305.996 170.518 301.084 168.062 301.084 165.011C301.084 161.961 305.996 159.505 312.045 159.505C318.095 159.505 323.006 161.961 323.006 165.011Z" fill="url(#paint56_linear_925_8698)" stroke="#64B5C8" stroke-linejoin="round"/>
<path d="M215.258 294.371C215.258 298.274 208.95 301.428 201.169 301.428C193.388 301.428 187.08 298.274 187.08 294.371C187.08 290.467 193.388 287.313 201.169 287.313C208.95 287.313 215.258 290.467 215.258 294.371Z" fill="url(#paint57_linear_925_8698)" stroke="#64B5C8" stroke-linejoin="round"/>
<path d="M212.13 290.751H190.208V293C190.208 293 190.208 293.052 190.208 293.078C190.208 296.593 195.12 299.463 201.169 299.463C207.219 299.463 212.13 296.593 212.13 293.078C212.13 293.052 212.13 293.026 212.13 293V290.751Z" fill="url(#paint58_linear_925_8698)" stroke="#64B5C8" stroke-linejoin="round"/>
<path d="M212.13 290.804C212.13 293.829 207.219 296.31 201.169 296.31C195.12 296.31 190.208 293.855 190.208 290.804C190.208 287.754 195.12 285.298 201.169 285.298C207.219 285.298 212.13 287.754 212.13 290.804Z" fill="url(#paint59_linear_925_8698)" stroke="#64B5C8" stroke-linejoin="round"/>
<path d="M209.467 230.157H192.896V289.977C192.896 289.977 192.896 290.029 192.896 290.055C192.896 292.717 196.619 294.889 201.195 294.889C205.77 294.889 209.493 292.717 209.493 290.055C209.493 290.055 209.493 290.003 209.493 289.977V230.157H209.467Z" fill="url(#paint60_linear_925_8698)" stroke="#64B5C8" stroke-linejoin="round"/>
<path d="M209.467 230.182C209.467 232.482 205.744 234.344 201.168 234.344C196.593 234.344 192.87 232.482 192.87 230.182C192.87 227.881 196.593 226.02 201.168 226.02C205.744 226.02 209.467 227.881 209.467 230.182Z" fill="url(#paint61_linear_925_8698)" stroke="#64B5C8" stroke-linejoin="round"/>
<path d="M212.13 229.174H190.208V231.423C190.208 231.423 190.208 231.475 190.208 231.5C190.208 235.016 195.12 237.886 201.169 237.886C207.219 237.886 212.13 235.016 212.13 231.5C212.13 231.475 212.13 231.449 212.13 231.423V229.174Z" fill="url(#paint62_linear_925_8698)" stroke="#64B5C8" stroke-linejoin="round"/>
<path d="M212.13 229.2C212.13 232.224 207.219 234.706 201.169 234.706C195.12 234.706 190.208 232.25 190.208 229.2C190.208 226.149 195.12 223.693 201.169 223.693C207.219 223.693 212.13 226.149 212.13 229.2Z" fill="url(#paint63_linear_925_8698)" stroke="#64B5C8" stroke-linejoin="round"/>
<path d="M132.327 246.157H104.149V247.967C104.149 247.967 104.149 248.044 104.149 248.07C104.149 252.594 110.457 256.265 118.238 256.265C126.019 256.265 132.327 252.594 132.327 248.07C132.327 248.044 132.327 247.993 132.327 247.967V246.157Z" fill="url(#paint64_linear_925_8698)" stroke="#64B5C8" stroke-linejoin="round"/>
<path d="M132.327 246.21C132.327 250.113 126.019 253.267 118.238 253.267C110.457 253.267 104.149 250.113 104.149 246.21C104.149 242.306 110.457 239.152 118.238 239.152C126.019 239.152 132.327 242.306 132.327 246.21Z" fill="url(#paint65_linear_925_8698)" stroke="#64B5C8" stroke-linejoin="round"/>
<path d="M129.199 242.616H107.277V244.865C107.277 244.865 107.277 244.917 107.277 244.943C107.277 248.459 112.189 251.328 118.238 251.328C124.287 251.328 129.199 248.459 129.199 244.943C129.199 244.917 129.199 244.891 129.199 244.865V242.616Z" fill="url(#paint66_linear_925_8698)" stroke="#64B5C8" stroke-linejoin="round"/>
<path d="M129.199 242.642C129.199 245.667 124.287 248.148 118.238 248.148C112.189 248.148 107.277 245.693 107.277 242.642C107.277 239.592 112.189 237.136 118.238 237.136C124.287 237.136 129.199 239.592 129.199 242.642Z" fill="url(#paint67_linear_925_8698)" stroke="#64B5C8" stroke-linejoin="round"/>
<path d="M126.536 181.994H109.965V241.814C109.965 241.814 109.965 241.866 109.965 241.892C109.965 244.554 113.688 246.726 118.264 246.726C122.839 246.726 126.562 244.554 126.562 241.892C126.562 241.892 126.562 241.84 126.562 241.814V181.994H126.536Z" fill="url(#paint68_linear_925_8698)" stroke="#64B5C8" stroke-linejoin="round"/>
<path d="M126.537 182.021C126.537 184.322 122.814 186.184 118.239 186.184C113.663 186.184 109.94 184.322 109.94 182.021C109.94 179.721 113.663 177.859 118.239 177.859C122.814 177.859 126.537 179.721 126.537 182.021Z" fill="url(#paint69_linear_925_8698)" stroke="#64B5C8" stroke-linejoin="round"/>
<path d="M129.199 181.012H107.277V183.261C107.277 183.261 107.277 183.312 107.277 183.338C107.277 186.854 112.189 189.724 118.238 189.724C124.287 189.724 129.199 186.854 129.199 183.338C129.199 183.312 129.199 183.287 129.199 183.261V181.012Z" fill="url(#paint70_linear_925_8698)" stroke="#64B5C8" stroke-linejoin="round"/>
<path d="M129.199 181.037C129.199 184.061 124.287 186.543 118.238 186.543C112.189 186.543 107.277 184.087 107.277 181.037C107.277 177.986 112.189 175.53 118.238 175.53C124.287 175.53 129.199 177.986 129.199 181.037Z" fill="url(#paint71_linear_925_8698)" stroke="#64B5C8" stroke-linejoin="round"/>
<path d="M160.065 262.212H131.887V264.022C131.887 264.022 131.887 264.099 131.887 264.125C131.887 268.649 138.195 272.346 145.976 272.346C153.757 272.346 160.065 268.675 160.065 264.125C160.065 264.099 160.065 264.047 160.065 264.022V262.212Z" fill="url(#paint72_linear_925_8698)" stroke="#64B5C8" stroke-linejoin="round"/>
<path d="M160.065 262.262C160.065 266.166 153.757 269.32 145.976 269.32C138.195 269.32 131.887 266.166 131.887 262.262C131.887 258.359 138.195 255.205 145.976 255.205C153.757 255.205 160.065 258.359 160.065 262.262Z" fill="url(#paint73_linear_925_8698)" stroke="#64B5C8" stroke-linejoin="round"/>
<path d="M156.937 258.669H135.015V260.918C135.015 260.918 135.015 260.97 135.015 260.996C135.015 264.511 139.927 267.381 145.976 267.381C152.025 267.381 156.937 264.511 156.937 260.996C156.937 260.97 156.937 260.944 156.937 260.918V258.669Z" fill="url(#paint74_linear_925_8698)" stroke="#64B5C8" stroke-linejoin="round"/>
<path d="M156.937 258.696C156.937 261.72 152.025 264.202 145.976 264.202C139.927 264.202 135.015 261.746 135.015 258.696C135.015 255.645 139.927 253.189 145.976 253.189C152.025 253.189 156.937 255.645 156.937 258.696Z" fill="url(#paint75_linear_925_8698)" stroke="#64B5C8" stroke-linejoin="round"/>
<path d="M154.249 198.048H137.679V257.868C137.679 257.868 137.679 257.92 137.679 257.945C137.679 260.608 141.401 262.78 145.977 262.78C150.553 262.78 154.275 260.608 154.275 257.945C154.275 257.945 154.275 257.894 154.275 257.868V198.048H154.249Z" fill="url(#paint76_linear_925_8698)" stroke="#64B5C8" stroke-linejoin="round"/>
<path d="M154.249 198.074C154.249 200.375 150.526 202.236 145.951 202.236C141.375 202.236 137.652 200.375 137.652 198.074C137.652 195.773 141.375 193.912 145.951 193.912C150.526 193.912 154.249 195.773 154.249 198.074Z" fill="url(#paint77_linear_925_8698)" stroke="#64B5C8" stroke-linejoin="round"/>
<path d="M156.937 197.066H135.015V199.315C135.015 199.315 135.015 199.367 135.015 199.393C135.015 202.909 139.927 205.778 145.976 205.778C152.025 205.778 156.937 202.909 156.937 199.393C156.937 199.367 156.937 199.341 156.937 199.315V197.066Z" fill="url(#paint78_linear_925_8698)" stroke="#64B5C8" stroke-linejoin="round"/>
<path d="M156.937 197.092C156.937 200.117 152.025 202.599 145.976 202.599C139.927 202.599 135.015 200.143 135.015 197.092C135.015 194.042 139.927 191.586 145.976 191.586C152.025 191.586 156.937 194.042 156.937 197.092Z" fill="url(#paint79_linear_925_8698)" stroke="#64B5C8" stroke-linejoin="round"/>
<path d="M187.779 278.265H159.601V280.074C159.601 280.074 159.601 280.152 159.601 280.178C159.601 284.702 165.909 288.372 173.69 288.372C181.471 288.372 187.779 284.702 187.779 280.178C187.779 280.152 187.779 280.1 187.779 280.074V278.265Z" fill="url(#paint80_linear_925_8698)" stroke="#64B5C8" stroke-linejoin="round"/>
<path d="M187.779 278.317C187.779 282.221 181.471 285.375 173.69 285.375C165.909 285.375 159.601 282.221 159.601 278.317C159.601 274.414 165.909 271.26 173.69 271.26C181.471 271.26 187.779 274.414 187.779 278.317Z" fill="url(#paint81_linear_925_8698)" stroke="#64B5C8" stroke-linejoin="round"/>
<path d="M184.65 274.723H162.729V276.972C162.729 276.972 162.729 277.023 162.729 277.049C162.729 280.565 167.64 283.435 173.689 283.435C179.739 283.435 184.65 280.565 184.65 277.049C184.65 277.023 184.65 276.998 184.65 276.972V274.723Z" fill="url(#paint82_linear_925_8698)" stroke="#64B5C8" stroke-linejoin="round"/>
<path d="M184.65 274.749C184.65 277.773 179.739 280.255 173.689 280.255C167.64 280.255 162.729 277.799 162.729 274.749C162.729 271.698 167.64 269.242 173.689 269.242C179.739 269.242 184.65 271.698 184.65 274.749Z" fill="url(#paint83_linear_925_8698)" stroke="#64B5C8" stroke-linejoin="round"/>
<path d="M181.961 214.103H165.391V273.922C165.391 273.922 165.391 273.974 165.391 274C165.391 276.663 169.113 278.834 173.689 278.834C178.265 278.834 181.987 276.663 181.987 274C181.987 274 181.987 273.948 181.987 273.922V214.103H181.961Z" fill="url(#paint84_linear_925_8698)" stroke="#64B5C8" stroke-linejoin="round"/>
<path d="M181.962 214.129C181.962 216.43 178.24 218.291 173.664 218.291C169.088 218.291 165.366 216.43 165.366 214.129C165.366 211.828 169.088 209.967 173.664 209.967C178.24 209.967 181.962 211.828 181.962 214.129Z" fill="url(#paint85_linear_925_8698)" stroke="#64B5C8" stroke-linejoin="round"/>
<path d="M184.65 213.119H162.729V215.368C162.729 215.368 162.729 215.42 162.729 215.446C162.729 218.962 167.64 221.831 173.689 221.831C179.739 221.831 184.65 218.962 184.65 215.446C184.65 215.42 184.65 215.394 184.65 215.368V213.119Z" fill="url(#paint86_linear_925_8698)" stroke="#64B5C8" stroke-linejoin="round"/>
<path d="M184.65 213.147C184.65 216.172 179.739 218.653 173.689 218.653C167.64 218.653 162.729 216.197 162.729 213.147C162.729 210.097 167.64 207.641 173.689 207.641C179.739 207.641 184.65 210.097 184.65 213.147Z" fill="url(#paint87_linear_925_8698)" stroke="#64B5C8" stroke-linejoin="round"/>
<path d="M201.195 226.096V236.746L351.366 148.438V137.762L201.195 226.096Z" fill="url(#paint88_linear_925_8698)" stroke="#64B5C8" stroke-linejoin="round"/>
<path d="M201.246 226.096V236.747L102.649 179.28V168.681L201.246 226.096Z" fill="url(#paint89_linear_925_8698)" stroke="#64B5C8" stroke-linejoin="round"/>
<path d="M201.195 226.096V230.18L351.366 141.846V137.762L201.195 226.096Z" fill="url(#paint90_linear_925_8698)" stroke="#64B5C8" stroke-linejoin="round"/>
<path d="M201.246 226.096V230.181L102.649 172.713V168.681L201.246 226.096Z" fill="url(#paint91_linear_925_8698)" stroke="#64B5C8" stroke-linejoin="round"/>
<path d="M102.649 168.681L201.246 226.096L351.365 137.762L252.69 80.2949L102.649 168.681Z" fill="url(#paint92_linear_925_8698)" stroke="#64B5C8" stroke-linejoin="round"/>
<path d="M201.195 224.804V228.062L352.477 139.081V135.824L201.195 224.804Z" fill="url(#paint93_linear_925_8698)" stroke="#64B5C8" stroke-linejoin="round"/>
<path d="M201.247 224.803V228.061L101.564 169.947V166.741L201.247 224.803Z" fill="url(#paint94_linear_925_8698)" stroke="#64B5C8" stroke-linejoin="round"/>
<path d="M101.564 166.743L201.247 224.805L352.477 135.825L252.691 77.7109L101.564 166.743Z" fill="url(#paint95_linear_925_8698)" stroke="#64B5C8" stroke-linejoin="round"/>
<path d="M248.865 79.7268L299.094 56.6416L349.323 137.737L248.865 79.7268Z" fill="url(#paint96_linear_925_8698)" stroke="#64B5C8" stroke-linejoin="round"/>
<path d="M293.846 61.4766L250.106 80.529L112.913 161.469L151.043 145.855L293.846 61.4766Z" fill="url(#paint97_linear_925_8698)" stroke="#64B5C8" stroke-linejoin="round"/>
<path d="M151.926 143.158L201.38 224.083L352.313 135.45L299.005 57.0938L151.926 143.158Z" fill="url(#paint98_linear_925_8698)" stroke="#64B5C8" stroke-linejoin="round"/>
<path d="M152.697 97.8234C152.697 107.44 156.006 114.239 161.409 117.522C161.564 117.625 170.612 123.209 170.767 123.313C176.377 126.441 172.784 119.332 181.315 114.42C198.454 104.519 212.336 80.5547 212.336 60.9077C212.336 51.1876 221.333 51.11 215.826 47.8528C215.671 47.7752 205.563 42.0104 205.408 41.907C199.824 38.8824 192.172 39.4253 183.745 44.3112C166.605 54.2122 152.723 78.1764 152.723 97.8234H152.697Z" fill="url(#paint99_linear_925_8698)" stroke="#64B5C8" stroke-linejoin="round"/>
<path d="M162.857 103.845C162.857 123.518 176.739 131.428 193.879 121.527C211.018 111.626 224.9 87.6618 224.9 68.0148C224.9 48.3678 211.018 40.4315 193.879 50.3325C176.739 60.2336 162.857 84.1978 162.857 103.845Z" fill="url(#paint100_linear_925_8698)" stroke="#64B5C8" stroke-linejoin="round"/>
<path d="M170.923 99.1666C170.923 113.695 181.186 119.563 193.853 112.247C206.521 104.931 216.784 87.2233 216.784 72.669C216.784 58.1147 206.521 52.2723 193.853 59.5882C181.186 66.9042 170.923 84.6123 170.923 99.1666Z" fill="url(#paint101_linear_925_8698)" stroke="#64B5C8" stroke-linejoin="round"/>
<path d="M191.76 110.258C204.427 102.942 214.69 85.2338 214.69 70.6795C214.69 65.4834 213.346 61.3989 211.097 58.6328C214.638 61.2179 216.81 66.0263 216.81 72.6959C216.81 87.2244 206.547 104.958 193.854 112.274C185.711 116.979 178.576 116.204 174.517 111.24C178.731 114.291 184.858 114.239 191.734 110.258H191.76Z" fill="url(#paint102_linear_925_8698)" stroke="#64B5C8" stroke-linejoin="round"/>
<path d="M183.047 44.7243C183.28 44.595 183.487 44.4141 183.719 44.2848C183.926 44.1556 184.133 44.078 184.34 43.9746L194.655 49.9204C194.396 50.0755 194.138 50.1789 193.879 50.3082C193.698 50.4116 193.517 50.5408 193.336 50.6443L183.047 44.6984V44.7243Z" fill="url(#paint103_linear_925_8698)" stroke="#64B5C8" stroke-linejoin="round"/>
<path d="M194.292 40.3564L204.685 46.3539C204.064 46.4574 203.418 46.5866 202.746 46.7417L192.354 40.7442C193 40.5891 193.646 40.4599 194.292 40.3564Z" fill="url(#paint104_linear_925_8698)" stroke="#64B5C8" stroke-linejoin="round"/>
<path d="M176.972 49.0664L187.235 54.9864C186.873 55.2707 186.537 55.5809 186.201 55.8912L175.938 49.9712C176.274 49.661 176.61 49.3508 176.972 49.0664Z" fill="url(#paint105_linear_925_8698)" stroke="#64B5C8" stroke-linejoin="round"/>
<path d="M165.726 61.3213L175.963 67.2412C175.705 67.6032 175.472 67.9651 175.214 68.3011L164.977 62.3812C165.235 62.0193 165.468 61.6574 165.726 61.3213Z" fill="url(#paint106_linear_925_8698)" stroke="#64B5C8" stroke-linejoin="round"/>
<path d="M170.897 54.9346L181.135 60.8545C180.85 61.1906 180.54 61.5267 180.256 61.8369L170.019 55.9169C170.303 55.5808 170.587 55.2448 170.897 54.9346Z" fill="url(#paint107_linear_925_8698)" stroke="#64B5C8" stroke-linejoin="round"/>
<path d="M161.358 68.1465L171.57 74.0406C171.363 74.4284 171.156 74.7903 170.949 75.178L160.738 69.2839C160.945 68.8962 161.151 68.5343 161.358 68.1465Z" fill="url(#paint108_linear_925_8698)" stroke="#64B5C8" stroke-linejoin="round"/>
<path d="M154.482 108.576L164.539 114.393C164.771 115.065 165.03 115.737 165.34 116.357L155.31 110.567C154.999 109.946 154.741 109.274 154.482 108.602V108.576Z" fill="url(#paint109_linear_925_8698)" stroke="#64B5C8" stroke-linejoin="round"/>
<path d="M162.884 104.596C162.884 105.113 162.935 105.63 162.961 106.147L152.802 100.279C152.776 99.7879 152.75 99.2709 152.724 98.7539L162.858 104.622L162.884 104.596Z" fill="url(#paint110_linear_925_8698)" stroke="#64B5C8" stroke-linejoin="round"/>
<path d="M153.163 91.6694C153.215 91.2041 153.266 90.7388 153.344 90.2734L163.529 96.1417C163.452 96.607 163.4 97.0723 163.349 97.5377L153.189 91.6694H153.163Z" fill="url(#paint111_linear_925_8698)" stroke="#64B5C8" stroke-linejoin="round"/>
<path d="M165.339 88.3873C165.21 88.8267 165.106 89.2404 164.977 89.6798L154.792 83.7857C154.921 83.3463 155.024 82.9326 155.153 82.4932L165.339 88.3873Z" fill="url(#paint112_linear_925_8698)" stroke="#64B5C8" stroke-linejoin="round"/>
<path d="M157.351 76.4435C157.506 76.0299 157.661 75.6421 157.842 75.2285L168.054 81.1226C167.873 81.5362 167.717 81.924 167.562 82.3376L157.351 76.4435Z" fill="url(#paint113_linear_925_8698)" stroke="#64B5C8" stroke-linejoin="round"/>
<path d="M183.719 44.284C192.146 39.424 199.798 38.8553 205.382 41.8799C205.408 41.8799 205.951 42.1901 206.778 42.6554C201.324 40.3288 194.214 41.1043 186.407 45.6025C169.268 55.5035 155.386 79.4677 155.386 99.1147C155.386 108.731 158.695 115.53 164.098 118.813C164.227 118.891 161.59 117.573 161.409 117.469C156.032 114.186 152.697 107.361 152.697 97.7704C152.697 78.0976 166.579 54.1334 183.719 44.2582V44.284Z" fill="url(#paint114_linear_925_8698)" stroke="#64B5C8" stroke-linejoin="round"/>
<path d="M192.509 49.4537C200.73 44.7229 208.046 44.2059 213.604 46.972C208.433 45.5243 201.996 46.61 195.042 50.617C177.903 60.518 164.021 84.4822 164.021 104.129C164.021 114.366 167.795 121.424 173.818 124.423C166.244 122.303 161.461 114.625 161.461 102.94C161.461 83.2672 175.344 59.303 192.483 49.4278L192.509 49.4537Z" fill="url(#paint115_linear_925_8698)" stroke="#64B5C8" stroke-linejoin="round"/>
<path d="M225.961 38.9855C225.961 48.6022 229.27 55.4011 234.673 58.6842C234.828 58.7876 243.876 64.3715 244.031 64.4749C249.641 67.6029 246.047 60.4938 254.578 55.582C271.718 45.681 285.6 21.7168 285.6 2.06981C285.6 -7.65029 294.596 -7.72784 289.09 -10.9851C288.935 -11.0627 278.827 -16.8275 278.672 -16.9309C273.088 -19.9555 265.436 -19.4126 257.008 -14.5267C239.869 -4.62568 225.987 19.3385 225.987 38.9855H225.961Z" fill="url(#paint116_linear_925_8698)" stroke="#64B5C8" stroke-linejoin="round"/>
<path d="M236.12 45.0078C236.12 64.6807 250.002 72.5912 267.141 62.6901C284.281 52.7891 298.163 28.8249 298.163 9.17792C298.163 -10.4691 284.281 -18.4054 267.141 -8.50438C250.002 1.39667 236.12 25.3608 236.12 45.0078Z" fill="url(#paint117_linear_925_8698)" stroke="#64B5C8" stroke-linejoin="round"/>
<path d="M244.212 40.3541C244.212 54.8826 254.475 60.7508 267.142 53.4349C279.809 46.1189 290.072 28.4108 290.072 13.8565C290.072 -0.697791 279.809 -6.54019 267.142 0.775736C254.475 8.09166 244.212 25.7998 244.212 40.3541Z" fill="url(#paint118_linear_925_8698)" stroke="#64B5C8" stroke-linejoin="round"/>
<path d="M265.022 51.419C277.689 44.1031 287.952 26.3949 287.952 11.8407C287.952 6.64454 286.608 2.56004 284.359 -0.206055C287.901 2.37908 290.072 7.18742 290.072 13.8571C290.072 28.3855 279.809 46.1195 267.116 53.4354C258.973 58.1404 251.838 57.3648 247.779 52.4014C251.993 55.4518 258.12 55.4001 264.996 51.419H265.022Z" fill="url(#paint119_linear_925_8698)" stroke="#64B5C8" stroke-linejoin="round"/>
<path d="M239.015 2.48145L249.252 8.40139C248.994 8.76331 248.761 9.12524 248.503 9.4613L238.266 3.54135C238.524 3.17943 238.757 2.81751 239.015 2.48145Z" fill="url(#paint120_linear_925_8698)" stroke="#64B5C8" stroke-linejoin="round"/>
<path d="M244.16 -3.90137L254.397 2.01858C254.112 2.35465 253.802 2.69072 253.518 3.00093L243.255 -2.91902C243.539 -3.25509 243.824 -3.59115 244.134 -3.90137H244.16Z" fill="url(#paint121_linear_925_8698)" stroke="#64B5C8" stroke-linejoin="round"/>
<path d="M234.647 9.33398L244.859 15.2281C244.652 15.6159 244.445 15.9778 244.238 16.3655L234.027 10.4714C234.234 10.0837 234.44 9.72175 234.647 9.33398Z" fill="url(#paint122_linear_925_8698)" stroke="#64B5C8" stroke-linejoin="round"/>
<path d="M227.745 49.7646L237.801 55.5812C238.033 56.2533 238.292 56.9255 238.602 57.5459L228.572 51.7552C228.262 51.1348 228.003 50.4626 227.745 49.7905V49.7646Z" fill="url(#paint123_linear_925_8698)" stroke="#64B5C8" stroke-linejoin="round"/>
<path d="M236.145 45.7838C236.145 46.3008 236.197 46.8178 236.223 47.3349L226.063 41.4666C226.038 40.9754 226.012 40.4584 225.986 39.9414L236.12 45.8096L236.145 45.7838Z" fill="url(#paint124_linear_925_8698)" stroke="#64B5C8" stroke-linejoin="round"/>
<path d="M226.425 32.8325C226.477 32.3672 226.529 31.9018 226.606 31.4365L236.792 37.3048C236.714 37.7701 236.662 38.2354 236.611 38.7007L226.451 32.8325H226.425Z" fill="url(#paint125_linear_925_8698)" stroke="#64B5C8" stroke-linejoin="round"/>
<path d="M238.627 29.5757C238.498 30.0152 238.395 30.4288 238.265 30.8683L228.08 24.9742C228.209 24.5347 228.313 24.1211 228.442 23.6816L238.627 29.5757Z" fill="url(#paint126_linear_925_8698)" stroke="#64B5C8" stroke-linejoin="round"/>
<path d="M230.614 17.631C230.769 17.2174 230.924 16.8296 231.105 16.416L241.316 22.3101C241.135 22.7237 240.98 23.1115 240.825 23.5251L230.614 17.631Z" fill="url(#paint127_linear_925_8698)" stroke="#64B5C8" stroke-linejoin="round"/>
<path d="M257.007 -14.5265C265.435 -19.3866 273.087 -19.9553 278.671 -16.9307C278.697 -16.9307 279.24 -16.6205 280.067 -16.1551C274.612 -18.4818 267.503 -17.7062 259.696 -13.1822C242.557 -3.28118 228.674 20.683 228.674 40.33C228.674 49.9467 231.983 56.7456 237.386 60.0287C237.516 60.1062 234.879 58.7878 234.698 58.6844C229.321 55.4013 225.986 48.5766 225.986 38.9857C225.986 19.3129 239.868 -4.6513 257.007 -14.5265Z" fill="url(#paint128_linear_925_8698)" stroke="#64B5C8" stroke-linejoin="round"/>
<path d="M265.797 -9.38226C274.018 -14.113 281.334 -14.6301 286.892 -11.864C281.722 -13.3117 275.285 -12.2259 268.331 -8.21895C251.191 1.68211 237.309 25.6463 237.309 45.2933C237.309 55.5304 241.084 62.5878 247.107 65.5866C239.533 63.4668 234.75 55.7889 234.75 44.1041C234.75 24.4313 248.632 0.467093 265.772 -9.40811L265.797 -9.38226Z" fill="url(#paint129_linear_925_8698)" stroke="#64B5C8" stroke-linejoin="round"/>
<path d="M171.337 0.801899C171.337 10.4186 174.646 17.2175 180.049 20.5006C180.204 20.604 189.252 26.1879 189.407 26.2913C195.017 29.4193 191.424 22.3102 199.955 17.3984C217.094 7.49739 230.976 -16.4668 230.976 -36.1138C230.976 -45.8339 239.973 -45.9114 234.466 -49.1687C234.311 -49.2721 224.203 -55.0111 224.048 -55.1145C218.464 -58.1391 210.812 -57.5962 202.385 -52.7103C185.245 -42.8093 171.363 -18.8451 171.363 0.801899H171.337Z" fill="url(#paint130_linear_925_8698)" stroke="#64B5C8" stroke-linejoin="round"/>
<path d="M181.496 6.82621C181.496 26.4991 195.378 34.4096 212.518 24.5085C229.657 14.6075 243.539 -9.35672 243.539 -29.0037C243.539 -48.6507 229.657 -56.5871 212.518 -46.686C195.378 -36.785 181.496 -12.8208 181.496 6.82621Z" fill="url(#paint131_linear_925_8698)" stroke="#64B5C8" stroke-linejoin="round"/>
<path d="M189.587 2.17246C189.587 16.7009 199.85 22.5692 212.518 15.2532C225.185 7.93731 235.448 -9.77084 235.448 -24.3251C235.448 -38.8794 225.185 -44.7218 212.518 -37.4059C199.85 -30.09 189.587 -12.3818 189.587 2.17246Z" fill="url(#paint132_linear_925_8698)" stroke="#64B5C8" stroke-linejoin="round"/>
<path d="M210.399 13.2374C223.066 5.92146 233.329 -11.7867 233.329 -26.341C233.329 -31.5371 231.984 -35.6216 229.735 -38.3877C233.277 -35.8026 235.449 -30.9942 235.449 -24.3246C235.449 -9.79614 225.186 7.93786 212.493 15.2538C204.349 19.9587 197.214 19.1832 193.156 14.2197C197.37 17.2702 203.496 17.2185 210.373 13.2374H210.399Z" fill="url(#paint133_linear_925_8698)" stroke="#64B5C8" stroke-linejoin="round"/>
<path d="M173.121 11.5566L183.177 17.3732C183.41 18.0453 183.668 18.7175 183.979 19.3379L173.948 13.5472C173.638 12.9268 173.38 12.2546 173.121 11.5825V11.5566Z" fill="url(#paint134_linear_925_8698)" stroke="#64B5C8" stroke-linejoin="round"/>
<path d="M181.522 7.60119C181.522 8.11821 181.574 8.63524 181.6 9.15227L171.44 3.28402C171.414 2.79284 171.389 2.27582 171.363 1.75879L181.497 7.62704L181.522 7.60119Z" fill="url(#paint135_linear_925_8698)" stroke="#64B5C8" stroke-linejoin="round"/>
<path d="M171.801 -5.35013C171.853 -5.81545 171.905 -6.28077 171.982 -6.74609L182.168 -0.877844C182.09 -0.41252 182.038 0.0528011 181.987 0.518125L171.827 -5.35013H171.801Z" fill="url(#paint136_linear_925_8698)" stroke="#64B5C8" stroke-linejoin="round"/>
<path d="M202.384 -52.7355C210.812 -57.5955 218.464 -58.1643 224.048 -55.1397C224.074 -55.1397 224.617 -54.8294 225.444 -54.3641C219.989 -56.6907 212.88 -55.9152 205.073 -51.4171C187.933 -41.516 174.051 -17.5518 174.051 2.09517C174.051 11.7119 177.36 18.5108 182.763 21.7939C182.892 21.8714 180.256 20.553 180.075 20.4496C174.698 17.1665 171.363 10.3417 171.363 0.750895C171.363 -18.922 185.245 -42.8861 202.384 -52.7613V-52.7355Z" fill="url(#paint137_linear_925_8698)" stroke="#64B5C8" stroke-linejoin="round"/>
<path d="M211.174 -47.5658C219.395 -52.2966 226.711 -52.8137 232.269 -50.0476C227.098 -51.4952 220.661 -50.4095 213.707 -46.4025C196.568 -36.5015 182.686 -12.5373 182.686 7.10968C182.686 17.3468 186.46 24.4042 192.483 27.403C184.909 25.2832 180.126 17.6053 180.126 5.92052C180.126 -13.7523 194.009 -37.7165 211.148 -47.5917L211.174 -47.5658Z" fill="url(#paint138_linear_925_8698)" stroke="#64B5C8" stroke-linejoin="round"/>
<path d="M101.202 166.769L151.431 143.684L201.686 224.779L101.202 166.769Z" fill="url(#paint139_linear_925_8698)" stroke="#64B5C8" stroke-linejoin="round"/>
<path d="M113.481 167.337L149.259 150.87L185.089 208.674L113.481 167.337Z" fill="url(#paint140_linear_925_8698)" stroke="#64B5C8" stroke-linejoin="round"/>
<path d="M115.885 166.795L149.544 151.31L149.259 150.87L113.481 167.337L185.089 208.674L183.202 205.649L115.885 166.795Z" fill="url(#paint141_linear_925_8698)" stroke="#64B5C8" stroke-linejoin="round"/>
</g>
<defs>
<linearGradient id="paint0_linear_925_8698" x1="232.475" y1="153.554" x2="232.475" y2="342.923" gradientUnits="userSpaceOnUse">
<stop stop-color="#A8C9D1"/>
<stop offset="1" stop-color="white"/>
</linearGradient>
<linearGradient id="paint1_linear_925_8698" x1="231.894" y1="155.427" x2="231.894" y2="342.058" gradientUnits="userSpaceOnUse">
<stop stop-color="#A8C9D1"/>
<stop offset="1" stop-color="white"/>
</linearGradient>
<linearGradient id="paint2_linear_925_8698" x1="231.284" y1="157.289" x2="231.284" y2="341.192" gradientUnits="userSpaceOnUse">
<stop stop-color="#A8C9D1"/>
<stop offset="1" stop-color="white"/>
</linearGradient>
<linearGradient id="paint3_linear_925_8698" x1="230.746" y1="159.161" x2="230.746" y2="340.333" gradientUnits="userSpaceOnUse">
<stop stop-color="#A8C9D1"/>
<stop offset="1" stop-color="white"/>
</linearGradient>
<linearGradient id="paint4_linear_925_8698" x1="230.17" y1="160.999" x2="230.17" y2="339.487" gradientUnits="userSpaceOnUse">
<stop stop-color="#A8C9D1"/>
<stop offset="1" stop-color="white"/>
</linearGradient>
<linearGradient id="paint5_linear_925_8698" x1="229.582" y1="162.852" x2="229.582" y2="338.624" gradientUnits="userSpaceOnUse">
<stop stop-color="#A8C9D1"/>
<stop offset="1" stop-color="white"/>
</linearGradient>
<linearGradient id="paint6_linear_925_8698" x1="229.047" y1="164.673" x2="229.047" y2="337.843" gradientUnits="userSpaceOnUse">
<stop stop-color="#A8C9D1"/>
<stop offset="1" stop-color="white"/>
</linearGradient>
<linearGradient id="paint7_linear_925_8698" x1="228.436" y1="166.507" x2="228.436" y2="336.999" gradientUnits="userSpaceOnUse">
<stop stop-color="#A8C9D1"/>
<stop offset="1" stop-color="white"/>
</linearGradient>
<linearGradient id="paint8_linear_925_8698" x1="227.889" y1="168.308" x2="227.889" y2="336.234" gradientUnits="userSpaceOnUse">
<stop stop-color="#A8C9D1"/>
<stop offset="1" stop-color="white"/>
</linearGradient>
<linearGradient id="paint9_linear_925_8698" x1="227.279" y1="170.1" x2="227.279" y2="335.372" gradientUnits="userSpaceOnUse">
<stop stop-color="#A8C9D1"/>
<stop offset="1" stop-color="white"/>
</linearGradient>
<linearGradient id="paint10_linear_925_8698" x1="226.724" y1="171.913" x2="226.724" y2="334.595" gradientUnits="userSpaceOnUse">
<stop stop-color="#A8C9D1"/>
<stop offset="1" stop-color="white"/>
</linearGradient>
<linearGradient id="paint11_linear_925_8698" x1="296.43" y1="225.502" x2="296.43" y2="348.683" gradientUnits="userSpaceOnUse">
<stop stop-color="#A8C9D1"/>
<stop offset="1" stop-color="white"/>
</linearGradient>
<linearGradient id="paint12_linear_925_8698" x1="135.624" y1="260.996" x2="135.624" y2="348.684" gradientUnits="userSpaceOnUse">
<stop stop-color="#A8C9D1"/>
<stop offset="1" stop-color="white"/>
</linearGradient>
<linearGradient id="paint13_linear_925_8698" x1="230.847" y1="148.981" x2="230.847" y2="337.412" gradientUnits="userSpaceOnUse">
<stop stop-color="#A8C9D1"/>
<stop offset="1" stop-color="white"/>
</linearGradient>
<linearGradient id="paint14_linear_925_8698" x1="284.139" y1="214.18" x2="284.139" y2="323.195" gradientUnits="userSpaceOnUse">
<stop stop-color="#A8C9D1"/>
<stop offset="1" stop-color="white"/>
</linearGradient>
<linearGradient id="paint15_linear_925_8698" x1="147.929" y1="249.57" x2="147.929" y2="323.195" gradientUnits="userSpaceOnUse">
<stop stop-color="#A8C9D1"/>
<stop offset="1" stop-color="white"/>
</linearGradient>
<linearGradient id="paint16_linear_925_8698" x1="230.847" y1="152.033" x2="230.847" y2="311.665" gradientUnits="userSpaceOnUse">
<stop stop-color="#A8C9D1"/>
<stop offset="1" stop-color="white"/>
</linearGradient>
<linearGradient id="paint17_linear_925_8698" x1="284.333" y1="246.157" x2="284.333" y2="256.265" gradientUnits="userSpaceOnUse">
<stop stop-color="#A8C9D1"/>
<stop offset="1" stop-color="white"/>
</linearGradient>
<linearGradient id="paint18_linear_925_8698" x1="284.333" y1="239.152" x2="284.333" y2="253.267" gradientUnits="userSpaceOnUse">
<stop stop-color="#A8C9D1"/>
<stop offset="1" stop-color="white"/>
</linearGradient>
<linearGradient id="paint19_linear_925_8698" x1="284.333" y1="242.616" x2="284.333" y2="251.328" gradientUnits="userSpaceOnUse">
<stop stop-color="#A8C9D1"/>
<stop offset="1" stop-color="white"/>
</linearGradient>
<linearGradient id="paint20_linear_925_8698" x1="284.333" y1="237.136" x2="284.333" y2="248.148" gradientUnits="userSpaceOnUse">
<stop stop-color="#A8C9D1"/>
<stop offset="1" stop-color="white"/>
</linearGradient>
<linearGradient id="paint21_linear_925_8698" x1="284.333" y1="181.994" x2="284.333" y2="246.726" gradientUnits="userSpaceOnUse">
<stop stop-color="#A8C9D1"/>
<stop offset="1" stop-color="white"/>
</linearGradient>
<linearGradient id="paint22_linear_925_8698" x1="284.307" y1="177.859" x2="284.307" y2="186.184" gradientUnits="userSpaceOnUse">
<stop stop-color="#A8C9D1"/>
<stop offset="1" stop-color="white"/>
</linearGradient>
<linearGradient id="paint23_linear_925_8698" x1="284.333" y1="181.012" x2="284.333" y2="189.724" gradientUnits="userSpaceOnUse">
<stop stop-color="#A8C9D1"/>
<stop offset="1" stop-color="white"/>
</linearGradient>
<linearGradient id="paint24_linear_925_8698" x1="284.333" y1="175.53" x2="284.333" y2="186.543" gradientUnits="userSpaceOnUse">
<stop stop-color="#A8C9D1"/>
<stop offset="1" stop-color="white"/>
</linearGradient>
<linearGradient id="paint25_linear_925_8698" x1="256.619" y1="262.212" x2="256.619" y2="272.346" gradientUnits="userSpaceOnUse">
<stop stop-color="#A8C9D1"/>
<stop offset="1" stop-color="white"/>
</linearGradient>
<linearGradient id="paint26_linear_925_8698" x1="256.619" y1="255.205" x2="256.619" y2="269.32" gradientUnits="userSpaceOnUse">
<stop stop-color="#A8C9D1"/>
<stop offset="1" stop-color="white"/>
</linearGradient>
<linearGradient id="paint27_linear_925_8698" x1="256.621" y1="258.669" x2="256.621" y2="267.381" gradientUnits="userSpaceOnUse">
<stop stop-color="#A8C9D1"/>
<stop offset="1" stop-color="white"/>
</linearGradient>
<linearGradient id="paint28_linear_925_8698" x1="256.621" y1="253.189" x2="256.621" y2="264.202" gradientUnits="userSpaceOnUse">
<stop stop-color="#A8C9D1"/>
<stop offset="1" stop-color="white"/>
</linearGradient>
<linearGradient id="paint29_linear_925_8698" x1="256.62" y1="198.048" x2="256.62" y2="262.78" gradientUnits="userSpaceOnUse">
<stop stop-color="#A8C9D1"/>
<stop offset="1" stop-color="white"/>
</linearGradient>
<linearGradient id="paint30_linear_925_8698" x1="256.594" y1="193.912" x2="256.594" y2="202.236" gradientUnits="userSpaceOnUse">
<stop stop-color="#A8C9D1"/>
<stop offset="1" stop-color="white"/>
</linearGradient>
<linearGradient id="paint31_linear_925_8698" x1="256.621" y1="197.066" x2="256.621" y2="205.778" gradientUnits="userSpaceOnUse">
<stop stop-color="#A8C9D1"/>
<stop offset="1" stop-color="white"/>
</linearGradient>
<linearGradient id="paint32_linear_925_8698" x1="256.621" y1="191.586" x2="256.621" y2="202.599" gradientUnits="userSpaceOnUse">
<stop stop-color="#A8C9D1"/>
<stop offset="1" stop-color="white"/>
</linearGradient>
<linearGradient id="paint33_linear_925_8698" x1="228.881" y1="278.265" x2="228.881" y2="288.372" gradientUnits="userSpaceOnUse">
<stop stop-color="#A8C9D1"/>
<stop offset="1" stop-color="white"/>
</linearGradient>
<linearGradient id="paint34_linear_925_8698" x1="228.881" y1="271.26" x2="228.881" y2="285.375" gradientUnits="userSpaceOnUse">
<stop stop-color="#A8C9D1"/>
<stop offset="1" stop-color="white"/>
</linearGradient>
<linearGradient id="paint35_linear_925_8698" x1="228.881" y1="274.723" x2="228.881" y2="283.435" gradientUnits="userSpaceOnUse">
<stop stop-color="#A8C9D1"/>
<stop offset="1" stop-color="white"/>
</linearGradient>
<linearGradient id="paint36_linear_925_8698" x1="228.881" y1="269.242" x2="228.881" y2="280.255" gradientUnits="userSpaceOnUse">
<stop stop-color="#A8C9D1"/>
<stop offset="1" stop-color="white"/>
</linearGradient>
<linearGradient id="paint37_linear_925_8698" x1="228.907" y1="214.103" x2="228.907" y2="278.834" gradientUnits="userSpaceOnUse">
<stop stop-color="#A8C9D1"/>
<stop offset="1" stop-color="white"/>
</linearGradient>
<linearGradient id="paint38_linear_925_8698" x1="228.882" y1="209.967" x2="228.882" y2="218.291" gradientUnits="userSpaceOnUse">
<stop stop-color="#A8C9D1"/>
<stop offset="1" stop-color="white"/>
</linearGradient>
<linearGradient id="paint39_linear_925_8698" x1="228.881" y1="213.119" x2="228.881" y2="221.831" gradientUnits="userSpaceOnUse">
<stop stop-color="#A8C9D1"/>
<stop offset="1" stop-color="white"/>
</linearGradient>
<linearGradient id="paint40_linear_925_8698" x1="228.881" y1="207.641" x2="228.881" y2="218.653" gradientUnits="userSpaceOnUse">
<stop stop-color="#A8C9D1"/>
<stop offset="1" stop-color="white"/>
</linearGradient>
<linearGradient id="paint41_linear_925_8698" x1="339.758" y1="214.051" x2="339.758" y2="224.159" gradientUnits="userSpaceOnUse">
<stop stop-color="#A8C9D1"/>
<stop offset="1" stop-color="white"/>
</linearGradient>
<linearGradient id="paint42_linear_925_8698" x1="339.758" y1="207.071" x2="339.758" y2="221.186" gradientUnits="userSpaceOnUse">
<stop stop-color="#A8C9D1"/>
<stop offset="1" stop-color="white"/>
</linearGradient>
<linearGradient id="paint43_linear_925_8698" x1="339.758" y1="210.509" x2="339.758" y2="219.221" gradientUnits="userSpaceOnUse">
<stop stop-color="#A8C9D1"/>
<stop offset="1" stop-color="white"/>
</linearGradient>
<linearGradient id="paint44_linear_925_8698" x1="339.758" y1="205.055" x2="339.758" y2="216.067" gradientUnits="userSpaceOnUse">
<stop stop-color="#A8C9D1"/>
<stop offset="1" stop-color="white"/>
</linearGradient>
<linearGradient id="paint45_linear_925_8698" x1="339.784" y1="149.913" x2="339.784" y2="214.645" gradientUnits="userSpaceOnUse">
<stop stop-color="#A8C9D1"/>
<stop offset="1" stop-color="white"/>
</linearGradient>
<linearGradient id="paint46_linear_925_8698" x1="339.758" y1="145.777" x2="339.758" y2="154.101" gradientUnits="userSpaceOnUse">
<stop stop-color="#A8C9D1"/>
<stop offset="1" stop-color="white"/>
</linearGradient>
<linearGradient id="paint47_linear_925_8698" x1="339.758" y1="148.904" x2="339.758" y2="157.616" gradientUnits="userSpaceOnUse">
<stop stop-color="#A8C9D1"/>
<stop offset="1" stop-color="white"/>
</linearGradient>
<linearGradient id="paint48_linear_925_8698" x1="339.758" y1="143.451" x2="339.758" y2="154.464" gradientUnits="userSpaceOnUse">
<stop stop-color="#A8C9D1"/>
<stop offset="1" stop-color="white"/>
</linearGradient>
<linearGradient id="paint49_linear_925_8698" x1="312.046" y1="230.104" x2="312.046" y2="240.212" gradientUnits="userSpaceOnUse">
<stop stop-color="#A8C9D1"/>
<stop offset="1" stop-color="white"/>
</linearGradient>
<linearGradient id="paint50_linear_925_8698" x1="312.046" y1="223.124" x2="312.046" y2="237.239" gradientUnits="userSpaceOnUse">
<stop stop-color="#A8C9D1"/>
<stop offset="1" stop-color="white"/>
</linearGradient>
<linearGradient id="paint51_linear_925_8698" x1="312.045" y1="226.562" x2="312.045" y2="235.274" gradientUnits="userSpaceOnUse">
<stop stop-color="#A8C9D1"/>
<stop offset="1" stop-color="white"/>
</linearGradient>
<linearGradient id="paint52_linear_925_8698" x1="312.045" y1="221.107" x2="312.045" y2="232.12" gradientUnits="userSpaceOnUse">
<stop stop-color="#A8C9D1"/>
<stop offset="1" stop-color="white"/>
</linearGradient>
<linearGradient id="paint53_linear_925_8698" x1="312.045" y1="165.967" x2="312.045" y2="230.698" gradientUnits="userSpaceOnUse">
<stop stop-color="#A8C9D1"/>
<stop offset="1" stop-color="white"/>
</linearGradient>
<linearGradient id="paint54_linear_925_8698" x1="312.019" y1="161.83" x2="312.019" y2="170.154" gradientUnits="userSpaceOnUse">
<stop stop-color="#A8C9D1"/>
<stop offset="1" stop-color="white"/>
</linearGradient>
<linearGradient id="paint55_linear_925_8698" x1="312.045" y1="164.959" x2="312.045" y2="173.671" gradientUnits="userSpaceOnUse">
<stop stop-color="#A8C9D1"/>
<stop offset="1" stop-color="white"/>
</linearGradient>
<linearGradient id="paint56_linear_925_8698" x1="312.045" y1="159.505" x2="312.045" y2="170.518" gradientUnits="userSpaceOnUse">
<stop stop-color="#A8C9D1"/>
<stop offset="1" stop-color="white"/>
</linearGradient>
<linearGradient id="paint57_linear_925_8698" x1="201.169" y1="287.313" x2="201.169" y2="301.428" gradientUnits="userSpaceOnUse">
<stop stop-color="#A8C9D1"/>
<stop offset="1" stop-color="white"/>
</linearGradient>
<linearGradient id="paint58_linear_925_8698" x1="201.169" y1="290.751" x2="201.169" y2="299.463" gradientUnits="userSpaceOnUse">
<stop stop-color="#A8C9D1"/>
<stop offset="1" stop-color="white"/>
</linearGradient>
<linearGradient id="paint59_linear_925_8698" x1="201.169" y1="285.298" x2="201.169" y2="296.31" gradientUnits="userSpaceOnUse">
<stop stop-color="#A8C9D1"/>
<stop offset="1" stop-color="white"/>
</linearGradient>
<linearGradient id="paint60_linear_925_8698" x1="201.195" y1="230.157" x2="201.195" y2="294.889" gradientUnits="userSpaceOnUse">
<stop stop-color="#A8C9D1"/>
<stop offset="1" stop-color="white"/>
</linearGradient>
<linearGradient id="paint61_linear_925_8698" x1="201.168" y1="226.02" x2="201.168" y2="234.344" gradientUnits="userSpaceOnUse">
<stop stop-color="#A8C9D1"/>
<stop offset="1" stop-color="white"/>
</linearGradient>
<linearGradient id="paint62_linear_925_8698" x1="201.169" y1="229.174" x2="201.169" y2="237.886" gradientUnits="userSpaceOnUse">
<stop stop-color="#A8C9D1"/>
<stop offset="1" stop-color="white"/>
</linearGradient>
<linearGradient id="paint63_linear_925_8698" x1="201.169" y1="223.693" x2="201.169" y2="234.706" gradientUnits="userSpaceOnUse">
<stop stop-color="#A8C9D1"/>
<stop offset="1" stop-color="white"/>
</linearGradient>
<linearGradient id="paint64_linear_925_8698" x1="118.238" y1="246.157" x2="118.238" y2="256.265" gradientUnits="userSpaceOnUse">
<stop stop-color="#A8C9D1"/>
<stop offset="1" stop-color="white"/>
</linearGradient>
<linearGradient id="paint65_linear_925_8698" x1="118.238" y1="239.152" x2="118.238" y2="253.267" gradientUnits="userSpaceOnUse">
<stop stop-color="#A8C9D1"/>
<stop offset="1" stop-color="white"/>
</linearGradient>
<linearGradient id="paint66_linear_925_8698" x1="118.238" y1="242.616" x2="118.238" y2="251.328" gradientUnits="userSpaceOnUse">
<stop stop-color="#A8C9D1"/>
<stop offset="1" stop-color="white"/>
</linearGradient>
<linearGradient id="paint67_linear_925_8698" x1="118.238" y1="237.136" x2="118.238" y2="248.148" gradientUnits="userSpaceOnUse">
<stop stop-color="#A8C9D1"/>
<stop offset="1" stop-color="white"/>
</linearGradient>
<linearGradient id="paint68_linear_925_8698" x1="118.264" y1="181.994" x2="118.264" y2="246.726" gradientUnits="userSpaceOnUse">
<stop stop-color="#A8C9D1"/>
<stop offset="1" stop-color="white"/>
</linearGradient>
<linearGradient id="paint69_linear_925_8698" x1="118.239" y1="177.859" x2="118.239" y2="186.184" gradientUnits="userSpaceOnUse">
<stop stop-color="#A8C9D1"/>
<stop offset="1" stop-color="white"/>
</linearGradient>
<linearGradient id="paint70_linear_925_8698" x1="118.238" y1="181.012" x2="118.238" y2="189.724" gradientUnits="userSpaceOnUse">
<stop stop-color="#A8C9D1"/>
<stop offset="1" stop-color="white"/>
</linearGradient>
<linearGradient id="paint71_linear_925_8698" x1="118.238" y1="175.53" x2="118.238" y2="186.543" gradientUnits="userSpaceOnUse">
<stop stop-color="#A8C9D1"/>
<stop offset="1" stop-color="white"/>
</linearGradient>
<linearGradient id="paint72_linear_925_8698" x1="145.976" y1="262.212" x2="145.976" y2="272.346" gradientUnits="userSpaceOnUse">
<stop stop-color="#A8C9D1"/>
<stop offset="1" stop-color="white"/>
</linearGradient>
<linearGradient id="paint73_linear_925_8698" x1="145.976" y1="255.205" x2="145.976" y2="269.32" gradientUnits="userSpaceOnUse">
<stop stop-color="#A8C9D1"/>
<stop offset="1" stop-color="white"/>
</linearGradient>
<linearGradient id="paint74_linear_925_8698" x1="145.976" y1="258.669" x2="145.976" y2="267.381" gradientUnits="userSpaceOnUse">
<stop stop-color="#A8C9D1"/>
<stop offset="1" stop-color="white"/>
</linearGradient>
<linearGradient id="paint75_linear_925_8698" x1="145.976" y1="253.189" x2="145.976" y2="264.202" gradientUnits="userSpaceOnUse">
<stop stop-color="#A8C9D1"/>
<stop offset="1" stop-color="white"/>
</linearGradient>
<linearGradient id="paint76_linear_925_8698" x1="145.977" y1="198.048" x2="145.977" y2="262.78" gradientUnits="userSpaceOnUse">
<stop stop-color="#A8C9D1"/>
<stop offset="1" stop-color="white"/>
</linearGradient>
<linearGradient id="paint77_linear_925_8698" x1="145.951" y1="193.912" x2="145.951" y2="202.236" gradientUnits="userSpaceOnUse">
<stop stop-color="#A8C9D1"/>
<stop offset="1" stop-color="white"/>
</linearGradient>
<linearGradient id="paint78_linear_925_8698" x1="145.976" y1="197.066" x2="145.976" y2="205.778" gradientUnits="userSpaceOnUse">
<stop stop-color="#A8C9D1"/>
<stop offset="1" stop-color="white"/>
</linearGradient>
<linearGradient id="paint79_linear_925_8698" x1="145.976" y1="191.586" x2="145.976" y2="202.599" gradientUnits="userSpaceOnUse">
<stop stop-color="#A8C9D1"/>
<stop offset="1" stop-color="white"/>
</linearGradient>
<linearGradient id="paint80_linear_925_8698" x1="173.69" y1="278.265" x2="173.69" y2="288.372" gradientUnits="userSpaceOnUse">
<stop stop-color="#A8C9D1"/>
<stop offset="1" stop-color="white"/>
</linearGradient>
<linearGradient id="paint81_linear_925_8698" x1="173.69" y1="271.26" x2="173.69" y2="285.375" gradientUnits="userSpaceOnUse">
<stop stop-color="#A8C9D1"/>
<stop offset="1" stop-color="white"/>
</linearGradient>
<linearGradient id="paint82_linear_925_8698" x1="173.689" y1="274.723" x2="173.689" y2="283.435" gradientUnits="userSpaceOnUse">
<stop stop-color="#A8C9D1"/>
<stop offset="1" stop-color="white"/>
</linearGradient>
<linearGradient id="paint83_linear_925_8698" x1="173.689" y1="269.242" x2="173.689" y2="280.255" gradientUnits="userSpaceOnUse">
<stop stop-color="#A8C9D1"/>
<stop offset="1" stop-color="white"/>
</linearGradient>
<linearGradient id="paint84_linear_925_8698" x1="173.689" y1="214.103" x2="173.689" y2="278.834" gradientUnits="userSpaceOnUse">
<stop stop-color="#A8C9D1"/>
<stop offset="1" stop-color="white"/>
</linearGradient>
<linearGradient id="paint85_linear_925_8698" x1="173.664" y1="209.967" x2="173.664" y2="218.291" gradientUnits="userSpaceOnUse">
<stop stop-color="#A8C9D1"/>
<stop offset="1" stop-color="white"/>
</linearGradient>
<linearGradient id="paint86_linear_925_8698" x1="173.689" y1="213.119" x2="173.689" y2="221.831" gradientUnits="userSpaceOnUse">
<stop stop-color="#A8C9D1"/>
<stop offset="1" stop-color="white"/>
</linearGradient>
<linearGradient id="paint87_linear_925_8698" x1="173.689" y1="207.641" x2="173.689" y2="218.653" gradientUnits="userSpaceOnUse">
<stop stop-color="#A8C9D1"/>
<stop offset="1" stop-color="white"/>
</linearGradient>
<linearGradient id="paint88_linear_925_8698" x1="276.28" y1="137.762" x2="276.28" y2="236.746" gradientUnits="userSpaceOnUse">
<stop stop-color="#A8C9D1"/>
<stop offset="1" stop-color="white"/>
</linearGradient>
<linearGradient id="paint89_linear_925_8698" x1="151.948" y1="168.681" x2="151.948" y2="236.747" gradientUnits="userSpaceOnUse">
<stop stop-color="#A8C9D1"/>
<stop offset="1" stop-color="white"/>
</linearGradient>
<linearGradient id="paint90_linear_925_8698" x1="276.28" y1="137.762" x2="276.28" y2="230.18" gradientUnits="userSpaceOnUse">
<stop stop-color="#A8C9D1"/>
<stop offset="1" stop-color="white"/>
</linearGradient>
<linearGradient id="paint91_linear_925_8698" x1="151.948" y1="168.681" x2="151.948" y2="230.181" gradientUnits="userSpaceOnUse">
<stop stop-color="#A8C9D1"/>
<stop offset="1" stop-color="white"/>
</linearGradient>
<linearGradient id="paint92_linear_925_8698" x1="227.007" y1="80.2949" x2="227.007" y2="226.096" gradientUnits="userSpaceOnUse">
<stop stop-color="#A8C9D1"/>
<stop offset="1" stop-color="white"/>
</linearGradient>
<linearGradient id="paint93_linear_925_8698" x1="276.836" y1="135.824" x2="276.836" y2="228.062" gradientUnits="userSpaceOnUse">
<stop stop-color="#A8C9D1"/>
<stop offset="1" stop-color="white"/>
</linearGradient>
<linearGradient id="paint94_linear_925_8698" x1="151.405" y1="166.741" x2="151.405" y2="228.061" gradientUnits="userSpaceOnUse">
<stop stop-color="#A8C9D1"/>
<stop offset="1" stop-color="white"/>
</linearGradient>
<linearGradient id="paint95_linear_925_8698" x1="227.02" y1="77.7109" x2="227.02" y2="224.805" gradientUnits="userSpaceOnUse">
<stop stop-color="#A8C9D1"/>
<stop offset="1" stop-color="white"/>
</linearGradient>
<linearGradient id="paint96_linear_925_8698" x1="299.094" y1="56.6416" x2="299.094" y2="137.737" gradientUnits="userSpaceOnUse">
<stop stop-color="#A8C9D1"/>
<stop offset="1" stop-color="white"/>
</linearGradient>
<linearGradient id="paint97_linear_925_8698" x1="203.379" y1="61.4766" x2="203.379" y2="161.469" gradientUnits="userSpaceOnUse">
<stop stop-color="#A8C9D1"/>
<stop offset="1" stop-color="white"/>
</linearGradient>
<linearGradient id="paint98_linear_925_8698" x1="252.12" y1="57.0938" x2="252.12" y2="224.083" gradientUnits="userSpaceOnUse">
<stop stop-color="#A8C9D1"/>
<stop offset="1" stop-color="white"/>
</linearGradient>
<linearGradient id="paint99_linear_925_8698" x1="185.154" y1="40.0391" x2="185.154" y2="124.082" gradientUnits="userSpaceOnUse">
<stop stop-color="#A8C9D1"/>
<stop offset="1" stop-color="white"/>
</linearGradient>
<linearGradient id="paint100_linear_925_8698" x1="193.879" y1="46.0693" x2="193.879" y2="125.795" gradientUnits="userSpaceOnUse">
<stop stop-color="#A8C9D1"/>
<stop offset="1" stop-color="white"/>
</linearGradient>
<linearGradient id="paint101_linear_925_8698" x1="193.853" y1="56.4346" x2="193.853" y2="115.396" gradientUnits="userSpaceOnUse">
<stop stop-color="#A8C9D1"/>
<stop offset="1" stop-color="white"/>
</linearGradient>
<linearGradient id="paint102_linear_925_8698" x1="195.663" y1="58.6328" x2="195.663" y2="115.415" gradientUnits="userSpaceOnUse">
<stop stop-color="#A8C9D1"/>
<stop offset="1" stop-color="white"/>
</linearGradient>
<linearGradient id="paint103_linear_925_8698" x1="188.851" y1="43.9746" x2="188.851" y2="50.6443" gradientUnits="userSpaceOnUse">
<stop stop-color="#A8C9D1"/>
<stop offset="1" stop-color="white"/>
</linearGradient>
<linearGradient id="paint104_linear_925_8698" x1="198.519" y1="40.3564" x2="198.519" y2="46.7417" gradientUnits="userSpaceOnUse">
<stop stop-color="#A8C9D1"/>
<stop offset="1" stop-color="white"/>
</linearGradient>
<linearGradient id="paint105_linear_925_8698" x1="181.586" y1="49.0664" x2="181.586" y2="55.8912" gradientUnits="userSpaceOnUse">
<stop stop-color="#A8C9D1"/>
<stop offset="1" stop-color="white"/>
</linearGradient>
<linearGradient id="paint106_linear_925_8698" x1="170.47" y1="61.3213" x2="170.47" y2="68.3011" gradientUnits="userSpaceOnUse">
<stop stop-color="#A8C9D1"/>
<stop offset="1" stop-color="white"/>
</linearGradient>
<linearGradient id="paint107_linear_925_8698" x1="175.577" y1="54.9346" x2="175.577" y2="61.8369" gradientUnits="userSpaceOnUse">
<stop stop-color="#A8C9D1"/>
<stop offset="1" stop-color="white"/>
</linearGradient>
<linearGradient id="paint108_linear_925_8698" x1="166.154" y1="68.1465" x2="166.154" y2="75.178" gradientUnits="userSpaceOnUse">
<stop stop-color="#A8C9D1"/>
<stop offset="1" stop-color="white"/>
</linearGradient>
<linearGradient id="paint109_linear_925_8698" x1="159.911" y1="108.576" x2="159.911" y2="116.357" gradientUnits="userSpaceOnUse">
<stop stop-color="#A8C9D1"/>
<stop offset="1" stop-color="white"/>
</linearGradient>
<linearGradient id="paint110_linear_925_8698" x1="157.843" y1="98.7539" x2="157.843" y2="106.147" gradientUnits="userSpaceOnUse">
<stop stop-color="#A8C9D1"/>
<stop offset="1" stop-color="white"/>
</linearGradient>
<linearGradient id="paint111_linear_925_8698" x1="158.346" y1="90.2734" x2="158.346" y2="97.5377" gradientUnits="userSpaceOnUse">
<stop stop-color="#A8C9D1"/>
<stop offset="1" stop-color="white"/>
</linearGradient>
<linearGradient id="paint112_linear_925_8698" x1="160.065" y1="82.4932" x2="160.065" y2="89.6798" gradientUnits="userSpaceOnUse">
<stop stop-color="#A8C9D1"/>
<stop offset="1" stop-color="white"/>
</linearGradient>
<linearGradient id="paint113_linear_925_8698" x1="162.702" y1="75.2285" x2="162.702" y2="82.3376" gradientUnits="userSpaceOnUse">
<stop stop-color="#A8C9D1"/>
<stop offset="1" stop-color="white"/>
</linearGradient>
<linearGradient id="paint114_linear_925_8698" x1="179.738" y1="40.0195" x2="179.738" y2="118.817" gradientUnits="userSpaceOnUse">
<stop stop-color="#A8C9D1"/>
<stop offset="1" stop-color="white"/>
</linearGradient>
<linearGradient id="paint115_linear_925_8698" x1="187.532" y1="45.2881" x2="187.532" y2="124.423" gradientUnits="userSpaceOnUse">
<stop stop-color="#A8C9D1"/>
<stop offset="1" stop-color="white"/>
</linearGradient>
<linearGradient id="paint116_linear_925_8698" x1="258.418" y1="-18.7988" x2="258.418" y2="65.2437" gradientUnits="userSpaceOnUse">
<stop stop-color="#A8C9D1"/>
<stop offset="1" stop-color="white"/>
</linearGradient>
<linearGradient id="paint117_linear_925_8698" x1="267.141" y1="-12.7676" x2="267.141" y2="66.958" gradientUnits="userSpaceOnUse">
<stop stop-color="#A8C9D1"/>
<stop offset="1" stop-color="white"/>
</linearGradient>
<linearGradient id="paint118_linear_925_8698" x1="267.142" y1="-2.37793" x2="267.142" y2="56.5838" gradientUnits="userSpaceOnUse">
<stop stop-color="#A8C9D1"/>
<stop offset="1" stop-color="white"/>
</linearGradient>
<linearGradient id="paint119_linear_925_8698" x1="268.926" y1="-0.206055" x2="268.926" y2="56.5757" gradientUnits="userSpaceOnUse">
<stop stop-color="#A8C9D1"/>
<stop offset="1" stop-color="white"/>
</linearGradient>
<linearGradient id="paint120_linear_925_8698" x1="243.759" y1="2.48145" x2="243.759" y2="9.4613" gradientUnits="userSpaceOnUse">
<stop stop-color="#A8C9D1"/>
<stop offset="1" stop-color="white"/>
</linearGradient>
<linearGradient id="paint121_linear_925_8698" x1="248.826" y1="-3.90137" x2="248.826" y2="3.00093" gradientUnits="userSpaceOnUse">
<stop stop-color="#A8C9D1"/>
<stop offset="1" stop-color="white"/>
</linearGradient>
<linearGradient id="paint122_linear_925_8698" x1="239.443" y1="9.33398" x2="239.443" y2="16.3655" gradientUnits="userSpaceOnUse">
<stop stop-color="#A8C9D1"/>
<stop offset="1" stop-color="white"/>
</linearGradient>
<linearGradient id="paint123_linear_925_8698" x1="233.173" y1="49.7646" x2="233.173" y2="57.5459" gradientUnits="userSpaceOnUse">
<stop stop-color="#A8C9D1"/>
<stop offset="1" stop-color="white"/>
</linearGradient>
<linearGradient id="paint124_linear_925_8698" x1="231.104" y1="39.9414" x2="231.104" y2="47.3349" gradientUnits="userSpaceOnUse">
<stop stop-color="#A8C9D1"/>
<stop offset="1" stop-color="white"/>
</linearGradient>
<linearGradient id="paint125_linear_925_8698" x1="231.608" y1="31.4365" x2="231.608" y2="38.7007" gradientUnits="userSpaceOnUse">
<stop stop-color="#A8C9D1"/>
<stop offset="1" stop-color="white"/>
</linearGradient>
<linearGradient id="paint126_linear_925_8698" x1="233.354" y1="23.6816" x2="233.354" y2="30.8683" gradientUnits="userSpaceOnUse">
<stop stop-color="#A8C9D1"/>
<stop offset="1" stop-color="white"/>
</linearGradient>
<linearGradient id="paint127_linear_925_8698" x1="235.965" y1="16.416" x2="235.965" y2="23.5251" gradientUnits="userSpaceOnUse">
<stop stop-color="#A8C9D1"/>
<stop offset="1" stop-color="white"/>
</linearGradient>
<linearGradient id="paint128_linear_925_8698" x1="253.026" y1="-18.791" x2="253.026" y2="60.032" gradientUnits="userSpaceOnUse">
<stop stop-color="#A8C9D1"/>
<stop offset="1" stop-color="white"/>
</linearGradient>
<linearGradient id="paint129_linear_925_8698" x1="260.821" y1="-13.5479" x2="260.821" y2="65.5866" gradientUnits="userSpaceOnUse">
<stop stop-color="#A8C9D1"/>
<stop offset="1" stop-color="white"/>
</linearGradient>
<linearGradient id="paint130_linear_925_8698" x1="203.794" y1="-56.9824" x2="203.794" y2="27.0601" gradientUnits="userSpaceOnUse">
<stop stop-color="#A8C9D1"/>
<stop offset="1" stop-color="white"/>
</linearGradient>
<linearGradient id="paint131_linear_925_8698" x1="212.518" y1="-50.9492" x2="212.518" y2="28.7764" gradientUnits="userSpaceOnUse">
<stop stop-color="#A8C9D1"/>
<stop offset="1" stop-color="white"/>
</linearGradient>
<linearGradient id="paint132_linear_925_8698" x1="212.518" y1="-40.5596" x2="212.518" y2="18.4022" gradientUnits="userSpaceOnUse">
<stop stop-color="#A8C9D1"/>
<stop offset="1" stop-color="white"/>
</linearGradient>
<linearGradient id="paint133_linear_925_8698" x1="214.302" y1="-38.3877" x2="214.302" y2="18.394" gradientUnits="userSpaceOnUse">
<stop stop-color="#A8C9D1"/>
<stop offset="1" stop-color="white"/>
</linearGradient>
<linearGradient id="paint134_linear_925_8698" x1="178.55" y1="11.5566" x2="178.55" y2="19.3379" gradientUnits="userSpaceOnUse">
<stop stop-color="#A8C9D1"/>
<stop offset="1" stop-color="white"/>
</linearGradient>
<linearGradient id="paint135_linear_925_8698" x1="176.481" y1="1.75879" x2="176.481" y2="9.15227" gradientUnits="userSpaceOnUse">
<stop stop-color="#A8C9D1"/>
<stop offset="1" stop-color="white"/>
</linearGradient>
<linearGradient id="paint136_linear_925_8698" x1="176.984" y1="-6.74609" x2="176.984" y2="0.518125" gradientUnits="userSpaceOnUse">
<stop stop-color="#A8C9D1"/>
<stop offset="1" stop-color="white"/>
</linearGradient>
<linearGradient id="paint137_linear_925_8698" x1="198.403" y1="-57" x2="198.403" y2="21.7972" gradientUnits="userSpaceOnUse">
<stop stop-color="#A8C9D1"/>
<stop offset="1" stop-color="white"/>
</linearGradient>
<linearGradient id="paint138_linear_925_8698" x1="206.198" y1="-51.7314" x2="206.198" y2="27.403" gradientUnits="userSpaceOnUse">
<stop stop-color="#A8C9D1"/>
<stop offset="1" stop-color="white"/>
</linearGradient>
<linearGradient id="paint139_linear_925_8698" x1="151.444" y1="143.684" x2="151.444" y2="224.779" gradientUnits="userSpaceOnUse">
<stop stop-color="#A8C9D1"/>
<stop offset="1" stop-color="white"/>
</linearGradient>
<linearGradient id="paint140_linear_925_8698" x1="149.285" y1="150.87" x2="149.285" y2="208.674" gradientUnits="userSpaceOnUse">
<stop stop-color="#A8C9D1"/>
<stop offset="1" stop-color="white"/>
</linearGradient>
<linearGradient id="paint141_linear_925_8698" x1="149.285" y1="150.87" x2="149.285" y2="208.674" gradientUnits="userSpaceOnUse">
<stop stop-color="#A8C9D1"/>
<stop offset="1" stop-color="white"/>
</linearGradient>
<clipPath id="clip0_925_8698">
<rect width="462" height="291" rx="8" fill="white"/>
</clipPath>
</defs>
</svg>
